<?xml version="1.0" standalone="no"?>
<!DOCTYPE svg PUBLIC "-//W3C//DTD SVG 1.1//EN" "http://www.w3.org/Graphics/SVG/1.1/DTD/svg11.dtd" >
<svg xmlns="http://www.w3.org/2000/svg" xmlns:xlink="http://www.w3.org/1999/xlink" version="1.1">
<metadata>
Created by FontForge 20190801 at Fri Jan  3 23:18:10 2020
 By root
Copyright \(c\) 2018 Monotype GmbH. All rights reserved.
</metadata>
<defs>
<font id="AvenirArabic-Book" horiz-adv-x="0" >
  <font-face 
    font-family="Avenir Arabic"
    font-weight="300"
    font-stretch="normal"
    units-per-em="1000"
    panose-1="2 11 5 3 2 2 3 2 2 4"
    ascent="800"
    descent="-200"
    x-height="468"
    cap-height="708"
    bbox="-336 -459 1394 1084"
    underline-thickness="50"
    underline-position="-150"
    stemh="63"
    stemv="60"
    unicode-range="U+000D-FEFF"
  />
<missing-glyph horiz-adv-x="512" 
d="M0 718h512v-718h-512v718zM50 50h412v617h-412v-617zM259 609c72 0 124 -52 124 -131c0 -48 -16 -77 -64 -121c-36 -35 -45 -44 -46 -73c-1 -16 -2 -33 -2 -50h-46c-1 11 -2 20 -2 29c0 24 5 42 9 58c2 8 12 23 14 28c2 4 17 21 18 23s22 23 23 24c14 14 26 28 35 40
c7 10 10 23 10 38c0 47 -35 85 -76 85c-47 0 -74 -32 -82 -95l-50 8c8 89 56 137 135 137zM222 117v67h56v-67h-56z" />
    <glyph glyph-name="uniFDF2" unicode="&#x627;&#xfedf;&#xfee0;&#xfeea;" horiz-adv-x="1387" arabic-form="isolated" 
d="M692 790h-5v146h34v-135zM659 637c-43 0 -67 26 -67 65c0 15 3 31 10 47l25 -6c-3 -10 -5 -20 -5 -30c0 -25 12 -38 37 -38c21 0 31 13 31 38c0 9 -1 17 -2 22l26 6c4 -13 6 -25 6 -37v-4c8 -11 20 -16 37 -16c21 0 31 11 31 33c0 14 -3 29 -8 45l25 11
c10 -20 15 -39 15 -57c0 -40 -22 -68 -61 -68c-19 0 -35 6 -48 18c-10 -19 -27 -29 -52 -29zM551 0c-93 0 -149 19 -167 56c-46 -22 -93 -33 -140 -33c-125 0 -204 65 -204 176c0 124 88 204 232 204h163v-244c0 -75 28 -96 116 -96c92 0 121 36 121 137v386h66v-401
c0 -81 44 -122 133 -122c93 0 121 34 121 137v556h66v-583c0 -115 -62 -173 -187 -173c-78 0 -131 24 -158 73c-28 -49 -82 -73 -162 -73zM1308 0h-66v756h66v-756zM249 88c45 0 83 9 116 27v225h-105c-93 0 -152 -46 -152 -134c0 -77 50 -118 141 -118z" />
    <glyph glyph-name="uniFEF5" unicode="&#xfedf;&#xfe82;" horiz-adv-x="659" arabic-form="isolated" 
d="M514 203v553h66v-571c0 -117 -70 -185 -197 -185h-353v63h215v487h66v-487h65c93 0 138 41 138 140zM195 659c-16 0 -32 -6 -47 -18l-24 28c25 23 49 34 74 34c12 0 35 -4 68 -13s56 -14 69 -14c17 0 36 8 56 25l27 -25c-19 -29 -46 -43 -79 -43c-18 0 -44 4 -78 13
s-56 13 -66 13z" />
    <glyph glyph-name="uniFEF6" unicode="&#xfee0;&#xfe82;" horiz-adv-x="714" arabic-form="final" 
d="M714 63c13 0 20 -11 20 -32s-7 -31 -20 -31c-81 0 -135 26 -161 77c-33 -51 -90 -77 -170 -77h-353v63h215v487h66v-487h65c93 0 138 41 138 140v553h66v-571c0 -81 45 -122 134 -122zM195 659c-16 0 -32 -6 -47 -18l-24 28c25 23 49 34 74 34c12 0 35 -4 68 -13
s56 -14 69 -14c17 0 36 8 56 25l27 -25c-19 -29 -46 -43 -79 -43c-18 0 -44 4 -78 13s-56 13 -66 13z" />
    <glyph glyph-name="uniFEF7" unicode="&#xfedf;&#xfe84;" horiz-adv-x="659" arabic-form="isolated" 
d="M274 660h88v-35h-162v35h37c-10 16 -15 33 -15 51c0 45 35 75 84 75c13 0 28 -2 47 -6l-7 -34c-10 3 -21 5 -34 5c-48 0 -70 -40 -38 -91zM514 203v553h66v-571c0 -117 -70 -185 -197 -185h-353v63h215v487h66v-487h65c93 0 138 41 138 140z" />
    <glyph glyph-name="uniFEF8" unicode="&#xfee0;&#xfe84;" horiz-adv-x="714" arabic-form="final" 
d="M274 660h88v-35h-162v35h37c-10 16 -15 33 -15 51c0 45 35 75 84 75c13 0 28 -2 47 -6l-7 -34c-10 3 -21 5 -34 5c-48 0 -70 -40 -38 -91zM714 63c13 0 20 -11 20 -32s-7 -31 -20 -31c-81 0 -135 26 -161 77c-33 -51 -90 -77 -170 -77h-353v63h215v487h66v-487h65
c93 0 138 41 138 140v553h66v-571c0 -81 45 -122 134 -122z" />
    <glyph glyph-name="uniFEF9" unicode="&#xfedf;&#xfe88;" horiz-adv-x="659" arabic-form="isolated" 
d="M514 203v553h66v-571c0 -117 -70 -185 -197 -185h-353v63h215v487h66v-487h65c93 0 138 41 138 140zM270 -136c-20 -15 -20 -47 0 -79h88v-35h-162v35h38c-10 16 -15 33 -15 51c0 45 34 75 83 75c13 0 28 -2 47 -6l-6 -34c-11 3 -23 5 -35 5c-16 0 -29 -4 -38 -12z" />
    <glyph glyph-name="uniFEFA" unicode="&#xfee0;&#xfe88;" horiz-adv-x="714" arabic-form="final" 
d="M714 63c13 0 20 -11 20 -32s-7 -31 -20 -31c-81 0 -135 26 -161 77c-33 -51 -90 -77 -170 -77h-353v63h215v487h66v-487h65c93 0 138 41 138 140v553h66v-571c0 -81 45 -122 134 -122zM270 -136c-20 -15 -20 -47 0 -79h88v-35h-162v35h38c-10 16 -15 33 -15 51
c0 45 34 75 83 75c13 0 28 -2 47 -6l-6 -34c-11 3 -23 5 -35 5c-16 0 -29 -4 -38 -12z" />
    <glyph glyph-name="uniFEFB" unicode="&#xfedf;&#xfe8e;" horiz-adv-x="659" arabic-form="isolated" 
d="M514 203v553h66v-571c0 -117 -70 -185 -197 -185h-353v63h215v487h66v-487h65c93 0 138 41 138 140z" />
    <glyph glyph-name="uniFEFC" unicode="&#xfee0;&#xfe8e;" horiz-adv-x="714" arabic-form="final" 
d="M714 63c13 0 20 -11 20 -32s-7 -31 -20 -31c-81 0 -135 26 -161 77c-33 -51 -90 -77 -170 -77h-353v63h215v487h66v-487h65c93 0 138 41 138 140v553h66v-571c0 -81 45 -122 134 -122z" />
    <glyph glyph-name="uni06440671" unicode="&#xfedf;&#xfb51;" horiz-adv-x="659" 
d="M387 680c0 -19 -3 -38 -9 -55h-241v35h50v99h35v-45c24 34 53 51 88 51c48 0 77 -33 77 -85zM514 203v553h66v-571c0 -117 -70 -185 -197 -185h-353v63h215v487h66v-487h65c93 0 138 41 138 140zM307 730c-36 0 -69 -29 -88 -70h132c2 8 3 15 3 21c0 31 -19 49 -47 49z
" />
    <glyph glyph-name="uni06440671.fina" unicode="&#xfee0;&#xfb51;" horiz-adv-x="714" 
d="M387 680c0 -19 -3 -38 -9 -55h-241v35h50v99h35v-45c24 34 53 51 88 51c48 0 77 -33 77 -85zM714 63c13 0 20 -11 20 -32s-7 -31 -20 -31c-81 0 -135 26 -161 77c-33 -51 -90 -77 -170 -77h-353v63h215v487h66v-487h65c93 0 138 41 138 140v553h66v-571
c0 -81 45 -122 134 -122zM307 730c-36 0 -69 -29 -88 -70h132c2 8 3 15 3 21c0 31 -19 49 -47 49z" />
    <glyph glyph-name="uni066E.fina" unicode="&#x66e;" horiz-adv-x="1000" 
d="M1000 63c13 0 20 -11 20 -32s-7 -31 -20 -31c-80 0 -134 25 -161 76c-33 -51 -88 -76 -166 -76h-400c-144 0 -229 72 -229 188c0 47 11 99 32 157l61 -17c-17 -59 -26 -101 -26 -128c0 -91 57 -137 171 -137h384c92 0 134 41 134 137v203h66v-218c0 -81 45 -122 134 -122
z" />
    <glyph glyph-name="uni066F.fina" unicode="&#x66f;" horiz-adv-x="827" 
d="M712 63h115c13 0 20 -11 20 -32s-7 -31 -20 -31h-119c-20 -120 -118 -164 -321 -164c-229 0 -343 77 -343 232c0 41 8 84 23 130l61 -16c-11 -37 -17 -72 -17 -105c0 -120 84 -177 276 -177c164 0 243 31 256 100h-79c-156 0 -234 67 -234 202c0 57 18 107 54 149
c35 42 84 63 146 63c111 0 182 -72 182 -199v-152zM572 63h74v137c0 96 -41 149 -121 149c-76 0 -127 -55 -127 -146c0 -99 58 -140 174 -140z" />
    <glyph glyph-name="uni06A1.init" unicode="&#x6a1;" horiz-adv-x="553" 
d="M299 414c127 0 190 -89 190 -216c0 -61 -15 -127 -44 -198h-445v63h139c-35 38 -52 85 -52 141c0 61 20 112 59 151s90 59 153 59zM214 63h185c15 47 22 91 22 131c0 96 -43 155 -127 155c-85 0 -139 -59 -139 -147c0 -50 20 -96 59 -139z" />
    <glyph glyph-name="uni06A1.medi" unicode="&#x6a1;" horiz-adv-x="576" 
d="M459 63h117c13 0 20 -11 20 -32s-7 -31 -20 -31h-112c-64 0 -123 7 -178 20c-51 -13 -112 -20 -182 -20h-104v63h108c33 0 59 2 78 5c-66 43 -99 98 -99 167c0 52 19 95 56 129c37 33 86 50 145 50c119 0 196 -74 196 -179c0 -71 -33 -127 -98 -168c29 -3 54 -4 73 -4z
M155 235c0 -71 58 -129 131 -150c34 9 64 28 91 56c26 27 39 59 39 95c0 68 -53 113 -129 113c-79 0 -132 -46 -132 -114z" />
    <glyph glyph-name="uni06A1.fina" unicode="&#x6a1;" horiz-adv-x="1075" 
d="M958 63h117c13 0 20 -11 20 -32s-7 -31 -20 -31h-112c-64 0 -123 7 -178 20c-51 -13 -112 -20 -182 -20h-330c-144 0 -229 72 -229 188c0 47 11 99 32 157l61 -17c-17 -59 -26 -101 -26 -128c0 -91 57 -137 171 -137h325c33 0 59 2 78 5c-66 43 -99 98 -99 167
c0 52 19 95 56 129c37 33 86 50 145 50c119 0 196 -74 196 -179c0 -71 -33 -127 -98 -168c29 -3 54 -4 73 -4zM654 235c0 -71 58 -129 131 -150c34 9 64 28 91 56c26 27 39 59 39 95c0 68 -53 113 -129 113c-79 0 -132 -46 -132 -114z" />
    <glyph glyph-name="uni06C2.fina" unicode="&#x6c2;" horiz-adv-x="540" 
d="M257 577h112v-43h-206v43h49c-13 23 -20 45 -20 68c0 57 42 93 103 93c19 0 40 -2 62 -7l-8 -42c-21 3 -36 5 -45 5c-37 0 -67 -18 -67 -57c0 -17 7 -37 20 -60zM540 63c13 0 20 -11 20 -32s-7 -31 -20 -31h-40c-101 0 -153 52 -153 143v201h-74
c-96 0 -164 -51 -164 -144c0 -39 13 -74 40 -106l-50 -40c-39 40 -58 89 -58 147c0 59 21 108 62 147s98 59 170 59h143v-242c0 -79 29 -102 124 -102z" />
    <glyph glyph-name="uni06C3.fina" unicode="&#x6c3;" horiz-adv-x="551" 
d="M234 534c-16 -17 -46 -17 -62 0c-17 16 -17 46 0 63c16 16 46 16 62 0c16 -17 16 -47 0 -63zM369 534c-16 -17 -46 -17 -62 0c-17 16 -17 46 0 63c16 16 46 16 62 0c16 -17 16 -47 0 -63zM551 63c13 0 20 -11 20 -32s-7 -31 -20 -31c-93 0 -149 19 -168 56
c-45 -22 -92 -33 -139 -33c-125 0 -204 65 -204 176c0 124 88 204 232 204h163v-244c0 -75 28 -96 116 -96zM365 115v225h-105c-93 0 -152 -46 -152 -134c0 -77 50 -118 141 -118c45 0 83 9 116 27z" />
    <glyph glyph-name="uni06D5.fina" unicode="&#x6d5;" horiz-adv-x="551" 
d="M551 63c13 0 20 -11 20 -32s-7 -31 -20 -31c-93 0 -149 19 -168 56c-45 -22 -92 -33 -139 -33c-125 0 -204 65 -204 176c0 124 88 204 232 204h163v-244c0 -75 28 -96 116 -96zM365 115v225h-105c-93 0 -152 -46 -152 -134c0 -77 50 -118 141 -118c45 0 83 9 116 27z" />
    <glyph glyph-name="uniFB51" unicode="&#x671;" horiz-adv-x="280" arabic-form="final" 
d="M221 865c0 -19 -3 -38 -9 -55h-241v35h50v99h35v-45c24 34 53 51 88 51c48 0 77 -33 77 -85zM141 915c-36 0 -69 -29 -88 -70h132c2 8 3 15 3 21c0 31 -19 49 -47 49zM280 63c13 0 20 -11 20 -32s-7 -31 -20 -31c-139 0 -201 56 -201 171v585h66v-581
c0 -75 45 -112 135 -112z" />
    <glyph glyph-name="uniFB57" unicode="&#x67e;" horiz-adv-x="1000" arabic-form="final" 
d="M1000 63c13 0 20 -11 20 -32s-7 -31 -20 -31c-80 0 -134 25 -161 76c-33 -51 -88 -76 -166 -76h-400c-144 0 -229 72 -229 188c0 47 11 99 32 157l61 -17c-17 -59 -26 -101 -26 -128c0 -91 57 -137 171 -137h384c92 0 134 41 134 137v203h66v-218c0 -81 45 -122 134 -122
zM413 -133c5 -59 -91 -58 -87 0c-4 56 92 56 87 0zM474 -102c28 27 74 7 74 -31c0 -39 -47 -61 -74 -32c-17 17 -17 47 0 63zM408 -205c27 29 74 7 74 -32c0 -24 -18 -43 -43 -43s-44 19 -44 43c0 13 4 23 13 32z" />
    <glyph glyph-name="uniFB58" unicode="&#x67e;" horiz-adv-x="312" arabic-form="initial" 
d="M5 0h-5v63h6c84 0 119 40 119 137v203h66v-213c0 -127 -62 -190 -186 -190zM80 -166c-16 -16 -46 -16 -62 1c-17 17 -17 47 0 63c28 27 74 7 74 -31c0 -13 -4 -24 -12 -33zM215 -166c-16 -16 -46 -16 -62 1c-17 17 -17 47 0 63c28 27 74 7 74 -31c0 -13 -4 -24 -12 -33z
M149 -268c-27 -27 -75 -6 -75 31c-4 58 92 59 87 0c0 -12 -4 -22 -12 -31z" />
    <glyph glyph-name="uniFB59" unicode="&#x67e;" horiz-adv-x="325" arabic-form="medial" 
d="M325 63c13 0 20 -11 20 -32s-7 -31 -20 -31c-79 0 -133 25 -160 74c-29 -49 -83 -74 -160 -74h-5v63h6c84 0 119 40 119 137v203h66v-213v-5c0 -81 45 -122 134 -122zM121 -133c5 -59 -91 -58 -87 0c-4 56 92 56 87 0zM182 -102c28 27 74 7 74 -31c0 -39 -47 -61 -74 -32
c-17 17 -17 47 0 63zM116 -205c27 29 74 7 74 -32c0 -24 -18 -43 -43 -43s-44 19 -44 43c0 13 4 23 13 32z" />
    <glyph glyph-name="uniFB67" unicode="&#x679;" horiz-adv-x="1000" arabic-form="final" 
d="M571 489c0 -20 -3 -38 -9 -54h-249v36h50v168h35v-105c25 33 55 49 89 49c52 0 84 -38 84 -94zM485 548c-35 0 -68 -28 -87 -77h137c1 9 2 16 2 19c0 35 -21 58 -52 58zM1000 63c13 0 20 -11 20 -32s-7 -31 -20 -31c-80 0 -134 25 -161 76c-33 -51 -88 -76 -166 -76h-400
c-144 0 -229 72 -229 188c0 47 11 99 32 157l61 -17c-17 -59 -26 -101 -26 -128c0 -91 57 -137 171 -137h384c92 0 134 41 134 137v203h66v-218c0 -81 45 -122 134 -122z" />
    <glyph glyph-name="uniFB68" unicode="&#x679;" horiz-adv-x="251" arabic-form="initial" 
d="M196 673c52 0 84 -38 84 -94c0 -20 -3 -38 -9 -54h-249v36h50v168h35v-105c25 33 55 49 89 49zM194 638c-35 0 -68 -28 -87 -77h137c1 9 2 16 2 19c0 35 -21 58 -52 58zM126 200v203h66v-213c0 -132 -64 -190 -192 -190v63c89 0 126 38 126 137z" />
    <glyph glyph-name="uniFB69" unicode="&#x679;" horiz-adv-x="326" arabic-form="medial" 
d="M280 579c0 -20 -3 -38 -9 -54h-249v36h50v168h35v-105c25 33 55 49 89 49c52 0 84 -38 84 -94zM194 638c-35 0 -68 -28 -87 -77h137c1 9 2 16 2 19c0 35 -21 58 -52 58zM326 63c13 0 20 -11 20 -32s-7 -31 -20 -31c-79 0 -133 25 -160 74c-29 -49 -85 -74 -166 -74v63
c89 0 126 38 126 137v203h66v-213v-5c0 -81 45 -122 134 -122z" />
    <glyph glyph-name="uniFB6B" unicode="&#x6a4;" horiz-adv-x="1075" arabic-form="final" 
d="M819 651c-27 -28 -75 -7 -75 31c0 24 19 44 44 44c24 0 43 -20 43 -44c0 -13 -4 -23 -12 -31zM749 547c-16 -17 -46 -17 -62 0c-17 16 -17 46 0 63c16 16 46 16 62 0c16 -17 16 -47 0 -63zM822 547c-17 16 -17 46 0 63c16 16 46 16 62 0c16 -17 16 -47 0 -63
c-16 -17 -46 -17 -62 0zM958 63h117c13 0 20 -11 20 -32s-7 -31 -20 -31h-112c-64 0 -123 7 -178 20c-51 -13 -112 -20 -182 -20h-330c-144 0 -229 72 -229 188c0 47 11 99 32 157l61 -17c-17 -59 -26 -101 -26 -128c0 -91 57 -137 171 -137h325c33 0 59 2 78 5
c-66 43 -99 98 -99 167c0 52 19 95 56 129c37 33 86 50 145 50c119 0 196 -74 196 -179c0 -71 -33 -127 -98 -168c29 -3 54 -4 73 -4zM654 235c0 -71 58 -129 131 -150c34 9 64 28 91 56c26 27 39 59 39 95c0 68 -53 113 -129 113c-79 0 -132 -46 -132 -114z" />
    <glyph glyph-name="uniFB6C" unicode="&#x6a4;" horiz-adv-x="553" arabic-form="initial" 
d="M331 651c-27 -28 -75 -7 -75 31c0 24 19 44 44 44c24 0 43 -20 43 -44c0 -13 -4 -23 -12 -31zM261 547c-16 -17 -46 -17 -62 0c-17 16 -17 46 0 63c16 16 46 16 62 0c16 -17 16 -47 0 -63zM334 547c-17 16 -17 46 0 63c16 16 46 16 62 0c16 -17 16 -47 0 -63
c-16 -17 -46 -17 -62 0zM299 414c127 0 190 -89 190 -216c0 -61 -15 -127 -44 -198h-445v63h139c-35 38 -52 85 -52 141c0 61 20 112 59 151s90 59 153 59zM214 63h185c15 47 22 91 22 131c0 96 -43 155 -127 155c-85 0 -139 -59 -139 -147c0 -50 20 -96 59 -139z" />
    <glyph glyph-name="uniFB6D" unicode="&#x6a4;" horiz-adv-x="576" arabic-form="medial" 
d="M320 651c-27 -28 -75 -7 -75 31c0 24 19 44 44 44c24 0 43 -20 43 -44c0 -13 -4 -23 -12 -31zM250 547c-16 -17 -46 -17 -62 0c-17 16 -17 46 0 63c16 16 46 16 62 0c16 -17 16 -47 0 -63zM323 547c-17 16 -17 46 0 63c16 16 46 16 62 0c16 -17 16 -47 0 -63
c-16 -17 -46 -17 -62 0zM459 63h117c13 0 20 -11 20 -32s-7 -31 -20 -31h-112c-64 0 -123 7 -178 20c-51 -13 -112 -20 -182 -20h-104v63h108c33 0 59 2 78 5c-66 43 -99 98 -99 167c0 52 19 95 56 129c37 33 86 50 145 50c119 0 196 -74 196 -179c0 -71 -33 -127 -98 -168
c29 -3 54 -4 73 -4zM155 235c0 -71 58 -129 131 -150c34 9 64 28 91 56c26 27 39 59 39 95c0 68 -53 113 -129 113c-79 0 -132 -46 -132 -114z" />
    <glyph glyph-name="uniFB7B" unicode="&#x686;" horiz-adv-x="664" arabic-form="final" 
d="M543 63h121c13 0 20 -11 20 -32s-7 -31 -20 -31h-446c-71 0 -110 -35 -110 -96c0 -65 47 -100 131 -100c21 0 41 2 59 6l13 -61c-23 -6 -50 -9 -80 -9c-113 0 -191 61 -191 164c0 97 67 159 171 159h265c7 27 10 54 10 81c0 125 -69 205 -200 205c-35 0 -72 -6 -112 -19
l-15 60c46 16 92 24 137 24c167 0 254 -102 254 -265c0 -29 -2 -58 -7 -86zM273 -65c20 19 52 5 52 -21c0 -28 -32 -43 -52 -23c-12 13 -12 33 0 44zM368 -65c20 19 52 5 52 -21c0 -42 -61 -42 -61 0c0 9 3 16 9 21zM343 -127c19 0 31 -13 31 -32c0 -17 -12 -30 -31 -30
c-17 0 -30 13 -30 30c0 19 13 32 30 32z" />
    <glyph glyph-name="uniFB7C" unicode="&#x686;" horiz-adv-x="491" arabic-form="initial" 
d="M405 0h-405v63h351c29 111 5 286 -189 286c-35 0 -72 -6 -112 -19l-16 60c46 16 92 24 138 24c223 0 296 -174 233 -414zM159 -166c-16 -16 -46 -16 -62 1c-17 17 -17 47 0 63c28 27 74 7 74 -31c0 -13 -4 -24 -12 -33zM294 -166c-16 -16 -46 -16 -62 1
c-17 17 -17 47 0 63c28 27 74 7 74 -31c0 -13 -4 -24 -12 -33zM228 -268c-27 -27 -75 -6 -75 31c-4 58 92 59 87 0c0 -12 -4 -22 -12 -31z" />
    <glyph glyph-name="uniFB7D" unicode="&#x686;" horiz-adv-x="540" arabic-form="medial" 
d="M419 63h121c13 0 20 -11 20 -32s-7 -31 -20 -31h-540v63h351c29 111 5 286 -189 286c-35 0 -72 -6 -112 -19l-16 60c46 16 92 24 138 24c99 0 169 -32 211 -96s54 -149 36 -255zM171 -133c5 -59 -91 -58 -87 0c-4 56 92 56 87 0zM232 -102c28 27 74 7 74 -31
c0 -39 -47 -61 -74 -32c-17 17 -17 47 0 63zM166 -205c27 29 74 7 74 -32c0 -24 -18 -43 -43 -43s-44 19 -44 43c0 13 4 23 13 32z" />
    <glyph glyph-name="uniFB89" unicode="&#x688;" horiz-adv-x="556" arabic-form="final" 
d="M313 583c0 -20 -3 -38 -9 -54h-249v36h50v168h35v-105c25 33 55 49 89 49c52 0 84 -38 84 -94zM227 642c-35 0 -68 -28 -87 -77h137c1 9 2 16 2 19c0 35 -21 58 -52 58zM445 63h111c13 0 20 -11 20 -32s-7 -31 -20 -31h-516v63h339v20c0 109 -68 208 -203 296l39 54
c86 -57 146 -114 180 -171c33 -57 50 -124 50 -199z" />
    <glyph glyph-name="uniFB8B" unicode="&#x698;" horiz-adv-x="341" arabic-form="final" 
d="M209 640c-27 -28 -75 -7 -75 31c0 24 19 44 44 44c24 0 43 -20 43 -44c0 -13 -4 -23 -12 -31zM139 536c-16 -17 -46 -17 -62 0c-17 16 -17 46 0 63c16 16 46 16 62 0c16 -17 16 -47 0 -63zM212 536c-17 16 -17 46 0 63c16 16 46 16 62 0c16 -17 16 -47 0 -63
c-16 -17 -46 -17 -62 0zM210 63h131c13 0 20 -11 20 -32s-7 -31 -20 -31h-138v2c-20 -101 -85 -159 -194 -174l-13 61c104 17 148 66 148 178v336h66v-322v-18z" />
    <glyph glyph-name="uniFB8D" unicode="&#x691;" horiz-adv-x="341" arabic-form="final" 
d="M298 579c0 -20 -3 -38 -9 -54h-249v36h50v168h35v-105c25 33 55 49 89 49c52 0 84 -38 84 -94zM212 638c-35 0 -68 -28 -87 -77h137c1 9 2 16 2 19c0 35 -21 58 -52 58zM210 63h131c13 0 20 -11 20 -32s-7 -31 -20 -31h-138v2c-20 -101 -85 -159 -194 -174l-13 61
c104 17 148 66 148 178v336h66v-322v-18z" />
    <glyph glyph-name="uniFB8F" unicode="&#x6a9;" horiz-adv-x="918" arabic-form="final" 
d="M785 63h133c13 0 20 -11 20 -32s-7 -31 -20 -31h-645c-144 0 -229 72 -229 188c0 47 11 99 32 157l61 -17c-17 -59 -26 -101 -26 -128c0 -91 57 -137 171 -137h439v41c0 75 -23 135 -68 180s-123 85 -234 119v65l283 273l43 -44l-259 -251c113 -37 191 -84 234 -140
c43 -57 65 -128 65 -213v-30z" />
    <glyph glyph-name="uniFB90" unicode="&#x6a9;" horiz-adv-x="468" arabic-form="initial" 
d="M364 697l-259 -251c113 -37 191 -84 234 -140c43 -57 65 -128 65 -213v-93h-404v63h340v41c0 75 -23 135 -68 180s-123 85 -234 119v65l283 273z" />
    <glyph glyph-name="uniFB91" unicode="&#x6a9;" horiz-adv-x="531" arabic-form="medial" 
d="M404 63h127c13 0 20 -11 20 -32s-7 -31 -20 -31h-531v63h340v41c0 75 -23 135 -68 180s-123 85 -234 119v65l283 273l43 -44l-259 -251c113 -37 191 -84 234 -140c43 -57 65 -128 65 -213v-30z" />
    <glyph glyph-name="uniFB93" unicode="&#x6af;" horiz-adv-x="918" arabic-form="final" 
d="M624 821l44 -44l-252 -242l-46 45zM785 63h133c13 0 20 -11 20 -32s-7 -31 -20 -31h-645c-144 0 -229 72 -229 188c0 47 11 99 32 157l61 -17c-17 -59 -26 -101 -26 -128c0 -91 57 -137 171 -137h439v41c0 75 -23 135 -68 180s-123 85 -234 119v65l283 273l43 -44
l-259 -251c113 -37 191 -84 234 -140c43 -57 65 -128 65 -213v-30z" />
    <glyph glyph-name="uniFB94" unicode="&#x6af;" horiz-adv-x="468" arabic-form="initial" 
d="M287 777l-252 -242l-46 45l254 241zM364 697l-259 -251c113 -37 191 -84 234 -140c43 -57 65 -128 65 -213v-93h-404v63h340v41c0 75 -23 135 -68 180s-123 85 -234 119v65l283 273z" />
    <glyph glyph-name="uniFB95" unicode="&#x6af;" horiz-adv-x="531" arabic-form="medial" 
d="M243 821l44 -44l-252 -242l-46 45zM404 63h127c13 0 20 -11 20 -32s-7 -31 -20 -31h-531v63h340v41c0 75 -23 135 -68 180s-123 85 -234 119v65l283 273l43 -44l-259 -251c113 -37 191 -84 234 -140c43 -57 65 -128 65 -213v-30z" />
    <glyph glyph-name="uniFB9F" unicode="&#x6ba;" horiz-adv-x="701" arabic-form="final" 
d="M573 63h128c13 0 20 -11 20 -32s-7 -31 -20 -31h-138c-28 -107 -122 -164 -257 -164c-168 0 -262 92 -262 228c0 53 14 112 41 177l59 -20c-22 -55 -33 -105 -33 -149c0 -115 73 -172 197 -172c133 0 199 64 199 193v237h66v-254v-13z" />
    <glyph glyph-name="uniFBA7" unicode="&#x6c1;" horiz-adv-x="576" arabic-form="final" 
d="M92 -9l-52 22c69 151 164 244 264 244c61 0 98 -27 142 -104c22 -38 41 -62 57 -73s40 -17 73 -17c13 0 20 -11 20 -33c0 -20 -7 -30 -20 -30c-46 0 -81 7 -105 22c-25 15 -49 44 -74 87c-37 65 -59 85 -98 85c-71 0 -148 -80 -207 -203z" />
    <glyph glyph-name="uniFBA8" unicode="&#x6c1;" horiz-adv-x="251" arabic-form="initial" 
d="M0 0v63c89 0 126 38 126 137v203h66v-213c0 -132 -64 -190 -192 -190zM144 -223l-52 -26c-21 30 -31 65 -31 106c0 33 8 66 24 99l47 -13c-10 -25 -15 -50 -15 -74c0 -29 9 -60 27 -92z" />
    <glyph glyph-name="uniFBA9" unicode="&#x6c1;" horiz-adv-x="387" arabic-form="medial" 
d="M374 63h13c13 0 20 -11 20 -32s-7 -31 -20 -31h-13c-81 0 -131 -54 -131 -159c0 -27 3 -54 8 -81c-62 4 -113 23 -153 58c-41 35 -61 84 -61 148c0 11 1 22 3 34h-40v63h113c-7 -31 -11 -59 -11 -86c0 -74 28 -123 85 -147c-1 5 -1 12 -1 21c0 135 77 212 188 212z" />
    <glyph glyph-name="uniFBAB" unicode="&#x6be;" horiz-adv-x="641" arabic-form="final" 
d="M517 63h124c13 0 20 -11 20 -32s-7 -31 -20 -31h-85c17 -31 26 -61 26 -91c0 -91 -69 -149 -180 -149c-121 0 -181 61 -181 184v56h-22c-61 0 -114 10 -159 29l20 59c41 -17 88 -25 139 -25h22v126c0 135 62 221 182 221c55 0 98 -18 128 -54c29 -36 44 -80 44 -133
c0 -66 -19 -119 -58 -160zM287 197v-134h86c83 0 136 65 136 154c0 76 -43 128 -112 128s-110 -51 -110 -148zM406 -176c73 0 109 30 109 91c0 29 -10 57 -30 85h-198v-51c0 -85 38 -125 119 -125z" />
    <glyph glyph-name="uniFBAC" unicode="&#x6be;" horiz-adv-x="621" arabic-form="initial" 
d="M75 368l11 58c152 -12 263 -38 350 -86c87 -49 131 -126 131 -230c0 -35 -4 -71 -13 -110h-178c-55 0 -103 7 -142 22c-38 -15 -86 -22 -143 -22h-91v63h91c24 0 46 2 66 5c-47 36 -70 85 -70 147c0 60 31 117 82 146c-39 4 -71 6 -94 7zM147 217c0 -61 29 -105 86 -134
c57 21 98 68 98 135c0 33 -9 60 -26 81s-39 31 -66 31s-49 -11 -66 -32c-17 -22 -26 -49 -26 -81zM362 63h139c3 19 5 37 5 54c0 92 -49 159 -146 200c20 -29 30 -62 30 -99c0 -64 -32 -120 -79 -152c18 -2 35 -3 51 -3z" />
    <glyph glyph-name="uniFBAD" unicode="&#x6be;" horiz-adv-x="506" arabic-form="medial" 
d="M382 63h124c13 0 20 -11 20 -32s-7 -31 -20 -31h-85c17 -31 26 -61 26 -91c0 -91 -69 -149 -180 -149c-121 0 -181 61 -181 184v56h-86v63h86v126c0 135 62 221 182 221c55 0 98 -18 128 -54c29 -36 44 -80 44 -133c0 -66 -19 -119 -58 -160zM152 197v-134h86
c83 0 136 65 136 154c0 76 -43 128 -112 128s-110 -51 -110 -148zM271 -176c73 0 109 30 109 91c0 29 -10 57 -30 85h-198v-51c0 -85 38 -125 119 -125z" />
    <glyph glyph-name="uniFBAF" unicode="&#x6d2;" horiz-adv-x="416" arabic-form="final" 
d="M346 -260c-215 0 -314 50 -314 166c0 100 79 157 216 157h168c13 0 20 -11 20 -32s-7 -31 -20 -31h-175c-97 0 -146 -31 -146 -92c0 -73 74 -104 267 -104c104 0 226 12 365 36l4 -63c-149 -25 -277 -37 -385 -37z" />
    <glyph glyph-name="uniFBB1" unicode="&#x6d3;" horiz-adv-x="416" arabic-form="final" 
d="M210 233h112v-43h-206v43h49c-13 23 -20 45 -20 68c0 57 42 93 103 93c19 0 40 -2 62 -7l-8 -42c-22 3 -37 5 -45 5c-37 0 -67 -18 -67 -57c0 -17 7 -37 20 -60zM727 -160l4 -63c-149 -25 -277 -37 -385 -37c-215 0 -314 50 -314 166c0 100 79 157 216 157h168
c13 0 20 -11 20 -32s-7 -31 -20 -31h-175c-97 0 -146 -31 -146 -92c0 -73 74 -104 267 -104c104 0 226 12 365 36z" />
    <glyph glyph-name="uniFBE8" unicode="&#x649;" horiz-adv-x="251" arabic-form="initial" 
d="M0 0v63c89 0 126 38 126 137v203h66v-213c0 -132 -64 -190 -192 -190z" />
    <glyph glyph-name="uniFBE9" unicode="&#x649;" horiz-adv-x="326" arabic-form="medial" 
d="M326 63c13 0 20 -11 20 -32s-7 -31 -20 -31c-79 0 -133 25 -160 74c-29 -49 -85 -74 -166 -74v63c89 0 126 38 126 137v203h66v-213v-5c0 -81 45 -122 134 -122z" />
    <glyph glyph-name="uniFBFD" unicode="&#x6cc;" horiz-adv-x="765" arabic-form="final" 
d="M654 63h111c13 0 20 -11 20 -32s-7 -31 -20 -31h-94c29 -20 43 -48 43 -83c0 -49 -31 -91 -93 -126c-63 -34 -145 -51 -247 -51c-223 0 -330 82 -330 229c0 38 8 81 23 129l61 -16c-11 -44 -17 -79 -17 -105c0 -117 79 -173 267 -173c165 0 269 49 269 116
c0 41 -41 78 -124 99l-117 29l16 56l135 -32c25 -6 58 -9 97 -9z" />
    <glyph glyph-name="uniFBFE" unicode="&#x6cc;" horiz-adv-x="280" arabic-form="initial" 
d="M5 0h-5v63h6c84 0 119 40 119 137v203h66v-213c0 -127 -62 -190 -186 -190zM80 -165c-16 -16 -46 -16 -62 0c-17 17 -17 47 0 63c16 17 46 17 62 0c16 -16 16 -46 0 -63zM215 -165c-16 -16 -46 -16 -62 0c-17 17 -17 47 0 63c16 17 46 17 62 0c16 -16 16 -46 0 -63z" />
    <glyph glyph-name="uniFBFF" unicode="&#x6cc;" horiz-adv-x="325" arabic-form="medial" 
d="M325 63c13 0 20 -11 20 -32s-7 -31 -20 -31c-79 0 -133 25 -160 74c-29 -49 -83 -74 -160 -74h-5v63h6c84 0 119 40 119 137v203h66v-213v-5c0 -81 45 -122 134 -122zM47 -102c16 17 46 17 62 0c16 -16 16 -46 0 -63c-16 -16 -46 -16 -62 0c-17 17 -17 47 0 63zM182 -102
c16 17 46 17 62 0c16 -16 16 -46 0 -63c-16 -16 -46 -16 -62 0c-17 17 -17 47 0 63z" />
    <glyph glyph-name="uniFDFA" unicode="&#xfdfa;" horiz-adv-x="1123" arabic-form="isolated" 
d="M258 679c-16 0 -24 9 -24 26c0 7 1 14 4 19l16 -3c-2 -5 -3 -8 -3 -11c0 -7 3 -11 9 -11c7 0 10 4 10 11v9l15 2c1 -6 1 -11 1 -16c3 -3 6 -4 9 -4c7 0 10 4 10 12c0 5 -1 10 -3 14l18 6c3 -10 5 -18 5 -24c0 -19 -9 -28 -26 -28c-6 0 -12 2 -18 7c-6 -6 -14 -9 -23 -9z
M108 467c-45 0 -74 24 -74 67c0 51 32 80 95 80h64v-85c0 -19 7 -25 32 -25s33 10 33 37v124h44v-127c0 -23 12 -34 35 -34c25 0 34 11 34 40v167h44v-177c0 -53 -23 -74 -78 -74c-26 0 -44 8 -54 23c-11 -15 -31 -23 -60 -23s-49 6 -60 19c-16 -8 -34 -12 -55 -12zM518 353
c-69 0 -104 24 -104 72c0 13 2 24 7 34l41 -8c-2 -6 -3 -12 -3 -18c0 -25 21 -37 62 -37c56 0 89 18 89 45c0 15 -12 21 -63 34l11 39c26 -7 50 -10 71 -10c25 0 35 10 35 41v166h44v-173c0 -23 12 -34 37 -34s36 10 36 35v57h44v-62c0 -17 7 -27 21 -29
c40 78 87 117 141 117c53 0 84 -35 84 -94c0 -21 -4 -44 -12 -68h-202c-25 0 -41 7 -50 22c-11 -15 -32 -22 -61 -22c-25 0 -42 8 -51 23c-11 -15 -29 -23 -54 -23c10 -7 15 -16 15 -29c0 -44 -54 -78 -138 -78zM464 711h45v-235h-45v235zM984 581c-33 0 -64 -26 -93 -77
l131 -1c3 11 5 21 5 29c0 31 -16 49 -43 49zM149 579h-26c-31 0 -47 -13 -47 -39c0 -23 14 -34 41 -34c11 0 21 3 32 8v65zM979 264c0 -14 5 -27 14 -39h77v-43h-259c-26 0 -44 7 -54 22c-11 -15 -31 -22 -60 -22h-158v-201c0 -23 12 -35 36 -35h17c21 0 31 11 31 33v55h44
v-60c0 -19 10 -28 29 -28c20 0 30 11 30 33v55h44v-60c0 -19 10 -28 29 -28s29 11 29 34v80h45v-95c0 -41 -23 -62 -68 -62c-21 0 -37 8 -49 23c-13 -15 -30 -23 -52 -23c-24 0 -41 8 -51 23c-14 -15 -34 -23 -59 -23h-19c-27 0 -45 8 -55 23c-11 -15 -32 -23 -61 -23h-186
c-15 -15 -37 -23 -66 -23h-38c-7 5 -13 13 -20 24l-19 -1c-18 -1 -27 -11 -27 -31v-62h-43v70c0 44 21 66 64 66h11c-1 4 -1 10 -1 17c0 48 33 83 84 83c48 0 77 -33 77 -82c0 -8 0 -14 -1 -18h164c27 0 36 11 36 40v196h-140c-27 0 -45 8 -54 23c-12 -15 -33 -23 -62 -23
h-9c-29 0 -49 6 -60 19c-17 -9 -36 -13 -55 -13c-45 0 -74 25 -74 68c0 51 34 80 95 80h64v-82c0 -21 8 -29 35 -29h2c27 0 38 12 38 41v70h44v-74c0 -25 13 -37 38 -37h138v78h45v-78h156c27 0 37 12 37 41v148h44v-155c0 -23 12 -34 36 -34h133c-8 15 -12 29 -12 44
c0 45 31 75 84 75c13 0 27 -2 44 -7l-8 -39c-12 3 -22 4 -30 4c-28 0 -44 -15 -44 -38zM156 236v64h-27c-31 0 -46 -13 -46 -38c0 -23 13 -34 40 -34c10 0 21 3 33 8zM281 132c0 -32 -45 -30 -45 0c0 29 45 29 45 0zM343 132c0 -13 -9 -24 -21 -24c-13 0 -23 11 -23 24
c0 12 10 23 23 23c12 0 21 -11 21 -23zM930 42c14 15 33 22 58 22s43 -7 55 -22s18 -35 18 -60v-58c0 -69 -41 -97 -133 -93l-2 41c61 -3 91 11 91 42c-9 -3 -20 -5 -35 -5c-45 0 -74 28 -74 76c0 23 7 42 22 57zM1021 -50v33c0 29 -11 43 -34 43s-38 -16 -38 -43
c-5 -38 44 -47 72 -33zM191 -82h15c32 0 48 19 48 46c0 25 -15 42 -39 42c-25 0 -40 -17 -40 -44c0 -16 5 -31 16 -44z" />
    <glyph glyph-name="uniFE82" unicode="&#x622;" horiz-adv-x="280" arabic-form="final" 
d="M173 818c-18 0 -44 4 -78 13s-56 13 -66 13c-16 0 -32 -6 -47 -18l-24 28c25 23 49 34 74 34c12 0 35 -4 68 -13s56 -14 69 -14c17 0 36 8 56 25l27 -25c-19 -29 -46 -43 -79 -43zM280 0c-139 0 -201 56 -201 171v585h66v-581c0 -75 45 -112 135 -112c13 0 20 -11 20 -32
s-7 -31 -20 -31z" />
    <glyph glyph-name="uniFE84" unicode="&#x623;" horiz-adv-x="280" arabic-form="final" 
d="M108 845h88v-35h-162v35h37c-10 16 -15 33 -15 51c0 45 35 75 84 75c13 0 28 -2 47 -6l-7 -34c-10 3 -21 5 -34 5c-48 0 -70 -40 -38 -91zM280 63c13 0 20 -11 20 -32s-7 -31 -20 -31c-139 0 -201 56 -201 171v585h66v-581c0 -75 45 -112 135 -112z" />
    <glyph glyph-name="uniFE86" unicode="&#x624;" horiz-adv-x="537" arabic-form="final" 
d="M237 584h112v-43h-206v43h49c-13 23 -20 45 -20 68c0 57 42 93 103 93c19 0 40 -2 62 -7l-8 -42c-21 3 -36 5 -45 5c-37 0 -67 -18 -67 -57c0 -17 7 -37 20 -60zM437 63h100c13 0 20 -11 20 -32s-7 -31 -20 -31h-102c-17 -116 -107 -174 -272 -174c-14 0 -29 1 -44 2
l-3 60c158 -9 242 29 253 112h-75c-161 0 -239 75 -239 199c0 60 18 111 55 153c37 41 84 62 143 62c112 0 184 -71 184 -191v-160zM123 207c0 -97 55 -144 179 -144h69v137c0 95 -44 150 -120 150c-73 0 -128 -58 -128 -143z" />
    <glyph glyph-name="uniFE88" unicode="&#x625;" horiz-adv-x="280" arabic-form="final" 
d="M280 63c13 0 20 -11 20 -32s-7 -31 -20 -31c-139 0 -201 56 -201 171v585h66v-581c0 -75 45 -112 135 -112zM133 -136c-20 -15 -20 -47 0 -79h88v-35h-162v35h38c-10 16 -15 33 -15 51c0 45 34 75 83 75c13 0 28 -2 47 -6l-6 -34c-11 3 -23 5 -35 5c-15 0 -28 -4 -38 -12
z" />
    <glyph glyph-name="uniFE8A" unicode="&#x626;" horiz-adv-x="765" arabic-form="final" 
d="M167 252h112v-43h-206v43h49c-13 23 -20 45 -20 68c0 57 42 93 103 93c19 0 40 -2 62 -7l-8 -42c-21 3 -36 5 -45 5c-37 0 -67 -18 -67 -57c0 -17 7 -37 20 -60zM654 63h111c13 0 20 -11 20 -32s-7 -31 -20 -31h-94c29 -20 43 -48 43 -83c0 -49 -31 -91 -93 -126
c-63 -34 -145 -51 -247 -51c-223 0 -330 82 -330 229c0 38 8 81 23 129l61 -16c-11 -44 -17 -79 -17 -105c0 -117 79 -173 267 -173c165 0 269 49 269 116c0 41 -41 78 -124 99l-117 29l16 56l135 -32c25 -6 58 -9 97 -9z" />
    <glyph glyph-name="uniFE8B" unicode="&#x626;" horiz-adv-x="280" arabic-form="initial" 
d="M142 573h112v-43h-206v43h49c-13 23 -20 45 -20 68c0 57 42 93 103 93c19 0 40 -2 62 -7l-8 -42c-21 3 -36 5 -45 5c-37 0 -67 -18 -67 -57c0 -17 7 -37 20 -60zM125 200v203h66v-213c0 -127 -62 -190 -186 -190h-5v63h6c84 0 119 40 119 137z" />
    <glyph glyph-name="uniFE8C" unicode="&#x626;" horiz-adv-x="325" arabic-form="medial" 
d="M142 573h112v-43h-206v43h49c-13 23 -20 45 -20 68c0 57 42 93 103 93c19 0 40 -2 62 -7l-8 -42c-21 3 -36 5 -45 5c-37 0 -67 -18 -67 -57c0 -17 7 -37 20 -60zM325 63c13 0 20 -11 20 -32s-7 -31 -20 -31c-79 0 -133 25 -160 74c-29 -49 -83 -74 -160 -74h-5v63h6
c84 0 119 40 119 137v203h66v-213v-5c0 -81 45 -122 134 -122z" />
    <glyph glyph-name="uniFE8E" unicode="&#x627;" horiz-adv-x="280" arabic-form="final" 
d="M280 0c-139 0 -201 56 -201 171v585h66v-581c0 -75 45 -112 135 -112c13 0 20 -11 20 -32s-7 -31 -20 -31z" />
    <glyph glyph-name="uniFE90" unicode="&#x628;" horiz-adv-x="1000" arabic-form="final" 
d="M1000 63c13 0 20 -11 20 -32s-7 -31 -20 -31c-80 0 -134 25 -161 76c-33 -51 -88 -76 -166 -76h-400c-144 0 -229 72 -229 188c0 47 11 99 32 157l61 -17c-17 -59 -26 -101 -26 -128c0 -91 57 -137 171 -137h384c92 0 134 41 134 137v203h66v-218c0 -81 45 -122 134 -122
zM440 -89c25 0 43 -17 43 -44c0 -25 -18 -44 -43 -44c-27 0 -45 19 -45 44c0 27 18 44 45 44z" />
    <glyph glyph-name="uniFE91" unicode="&#x628;" horiz-adv-x="251" arabic-form="initial" 
d="M0 0v63c89 0 126 38 126 137v203h66v-213c0 -132 -64 -190 -192 -190zM120 -177c-27 0 -45 19 -45 44c0 27 18 44 45 44c25 0 43 -17 43 -44c0 -25 -18 -44 -43 -44z" />
    <glyph glyph-name="uniFE92" unicode="&#x628;" horiz-adv-x="326" arabic-form="medial" 
d="M326 63c13 0 20 -11 20 -32s-7 -31 -20 -31c-79 0 -133 25 -160 74c-29 -49 -85 -74 -166 -74v63c89 0 126 38 126 137v203h66v-213v-5c0 -81 45 -122 134 -122zM148 -89c25 0 43 -17 43 -44c0 -25 -18 -44 -43 -44c-27 0 -45 19 -45 44c0 27 18 44 45 44z" />
    <glyph glyph-name="uniFE94" unicode="&#x629;" horiz-adv-x="551" arabic-form="final" 
d="M234 534c-16 -17 -46 -17 -62 0c-17 16 -17 46 0 63c16 16 46 16 62 0c16 -17 16 -47 0 -63zM369 534c-16 -17 -46 -17 -62 0c-17 16 -17 46 0 63c16 16 46 16 62 0c16 -17 16 -47 0 -63zM551 63c13 0 20 -11 20 -32s-7 -31 -20 -31c-93 0 -149 19 -168 56
c-45 -22 -92 -33 -139 -33c-125 0 -204 65 -204 176c0 124 88 204 232 204h163v-244c0 -75 28 -96 116 -96zM365 115v225h-105c-93 0 -152 -46 -152 -134c0 -77 50 -118 141 -118c45 0 83 9 116 27z" />
    <glyph glyph-name="uniFE96" unicode="&#x62a;" horiz-adv-x="1000" arabic-form="final" 
d="M412 444c-16 -17 -46 -17 -62 0c-17 16 -17 46 0 63c16 16 46 16 62 0c16 -17 16 -47 0 -63zM547 444c-16 -17 -46 -17 -62 0c-17 16 -17 46 0 63c16 16 46 16 62 0c16 -17 16 -47 0 -63zM1000 63c13 0 20 -11 20 -32s-7 -31 -20 -31c-80 0 -134 25 -161 76
c-33 -51 -88 -76 -166 -76h-400c-144 0 -229 72 -229 188c0 47 11 99 32 157l61 -17c-17 -59 -26 -101 -26 -128c0 -91 57 -137 171 -137h384c92 0 134 41 134 137v203h66v-218c0 -81 45 -122 134 -122z" />
    <glyph glyph-name="uniFE97" unicode="&#x62a;" horiz-adv-x="280" arabic-form="initial" 
d="M120 534c-16 -17 -46 -17 -62 0c-17 16 -17 46 0 63c16 16 46 16 62 0c16 -17 16 -47 0 -63zM255 534c-16 -17 -46 -17 -62 0c-17 16 -17 46 0 63c16 16 46 16 62 0c16 -17 16 -47 0 -63zM5 0h-5v63h6c84 0 119 40 119 137v203h66v-213c0 -127 -62 -190 -186 -190z" />
    <glyph glyph-name="uniFE98" unicode="&#x62a;" horiz-adv-x="325" arabic-form="medial" 
d="M120 534c-16 -17 -46 -17 -62 0c-17 16 -17 46 0 63c16 16 46 16 62 0c16 -17 16 -47 0 -63zM255 534c-16 -17 -46 -17 -62 0c-17 16 -17 46 0 63c16 16 46 16 62 0c16 -17 16 -47 0 -63zM325 63c13 0 20 -11 20 -32s-7 -31 -20 -31c-79 0 -133 25 -160 74
c-29 -49 -83 -74 -160 -74h-5v63h6c84 0 119 40 119 137v203h66v-213v-5c0 -81 45 -122 134 -122z" />
    <glyph glyph-name="uniFE9A" unicode="&#x62b;" horiz-adv-x="1000" arabic-form="final" 
d="M482 550c-27 -28 -75 -7 -75 31c0 24 19 44 44 44c24 0 43 -20 43 -44c0 -13 -4 -23 -12 -31zM412 446c-16 -17 -46 -17 -62 0c-17 16 -17 46 0 63c16 16 46 16 62 0c16 -17 16 -47 0 -63zM485 446c-17 16 -17 46 0 63c16 16 46 16 62 0c16 -17 16 -47 0 -63
c-16 -17 -46 -17 -62 0zM1000 63c13 0 20 -11 20 -32s-7 -31 -20 -31c-80 0 -134 25 -161 76c-33 -51 -88 -76 -166 -76h-400c-144 0 -229 72 -229 188c0 47 11 99 32 157l61 -17c-17 -59 -26 -101 -26 -128c0 -91 57 -137 171 -137h384c92 0 134 41 134 137v203h66v-218
c0 -81 45 -122 134 -122z" />
    <glyph glyph-name="uniFE9B" unicode="&#x62b;" horiz-adv-x="280" arabic-form="initial" 
d="M190 640c-27 -28 -75 -7 -75 31c0 24 19 44 44 44c24 0 43 -20 43 -44c0 -13 -4 -23 -12 -31zM120 536c-16 -17 -46 -17 -62 0c-17 16 -17 46 0 63c16 16 46 16 62 0c16 -17 16 -47 0 -63zM255 536c-16 -17 -46 -17 -62 0c-17 16 -17 46 0 63c16 16 46 16 62 0
c16 -17 16 -47 0 -63zM5 0h-5v63h6c84 0 119 40 119 137v203h66v-213c0 -127 -62 -190 -186 -190z" />
    <glyph glyph-name="uniFE9C" unicode="&#x62b;" horiz-adv-x="325" arabic-form="medial" 
d="M190 640c-27 -28 -75 -7 -75 31c0 24 19 44 44 44c24 0 43 -20 43 -44c0 -13 -4 -23 -12 -31zM120 536c-16 -17 -46 -17 -62 0c-17 16 -17 46 0 63c16 16 46 16 62 0c16 -17 16 -47 0 -63zM193 536c-17 16 -17 46 0 63c16 16 46 16 62 0c16 -17 16 -47 0 -63
c-16 -17 -46 -17 -62 0zM325 63c13 0 20 -11 20 -32s-7 -31 -20 -31c-79 0 -133 25 -160 74c-29 -49 -83 -74 -160 -74h-5v63h6c84 0 119 40 119 137v203h66v-213v-5c0 -81 45 -122 134 -122z" />
    <glyph glyph-name="uniFE9E" unicode="&#x62c;" horiz-adv-x="664" arabic-form="final" 
d="M543 63h121c13 0 20 -11 20 -32s-7 -31 -20 -31h-446c-71 0 -110 -35 -110 -96c0 -65 47 -100 131 -100c21 0 41 2 59 6l13 -61c-23 -6 -50 -9 -80 -9c-113 0 -191 61 -191 164c0 97 67 159 171 159h265c7 27 10 54 10 81c0 125 -69 205 -200 205c-35 0 -72 -6 -112 -19
l-15 60c46 16 92 24 137 24c167 0 254 -102 254 -265c0 -29 -2 -58 -7 -86zM291 -50c51 6 51 -85 0 -81c-53 -4 -55 87 0 81z" />
    <glyph glyph-name="uniFE9F" unicode="&#x62c;" horiz-adv-x="491" arabic-form="initial" 
d="M405 0h-405v63h351c29 111 5 286 -189 286c-35 0 -72 -6 -112 -19l-16 60c46 16 92 24 138 24c223 0 296 -174 233 -414zM198 -177c-27 0 -45 19 -45 44c0 27 18 44 45 44c25 0 43 -17 43 -44c0 -25 -18 -44 -43 -44z" />
    <glyph glyph-name="uniFEA0" unicode="&#x62c;" horiz-adv-x="540" arabic-form="medial" 
d="M419 63h121c13 0 20 -11 20 -32s-7 -31 -20 -31h-540v63h351c29 111 5 286 -189 286c-35 0 -72 -6 -112 -19l-16 60c46 16 92 24 138 24c99 0 169 -32 211 -96s54 -149 36 -255zM198 -89c25 0 43 -17 43 -44c0 -25 -18 -44 -43 -44c-27 0 -45 19 -45 44c0 27 18 44 45 44
z" />
    <glyph glyph-name="uniFEA2" unicode="&#x62d;" horiz-adv-x="664" arabic-form="final" 
d="M543 63h121c13 0 20 -11 20 -32s-7 -31 -20 -31h-446c-71 0 -110 -35 -110 -96c0 -65 47 -100 131 -100c22 0 52 5 91 14l12 -60c-38 -12 -75 -18 -111 -18c-113 0 -191 61 -191 164c0 97 67 159 171 159h265c7 27 10 54 10 81c0 125 -69 205 -200 205
c-35 0 -72 -6 -112 -19l-15 60c46 16 92 24 137 24c167 0 254 -102 254 -265c0 -29 -2 -58 -7 -86z" />
    <glyph glyph-name="uniFEA3" unicode="&#x62d;" horiz-adv-x="491" arabic-form="initial" 
d="M405 0h-405v63h351c29 111 5 286 -189 286c-35 0 -72 -6 -112 -19l-16 60c46 16 92 24 138 24c223 0 296 -174 233 -414z" />
    <glyph glyph-name="uniFEA4" unicode="&#x62d;" horiz-adv-x="540" arabic-form="medial" 
d="M419 63h121c13 0 20 -11 20 -32s-7 -31 -20 -31h-540v63h351c29 111 5 286 -189 286c-35 0 -72 -6 -112 -19l-16 60c46 16 92 24 138 24c99 0 169 -32 211 -96s54 -149 36 -255z" />
    <glyph glyph-name="uniFEA6" unicode="&#x62e;" horiz-adv-x="664" arabic-form="final" 
d="M296 532c-27 0 -45 17 -45 44c0 25 18 44 45 44c25 0 43 -19 43 -44c0 -27 -18 -44 -43 -44zM543 63h121c13 0 20 -11 20 -32s-7 -31 -20 -31h-446c-71 0 -110 -35 -110 -96c0 -65 47 -100 131 -100c22 0 52 5 91 14l12 -60c-38 -12 -75 -18 -111 -18
c-113 0 -191 61 -191 164c0 97 67 159 171 159h265c7 27 10 54 10 81c0 125 -69 205 -200 205c-35 0 -72 -6 -112 -19l-15 60c46 16 92 24 137 24c167 0 254 -102 254 -265c0 -29 -2 -58 -7 -86z" />
    <glyph glyph-name="uniFEA7" unicode="&#x62e;" horiz-adv-x="491" arabic-form="initial" 
d="M172 532c-27 0 -45 17 -45 44c0 25 18 44 45 44c25 0 43 -19 43 -44c0 -27 -18 -44 -43 -44zM405 0h-405v63h351c29 111 5 286 -189 286c-35 0 -72 -6 -112 -19l-16 60c46 16 92 24 138 24c223 0 296 -174 233 -414z" />
    <glyph glyph-name="uniFEA8" unicode="&#x62e;" horiz-adv-x="540" arabic-form="medial" 
d="M172 532c-27 0 -45 17 -45 44c0 25 18 44 45 44c25 0 43 -19 43 -44c0 -27 -18 -44 -43 -44zM419 63h121c13 0 20 -11 20 -32s-7 -31 -20 -31h-540v63h351c29 111 5 286 -189 286c-35 0 -72 -6 -112 -19l-16 60c46 16 92 24 138 24c99 0 169 -32 211 -96s54 -149 36 -255
z" />
    <glyph glyph-name="uniFEAA" unicode="&#x62f;" horiz-adv-x="556" arabic-form="final" 
d="M445 63h111c13 0 20 -11 20 -32s-7 -31 -20 -31h-516v63h339v20c0 109 -68 208 -203 296l39 54c86 -57 146 -114 180 -171c33 -57 50 -124 50 -199z" />
    <glyph glyph-name="uniFEAC" unicode="&#x630;" horiz-adv-x="556" arabic-form="final" 
d="M192 525c-27 0 -45 17 -45 44c0 25 18 44 45 44c25 0 43 -19 43 -44c0 -27 -18 -44 -43 -44zM445 63h111c13 0 20 -11 20 -32s-7 -31 -20 -31h-516v63h339v20c0 109 -68 208 -203 296l39 54c86 -57 146 -114 180 -171c33 -57 50 -124 50 -199z" />
    <glyph glyph-name="uniFEAE" unicode="&#x631;" horiz-adv-x="341" arabic-form="final" 
d="M210 63h131c13 0 20 -11 20 -32s-7 -31 -20 -31h-138v2c-20 -101 -85 -159 -194 -174l-13 61c104 17 148 66 148 178v336h66v-322v-18z" />
    <glyph glyph-name="uniFEB0" unicode="&#x632;" horiz-adv-x="341" arabic-form="final" 
d="M177 521c-27 0 -45 17 -45 44c0 25 18 44 45 44c25 0 43 -19 43 -44c0 -27 -18 -44 -43 -44zM210 63h131c13 0 20 -11 20 -32s-7 -31 -20 -31h-138v2c-20 -101 -85 -159 -194 -174l-13 61c104 17 148 66 148 178v336h66v-322v-18z" />
    <glyph glyph-name="uniFEB2" unicode="&#x633;" horiz-adv-x="1269" arabic-form="final" 
d="M1269 63c13 0 20 -11 20 -32s-7 -31 -20 -31c-78 0 -131 24 -159 72c-29 -48 -79 -72 -148 -72c-67 0 -114 23 -139 69c-27 -47 -76 -71 -146 -71c-49 0 -85 14 -106 41c-16 -132 -116 -203 -265 -203c-168 0 -262 92 -262 228c0 53 14 112 41 177l59 -20
c-22 -55 -33 -105 -33 -149c0 -115 73 -172 197 -172c133 0 199 64 199 193v237h66v-173c0 -63 35 -94 104 -94c72 0 109 35 109 131v136h66v-170c0 -65 36 -97 109 -97c76 0 108 40 108 137v203h66v-218c0 -81 45 -122 134 -122z" />
    <glyph glyph-name="uniFEB3" unicode="&#x633;" horiz-adv-x="818" arabic-form="initial" 
d="M693 200v203h66v-230c0 -109 -64 -173 -173 -173c-67 0 -113 23 -138 70c-27 -47 -75 -70 -146 -70c-69 0 -113 22 -134 65c-25 -39 -82 -65 -155 -65h-13v63h14c80 0 118 32 118 131v136h66v-171c0 -64 34 -96 103 -96c73 0 110 35 110 131v136h66v-170
c0 -65 36 -97 108 -97c77 0 108 40 108 137z" />
    <glyph glyph-name="uniFEB4" unicode="&#x633;" horiz-adv-x="893" arabic-form="medial" 
d="M893 63c13 0 20 -11 20 -32s-7 -31 -20 -31c-78 0 -131 24 -159 72c-29 -48 -79 -72 -148 -72c-67 0 -113 23 -138 70c-27 -47 -75 -70 -146 -70c-69 0 -113 22 -134 65c-25 -39 -82 -65 -155 -65h-13v63h14c80 0 118 32 118 131v136h66v-171c0 -64 34 -96 103 -96
c73 0 110 35 110 131v136h66v-170c0 -65 36 -97 108 -97c77 0 108 40 108 137v203h66v-218c0 -81 45 -122 134 -122z" />
    <glyph glyph-name="uniFEB6" unicode="&#x634;" horiz-adv-x="1269" arabic-form="final" 
d="M852 567c-27 -28 -75 -7 -75 31c0 24 19 44 44 44c24 0 43 -20 43 -44c0 -13 -4 -23 -12 -31zM782 463c-16 -17 -46 -17 -62 0c-17 16 -17 46 0 63c16 16 46 16 62 0c16 -17 16 -47 0 -63zM855 463c-17 16 -17 46 0 63c16 16 46 16 62 0c16 -17 16 -47 0 -63
c-16 -17 -46 -17 -62 0zM1269 63c13 0 20 -11 20 -32s-7 -31 -20 -31c-78 0 -131 24 -159 72c-29 -48 -79 -72 -148 -72c-67 0 -114 23 -139 69c-27 -47 -76 -71 -146 -71c-49 0 -85 14 -106 41c-16 -132 -116 -203 -265 -203c-168 0 -262 92 -262 228c0 53 14 112 41 177
l59 -20c-22 -55 -33 -105 -33 -149c0 -115 73 -172 197 -172c133 0 199 64 199 193v237h66v-173c0 -63 35 -94 104 -94c72 0 109 35 109 131v136h66v-170c0 -65 36 -97 109 -97c76 0 108 40 108 137v203h66v-218c0 -81 45 -122 134 -122z" />
    <glyph glyph-name="uniFEB7" unicode="&#x634;" horiz-adv-x="818" arabic-form="initial" 
d="M476 567c-27 -28 -75 -7 -75 31c0 24 19 44 44 44c24 0 43 -20 43 -44c0 -13 -4 -23 -12 -31zM406 463c-16 -17 -46 -17 -62 0c-17 16 -17 46 0 63c16 16 46 16 62 0c16 -17 16 -47 0 -63zM479 463c-17 16 -17 46 0 63c16 16 46 16 62 0c16 -17 16 -47 0 -63
c-16 -17 -46 -17 -62 0zM693 200v203h66v-230c0 -109 -64 -173 -173 -173c-67 0 -113 23 -138 70c-27 -47 -75 -70 -146 -70c-69 0 -113 22 -134 65c-25 -39 -82 -65 -155 -65h-13v63h14c80 0 118 32 118 131v136h66v-171c0 -64 34 -96 103 -96c73 0 110 35 110 131v136h66
v-170c0 -65 36 -97 108 -97c77 0 108 40 108 137z" />
    <glyph glyph-name="uniFEB8" unicode="&#x634;" horiz-adv-x="893" arabic-form="medial" 
d="M476 567c-27 -28 -75 -7 -75 31c0 24 19 44 44 44c24 0 43 -20 43 -44c0 -13 -4 -23 -12 -31zM406 463c-16 -17 -46 -17 -62 0c-17 16 -17 46 0 63c16 16 46 16 62 0c16 -17 16 -47 0 -63zM479 463c-17 16 -17 46 0 63c16 16 46 16 62 0c16 -17 16 -47 0 -63
c-16 -17 -46 -17 -62 0zM893 63c13 0 20 -11 20 -32s-7 -31 -20 -31c-78 0 -131 24 -159 72c-29 -48 -79 -72 -148 -72c-67 0 -113 23 -138 70c-27 -47 -75 -70 -146 -70c-69 0 -113 22 -134 65c-25 -39 -82 -65 -155 -65h-13v63h14c80 0 118 32 118 131v136h66v-171
c0 -64 34 -96 103 -96c73 0 110 35 110 131v136h66v-170c0 -65 36 -97 108 -97c77 0 108 40 108 137v203h66v-218c0 -81 45 -122 134 -122z" />
    <glyph glyph-name="uniFEBA" unicode="&#x635;" horiz-adv-x="1374" arabic-form="final" 
d="M1254 63h120c13 0 20 -11 20 -32s-7 -31 -20 -31h-694c-47 0 -84 11 -110 32c-17 -127 -117 -196 -264 -196c-168 0 -262 92 -262 228c0 53 14 112 41 177l59 -20c-22 -55 -33 -105 -33 -149c0 -115 73 -172 197 -172c133 0 199 64 199 193v237h66v-187
c0 -39 20 -64 61 -75c126 231 265 346 416 346c140 0 216 -97 216 -245c0 -34 -4 -69 -12 -106zM704 63h479c11 35 16 69 16 103c0 109 -56 183 -156 183c-118 0 -231 -95 -339 -286z" />
    <glyph glyph-name="uniFEBB" unicode="&#x635;" horiz-adv-x="929" arabic-form="initial" 
d="M649 414c140 0 216 -97 216 -245c0 -53 -10 -109 -30 -169h-556c-68 0 -113 21 -134 63c-22 -42 -70 -63 -145 -63v63c76 0 107 38 107 131v140h66v-175c0 -48 20 -78 61 -90c75 136 156 233 229 281c72 47 127 64 186 64zM303 63h479c11 35 16 69 16 103
c0 109 -56 183 -156 183c-118 0 -231 -95 -339 -286z" />
    <glyph glyph-name="uniFEBC" unicode="&#x635;" horiz-adv-x="973" arabic-form="medial" 
d="M853 63h120c13 0 20 -11 20 -32s-7 -31 -20 -31h-694c-68 0 -113 21 -134 63c-22 -42 -70 -63 -145 -63v63c76 0 107 38 107 131v140h66v-175c0 -48 20 -78 61 -90c75 136 156 233 229 281c72 47 127 64 186 64c140 0 216 -97 216 -245c0 -34 -4 -69 -12 -106zM303 63
h479c11 35 16 69 16 103c0 109 -56 183 -156 183c-118 0 -231 -95 -339 -286z" />
    <glyph glyph-name="uniFEBE" unicode="&#x636;" horiz-adv-x="1374" arabic-form="final" 
d="M962 532c-27 0 -45 17 -45 44c0 25 18 44 45 44c25 0 43 -19 43 -44c0 -27 -18 -44 -43 -44zM1254 63h120c13 0 20 -11 20 -32s-7 -31 -20 -31h-694c-47 0 -84 11 -110 32c-17 -127 -117 -196 -264 -196c-168 0 -262 92 -262 228c0 53 14 112 41 177l59 -20
c-22 -55 -33 -105 -33 -149c0 -115 73 -172 197 -172c133 0 199 64 199 193v237h66v-187c0 -39 20 -64 61 -75c126 231 265 346 416 346c140 0 216 -97 216 -245c0 -34 -4 -69 -12 -106zM704 63h479c11 35 16 69 16 103c0 109 -56 183 -156 183c-118 0 -231 -95 -339 -286z
" />
    <glyph glyph-name="uniFEBF" unicode="&#x636;" horiz-adv-x="929" arabic-form="initial" 
d="M561 532c-27 0 -45 17 -45 44c0 25 18 44 45 44c25 0 43 -19 43 -44c0 -27 -18 -44 -43 -44zM649 414c140 0 216 -97 216 -245c0 -53 -10 -109 -30 -169h-556c-68 0 -113 21 -134 63c-22 -42 -70 -63 -145 -63v63c76 0 107 38 107 131v140h66v-175c0 -48 20 -78 61 -90
c75 136 156 233 229 281c72 47 127 64 186 64zM303 63h479c11 35 16 69 16 103c0 109 -56 183 -156 183c-118 0 -231 -95 -339 -286z" />
    <glyph glyph-name="uniFEC0" unicode="&#x636;" horiz-adv-x="973" arabic-form="medial" 
d="M561 532c-27 0 -45 17 -45 44c0 25 18 44 45 44c25 0 43 -19 43 -44c0 -27 -18 -44 -43 -44zM853 63h120c13 0 20 -11 20 -32s-7 -31 -20 -31h-694c-68 0 -113 21 -134 63c-22 -42 -70 -63 -145 -63v63c76 0 107 38 107 131v140h66v-175c0 -48 20 -78 61 -90
c75 136 156 233 229 281c72 47 127 64 186 64c140 0 216 -97 216 -245c0 -34 -4 -69 -12 -106zM303 63h479c11 35 16 69 16 103c0 109 -56 183 -156 183c-118 0 -231 -95 -339 -286z" />
    <glyph glyph-name="uniFEC2" unicode="&#x637;" horiz-adv-x="895" arabic-form="final" 
d="M774 63h121c13 0 20 -11 20 -32s-7 -31 -20 -31h-851v63h110v693h66v-584c103 159 230 242 351 242c69 0 123 -23 160 -69s55 -105 55 -176c0 -33 -4 -68 -12 -106zM222 63h482c10 36 15 71 15 106c0 108 -54 180 -154 180c-57 0 -116 -25 -178 -74
c-63 -50 -118 -121 -165 -212z" />
    <glyph glyph-name="uniFEC3" unicode="&#x637;" horiz-adv-x="800" arabic-form="initial" 
d="M521 414c69 0 123 -23 160 -69s55 -105 55 -176c0 -54 -10 -110 -29 -169h-707v63h104v693h66v-584c103 159 230 242 351 242zM172 63h482c10 36 15 71 15 106c0 108 -54 180 -154 180c-57 0 -116 -25 -178 -74c-63 -50 -118 -121 -165 -212z" />
    <glyph glyph-name="uniFEC4" unicode="&#x637;" horiz-adv-x="840" arabic-form="medial" 
d="M724 63h116c13 0 20 -11 20 -32s-7 -31 -20 -31h-840v63h104v693h66v-584c103 159 230 242 351 242c69 0 123 -23 160 -69s55 -105 55 -176c0 -33 -4 -68 -12 -106zM172 63h482c10 36 15 71 15 106c0 108 -54 180 -154 180c-57 0 -116 -25 -178 -74
c-63 -50 -118 -121 -165 -212z" />
    <glyph glyph-name="uniFEC6" unicode="&#x638;" horiz-adv-x="895" arabic-form="final" 
d="M774 63h121c13 0 20 -11 20 -32s-7 -31 -20 -31h-851v63h110v693h66v-584c103 159 230 242 351 242c69 0 123 -23 160 -69s55 -105 55 -176c0 -33 -4 -68 -12 -106zM501 532c-27 0 -45 17 -45 44c0 25 18 44 45 44c25 0 43 -19 43 -44c0 -27 -18 -44 -43 -44zM222 63h482
c10 36 15 71 15 106c0 108 -54 180 -154 180c-57 0 -116 -25 -178 -74c-63 -50 -118 -121 -165 -212z" />
    <glyph glyph-name="uniFEC7" unicode="&#x638;" horiz-adv-x="800" arabic-form="initial" 
d="M521 414c69 0 123 -23 160 -69s55 -105 55 -176c0 -54 -10 -110 -29 -169h-707v63h104v693h66v-584c103 159 230 242 351 242zM451 532c-27 0 -45 17 -45 44c0 25 18 44 45 44c25 0 43 -19 43 -44c0 -27 -18 -44 -43 -44zM172 63h482c10 36 15 71 15 106
c0 108 -54 180 -154 180c-57 0 -116 -25 -178 -74c-63 -50 -118 -121 -165 -212z" />
    <glyph glyph-name="uniFEC8" unicode="&#x638;" horiz-adv-x="840" arabic-form="medial" 
d="M724 63h116c13 0 20 -11 20 -32s-7 -31 -20 -31h-840v63h104v693h66v-584c103 159 230 242 351 242c69 0 123 -23 160 -69s55 -105 55 -176c0 -33 -4 -68 -12 -106zM451 532c-27 0 -45 17 -45 44c0 25 18 44 45 44c25 0 43 -19 43 -44c0 -27 -18 -44 -43 -44zM172 63h482
c10 36 15 71 15 106c0 108 -54 180 -154 180c-57 0 -116 -25 -178 -74c-63 -50 -118 -121 -165 -212z" />
    <glyph glyph-name="uniFECA" unicode="&#x639;" horiz-adv-x="577" arabic-form="final" 
d="M486 63h91c13 0 20 -11 20 -32s-7 -31 -20 -31h-86c-90 0 -164 14 -221 43c-108 -36 -162 -84 -162 -144c0 -63 45 -95 134 -95c31 0 61 4 90 12l12 -60c-34 -11 -68 -16 -102 -16c-127 0 -202 54 -202 158c0 84 61 149 184 194c-27 39 -51 69 -103 127
c-26 29 -42 46 -48 53c3 28 7 52 14 71c70 47 142 71 215 71c112 0 188 -55 188 -144c0 -73 -46 -137 -137 -192c37 -10 82 -15 133 -15zM130 305l-1 -6c39 -33 93 -94 160 -183c81 37 133 92 133 144c0 51 -47 89 -128 89c-57 0 -111 -15 -164 -44z" />
    <glyph glyph-name="uniFECB" unicode="&#x639;" horiz-adv-x="480" arabic-form="initial" 
d="M216 63h230v-63h-446v63h138c-33 48 -50 99 -50 152c0 119 83 199 227 199c35 0 72 -5 109 -15l-13 -62c-32 8 -64 12 -95 12c-101 0 -161 -52 -161 -135c0 -49 20 -99 61 -151z" />
    <glyph glyph-name="uniFECC" unicode="&#x639;" horiz-adv-x="584" arabic-form="medial" 
d="M509 63h75c13 0 20 -11 20 -32s-7 -31 -20 -31h-70c-94 0 -172 13 -235 40c-65 -27 -146 -40 -245 -40h-34v63h40c75 0 138 8 188 25c-23 31 -54 68 -74 91c-10 11 -24 27 -42 47c-18 19 -31 34 -40 43c4 34 9 58 15 73c68 47 140 70 215 70c113 0 187 -55 187 -146
c0 -70 -44 -132 -133 -186c45 -11 96 -17 153 -17zM129 300l-1 -6c50 -42 105 -102 164 -179c86 43 129 90 129 142s-48 91 -132 91c-53 0 -107 -16 -160 -48z" />
    <glyph glyph-name="uniFECE" unicode="&#x63a;" horiz-adv-x="577" arabic-form="final" 
d="M300 532c-27 0 -45 17 -45 44c0 25 18 44 45 44c25 0 43 -19 43 -44c0 -27 -18 -44 -43 -44zM486 63h91c13 0 20 -11 20 -32s-7 -31 -20 -31h-86c-90 0 -164 14 -221 43c-108 -36 -162 -84 -162 -144c0 -63 45 -95 134 -95c31 0 61 4 90 12l12 -60
c-34 -11 -68 -16 -102 -16c-127 0 -202 54 -202 158c0 84 61 149 184 194c-27 39 -51 69 -103 127c-26 29 -42 46 -48 53c3 28 7 52 14 71c70 47 142 71 215 71c112 0 188 -55 188 -144c0 -73 -46 -137 -137 -192c37 -10 82 -15 133 -15zM130 305l-1 -6
c39 -33 93 -94 160 -183c81 37 133 92 133 144c0 51 -47 89 -128 89c-57 0 -111 -15 -164 -44z" />
    <glyph glyph-name="uniFECF" unicode="&#x63a;" horiz-adv-x="480" arabic-form="initial" 
d="M315 532c-27 0 -45 17 -45 44c0 25 18 44 45 44c25 0 43 -19 43 -44c0 -27 -18 -44 -43 -44zM216 63h230v-63h-446v63h138c-33 48 -50 99 -50 152c0 119 83 199 227 199c35 0 72 -5 109 -15l-13 -62c-32 8 -64 12 -95 12c-101 0 -161 -52 -161 -135c0 -49 20 -99 61 -151
z" />
    <glyph glyph-name="uniFED0" unicode="&#x63a;" horiz-adv-x="584" arabic-form="medial" 
d="M296 530c-27 0 -45 17 -45 44c0 25 18 44 45 44c25 0 43 -19 43 -44c0 -27 -18 -44 -43 -44zM509 63h75c13 0 20 -11 20 -32s-7 -31 -20 -31h-70c-94 0 -172 13 -235 40c-65 -27 -146 -40 -245 -40h-34v63h40c75 0 138 8 188 25c-23 31 -54 68 -74 91
c-10 11 -24 27 -42 47c-18 19 -31 34 -40 43c4 34 9 58 15 73c68 47 140 70 215 70c113 0 187 -55 187 -146c0 -70 -44 -132 -133 -186c45 -11 96 -17 153 -17zM129 300l-1 -6c50 -42 105 -102 164 -179c86 43 129 90 129 142s-48 91 -132 91c-53 0 -107 -16 -160 -48z" />
    <glyph glyph-name="uniFED2" unicode="&#x641;" horiz-adv-x="1075" arabic-form="final" 
d="M787 532c-27 0 -45 17 -45 44c0 25 18 44 45 44c25 0 43 -19 43 -44c0 -27 -18 -44 -43 -44zM958 63h117c13 0 20 -11 20 -32s-7 -31 -20 -31h-112c-64 0 -123 7 -178 20c-51 -13 -112 -20 -182 -20h-330c-144 0 -229 72 -229 188c0 47 11 99 32 157l61 -17
c-17 -59 -26 -101 -26 -128c0 -91 57 -137 171 -137h325c33 0 59 2 78 5c-66 43 -99 98 -99 167c0 52 19 95 56 129c37 33 86 50 145 50c119 0 196 -74 196 -179c0 -71 -33 -127 -98 -168c29 -3 54 -4 73 -4zM654 235c0 -71 58 -129 131 -150c34 9 64 28 91 56
c26 27 39 59 39 95c0 68 -53 113 -129 113c-79 0 -132 -46 -132 -114z" />
    <glyph glyph-name="uniFED3" unicode="&#x641;" horiz-adv-x="553" arabic-form="initial" 
d="M299 532c-27 0 -45 17 -45 44c0 25 18 44 45 44c25 0 43 -19 43 -44c0 -27 -18 -44 -43 -44zM299 414c127 0 190 -89 190 -216c0 -61 -15 -127 -44 -198h-445v63h139c-35 38 -52 85 -52 141c0 61 20 112 59 151s90 59 153 59zM214 63h185c15 47 22 91 22 131
c0 96 -43 155 -127 155c-85 0 -139 -59 -139 -147c0 -50 20 -96 59 -139z" />
    <glyph glyph-name="uniFED4" unicode="&#x641;" horiz-adv-x="576" arabic-form="medial" 
d="M288 532c-27 0 -45 17 -45 44c0 25 18 44 45 44c25 0 43 -19 43 -44c0 -27 -18 -44 -43 -44zM459 63h117c13 0 20 -11 20 -32s-7 -31 -20 -31h-112c-64 0 -123 7 -178 20c-51 -13 -112 -20 -182 -20h-104v63h108c33 0 59 2 78 5c-66 43 -99 98 -99 167c0 52 19 95 56 129
c37 33 86 50 145 50c119 0 196 -74 196 -179c0 -71 -33 -127 -98 -168c29 -3 54 -4 73 -4zM155 235c0 -71 58 -129 131 -150c34 9 64 28 91 56c26 27 39 59 39 95c0 68 -53 113 -129 113c-79 0 -132 -46 -132 -114z" />
    <glyph glyph-name="uniFED6" unicode="&#x642;" horiz-adv-x="827" arabic-form="final" 
d="M492 545c-16 -17 -46 -17 -62 0c-17 16 -17 46 0 63c16 16 46 16 62 0c16 -17 16 -47 0 -63zM627 545c-16 -17 -46 -17 -62 0c-17 16 -17 46 0 63c16 16 46 16 62 0c16 -17 16 -47 0 -63zM712 63h115c13 0 20 -11 20 -32s-7 -31 -20 -31h-119
c-20 -120 -118 -164 -321 -164c-229 0 -343 77 -343 232c0 41 8 84 23 130l61 -16c-11 -37 -17 -72 -17 -105c0 -120 84 -177 276 -177c164 0 243 31 256 100h-79c-156 0 -234 67 -234 202c0 57 18 107 54 149c35 42 84 63 146 63c111 0 182 -72 182 -199v-152zM572 63h74
v137c0 96 -41 149 -121 149c-76 0 -127 -55 -127 -146c0 -99 58 -140 174 -140z" />
    <glyph glyph-name="uniFED7" unicode="&#x642;" horiz-adv-x="553" arabic-form="initial" 
d="M261 545c-16 -17 -46 -17 -62 0c-17 16 -17 46 0 63c16 16 46 16 62 0c16 -17 16 -47 0 -63zM396 545c-16 -17 -46 -17 -62 0c-17 16 -17 46 0 63c16 16 46 16 62 0c16 -17 16 -47 0 -63zM299 414c127 0 190 -89 190 -216c0 -61 -15 -127 -44 -198h-445v63h139
c-35 38 -52 85 -52 141c0 61 20 112 59 151s90 59 153 59zM214 63h185c15 47 22 91 22 131c0 96 -43 155 -127 155c-85 0 -139 -59 -139 -147c0 -50 20 -96 59 -139z" />
    <glyph glyph-name="uniFED8" unicode="&#x642;" horiz-adv-x="576" arabic-form="medial" 
d="M250 545c-16 -17 -46 -17 -62 0c-17 16 -17 46 0 63c16 16 46 16 62 0c16 -17 16 -47 0 -63zM385 545c-16 -17 -46 -17 -62 0c-17 16 -17 46 0 63c16 16 46 16 62 0c16 -17 16 -47 0 -63zM459 63h117c13 0 20 -11 20 -32s-7 -31 -20 -31h-112c-64 0 -123 7 -178 20
c-51 -13 -112 -20 -182 -20h-104v63h108c33 0 59 2 78 5c-66 43 -99 98 -99 167c0 52 19 95 56 129c37 33 86 50 145 50c119 0 196 -74 196 -179c0 -71 -33 -127 -98 -168c29 -3 54 -4 73 -4zM155 235c0 -71 58 -129 131 -150c34 9 64 28 91 56c26 27 39 59 39 95
c0 68 -53 113 -129 113c-79 0 -132 -46 -132 -114z" />
    <glyph glyph-name="uniFEDA" unicode="&#x643;" horiz-adv-x="882" arabic-form="final" 
d="M882 63c13 0 20 -11 20 -32s-7 -31 -20 -31c-77 0 -129 24 -158 71c-28 -47 -82 -71 -163 -71h-288c-144 0 -229 72 -229 188c0 47 11 99 32 157l61 -17c-17 -59 -26 -101 -26 -128c0 -91 57 -137 171 -137h279c92 0 121 36 121 137v556h66v-571c0 -81 45 -122 134 -122z
M412 360h95v-42h-197v42h54c-12 18 -18 38 -18 59c0 52 41 93 101 93c13 0 29 -3 49 -8l-8 -41c-16 4 -29 6 -40 6c-35 0 -59 -18 -59 -53c0 -20 8 -39 23 -56z" />
    <glyph glyph-name="uniFEDB" unicode="&#x643;" horiz-adv-x="468" arabic-form="initial" 
d="M364 697l-259 -251c113 -37 191 -84 234 -140c43 -57 65 -128 65 -213v-93h-404v63h340v41c0 75 -23 135 -68 180s-123 85 -234 119v65l283 273z" />
    <glyph glyph-name="uniFEDC" unicode="&#x643;" horiz-adv-x="531" arabic-form="medial" 
d="M404 63h127c13 0 20 -11 20 -32s-7 -31 -20 -31h-531v63h340v41c0 75 -23 135 -68 180s-123 85 -234 119v65l283 273l43 -44l-259 -251c113 -37 191 -84 234 -140c43 -57 65 -128 65 -213v-30z" />
    <glyph glyph-name="uniFEDE" unicode="&#x644;" horiz-adv-x="685" arabic-form="final" 
d="M573 63h112c13 0 20 -11 20 -32s-7 -31 -20 -31h-122c-31 -104 -125 -164 -260 -164c-79 0 -142 21 -189 62s-70 97 -70 166c0 53 14 112 41 177l58 -20c-21 -64 -32 -114 -32 -150c0 -113 69 -171 196 -171c133 0 200 65 200 194v662h66v-678v-15z" />
    <glyph glyph-name="uniFEDF" unicode="&#x644;" horiz-adv-x="266" arabic-form="initial" 
d="M0 0v63c92 0 121 36 121 137v556h66v-583c0 -115 -62 -173 -187 -173z" />
    <glyph glyph-name="uniFEE0" unicode="&#x644;" horiz-adv-x="321" arabic-form="medial" 
d="M321 63c13 0 20 -11 20 -32s-7 -31 -20 -31c-77 0 -129 24 -158 71c-28 -47 -82 -71 -163 -71v63c92 0 121 36 121 137v556h66v-571c0 -81 45 -122 134 -122z" />
    <glyph glyph-name="uniFEE2" unicode="&#x645;" horiz-adv-x="698" arabic-form="final" 
d="M598 63h100c13 0 20 -11 20 -32s-7 -31 -20 -31h-147c-41 -33 -98 -50 -171 -50h-55c-20 15 -37 32 -51 50h-77c-59 0 -93 -33 -93 -96v-164h-64v164c0 100 56 159 156 159h41c-15 33 -22 67 -22 102c0 60 20 109 61 148c40 39 90 58 149 58c64 0 112 -20 144 -59
c32 -40 48 -89 48 -146c0 -41 -6 -75 -19 -103zM343 13h52c105 0 156 65 156 158c0 84 -48 137 -131 137s-139 -56 -139 -145c0 -59 21 -109 62 -150z" />
    <glyph glyph-name="uniFEE3" unicode="&#x645;" horiz-adv-x="548" arabic-form="initial" 
d="M297 414c60 0 107 -20 142 -59c34 -39 51 -90 51 -151c0 -120 -72 -204 -225 -204h-265v63h136c-32 43 -48 90 -48 141c0 62 20 113 59 152s89 58 150 58zM213 63h59c101 0 150 58 150 142c0 88 -51 144 -132 144c-80 0 -134 -53 -134 -144c0 -49 19 -97 57 -142z" />
    <glyph glyph-name="uniFEE4" unicode="&#x645;" horiz-adv-x="571" arabic-form="medial" 
d="M469 63h102c13 0 20 -11 20 -32s-7 -31 -20 -31h-151c-41 -33 -96 -50 -166 -50h-55c-17 13 -35 29 -52 50h-147v63h110c-15 33 -22 67 -22 102c0 60 20 109 61 148c40 39 90 58 149 58c64 0 112 -20 144 -59c32 -40 48 -89 48 -146c0 -37 -7 -72 -21 -103zM217 13h51
c105 0 156 65 156 158c0 84 -49 137 -130 137c-84 0 -140 -56 -140 -145c0 -59 21 -109 63 -150z" />
    <glyph glyph-name="uniFEE6" unicode="&#x646;" horiz-adv-x="701" arabic-form="final" 
d="M318 411c-27 0 -45 17 -45 44c0 25 18 44 45 44c25 0 43 -19 43 -44c0 -27 -18 -44 -43 -44zM573 63h128c13 0 20 -11 20 -32s-7 -31 -20 -31h-138c-28 -107 -122 -164 -257 -164c-168 0 -262 92 -262 228c0 53 14 112 41 177l59 -20c-22 -55 -33 -105 -33 -149
c0 -115 73 -172 197 -172c133 0 199 64 199 193v237h66v-254v-13z" />
    <glyph glyph-name="uniFEE7" unicode="&#x646;" horiz-adv-x="251" arabic-form="initial" 
d="M159 521c-27 0 -45 17 -45 44c0 25 18 44 45 44c25 0 43 -19 43 -44c0 -27 -18 -44 -43 -44zM0 0v63c89 0 126 38 126 137v203h66v-213c0 -132 -64 -190 -192 -190z" />
    <glyph glyph-name="uniFEE8" unicode="&#x646;" horiz-adv-x="326" arabic-form="medial" 
d="M159 521c-27 0 -45 17 -45 44c0 25 18 44 45 44c25 0 43 -19 43 -44c0 -27 -18 -44 -43 -44zM326 63c13 0 20 -11 20 -32s-7 -31 -20 -31c-79 0 -133 25 -160 74c-29 -49 -85 -74 -166 -74v63c89 0 126 38 126 137v203h66v-213v-5c0 -81 45 -122 134 -122z" />
    <glyph glyph-name="uniFEE9" unicode="&#x647;" horiz-adv-x="509" arabic-form="isolated" 
d="M245 -5c-132 0 -205 83 -205 199c0 61 18 113 55 156c36 43 86 64 150 64s114 -21 151 -64s55 -95 55 -156c0 -120 -79 -199 -206 -199zM247 59c85 0 136 45 136 137c0 46 -12 83 -35 111c-24 28 -58 42 -103 42s-79 -14 -102 -42c-23 -29 -35 -65 -35 -110
c0 -93 52 -138 139 -138z" />
    <glyph glyph-name="uniFEEA" unicode="&#x647;" horiz-adv-x="551" arabic-form="final" 
d="M551 63c13 0 20 -11 20 -32s-7 -31 -20 -31c-93 0 -149 19 -168 56c-45 -22 -92 -33 -139 -33c-125 0 -204 65 -204 176c0 124 88 204 232 204h163v-244c0 -75 28 -96 116 -96zM365 115v225h-105c-93 0 -152 -46 -152 -134c0 -77 50 -118 141 -118c45 0 83 9 116 27z" />
    <glyph glyph-name="uniFEEB" unicode="&#x647;" horiz-adv-x="621" arabic-form="initial" 
d="M75 368l11 58c152 -12 263 -38 350 -86c87 -49 131 -126 131 -230c0 -35 -4 -71 -13 -110h-178c-55 0 -103 7 -142 22c-38 -15 -86 -22 -143 -22h-91v63h91c24 0 46 2 66 5c-47 36 -70 85 -70 147c0 60 31 117 82 146c-39 4 -71 6 -94 7zM147 217c0 -61 29 -105 86 -134
c57 21 98 68 98 135c0 33 -9 60 -26 81s-39 31 -66 31s-49 -11 -66 -32c-17 -22 -26 -49 -26 -81zM362 63h139c3 19 5 37 5 54c0 92 -49 159 -146 200c20 -29 30 -62 30 -99c0 -64 -32 -120 -79 -152c18 -2 35 -3 51 -3z" />
    <glyph glyph-name="uniFEEC" unicode="&#x647;" horiz-adv-x="506" arabic-form="medial" 
d="M382 63h124c13 0 20 -11 20 -32s-7 -31 -20 -31h-85c17 -31 26 -61 26 -91c0 -91 -69 -149 -180 -149c-121 0 -181 61 -181 184v56h-86v63h86v126c0 135 62 221 182 221c55 0 98 -18 128 -54c29 -36 44 -80 44 -133c0 -66 -19 -119 -58 -160zM152 197v-134h86
c83 0 136 65 136 154c0 76 -43 128 -112 128s-110 -51 -110 -148zM271 -176c73 0 109 30 109 91c0 29 -10 57 -30 85h-198v-51c0 -85 38 -125 119 -125z" />
    <glyph glyph-name="uniFEEE" unicode="&#x648;" horiz-adv-x="537" arabic-form="final" 
d="M437 63h100c13 0 20 -11 20 -32s-7 -31 -20 -31h-102c-17 -116 -107 -174 -272 -174c-14 0 -29 1 -44 2l-3 60c158 -9 242 29 253 112h-75c-161 0 -239 75 -239 199c0 60 18 111 55 153c37 41 84 62 143 62c112 0 184 -71 184 -191v-160zM123 207c0 -97 55 -144 179 -144
h69v137c0 95 -44 150 -120 150c-73 0 -128 -58 -128 -143z" />
    <glyph glyph-name="uniFEF0" unicode="&#x649;" horiz-adv-x="765" arabic-form="final" 
d="M654 63h111c13 0 20 -11 20 -32s-7 -31 -20 -31h-94c29 -20 43 -48 43 -83c0 -49 -31 -91 -93 -126c-63 -34 -145 -51 -247 -51c-223 0 -330 82 -330 229c0 38 8 81 23 129l61 -16c-11 -44 -17 -79 -17 -105c0 -117 79 -173 267 -173c165 0 269 49 269 116
c0 41 -41 78 -124 99l-117 29l16 56l135 -32c25 -6 58 -9 97 -9z" />
    <glyph glyph-name="uniFEF2" unicode="&#x64a;" horiz-adv-x="765" arabic-form="final" 
d="M654 63h111c13 0 20 -11 20 -32s-7 -31 -20 -31h-94c29 -20 43 -48 43 -83c0 -49 -31 -91 -93 -126c-63 -34 -145 -51 -247 -51c-223 0 -330 82 -330 229c0 38 8 81 23 129l61 -16c-11 -44 -17 -79 -17 -105c0 -117 79 -173 267 -173c165 0 269 49 269 116
c0 41 -41 78 -124 99l-117 29l16 56l135 -32c25 -6 58 -9 97 -9zM272 -362c16 17 46 17 62 0c16 -16 16 -46 0 -63c-16 -16 -46 -16 -62 0c-17 17 -17 47 0 63zM407 -362c16 17 46 17 62 0c16 -16 16 -46 0 -63c-16 -16 -46 -16 -62 0c-17 17 -17 47 0 63z" />
    <glyph glyph-name="uniFEF3" unicode="&#x64a;" horiz-adv-x="280" arabic-form="initial" 
d="M5 0h-5v63h6c84 0 119 40 119 137v203h66v-213c0 -127 -62 -190 -186 -190zM80 -165c-16 -16 -46 -16 -62 0c-17 17 -17 47 0 63c16 17 46 17 62 0c16 -16 16 -46 0 -63zM215 -165c-16 -16 -46 -16 -62 0c-17 17 -17 47 0 63c16 17 46 17 62 0c16 -16 16 -46 0 -63z" />
    <glyph glyph-name="uniFEF4" unicode="&#x64a;" horiz-adv-x="325" arabic-form="medial" 
d="M325 63c13 0 20 -11 20 -32s-7 -31 -20 -31c-79 0 -133 25 -160 74c-29 -49 -83 -74 -160 -74h-5v63h6c84 0 119 40 119 137v203h66v-213v-5c0 -81 45 -122 134 -122zM47 -102c16 17 46 17 62 0c16 -16 16 -46 0 -63c-16 -16 -46 -16 -62 0c-17 17 -17 47 0 63zM182 -102
c16 17 46 17 62 0c16 -16 16 -46 0 -63c-16 -16 -46 -16 -62 0c-17 17 -17 47 0 63z" />
    <glyph glyph-name=".notdef" horiz-adv-x="512" 
d="M0 718h512v-718h-512v718zM50 50h412v617h-412v-617zM259 609c72 0 124 -52 124 -131c0 -48 -16 -77 -64 -121c-36 -35 -45 -44 -46 -73c-1 -16 -2 -33 -2 -50h-46c-1 11 -2 20 -2 29c0 24 5 42 9 58c2 8 12 23 14 28c2 4 17 21 18 23s22 23 23 24c14 14 26 28 35 40
c7 10 10 23 10 38c0 47 -35 85 -76 85c-47 0 -74 -32 -82 -95l-50 8c8 89 56 137 135 137zM222 117v67h56v-67h-56z" />
    <glyph glyph-name="null" 
 />
    <glyph glyph-name="nonmarkingreturn" horiz-adv-x="333" 
 />
    <glyph glyph-name="NULL" 
 />
    <glyph glyph-name="NULL" 
 />
    <glyph glyph-name="CR" unicode="&#xd;" horiz-adv-x="278" 
 />
    <glyph glyph-name="space" unicode=" " horiz-adv-x="278" 
 />
    <glyph glyph-name="exclam" unicode="!" horiz-adv-x="278" 
d="M103 708h72v-516h-72v516zM101 86c20 21 56 21 77 0c20 -21 20 -55 0 -76c-21 -21 -57 -21 -77 0c-21 21 -21 55 0 76z" />
    <glyph glyph-name="quotedbl" unicode="&#x22;" horiz-adv-x="519" 
d="M157 473v235h60v-235h-60zM302 473v235h60v-235h-60z" />
    <glyph glyph-name="numbersign" unicode="#" horiz-adv-x="556" 
d="M176 496l29 212h61l-29 -212h133l29 212h61l-29 -212h90v-60h-99l-22 -162h95v-60h-103l-30 -214h-61l30 214h-133l-30 -214h-61l30 214h-102v60h110l22 162h-108v60h117zM361 436h-133l-22 -162h133z" />
    <glyph glyph-name="dollar" unicode="$" horiz-adv-x="556" 
d="M254 722v70h48v-68c75 0 137 -28 185 -85l-56 -48c-28 45 -71 67 -129 67v-267c77 -27 130 -57 159 -90s44 -74 44 -123c0 -51 -18 -95 -55 -132s-87 -57 -148 -62v-68h-48v66c-87 5 -166 46 -211 110l60 43c41 -51 103 -86 151 -86v279c-136 43 -193 104 -193 199
c0 51 18 95 54 132c36 36 82 57 139 63zM133 529c0 -56 34 -92 121 -125v253c-72 -7 -121 -60 -121 -128zM302 314v-264c80 1 132 51 132 130c0 61 -44 105 -132 134z" />
    <glyph glyph-name="percent" unicode="%" horiz-adv-x="833" 
d="M165 -4l451 743l51 -28l-450 -742zM214 720c49 0 90 -17 125 -51c34 -34 51 -75 51 -124c0 -47 -17 -88 -50 -123c-34 -35 -76 -52 -126 -52c-49 0 -91 17 -125 52c-34 34 -51 75 -51 123c0 49 17 90 52 124s76 51 124 51zM98 545c-6 -99 132 -155 198 -81
c23 22 34 49 34 81s-11 59 -34 82c-23 22 -51 33 -83 33c-31 0 -57 -11 -80 -34s-35 -50 -35 -81zM619 338c48 0 89 -17 124 -51c35 -35 52 -76 52 -124s-17 -89 -51 -123c-35 -35 -76 -52 -125 -52s-90 17 -124 51c-35 34 -52 75 -52 124s17 90 52 124c34 34 75 51 124 51z
M503 163c0 -33 12 -60 35 -82s50 -33 81 -33c64 0 116 51 116 115s-51 115 -116 115c-64 0 -116 -51 -116 -115z" />
    <glyph glyph-name="ampersand" unicode="&#x26;" horiz-adv-x="704" 
d="M303 726c100 0 171 -63 171 -159c0 -72 -48 -128 -156 -184l163 -168l97 168h81l-130 -219l159 -164h-102l-100 104c-64 -84 -129 -122 -216 -122c-63 0 -116 19 -158 57c-43 37 -64 86 -64 145c0 89 54 159 161 209c-55 59 -83 115 -83 167c0 100 73 166 177 166z
M198 557c0 -39 34 -92 74 -128c53 27 88 52 105 73s25 43 25 65c0 53 -40 93 -99 93c-60 0 -105 -43 -105 -103zM126 184c0 -39 14 -71 43 -97c28 -26 62 -39 102 -39c63 0 111 28 170 104l-187 196c-44 -25 -61 -36 -89 -63s-39 -58 -39 -101z" />
    <glyph glyph-name="quotesingle" unicode="'" horiz-adv-x="260" 
d="M100 473v235h60v-235h-60z" />
    <glyph glyph-name="parenleft" unicode="(" horiz-adv-x="260" 
d="M199 736l53 -34c-49 -80 -83 -149 -102 -207c-20 -59 -30 -128 -30 -207s10 -146 29 -203s52 -125 99 -205l-53 -40c-89 125 -141 288 -141 448c0 157 52 320 145 448z" />
    <glyph glyph-name="parenright" unicode=")" horiz-adv-x="260" 
d="M12 696l53 40c91 -128 141 -289 141 -448c0 -165 -48 -315 -145 -448l-53 34c48 79 82 149 102 208s30 128 30 206s-9 145 -28 202c-19 56 -53 125 -100 206z" />
    <glyph glyph-name="asterisk" unicode="*" horiz-adv-x="444" 
d="M192 565v143h60v-143l140 45l21 -56l-141 -45l90 -121l-48 -36l-92 124l-92 -124l-48 36l90 121l-141 45l21 56z" />
    <glyph glyph-name="plus" unicode="+" horiz-adv-x="666" 
d="M303 333v225h60v-225h225v-60h-225v-225h-60v225h-225v60h225z" />
    <glyph glyph-name="comma" unicode="," horiz-adv-x="278" 
d="M132 95h81l-81 -235h-67z" />
    <glyph glyph-name="hyphen" unicode="-" horiz-adv-x="333" 
d="M38 273h257v-66h-257v66z" />
    <glyph glyph-name="period" unicode="." horiz-adv-x="278" 
d="M101 86c20 21 56 21 77 0c20 -21 20 -55 0 -76c-21 -21 -57 -21 -77 0c-21 21 -21 55 0 76z" />
    <glyph glyph-name="slash" unicode="/" horiz-adv-x="370" 
d="M5 1l303 725l57 -20l-302 -724z" />
    <glyph glyph-name="zero" unicode="0" horiz-adv-x="556" 
d="M100 626c41 63 100 94 178 94s138 -31 179 -94s61 -153 61 -272c0 -239 -81 -366 -240 -366c-156 0 -240 129 -240 366c0 119 21 209 62 272zM277 654c-111 0 -167 -100 -167 -300s56 -300 168 -300s168 100 168 300s-56 300 -169 300z" />
    <glyph glyph-name="one" unicode="1" horiz-adv-x="556" 
d="M284 708h64v-708h-72v618l-128 -112l-44 54z" />
    <glyph glyph-name="two" unicode="2" horiz-adv-x="556" 
d="M278 720c61 0 112 -16 153 -48s61 -79 61 -142c0 -41 -11 -79 -32 -113c-22 -35 -56 -75 -102 -121l-232 -230h372v-66h-450v83l282 287c67 68 90 111 90 160c0 73 -57 124 -137 124c-69 0 -124 -43 -141 -111l-76 8c20 104 103 169 212 169z" />
    <glyph glyph-name="three" unicode="3" horiz-adv-x="556" 
d="M263 720c59 0 108 -17 147 -51s58 -78 58 -132c0 -72 -48 -138 -121 -163c87 -21 140 -93 140 -182c0 -61 -21 -110 -64 -147c-43 -38 -97 -57 -162 -57c-112 0 -186 48 -223 143l76 23c24 -67 75 -100 153 -100c41 0 76 14 105 41s43 60 43 99c0 96 -65 144 -194 144
h-17v66h28c109 0 164 43 164 130c0 77 -48 120 -131 120c-61 0 -106 -26 -135 -78l-63 32c42 75 107 112 196 112z" />
    <glyph glyph-name="four" unicode="4" horiz-adv-x="556" 
d="M324 708h92v-474h102v-66h-102v-168h-72v168h-306v82zM344 636h-2l-244 -402h246v402z" />
    <glyph glyph-name="five" unicode="5" horiz-adv-x="556" 
d="M104 708h361v-66h-290l-4 -213c29 11 61 17 95 17c65 0 119 -21 161 -64s63 -98 63 -163c0 -67 -22 -123 -67 -166s-102 -65 -171 -65c-89 0 -168 47 -204 126l71 31c31 -61 77 -91 139 -91c44 0 82 16 113 47s47 68 47 111c0 49 -16 90 -49 121s-74 47 -125 47
c-49 0 -98 -13 -147 -39z" />
    <glyph glyph-name="six" unicode="6" horiz-adv-x="556" 
d="M300 708h85l-193 -304l2 -2c24 16 57 24 98 24c61 0 112 -21 154 -62c41 -42 62 -94 62 -157c0 -64 -22 -116 -65 -157s-98 -62 -165 -62s-122 21 -165 62s-65 94 -65 158c0 41 7 77 20 109c13 31 37 75 72 131zM120 207c0 -45 15 -82 45 -110c30 -29 68 -43 113 -43
c93 0 158 64 158 153s-64 153 -159 153c-45 0 -83 -14 -112 -43c-30 -29 -45 -65 -45 -110z" />
    <glyph glyph-name="seven" unicode="7" horiz-adv-x="556" 
d="M54 708h420v-66l-285 -642h-81l291 642h-345v66z" />
    <glyph glyph-name="eight" unicode="8" horiz-adv-x="556" 
d="M278 720c56 0 103 -17 141 -52s57 -80 57 -133c0 -72 -45 -137 -106 -158v-2c80 -23 132 -95 132 -186c0 -57 -22 -105 -65 -143c-43 -39 -96 -58 -159 -58c-61 0 -114 19 -158 58c-44 38 -66 86 -66 143c0 91 52 165 132 186v2c-61 21 -106 86 -106 158
c0 53 19 97 58 132c38 35 85 53 140 53zM188 618c-24 -24 -36 -54 -36 -89s12 -65 36 -89s54 -36 90 -36s66 12 90 36s36 54 36 89s-12 65 -36 89s-54 36 -91 36c-35 0 -65 -12 -89 -36zM169 304c-29 -27 -43 -62 -43 -105s14 -77 43 -104c28 -27 64 -41 109 -41
c88 0 152 60 152 145s-62 145 -153 145c-44 0 -80 -13 -108 -40z" />
    <glyph glyph-name="nine" unicode="9" horiz-adv-x="556" 
d="M278 720c67 0 122 -21 165 -62s65 -94 65 -158c0 -61 -21 -124 -62 -191l-190 -309h-85l193 304l-2 2c-25 -16 -58 -24 -98 -24c-61 0 -113 21 -154 63s-62 94 -62 156c0 63 22 116 66 157c43 41 98 62 164 62zM120 501c0 -45 15 -82 45 -110c30 -29 68 -43 113 -43
c93 0 158 64 158 153s-64 153 -159 153c-45 0 -83 -14 -112 -43c-30 -29 -45 -65 -45 -110z" />
    <glyph glyph-name="colon" unicode=":" horiz-adv-x="278" 
d="M101 457c20 21 56 21 77 0c20 -21 20 -55 0 -76c-21 -21 -57 -21 -77 0c-21 21 -21 55 0 76zM101 86c20 21 56 21 77 0c20 -21 20 -55 0 -76c-21 -21 -57 -21 -77 0c-21 21 -21 55 0 76z" />
    <glyph glyph-name="semicolon" unicode=";" horiz-adv-x="278" 
d="M110 457c20 21 56 21 77 0c20 -21 20 -55 0 -76c-21 -21 -57 -21 -77 0c-21 21 -21 55 0 76zM132 95h81l-81 -235h-67z" />
    <glyph glyph-name="less" unicode="&#x3c;" horiz-adv-x="666" 
d="M78 326l510 238v-60l-429 -201l429 -201v-60l-510 238v46z" />
    <glyph glyph-name="equal" unicode="=" horiz-adv-x="666" 
d="M78 408h510v-60h-510v60zM78 258h510v-60h-510v60z" />
    <glyph glyph-name="greater" unicode="&#x3e;" horiz-adv-x="666" 
d="M78 564l510 -238v-46l-510 -238v60l429 201l-429 201v60z" />
    <glyph glyph-name="question" unicode="?" horiz-adv-x="482" 
d="M248 720c56 0 102 -16 137 -48s53 -74 53 -127c0 -68 -22 -109 -90 -168c-31 -27 -51 -50 -59 -69c-9 -20 -13 -49 -13 -87v-29h-72v84c0 37 26 78 78 124c56 50 84 96 84 139c0 68 -48 115 -117 115c-65 0 -114 -41 -127 -109l-75 9c16 103 96 166 201 166zM208 86
c20 21 56 21 77 0c20 -21 20 -55 0 -76c-21 -21 -57 -21 -77 0c-21 21 -21 55 0 76z" />
    <glyph glyph-name="at" unicode="@" horiz-adv-x="800" 
d="M417 726c95 0 175 -29 241 -88s99 -132 99 -219c0 -77 -25 -144 -75 -199c-51 -55 -102 -83 -155 -83c-42 0 -65 20 -70 59h-2c-39 -39 -81 -59 -125 -59c-84 0 -142 62 -142 151c0 74 23 139 68 196s100 85 166 85c58 0 96 -27 114 -82h2l22 63h56l-82 -276
c-7 -26 -11 -45 -11 -57c0 -11 10 -20 23 -20c35 0 69 23 102 70c33 46 49 95 49 148c0 72 -28 133 -85 183c-57 49 -122 74 -195 74c-85 0 -158 -32 -220 -96c-63 -65 -94 -139 -94 -222s31 -157 93 -221c62 -65 136 -97 221 -97c99 0 199 46 252 121h64
c-64 -109 -185 -175 -316 -175c-104 0 -192 36 -265 109s-109 160 -109 263c0 102 37 190 110 263s161 109 264 109zM254 293c0 -55 39 -96 94 -96c39 0 74 24 107 71c32 47 48 94 48 141c0 55 -37 100 -81 100c-43 0 -81 -23 -116 -69s-52 -95 -52 -147z" />
    <glyph glyph-name="A" unicode="A" horiz-adv-x="686" 
d="M308 708h70l308 -708h-84l-78 186h-362l-78 -186h-84zM343 624l-154 -372h307z" />
    <glyph glyph-name="B" unicode="B" horiz-adv-x="630" 
d="M96 708h216c137 0 223 -63 223 -178c0 -77 -46 -136 -125 -155v-2c100 -9 160 -76 160 -176c0 -53 -22 -99 -66 -138s-106 -59 -187 -59h-221v708zM168 398h148c83 0 141 48 141 123c0 71 -56 121 -147 121h-142v-244zM168 66h143c109 0 181 50 181 134
c0 92 -57 138 -172 138h-152v-272z" />
    <glyph glyph-name="C" unicode="C" horiz-adv-x="704" 
d="M417 726c104 0 186 -37 245 -112l-63 -47c-16 26 -42 48 -78 66s-71 27 -104 27c-85 0 -154 -29 -209 -88s-82 -131 -82 -218s27 -160 82 -218c55 -59 124 -88 209 -88c89 0 156 35 203 106l59 -42c-52 -79 -154 -130 -262 -130c-105 0 -193 36 -263 107
c-71 71 -106 159 -106 265c0 105 35 194 106 265c70 71 158 107 263 107z" />
    <glyph glyph-name="D" unicode="D" horiz-adv-x="741" 
d="M86 708h234c107 0 196 -33 267 -100s106 -152 106 -254c0 -103 -35 -187 -106 -254s-159 -100 -262 -100h-239v708zM158 66h141c96 0 173 27 230 82c57 54 86 123 86 206s-29 152 -86 207c-58 54 -133 81 -226 81h-145v-576z" />
    <glyph glyph-name="E" unicode="E" horiz-adv-x="593" 
d="M96 708h439v-66h-367v-241h343v-66h-343v-269h379v-66h-451v708z" />
    <glyph glyph-name="F" unicode="F" horiz-adv-x="556" 
d="M96 708h427v-66h-355v-241h330v-66h-330v-335h-72v708z" />
    <glyph glyph-name="G" unicode="G" horiz-adv-x="778" 
d="M417 726c107 0 193 -32 256 -95l-54 -53c-51 55 -119 82 -202 82c-85 0 -154 -29 -209 -87c-55 -59 -82 -132 -82 -219s27 -160 82 -218c55 -59 124 -88 209 -88c74 0 139 17 196 50v237h-169v66h241v-347c-81 -48 -170 -72 -268 -72c-106 0 -194 36 -264 107
s-105 159 -105 265s35 195 105 266s158 106 264 106z" />
    <glyph glyph-name="H" unicode="H" horiz-adv-x="722" 
d="M96 708h72v-307h386v307h72v-708h-72v335h-386v-335h-72v708z" />
    <glyph glyph-name="I" unicode="I" horiz-adv-x="264" 
d="M96 708h72v-708h-72v708z" />
    <glyph glyph-name="J" unicode="J" horiz-adv-x="482" 
d="M324 708h72v-518c0 -59 -17 -109 -52 -148c-35 -40 -84 -60 -147 -60c-100 0 -167 53 -183 148l73 15c14 -65 51 -97 112 -97c83 0 125 57 125 171v489z" />
    <glyph glyph-name="K" unicode="K" horiz-adv-x="630" 
d="M96 708h72v-307h10l333 307h103l-357 -321l377 -387h-106l-348 365h-12v-365h-72v708z" />
    <glyph glyph-name="L" unicode="L" horiz-adv-x="500" 
d="M96 708h72v-642h330v-66h-402v708z" />
    <glyph glyph-name="M" unicode="M" horiz-adv-x="890" 
d="M96 708h110l239 -576l239 576h110v-708h-72v612h-2l-256 -612h-38l-256 612h-2v-612h-72v708z" />
    <glyph glyph-name="N" unicode="N" horiz-adv-x="778" 
d="M96 708h90l422 -600h2v600h72v-708h-90l-422 606h-2v-606h-72v708z" />
    <glyph glyph-name="O" unicode="O" horiz-adv-x="834" 
d="M153 620c70 71 158 106 264 106s194 -35 264 -106s105 -160 105 -266s-35 -194 -105 -265c-71 -71 -159 -107 -264 -107s-193 36 -263 107c-71 71 -106 159 -106 265s35 195 105 266zM208 573c-55 -59 -82 -132 -82 -219s27 -160 82 -218c55 -59 124 -88 209 -88
c86 0 156 29 210 88s81 131 81 218s-27 159 -82 218s-125 88 -210 88c-84 0 -153 -29 -208 -87z" />
    <glyph glyph-name="P" unicode="P" horiz-adv-x="574" 
d="M96 708h211c143 0 228 -66 228 -189s-85 -190 -228 -190h-139v-329h-72v708zM168 395h121c105 0 168 44 168 124c0 81 -63 123 -168 123h-121v-247z" />
    <glyph glyph-name="Q" unicode="Q" horiz-adv-x="834" 
d="M406 726c103 0 188 -35 256 -104c67 -69 101 -156 101 -259c0 -138 -55 -236 -166 -295v-2h214v-66h-410c-95 0 -177 34 -247 101c-71 67 -106 151 -106 252c0 110 34 200 101 269s152 104 257 104zM126 363c0 -83 26 -154 79 -211c52 -57 119 -86 201 -86
c81 0 148 29 201 86c52 57 78 128 78 211c0 84 -26 155 -78 212c-53 57 -120 85 -202 85c-80 0 -146 -28 -199 -85s-80 -127 -80 -212z" />
    <glyph glyph-name="R" unicode="R" horiz-adv-x="593" 
d="M96 708h223c143 0 228 -66 228 -189c0 -101 -65 -172 -180 -183l203 -336h-88l-194 329h-120v-329h-72v708zM168 395h133c108 0 168 44 168 124s-63 123 -168 123h-133v-247z" />
    <glyph glyph-name="S" unicode="S" horiz-adv-x="556" 
d="M294 726c84 0 151 -29 200 -86l-63 -49c-31 46 -77 69 -137 69c-87 0 -151 -51 -151 -128c0 -64 41 -103 130 -131c33 -11 59 -19 76 -25c17 -7 38 -16 62 -28c23 -13 41 -25 52 -38c23 -26 43 -69 43 -122c1 -58 -22 -107 -68 -146c-47 -40 -102 -60 -166 -60
c-96 0 -170 35 -222 105l65 47c33 -57 87 -86 160 -86c41 0 77 12 108 37c30 24 45 55 45 92c0 69 -38 107 -146 140c-30 9 -53 17 -70 24c-17 6 -36 15 -57 27c-22 11 -38 24 -49 37c-22 26 -41 67 -41 120c0 61 22 110 65 147c43 36 98 54 164 54z" />
    <glyph glyph-name="T" unicode="T" horiz-adv-x="574" 
d="M14 708h546v-66h-237v-642h-72v642h-237v66z" />
    <glyph glyph-name="U" unicode="U" horiz-adv-x="686" 
d="M84 708h72v-441c0 -139 71 -219 187 -219s187 80 187 219v441h72v-448c0 -168 -92 -278 -259 -278s-259 109 -259 278v448z" />
    <glyph glyph-name="V" unicode="V" horiz-adv-x="611" 
d="M-3 708h80l225 -600h2l232 600h78l-276 -708h-72z" />
    <glyph glyph-name="W" unicode="W" horiz-adv-x="944" 
d="M0 708h80l170 -606h2l178 606h86l178 -606h2l168 606h80l-209 -708h-84l-178 606h-2l-178 -606h-84z" />
    <glyph glyph-name="X" unicode="X" horiz-adv-x="630" 
d="M26 708h97l193 -283l199 283h89l-240 -336l260 -372h-95l-216 321l-217 -321h-90l259 372z" />
    <glyph glyph-name="Y" unicode="Y" horiz-adv-x="574" 
d="M-14 708h90l211 -334l211 334h90l-265 -403v-305h-72v305z" />
    <glyph glyph-name="Z" unicode="Z" horiz-adv-x="556" 
d="M29 708h498v-60l-413 -582h419v-66h-510v60l414 582h-408v66z" />
    <glyph glyph-name="bracketleft" unicode="[" horiz-adv-x="260" 
d="M65 732h162v-54h-96v-780h96v-54h-162v888z" />
    <glyph glyph-name="backslash" unicode="\" horiz-adv-x="370" 
d="M5 706l57 20l303 -725l-58 -19z" />
    <glyph glyph-name="bracketright" unicode="]" horiz-adv-x="260" 
d="M33 732h162v-888h-162v54h96v780h-96v54z" />
    <glyph glyph-name="asciicircum" unicode="^" horiz-adv-x="666" 
d="M80 275l229 433h48l229 -433h-62l-191 361l-191 -361h-62z" />
    <glyph glyph-name="underscore" unicode="_" horiz-adv-x="500" 
d="M0 -75h500v-50h-500v50z" />
    <glyph glyph-name="grave" unicode="`" horiz-adv-x="240" 
d="M-10 708h91l100 -144h-59z" />
    <glyph glyph-name="a" unicode="a" horiz-adv-x="519" 
d="M266 480c105 0 172 -64 172 -163v-217c0 -28 3 -61 8 -100h-64c-4 21 -6 47 -6 76h-2c-37 -59 -92 -88 -165 -88c-95 0 -161 54 -161 137c0 111 86 162 294 162h30v10c0 84 -39 123 -120 123c-55 0 -102 -18 -143 -55l-40 47c44 45 110 68 197 68zM120 134
c0 -52 45 -86 110 -86c88 0 142 55 142 160v25h-46c-128 0 -206 -34 -206 -99z" />
    <glyph glyph-name="b" unicode="b" horiz-adv-x="611" 
d="M72 756h66v-366h2c39 56 110 90 182 90c73 0 132 -23 179 -69c47 -47 70 -106 70 -177s-23 -129 -70 -176s-107 -70 -179 -70s-143 34 -182 90h-2v-78h-66v756zM189 367c-36 -36 -54 -80 -54 -133s18 -97 54 -132c35 -36 80 -54 133 -54c52 0 95 17 128 52s49 79 49 134
c0 54 -17 99 -50 134s-76 52 -128 52c-53 0 -97 -18 -132 -53z" />
    <glyph glyph-name="c" unicode="c" horiz-adv-x="482" 
d="M292 480c71 0 129 -27 175 -81l-54 -41c-29 41 -68 62 -119 62c-52 0 -94 -17 -126 -52s-48 -79 -48 -134s16 -99 47 -134s73 -52 124 -52c53 0 94 21 122 62l54 -41c-46 -54 -105 -81 -177 -81c-71 0 -129 23 -174 69s-68 105 -68 177s23 131 68 177s104 69 176 69z" />
    <glyph glyph-name="d" unicode="d" horiz-adv-x="611" 
d="M473 756h66v-756h-66v78h-2c-39 -56 -111 -90 -182 -90s-131 23 -178 70s-71 105 -71 176s24 129 71 176s107 70 178 70c72 0 143 -34 182 -90h2v366zM162 368c-33 -35 -50 -80 -50 -134s16 -98 49 -133s75 -53 128 -53s98 18 134 54c35 36 53 80 53 132
c0 53 -18 97 -54 133c-36 35 -81 53 -134 53c-51 0 -93 -17 -126 -52z" />
    <glyph glyph-name="e" unicode="e" horiz-adv-x="556" 
d="M116 410c45 47 101 70 167 70s120 -21 162 -64s63 -103 63 -180v-20h-390c5 -49 23 -89 56 -120c33 -32 71 -48 116 -48c60 0 118 30 150 81l51 -42c-53 -66 -120 -99 -201 -99c-70 0 -128 24 -173 71c-46 47 -69 105 -69 175s23 129 68 176zM120 270h316
c0 91 -60 150 -152 150c-41 0 -79 -15 -112 -44c-34 -30 -51 -65 -52 -106z" />
    <glyph glyph-name="f" unicode="f" horiz-adv-x="296" 
d="M270 768c19 0 38 -2 57 -7l-12 -60c-18 5 -35 7 -51 7c-59 0 -85 -33 -85 -116v-124h111v-60h-111v-408h-66v408h-99v60h99v133c0 107 53 167 157 167z" />
    <glyph glyph-name="g" unicode="g" horiz-adv-x="611" 
d="M286 480c79 0 139 -30 180 -89h3v77h66v-468c0 -149 -88 -240 -251 -240c-91 0 -166 31 -225 94l49 52c43 -57 103 -86 180 -86c116 0 181 68 181 180v88h-2c-39 -59 -97 -88 -175 -88c-69 0 -126 23 -173 70c-47 46 -71 102 -71 168c0 69 23 126 68 173
c45 46 102 69 170 69zM171 367c-34 -35 -51 -78 -51 -127s17 -92 51 -127c33 -35 74 -53 123 -53c50 0 92 17 126 50s51 75 51 124c0 56 -17 101 -50 135s-76 51 -128 51c-47 0 -88 -18 -122 -53z" />
    <glyph glyph-name="h" unicode="h" horiz-adv-x="556" 
d="M72 756h66v-363h2c29 51 94 87 157 87c115 0 176 -64 176 -179v-301h-66v264c0 109 -36 156 -124 156c-79 0 -145 -64 -145 -181v-239h-66v756z" />
    <glyph glyph-name="i" unicode="i" horiz-adv-x="240" 
d="M87 682c29 28 81 8 81 -34c0 -43 -52 -62 -81 -34c-20 19 -20 49 0 68zM87 468h66v-468h-66v468z" />
    <glyph glyph-name="j" unicode="j" horiz-adv-x="240" 
d="M87 682c29 28 81 8 81 -34c0 -43 -52 -62 -81 -34c-20 19 -20 49 0 68zM87 468h66v-575c0 -89 -44 -133 -132 -133c-19 0 -36 3 -52 10l9 57c14 -5 27 -7 39 -7c47 0 70 31 70 94v554z" />
    <glyph glyph-name="k" unicode="k" horiz-adv-x="482" 
d="M72 756h66v-499l221 211h99l-233 -214l258 -254h-102l-243 246v-246h-66v756z" />
    <glyph glyph-name="l" unicode="l" horiz-adv-x="240" 
d="M87 756h66v-756h-66v756z" />
    <glyph glyph-name="m" unicode="m" horiz-adv-x="852" 
d="M291 480c74 0 124 -32 149 -97c28 60 90 97 155 97c113 0 175 -64 175 -179v-301h-66v278c0 99 -35 142 -118 142c-85 0 -132 -66 -132 -167v-253h-66v278c0 97 -34 142 -117 142c-76 0 -133 -67 -133 -182v-238h-66v370c0 35 -2 68 -5 98h71v-71h2c29 49 91 83 151 83z
" />
    <glyph glyph-name="n" unicode="n" horiz-adv-x="556" 
d="M297 480c115 0 176 -64 176 -179v-301h-66v264c0 107 -38 156 -123 156c-39 0 -73 -15 -102 -45s-44 -76 -44 -139v-236h-66v369l-5 99h68c2 -17 3 -42 3 -75h2c29 51 94 87 157 87z" />
    <glyph glyph-name="o" unicode="o" horiz-adv-x="593" 
d="M296 480c71 0 130 -23 178 -68c47 -46 71 -105 71 -178c0 -71 -23 -129 -70 -176s-107 -70 -179 -70c-71 0 -130 23 -177 70s-71 105 -71 176s24 129 71 176s106 70 177 70zM169 368c-33 -35 -49 -79 -49 -134s17 -99 50 -134s75 -52 126 -52c53 0 95 18 128 53
s49 79 49 133s-16 99 -49 134s-76 52 -129 52c-51 0 -93 -17 -126 -52z" />
    <glyph glyph-name="p" unicode="p" horiz-adv-x="611" 
d="M322 480c72 0 132 -23 179 -70s70 -105 70 -176s-23 -129 -70 -176s-107 -70 -179 -70s-143 34 -182 90h-2v-366h-66v756h66v-78h2c39 56 110 90 182 90zM189 367c-36 -36 -54 -80 -54 -133s18 -97 54 -132c35 -36 80 -54 133 -54c52 0 95 17 128 52s49 79 49 134
c0 54 -17 99 -50 134s-76 52 -128 52s-96 -18 -132 -53z" />
    <glyph glyph-name="q" unicode="q" horiz-adv-x="611" 
d="M289 480c72 0 143 -34 182 -90h2v78h66v-756h-66v366h-2c-39 -56 -111 -90 -182 -90s-131 23 -178 70s-71 105 -71 176s24 129 72 176c47 47 106 70 177 70zM162 368c-33 -35 -50 -80 -50 -134s16 -98 49 -133s75 -53 128 -53s98 18 134 54c35 36 53 80 53 132
c0 53 -18 97 -54 133c-36 35 -81 53 -134 53c-51 0 -93 -17 -126 -52z" />
    <glyph glyph-name="r" unicode="r" horiz-adv-x="332" 
d="M292 480c17 0 34 -2 49 -6l-13 -65c-7 3 -20 5 -37 5c-43 0 -78 -15 -105 -45s-41 -66 -41 -109v-260h-66v325c0 51 -4 111 -4 143h65v-87h2c25 63 79 99 150 99z" />
    <glyph glyph-name="s" unicode="s" horiz-adv-x="426" 
d="M223 480c77 0 129 -28 156 -84l-59 -39c-21 42 -55 63 -101 63c-57 0 -97 -27 -97 -70c0 -40 25 -61 108 -78c55 -12 92 -25 111 -38c36 -27 54 -61 54 -102c0 -88 -73 -144 -182 -144c-79 0 -139 30 -180 91l57 39c31 -47 72 -70 123 -70c64 0 109 30 110 78
c1 43 -30 64 -126 84c-98 19 -147 62 -147 129c0 85 70 141 173 141z" />
    <glyph glyph-name="t" unicode="t" horiz-adv-x="332" 
d="M113 600h66v-132h135v-60h-135v-280c0 -53 19 -80 68 -80c23 0 46 6 68 18l3 -61c-26 -11 -56 -17 -89 -17c-73 0 -116 45 -116 121v299h-99v60h99v132z" />
    <glyph glyph-name="u" unicode="u" horiz-adv-x="556" 
d="M72 468h66v-264c0 -108 38 -156 126 -156c39 0 73 16 101 48c28 31 42 74 42 128v244h66v-369c0 -33 2 -66 5 -99h-68c-2 13 -3 26 -3 38v37h-2c-31 -52 -96 -87 -157 -87c-117 0 -176 67 -176 179v301z" />
    <glyph glyph-name="v" unicode="v" horiz-adv-x="482" 
d="M14 468h79l150 -396l150 396h75l-190 -468h-74z" />
    <glyph glyph-name="w" unicode="w" horiz-adv-x="722" 
d="M14 468h78l108 -380h2l125 380h68l125 -380h2l108 380h78l-148 -468h-74l-124 384h-2l-124 -384h-74z" />
    <glyph glyph-name="x" unicode="x" horiz-adv-x="482" 
d="M23 468h90l130 -175l124 175h82l-163 -218l196 -250h-90l-157 205l-151 -205h-84l193 250z" />
    <glyph glyph-name="y" unicode="y" horiz-adv-x="482" 
d="M16 468h83l147 -387l143 387h80l-228 -576c-40 -104 -83 -132 -154 -132c-21 0 -41 2 -60 7l7 64c15 -7 31 -11 50 -11c39 0 67 24 85 72l39 102z" />
    <glyph glyph-name="z" unicode="z" horiz-adv-x="426" 
d="M37 468h356v-48l-274 -360h284v-60h-380v48l274 360h-260v60z" />
    <glyph glyph-name="braceleft" unicode="{" horiz-adv-x="260" 
d="M207 732h66v-60h-57c-35 0 -49 -20 -49 -79v-179c0 -64 -37 -116 -88 -125v-2c52 -9 88 -61 88 -124v-181c0 -57 16 -78 49 -78h57v-60h-66c-65 0 -106 46 -106 121v185c0 59 -37 105 -89 108v60c52 1 89 49 89 108v185c0 75 41 121 106 121z" />
    <glyph glyph-name="bar" unicode="|" horiz-adv-x="222" 
d="M81 -250v1000h60v-1000h-60z" />
    <glyph glyph-name="braceright" unicode="}" horiz-adv-x="260" 
d="M-13 732h66c65 0 106 -45 106 -121v-185c0 -59 37 -107 89 -108v-60c-52 -3 -89 -49 -89 -108v-185c0 -76 -41 -121 -106 -121h-66v60h57c33 0 49 19 49 78v181c0 63 37 113 89 124v2c-52 9 -89 60 -89 125v179c0 59 -16 79 -49 79h-57v60z" />
    <glyph glyph-name="asciitilde" unicode="~" horiz-adv-x="666" 
d="M156 349c44 29 102 28 153 3s94 -57 127 -57c35 0 68 24 99 73l42 -40c-48 -67 -85 -93 -141 -93c-87 -3 -153 79 -206 76c-35 0 -68 -24 -99 -73l-42 40c23 33 45 56 67 71z" />
    <glyph glyph-name="uni00A0" unicode="&#xa0;" horiz-adv-x="278" 
 />
    <glyph glyph-name="exclamdown" unicode="&#xa1;" horiz-adv-x="278" 
d="M101 470c20 21 56 21 77 0c20 -21 20 -55 0 -76c-21 -21 -57 -21 -77 0c-21 21 -21 55 0 76zM103 288h72v-516h-72v516z" />
    <glyph glyph-name="cent" unicode="&#xa2;" horiz-adv-x="556" 
d="M288 477v63h48v-61c66 -3 120 -30 161 -80l-54 -41c-21 33 -60 58 -107 61v-370c47 3 82 23 107 61l54 -41c-42 -50 -96 -77 -161 -80v-61h-48v63c-64 7 -115 32 -153 77s-57 100 -57 166c0 65 19 121 57 166s89 70 153 77zM150 234c0 -93 54 -167 138 -183v366
c-87 -17 -138 -88 -138 -183z" />
    <glyph glyph-name="sterling" unicode="&#xa3;" horiz-adv-x="556" 
d="M397 720c66 0 118 -20 156 -60l-47 -51c-31 34 -68 51 -111 51c-91 0 -137 -64 -137 -180v-85h168v-60h-168v-275h253v-60h-427v60h102v275h-96v60h96v88c0 153 71 237 211 237z" />
    <glyph glyph-name="currency" unicode="&#xa4;" horiz-adv-x="556" 
d="M31 559l44 44l53 -53c92 71 208 71 300 0l53 53l44 -44l-53 -53c35 -45 53 -95 53 -150c0 -59 -18 -110 -53 -154l53 -53l-44 -44l-53 53c-46 -35 -96 -53 -150 -53c-55 0 -105 18 -150 53l-53 -53l-44 44l53 53c-35 45 -53 94 -53 148c0 59 18 111 53 156zM97 354
c0 -51 18 -96 53 -133s78 -56 129 -56c49 0 92 18 127 55s53 81 53 134s-18 97 -53 134s-78 55 -128 55s-93 -18 -128 -55s-53 -82 -53 -134z" />
    <glyph glyph-name="yen" unicode="&#xa5;" horiz-adv-x="556" 
d="M-2 708h85l195 -340l195 340h85l-204 -342h123v-54h-156l-7 -12v-77h163v-54h-163v-169h-72v169h-163v54h163v77l-7 12h-156v54h124z" />
    <glyph glyph-name="brokenbar" unicode="&#xa6;" horiz-adv-x="222" 
d="M81 325v350h60v-350h-60zM81 -175v350h60v-350h-60z" />
    <glyph glyph-name="section" unicode="&#xa7;" horiz-adv-x="556" 
d="M281 720c84 0 151 -38 172 -94l-59 -30c-24 43 -60 64 -108 64c-68 0 -108 -40 -108 -91c0 -23 12 -44 24 -57c5 -7 16 -15 33 -24c17 -10 31 -18 42 -23s30 -15 58 -28c101 -48 131 -90 131 -157c0 -56 -29 -100 -87 -131c49 -35 69 -66 69 -125
c0 -99 -76 -163 -188 -163c-93 0 -166 40 -198 115l66 32c20 -56 68 -87 132 -87c71 0 116 38 116 101c0 35 -20 63 -59 82c-3 1 -27 14 -72 37c-46 23 -71 36 -76 38c-60 30 -90 73 -90 129c0 57 35 102 104 134c-51 32 -77 72 -77 120c0 95 71 158 175 158zM151 313
c0 -34 23 -62 70 -84l100 -48c41 16 73 54 73 89c0 43 -29 78 -88 105l-64 29c-61 -22 -91 -52 -91 -91z" />
    <glyph glyph-name="dieresis" unicode="&#xa8;" horiz-adv-x="240" 
d="M-12 683c20 20 52 20 72 0s20 -52 0 -72s-52 -20 -72 0s-20 52 0 72zM180 683c20 20 52 20 72 0s20 -52 0 -72s-52 -20 -72 0s-20 52 0 72z" />
    <glyph glyph-name="copyright" unicode="&#xa9;" horiz-adv-x="800" 
d="M136 618c73 72 161 108 264 108s191 -36 265 -108c73 -72 110 -159 110 -262c0 -105 -37 -193 -110 -265c-73 -73 -162 -109 -265 -109s-191 36 -264 108c-74 71 -111 159 -111 262c0 105 37 193 111 266zM85 352c0 -89 31 -163 93 -224c61 -61 135 -92 222 -92
c88 0 163 31 224 93c61 61 91 137 91 227c0 89 -31 164 -92 225s-136 91 -224 91c-87 0 -161 -31 -222 -92c-61 -62 -92 -138 -92 -228zM412 581c101 0 176 -57 189 -152h-56c-12 59 -65 98 -132 98c-96 0 -161 -71 -161 -171c0 -49 16 -90 48 -124c31 -35 70 -52 115 -52
c67 0 118 42 130 102h57c-23 -96 -96 -156 -187 -156c-65 0 -119 21 -160 64c-42 43 -63 97 -63 164s20 122 60 164s93 63 160 63z" />
    <glyph glyph-name="ordfeminine" unicode="&#xaa;" horiz-adv-x="337" 
d="M162 720c79 0 126 -38 126 -93v-152c0 -2 2 -17 5 -45h-54l-3 37c-21 -29 -54 -43 -100 -43c-61 0 -105 32 -105 83c0 71 56 100 181 100h16v7c0 39 -21 58 -64 58c-35 0 -64 -10 -89 -30l-32 37c29 27 68 41 119 41zM91 510c0 -24 24 -38 59 -38c52 0 78 29 78 87h-29
c-72 0 -108 -16 -108 -49z" />
    <glyph glyph-name="guillemotleft" unicode="&#xab;" horiz-adv-x="482" 
d="M52 240l140 209l47 -33l-115 -176l115 -176l-47 -33zM234 240l140 209l47 -33l-115 -176l115 -176l-47 -33z" />
    <glyph glyph-name="logicalnot" unicode="&#xac;" horiz-adv-x="666" 
d="M78 408h510v-278h-60v218h-450v60z" />
    <glyph glyph-name="uni00AD" unicode="&#xad;" horiz-adv-x="333" 
d="M38 273h257v-66h-257v66z" />
    <glyph glyph-name="registered" unicode="&#xae;" horiz-adv-x="800" 
d="M136 618c73 72 161 108 264 108s191 -36 265 -107c73 -72 110 -160 110 -263c0 -105 -37 -193 -110 -265c-73 -73 -162 -109 -265 -109s-191 36 -264 108c-74 71 -111 159 -111 262c0 105 37 194 111 266zM85 352c0 -89 31 -163 93 -224c61 -61 135 -92 222 -92
c88 0 163 31 224 93c61 61 91 137 91 227c0 89 -31 164 -92 225s-136 91 -224 91c-87 0 -161 -31 -222 -92c-61 -62 -92 -138 -92 -228zM261 567h162c99 0 148 -41 148 -124c0 -68 -40 -109 -113 -117l123 -190h-65l-118 185h-77v-185h-60v431zM321 375h80
c84 0 110 20 110 71c0 45 -31 67 -93 67h-97v-138z" />
    <glyph glyph-name="overscore" unicode="&#xaf;" horiz-adv-x="240" 
d="M-15 654h270v-54h-270v54z" />
    <glyph glyph-name="degree" unicode="&#xb0;" horiz-adv-x="400" 
d="M200 720c43 0 78 -14 107 -43c28 -29 42 -64 42 -106s-14 -77 -42 -106s-64 -43 -107 -43s-78 14 -106 42c-29 28 -43 64 -43 107s14 79 43 107s64 42 106 42zM129 643c-40 -40 -40 -104 0 -143c39 -40 103 -40 143 0c39 39 39 103 0 143c-40 39 -104 39 -143 0z" />
    <glyph glyph-name="plusminus" unicode="&#xb1;" horiz-adv-x="666" 
d="M303 407v156h60v-156h225v-60h-225v-151h-60v151h-225v60h225zM78 108h510v-60h-510v60z" />
    <glyph glyph-name="two.sups" unicode="&#xb2;" horiz-adv-x="361" 
d="M184 720c84 0 139 -45 139 -110c0 -21 -6 -43 -18 -66c-13 -23 -39 -52 -78 -87l-127 -114h227v-54h-293v57l185 177c29 27 44 55 44 83c0 31 -37 60 -76 60c-41 0 -77 -23 -88 -56l-56 9c12 63 66 101 141 101z" />
    <glyph glyph-name="three.sups" unicode="&#xb3;" horiz-adv-x="361" 
d="M181 720c77 0 133 -45 133 -110c0 -44 -31 -84 -82 -99v-2c60 -12 95 -51 95 -104c0 -72 -62 -122 -147 -122c-71 0 -120 29 -146 86l52 30c16 -41 49 -62 98 -62c20 0 39 8 57 23c17 15 26 30 26 46c0 47 -36 77 -112 77h-25v54h19c68 0 105 26 105 67
c0 36 -32 62 -72 62s-59 -10 -86 -46l-47 33c32 45 76 67 132 67z" />
    <glyph glyph-name="acute" unicode="&#xb4;" horiz-adv-x="240" 
d="M159 708h91l-132 -144h-59z" />
    <glyph glyph-name="uni00B5" unicode="&#xb5;" horiz-adv-x="556" 
d="M72 468h66v-264c0 -112 34 -156 127 -156c85 0 142 73 142 176v244h66v-371c0 -37 2 -69 5 -97h-71v76h-2c-33 -51 -98 -88 -157 -88c-45 0 -81 10 -110 29v-245h-66v696z" />
    <glyph glyph-name="paragraph" unicode="&#xb6;" horiz-adv-x="600" 
d="M277 708h236v-834h-66v780h-124v-780h-66v442c-61 1 -111 19 -150 55c-39 35 -59 79 -59 131c0 129 86 206 229 206z" />
    <glyph glyph-name="middot" unicode="&#xb7;" horiz-adv-x="278" 
d="M101 352c20 21 56 21 77 0c20 -21 20 -55 0 -76c-21 -21 -57 -21 -77 0c-21 21 -21 55 0 76z" />
    <glyph glyph-name="cedilla" unicode="&#xb8;" horiz-adv-x="240" 
d="M53 -84l62 84h41l-45 -60l2 -1c17 5 29 7 36 7c44 0 77 -31 77 -75c0 -52 -50 -88 -115 -88c-34 0 -66 8 -97 24l16 36c22 -12 47 -18 74 -18c36 0 62 17 62 45c0 23 -18 40 -49 40c-15 0 -30 -4 -46 -11z" />
    <glyph glyph-name="one.sups" unicode="&#xb9;" horiz-adv-x="361" 
d="M54 625l117 89h54v-425h-60v365l-82 -67z" />
    <glyph glyph-name="ordmasculine" unicode="&#xba;" horiz-adv-x="385" 
d="M192 720c47 0 85 -14 116 -42c31 -29 46 -64 46 -107s-15 -78 -46 -105c-31 -28 -69 -42 -116 -42c-46 0 -84 14 -115 42s-46 63 -46 105c0 43 15 79 46 107s69 42 115 42zM91 571c0 -55 44 -99 101 -99c59 0 102 43 102 99c0 57 -43 101 -103 101
c-56 0 -100 -45 -100 -101z" />
    <glyph glyph-name="guillemotright" unicode="&#xbb;" horiz-adv-x="482" 
d="M61 416l47 33l140 -209l-140 -209l-47 33l115 176zM243 416l47 33l140 -209l-140 -209l-47 33l115 176z" />
    <glyph glyph-name="onequarter" unicode="&#xbc;" horiz-adv-x="834" 
d="M153 0l451 740l51 -31l-450 -741zM64 625l117 89h54v-425h-60v365l-82 -67zM637 425h73v-277h60v-54h-60v-94h-60v94h-192v62zM650 365h-2l-136 -217h138v217z" />
    <glyph glyph-name="onehalf" unicode="&#xbd;" horiz-adv-x="834" 
d="M128 0l451 740l51 -31l-450 -741zM39 625l117 89h54v-425h-60v365l-82 -67zM652 431c84 0 139 -45 139 -110c0 -21 -6 -43 -18 -66c-13 -23 -39 -52 -78 -87l-127 -114h227v-54h-293v57l185 177c29 27 44 55 44 83c0 31 -37 60 -76 60c-41 0 -77 -23 -88 -56l-56 9
c12 63 66 101 141 101z" />
    <glyph glyph-name="threequarters" unicode="&#xbe;" horiz-adv-x="834" 
d="M193 0l451 740l51 -31l-450 -741zM190 720c79 0 133 -45 133 -110c0 -44 -31 -84 -82 -99v-2c61 -12 95 -51 95 -104c0 -72 -62 -122 -147 -122c-72 0 -120 29 -145 86l51 30c16 -41 49 -62 98 -62c21 0 40 8 57 23s26 30 26 46c0 47 -36 77 -112 77h-25v54h19
c68 0 105 26 105 67c0 36 -31 62 -72 62c-40 0 -59 -10 -86 -46l-47 33c31 45 75 67 132 67zM657 425h73v-277h60v-54h-60v-94h-60v94h-192v62zM670 365h-2l-136 -217h138v217z" />
    <glyph glyph-name="questiondown" unicode="&#xbf;" horiz-adv-x="482" 
d="M198 470c20 21 56 21 77 0c20 -21 20 -55 0 -76c-21 -21 -57 -21 -77 0c-21 21 -21 55 0 76zM206 288h72v-84c0 -35 -26 -77 -79 -125c-57 -52 -83 -90 -83 -138c0 -67 48 -115 117 -115c65 0 114 41 127 109l75 -9c-16 -103 -96 -166 -201 -166c-113 0 -190 68 -190 175
c0 68 22 109 90 168c60 51 72 83 72 136v49z" />
    <glyph glyph-name="Agrave" unicode="&#xc0;" horiz-adv-x="686" 
d="M213 883h91l100 -144h-58zM308 708h70l308 -708h-84l-78 186h-362l-78 -186h-84zM343 624l-154 -372h307z" />
    <glyph glyph-name="Aacute" unicode="&#xc1;" horiz-adv-x="686" 
d="M382 883h91l-132 -144h-59zM308 708h70l308 -708h-84l-78 186h-362l-78 -186h-84zM343 624l-154 -372h307z" />
    <glyph glyph-name="Acircumflex" unicode="&#xc2;" horiz-adv-x="686" 
d="M303 883h80l109 -144h-66l-83 108l-83 -108h-66zM308 708h70l308 -708h-84l-78 186h-362l-78 -186h-84zM343 624l-154 -372h307z" />
    <glyph glyph-name="Atilde" unicode="&#xc3;" horiz-adv-x="686" 
d="M462 859h43c-11 -69 -42 -104 -92 -104c-16 0 -40 8 -72 23s-55 23 -68 23c-24 0 -40 -17 -49 -50h-43c11 69 42 104 92 104c17 0 41 -8 73 -23s54 -23 67 -23c24 0 40 17 49 50zM308 708h70l308 -708h-84l-78 186h-362l-78 -186h-84zM343 624l-154 -372h307z" />
    <glyph glyph-name="Adieresis" unicode="&#xc4;" horiz-adv-x="686" 
d="M247 873c46 0 67 -56 37 -87c-30 -33 -92 -8 -88 36c0 29 20 51 51 51zM439 873c46 0 67 -56 37 -87c-30 -33 -92 -8 -88 36c0 29 20 51 51 51zM308 708h70l308 -708h-84l-78 186h-362l-78 -186h-84zM343 624l-154 -372h307z" />
    <glyph glyph-name="Aring" unicode="&#xc5;" horiz-adv-x="686" 
d="M276 892c54 62 167 14 163 -67c0 -53 -43 -95 -96 -95s-96 42 -96 95c0 26 10 48 29 67zM301 867c-40 -34 -8 -104 42 -101c33 0 60 27 60 59s-27 59 -60 59c-16 0 -30 -6 -42 -17zM308 708h70l308 -708h-84l-78 186h-362l-78 -186h-84zM343 624l-154 -372h307z" />
    <glyph glyph-name="AE" unicode="&#xc6;" horiz-adv-x="944" 
d="M461 708h416v-66h-294v-241h276v-66h-276v-269h306v-66h-378v198h-298l-128 -198h-85zM511 642h-11l-245 -378h256v378z" />
    <glyph glyph-name="Ccedilla" unicode="&#xc7;" horiz-adv-x="704" 
d="M155 622c71 69 158 104 262 104s186 -37 245 -112l-63 -47c-16 26 -42 48 -78 66s-71 27 -104 27c-87 0 -158 -30 -211 -89c-53 -60 -80 -135 -80 -225c0 -82 28 -152 83 -210c55 -59 124 -88 208 -88c89 0 156 35 203 106l59 -42c-52 -80 -153 -130 -262 -130
c-10 0 -17 0 -21 1l-33 -43l2 -1c15 5 27 7 36 7c44 0 77 -31 77 -75c0 -52 -50 -88 -115 -88c-35 0 -67 8 -96 24l15 36c22 -12 46 -18 73 -18c37 0 63 17 63 45c0 23 -18 40 -49 40c-17 0 -32 -4 -45 -11l-19 17l51 71c-94 15 -169 57 -224 126c-56 68 -84 150 -84 247
c0 105 36 192 107 262z" />
    <glyph glyph-name="Egrave" unicode="&#xc8;" horiz-adv-x="593" 
d="M167 883h91l100 -144h-58zM96 708h439v-66h-367v-241h343v-66h-343v-269h379v-66h-451v708z" />
    <glyph glyph-name="Eacute" unicode="&#xc9;" horiz-adv-x="593" 
d="M336 883h91l-132 -144h-59zM96 708h439v-66h-367v-241h343v-66h-343v-269h379v-66h-451v708z" />
    <glyph glyph-name="Ecircumflex" unicode="&#xca;" horiz-adv-x="593" 
d="M257 883h80l109 -144h-66l-83 108l-83 -108h-66zM96 708h439v-66h-367v-241h343v-66h-343v-269h379v-66h-451v708z" />
    <glyph glyph-name="Edieresis" unicode="&#xcb;" horiz-adv-x="593" 
d="M201 873c46 0 67 -56 37 -87c-30 -33 -92 -8 -88 36c0 29 20 51 51 51zM393 873c46 0 67 -56 37 -87c-30 -33 -92 -8 -88 36c0 29 20 51 51 51zM96 708h439v-66h-367v-241h343v-66h-343v-269h379v-66h-451v708z" />
    <glyph glyph-name="Igrave" unicode="&#xcc;" horiz-adv-x="264" 
d="M2 883h91l100 -144h-58zM96 708h72v-708h-72v708z" />
    <glyph glyph-name="Iacute" unicode="&#xcd;" horiz-adv-x="264" 
d="M171 883h91l-132 -144h-59zM96 708h72v-708h-72v708z" />
    <glyph glyph-name="Icircumflex" unicode="&#xce;" horiz-adv-x="264" 
d="M92 883h80l109 -144h-66l-83 108l-83 -108h-66zM96 708h72v-708h-72v708z" />
    <glyph glyph-name="Idieresis" unicode="&#xcf;" horiz-adv-x="264" 
d="M36 873c46 0 67 -56 37 -87c-30 -33 -92 -8 -88 36c0 29 20 51 51 51zM228 873c46 0 67 -56 37 -87c-30 -33 -92 -8 -88 36c0 29 20 51 51 51zM96 708h72v-708h-72v708z" />
    <glyph glyph-name="Eth" unicode="&#xd0;" horiz-adv-x="741" 
d="M86 708h234c104 0 192 -33 265 -98c72 -65 108 -151 108 -256c2 -212 -174 -359 -373 -354h-234v347h-73v54h73v307zM158 401h258v-54h-258v-281h145c93 0 168 27 226 82c57 54 86 123 86 206c0 84 -29 153 -87 207s-133 81 -225 81h-145v-241z" />
    <glyph glyph-name="Ntilde" unicode="&#xd1;" horiz-adv-x="778" 
d="M508 859h43c-11 -69 -42 -104 -92 -104c-16 0 -40 8 -72 23s-55 23 -68 23c-24 0 -40 -17 -49 -50h-43c11 69 42 104 92 104c17 0 41 -8 73 -23s54 -23 67 -23c24 0 40 17 49 50zM96 708h90l422 -600h2v600h72v-708h-90l-422 606h-2v-606h-72v708z" />
    <glyph glyph-name="Ograve" unicode="&#xd2;" horiz-adv-x="834" 
d="M287 883h91l100 -144h-58zM153 620c70 71 158 106 264 106s194 -35 264 -106s105 -160 105 -266s-35 -194 -105 -265c-71 -71 -159 -107 -264 -107s-193 36 -263 107c-71 71 -106 159 -106 265s35 195 105 266zM208 573c-55 -59 -82 -132 -82 -219s27 -160 82 -218
c55 -59 124 -88 209 -88c86 0 156 29 210 88s81 131 81 218s-27 159 -82 218s-125 88 -210 88c-84 0 -153 -29 -208 -87z" />
    <glyph glyph-name="Oacute" unicode="&#xd3;" horiz-adv-x="834" 
d="M456 883h91l-132 -144h-59zM153 620c70 71 158 106 264 106s194 -35 264 -106s105 -160 105 -266s-35 -194 -105 -265c-71 -71 -159 -107 -264 -107s-193 36 -263 107c-71 71 -106 159 -106 265s35 195 105 266zM208 573c-55 -59 -82 -132 -82 -219s27 -160 82 -218
c55 -59 124 -88 209 -88c86 0 156 29 210 88s81 131 81 218s-27 159 -82 218s-125 88 -210 88c-84 0 -153 -29 -208 -87z" />
    <glyph glyph-name="Ocircumflex" unicode="&#xd4;" horiz-adv-x="834" 
d="M377 883h80l109 -144h-66l-83 108l-83 -108h-66zM153 620c70 71 158 106 264 106s194 -35 264 -106s105 -160 105 -266s-35 -194 -105 -265c-71 -71 -159 -107 -264 -107s-193 36 -263 107c-71 71 -106 159 -106 265s35 195 105 266zM208 573c-55 -59 -82 -132 -82 -219
s27 -160 82 -218c55 -59 124 -88 209 -88c86 0 156 29 210 88s81 131 81 218s-27 159 -82 218s-125 88 -210 88c-84 0 -153 -29 -208 -87z" />
    <glyph glyph-name="Otilde" unicode="&#xd5;" horiz-adv-x="834" 
d="M536 859h43c-11 -69 -42 -104 -92 -104c-16 0 -40 8 -72 23s-55 23 -68 23c-24 0 -40 -17 -49 -50h-43c11 69 42 104 92 104c17 0 41 -8 73 -23s54 -23 67 -23c24 0 40 17 49 50zM153 620c70 71 158 106 264 106s194 -35 264 -106s105 -160 105 -266s-35 -194 -105 -265
c-71 -71 -159 -107 -264 -107s-193 36 -263 107c-71 71 -106 159 -106 265s35 195 105 266zM208 573c-55 -59 -82 -132 -82 -219s27 -160 82 -218c55 -59 124 -88 209 -88c86 0 156 29 210 88s81 131 81 218s-27 159 -82 218s-125 88 -210 88c-84 0 -153 -29 -208 -87z" />
    <glyph glyph-name="Odieresis" unicode="&#xd6;" horiz-adv-x="834" 
d="M321 873c46 0 67 -56 37 -87c-30 -33 -92 -8 -88 36c0 29 20 51 51 51zM513 873c46 0 67 -56 37 -87c-30 -33 -92 -8 -88 36c0 29 20 51 51 51zM153 620c70 71 158 106 264 106s194 -35 264 -106s105 -160 105 -266s-35 -194 -105 -265c-71 -71 -159 -107 -264 -107
s-193 36 -263 107c-71 71 -106 159 -106 265s35 195 105 266zM208 573c-55 -59 -82 -132 -82 -219s27 -160 82 -218c55 -59 124 -88 209 -88c86 0 156 29 210 88s81 131 81 218s-27 159 -82 218s-125 88 -210 88c-84 0 -153 -29 -208 -87z" />
    <glyph glyph-name="multiply" unicode="&#xd7;" horiz-adv-x="666" 
d="M333 346l158 159l43 -42l-159 -160l159 -159l-43 -43l-158 159l-159 -159l-42 43l159 159l-159 160l42 42z" />
    <glyph glyph-name="Oslash" unicode="&#xd8;" horiz-adv-x="834" 
d="M417 726c90 0 169 -27 236 -81l76 81l37 -34l-76 -82c64 -68 96 -153 96 -256c0 -106 -35 -194 -104 -265c-70 -71 -158 -107 -265 -107c-91 0 -169 27 -236 81l-76 -81l-37 34l76 82c-64 68 -96 153 -96 256c0 106 35 195 105 266c69 71 157 106 264 106zM126 354
c0 -78 23 -145 68 -202l411 441c-50 45 -113 67 -189 67c-84 0 -153 -29 -208 -87c-55 -59 -82 -132 -82 -219zM640 556l-411 -441c51 -45 113 -67 188 -67c85 0 154 30 209 89s82 131 82 217c0 78 -23 145 -68 202z" />
    <glyph glyph-name="Ugrave" unicode="&#xd9;" horiz-adv-x="686" 
d="M213 883h91l100 -144h-58zM84 708h72v-441c0 -139 71 -219 187 -219s187 80 187 219v441h72v-448c0 -168 -92 -278 -259 -278s-259 109 -259 278v448z" />
    <glyph glyph-name="Uacute" unicode="&#xda;" horiz-adv-x="686" 
d="M382 883h91l-132 -144h-59zM84 708h72v-441c0 -139 71 -219 187 -219s187 80 187 219v441h72v-448c0 -168 -92 -278 -259 -278s-259 109 -259 278v448z" />
    <glyph glyph-name="Ucircumflex" unicode="&#xdb;" horiz-adv-x="686" 
d="M303 883h80l109 -144h-66l-83 108l-83 -108h-66zM84 708h72v-441c0 -139 71 -219 187 -219s187 80 187 219v441h72v-448c0 -168 -92 -278 -259 -278s-259 109 -259 278v448z" />
    <glyph glyph-name="Udieresis" unicode="&#xdc;" horiz-adv-x="686" 
d="M247 873c46 0 67 -56 37 -87c-30 -33 -92 -8 -88 36c0 29 20 51 51 51zM439 873c46 0 67 -56 37 -87c-30 -33 -92 -8 -88 36c0 29 20 51 51 51zM84 708h72v-441c0 -139 71 -219 187 -219s187 80 187 219v441h72v-448c0 -168 -92 -278 -259 -278s-259 109 -259 278v448z
" />
    <glyph glyph-name="Yacute" unicode="&#xdd;" horiz-adv-x="574" 
d="M326 883h91l-132 -144h-59zM-14 708h90l211 -334l211 334h90l-265 -403v-305h-72v305z" />
    <glyph glyph-name="Thorn" unicode="&#xde;" horiz-adv-x="574" 
d="M96 708h72v-156h164c121 0 203 -70 203 -189s-81 -190 -205 -190h-162v-173h-72v708zM168 239h121c120 0 168 39 168 124s-51 123 -168 123h-121v-247z" />
    <glyph glyph-name="germandbls" unicode="&#xdf;" horiz-adv-x="593" 
d="M294 768c57 0 103 -16 139 -49c35 -33 53 -76 53 -128c0 -79 -39 -132 -116 -159v-2c105 -8 171 -91 171 -207c0 -69 -21 -125 -64 -169s-101 -66 -172 -66c-19 0 -39 3 -59 8v57c13 -3 29 -5 48 -5c108 0 175 65 175 176c0 117 -67 175 -201 175v60c95 0 146 46 146 123
c0 75 -51 126 -123 126c-87 0 -141 -67 -141 -155v-553h-66v548c0 139 73 220 210 220z" />
    <glyph glyph-name="agrave" unicode="&#xe0;" horiz-adv-x="519" 
d="M130 708h91l100 -144h-59zM266 480c105 0 172 -64 172 -163v-217c0 -28 3 -61 8 -100h-64c-4 21 -6 47 -6 76h-2c-37 -59 -92 -88 -165 -88c-95 0 -161 54 -161 137c0 111 86 162 294 162h30v10c0 84 -39 123 -120 123c-55 0 -102 -18 -143 -55l-40 47
c44 45 110 68 197 68zM120 134c0 -52 45 -86 110 -86c88 0 142 55 142 160v25h-46c-128 0 -206 -34 -206 -99z" />
    <glyph glyph-name="aacute" unicode="&#xe1;" horiz-adv-x="519" 
d="M299 708h91l-132 -144h-59zM266 480c105 0 172 -64 172 -163v-217c0 -28 3 -61 8 -100h-64c-4 21 -6 47 -6 76h-2c-37 -59 -92 -88 -165 -88c-95 0 -161 54 -161 137c0 111 86 162 294 162h30v10c0 84 -39 123 -120 123c-55 0 -102 -18 -143 -55l-40 47
c44 45 110 68 197 68zM120 134c0 -52 45 -86 110 -86c88 0 142 55 142 160v25h-46c-128 0 -206 -34 -206 -99z" />
    <glyph glyph-name="acircumflex" unicode="&#xe2;" horiz-adv-x="519" 
d="M220 708h80l109 -144h-66l-83 108l-82 -108h-67zM266 480c105 0 172 -64 172 -163v-217c0 -28 3 -61 8 -100h-64c-4 21 -6 47 -6 76h-2c-37 -59 -92 -88 -165 -88c-95 0 -161 54 -161 137c0 111 86 162 294 162h30v10c0 84 -39 123 -120 123c-55 0 -102 -18 -143 -55
l-40 47c44 45 110 68 197 68zM120 134c0 -52 45 -86 110 -86c88 0 142 55 142 160v25h-46c-128 0 -206 -34 -206 -99z" />
    <glyph glyph-name="atilde" unicode="&#xe3;" horiz-adv-x="519" 
d="M379 684h43c-12 -69 -43 -104 -92 -104c-15 0 -39 8 -72 23s-55 23 -68 23c-25 0 -42 -17 -49 -50h-43c12 69 43 104 92 104c16 0 40 -8 73 -23s55 -23 67 -23c24 0 40 17 49 50zM266 480c105 0 172 -64 172 -163v-217c0 -28 3 -61 8 -100h-64c-4 21 -6 47 -6 76h-2
c-37 -59 -92 -88 -165 -88c-95 0 -161 54 -161 137c0 111 86 162 294 162h30v10c0 84 -39 123 -120 123c-55 0 -102 -18 -143 -55l-40 47c44 45 110 68 197 68zM120 134c0 -52 45 -86 110 -86c88 0 142 55 142 160v25h-46c-128 0 -206 -34 -206 -99z" />
    <glyph glyph-name="adieresis" unicode="&#xe4;" horiz-adv-x="519" 
d="M128 683c20 20 52 20 72 0s20 -52 0 -72s-52 -20 -72 0s-20 52 0 72zM320 683c20 20 52 20 72 0s20 -52 0 -72s-52 -20 -72 0s-20 52 0 72zM266 480c105 0 172 -64 172 -163v-217c0 -28 3 -61 8 -100h-64c-4 21 -6 47 -6 76h-2c-37 -59 -92 -88 -165 -88
c-95 0 -161 54 -161 137c0 111 86 162 294 162h30v10c0 84 -39 123 -120 123c-55 0 -102 -18 -143 -55l-40 47c44 45 110 68 197 68zM120 134c0 -52 45 -86 110 -86c88 0 142 55 142 160v25h-46c-128 0 -206 -34 -206 -99z" />
    <glyph glyph-name="aring" unicode="&#xe5;" horiz-adv-x="519" 
d="M193 717c38 37 97 37 135 0s38 -97 0 -134s-97 -37 -135 0s-38 97 0 134zM218 692c-40 -34 -8 -104 42 -101c33 0 60 27 60 59s-27 59 -60 59c-16 0 -30 -6 -42 -17zM266 480c105 0 172 -64 172 -163v-217c0 -28 3 -61 8 -100h-64c-4 21 -6 47 -6 76h-2
c-37 -59 -92 -88 -165 -88c-95 0 -161 54 -161 137c0 111 86 162 294 162h30v10c0 84 -39 123 -120 123c-55 0 -102 -18 -143 -55l-40 47c44 45 110 68 197 68zM120 134c0 -52 45 -86 110 -86c88 0 142 55 142 160v25h-46c-128 0 -206 -34 -206 -99z" />
    <glyph glyph-name="ae" unicode="&#xe6;" horiz-adv-x="852" 
d="M270 480c69 0 132 -37 155 -90c31 55 99 90 166 90c129 0 213 -87 213 -239v-25h-351v-6c0 -96 57 -162 137 -162c61 0 110 25 146 76l52 -41c-50 -63 -115 -95 -196 -95c-77 0 -144 41 -175 109c-44 -75 -106 -109 -207 -109c-96 0 -162 54 -162 137
c0 97 76 145 227 145h112v25c0 79 -56 125 -121 125c-55 0 -102 -19 -141 -56l-41 48c47 45 109 68 186 68zM453 270h285c0 91 -59 150 -144 150c-39 0 -73 -14 -100 -43s-41 -64 -41 -107zM120 134c0 -52 45 -86 110 -86c93 0 157 65 157 161v7h-136
c-79 0 -131 -31 -131 -82z" />
    <glyph glyph-name="ccedilla" unicode="&#xe7;" horiz-adv-x="482" 
d="M292 480c71 0 129 -27 175 -81l-54 -41c-29 41 -68 62 -119 62c-105 0 -174 -75 -174 -186c0 -55 16 -99 48 -134c31 -35 73 -52 124 -52c53 0 93 21 121 62l54 -41c-37 -48 -106 -81 -169 -81c-5 0 -8 0 -9 1l-37 -49l2 -1c14 5 26 7 36 7c44 0 77 -31 77 -75
c0 -52 -50 -88 -115 -88c-36 0 -68 8 -97 24l16 36c23 -12 48 -18 74 -18c36 0 62 17 62 45c0 37 -46 51 -95 29l-18 17l56 76c-62 9 -111 35 -147 80c-37 45 -55 99 -55 162c0 72 23 131 68 177s103 69 176 69z" />
    <glyph glyph-name="egrave" unicode="&#xe8;" horiz-adv-x="556" 
d="M148 708h91l100 -144h-59zM116 410c45 47 101 70 167 70s120 -21 162 -64s63 -103 63 -180v-20h-390c5 -49 23 -89 56 -120c33 -32 71 -48 116 -48c60 0 118 30 150 81l51 -42c-53 -66 -120 -99 -201 -99c-70 0 -128 24 -173 71c-46 47 -69 105 -69 175s23 129 68 176z
M120 270h316c0 91 -60 150 -152 150c-41 0 -79 -15 -112 -44c-34 -30 -51 -65 -52 -106z" />
    <glyph glyph-name="eacute" unicode="&#xe9;" horiz-adv-x="556" 
d="M317 708h91l-132 -144h-59zM116 410c45 47 101 70 167 70s120 -21 162 -64s63 -103 63 -180v-20h-390c5 -49 23 -89 56 -120c33 -32 71 -48 116 -48c60 0 118 30 150 81l51 -42c-53 -66 -120 -99 -201 -99c-70 0 -128 24 -173 71c-46 47 -69 105 -69 175s23 129 68 176z
M120 270h316c0 91 -60 150 -152 150c-41 0 -79 -15 -112 -44c-34 -30 -51 -65 -52 -106z" />
    <glyph glyph-name="ecircumflex" unicode="&#xea;" horiz-adv-x="556" 
d="M238 708h80l109 -144h-66l-83 108l-82 -108h-67zM116 410c45 47 101 70 167 70s120 -21 162 -64s63 -103 63 -180v-20h-390c5 -49 23 -89 56 -120c33 -32 71 -48 116 -48c60 0 118 30 150 81l51 -42c-53 -66 -120 -99 -201 -99c-70 0 -128 24 -173 71
c-46 47 -69 105 -69 175s23 129 68 176zM120 270h316c0 91 -60 150 -152 150c-41 0 -79 -15 -112 -44c-34 -30 -51 -65 -52 -106z" />
    <glyph glyph-name="edieresis" unicode="&#xeb;" horiz-adv-x="556" 
d="M146 683c20 20 52 20 72 0s20 -52 0 -72s-52 -20 -72 0s-20 52 0 72zM338 683c20 20 52 20 72 0s20 -52 0 -72s-52 -20 -72 0s-20 52 0 72zM116 410c45 47 101 70 167 70s120 -21 162 -64s63 -103 63 -180v-20h-390c5 -49 23 -89 56 -120c33 -32 71 -48 116 -48
c60 0 118 30 150 81l51 -42c-53 -66 -120 -99 -201 -99c-70 0 -128 24 -173 71c-46 47 -69 105 -69 175s23 129 68 176zM120 270h316c0 91 -60 150 -152 150c-41 0 -79 -15 -112 -44c-34 -30 -51 -65 -52 -106z" />
    <glyph glyph-name="igrave" unicode="&#xec;" horiz-adv-x="240" 
d="M-10 708h91l100 -144h-59zM87 468h66v-468h-66v468z" />
    <glyph glyph-name="iacute" unicode="&#xed;" horiz-adv-x="240" 
d="M159 708h91l-132 -144h-59zM87 468h66v-468h-66v468z" />
    <glyph glyph-name="icircumflex" unicode="&#xee;" horiz-adv-x="240" 
d="M80 708h80l109 -144h-66l-83 108l-82 -108h-67zM87 468h66v-468h-66v468z" />
    <glyph glyph-name="idieresis" unicode="&#xef;" horiz-adv-x="240" 
d="M-12 683c20 20 52 20 72 0s20 -52 0 -72s-52 -20 -72 0s-20 52 0 72zM180 683c20 20 52 20 72 0s20 -52 0 -72s-52 -20 -72 0s-20 52 0 72zM87 468h66v-468h-66v468z" />
    <glyph glyph-name="eth" unicode="&#xf0;" horiz-adv-x="593" 
d="M156 742l60 37c43 -34 75 -62 97 -83l102 53l40 -35l-103 -54c135 -135 193 -257 193 -401c0 -167 -92 -271 -249 -271c-72 0 -131 23 -178 70s-70 105 -70 176s24 129 71 176s106 70 177 70c54 0 104 -19 150 -58l2 1c-43 81 -96 150 -159 205l-110 -57l-36 36l108 56
c-33 31 -64 58 -95 79zM169 368c-33 -35 -49 -79 -49 -134s17 -99 50 -134s75 -52 126 -52c52 0 95 18 128 53s49 79 49 133s-16 99 -49 134s-76 52 -129 52c-51 0 -93 -17 -126 -52z" />
    <glyph glyph-name="ntilde" unicode="&#xf1;" horiz-adv-x="556" 
d="M397 684h43c-12 -69 -43 -104 -92 -104c-15 0 -39 8 -72 23s-55 23 -68 23c-25 0 -42 -17 -49 -50h-43c12 69 43 104 92 104c16 0 40 -8 73 -23s55 -23 67 -23c24 0 40 17 49 50zM297 480c115 0 176 -64 176 -179v-301h-66v264c0 107 -38 156 -123 156
c-39 0 -73 -15 -102 -45s-44 -76 -44 -139v-236h-66v369l-5 99h68c2 -17 3 -42 3 -75h2c29 51 94 87 157 87z" />
    <glyph glyph-name="ograve" unicode="&#xf2;" horiz-adv-x="593" 
d="M167 708h91l100 -144h-59zM296 480c71 0 130 -23 178 -68c47 -46 71 -105 71 -178c0 -71 -23 -129 -70 -176s-107 -70 -179 -70c-71 0 -130 23 -177 70s-71 105 -71 176s24 129 71 176s106 70 177 70zM169 368c-33 -35 -49 -79 -49 -134s17 -99 50 -134s75 -52 126 -52
c53 0 95 18 128 53s49 79 49 133s-16 99 -49 134s-76 52 -129 52c-51 0 -93 -17 -126 -52z" />
    <glyph glyph-name="oacute" unicode="&#xf3;" horiz-adv-x="593" 
d="M336 708h91l-132 -144h-59zM296 480c71 0 130 -23 178 -68c47 -46 71 -105 71 -178c0 -71 -23 -129 -70 -176s-107 -70 -179 -70c-71 0 -130 23 -177 70s-71 105 -71 176s24 129 71 176s106 70 177 70zM169 368c-33 -35 -49 -79 -49 -134s17 -99 50 -134s75 -52 126 -52
c53 0 95 18 128 53s49 79 49 133s-16 99 -49 134s-76 52 -129 52c-51 0 -93 -17 -126 -52z" />
    <glyph glyph-name="ocircumflex" unicode="&#xf4;" horiz-adv-x="593" 
d="M257 708h80l109 -144h-66l-83 108l-82 -108h-67zM296 480c71 0 130 -23 178 -68c47 -46 71 -105 71 -178c0 -71 -23 -129 -70 -176s-107 -70 -179 -70c-71 0 -130 23 -177 70s-71 105 -71 176s24 129 71 176s106 70 177 70zM169 368c-33 -35 -49 -79 -49 -134
s17 -99 50 -134s75 -52 126 -52c53 0 95 18 128 53s49 79 49 133s-16 99 -49 134s-76 52 -129 52c-51 0 -93 -17 -126 -52z" />
    <glyph glyph-name="otilde" unicode="&#xf5;" horiz-adv-x="593" 
d="M416 684h43c-12 -69 -43 -104 -92 -104c-15 0 -39 8 -72 23s-55 23 -68 23c-25 0 -42 -17 -49 -50h-43c12 69 43 104 92 104c16 0 40 -8 73 -23s55 -23 67 -23c25 0 41 17 49 50zM296 480c71 0 130 -23 178 -68c47 -46 71 -105 71 -178c0 -71 -23 -129 -70 -176
s-107 -70 -179 -70c-71 0 -130 23 -177 70s-71 105 -71 176s24 129 71 176s106 70 177 70zM169 368c-33 -35 -49 -79 -49 -134s17 -99 50 -134s75 -52 126 -52c53 0 95 18 128 53s49 79 49 133s-16 99 -49 134s-76 52 -129 52c-51 0 -93 -17 -126 -52z" />
    <glyph glyph-name="odieresis" unicode="&#xf6;" horiz-adv-x="593" 
d="M165 683c20 20 52 20 72 0s20 -52 0 -72s-52 -20 -72 0s-20 52 0 72zM357 683c20 20 52 20 72 0s20 -52 0 -72s-52 -20 -72 0s-20 52 0 72zM296 480c71 0 130 -23 178 -68c47 -46 71 -105 71 -178c0 -71 -23 -129 -70 -176s-107 -70 -179 -70c-71 0 -130 23 -177 70
s-71 105 -71 176s24 129 71 176s106 70 177 70zM169 368c-33 -35 -49 -79 -49 -134s17 -99 50 -134s75 -52 126 -52c53 0 95 18 128 53s49 79 49 133s-16 99 -49 134s-76 52 -129 52c-51 0 -93 -17 -126 -52z" />
    <glyph glyph-name="divide" unicode="&#xf7;" horiz-adv-x="666" 
d="M295 503c20 21 56 21 77 0c20 -21 20 -55 0 -76c-21 -21 -57 -21 -77 0c-21 21 -21 55 0 76zM78 333h510v-60h-510v60zM295 179c20 21 56 21 77 0c20 -21 20 -55 0 -76c-21 -21 -57 -21 -77 0c-21 21 -21 55 0 76z" />
    <glyph glyph-name="oslash" unicode="&#xf8;" horiz-adv-x="593" 
d="M455 428l66 68l32 -31l-66 -68c39 -44 58 -98 58 -163c0 -70 -24 -128 -71 -175c-48 -47 -107 -71 -178 -71c-61 0 -114 17 -157 52l-67 -68l-32 31l66 68c-39 45 -58 99 -58 163c0 71 24 129 71 176s106 70 177 70c61 0 114 -17 159 -52zM120 234c0 -45 11 -83 34 -114
l255 261c-31 26 -69 39 -114 39c-51 0 -93 -17 -126 -52s-49 -79 -49 -134zM439 348l-255 -262c31 -25 68 -38 112 -38c52 0 95 18 128 53s49 79 49 133c0 45 -11 83 -34 114z" />
    <glyph glyph-name="ugrave" unicode="&#xf9;" horiz-adv-x="556" 
d="M148 708h91l100 -144h-59zM72 468h66v-264c0 -108 38 -156 126 -156c39 0 73 16 101 48c28 31 42 74 42 128v244h66v-369c0 -33 2 -66 5 -99h-68c-2 13 -3 26 -3 38v37h-2c-31 -52 -96 -87 -157 -87c-117 0 -176 67 -176 179v301z" />
    <glyph glyph-name="uacute" unicode="&#xfa;" horiz-adv-x="556" 
d="M317 708h91l-132 -144h-59zM72 468h66v-264c0 -108 38 -156 126 -156c39 0 73 16 101 48c28 31 42 74 42 128v244h66v-369c0 -33 2 -66 5 -99h-68c-2 13 -3 26 -3 38v37h-2c-31 -52 -96 -87 -157 -87c-117 0 -176 67 -176 179v301z" />
    <glyph glyph-name="ucircumflex" unicode="&#xfb;" horiz-adv-x="556" 
d="M238 708h80l109 -144h-66l-83 108l-82 -108h-67zM72 468h66v-264c0 -108 38 -156 126 -156c39 0 73 16 101 48c28 31 42 74 42 128v244h66v-369c0 -33 2 -66 5 -99h-68c-2 13 -3 26 -3 38v37h-2c-31 -52 -96 -87 -157 -87c-117 0 -176 67 -176 179v301z" />
    <glyph glyph-name="udieresis" unicode="&#xfc;" horiz-adv-x="556" 
d="M146 683c20 20 52 20 72 0s20 -52 0 -72s-52 -20 -72 0s-20 52 0 72zM338 683c20 20 52 20 72 0s20 -52 0 -72s-52 -20 -72 0s-20 52 0 72zM72 468h66v-264c0 -108 38 -156 126 -156c39 0 73 16 101 48c28 31 42 74 42 128v244h66v-369c0 -33 2 -66 5 -99h-68
c-2 13 -3 26 -3 38v37h-2c-31 -52 -96 -87 -157 -87c-117 0 -176 67 -176 179v301z" />
    <glyph glyph-name="yacute" unicode="&#xfd;" horiz-adv-x="482" 
d="M280 708h91l-132 -144h-59zM16 468h83l147 -387l143 387h80l-228 -576c-40 -104 -83 -132 -154 -132c-21 0 -41 2 -60 7l7 64c15 -7 31 -11 50 -11c39 0 67 24 85 72l39 102z" />
    <glyph glyph-name="thorn" unicode="&#xfe;" horiz-adv-x="611" 
d="M72 756h66v-375h2c47 66 108 99 182 99c72 0 132 -23 179 -70s70 -105 70 -176s-23 -129 -70 -176s-107 -70 -179 -70s-143 34 -182 90h-2v-306h-66v984zM135 234c0 -55 18 -99 53 -134s79 -52 134 -52c52 0 95 17 128 52s49 79 49 134c0 54 -17 99 -50 134
s-76 52 -128 52s-96 -18 -132 -53c-36 -36 -54 -80 -54 -133z" />
    <glyph glyph-name="ydieresis" unicode="&#xff;" horiz-adv-x="482" 
d="M109 683c20 20 52 20 72 0s20 -52 0 -72s-52 -20 -72 0s-20 52 0 72zM301 683c20 20 52 20 72 0s20 -52 0 -72s-52 -20 -72 0s-20 52 0 72zM16 468h83l147 -387l143 387h80l-228 -576c-40 -104 -83 -132 -154 -132c-21 0 -41 2 -60 7l7 64c15 -7 31 -11 50 -11
c39 0 67 24 85 72l39 102z" />
    <glyph glyph-name="dotlessi" unicode="&#x131;" horiz-adv-x="240" 
d="M87 468h66v-468h-66v468z" />
    <glyph glyph-name="Lslash" unicode="&#x141;" horiz-adv-x="500" 
d="M96 708h72v-346l216 186v-70l-216 -186v-226h330v-66h-402v230l-82 -70v70l82 70v408z" />
    <glyph glyph-name="lslash" unicode="&#x142;" horiz-adv-x="240" 
d="M87 756h66v-298l81 84v-73l-81 -83v-386h-66v317l-81 -83v73l81 82v367z" />
    <glyph glyph-name="OE" unicode="&#x152;" horiz-adv-x="944" 
d="M452 708h434v-66h-294v-241h282v-66h-282v-269h306v-66h-453c-115 0 -207 34 -277 103c-70 68 -105 152 -105 252c0 107 37 192 112 257c74 64 166 96 277 96zM141 353c0 -81 27 -149 81 -204s129 -83 224 -83h74v576h-65c-91 0 -166 -26 -225 -78s-89 -122 -89 -211z
" />
    <glyph glyph-name="oe" unicode="&#x153;" horiz-adv-x="922" 
d="M285 480c87 0 159 -38 198 -105c51 75 103 105 178 105c129 0 213 -85 213 -244v-20h-351v-6c0 -96 58 -162 138 -162c59 0 108 25 145 76l52 -41c-50 -63 -115 -95 -196 -95c-83 0 -149 39 -182 106c-44 -65 -122 -106 -195 -106c-69 0 -126 23 -170 69
c-45 45 -67 104 -67 177c0 69 23 127 68 175c45 47 102 71 169 71zM167 367c-31 -36 -47 -80 -47 -133s16 -97 47 -132c31 -36 71 -54 118 -54c50 0 90 18 121 53c30 35 45 79 45 133s-15 99 -45 134c-31 35 -71 52 -122 52c-47 0 -86 -18 -117 -53zM523 270h285
c0 88 -57 150 -144 150c-39 0 -72 -14 -99 -42c-27 -29 -41 -65 -42 -108z" />
    <glyph glyph-name="Scaron" unicode="&#x160;" horiz-adv-x="556" 
d="M129 883h66l83 -108l83 108h66l-109 -144h-80zM294 726c84 0 151 -29 200 -86l-63 -49c-31 46 -77 69 -137 69c-87 0 -151 -51 -151 -128c0 -64 41 -103 130 -131c33 -11 59 -19 76 -25c17 -7 38 -16 62 -28c23 -13 41 -25 52 -38c23 -26 43 -69 43 -122
c1 -58 -22 -107 -68 -146c-47 -40 -102 -60 -166 -60c-96 0 -170 35 -222 105l65 47c33 -57 87 -86 160 -86c41 0 77 12 108 37c30 24 45 55 45 92c0 69 -38 107 -146 140c-30 9 -53 17 -70 24c-17 6 -36 15 -57 27c-22 11 -38 24 -49 37c-22 26 -41 67 -41 120
c0 61 22 110 65 147c43 36 98 54 164 54z" />
    <glyph glyph-name="scaron" unicode="&#x161;" horiz-adv-x="426" 
d="M64 708h66l83 -108l83 108h66l-109 -144h-80zM223 480c77 0 129 -28 156 -84l-59 -39c-21 42 -55 63 -101 63c-57 0 -97 -27 -97 -70c0 -40 25 -61 108 -78c55 -12 92 -25 111 -38c36 -27 54 -61 54 -102c0 -88 -73 -144 -182 -144c-79 0 -139 30 -180 91l57 39
c31 -47 72 -70 123 -70c64 0 109 30 110 78c1 43 -30 64 -126 84c-98 19 -147 62 -147 129c0 85 70 141 173 141z" />
    <glyph glyph-name="Ydieresis" unicode="&#x178;" horiz-adv-x="574" 
d="M191 873c46 0 67 -56 37 -87c-30 -33 -92 -8 -88 36c0 29 20 51 51 51zM383 873c46 0 67 -56 37 -87c-30 -33 -92 -8 -88 36c0 29 20 51 51 51zM-14 708h90l211 -334l211 334h90l-265 -403v-305h-72v305z" />
    <glyph glyph-name="Zcaron" unicode="&#x17d;" horiz-adv-x="556" 
d="M129 883h66l83 -108l83 108h66l-109 -144h-80zM29 708h498v-60l-413 -582h419v-66h-510v60l414 582h-408v66z" />
    <glyph glyph-name="zcaron" unicode="&#x17e;" horiz-adv-x="426" 
d="M64 708h66l83 -108l83 108h66l-109 -144h-80zM37 468h356v-48l-274 -360h284v-60h-380v48l274 360h-260v60z" />
    <glyph glyph-name="florin" unicode="&#x192;" horiz-adv-x="556" 
d="M423 720c35 0 66 -10 95 -29l-34 -48c-21 11 -40 17 -57 17c-47 0 -77 -36 -89 -108l-23 -133h108v-54h-119l-67 -352c-19 -101 -70 -152 -154 -152c-33 0 -60 8 -83 24l32 48c16 -8 33 -12 52 -12c47 0 71 24 86 107l63 337h-108v54h119l27 145c19 104 70 156 152 156z
" />
    <glyph glyph-name="circumflex" unicode="&#x2c6;" horiz-adv-x="240" 
d="M80 708h80l109 -144h-66l-83 108l-82 -108h-67z" />
    <glyph glyph-name="caron" unicode="&#x2c7;" horiz-adv-x="240" 
d="M-29 708h66l83 -108l83 108h66l-109 -144h-80z" />
    <glyph glyph-name="uni02C9" unicode="&#x2c9;" horiz-adv-x="240" 
d="M-15 654h270v-54h-270v54z" />
    <glyph glyph-name="breve" unicode="&#x2d8;" horiz-adv-x="240" 
d="M-27 708h44c9 -49 48 -78 103 -78s95 30 103 78h44c-5 -83 -62 -132 -147 -132s-142 49 -147 132z" />
    <glyph glyph-name="dotaccent" unicode="&#x2d9;" horiz-adv-x="240" 
d="M84 693c29 33 91 7 87 -36c0 -29 -20 -51 -51 -51c-46 0 -67 56 -36 87z" />
    <glyph glyph-name="ring" unicode="&#x2da;" horiz-adv-x="240" 
d="M53 717c38 37 97 37 135 0s38 -97 0 -134s-97 -37 -135 0s-38 97 0 134zM78 692c-40 -34 -8 -104 42 -101c33 0 60 27 60 59s-27 59 -60 59c-16 0 -30 -6 -42 -17z" />
    <glyph glyph-name="ogonek" unicode="&#x2db;" horiz-adv-x="240" 
d="M119 6h48c-59 -59 -77 -86 -77 -121c0 -28 22 -48 50 -48c22 0 39 7 51 22l19 -40c-24 -24 -54 -36 -90 -36c-49 0 -90 37 -90 85c0 47 30 93 89 138z" />
    <glyph glyph-name="tilde" unicode="&#x2dc;" horiz-adv-x="240" 
d="M239 684h43c-12 -69 -43 -104 -92 -104c-15 0 -39 8 -72 23s-55 23 -68 23c-25 0 -42 -17 -49 -50h-43c12 69 43 104 92 104c16 0 40 -8 73 -23s55 -23 67 -23c24 0 40 17 49 50z" />
    <glyph glyph-name="hungarumlaut" unicode="&#x2dd;" horiz-adv-x="240" 
d="M25 708h91l-133 -144h-59zM225 708h91l-132 -144h-59z" />
    <glyph glyph-name="uni0394" unicode="&#x394;" horiz-adv-x="670" 
d="M296 712h74l287 -712h-642zM332 645l-226 -583h455z" />
    <glyph glyph-name="uni0394" unicode="&#x3b4;" horiz-adv-x="670" 
d="M296 712h74l287 -712h-642zM332 645l-226 -583h455z" />
    <glyph glyph-name="uni03A9" unicode="&#x3a9;" horiz-adv-x="744" 
d="M367 721c87 0 161 -29 224 -87c63 -59 94 -131 94 -217c0 -66 -17 -125 -52 -176s-84 -85 -145 -101v-82h197v-58h-251v181c116 21 184 109 184 234c0 70 -24 128 -73 175s-109 70 -179 70s-129 -23 -178 -70s-74 -106 -74 -175c0 -124 68 -214 184 -234v-181h-251v58
h197v82c-61 16 -109 50 -144 102c-35 51 -53 109 -53 174c0 87 32 159 95 218c63 58 138 87 225 87z" />
    <glyph glyph-name="uni03A9" unicode="&#x3c9;" horiz-adv-x="744" 
d="M367 721c87 0 161 -29 224 -87c63 -59 94 -131 94 -217c0 -66 -17 -125 -52 -176s-84 -85 -145 -101v-82h197v-58h-251v181c116 21 184 109 184 234c0 70 -24 128 -73 175s-109 70 -179 70s-129 -23 -178 -70s-74 -106 -74 -175c0 -124 68 -214 184 -234v-181h-251v58
h197v82c-61 16 -109 50 -144 102c-35 51 -53 109 -53 174c0 87 32 159 95 218c63 58 138 87 225 87z" />
    <glyph glyph-name="uni03BC" unicode="&#x3bc;" horiz-adv-x="556" 
d="M72 468h66v-264c0 -112 34 -156 127 -156c85 0 142 73 142 176v244h66v-371c0 -37 2 -69 5 -97h-71v76h-2c-33 -51 -98 -88 -157 -88c-45 0 -81 10 -110 29v-245h-66v696z" />
    <glyph glyph-name="pi" unicode="&#x3c0;" horiz-adv-x="563" 
d="M32 468h494v-59h-76v-308c0 -39 10 -51 38 -51c13 0 27 3 42 10v-49c-23 -11 -44 -17 -64 -17c-56 0 -80 25 -80 110v305h-220v-409h-64v409h-70v59z" />
    <glyph glyph-name="uni060C" unicode="&#x60c;" horiz-adv-x="278" 
d="M151 0h-81l81 235h67z" />
    <glyph glyph-name="uni0615" unicode="&#x615;" 
d="M45 700c52 0 84 -38 84 -94c0 -20 -3 -38 -9 -54h-249v36h50v168h35v-105c25 33 55 49 89 49zM43 665c-35 0 -68 -28 -87 -77h137c1 9 2 16 2 19c0 35 -21 58 -52 58z" />
    <glyph glyph-name="uni061B" unicode="&#x61b;" horiz-adv-x="278" 
d="M166 192h-81l81 235h67zM159 10c-21 -21 -57 -21 -77 0c-21 21 -21 55 0 76c20 21 56 21 77 0c20 -21 20 -55 0 -76z" />
    <glyph glyph-name="uni061F" unicode="&#x61f;" horiz-adv-x="482" 
d="M281 192h-72v51c0 51 -27 98 -81 142c-54 43 -81 97 -81 160c0 109 78 175 190 175c107 0 185 -62 201 -166l-75 -9c-12 67 -60 109 -127 109c-69 0 -117 -47 -117 -115c0 -45 27 -90 80 -135c55 -47 82 -90 82 -129v-83zM278 10c-21 -21 -57 -21 -77 0
c-21 21 -21 55 0 76c20 21 56 21 77 0c20 -21 20 -55 0 -76z" />
    <glyph glyph-name="uni0621" unicode="&#x621;" horiz-adv-x="472" 
d="M221 58h201v-58h-366v58h95c-30 37 -45 80 -45 127c0 51 19 94 56 129s83 52 140 52c34 0 67 -5 99 -15l-13 -57c-28 7 -54 11 -77 11c-87 0 -143 -47 -143 -126c0 -40 18 -80 53 -121z" />
    <glyph glyph-name="uni0622" unicode="&#x622;" horiz-adv-x="224" 
d="M173 818c-18 0 -44 4 -78 13s-56 13 -66 13c-16 0 -32 -6 -47 -18l-24 28c25 23 49 34 74 34c12 0 35 -4 68 -13s56 -14 69 -14c17 0 36 8 56 25l27 -25c-19 -29 -46 -43 -79 -43zM145 0h-66v756h66v-756z" />
    <glyph glyph-name="uni0623" unicode="&#x623;" horiz-adv-x="224" 
d="M108 845h88v-35h-162v35h37c-10 16 -15 33 -15 51c0 45 35 75 84 75c13 0 28 -2 47 -6l-7 -34c-10 3 -21 5 -34 5c-48 0 -70 -40 -38 -91zM145 0h-66v756h66v-756z" />
    <glyph glyph-name="uni0624" unicode="&#x624;" horiz-adv-x="496" 
d="M237 584h112v-43h-206v43h49c-13 23 -20 45 -20 68c0 57 42 93 103 93c19 0 40 -2 62 -7l-8 -42c-21 3 -36 5 -45 5c-37 0 -67 -18 -67 -57c0 -17 7 -37 20 -60zM254 414c117 0 183 -76 183 -191v-179c0 -132 -82 -217 -274 -217c-17 0 -32 0 -44 1l-3 60
c167 -9 251 35 254 133c-34 -14 -71 -21 -112 -21c-125 0 -203 74 -203 197c0 61 18 113 54 155c36 41 84 62 145 62zM371 82v118c0 99 -45 150 -121 150c-75 0 -127 -55 -127 -146c0 -93 52 -140 143 -140c37 0 72 6 105 18z" />
    <glyph glyph-name="uni0625" unicode="&#x625;" horiz-adv-x="224" 
d="M79 756h66v-756h-66v756zM104 -215h88v-35h-162v35h38c-10 16 -15 33 -15 51c0 45 34 75 83 75c13 0 28 -2 47 -6l-6 -34c-11 3 -23 5 -35 5c-48 0 -70 -40 -38 -91z" />
    <glyph glyph-name="uni0626" unicode="&#x626;" horiz-adv-x="756" 
d="M167 312h112v-43h-206v43h49c-13 23 -20 45 -20 68c0 57 42 93 103 93c19 0 40 -2 62 -7l-8 -42c-21 3 -36 5 -45 5c-37 0 -67 -18 -67 -57c0 -17 7 -37 20 -60zM443 262c0 -112 248 -108 248 -252c0 -52 -29 -94 -87 -126c-59 -32 -137 -48 -234 -48
c-211 0 -326 69 -326 209c0 38 8 81 23 129l61 -16c-11 -47 -17 -82 -17 -105c0 -108 86 -153 259 -153c160 0 254 42 254 103c0 54 -89 87 -161 127c-49 27 -88 73 -88 129c0 89 74 155 197 155c31 0 67 -5 107 -15l-12 -63c-34 9 -66 14 -97 14c-79 0 -127 -36 -127 -88z
" />
    <glyph glyph-name="uni0627" unicode="&#x627;" horiz-adv-x="224" 
d="M145 0h-66v756h66v-756z" />
    <glyph glyph-name="uni0628" unicode="&#x628;" horiz-adv-x="925" 
d="M800 200v203h66v-230c0 -104 -70 -173 -193 -173h-400c-144 0 -229 72 -229 188c0 47 11 99 32 157l61 -17c-17 -59 -26 -101 -26 -128c0 -91 57 -137 171 -137h384c92 0 134 41 134 137zM440 -89c25 0 43 -17 43 -44c0 -25 -18 -44 -43 -44c-27 0 -45 19 -45 44
c0 27 18 44 45 44z" />
    <glyph glyph-name="uni0629" unicode="&#x629;" horiz-adv-x="509" 
d="M207 545c-16 -17 -46 -17 -62 0c-17 16 -17 46 0 63c16 16 46 16 62 0c16 -17 16 -47 0 -63zM342 545c-16 -17 -46 -17 -62 0c-17 16 -17 46 0 63c16 16 46 16 62 0c16 -17 16 -47 0 -63zM245 -5c-132 0 -205 83 -205 199c0 61 18 113 55 156c36 43 86 64 150 64
s114 -21 151 -64s55 -95 55 -156c0 -120 -79 -199 -206 -199zM247 59c85 0 136 45 136 137c0 46 -12 83 -35 111c-24 28 -58 42 -103 42s-79 -14 -102 -42c-23 -29 -35 -65 -35 -110c0 -93 52 -138 139 -138z" />
    <glyph glyph-name="uni062A" unicode="&#x62a;" horiz-adv-x="925" 
d="M412 444c-16 -17 -46 -17 -62 0c-17 16 -17 46 0 63c16 16 46 16 62 0c16 -17 16 -47 0 -63zM547 444c-16 -17 -46 -17 -62 0c-17 16 -17 46 0 63c16 16 46 16 62 0c16 -17 16 -47 0 -63zM800 200v203h66v-230c0 -104 -70 -173 -193 -173h-400c-144 0 -229 72 -229 188
c0 47 11 99 32 157l61 -17c-17 -59 -26 -101 -26 -128c0 -91 57 -137 171 -137h384c92 0 134 41 134 137z" />
    <glyph glyph-name="uni062B" unicode="&#x62b;" horiz-adv-x="925" 
d="M482 550c-27 -28 -75 -7 -75 31c0 24 19 44 44 44c24 0 43 -20 43 -44c0 -13 -4 -23 -12 -31zM412 446c-16 -17 -46 -17 -62 0c-17 16 -17 46 0 63c16 16 46 16 62 0c16 -17 16 -47 0 -63zM485 446c-17 16 -17 46 0 63c16 16 46 16 62 0c16 -17 16 -47 0 -63
c-16 -17 -46 -17 -62 0zM800 200v203h66v-230c0 -104 -70 -173 -193 -173h-400c-144 0 -229 72 -229 188c0 47 11 99 32 157l61 -17c-17 -59 -26 -101 -26 -128c0 -91 57 -137 171 -137h384c92 0 134 41 134 137z" />
    <glyph glyph-name="uni062C" unicode="&#x62c;" horiz-adv-x="614" 
d="M296 414c167 0 254 -102 254 -265c0 -46 -7 -96 -21 -149h-311c-71 0 -110 -35 -110 -96c0 -65 47 -100 131 -100c21 0 41 2 59 6l13 -61c-23 -6 -50 -9 -80 -9c-113 0 -191 61 -191 164c0 97 67 159 171 159h265c7 27 10 54 10 81c0 125 -69 205 -200 205
c-35 0 -72 -6 -112 -19l-15 60c46 16 92 24 137 24zM291 -50c51 6 51 -85 0 -81c-53 -4 -55 87 0 81z" />
    <glyph glyph-name="uni062D" unicode="&#x62d;" horiz-adv-x="614" 
d="M529 0h-311c-71 0 -110 -35 -110 -96c0 -65 47 -100 131 -100c22 0 52 5 91 14l12 -60c-38 -12 -75 -18 -111 -18c-113 0 -191 61 -191 164c0 97 67 159 171 159h265c7 27 10 54 10 81c0 125 -69 205 -200 205c-35 0 -72 -6 -112 -19l-15 60c46 16 92 24 137 24
c167 0 254 -102 254 -265c0 -46 -7 -96 -21 -149z" />
    <glyph glyph-name="uni062E" unicode="&#x62e;" horiz-adv-x="614" 
d="M296 532c-27 0 -45 17 -45 44c0 25 18 44 45 44c25 0 43 -19 43 -44c0 -27 -18 -44 -43 -44zM529 0h-311c-71 0 -110 -35 -110 -96c0 -65 47 -100 131 -100c22 0 52 5 91 14l12 -60c-38 -12 -75 -18 -111 -18c-113 0 -191 61 -191 164c0 97 67 159 171 159h265
c7 27 10 54 10 81c0 125 -69 205 -200 205c-35 0 -72 -6 -112 -19l-15 60c46 16 92 24 137 24c167 0 254 -102 254 -265c0 -46 -7 -96 -21 -149z" />
    <glyph glyph-name="uni062F" unicode="&#x62f;" horiz-adv-x="509" 
d="M445 0h-405v63h339v20c0 109 -68 208 -203 296l39 54c86 -57 146 -114 180 -171c33 -57 50 -124 50 -199v-63z" />
    <glyph glyph-name="uni0630" unicode="&#x630;" horiz-adv-x="509" 
d="M192 525c-27 0 -45 17 -45 44c0 25 18 44 45 44c25 0 43 -19 43 -44c0 -27 -18 -44 -43 -44zM445 0h-405v63h339v20c0 109 -68 208 -203 296l39 54c86 -57 146 -114 180 -171c33 -57 50 -124 50 -199v-63z" />
    <glyph glyph-name="uni0631" unicode="&#x631;" horiz-adv-x="289" 
d="M9 -172l-13 61c104 17 148 66 148 178v336h66v-322c0 -151 -67 -236 -201 -253z" />
    <glyph glyph-name="uni0632" unicode="&#x632;" horiz-adv-x="289" 
d="M177 521c-27 0 -45 17 -45 44c0 25 18 44 45 44c25 0 43 -19 43 -44c0 -27 -18 -44 -43 -44zM9 -172l-13 61c104 17 148 66 148 178v336h66v-322c0 -151 -67 -236 -201 -253z" />
    <glyph glyph-name="uni0633" unicode="&#x633;" horiz-adv-x="1194" 
d="M1069 200v203h66v-230c0 -109 -64 -173 -173 -173c-67 0 -114 23 -139 69c-27 -47 -76 -71 -146 -71c-49 0 -85 14 -106 41c-16 -132 -116 -203 -265 -203c-168 0 -262 92 -262 228c0 53 14 112 41 177l59 -20c-22 -55 -33 -105 -33 -149c0 -115 73 -172 197 -172
c133 0 199 64 199 193v237h66v-173c0 -63 35 -94 104 -94c72 0 109 35 109 131v136h66v-170c0 -65 36 -97 109 -97c76 0 108 40 108 137z" />
    <glyph glyph-name="uni0634" unicode="&#x634;" horiz-adv-x="1194" 
d="M852 567c-27 -28 -75 -7 -75 31c0 24 19 44 44 44c24 0 43 -20 43 -44c0 -13 -4 -23 -12 -31zM782 463c-16 -17 -46 -17 -62 0c-17 16 -17 46 0 63c16 16 46 16 62 0c16 -17 16 -47 0 -63zM855 463c-17 16 -17 46 0 63c16 16 46 16 62 0c16 -17 16 -47 0 -63
c-16 -17 -46 -17 -62 0zM1069 200v203h66v-230c0 -109 -64 -173 -173 -173c-67 0 -114 23 -139 69c-27 -47 -76 -71 -146 -71c-49 0 -85 14 -106 41c-16 -132 -116 -203 -265 -203c-168 0 -262 92 -262 228c0 53 14 112 41 177l59 -20c-22 -55 -33 -105 -33 -149
c0 -115 73 -172 197 -172c133 0 199 64 199 193v237h66v-173c0 -63 35 -94 104 -94c72 0 109 35 109 131v136h66v-170c0 -65 36 -97 109 -97c76 0 108 40 108 137z" />
    <glyph glyph-name="uni0635" unicode="&#x635;" horiz-adv-x="1330" 
d="M1050 414c140 0 216 -97 216 -245c0 -53 -10 -109 -30 -169h-556c-47 0 -84 11 -110 32c-17 -127 -117 -196 -264 -196c-168 0 -262 92 -262 228c0 53 14 112 41 177l59 -20c-22 -55 -33 -105 -33 -149c0 -115 73 -172 197 -172c133 0 199 64 199 193v237h66v-187
c0 -39 20 -64 61 -75c126 231 265 346 416 346zM704 63h479c11 35 16 69 16 103c0 109 -56 183 -156 183c-118 0 -231 -95 -339 -286z" />
    <glyph glyph-name="uni0636" unicode="&#x636;" horiz-adv-x="1330" 
d="M962 532c-27 0 -45 17 -45 44c0 25 18 44 45 44c25 0 43 -19 43 -44c0 -27 -18 -44 -43 -44zM1050 414c140 0 216 -97 216 -245c0 -53 -10 -109 -30 -169h-556c-47 0 -84 11 -110 32c-17 -127 -117 -196 -264 -196c-168 0 -262 92 -262 228c0 53 14 112 41 177l59 -20
c-22 -55 -33 -105 -33 -149c0 -115 73 -172 197 -172c133 0 199 64 199 193v237h66v-187c0 -39 20 -64 61 -75c126 231 265 346 416 346zM704 63h479c11 35 16 69 16 103c0 109 -56 183 -156 183c-118 0 -231 -95 -339 -286z" />
    <glyph glyph-name="uni0637" unicode="&#x637;" horiz-adv-x="850" 
d="M571 414c69 0 123 -23 160 -69s55 -105 55 -176c0 -54 -10 -110 -29 -169h-713v63h110v693h66v-584c103 159 230 242 351 242zM222 63h482c10 36 15 71 15 106c0 108 -54 180 -154 180c-57 0 -116 -25 -178 -74c-63 -50 -118 -121 -165 -212z" />
    <glyph glyph-name="uni0638" unicode="&#x638;" horiz-adv-x="850" 
d="M571 414c69 0 123 -23 160 -69s55 -105 55 -176c0 -54 -10 -110 -29 -169h-713v63h110v693h66v-584c103 159 230 242 351 242zM501 532c-27 0 -45 17 -45 44c0 25 18 44 45 44c25 0 43 -19 43 -44c0 -27 -18 -44 -43 -44zM222 63h482c10 36 15 71 15 106
c0 108 -54 180 -154 180c-57 0 -116 -25 -178 -74c-63 -50 -118 -121 -165 -212z" />
    <glyph glyph-name="uni0639" unicode="&#x639;" horiz-adv-x="513" 
d="M479 0h-250c-76 0 -121 -35 -121 -94c0 -69 51 -102 134 -102c27 0 56 4 88 12l12 -60c-34 -11 -68 -16 -102 -16c-125 0 -200 60 -200 164c0 83 55 141 143 156c-41 49 -61 103 -61 160s20 104 60 140c39 36 95 54 166 54c35 0 71 -5 108 -15l-13 -63
c-35 9 -67 13 -96 13c-97 0 -156 -52 -156 -133c0 -55 23 -106 68 -153h220v-63z" />
    <glyph glyph-name="uni063A" unicode="&#x63a;" horiz-adv-x="513" 
d="M348 532c-27 0 -45 17 -45 44c0 25 18 44 45 44c25 0 43 -19 43 -44c0 -27 -18 -44 -43 -44zM479 0h-250c-76 0 -121 -35 -121 -94c0 -69 51 -102 134 -102c27 0 56 4 88 12l12 -60c-34 -11 -68 -16 -102 -16c-125 0 -200 60 -200 164c0 83 55 141 143 156
c-41 49 -61 103 -61 160s20 104 60 140c39 36 95 54 166 54c35 0 71 -5 108 -15l-13 -63c-35 9 -67 13 -96 13c-97 0 -156 -52 -156 -133c0 -55 23 -106 68 -153h220v-63z" />
    <glyph glyph-name="uni0640" unicode="&#x640;" horiz-adv-x="52" 
d="M52 0h-52v63h52c13 0 20 -11 20 -32s-7 -31 -20 -31z" />
    <glyph glyph-name="uni0641" unicode="&#x641;" horiz-adv-x="1035" 
d="M786 532c-27 0 -45 17 -45 44c0 25 18 44 45 44c25 0 43 -19 43 -44c0 -27 -18 -44 -43 -44zM786 414c127 0 190 -89 190 -216c0 -61 -15 -127 -44 -198h-659c-144 0 -229 72 -229 188c0 47 11 99 32 157l61 -17c-17 -59 -26 -101 -26 -128c0 -91 57 -137 171 -137h344
c-35 38 -52 85 -52 141c0 61 20 112 59 151s90 59 153 59zM701 63h185c15 47 22 91 22 131c0 96 -43 155 -127 155c-85 0 -139 -59 -139 -147c0 -50 20 -96 59 -139z" />
    <glyph glyph-name="uni0642" unicode="&#x642;" horiz-adv-x="771" 
d="M491 545c-16 -17 -46 -17 -62 0c-17 16 -17 46 0 63c16 16 46 16 62 0c16 -17 16 -47 0 -63zM626 545c-16 -17 -46 -17 -62 0c-17 16 -17 46 0 63c16 16 46 16 62 0c16 -17 16 -47 0 -63zM387 -164c-229 0 -343 77 -343 232c0 41 8 84 23 130l61 -16
c-11 -37 -17 -72 -17 -105c0 -120 84 -177 276 -177c169 0 255 40 258 121c-34 -14 -71 -21 -112 -21c-125 0 -203 74 -203 197c0 61 18 113 54 155c36 41 84 62 145 62c117 0 183 -82 183 -205v-153c0 -149 -101 -220 -325 -220zM542 64c37 0 71 6 104 18v110
c0 105 -40 157 -121 157c-75 0 -127 -54 -127 -145c0 -93 53 -140 144 -140z" />
    <glyph glyph-name="uni0643" unicode="&#x643;" horiz-adv-x="827" 
d="M682 200v556h66v-583c0 -115 -62 -173 -187 -173h-288c-144 0 -229 72 -229 188c0 47 11 99 32 157l61 -17c-17 -59 -26 -101 -26 -128c0 -91 57 -137 171 -137h279c92 0 121 36 121 137zM412 360h95v-42h-197v42h54c-12 18 -18 38 -18 59c0 52 41 93 101 93
c13 0 29 -3 49 -8l-8 -41c-16 4 -29 6 -40 6c-35 0 -59 -18 -59 -53c0 -20 8 -39 23 -56z" />
    <glyph glyph-name="uni0644" unicode="&#x644;" horiz-adv-x="652" 
d="M303 -164c-79 0 -142 21 -189 62s-70 97 -70 166c0 53 14 112 41 177l58 -20c-21 -64 -32 -114 -32 -150c0 -113 69 -171 196 -171c133 0 200 65 200 194v662h66v-678c0 -151 -103 -242 -270 -242z" />
    <glyph glyph-name="uni0645" unicode="&#x645;" horiz-adv-x="637" 
d="M386 414c60 0 107 -20 142 -59c34 -40 51 -90 51 -151c0 -120 -72 -204 -225 -204h-157c-59 0 -93 -33 -93 -96v-164h-64v164c0 100 56 159 156 159h24c-29 46 -43 93 -43 141c0 62 20 113 59 152s89 58 150 58zM295 63h65c103 0 151 58 151 142c0 88 -52 144 -132 144
s-134 -53 -134 -144c0 -42 17 -89 50 -142z" />
    <glyph glyph-name="uni0646" unicode="&#x646;" horiz-adv-x="652" 
d="M318 411c-27 0 -45 17 -45 44c0 25 18 44 45 44c25 0 43 -19 43 -44c0 -27 -18 -44 -43 -44zM306 -164c-168 0 -262 92 -262 228c0 53 14 112 41 177l59 -20c-22 -55 -33 -105 -33 -149c0 -115 73 -172 197 -172c133 0 199 64 199 193v237h66v-254
c0 -155 -103 -240 -267 -240z" />
    <glyph glyph-name="uni0647" unicode="&#x647;" horiz-adv-x="509" 
d="M245 -5c-132 0 -205 83 -205 199c0 61 18 113 55 156c36 43 86 64 150 64s114 -21 151 -64s55 -95 55 -156c0 -120 -79 -199 -206 -199zM247 59c85 0 136 45 136 137c0 46 -12 83 -35 111c-24 28 -58 42 -103 42s-79 -14 -102 -42c-23 -29 -35 -65 -35 -110
c0 -93 52 -138 139 -138z" />
    <glyph glyph-name="uni0648" unicode="&#x648;" horiz-adv-x="496" 
d="M119 -172l-3 60c167 -9 251 35 254 133c-34 -14 -71 -21 -112 -21c-125 0 -203 74 -203 197c0 61 18 113 54 155c36 41 84 62 145 62c117 0 183 -76 183 -191v-179c0 -132 -82 -217 -274 -217c-17 0 -32 0 -44 1zM266 64c37 0 72 6 105 18v118c0 99 -45 150 -121 150
c-75 0 -127 -55 -127 -146c0 -93 52 -140 143 -140z" />
    <glyph glyph-name="uni0649" unicode="&#x649;" horiz-adv-x="756" 
d="M370 -164c-211 0 -326 69 -326 209c0 38 8 81 23 129l61 -16c-11 -47 -17 -82 -17 -105c0 -108 86 -153 259 -153c160 0 254 42 254 103c0 54 -89 87 -161 127c-49 27 -88 73 -88 129c0 89 74 155 197 155c31 0 67 -5 107 -15l-12 -63c-34 9 -66 14 -97 14
c-79 0 -127 -36 -127 -88c0 -112 248 -108 248 -252c0 -52 -29 -94 -87 -126c-59 -32 -137 -48 -234 -48z" />
    <glyph glyph-name="uni064A" unicode="&#x64a;" horiz-adv-x="756" 
d="M370 -164c-211 0 -326 69 -326 209c0 38 8 81 23 129l61 -16c-11 -47 -17 -82 -17 -105c0 -108 86 -153 259 -153c160 0 254 42 254 103c0 54 -89 87 -161 127c-49 27 -88 73 -88 129c0 89 74 155 197 155c31 0 67 -5 107 -15l-12 -63c-34 9 -66 14 -97 14
c-79 0 -127 -36 -127 -88c0 -112 248 -108 248 -252c0 -52 -29 -94 -87 -126c-59 -32 -137 -48 -234 -48zM329 -329c-16 -16 -46 -16 -62 0c-17 17 -17 47 0 63c16 17 46 17 62 0c16 -16 16 -46 0 -63zM464 -329c-16 -16 -46 -16 -62 0c-17 17 -17 47 0 63c16 17 46 17 62 0
c16 -16 16 -46 0 -63z" />
    <glyph glyph-name="uni064B" unicode="&#x64b;" 
d="M111 668l-224 -34l-3 1l5 34l224 34l3 -1zM111 578l-224 -34l-3 1l5 34l224 34l3 -1z" />
    <glyph glyph-name="uni064C" unicode="&#x64c;" 
d="M73 766c37 0 63 -36 63 -89c0 -75 -49 -127 -104 -127c-50 0 -82 72 -104 72c-11 0 -25 -11 -42 -34l-22 21c22 31 44 47 67 47c15 0 33 -12 53 -36c21 -24 37 -36 50 -36c28 0 49 16 62 49c-8 -1 -14 -2 -19 -2c-40 0 -71 20 -71 59c0 40 31 76 67 76zM84 664
c4 0 11 1 20 2v10c0 37 -11 56 -33 56c-20 0 -34 -18 -34 -38s16 -30 47 -30z" />
    <glyph glyph-name="uni064D" unicode="&#x64d;" 
d="M110 -126l-224 -34l-3 1l5 33l224 34l3 -1zM110 -207l-224 -34l-3 1l5 33l224 34l3 -1z" />
    <glyph glyph-name="uni064E" unicode="&#x64e;" 
d="M111 578l-224 -34l-3 1l5 34l224 34l3 -1z" />
    <glyph glyph-name="uni064F" unicode="&#x64f;" 
d="M-29 743c41 49 115 16 110 -66c0 -80 -46 -127 -106 -127c-21 0 -39 5 -56 15l14 30c13 -7 27 -11 42 -11c31 0 53 16 66 49c-8 -1 -14 -2 -18 -2c-41 0 -72 20 -72 59c0 20 7 38 20 53zM29 664c4 0 11 1 20 2v10c0 37 -11 56 -33 56c-21 0 -34 -18 -34 -38
s16 -30 47 -30z" />
    <glyph glyph-name="uni0650" unicode="&#x650;" 
d="M111 -126l-224 -34l-3 1l5 33l224 34l3 -1z" />
    <glyph glyph-name="uni0651" unicode="&#x651;" 
d="M74 675l25 10c10 -17 15 -36 15 -57c0 -40 -22 -68 -61 -68c-19 0 -35 6 -47 18c-11 -19 -28 -28 -53 -28c-41 0 -67 27 -67 64c0 17 4 33 11 48l24 -7c-3 -10 -4 -20 -4 -29c0 -25 12 -38 36 -38c21 0 31 13 31 38c0 9 0 17 -1 22l25 6c4 -14 6 -27 6 -39v-2
c11 -11 23 -16 37 -16c21 0 32 11 32 33c0 12 -3 27 -9 45z" />
    <glyph glyph-name="uni0652" unicode="&#x652;" 
d="M50 566c-12 -12 -29 -18 -50 -18s-38 6 -50 17c-11 11 -17 28 -17 49c0 41 27 80 67 80c20 0 36 -8 49 -24c24 -33 24 -81 1 -104zM-32 616c0 -23 11 -34 32 -34s32 11 32 34c5 56 -69 56 -64 0z" />
    <glyph glyph-name="uni0653" unicode="&#x653;" 
d="M68 551c-18 0 -44 4 -78 13s-56 13 -66 13c-16 0 -32 -6 -47 -18l-24 28c25 23 49 34 74 34c12 0 34 -4 67 -13c34 -9 57 -14 70 -14c17 0 36 8 56 25l27 -25c-19 -29 -46 -43 -79 -43z" />
    <glyph glyph-name="uni0654" unicode="&#x654;" 
d="M-7 578h88v-35h-162v35h37c-10 16 -15 33 -15 51c0 45 35 75 84 75c13 0 28 -2 47 -6l-7 -34c-10 3 -21 5 -34 5c-48 0 -70 -40 -38 -91z" />
    <glyph glyph-name="uni0655" unicode="&#x655;" 
d="M-7 -215h88v-35h-162v35h38c-10 16 -15 33 -15 51c0 45 34 75 83 75c13 0 28 -2 47 -6l-6 -34c-11 3 -23 5 -35 5c-48 0 -70 -40 -38 -91z" />
    <glyph glyph-name="uni0656" unicode="&#x656;" 
d="M-13 -277h-5v175h36v-165z" />
    <glyph glyph-name="uni0658" unicode="&#x658;" 
d="M-62 666l32 -11c-8 -21 -12 -36 -12 -47c0 -26 15 -39 44 -39c27 0 40 16 40 47v51h35v-51c0 -52 -27 -82 -75 -82s-79 27 -79 71c0 19 5 39 15 61z" />
    <glyph glyph-name="uni0660" unicode="&#x660;" horiz-adv-x="540" 
d="M337 294l-67 -67l-68 68l68 65z" />
    <glyph glyph-name="uni0661" unicode="&#x661;" horiz-adv-x="540" 
d="M303 0h-66v653h66v-653z" />
    <glyph glyph-name="uni0662" unicode="&#x662;" horiz-adv-x="540" 
d="M392 649l66 4c11 -161 -40 -235 -168 -235c-42 0 -86 10 -131 30v-448h-66v653h66v-142c46 -21 90 -32 132 -32s71 13 86 40s20 70 15 130z" />
    <glyph glyph-name="uni0663" unicode="&#x663;" horiz-adv-x="540" 
d="M449 648l66 5c12 -144 -33 -219 -126 -219c-35 0 -74 8 -115 25c-21 -17 -47 -25 -78 -25c-29 0 -58 5 -87 16v-450h-66v653h66v-146c25 -9 50 -14 74 -14c61 0 84 47 73 155l66 5c5 -62 0 -111 -15 -147c25 -9 48 -13 69 -13c61 0 84 47 73 155z" />
    <glyph glyph-name="uni0664" unicode="&#x664;" horiz-adv-x="540" 
d="M455 62l3 -60c-44 -5 -85 -8 -124 -8c-163 0 -245 51 -245 154c0 79 54 146 149 186c-67 25 -117 72 -117 139c0 115 104 182 280 182c7 0 15 0 24 -1v-61c-148 8 -236 -36 -236 -121c0 -73 80 -115 219 -99v-62c-167 -15 -251 -79 -251 -152c0 -68 62 -102 187 -102
c32 0 69 2 111 5z" />
    <glyph glyph-name="uni0665" unicode="&#x665;" horiz-adv-x="540" 
d="M429 55c-38 -42 -91 -63 -159 -63s-121 21 -159 63s-57 112 -57 211c0 127 21 224 64 290c43 65 93 98 152 98s110 -33 153 -98c42 -66 63 -163 63 -290c0 -99 -19 -169 -57 -211zM122 268c0 -141 49 -212 148 -212s148 71 148 212c0 99 -15 177 -44 235s-64 87 -104 87
s-75 -29 -104 -87s-44 -136 -44 -235z" />
    <glyph glyph-name="uni0666" unicode="&#x666;" horiz-adv-x="540" 
d="M426 0h-66v591h-312v62h378v-653z" />
    <glyph glyph-name="uni0667" unicode="&#x667;" horiz-adv-x="540" 
d="M270 96l185 563l70 -21l-218 -638h-73l-220 640l70 19z" />
    <glyph glyph-name="uni0668" unicode="&#x668;" horiz-adv-x="540" 
d="M305 651l220 -639l-70 -20l-186 563l-185 -563l-70 21l218 638h73z" />
    <glyph glyph-name="uni0669" unicode="&#x669;" horiz-adv-x="540" 
d="M279 653h156v-653h-66v280c-187 -16 -303 43 -303 176c0 121 82 197 213 197zM134 456c0 -46 22 -79 67 -98c44 -19 100 -25 168 -17v250h-75c-101 0 -160 -48 -160 -135z" />
    <glyph glyph-name="uni066A" unicode="&#x66a;" horiz-adv-x="560" 
d="M216 588l-71 -71l-71 72l71 70zM443 641l-291 -660l-49 18l291 660zM487 70l-71 -70l-71 71l71 70z" />
    <glyph glyph-name="uni066B" unicode="&#x66b;" horiz-adv-x="246" 
d="M113 74h81l-81 -235h-67z" />
    <glyph glyph-name="uni066C" unicode="&#x66c;" horiz-adv-x="207" 
d="M93 129h62l-54 -162h-55z" />
    <glyph glyph-name="uni066D" unicode="&#x66d;" horiz-adv-x="842" 
d="M426 100l-223 -198l-24 20l113 266l-251 150l8 37l299 -37l63 288h30l59 -288l299 37l11 -37l-261 -149l122 -267l-27 -20z" />
    <glyph glyph-name="uni066E" unicode="&#x66e;" horiz-adv-x="925" 
d="M800 200v203h66v-230c0 -104 -70 -173 -193 -173h-400c-144 0 -229 72 -229 188c0 47 11 99 32 157l61 -17c-17 -59 -26 -101 -26 -128c0 -91 57 -137 171 -137h384c92 0 134 41 134 137z" />
    <glyph glyph-name="uni066F" unicode="&#x66f;" horiz-adv-x="771" 
d="M387 -164c-229 0 -343 77 -343 232c0 41 8 84 23 130l61 -16c-11 -37 -17 -72 -17 -105c0 -120 84 -177 276 -177c169 0 255 40 258 121c-34 -14 -71 -21 -112 -21c-125 0 -203 74 -203 197c0 61 18 113 54 155c36 41 84 62 145 62c117 0 183 -82 183 -205v-153
c0 -149 -101 -220 -325 -220zM542 64c37 0 71 6 104 18v110c0 105 -40 157 -121 157c-75 0 -127 -54 -127 -145c0 -93 53 -140 144 -140z" />
    <glyph glyph-name="uni0670" unicode="&#x670;" 
d="M-13 556h-5v175h36v-165z" />
    <glyph glyph-name="uni0671" unicode="&#x671;" horiz-adv-x="224" 
d="M144 950c48 0 77 -33 77 -85c0 -19 -3 -38 -9 -55h-241v35h50v99h35v-45c24 34 53 51 88 51zM141 915c-36 0 -69 -29 -88 -70h132c2 8 3 15 3 21c0 31 -19 49 -47 49zM145 0h-66v756h66v-756z" />
    <glyph glyph-name="uni0679" unicode="&#x679;" horiz-adv-x="925" 
d="M571 489c0 -20 -3 -38 -9 -54h-249v36h50v168h35v-105c25 33 55 49 89 49c52 0 84 -38 84 -94zM485 548c-35 0 -68 -28 -87 -77h137c1 9 2 16 2 19c0 35 -21 58 -52 58zM800 200v203h66v-230c0 -104 -70 -173 -193 -173h-400c-144 0 -229 72 -229 188c0 47 11 99 32 157
l61 -17c-17 -59 -26 -101 -26 -128c0 -91 57 -137 171 -137h384c92 0 134 41 134 137z" />
    <glyph glyph-name="uni067E" unicode="&#x67e;" horiz-adv-x="925" 
d="M800 200v203h66v-230c0 -104 -70 -173 -193 -173h-400c-144 0 -229 72 -229 188c0 47 11 99 32 157l61 -17c-17 -59 -26 -101 -26 -128c0 -91 57 -137 171 -137h384c92 0 134 41 134 137zM413 -133c5 -59 -91 -58 -87 0c-4 56 92 56 87 0zM474 -102c28 27 74 7 74 -31
c0 -39 -47 -61 -74 -32c-17 17 -17 47 0 63zM408 -205c27 29 74 7 74 -32c0 -24 -18 -43 -43 -43s-44 19 -44 43c0 13 4 23 13 32z" />
    <glyph glyph-name="uni0686" unicode="&#x686;" horiz-adv-x="614" 
d="M296 414c167 0 254 -102 254 -265c0 -46 -7 -96 -21 -149h-311c-71 0 -110 -35 -110 -96c0 -65 47 -100 131 -100c21 0 41 2 59 6l13 -61c-23 -6 -50 -9 -80 -9c-113 0 -191 61 -191 164c0 97 67 159 171 159h265c7 27 10 54 10 81c0 125 -69 205 -200 205
c-35 0 -72 -6 -112 -19l-15 60c46 16 92 24 137 24zM273 -65c20 19 52 5 52 -21c0 -28 -32 -43 -52 -23c-12 13 -12 33 0 44zM368 -65c20 19 52 5 52 -21c0 -42 -61 -42 -61 0c0 9 3 16 9 21zM343 -127c19 0 31 -13 31 -32c0 -17 -12 -30 -31 -30c-17 0 -30 13 -30 30
c0 19 13 32 30 32z" />
    <glyph glyph-name="uni0688" unicode="&#x688;" horiz-adv-x="509" 
d="M313 583c0 -20 -3 -38 -9 -54h-249v36h50v168h35v-105c25 33 55 49 89 49c52 0 84 -38 84 -94zM227 642c-35 0 -68 -28 -87 -77h137c1 9 2 16 2 19c0 35 -21 58 -52 58zM176 379l39 54c86 -57 146 -114 180 -171c33 -57 50 -124 50 -199v-63h-405v63h339v20
c0 109 -68 208 -203 296z" />
    <glyph glyph-name="uni0691" unicode="&#x691;" horiz-adv-x="289" 
d="M214 673c52 0 84 -38 84 -94c0 -20 -3 -38 -9 -54h-249v36h50v168h35v-105c25 33 55 49 89 49zM212 638c-35 0 -68 -28 -87 -77h137c1 9 2 16 2 19c0 35 -21 58 -52 58zM144 67v336h66v-322c0 -151 -67 -236 -201 -253l-13 61c104 17 148 66 148 178z" />
    <glyph glyph-name="uni0698" unicode="&#x698;" horiz-adv-x="289" 
d="M209 640c-27 -28 -75 -7 -75 31c0 24 19 44 44 44c24 0 43 -20 43 -44c0 -13 -4 -23 -12 -31zM139 536c-16 -17 -46 -17 -62 0c-17 16 -17 46 0 63c16 16 46 16 62 0c16 -17 16 -47 0 -63zM274 536c-16 -17 -46 -17 -62 0c-17 16 -17 46 0 63c16 16 46 16 62 0
c16 -17 16 -47 0 -63zM9 -172l-13 61c104 17 148 66 148 178v336h66v-322c0 -151 -67 -236 -201 -253z" />
    <glyph glyph-name="uni06A1" unicode="&#x6a1;" horiz-adv-x="1035" 
d="M786 414c127 0 190 -89 190 -216c0 -61 -15 -127 -44 -198h-659c-144 0 -229 72 -229 188c0 47 11 99 32 157l61 -17c-17 -59 -26 -101 -26 -128c0 -91 57 -137 171 -137h344c-35 38 -52 85 -52 141c0 61 20 112 59 151s90 59 153 59zM701 63h185c15 47 22 91 22 131
c0 96 -43 155 -127 155c-85 0 -139 -59 -139 -147c0 -50 20 -96 59 -139z" />
    <glyph glyph-name="uni06A4" unicode="&#x6a4;" horiz-adv-x="1035" 
d="M818 651c-27 -28 -75 -7 -75 31c0 24 19 44 44 44c24 0 43 -20 43 -44c0 -13 -4 -23 -12 -31zM748 547c-16 -17 -46 -17 -62 0c-17 16 -17 46 0 63c16 16 46 16 62 0c16 -17 16 -47 0 -63zM821 547c-17 16 -17 46 0 63c16 16 46 16 62 0c16 -17 16 -47 0 -63
c-16 -17 -46 -17 -62 0zM786 414c127 0 190 -89 190 -216c0 -61 -15 -127 -44 -198h-659c-144 0 -229 72 -229 188c0 47 11 99 32 157l61 -17c-17 -59 -26 -101 -26 -128c0 -91 57 -137 171 -137h344c-35 38 -52 85 -52 141c0 61 20 112 59 151s90 59 153 59zM701 63h185
c15 47 22 91 22 131c0 96 -43 155 -127 155c-85 0 -139 -59 -139 -147c0 -50 20 -96 59 -139z" />
    <glyph glyph-name="uni06A9" unicode="&#x6a9;" horiz-adv-x="849" 
d="M745 697l-259 -251c113 -37 191 -84 234 -140c43 -57 65 -128 65 -213v-93h-512c-144 0 -229 72 -229 188c0 47 11 99 32 157l61 -17c-17 -59 -26 -101 -26 -128c0 -91 57 -137 171 -137h439v41c0 75 -23 135 -68 180s-123 85 -234 119v65l283 273z" />
    <glyph glyph-name="uni06AF" unicode="&#x6af;" horiz-adv-x="849" 
d="M624 821l44 -44l-252 -242l-46 45zM745 697l-259 -251c113 -37 191 -84 234 -140c43 -57 65 -128 65 -213v-93h-512c-144 0 -229 72 -229 188c0 47 11 99 32 157l61 -17c-17 -59 -26 -101 -26 -128c0 -91 57 -137 171 -137h439v41c0 75 -23 135 -68 180s-123 85 -234 119
v65l283 273z" />
    <glyph glyph-name="uni06BA" unicode="&#x6ba;" horiz-adv-x="652" 
d="M306 -164c-168 0 -262 92 -262 228c0 53 14 112 41 177l59 -20c-22 -55 -33 -105 -33 -149c0 -115 73 -172 197 -172c133 0 199 64 199 193v237h66v-254c0 -155 -103 -240 -267 -240z" />
    <glyph glyph-name="uni06BE" unicode="&#x6be;" horiz-adv-x="726" 
d="M179 368l11 58c313 -24 482 -113 482 -316c0 -36 -5 -73 -14 -110h-177c-55 0 -103 7 -142 22c-39 -15 -86 -22 -140 -22c-61 0 -114 10 -159 29l20 59c41 -17 88 -25 139 -25c23 0 44 2 63 5c-47 36 -70 85 -70 147c0 60 31 118 82 146c-41 4 -73 6 -95 7zM252 217
c0 -61 29 -106 86 -133c56 21 97 69 97 134c0 67 -39 112 -91 112c-53 0 -92 -49 -92 -113zM467 63h138c3 19 5 37 5 54c0 92 -48 159 -145 200c20 -31 30 -64 30 -99c0 -64 -33 -120 -80 -152c18 -2 35 -3 52 -3z" />
    <glyph glyph-name="uni06C1" unicode="&#x6c1;" horiz-adv-x="509" 
d="M245 -5c-132 0 -205 83 -205 199c0 61 18 113 55 156c36 43 86 64 150 64s114 -21 151 -64s55 -95 55 -156c0 -120 -79 -199 -206 -199zM247 59c85 0 136 45 136 137c0 46 -12 83 -35 111c-24 28 -58 42 -103 42s-79 -14 -102 -42c-23 -29 -35 -65 -35 -110
c0 -93 52 -138 139 -138z" />
    <glyph glyph-name="uni06C2" unicode="&#x6c2;" horiz-adv-x="509" 
d="M229 584h112v-43h-206v43h49c-13 23 -20 45 -20 68c0 57 42 93 103 93c19 0 40 -2 62 -7l-8 -42c-22 3 -37 5 -45 5c-37 0 -67 -18 -67 -57c0 -17 7 -37 20 -60zM95 350c36 43 86 64 150 64s114 -21 151 -64s55 -95 55 -156c0 -120 -79 -199 -206 -199
c-132 0 -205 83 -205 199c0 61 18 113 55 156zM247 59c85 0 136 45 136 137c0 46 -12 83 -35 111c-24 28 -58 42 -103 42s-79 -14 -102 -42c-23 -29 -35 -65 -35 -110c0 -93 52 -138 139 -138z" />
    <glyph glyph-name="uni06C3" unicode="&#x6c3;" horiz-adv-x="509" 
d="M207 545c-16 -17 -46 -17 -62 0c-17 16 -17 46 0 63c16 16 46 16 62 0c16 -17 16 -47 0 -63zM342 545c-16 -17 -46 -17 -62 0c-17 16 -17 46 0 63c16 16 46 16 62 0c16 -17 16 -47 0 -63zM245 -5c-132 0 -205 83 -205 199c0 61 18 113 55 156c36 43 86 64 150 64
s114 -21 151 -64s55 -95 55 -156c0 -120 -79 -199 -206 -199zM247 59c85 0 136 45 136 137c0 46 -12 83 -35 111c-24 28 -58 42 -103 42s-79 -14 -102 -42c-23 -29 -35 -65 -35 -110c0 -93 52 -138 139 -138z" />
    <glyph glyph-name="uni06CC" unicode="&#x6cc;" horiz-adv-x="756" 
d="M370 -164c-211 0 -326 69 -326 209c0 38 8 81 23 129l61 -16c-11 -47 -17 -82 -17 -105c0 -108 86 -153 259 -153c160 0 254 42 254 103c0 54 -89 87 -161 127c-49 27 -88 73 -88 129c0 89 74 155 197 155c31 0 67 -5 107 -15l-12 -63c-34 9 -66 14 -97 14
c-79 0 -127 -36 -127 -88c0 -112 248 -108 248 -252c0 -52 -29 -94 -87 -126c-59 -32 -137 -48 -234 -48z" />
    <glyph glyph-name="uni06D2" unicode="&#x6d2;" horiz-adv-x="735" 
d="M349 -9c-115 0 -196 11 -243 32s-71 54 -71 101c0 144 198 147 198 251v32h62v-35c0 -61 -50 -111 -99 -135c-49 -25 -99 -63 -99 -106c0 -57 75 -76 268 -76c108 0 230 12 365 35l3 -62c-149 -25 -277 -37 -384 -37z" />
    <glyph glyph-name="uni06D3" unicode="&#x6d3;" horiz-adv-x="735" 
d="M248 576h112v-43h-206v43h49c-13 23 -20 45 -20 68c0 57 42 93 103 93c19 0 40 -2 62 -7l-8 -42c-22 3 -37 5 -45 5c-37 0 -67 -18 -67 -57c0 -17 7 -37 20 -60zM730 90l3 -62c-149 -25 -277 -37 -384 -37c-115 0 -196 11 -243 32s-71 54 -71 101c0 144 198 147 198 251
v32h62v-35c0 -61 -50 -111 -99 -135c-49 -25 -99 -63 -99 -106c0 -57 75 -76 268 -76c108 0 230 12 365 35z" />
    <glyph glyph-name="uni06D4" unicode="&#x6d4;" horiz-adv-x="347" 
d="M30 44l25 53c25 -23 60 -34 107 -34h155v-63h-155c-56 0 -100 15 -132 44z" />
    <glyph glyph-name="uni06D5" unicode="&#x6d5;" horiz-adv-x="509" 
d="M245 -5c-132 0 -205 83 -205 199c0 61 18 113 55 156c36 43 86 64 150 64s114 -21 151 -64s55 -95 55 -156c0 -120 -79 -199 -206 -199zM247 59c85 0 136 45 136 137c0 46 -12 83 -35 111c-24 28 -58 42 -103 42s-79 -14 -102 -42c-23 -29 -35 -65 -35 -110
c0 -93 52 -138 139 -138z" />
    <glyph glyph-name="uni06F0" unicode="&#x6f0;" horiz-adv-x="540" 
d="M337 294l-67 -67l-68 68l68 65z" />
    <glyph glyph-name="uni06F1" unicode="&#x6f1;" horiz-adv-x="540" 
d="M303 0h-66v653h66v-653z" />
    <glyph glyph-name="uni06F2" unicode="&#x6f2;" horiz-adv-x="540" 
d="M392 649l66 4c11 -161 -40 -235 -168 -235c-42 0 -86 10 -131 30v-448h-66v653h66v-142c46 -21 90 -32 132 -32s71 13 86 40s20 70 15 130z" />
    <glyph glyph-name="uni06F3" unicode="&#x6f3;" horiz-adv-x="540" 
d="M449 648l66 5c12 -144 -33 -219 -126 -219c-35 0 -74 8 -115 25c-21 -17 -47 -25 -78 -25c-29 0 -58 5 -87 16v-450h-66v653h66v-146c25 -9 50 -14 74 -14c61 0 84 47 73 155l66 5c5 -62 0 -111 -15 -147c25 -9 48 -13 69 -13c61 0 84 47 73 155z" />
    <glyph glyph-name="uni06F4" unicode="&#x6f4;" horiz-adv-x="540" 
d="M501 475l8 -59c-60 -12 -122 -18 -186 -18c-73 0 -140 11 -202 32v-430h-66v653h66v-161c43 -15 90 -24 139 -29c-10 24 -15 49 -15 75c0 81 44 122 133 122c32 0 62 -4 89 -12l-15 -60c-22 7 -45 11 -69 11c-52 0 -78 -25 -78 -75c0 -23 5 -44 14 -65h6
c61 0 120 5 176 16z" />
    <glyph glyph-name="uni06F5" unicode="&#x6f5;" horiz-adv-x="540" 
d="M193 -6c-88 0 -144 80 -144 259c0 125 24 224 71 295s98 106 153 106c57 0 108 -34 152 -102c44 -69 66 -168 66 -299c0 -167 -55 -259 -132 -259c-31 0 -60 13 -87 39c-26 -26 -52 -39 -79 -39zM202 57c11 0 25 5 42 15s26 15 27 16c11 -4 41 -31 73 -31
c45 0 79 73 79 198c0 102 -15 184 -45 245c-31 61 -66 91 -105 91s-74 -31 -107 -94s-49 -144 -49 -241c0 -133 37 -199 85 -199z" />
    <glyph glyph-name="uni06F6" unicode="&#x6f6;" horiz-adv-x="540" 
d="M366 361l63 74l52 -44l-350 -411l-52 44l237 278c-129 15 -206 78 -206 171c0 112 97 182 278 182c7 0 16 0 26 -1v-61c-156 8 -236 -40 -236 -121c0 -65 68 -104 188 -111z" />
    <glyph glyph-name="uni06F7" unicode="&#x6f7;" horiz-adv-x="540" 
d="M270 96l185 563l70 -21l-218 -638h-73l-220 640l70 19z" />
    <glyph glyph-name="uni06F8" unicode="&#x6f8;" horiz-adv-x="540" 
d="M305 651l220 -639l-70 -20l-186 563l-185 -563l-70 21l218 638h73z" />
    <glyph glyph-name="uni06F9" unicode="&#x6f9;" horiz-adv-x="540" 
d="M279 653h156v-653h-66v280c-187 -16 -303 43 -303 176c0 121 82 197 213 197zM134 456c0 -46 22 -79 67 -98c44 -19 100 -25 168 -17v250h-75c-101 0 -160 -48 -160 -135z" />
    <glyph glyph-name="uni1E9E" unicode="&#x1e9e;" horiz-adv-x="654" 
d="M539 717v-64c-116 0 -189 -46 -189 -129c0 -33 10 -59 39 -84c14 -13 26 -22 35 -28s24 -16 46 -30c97 -60 144 -121 144 -210c0 -55 -19 -101 -56 -136c-37 -36 -85 -54 -142 -54c-87 0 -152 31 -196 93l62 45c28 -48 73 -72 135 -72c73 0 116 48 119 123
c1 67 -29 102 -109 150c-105 64 -155 114 -155 201c0 43 14 77 39 100c24 23 36 29 59 41h-19c-136 0 -193 -41 -193 -156v-507h-72v507c0 156 78 219 257 219c58 0 123 -3 196 -9z" />
    <glyph glyph-name="uni2002" unicode="&#x2002;" horiz-adv-x="572" 
 />
    <glyph glyph-name="uni2003" unicode="&#x2003;" horiz-adv-x="1143" 
 />
    <glyph glyph-name="thinspace" unicode="&#x2009;" horiz-adv-x="114" 
 />
    <glyph glyph-name="uni200A" unicode="&#x200a;" horiz-adv-x="23" 
 />
    <glyph glyph-name="uni200C" unicode="&#x200c;" 
d="M-78 958l-60 -60l-18 20l59 59l-59 59l18 20l60 -61l59 60l18 -19l-58 -59l58 -59l-18 -19z" />
    <glyph glyph-name="uni200D" unicode="&#x200d;" 
d="M-87 912h-26v79h227v-79h-26v53h-175v-53z" />
    <glyph glyph-name="uni200E" unicode="&#x200e;" 
d="M109 977l-79 -79l-19 20l47 47h-144v26h144l-47 45l19 20z" />
    <glyph glyph-name="uni200F" unicode="&#x200f;" 
d="M-11 918l-19 -19l-79 78l79 79l19 -18l-47 -47h145v-26h-144z" />
    <glyph glyph-name="uni2011" unicode="&#x2011;" horiz-adv-x="333" 
d="M38 273h257v-66h-257v66z" />
    <glyph glyph-name="endash" unicode="&#x2013;" horiz-adv-x="500" 
d="M0 273h500v-66h-500v66z" />
    <glyph glyph-name="emdash" unicode="&#x2014;" horiz-adv-x="1000" 
d="M0 273h1000v-66h-1000v66z" />
    <glyph glyph-name="quoteleft" unicode="&#x2018;" horiz-adv-x="260" 
d="M137 708h67l-67 -235h-81z" />
    <glyph glyph-name="quoteright" unicode="&#x2019;" horiz-adv-x="260" 
d="M123 708h81l-81 -235h-67z" />
    <glyph glyph-name="quotesinglbase" unicode="&#x201a;" horiz-adv-x="260" 
d="M123 95h81l-81 -235h-67z" />
    <glyph glyph-name="quotedblleft" unicode="&#x201c;" horiz-adv-x="519" 
d="M176 708h67l-67 -235h-81zM357 708h67l-67 -235h-81z" />
    <glyph glyph-name="quotedblright" unicode="&#x201d;" horiz-adv-x="519" 
d="M162 708h81l-81 -235h-67zM343 708h81l-81 -235h-67z" />
    <glyph glyph-name="quotedblbase" unicode="&#x201e;" horiz-adv-x="519" 
d="M162 95h81l-81 -235h-67zM343 95h81l-81 -235h-67z" />
    <glyph glyph-name="dagger" unicode="&#x2020;" horiz-adv-x="556" 
d="M245 708h66v-204h204v-60h-204v-570h-66v570h-204v60h204v204z" />
    <glyph glyph-name="daggerdbl" unicode="&#x2021;" horiz-adv-x="556" 
d="M245 708h66v-192h195v-60h-195v-330h195v-60h-195v-192h-66v192h-195v60h195v330h-195v60h195v192z" />
    <glyph glyph-name="bullet" unicode="&#x2022;" horiz-adv-x="500" 
d="M125 479c35 35 76 52 125 52s90 -17 125 -52s52 -76 52 -125s-17 -90 -52 -125s-76 -52 -125 -52s-90 17 -125 52s-52 76 -52 125s17 90 52 125z" />
    <glyph glyph-name="ellipsis" unicode="&#x2026;" horiz-adv-x="1000" 
d="M129 86c20 21 56 21 77 0c20 -21 20 -55 0 -76c-21 -21 -57 -21 -77 0c-21 21 -21 55 0 76zM462 86c20 21 56 21 77 0c20 -21 20 -55 0 -76c-21 -21 -57 -21 -77 0c-21 21 -21 55 0 76zM795 86c20 21 56 21 77 0c20 -21 20 -55 0 -76c-21 -21 -57 -21 -77 0
c-21 21 -21 55 0 76z" />
    <glyph glyph-name="uni202A" unicode="&#x202a;" 
d="M109 977l-79 -79l-19 20l47 47h-57v26h57l-47 45l19 20zM-32 965h-65v26h65v-26z" />
    <glyph glyph-name="uni202B" unicode="&#x202b;" 
d="M-11 918l-19 -19l-79 78l79 79l19 -18l-47 -47h57v-26h-56zM97 965h-65v26h65v-26z" />
    <glyph glyph-name="uni202C" unicode="&#x202c;" 
d="M13 897h-27v116l-45 -46l-19 19l78 78l78 -78l-19 -19l-46 46v-116z" />
    <glyph glyph-name="uni202D" unicode="&#x202d;" 
d="M55 977l-79 -79l-18 20l47 47h-123v26h122l-46 45l18 20zM129 977l-79 -79l-18 20l61 59l-61 59l18 20z" />
    <glyph glyph-name="uni202E" unicode="&#x202e;" 
d="M-32 945l-18 -19l-79 79l79 79l18 -19l-60 -60zM43 945l-19 -19l-78 79l78 79l19 -19l-47 -48h123v-25h-123z" />
    <glyph glyph-name="perthousand" unicode="&#x2030;" horiz-adv-x="1000" 
d="M73 -4l451 743l51 -27l-450 -743zM70 675c30 30 66 45 108 45s78 -15 108 -46s45 -67 45 -108c0 -42 -15 -78 -45 -108c-31 -31 -67 -46 -108 -46s-77 15 -107 45c-31 30 -46 66 -46 109c0 42 15 78 45 109zM108 637c-64 -57 -13 -176 70 -171c55 0 99 45 99 100
c0 53 -44 100 -99 100c-27 0 -51 -10 -70 -29zM365 251c30 30 66 45 107 45s77 -15 108 -45c30 -31 45 -67 45 -109s-15 -78 -45 -108c-30 -31 -66 -46 -108 -46s-78 15 -108 46c-30 30 -45 66 -45 108s15 78 46 109zM715 251c30 30 66 45 107 45s77 -15 108 -45
c30 -31 45 -67 45 -109c0 -41 -15 -76 -45 -107s-66 -47 -108 -47c-41 0 -77 16 -107 47c-31 31 -46 66 -46 107c0 42 15 78 46 109zM373 142c0 -53 46 -100 99 -100c55 0 99 47 99 100c0 55 -44 100 -99 100c-53 0 -99 -45 -99 -100zM723 142c0 -53 44 -100 99 -100
c53 0 99 47 99 100c0 55 -45 100 -100 100c-25 0 -48 -10 -68 -29c-20 -20 -30 -44 -30 -71z" />
    <glyph glyph-name="guilsinglleft" unicode="&#x2039;" horiz-adv-x="315" 
d="M59 240l140 209l47 -33l-115 -176l115 -176l-47 -33z" />
    <glyph glyph-name="guilsinglright" unicode="&#x203a;" horiz-adv-x="315" 
d="M69 416l47 33l140 -209l-140 -209l-47 33l115 176z" />
    <glyph glyph-name="fraction" unicode="&#x2044;" horiz-adv-x="168" 
d="M-167 0l451 740l51 -31l-450 -741z" />
    <glyph glyph-name="Euro" unicode="&#x20ac;" horiz-adv-x="556" 
d="M364 720c57 0 108 -13 154 -40l-21 -62c-36 26 -81 39 -134 39c-100 0 -162 -61 -186 -182h283l-17 -56h-275c0 -3 0 -14 -1 -33s-2 -33 -2 -43c0 -6 1 -24 2 -55h240l-18 -55h-216c20 -123 77 -185 170 -185c53 0 95 21 125 64l47 -34c-36 -56 -105 -90 -181 -90
c-131 0 -212 85 -236 245h-75l20 55h49c-1 33 -2 55 -2 66c0 25 1 47 3 65h-69l20 56h57c32 159 126 245 263 245z" />
    <glyph glyph-name="uni20B9" unicode="&#x20b9;" horiz-adv-x="556" 
d="M97 708h423v-54h-164c33 -25 52 -59 57 -102h107v-54h-107c-15 -100 -88 -161 -225 -161l230 -337h-85l-236 348v45h50c117 0 181 35 194 105h-244v54h244c-10 67 -65 100 -166 100h-78v56z" />
    <glyph glyph-name="uni20BA" unicode="&#x20ba;" horiz-adv-x="556" 
d="M185 708v-139l202 90v-57l-200 -89v-104l200 90v-57l-200 -90v-292c12 -1 23 -2 32 -2c145 0 229 107 229 314h72c0 -247 -112 -380 -304 -380c-51 0 -85 3 -101 8v322l-96 -40v57l96 40v104l-96 -40v57l96 40v168h70z" />
    <glyph glyph-name="uni2113" unicode="&#x2113;" horiz-adv-x="500" 
d="M287 721c65 0 110 -49 110 -128c0 -95 -57 -201 -171 -318v-153c0 -52 30 -84 75 -84c29 0 59 13 89 39l25 -36c-40 -37 -83 -55 -130 -55c-79 0 -127 48 -127 124v118l-59 -63l-27 38l86 84v263c0 46 11 86 34 120c22 34 54 51 95 51zM226 561v-226
c76 86 114 170 114 253c0 51 -21 85 -53 85c-36 0 -61 -45 -61 -112z" />
    <glyph glyph-name="trademark" unicode="&#x2122;" horiz-adv-x="1000" 
d="M72 708h329v-54h-133v-358h-60v358h-136v54zM487 708h93l129 -316l129 316h90v-412h-60v346h-2l-139 -346h-39l-139 346h-2v-346h-60v412z" />
    <glyph glyph-name="uni2126" unicode="&#x2126;" horiz-adv-x="744" 
d="M367 721c87 0 161 -29 224 -87c63 -59 94 -131 94 -217c0 -66 -17 -125 -52 -176s-84 -85 -145 -101v-82h197v-58h-251v181c116 21 184 109 184 234c0 70 -24 128 -73 175s-109 70 -179 70s-129 -23 -178 -70s-74 -106 -74 -175c0 -124 68 -214 184 -234v-181h-251v58
h197v82c-61 16 -109 50 -144 102c-35 51 -53 109 -53 174c0 87 32 159 95 218c63 58 138 87 225 87z" />
    <glyph glyph-name="estimated" unicode="&#x212e;" horiz-adv-x="976" 
d="M900 341h-667c-4 0 -6 -2 -6 -6v-190c0 -14 3 -24 8 -30c57 -72 140 -108 251 -108c109 0 189 42 269 118h72c-42 -51 -88 -87 -138 -110c-51 -23 -117 -34 -200 -34c-127 0 -227 35 -302 105s-112 156 -112 257c0 97 41 192 110 263c68 71 178 117 302 117
c317 0 413 -206 413 -382zM749 368v194c0 9 -4 19 -12 28c-63 77 -163 107 -254 107c-96 0 -178 -35 -246 -105c-7 -8 -10 -18 -10 -29v-195c0 -4 2 -6 6 -6h510c4 0 6 2 6 6z" />
    <glyph glyph-name="partialdiff" unicode="&#x2202;" horiz-adv-x="496" 
d="M210 721c88 0 156 -45 192 -116s53 -152 53 -243c0 -239 -80 -374 -225 -374c-60 0 -108 22 -144 66c-37 44 -55 97 -55 158s18 111 53 152s82 61 141 61c65 0 121 -28 166 -84c0 7 1 39 1 54c0 77 -16 142 -47 194c-31 51 -75 77 -132 77c-35 0 -72 -15 -112 -46l-36 43
c40 39 88 58 145 58zM94 210c0 -45 12 -85 37 -118c25 -34 58 -51 100 -51c88 0 144 85 155 237c-45 61 -97 91 -156 91c-80 0 -136 -66 -136 -159z" />
    <glyph glyph-name="uni2206" unicode="&#x2206;" horiz-adv-x="670" 
d="M296 712h74l287 -712h-642zM332 645l-226 -583h455z" />
    <glyph glyph-name="product" unicode="&#x220f;" horiz-adv-x="711" 
d="M71 786h570v-1000h-66v938h-438v-938h-66v1000z" />
    <glyph glyph-name="summation" unicode="&#x2211;" horiz-adv-x="604" 
d="M39 786h527v-62h-442l309 -435l-328 -442h473v-61h-553v55l329 448l-315 441v56z" />
    <glyph glyph-name="minus" unicode="&#x2212;" horiz-adv-x="666" 
d="M78 333h510v-60h-510v60z" />
    <glyph glyph-name="uni2215" unicode="&#x2215;" horiz-adv-x="168" 
d="M-167 0l451 740l51 -31l-450 -741z" />
    <glyph glyph-name="uni2219" unicode="&#x2219;" horiz-adv-x="278" 
d="M101 352c20 21 56 21 77 0c20 -21 20 -55 0 -76c-21 -21 -57 -21 -77 0c-21 21 -21 55 0 76z" />
    <glyph glyph-name="radical" unicode="&#x221a;" horiz-adv-x="493" 
d="M439 786h63l-210 -1000h-66l-164 340l-46 -22l-24 50l100 48l158 -330z" />
    <glyph glyph-name="infinity" unicode="&#x221e;" horiz-adv-x="741" 
d="M660 357c27 -27 40 -62 40 -105s-13 -78 -39 -106c-27 -28 -60 -42 -101 -42c-59 0 -113 31 -189 107c-4 -3 -13 -11 -28 -24s-25 -21 -30 -26c-6 -5 -16 -12 -29 -21c-36 -26 -60 -33 -103 -36c-81 0 -140 61 -140 145s55 148 138 148c32 0 62 -9 89 -26
c27 -18 61 -47 103 -86c47 45 80 74 97 85c29 19 59 28 90 28c41 0 75 -14 102 -41zM409 248c62 -57 113 -86 154 -86c49 0 80 35 80 87c0 56 -32 92 -83 92c-26 0 -49 -10 -71 -26c-9 -5 -30 -23 -37 -30c-8 -7 -34 -29 -43 -37zM182 162c39 0 89 29 151 87
c-67 61 -119 91 -155 91c-47 0 -80 -38 -80 -90c0 -53 33 -88 84 -88z" />
    <glyph glyph-name="integral" unicode="&#x222b;" horiz-adv-x="543" 
d="M335 786c41 0 71 -19 71 -50c0 -23 -12 -34 -37 -34c-32 0 -38 40 -52 40c-24 0 -36 -42 -36 -126c0 -12 2 -50 2 -63v-529c0 -69 -5 -118 -21 -165c-17 -47 -51 -72 -100 -72c-36 0 -61 18 -61 47c0 19 14 32 33 32c31 0 36 -38 50 -38c21 0 32 47 32 140
c0 13 1 36 1 52v490v34c-1 19 -1 34 -1 46c0 131 40 196 119 196z" />
    <glyph glyph-name="approxequal" unicode="&#x2248;" horiz-adv-x="666" 
d="M553 402h43c-11 -87 -56 -137 -123 -137c-29 0 -77 12 -142 37c-66 24 -111 36 -136 36c-39 0 -70 -31 -79 -80h-45c11 88 57 139 124 139c31 0 79 -12 144 -36c64 -25 109 -37 135 -37c41 0 68 26 79 78zM552 232h44c-11 -85 -56 -138 -124 -138c-29 0 -76 12 -142 37
c-67 24 -112 36 -135 36c-39 0 -70 -31 -79 -80h-45c15 93 56 140 123 140c34 0 83 -12 146 -36c63 -25 107 -37 134 -37c40 0 66 26 78 78z" />
    <glyph glyph-name="notequal" unicode="&#x2260;" horiz-adv-x="666" 
d="M441 517l52 -28l-63 -119h154v-60h-186l-69 -130h255v-60h-287l-76 -144l-52 27l62 117h-149v60h181l68 130h-249v60h282z" />
    <glyph glyph-name="lessequal" unicode="&#x2264;" horiz-adv-x="666" 
d="M584 550v-65l-419 -157l419 -155v-65l-502 188v65zM82 65h502v-59h-502v59z" />
    <glyph glyph-name="greaterequal" unicode="&#x2265;" horiz-adv-x="666" 
d="M82 485v65l502 -189v-65l-502 -188v65l420 155zM82 65h502v-59h-502v59z" />
    <glyph glyph-name="lozenge" unicode="&#x25ca;" horiz-adv-x="593" 
d="M264 747h63l171 -391l-171 -391h-63l-169 390zM296 681l-136 -325l136 -325l137 325z" />
    <glyph glyph-name="uni25CC" unicode="&#x25cc;" horiz-adv-x="460" 
d="M257 370c0 -19 -9 -28 -27 -28s-27 9 -27 28c0 18 9 27 27 27s27 -9 27 -27zM143 320c-17 0 -26 10 -26 29c0 17 9 26 26 26c19 0 29 -9 29 -26c0 -19 -10 -29 -29 -29zM316 320c-19 0 -29 10 -29 29c0 17 10 26 29 26c17 0 26 -9 26 -26c0 -19 -9 -29 -26 -29zM80 257
c-17 0 -26 9 -26 28c0 18 9 27 26 27c19 0 28 -9 28 -27c0 -19 -9 -28 -28 -28zM406 285c0 -19 -9 -28 -27 -28s-27 9 -27 28c0 18 9 27 27 27s27 -9 27 -27zM58 172c-17 0 -26 9 -26 27s9 27 26 27c19 0 28 -9 28 -27s-9 -27 -28 -27zM428 199c0 -18 -9 -27 -27 -27
s-27 9 -27 27s9 27 27 27s27 -9 27 -27zM80 86c-17 0 -26 9 -26 27s9 27 26 27c19 0 28 -9 28 -27s-9 -27 -28 -27zM406 113c0 -18 -9 -27 -27 -27s-27 9 -27 27s9 27 27 27s27 -9 27 -27zM143 23c-17 0 -26 9 -26 27s9 27 26 27c19 0 29 -9 29 -27s-10 -27 -29 -27zM316 23
c-19 0 -29 9 -29 27s10 27 29 27c17 0 26 -9 26 -27s-9 -27 -26 -27zM257 28c0 -18 -9 -27 -27 -27s-27 9 -27 27c0 19 9 28 27 28s27 -9 27 -28z" />
    <glyph glyph-name="uni274A" unicode="&#x274a;" horiz-adv-x="634" 
d="M317 203l-92 -196l-52 25l98 193l-206 -48l-11 53l207 42l-171 133l38 46l164 -140l-4 216h59l-5 -216l167 137l35 -45l-171 -132l207 -44l-13 -53l-205 51l94 -194l-50 -25z" />
    <glyph glyph-name="fi" unicode="&#xfb01;" horiz-adv-x="537" 
d="M270 768c19 0 38 -2 57 -7l-12 -60c-18 5 -35 7 -51 7c-59 0 -85 -33 -85 -116v-124h111v-60h-111v-408h-66v408h-99v60h99v133c0 107 53 167 157 167zM384 682c29 28 81 8 81 -34c0 -43 -52 -62 -81 -34c-20 19 -20 49 0 68zM384 468h66v-468h-66v468z" />
    <glyph glyph-name="fl" unicode="&#xfb02;" horiz-adv-x="537" 
d="M270 768c19 0 38 -2 57 -7l-12 -60c-18 5 -35 7 -51 7c-59 0 -85 -33 -85 -116v-124h111v-60h-111v-408h-66v408h-99v60h99v133c0 107 53 167 157 167zM384 760h66v-756h-66v756z" />
    <glyph glyph-name="uniFBB2" unicode="&#xfbb2;" 
d="M1 548c-27 0 -45 17 -45 44c0 25 18 44 45 44c25 0 43 -19 43 -44c0 -27 -18 -44 -43 -44z" />
    <glyph glyph-name="uniFBB3" unicode="&#xfbb3;" 
d="M1 -177c-27 0 -45 19 -45 44c0 27 18 44 45 44c25 0 43 -17 43 -44c0 -25 -18 -44 -43 -44z" />
    <glyph glyph-name="uniFBB4" unicode="&#xfbb4;" 
d="M-36 561c-16 -17 -46 -17 -63 0c-16 16 -16 46 0 63c17 16 47 16 63 0c16 -17 16 -47 0 -63zM99 561c-16 -17 -46 -17 -62 0c-17 16 -17 46 0 63c16 16 46 16 62 0c16 -17 16 -47 0 -63z" />
    <glyph glyph-name="uniFBB5" unicode="&#xfbb5;" 
d="M-36 -165c-16 -16 -46 -16 -63 0c-16 17 -16 47 0 63c17 17 47 17 63 0c16 -16 16 -46 0 -63zM99 -165c-16 -16 -46 -16 -62 0c-17 17 -17 47 0 63c16 17 46 17 62 0c16 -16 16 -46 0 -63z" />
    <glyph glyph-name="uniFBB6" unicode="&#xfbb6;" 
d="M34 667c-27 -28 -75 -7 -75 31c0 24 19 44 44 44c24 0 43 -20 43 -44c0 -13 -4 -23 -12 -31zM-36 563c-16 -17 -46 -17 -63 0c-16 16 -16 46 0 63c17 16 47 16 63 0c16 -17 16 -47 0 -63zM99 563c-16 -17 -46 -17 -62 0c-17 16 -17 46 0 63c16 16 46 16 62 0
c16 -17 16 -47 0 -63z" />
    <glyph glyph-name="uniFBB9" unicode="&#xfbb9;" 
d="M-36 -166c-16 -16 -46 -16 -63 1c-16 17 -16 47 0 63c29 27 75 7 75 -31c0 -13 -4 -24 -12 -33zM99 -166c-16 -16 -46 -16 -62 1c-17 17 -17 47 0 63c28 27 74 7 74 -31c0 -13 -4 -24 -12 -33zM33 -268c-27 -27 -75 -6 -75 31c-4 58 92 59 87 0c0 -12 -4 -22 -12 -31z
" />
    <glyph glyph-name="uniFD3E" unicode="&#xfd3e;" horiz-adv-x="512" 
d="M464 -97c-13 0 -37 15 -70 45s-67 68 -100 114c-34 45 -56 86 -65 121l-68 -11c-13 -3 -20 11 -11 23l57 79c5 5 8 10 8 17c0 5 -4 8 -12 8c-5 0 -9 -2 -14 -7l-72 -64c-5 -5 -10 -8 -14 -8c-9 0 -14 6 -14 19v56c-39 19 -59 36 -59 49s20 29 59 48v55c0 13 5 20 14 20
c1 0 6 -3 14 -9l72 -64c7 -5 11 -7 14 -7c8 0 12 3 12 9c0 7 -3 12 -8 17l-57 79c-8 12 -2 24 11 23l68 -11c9 35 31 76 65 122c33 45 67 83 100 113s57 45 70 45c12 0 13 -6 2 -18c-92 -111 -144 -189 -152 -264l48 6c19 3 25 -7 14 -18l-63 -74c-7 -9 -11 -14 -11 -17
c0 -5 3 -7 10 -7c5 0 10 1 14 3l74 54c15 11 25 11 25 -2v-55c40 -15 60 -31 60 -48c0 -18 -20 -34 -60 -49v-56c0 -13 -10 -13 -25 -2l-74 55c-4 2 -9 3 -14 3c-7 0 -10 -3 -10 -8c0 -1 4 -7 11 -18l63 -72c11 -11 5 -21 -14 -18l-48 6c9 -83 60 -171 152 -264
c11 -9 9 -18 -2 -18zM182 491l47 -68v27h22l20 32v-32h18v-26l63 64l-67 -13c3 25 14 60 33 105v42c-33 -33 -63 -97 -75 -146zM112 313v-53l72 56h-44v17c-13 3 -23 7 -28 11c5 3 15 7 28 10v16h44l-72 57v-53c-38 -13 -57 -23 -57 -30s19 -18 57 -31zM334 314l70 -53v52
c32 7 57 20 57 31c0 8 -25 23 -57 30v52l-70 -53h40v-18c9 -1 20 -4 31 -11c-10 -7 -20 -11 -31 -12v-18h-40zM259 295c28 0 48 21 48 49c0 27 -20 48 -48 48c-25 0 -47 -24 -47 -48c0 -25 22 -49 47 -49zM318 64v43c-19 43 -30 78 -33 104l67 -13l-63 65v-28h-18v-31
l-20 31h-22v28l-47 -67l61 14c16 -62 41 -111 75 -146z" />
    <glyph glyph-name="uniFD3F" unicode="&#xfd3f;" horiz-adv-x="512" 
d="M51 -97c-10 0 -13 9 -2 18c92 93 143 181 152 264l-48 -6c-19 -3 -25 7 -14 18l63 72c7 11 11 17 11 18c0 5 -3 8 -10 8c-5 0 -10 -1 -14 -3l-74 -55c-15 -11 -25 -11 -25 2v56c-40 15 -60 31 -60 49c0 17 20 33 60 48v55c0 13 10 13 25 2l74 -54c4 -2 9 -3 14 -3
c7 0 10 2 10 7c0 3 -4 8 -11 17l-63 74c-11 11 -5 21 14 18l48 -6c-8 75 -60 153 -152 264c-11 12 -10 18 2 18c13 0 37 -15 70 -45s67 -68 101 -113c33 -46 55 -87 64 -122l68 11c13 1 19 -11 11 -23l-57 -79c-5 -5 -8 -10 -8 -17c0 -6 4 -9 12 -9c3 0 7 2 14 7l72 64
c8 6 13 9 14 9c9 0 14 -7 14 -20v-55c39 -19 59 -35 59 -48s-20 -30 -59 -49v-56c0 -13 -5 -19 -14 -19c-4 0 -9 3 -14 8l-72 64c-5 5 -9 7 -14 7c-8 0 -12 -3 -12 -8c0 -7 3 -12 8 -17l57 -79c9 -12 2 -26 -11 -23l-68 11c-9 -35 -31 -76 -64 -121
c-34 -46 -68 -84 -101 -114s-57 -45 -70 -45zM286 450v-27l47 68l-61 -15c-12 49 -42 113 -75 146v-42c19 -45 30 -80 33 -105l-67 13l63 -64v26h18v32l20 -32h22zM331 316l72 -56v53c38 13 57 24 57 31s-19 17 -57 30v53l-72 -57h44v-16c13 -3 23 -7 28 -10
c-5 -4 -15 -8 -28 -11v-17h-44zM111 313v-52l70 53h-40v18c-11 1 -21 5 -31 12c11 7 22 10 31 11v18h40l-70 53v-52c-32 -7 -57 -22 -57 -30c0 -11 25 -24 57 -31zM256 295c25 0 47 24 47 49c0 24 -23 48 -47 48c-28 0 -48 -21 -48 -48c0 -28 20 -49 48 -49zM197 107v-43
c34 35 59 84 75 146l61 -14l-47 67v-28h-22l-20 -31v31h-18v28l-63 -65l67 13c-3 -26 -14 -61 -33 -104z" />
    <glyph glyph-name="uniFEFF" unicode="&#xfeff;" 
 />
    <glyph glyph-name="uniFBE9.wide" horiz-adv-x="325" 
d="M325 63c13 0 20 -11 20 -32s-7 -31 -20 -31c-79 0 -133 25 -160 74c-29 -49 -83 -74 -160 -74h-5v63h6c84 0 119 40 119 137v203h66v-213v-5c0 -81 45 -122 134 -122z" />
    <glyph glyph-name="uniFBE8.wide" horiz-adv-x="280" 
d="M5 0h-5v63h6c84 0 119 40 119 137v203h66v-213c0 -127 -62 -190 -186 -190z" />
    <glyph glyph-name="uniFBAF.wide" horiz-adv-x="768" 
d="M346 -260c-215 0 -314 50 -314 166c0 100 79 157 216 157h520c13 0 20 -11 20 -32s-7 -31 -20 -31h-527c-97 0 -146 -31 -146 -92c0 -73 74 -104 267 -104c104 0 226 12 365 36l4 -63c-149 -25 -277 -37 -385 -37z" />
    <glyph glyph-name="uniFBB1.wide" horiz-adv-x="768" 
d="M222 211h88v-35h-162v35h37c-10 16 -15 33 -15 51c0 45 35 75 84 75c13 0 28 -2 47 -6l-7 -34c-10 3 -21 5 -34 5c-48 0 -70 -40 -38 -91zM248 63h520c13 0 20 -11 20 -32s-7 -31 -20 -31h-527c-97 0 -146 -31 -146 -92c0 -73 74 -104 267 -104c104 0 226 12 365 36
l4 -63c-149 -25 -277 -37 -385 -37c-215 0 -314 50 -314 166c0 100 79 157 216 157z" />
    <glyph glyph-name="uni0660.lf" horiz-adv-x="235" 
d="M185 294l-67 -67l-68 68l68 65z" />
    <glyph glyph-name="uni0661.lf" horiz-adv-x="286" 
d="M176 0h-66v653h66v-653z" />
    <glyph glyph-name="uni0662.lf" horiz-adv-x="521" 
d="M409 649l66 4c11 -161 -40 -235 -168 -235c-42 0 -86 10 -131 30v-448h-66v653h66v-142c46 -21 90 -32 132 -32s71 13 86 40s20 70 15 130z" />
    <glyph glyph-name="uni0663.lf" horiz-adv-x="629" 
d="M516 648l66 5c12 -144 -33 -219 -126 -219c-35 0 -74 8 -115 25c-21 -17 -47 -25 -78 -25c-29 0 -58 5 -87 16v-450h-66v653h66v-146c25 -9 50 -14 74 -14c61 0 84 47 73 155l66 5c5 -62 0 -111 -15 -147c25 -9 48 -13 69 -13c61 0 84 47 73 155z" />
    <glyph glyph-name="uni0664.lf" horiz-adv-x="504" 
d="M441 62l3 -60c-44 -5 -85 -8 -124 -8c-163 0 -245 51 -245 154c0 79 54 146 149 186c-67 25 -117 72 -117 139c0 115 104 182 280 182c7 0 15 0 24 -1v-61c-148 8 -236 -36 -236 -121c0 -73 80 -115 219 -99v-62c-167 -15 -251 -79 -251 -152c0 -68 62 -102 187 -102
c32 0 69 2 111 5z" />
    <glyph glyph-name="uni0665.lf" horiz-adv-x="592" 
d="M455 55c-38 -42 -91 -63 -159 -63s-121 21 -159 63s-57 112 -57 211c0 127 21 224 64 290c43 65 93 98 152 98s110 -33 153 -98c42 -66 63 -163 63 -290c0 -99 -19 -169 -57 -211zM148 268c0 -141 49 -212 148 -212s148 71 148 212c0 99 -15 177 -44 235s-64 87 -104 87
s-75 -29 -104 -87s-44 -136 -44 -235z" />
    <glyph glyph-name="uni0666.lf" horiz-adv-x="523" 
d="M413 0h-66v591h-312v62h378v-653z" />
    <glyph glyph-name="uni0667.lf" horiz-adv-x="601" 
d="M301 96l185 563l70 -21l-218 -638h-73l-220 640l70 19z" />
    <glyph glyph-name="uni0668.lf" horiz-adv-x="601" 
d="M336 651l220 -639l-70 -20l-186 563l-185 -563l-70 21l218 638h73z" />
    <glyph glyph-name="uni0669.lf" horiz-adv-x="544" 
d="M278 653h156v-653h-66v280c-187 -16 -303 43 -303 176c0 121 82 197 213 197zM133 456c0 -46 22 -79 67 -98c44 -19 100 -25 168 -17v250h-75c-101 0 -160 -48 -160 -135z" />
    <glyph glyph-name="uni06F0.lf" horiz-adv-x="235" 
d="M185 294l-67 -67l-68 68l68 65z" />
    <glyph glyph-name="uni06F1.lf" horiz-adv-x="286" 
d="M176 0h-66v653h66v-653z" />
    <glyph glyph-name="uni06F2.lf" horiz-adv-x="521" 
d="M409 649l66 4c11 -161 -40 -235 -168 -235c-42 0 -86 10 -131 30v-448h-66v653h66v-142c46 -21 90 -32 132 -32s71 13 86 40s20 70 15 130z" />
    <glyph glyph-name="uni06F3.lf" horiz-adv-x="629" 
d="M516 648l66 5c12 -144 -33 -219 -126 -219c-35 0 -74 8 -115 25c-21 -17 -47 -25 -78 -25c-29 0 -58 5 -87 16v-450h-66v653h66v-146c25 -9 50 -14 74 -14c61 0 84 47 73 155l66 5c5 -62 0 -111 -15 -147c25 -9 48 -13 69 -13c61 0 84 47 73 155z" />
    <glyph glyph-name="uni06F4.lf" horiz-adv-x="609" 
d="M556 475l8 -59c-60 -12 -122 -18 -186 -18c-73 0 -140 11 -202 32v-430h-66v653h66v-161c43 -15 90 -24 139 -29c-10 24 -15 49 -15 75c0 81 44 122 133 122c33 0 62 -4 89 -12l-15 -60c-22 7 -45 11 -69 11c-52 0 -78 -25 -78 -75c0 -23 5 -44 14 -65h6
c61 0 120 5 176 16z" />
    <glyph glyph-name="uni06F5.lf" horiz-adv-x="602" 
d="M224 -6c-88 0 -144 80 -144 259c0 125 24 224 71 295s98 106 153 106c57 0 108 -34 152 -102c44 -69 66 -168 66 -299c0 -167 -55 -259 -132 -259c-31 0 -60 13 -87 39c-26 -26 -52 -39 -79 -39zM233 57c11 0 25 5 42 15s26 15 27 16c11 -4 41 -31 73 -31
c45 0 79 73 79 198c0 102 -15 184 -46 245s-65 91 -104 91s-74 -31 -107 -94s-49 -144 -49 -241c0 -133 37 -199 85 -199z" />
    <glyph glyph-name="uni06F6.lf" horiz-adv-x="501" 
d="M339 361l63 74l52 -44l-350 -411l-52 44l237 278c-129 15 -206 78 -206 171c0 112 97 182 278 182c7 0 16 0 26 -1v-61c-156 8 -236 -40 -236 -121c0 -65 68 -104 188 -111z" />
    <glyph glyph-name="uni06F7.lf" horiz-adv-x="601" 
d="M301 96l185 563l70 -21l-218 -638h-73l-220 640l70 19z" />
    <glyph glyph-name="uni06F8.lf" horiz-adv-x="601" 
d="M336 651l220 -639l-70 -20l-186 563l-185 -563l-70 21l218 638h73z" />
    <glyph glyph-name="uni06F9.lf" horiz-adv-x="544" 
d="M278 653h156v-653h-66v280c-187 -16 -303 43 -303 176c0 121 82 197 213 197zM133 456c0 -46 22 -79 67 -98c44 -19 100 -25 168 -17v250h-75c-101 0 -160 -48 -160 -135z" />
    <glyph glyph-name="uni06F4.urdu" horiz-adv-x="540" 
d="M401 471h-52c-27 79 -63 119 -106 119c-41 0 -66 -36 -66 -97v-493h-66v492c0 109 51 167 127 167c57 0 104 -39 142 -116c21 29 53 64 97 106l44 -45c-44 -40 -84 -84 -120 -133z" />
    <glyph glyph-name="uni06F7.urdu" horiz-adv-x="540" 
d="M474 0h-368l-41 63l281 589l65 -29l-270 -560h333v-63z" />
    <glyph glyph-name="uni06F4.urdu.lf" horiz-adv-x="500" 
d="M380 471h-52c-27 79 -63 119 -106 119c-41 0 -66 -36 -66 -97v-493h-66v492c0 109 51 167 127 167c57 0 104 -39 142 -116c21 29 53 64 97 106l44 -45c-44 -40 -84 -84 -120 -133z" />
    <glyph glyph-name="uni06F7.urdu.lf" horiz-adv-x="479" 
d="M449 0h-368l-41 63l281 589l65 -29l-270 -560h333v-63z" />
    <glyph glyph-name="acute.case" horiz-adv-x="240" 
d="M159 904h91l-132 -144h-59z" />
    <glyph glyph-name="breve.case" horiz-adv-x="240" 
d="M-27 898h44c9 -49 48 -78 103 -78s95 30 103 78h44c-5 -83 -62 -132 -147 -132s-142 49 -147 132z" />
    <glyph glyph-name="caron.case" horiz-adv-x="240" 
d="M-29 904h66l83 -108l83 108h66l-109 -144h-80z" />
    <glyph glyph-name="circumflex.case" horiz-adv-x="240" 
d="M80 904h80l109 -144h-66l-83 108l-83 -108h-66z" />
    <glyph glyph-name="dieresis.case" horiz-adv-x="240" 
d="M24 873c46 0 67 -56 37 -87c-30 -33 -92 -8 -88 36c0 29 20 51 51 51zM216 873c46 0 67 -56 37 -87c-30 -33 -92 -8 -88 36c0 29 20 51 51 51z" />
    <glyph glyph-name="dotaccent.case" horiz-adv-x="240" 
d="M120 868c31 0 51 -22 51 -51c4 -44 -58 -69 -87 -36c-31 31 -10 87 36 87z" />
    <glyph glyph-name="grave.case" horiz-adv-x="240" 
d="M-10 904h91l100 -144h-58z" />
    <glyph glyph-name="hungarumlaut.case" horiz-adv-x="240" 
d="M45 904h91l-133 -144h-59zM245 904h91l-132 -144h-59z" />
    <glyph glyph-name="macron.case" horiz-adv-x="240" 
d="M-15 845h270v-54h-270v54z" />
    <glyph glyph-name="ring.case" horiz-adv-x="240" 
d="M53 902c54 62 167 14 163 -67c0 -53 -43 -95 -96 -95s-96 42 -96 95c0 26 10 48 29 67zM78 877c-40 -34 -8 -104 42 -101c33 0 60 27 60 59s-27 59 -60 59c-16 0 -30 -6 -42 -17z" />
    <glyph glyph-name="tilde.case" horiz-adv-x="240" 
d="M239 879h43c-11 -69 -42 -104 -92 -104c-16 0 -40 8 -72 23s-55 23 -68 23c-24 0 -40 -17 -49 -50h-43c11 69 42 104 92 104c17 0 42 -8 74 -23c31 -15 53 -23 66 -23c24 0 40 17 49 50z" />
    <glyph glyph-name="waslaar" 
d="M48 683c48 0 77 -33 77 -85c0 -19 -3 -38 -9 -55h-241v35h50v99h35v-45c24 34 53 51 88 51zM45 648c-36 0 -69 -29 -88 -70h132c2 8 3 15 3 21c0 31 -19 49 -47 49z" />
    <glyph glyph-name="gafsarkashabovear" 
d="M149 634l-252 -242l-46 45l254 241z" />
    <glyph glyph-name="uni0654.big" 
d="M-9 600h112v-43h-206v43h49c-13 23 -20 45 -20 68c0 57 42 93 103 93c19 0 40 -2 62 -7l-8 -42c-22 3 -37 5 -45 5c-37 0 -67 -18 -67 -57c0 -17 7 -37 20 -60z" />
    <glyph glyph-name="uni0654064F" 
d="M84 885c0 -80 -46 -127 -106 -127c-21 0 -39 5 -56 15l14 30c13 -7 27 -11 42 -11c31 0 53 16 66 49c-8 -1 -14 -2 -18 -2c-41 0 -72 20 -72 59c0 40 31 76 68 76s62 -36 62 -89zM32 872c4 0 11 1 20 2v10c0 37 -11 56 -33 56c-21 0 -34 -18 -34 -38s16 -30 47 -30z
M-8 658c-19 -16 -19 -48 1 -80h88v-35h-162v35h37c-10 16 -15 33 -15 51c0 45 35 75 84 75c13 0 28 -2 47 -6l-7 -34c-10 3 -21 5 -34 5c-16 0 -29 -4 -39 -11z" />
    <glyph glyph-name="uni0654064C" 
d="M11 758c-50 0 -82 72 -104 72c-11 0 -25 -11 -42 -34l-22 21c22 31 44 47 67 47c15 0 33 -12 53 -36c21 -24 37 -36 50 -36c28 0 49 16 62 49c-8 -1 -14 -2 -19 -2c-40 0 -71 20 -71 59c0 40 31 76 67 76c37 0 63 -36 63 -89c0 -75 -49 -127 -104 -127zM63 872
c4 0 11 1 20 2v10c0 37 -11 56 -33 56c-19 0 -34 -18 -34 -38s16 -30 47 -30zM-8 658c-19 -16 -19 -48 1 -80h88v-35h-162v35h37c-10 16 -15 33 -15 51c0 45 35 75 84 75c13 0 28 -2 47 -6l-7 -34c-10 3 -21 5 -34 5c-16 0 -29 -4 -39 -11z" />
    <glyph glyph-name="uni0654064E" 
d="M-106 787l224 34l3 -1l-5 -34l-224 -34l-3 1zM-8 658c-19 -16 -19 -48 1 -80h88v-35h-162v35h37c-10 16 -15 33 -15 51c0 45 35 75 84 75c13 0 28 -2 47 -6l-7 -34c-10 3 -21 5 -34 5c-16 0 -29 -4 -39 -11z" />
    <glyph glyph-name="uni0654064B" 
d="M121 910l-5 -34l-224 -34l-3 1l5 34l224 34zM-111 753l5 34l224 34l3 -1l-5 -34l-224 -34zM-8 658c-19 -16 -19 -48 1 -80h88v-35h-162v35h37c-10 16 -15 33 -15 51c0 45 35 75 84 75c13 0 28 -2 47 -6l-7 -34c-10 3 -21 5 -34 5c-16 0 -29 -4 -39 -11z" />
    <glyph glyph-name="uni06540652" 
d="M63 774c-12 -12 -29 -18 -50 -18s-38 6 -50 17c-11 11 -17 28 -17 49c0 41 27 80 67 80c20 0 36 -8 49 -24c24 -33 24 -81 1 -104zM37 855c-21 29 -56 6 -56 -31c0 -23 11 -34 32 -34s32 11 32 34c0 13 -3 23 -8 31zM-7 578h88v-35h-162v35h37c-10 16 -15 33 -15 51
c0 45 35 75 84 75c13 0 28 -2 47 -6l-7 -34c-10 3 -21 5 -34 5c-48 0 -70 -40 -38 -91z" />
    <glyph glyph-name="uni06550650" 
d="M-7 -215h88v-35h-162v35h38c-10 16 -15 33 -15 51c0 45 34 75 83 75c13 0 28 -2 47 -6l-6 -34c-11 3 -23 5 -35 5c-48 0 -70 -40 -38 -91zM-106 -344l224 34l3 -1l-5 -33l-224 -34l-3 1z" />
    <glyph glyph-name="uni0655064D" 
d="M-7 -215h88v-35h-162v35h38c-10 16 -15 33 -15 51c0 45 34 75 83 75c13 0 28 -2 47 -6l-6 -34c-11 3 -23 5 -35 5c-48 0 -70 -40 -38 -91zM121 -311l-5 -33l-224 -34l-3 1l5 33l224 34zM-111 -458l5 33l224 34l3 -1l-5 -33l-224 -34z" />
    <glyph glyph-name="uni06510670" 
d="M13 881v-165l-31 -10h-5v175h36zM74 675l25 10c10 -17 15 -36 15 -57c0 -40 -22 -68 -61 -68c-19 0 -35 6 -47 18c-11 -19 -28 -28 -53 -28c-41 0 -67 27 -67 64c0 17 4 33 11 48l24 -7c-3 -10 -4 -20 -4 -29c0 -25 12 -38 36 -38c21 0 31 13 31 38c0 9 0 17 -1 22l25 6
c4 -14 6 -27 6 -39v-2c11 -11 23 -16 37 -16c21 0 32 11 32 33c0 12 -3 27 -9 45z" />
    <glyph glyph-name="uni0651064F" 
d="M73 827c0 -80 -46 -127 -106 -127c-21 0 -39 5 -56 15l14 30c13 -7 27 -11 42 -11c31 0 53 16 66 49c-8 -1 -14 -2 -18 -2c-41 0 -72 20 -72 59c0 40 31 76 68 76s62 -36 62 -89zM21 814c4 0 11 1 20 2v10c0 37 -11 56 -33 56c-21 0 -34 -18 -34 -38s16 -30 47 -30z
M74 675l25 10c10 -17 15 -36 15 -57c0 -40 -22 -68 -61 -68c-19 0 -35 6 -47 18c-11 -19 -28 -28 -53 -28c-41 0 -67 27 -67 64c0 17 4 33 11 48l24 -7c-3 -10 -4 -20 -4 -29c0 -25 12 -38 36 -38c21 0 31 13 31 38c0 9 0 17 -1 22l25 6c4 -14 6 -27 6 -39v-2
c11 -11 23 -16 37 -16c21 0 32 11 32 33c0 12 -3 27 -9 45z" />
    <glyph glyph-name="uni0651064C" 
d="M-168 700c-50 0 -82 72 -104 72c-11 0 -25 -11 -42 -34l-22 21c22 31 44 47 67 47c15 0 33 -12 53 -36c21 -24 37 -36 50 -36c28 0 49 16 62 49c-8 -1 -14 -2 -19 -2c-40 0 -71 20 -71 59c0 40 31 76 67 76c37 0 63 -36 63 -89c0 -75 -49 -127 -104 -127zM-116 814
c4 0 11 1 20 2v10c0 37 -11 56 -33 56c-20 0 -34 -18 -34 -38s16 -30 47 -30zM-94 675l25 10c10 -17 15 -36 15 -57c0 -40 -22 -68 -61 -68c-19 0 -35 6 -47 18c-11 -19 -28 -28 -53 -28c-41 0 -67 27 -67 64c0 17 4 33 11 48l24 -7c-3 -10 -4 -20 -4 -29
c0 -25 12 -38 36 -38c21 0 31 13 31 38c0 9 0 17 -1 22l25 6c4 -14 6 -27 6 -39v-2c11 -11 23 -16 37 -16c21 0 32 11 32 33c0 12 -3 27 -9 45z" />
    <glyph glyph-name="uni0651064E" 
d="M107 763l3 -1l-5 -34l-224 -34l-3 1l5 34zM74 675l25 10c10 -17 15 -36 15 -57c0 -40 -22 -68 -61 -68c-19 0 -35 6 -47 18c-11 -19 -28 -28 -53 -28c-41 0 -67 27 -67 64c0 17 4 33 11 48l24 -7c-3 -10 -4 -20 -4 -29c0 -25 12 -38 36 -38c21 0 31 13 31 38
c0 9 0 17 -1 22l25 6c4 -14 6 -27 6 -39v-2c11 -11 23 -16 37 -16c21 0 32 11 32 33c0 12 -3 27 -9 45z" />
    <glyph glyph-name="uni0651064B.1" 
d="M110 852l-5 -34l-224 -34l-3 1l5 34l224 34zM107 763l3 -1l-5 -34l-224 -34l-3 1l5 34zM74 675l25 10c10 -17 15 -36 15 -57c0 -40 -22 -68 -61 -68c-19 0 -35 6 -47 18c-11 -19 -28 -28 -53 -28c-41 0 -67 27 -67 64c0 17 4 33 11 48l24 -7c-3 -10 -4 -20 -4 -29
c0 -25 12 -38 36 -38c21 0 31 13 31 38c0 9 0 17 -1 22l25 6c4 -14 6 -27 6 -39v-2c11 -11 23 -16 37 -16c21 0 32 11 32 33c0 12 -3 27 -9 45z" />
    <glyph glyph-name="uni06510650" 
d="M-41 640c-41 0 -67 27 -67 64c0 17 4 33 11 48l24 -7c-3 -10 -4 -20 -4 -29c0 -25 12 -38 36 -38c21 0 31 13 31 38c0 9 0 17 -1 22l25 6c4 -14 6 -27 6 -39v-2c11 -11 23 -16 37 -16c21 0 32 11 32 33c0 12 -3 27 -9 45l25 10c10 -17 15 -36 15 -57
c0 -40 -22 -68 -61 -68c-19 0 -35 6 -47 18c-11 -19 -28 -28 -53 -28zM-116 545l5 34l224 34l3 -1l-5 -34l-224 -34z" />
    <glyph glyph-name="uni0651064D" 
d="M-41 730c-41 0 -67 27 -67 64c0 17 4 33 11 48l24 -7c-3 -10 -4 -20 -4 -29c0 -25 12 -38 36 -38c21 0 31 13 31 38c0 9 0 17 -1 22l25 6c4 -14 6 -27 6 -39v-2c11 -11 23 -16 37 -16c21 0 32 11 32 33c0 12 -3 27 -9 45l25 10c10 -17 15 -36 15 -57
c0 -40 -22 -68 -61 -68c-19 0 -35 6 -47 18c-11 -19 -28 -28 -53 -28zM-116 635l5 34l224 34l3 -1l-5 -34l-224 -34zM-116 545l5 34l224 34l3 -1l-5 -34l-224 -34z" />
    </font>
</defs>
</svg>
