<?xml version="1.0" standalone="no"?>
<!DOCTYPE svg PUBLIC "-//W3C//DTD SVG 1.1//EN" "http://www.w3.org/Graphics/SVG/1.1/DTD/svg11.dtd" >
<svg xmlns="http://www.w3.org/2000/svg" xmlns:xlink="http://www.w3.org/1999/xlink" version="1.1">
<metadata>
Created by FontForge 20190801 at Fri Jan  3 23:18:11 2020
 By root
Copyright \(c\) 2018 Monotype GmbH. All rights reserved.
</metadata>
<defs>
<font id="AvenirArabic-Black" horiz-adv-x="0" >
  <font-face 
    font-family="Avenir Arabic"
    font-weight="900"
    font-stretch="normal"
    units-per-em="1000"
    panose-1="2 11 8 3 2 2 3 2 2 4"
    ascent="800"
    descent="-200"
    x-height="486"
    cap-height="708"
    bbox="-188 -491 1420 1084"
    underline-thickness="50"
    underline-position="-150"
    stemh="129"
    stemv="148"
    unicode-range="U+000D-FEFF"
  />
<missing-glyph horiz-adv-x="512" 
d="M0 718h512v-718h-512v718zM50 50h412v617h-412v-617zM259 609c73 0 124 -54 124 -131c0 -51 -16 -78 -65 -121c-23 -21 -37 -38 -41 -50c-4 -9 -6 -34 -6 -73h-46l-2 19c0 35 4 61 13 80c9 18 26 39 51 63c30 28 45 54 45 78c0 47 -36 85 -76 85c-47 0 -74 -32 -82 -95
l-50 8c8 89 56 137 135 137zM222 117v67h56v-67h-56z" />
    <glyph glyph-name="uniFDF2" unicode="&#x627;&#xfedf;&#xfee0;&#xfeea;" horiz-adv-x="1478" arabic-form="isolated" 
d="M696 796h-6v141h68v-124zM674 634c-45 0 -73 27 -73 72c0 18 4 37 11 56l40 -10c-2 -9 -3 -17 -3 -23c0 -21 9 -32 27 -32c15 0 23 11 23 32c0 6 0 11 -1 14l41 8c3 -16 4 -28 4 -36v-3c8 -5 17 -7 26 -7c14 0 21 9 21 27c0 11 -2 22 -7 34l46 18c12 -25 18 -48 18 -71
c0 -44 -26 -72 -63 -72c-19 0 -37 6 -54 19c-12 -17 -31 -26 -56 -26zM572 0c-87 0 -146 12 -175 37c-42 -20 -88 -30 -137 -30c-67 0 -123 17 -169 52c-47 35 -70 84 -70 149c0 59 24 110 71 153s114 65 203 65h205v-219c0 -59 16 -78 72 -78c68 0 86 26 86 106v351h148
v-369c0 -59 30 -88 89 -88c68 0 86 26 86 106v521h148v-539c0 -82 -18 -139 -55 -170s-96 -47 -179 -47c-65 1 -110 19 -136 54c-35 -36 -98 -54 -187 -54zM1420 0h-148v756h148v-756zM281 142c27 0 48 3 63 9v146h-69c-64 0 -102 -30 -102 -79c0 -51 36 -76 108 -76z" />
    <glyph glyph-name="uniFEF5" unicode="&#xfedf;&#xfe82;" horiz-adv-x="670" arabic-form="isolated" 
d="M464 220v536h148v-573c0 -111 -63 -183 -186 -183h-406v129h173v421h148v-421h43c57 0 80 30 80 91zM182 653c-15 0 -31 -6 -47 -17l-42 58c28 28 58 42 90 42c13 0 38 -5 75 -14c37 -10 63 -15 78 -15c16 0 33 8 50 23l47 -51c-27 -35 -58 -53 -93 -53
c-19 0 -48 5 -87 14s-62 13 -71 13z" />
    <glyph glyph-name="uniFEF6" unicode="&#xfee0;&#xfe82;" horiz-adv-x="701" arabic-form="final" 
d="M701 129c13 0 20 -23 20 -69c0 -40 -7 -60 -20 -60c-63 0 -108 17 -135 52c-31 -35 -78 -52 -140 -52h-406v129h173v421h148v-421h43c57 0 80 30 80 91v536h148v-535c0 -61 30 -92 89 -92zM182 653c-15 0 -31 -6 -47 -17l-42 58c28 28 58 42 90 42c13 0 38 -5 75 -14
c37 -10 63 -15 78 -15c16 0 33 8 50 23l47 -51c-27 -35 -58 -53 -93 -53c-19 0 -48 5 -87 14s-62 13 -71 13z" />
    <glyph glyph-name="uniFEF7" unicode="&#xfedf;&#xfe84;" horiz-adv-x="670" arabic-form="isolated" 
d="M273 691h80v-67h-178v67h32c-7 13 -11 27 -11 41c0 48 36 80 95 80c19 0 37 -2 53 -7l-12 -64c-11 3 -21 4 -31 4c-23 0 -35 -10 -35 -29c0 -7 2 -16 7 -25zM464 220v536h148v-573c0 -111 -63 -183 -186 -183h-406v129h173v421h148v-421h43c57 0 80 30 80 91z" />
    <glyph glyph-name="uniFEF8" unicode="&#xfee0;&#xfe84;" horiz-adv-x="701" arabic-form="final" 
d="M273 691h80v-67h-178v67h32c-7 13 -11 27 -11 41c0 48 36 80 95 80c19 0 37 -2 53 -7l-12 -64c-11 3 -21 4 -31 4c-23 0 -35 -10 -35 -29c0 -7 2 -16 7 -25zM701 129c13 0 20 -23 20 -69c0 -40 -7 -60 -20 -60c-63 0 -108 17 -135 52c-31 -35 -78 -52 -140 -52h-406v129
h173v421h148v-421h43c57 0 80 30 80 91v536h148v-535c0 -61 30 -92 89 -92z" />
    <glyph glyph-name="uniFEF9" unicode="&#xfedf;&#xfe88;" horiz-adv-x="670" arabic-form="isolated" 
d="M464 220v536h148v-573c0 -111 -63 -183 -186 -183h-406v129h173v421h148v-421h43c57 0 80 30 80 91zM267 -167c0 -9 3 -17 8 -26h79v-66h-178v66h33c-8 13 -12 27 -12 42c0 48 36 80 95 80c19 0 36 -2 53 -7l-12 -64c-11 3 -21 4 -31 4c-23 0 -35 -10 -35 -29z" />
    <glyph glyph-name="uniFEFA" unicode="&#xfee0;&#xfe88;" horiz-adv-x="701" arabic-form="final" 
d="M701 129c13 0 20 -23 20 -69c0 -40 -7 -60 -20 -60c-63 0 -108 17 -135 52c-31 -35 -78 -52 -140 -52h-406v129h173v421h148v-421h43c57 0 80 30 80 91v536h148v-535c0 -61 30 -92 89 -92zM267 -167c0 -9 3 -17 8 -26h79v-66h-178v66h33c-8 13 -12 27 -12 42
c0 48 36 80 95 80c19 0 36 -2 53 -7l-12 -64c-11 3 -21 4 -31 4c-23 0 -35 -10 -35 -29z" />
    <glyph glyph-name="uniFEFB" unicode="&#xfedf;&#xfe8e;" horiz-adv-x="670" arabic-form="isolated" 
d="M464 220v536h148v-573c0 -111 -63 -183 -186 -183h-406v129h173v421h148v-421h43c57 0 80 30 80 91z" />
    <glyph glyph-name="uniFEFC" unicode="&#xfee0;&#xfe8e;" horiz-adv-x="701" arabic-form="final" 
d="M701 129c13 0 20 -23 20 -69c0 -40 -7 -60 -20 -60c-63 0 -108 17 -135 52c-31 -35 -78 -52 -140 -52h-406v129h173v421h148v-421h43c57 0 80 30 80 91v536h148v-535c0 -61 30 -92 89 -92z" />
    <glyph glyph-name="uni06440671" unicode="&#xfedf;&#xfb51;" horiz-adv-x="670" 
d="M403 702c0 -24 -5 -49 -16 -75h-254v65h40v100h61v-40c24 29 52 43 83 43c52 0 86 -36 86 -93zM464 220v536h148v-573c0 -111 -63 -183 -186 -183h-406v129h173v421h148v-421h43c57 0 80 30 80 91zM299 729c-25 0 -48 -12 -69 -37h104c1 4 2 7 2 8c0 16 -14 29 -37 29z
" />
    <glyph glyph-name="uni06440671.fina" unicode="&#xfee0;&#xfb51;" horiz-adv-x="701" 
d="M403 702c0 -24 -5 -49 -16 -75h-254v65h40v100h61v-40c24 29 52 43 83 43c52 0 86 -36 86 -93zM701 129c13 0 20 -23 20 -69c0 -40 -7 -60 -20 -60c-63 0 -108 17 -135 52c-31 -35 -78 -52 -140 -52h-406v129h173v421h148v-421h43c57 0 80 30 80 91v536h148v-535
c0 -61 30 -92 89 -92zM299 729c-25 0 -48 -12 -69 -37h104c1 4 2 7 2 8c0 16 -14 29 -37 29z" />
    <glyph glyph-name="uni066E.fina" unicode="&#x66e;" horiz-adv-x="1013" 
d="M1013 129c13 0 20 -23 20 -69c0 -40 -7 -60 -20 -60c-60 0 -103 15 -130 45c-29 -30 -72 -45 -129 -45h-474h-1c-80 0 -143 20 -189 59c-47 39 -70 89 -70 151c0 51 11 105 32 162l127 -33c-11 -46 -16 -79 -16 -98c0 -69 55 -112 140 -112h397c56 0 76 23 76 84v213h148
v-205c0 -61 30 -92 89 -92z" />
    <glyph glyph-name="uni066F.fina" unicode="&#x66f;" horiz-adv-x="828" 
d="M760 129h68c13 0 20 -23 20 -69c0 -40 -7 -60 -20 -60h-81c-36 -122 -153 -183 -352 -183c-257 0 -385 84 -385 251c0 43 9 90 27 141l135 -36c-7 -29 -10 -56 -10 -81c0 -41 9 -69 41 -98c31 -28 97 -43 194 -43c118 0 188 16 211 49h-49c-169 0 -252 79 -252 207
c0 64 22 118 67 163c44 45 100 67 168 67c73 0 127 -20 164 -61c36 -41 54 -91 54 -152v-95zM551 129h61v75c0 66 -26 99 -77 99c-45 0 -76 -37 -76 -88c0 -55 31 -86 92 -86z" />
    <glyph glyph-name="uni06A1.init" unicode="&#x6a1;" horiz-adv-x="589" 
d="M313 437c184 0 235 -141 235 -224c0 -70 -13 -141 -40 -213h-508v129h77c-9 25 -13 50 -13 77c0 67 22 123 67 166s105 65 182 65zM228 129h164c5 23 7 46 7 68c0 61 -28 106 -89 106c-63 0 -98 -37 -98 -94c0 -26 5 -53 16 -80z" />
    <glyph glyph-name="uni06A1.medi" unicode="&#x6a1;" horiz-adv-x="595" 
d="M512 129h83c13 0 20 -23 20 -69c0 -40 -7 -60 -20 -60h-112c-64 0 -126 4 -185 13c-63 -9 -121 -13 -172 -13h-126v129h92c-19 30 -28 64 -28 101c0 56 22 105 65 146s102 61 178 61c74 0 132 -20 175 -59c42 -40 63 -87 63 -142c0 -37 -11 -73 -33 -107zM303 130
c19 1 39 11 61 30c21 19 32 40 32 65c0 44 -35 78 -91 78c-55 0 -93 -32 -93 -77c0 -23 11 -44 32 -63s40 -30 59 -33z" />
    <glyph glyph-name="uni06A1.fina" unicode="&#x6a1;" horiz-adv-x="1106" 
d="M1023 129h83c13 0 20 -23 20 -69c0 -40 -7 -60 -20 -60h-112c-64 0 -126 4 -185 13c-63 -9 -121 -13 -172 -13h-348c-80 0 -143 20 -189 59c-47 39 -70 89 -70 151c0 51 11 105 32 162l127 -33c-11 -46 -16 -79 -16 -98c0 -69 55 -112 140 -112h290
c-19 30 -28 64 -28 101c0 56 22 105 65 146s102 61 178 61c74 0 132 -20 175 -59c42 -40 63 -87 63 -142c0 -37 -11 -73 -33 -107zM814 130c19 1 39 11 61 30c21 19 32 40 32 65c0 44 -35 78 -91 78c-55 0 -93 -32 -93 -77c0 -23 11 -44 32 -63s40 -30 59 -33z" />
    <glyph glyph-name="uni06C2.fina" unicode="&#x6c2;" horiz-adv-x="540" 
d="M280 605h101v-85h-226v85h42c-10 17 -15 34 -15 53c0 60 47 101 120 101c24 0 46 -2 67 -7l-14 -83c-12 3 -25 5 -40 5c-30 0 -45 -12 -45 -36c0 -11 3 -22 10 -33zM540 129c13 0 20 -23 20 -69c0 -40 -7 -60 -20 -60h-65c-115 0 -173 61 -173 182v86h-29
c-71 0 -106 -27 -106 -82c0 -24 9 -46 27 -67l-110 -87c-44 42 -66 93 -66 154c0 63 22 116 65 158s107 63 190 63h185v-205c0 -31 5 -51 14 -60s32 -13 68 -13z" />
    <glyph glyph-name="uni06C3.fina" unicode="&#x6c3;" horiz-adv-x="568" 
d="M253 564c-28 -29 -78 -29 -106 0c-29 28 -29 78 0 106c28 28 78 28 106 0c27 -28 27 -78 0 -106zM380 542c-43 0 -75 32 -75 75s32 74 75 74s73 -31 73 -74s-32 -75 -73 -75zM568 129c13 0 20 -23 20 -69c0 -40 -7 -60 -20 -60c-86 0 -144 12 -175 37
c-42 -20 -88 -30 -137 -30c-67 0 -122 17 -167 52s-68 84 -68 149c0 59 23 110 69 153s113 65 201 65h205v-219c0 -59 16 -78 72 -78zM340 151v146h-69c-64 0 -102 -30 -102 -79c0 -51 36 -76 108 -76c27 0 48 3 63 9z" />
    <glyph glyph-name="uni06D5.fina" unicode="&#x6d5;" horiz-adv-x="568" 
d="M568 129c13 0 20 -23 20 -69c0 -40 -7 -60 -20 -60c-86 0 -144 12 -175 37c-42 -20 -88 -30 -137 -30c-67 0 -122 17 -167 52s-68 84 -68 149c0 59 23 110 69 153s113 65 201 65h205v-219c0 -59 16 -78 72 -78zM340 151v146h-69c-64 0 -102 -30 -102 -79
c0 -51 36 -76 108 -76c27 0 48 3 63 9z" />
    <glyph glyph-name="uniFB51" unicode="&#x671;" horiz-adv-x="292" arabic-form="final" 
d="M268 877c0 -24 -5 -49 -16 -75h-254v65h40v100h61v-40c24 29 52 43 83 43c52 0 86 -36 86 -93zM164 904c-25 0 -48 -12 -69 -37h104c1 4 2 7 2 8c0 16 -14 29 -37 29zM292 129c13 0 20 -23 20 -69c0 -40 -7 -60 -20 -60c-172 0 -234 60 -234 196v560h148v-558
c0 -48 25 -69 86 -69z" />
    <glyph glyph-name="uniFB57" unicode="&#x67e;" horiz-adv-x="1013" arabic-form="final" 
d="M1013 129c13 0 20 -23 20 -69c0 -40 -7 -60 -20 -60c-60 0 -103 15 -130 45c-29 -30 -72 -45 -129 -45h-474h-1c-80 0 -143 20 -189 59c-47 39 -70 89 -70 151c0 51 11 105 32 162l127 -33c-11 -46 -16 -79 -16 -98c0 -69 55 -112 140 -112h397c56 0 76 23 76 84v213h148
v-205c0 -61 30 -92 89 -92zM435 -100c27 -28 27 -78 0 -106c-28 -28 -78 -28 -106 0c-29 28 -29 78 0 106c28 29 78 29 106 0zM562 -78c41 0 73 -32 73 -75s-30 -74 -73 -74s-75 31 -75 74s32 75 75 75zM474 -228c44 0 73 -32 73 -76c0 -43 -29 -73 -73 -73
c-43 0 -75 32 -75 73c0 44 32 76 75 76z" />
    <glyph glyph-name="uniFB58" unicode="&#x67e;" horiz-adv-x="312" arabic-form="initial" 
d="M33 0h-33v129h29c40 0 66 7 79 21c12 14 18 42 18 85v191h148v-209c0 -81 -18 -138 -54 -169c-37 -32 -99 -48 -187 -48zM129 -206c-28 -28 -78 -28 -106 0c-29 28 -29 78 0 106c28 29 78 29 106 0c27 -28 27 -78 0 -106zM309 -206c-42 -45 -134 -13 -128 53
c0 43 32 75 75 75c64 5 97 -86 53 -128zM168 -377c-43 0 -75 32 -75 73c0 44 32 76 75 76c44 0 73 -32 73 -76c0 -43 -29 -73 -73 -73z" />
    <glyph glyph-name="uniFB59" unicode="&#x67e;" horiz-adv-x="363" arabic-form="medial" 
d="M363 129c13 0 20 -23 20 -69c0 -40 -7 -60 -20 -60c-65 0 -111 18 -137 54c-35 -36 -100 -54 -193 -54h-33v129h29c40 0 66 7 79 21c12 14 18 42 18 85v191h148v-205c0 -61 30 -92 89 -92zM142 -100c27 -28 27 -78 0 -106c-28 -28 -78 -28 -106 0c-29 28 -29 78 0 106
c28 29 78 29 106 0zM269 -78c41 0 73 -32 73 -75s-30 -74 -73 -74s-75 31 -75 74s32 75 75 75zM181 -228c44 0 73 -32 73 -76c0 -43 -29 -73 -73 -73c-43 0 -75 32 -75 73c0 44 32 76 75 76z" />
    <glyph glyph-name="uniFB67" unicode="&#x679;" horiz-adv-x="1013" arabic-form="final" 
d="M622 518c0 -25 -6 -53 -18 -85h-288v73h45v172h68v-95c23 32 53 48 89 48c63 0 104 -44 104 -113zM509 558c-30 0 -57 -17 -80 -52h117c1 3 1 7 1 12c0 25 -15 40 -38 40zM1013 129c13 0 20 -23 20 -69c0 -40 -7 -60 -20 -60c-60 0 -103 15 -130 45
c-29 -30 -72 -45 -129 -45h-474h-1c-80 0 -143 20 -189 59c-47 39 -70 89 -70 151c0 51 11 105 32 162l127 -33c-11 -46 -16 -79 -16 -98c0 -69 55 -112 140 -112h397c56 0 76 23 76 84v213h148v-205c0 -61 30 -92 89 -92z" />
    <glyph glyph-name="uniFB68" unicode="&#x679;" horiz-adv-x="281" arabic-form="initial" 
d="M195 744c63 0 104 -44 104 -113c0 -25 -6 -53 -18 -85h-288v73h45v172h68v-95c23 32 53 48 89 48zM186 671c-30 0 -57 -17 -80 -52h117c1 3 1 7 1 12c0 25 -15 40 -38 40zM87 235v191h148v-209c0 -82 -18 -139 -55 -170s-97 -47 -180 -47v129c35 0 58 7 70 21
c11 13 17 42 17 85z" />
    <glyph glyph-name="uniFB69" unicode="&#x679;" horiz-adv-x="324" arabic-form="medial" 
d="M299 631c0 -25 -6 -53 -18 -85h-288v73h45v172h68v-95c23 32 53 48 89 48c63 0 104 -44 104 -113zM186 671c-30 0 -57 -17 -80 -52h117c1 3 1 7 1 12c0 25 -15 40 -38 40zM324 129c13 0 20 -23 20 -69c0 -40 -7 -60 -20 -60c-65 0 -111 18 -137 54
c-34 -36 -96 -54 -187 -54v129c35 0 58 7 70 21c11 13 17 42 17 85v191h148v-205c0 -61 30 -92 89 -92z" />
    <glyph glyph-name="uniFB6B" unicode="&#x6a4;" horiz-adv-x="1106" arabic-form="final" 
d="M820 694c-41 0 -73 34 -73 75c0 43 32 76 73 76c44 0 74 -33 74 -76s-30 -75 -74 -75zM780 563c-28 -29 -78 -29 -106 0c-29 29 -29 79 0 107c43 45 132 13 126 -53c0 -22 -7 -40 -20 -54zM854 563c-29 29 -29 79 0 107c28 28 78 28 106 0c44 -42 11 -134 -53 -129
c-21 0 -39 7 -53 22zM1023 129h83c13 0 20 -23 20 -69c0 -40 -7 -60 -20 -60h-112c-64 0 -126 4 -185 13c-63 -9 -121 -13 -172 -13h-348c-80 0 -143 20 -189 59c-47 39 -70 89 -70 151c0 51 11 105 32 162l127 -33c-11 -46 -16 -79 -16 -98c0 -69 55 -112 140 -112h290
c-19 30 -28 64 -28 101c0 56 22 105 65 146s102 61 178 61c74 0 132 -20 175 -59c42 -40 63 -87 63 -142c0 -37 -11 -73 -33 -107zM814 130c19 1 39 11 61 30c21 19 32 40 32 65c0 44 -35 78 -91 78c-55 0 -93 -32 -93 -77c0 -23 11 -44 32 -63s40 -30 59 -33z" />
    <glyph glyph-name="uniFB6C" unicode="&#x6a4;" horiz-adv-x="589" arabic-form="initial" 
d="M315 694c-41 0 -73 34 -73 75c0 43 32 76 73 76c44 0 74 -33 74 -76s-30 -75 -74 -75zM275 563c-28 -29 -78 -29 -106 0c-29 29 -29 79 0 107c43 45 132 13 126 -53c0 -22 -7 -40 -20 -54zM349 563c-29 29 -29 79 0 107c28 28 78 28 106 0c44 -42 11 -134 -53 -129
c-21 0 -39 7 -53 22zM313 437c184 0 235 -141 235 -224c0 -70 -13 -141 -40 -213h-508v129h77c-9 25 -13 50 -13 77c0 67 22 123 67 166s105 65 182 65zM228 129h164c5 23 7 46 7 68c0 61 -28 106 -89 106c-63 0 -98 -37 -98 -94c0 -26 5 -53 16 -80z" />
    <glyph glyph-name="uniFB6D" unicode="&#x6a4;" horiz-adv-x="595" arabic-form="medial" 
d="M309 694c-41 0 -73 34 -73 75c0 43 32 76 73 76c44 0 74 -33 74 -76s-30 -75 -74 -75zM269 563c-28 -29 -78 -29 -106 0c-29 29 -29 79 0 107c43 45 132 13 126 -53c0 -22 -7 -40 -20 -54zM343 563c-29 29 -29 79 0 107c28 28 78 28 106 0c44 -42 11 -134 -53 -129
c-21 0 -39 7 -53 22zM512 129h83c13 0 20 -23 20 -69c0 -40 -7 -60 -20 -60h-112c-64 0 -126 4 -185 13c-63 -9 -121 -13 -172 -13h-126v129h92c-19 30 -28 64 -28 101c0 56 22 105 65 146s102 61 178 61c74 0 132 -20 175 -59c42 -40 63 -87 63 -142
c0 -37 -11 -73 -33 -107zM303 130c19 1 39 11 61 30c21 19 32 40 32 65c0 44 -35 78 -91 78c-55 0 -93 -32 -93 -77c0 -23 11 -44 32 -63s40 -30 59 -33z" />
    <glyph glyph-name="uniFB7B" unicode="&#x686;" horiz-adv-x="606" arabic-form="final" 
d="M554 129h52c13 0 20 -23 20 -69c0 -40 -7 -60 -20 -60h-359c-45 0 -74 -26 -74 -67s35 -67 75 -67h1l6 -126h-2c-67 0 -123 17 -166 50c-44 34 -66 80 -66 137c0 127 85 202 222 202h173v3c0 124 -43 171 -144 171c-31 0 -63 -4 -96 -11l-32 122c39 15 84 23 136 23
c183 0 274 -95 274 -286v-22zM382 -81c0 -31 -22 -52 -51 -52c-47 0 -71 57 -37 89c33 33 88 8 88 -37zM420 -44c33 33 88 8 88 -37c0 -29 -22 -52 -51 -52c-47 0 -71 57 -37 89zM395 -134c31 0 51 -22 51 -53c0 -29 -20 -51 -51 -51c-29 0 -52 22 -52 51c0 31 23 53 52 53z
" />
    <glyph glyph-name="uniFB7C" unicode="&#x686;" horiz-adv-x="473" arabic-form="initial" 
d="M414 0h-414v129h281c13 101 -22 174 -135 174c-30 0 -62 -4 -95 -11l-33 122c42 15 88 23 137 23c233 0 319 -146 259 -437zM167 -206c-28 -28 -78 -28 -106 0c-29 28 -29 78 0 106c28 29 78 29 106 0c27 -28 27 -78 0 -106zM347 -206c-42 -45 -134 -13 -128 53
c0 43 32 75 75 75c64 5 97 -86 53 -128zM206 -377c-43 0 -75 32 -75 73c0 44 32 76 75 76c44 0 73 -32 73 -76c0 -43 -29 -73 -73 -73z" />
    <glyph glyph-name="uniFB7D" unicode="&#x686;" horiz-adv-x="471" arabic-form="medial" 
d="M431 129h40c13 0 20 -23 20 -69c0 -40 -7 -60 -20 -60h-471v129h281c13 101 -22 174 -135 174c-30 0 -62 -4 -95 -11l-33 122c42 15 88 23 137 23c195 0 287 -103 276 -308zM167 -100c27 -28 27 -78 0 -106c-28 -28 -78 -28 -106 0c-29 28 -29 78 0 106
c28 29 78 29 106 0zM294 -78c41 0 73 -32 73 -75s-30 -74 -73 -74s-75 31 -75 74s32 75 75 75zM206 -228c44 0 73 -32 73 -76c0 -43 -29 -73 -73 -73c-43 0 -75 32 -75 73c0 44 32 76 75 76z" />
    <glyph glyph-name="uniFB89" unicode="&#x688;" horiz-adv-x="509" arabic-form="final" 
d="M320 612c0 -25 -6 -53 -18 -85h-288v73h45v172h68v-95c23 32 53 48 89 48c63 0 104 -44 104 -113zM207 652c-30 0 -57 -17 -80 -52h117c1 3 1 7 1 12c0 25 -15 40 -38 40zM456 129h53c13 0 20 -23 20 -69c0 -40 -7 -60 -20 -60h-479v129h280c-3 41 -23 82 -60 122
s-72 70 -107 90l90 119c77 -50 132 -101 165 -154s52 -112 58 -177z" />
    <glyph glyph-name="uniFB8B" unicode="&#x698;" horiz-adv-x="337" arabic-form="final" 
d="M185 683c-41 0 -73 34 -73 75c0 43 32 76 73 76c44 0 74 -33 74 -76s-30 -75 -74 -75zM145 552c-28 -29 -78 -29 -106 0c-29 29 -29 79 0 107c43 45 132 13 126 -53c0 -22 -7 -40 -20 -54zM219 552c-29 29 -29 79 0 107c28 28 78 28 106 0c44 -42 11 -134 -53 -129
c-21 0 -39 7 -53 22zM258 129h79c13 0 20 -23 20 -69c0 -40 -7 -60 -20 -60h-83c-17 -127 -93 -184 -241 -191l-18 125c85 9 115 33 115 98v394h148v-297z" />
    <glyph glyph-name="uniFB8D" unicode="&#x691;" horiz-adv-x="337" arabic-form="final" 
d="M321 631c0 -25 -6 -53 -18 -85h-288v73h45v172h68v-95c23 32 53 48 89 48c63 0 104 -44 104 -113zM208 671c-30 0 -57 -17 -80 -52h117c1 3 1 7 1 12c0 25 -15 40 -38 40zM258 129h79c13 0 20 -23 20 -69c0 -40 -7 -60 -20 -60h-83c-17 -127 -93 -184 -241 -191l-18 125
c85 9 115 33 115 98v394h148v-297z" />
    <glyph glyph-name="uniFB8F" unicode="&#x6a9;" horiz-adv-x="890" arabic-form="final" 
d="M829 129h61c13 0 20 -23 20 -69c0 -40 -7 -60 -20 -60h-610h-1c-80 0 -143 20 -189 59c-47 39 -70 89 -70 151c0 51 11 105 32 162l127 -33c-11 -46 -16 -79 -16 -98c0 -69 55 -112 140 -112h379c-1 77 -21 123 -100 165c-40 21 -95 38 -166 51v139l283 273l96 -98
l-230 -222c107 -31 177 -73 213 -129s48 -106 51 -179z" />
    <glyph glyph-name="uniFB90" unicode="&#x6a9;" horiz-adv-x="478" arabic-form="initial" 
d="M403 659l-230 -222c143 -44 211 -100 241 -179c20 -56 24 -97 24 -165v-93h-438v129h290c-1 77 -21 123 -100 165c-40 21 -95 38 -166 51v139l283 273z" />
    <glyph glyph-name="uniFB91" unicode="&#x6a9;" horiz-adv-x="504" arabic-form="medial" 
d="M437 129h67c13 0 20 -23 20 -69c0 -40 -7 -60 -20 -60h-504v129h290c-1 77 -21 123 -100 165c-40 21 -95 38 -166 51v139l283 273l96 -98l-230 -222c107 -31 177 -73 213 -129s48 -106 51 -179z" />
    <glyph glyph-name="uniFB93" unicode="&#x6af;" horiz-adv-x="890" arabic-form="final" 
d="M592 866l68 -69l-261 -250l-69 69zM829 129h61c13 0 20 -23 20 -69c0 -40 -7 -60 -20 -60h-610h-1c-80 0 -143 20 -189 59c-47 39 -70 89 -70 151c0 51 11 105 32 162l127 -33c-11 -46 -16 -79 -16 -98c0 -69 55 -112 140 -112h379c-1 77 -21 123 -100 165
c-40 21 -95 38 -166 51v139l283 273l96 -98l-230 -222c107 -31 177 -73 213 -129s48 -106 51 -179z" />
    <glyph glyph-name="uniFB94" unicode="&#x6af;" horiz-adv-x="478" arabic-form="initial" 
d="M200 866l68 -69l-261 -250l-69 69zM403 659l-230 -222c143 -44 211 -100 241 -179c20 -56 24 -97 24 -165v-93h-438v129h290c-1 77 -21 123 -100 165c-40 21 -95 38 -166 51v139l283 273z" />
    <glyph glyph-name="uniFB95" unicode="&#x6af;" horiz-adv-x="504" arabic-form="medial" 
d="M200 866l68 -69l-261 -250l-69 69zM437 129h67c13 0 20 -23 20 -69c0 -40 -7 -60 -20 -60h-504v129h290c-1 77 -21 123 -100 165c-40 21 -95 38 -166 51v139l283 273l96 -98l-230 -222c107 -31 177 -73 213 -129s48 -106 51 -179z" />
    <glyph glyph-name="uniFB9F" unicode="&#x6ba;" horiz-adv-x="656" arabic-form="final" 
d="M585 129h71c13 0 20 -23 20 -69c0 -40 -7 -60 -20 -60h-78c-27 -124 -130 -183 -278 -183c-197 -1 -280 136 -280 251c0 57 15 120 46 190l129 -46c-18 -48 -27 -89 -27 -124c0 -85 51 -137 135 -137c88 0 134 41 134 156v246h148v-224z" />
    <glyph glyph-name="uniFBA7" unicode="&#x6c1;" horiz-adv-x="578" arabic-form="final" 
d="M143 -22l-113 48c79 182 173 273 283 273c65 0 109 -28 156 -100c20 -29 37 -47 51 -56c13 -9 33 -14 58 -14c13 0 20 -23 20 -69c0 -40 -7 -60 -20 -60c-55 0 -98 8 -127 23s-57 43 -84 84c-31 48 -46 63 -67 63c-44 0 -105 -76 -157 -192z" />
    <glyph glyph-name="uniFBA8" unicode="&#x6c1;" horiz-adv-x="281" arabic-form="initial" 
d="M0 0v129c35 0 58 7 70 21c11 13 17 42 17 85v191h148v-209c0 -82 -18 -139 -55 -170s-97 -47 -180 -47zM196 -247l-109 -50c-27 41 -41 88 -41 142c0 41 7 78 22 113l94 -19c-5 -20 -8 -40 -8 -59c0 -45 14 -87 42 -127z" />
    <glyph glyph-name="uniFBA9" unicode="&#x6c1;" horiz-adv-x="521" arabic-form="medial" 
d="M513 129h8c13 0 20 -23 20 -69c0 -40 -7 -60 -20 -60h-6c-117 0 -166 -53 -166 -185c0 -24 1 -43 2 -56c-8 -1 -20 -1 -35 -1c-83 0 -152 18 -207 55s-83 87 -83 150c0 11 1 24 3 37h-29v129h199c-23 -59 -34 -106 -34 -141c0 -53 23 -87 69 -102c4 162 97 243 279 243z
" />
    <glyph glyph-name="uniFBAB" unicode="&#x6be;" horiz-adv-x="721" arabic-form="final" 
d="M663 129h58c13 0 20 -23 20 -69c0 -40 -7 -60 -20 -60h-63c18 -29 27 -58 27 -86c0 -92 -74 -154 -202 -154c-168 0 -236 74 -236 209v31h-5c-85 0 -155 10 -212 29l30 126c56 -17 117 -26 183 -26h4v51c0 75 20 136 59 183c39 46 94 69 164 69c79 0 140 -32 169 -77
s43 -90 43 -131c0 -34 -6 -66 -19 -95zM395 209v-80h40c66 0 99 31 99 93c0 43 -22 76 -66 76c-45 0 -73 -34 -73 -89zM473 -106c43 0 64 17 64 52c0 19 -6 37 -17 54h-125v-18c0 -60 22 -88 78 -88z" />
    <glyph glyph-name="uniFBAC" unicode="&#x6be;" horiz-adv-x="647" arabic-form="initial" 
d="M34 346l17 115c93 -3 157 -7 239 -19c82 -13 137 -31 195 -64c82 -47 131 -128 131 -250c0 -37 -5 -80 -15 -128h-257c-45 0 -84 7 -117 20c-29 -13 -69 -20 -120 -20h-107v129h71c-15 27 -23 59 -23 95c0 49 14 89 43 120c-13 0 -45 2 -57 2zM229 131
c43 25 65 60 65 107s-23 76 -62 76c-37 0 -62 -29 -62 -76c0 -44 20 -80 59 -107zM493 143c0 61 -29 108 -87 139c7 -17 10 -36 10 -55c0 -35 -8 -68 -24 -98h100c1 3 1 8 1 14z" />
    <glyph glyph-name="uniFBAD" unicode="&#x6be;" horiz-adv-x="515" arabic-form="medial" 
d="M454 129h61c13 0 20 -23 20 -69c0 -40 -7 -60 -20 -60h-63c18 -29 27 -58 27 -86c0 -92 -74 -154 -202 -154c-168 0 -236 74 -236 209v31h-41v129h41v51c0 75 20 136 59 183c39 46 94 69 164 69c79 0 140 -32 169 -77s43 -90 43 -131c0 -32 -7 -64 -22 -95zM189 209v-83
h40c61 0 99 32 99 96c0 43 -22 76 -66 76c-45 0 -73 -34 -73 -89zM267 -106c43 0 64 17 64 52c0 19 -6 37 -17 54h-125v-18c0 -60 22 -88 78 -88z" />
    <glyph glyph-name="uniFBAF" unicode="&#x6d2;" horiz-adv-x="441" arabic-form="final" 
d="M363 -260c-129 0 -218 15 -269 45c-51 31 -76 80 -76 147c0 137 94 197 287 197h136c13 0 20 -23 20 -69c0 -40 -7 -60 -20 -60h-145c-92 0 -138 -21 -138 -64c0 -23 16 -39 47 -50s92 -16 181 -16c124 0 247 9 369 28l5 -128c-128 -20 -260 -30 -397 -30z" />
    <glyph glyph-name="uniFBB1" unicode="&#x6d3;" horiz-adv-x="441" arabic-form="final" 
d="M282 327h101v-85h-226v85h42c-10 17 -15 34 -15 53c0 60 47 101 120 101c24 0 46 -2 67 -7l-14 -83c-12 3 -25 5 -40 5c-30 0 -45 -12 -45 -36c0 -11 3 -22 10 -33zM755 -102l5 -128c-128 -20 -260 -30 -397 -30c-129 0 -218 15 -269 45c-51 31 -76 80 -76 147
c0 137 94 197 287 197h136c13 0 20 -23 20 -69c0 -40 -7 -60 -20 -60h-145c-92 0 -138 -21 -138 -64c0 -23 16 -39 47 -50s92 -16 181 -16c124 0 247 9 369 28z" />
    <glyph glyph-name="uniFBE8" unicode="&#x649;" horiz-adv-x="281" arabic-form="initial" 
d="M0 0v129c35 0 58 7 70 21c11 13 17 42 17 85v191h148v-209c0 -82 -18 -139 -55 -170s-97 -47 -180 -47z" />
    <glyph glyph-name="uniFBE9" unicode="&#x649;" horiz-adv-x="324" arabic-form="medial" 
d="M324 129c13 0 20 -23 20 -69c0 -40 -7 -60 -20 -60c-65 0 -111 18 -137 54c-34 -36 -96 -54 -187 -54v129c35 0 58 7 70 21c11 13 17 42 17 85v191h148v-205c0 -61 30 -92 89 -92z" />
    <glyph glyph-name="uniFBFD" unicode="&#x6cc;" horiz-adv-x="773" arabic-form="final" 
d="M662 129h111c13 0 20 -23 20 -69c0 -40 -7 -60 -20 -60h-38c20 -23 30 -50 30 -83c0 -50 -33 -92 -100 -126s-159 -51 -276 -51c-255 0 -379 97 -379 252c0 40 9 87 27 141l131 -35c-7 -34 -10 -62 -10 -84c0 -93 65 -130 241 -130c145 0 218 28 218 71
c0 31 -26 53 -77 66l-149 39l37 110l135 -32c26 -6 59 -9 99 -9z" />
    <glyph glyph-name="uniFBFE" unicode="&#x6cc;" horiz-adv-x="350" arabic-form="initial" 
d="M33 0h-33v129h29c40 0 66 7 79 21c12 14 18 42 18 85v191h148v-209c0 -81 -18 -138 -54 -169c-37 -32 -99 -48 -187 -48zM129 -206c-42 -44 -134 -11 -128 53c0 43 32 76 75 76s73 -32 73 -76c0 -21 -7 -39 -20 -53zM309 -205c-42 -46 -134 -12 -128 52c0 43 32 76 75 76
c41 0 73 -33 73 -76c0 -21 -7 -38 -20 -52z" />
    <glyph glyph-name="uniFBFF" unicode="&#x6cc;" horiz-adv-x="363" arabic-form="medial" 
d="M363 129c13 0 20 -23 20 -69c0 -40 -7 -60 -20 -60c-65 0 -111 18 -137 54c-35 -36 -100 -54 -193 -54h-33v129h29c40 0 66 7 79 21c12 14 18 42 18 85v191h148v-205c0 -61 30 -92 89 -92zM36 -99c43 47 132 13 126 -54c0 -43 -30 -73 -73 -73s-75 32 -75 73
c0 21 7 39 22 54zM269 -77c41 0 73 -33 73 -76c0 -41 -32 -73 -73 -73c-43 0 -75 32 -75 73c0 43 32 76 75 76z" />
    <glyph glyph-name="uniFDFA" unicode="&#xfdfa;" horiz-adv-x="1166" arabic-form="isolated" 
d="M267 706c-20 0 -30 11 -30 33c0 8 1 16 4 24l28 -5c-5 -13 5 -22 7 -11v8l27 3c1 -5 1 -10 1 -16h3c3 0 5 2 5 7c0 4 -1 8 -2 12l32 9c5 -11 7 -22 7 -31c0 -21 -14 -32 -31 -32c-8 0 -16 2 -23 7c-7 -5 -16 -8 -28 -8zM172 477c-15 -7 -35 -11 -60 -11s-45 7 -60 22
c-16 14 -24 33 -24 58c0 63 41 95 122 95h79v-76c0 -8 4 -12 11 -12c9 0 10 2 10 14v130h91v-132c0 -8 3 -12 10 -12s11 7 11 20v178h92v-190c0 -77 -26 -96 -103 -96c-22 0 -38 4 -49 11c-12 -7 -34 -11 -67 -11c-29 0 -50 4 -63 12zM580 348c-91 0 -137 36 -137 96
c0 15 5 31 14 49l85 -16c-3 -5 -4 -11 -4 -16c0 -16 16 -24 47 -24c39 0 59 8 59 25c0 8 -6 12 -50 25l24 77c30 -7 54 -11 72 -11c12 0 16 5 16 24v174h90v-186c0 -8 4 -12 11 -12s10 4 10 12v63h92v-64c0 -7 4 -11 12 -11c31 67 76 101 133 101c67 0 100 -36 100 -109
c0 -22 -4 -49 -12 -80h-216c-21 0 -39 4 -56 11c-13 -7 -33 -11 -60 -11c-18 0 -31 4 -40 11c-13 -7 -26 -11 -40 -11c6 -7 9 -17 9 -28c0 -49 -62 -89 -159 -89zM478 751h92v-246h-92v246zM143 573h-4c-16 0 -24 -5 -24 -14s6 -14 18 -14h10v28zM1047 573
c-13 0 -24 -7 -34 -20h52v1c0 13 -6 19 -18 19zM1095 272h64v-88h-261c-23 0 -40 4 -51 11c-12 -7 -34 -11 -66 -11h-170v-182c0 -7 4 -11 12 -11h5c5 0 7 2 7 6v63h92v-65c0 -3 2 -4 7 -4s8 2 8 5v64h91v-66c0 -4 16 -4 16 1v91h91v-120c0 -42 -27 -63 -82 -63
c-16 0 -32 4 -49 11c-15 -7 -33 -11 -53 -11c-23 0 -42 4 -57 11c-17 -7 -38 -11 -63 -11h-13c-22 0 -39 4 -51 11c-13 -7 -36 -11 -67 -11h-173c-16 -23 -43 -35 -80 -35h-71c-9 10 -17 22 -22 35h-4c-9 0 -13 -6 -13 -19v-74h-87v94c0 58 28 87 83 87h11
c11 47 49 76 105 76c49 0 87 -27 95 -76h152c15 0 19 5 19 21v172h-137c-23 0 -40 4 -51 11c-13 -7 -37 -11 -72 -11h-18c-29 0 -50 4 -63 12c-15 -7 -35 -11 -60 -11s-45 7 -60 22c-16 14 -24 33 -24 58c0 63 40 95 121 95h80v-66c0 -15 6 -22 18 -22h3c19 0 23 4 23 23v65
h92v-69c0 -13 6 -19 18 -19h130v50h91v-50h167c11 0 17 8 17 23v143h92v-153c0 -9 5 -13 14 -13h99c-3 12 -4 20 -4 23c0 48 36 78 97 78c18 0 37 -3 56 -8l-16 -76c-8 2 -16 3 -24 3c-11 0 -16 -4 -16 -11c0 -3 1 -6 2 -9zM140 264h10v28h-4c-16 0 -24 -5 -24 -14
s6 -14 18 -14zM313 126c0 -23 -17 -40 -40 -40c-25 0 -42 17 -42 40c0 24 17 42 42 42c23 0 40 -18 40 -42zM364 86c-25 0 -42 17 -42 40c0 24 17 42 42 42c23 0 39 -18 39 -42c0 -23 -16 -40 -39 -40zM1059 90c64 0 96 -34 96 -103v-57c0 -81 -44 -115 -141 -115
c-9 0 -20 0 -35 1l-5 82c57 -6 91 2 89 21c-4 -1 -11 -1 -20 -1c-49 0 -84 32 -84 88c0 51 37 84 100 84zM1057 -14h15v11c0 13 -5 20 -15 20s-15 -5 -15 -16c0 -10 5 -15 15 -15zM233 -55h11c17 0 25 7 25 21c0 13 -7 20 -20 20s-19 -7 -19 -22c0 -6 1 -12 3 -19z" />
    <glyph glyph-name="uniFE82" unicode="&#x622;" horiz-adv-x="292" arabic-form="final" 
d="M205 801c-19 0 -48 5 -87 14s-62 13 -71 13c-15 0 -31 -6 -47 -17l-42 58c28 28 58 42 90 42c13 0 38 -5 75 -14c37 -10 63 -15 78 -15c16 0 33 8 50 23l47 -51c-27 -35 -58 -53 -93 -53zM292 0c-172 0 -234 60 -234 196v560h148v-558c0 -48 25 -69 86 -69
c13 0 20 -23 20 -69c0 -40 -7 -60 -20 -60z" />
    <glyph glyph-name="uniFE84" unicode="&#x623;" horiz-adv-x="292" arabic-form="final" 
d="M138 866h80v-67h-178v67h32c-7 13 -11 27 -11 41c0 48 36 80 95 80c19 0 36 -2 53 -7l-12 -64c-11 3 -21 4 -31 4c-23 0 -35 -10 -35 -29c0 -7 2 -16 7 -25zM292 129c13 0 20 -23 20 -69c0 -40 -7 -60 -20 -60c-172 0 -234 60 -234 196v560h148v-558c0 -48 25 -69 86 -69
z" />
    <glyph glyph-name="uniFE86" unicode="&#x624;" horiz-adv-x="565" arabic-form="final" 
d="M292 635h101v-85h-226v85h42c-10 17 -15 34 -15 53c0 60 47 101 120 101c24 0 46 -2 67 -7l-14 -83c-12 3 -25 5 -40 5c-30 0 -45 -12 -45 -36c0 -11 3 -22 10 -33zM503 129h62c13 0 20 -23 20 -69c0 -40 -7 -60 -20 -60h-65c-8 -61 -33 -108 -75 -143
c-43 -34 -113 -51 -210 -51c-22 0 -46 1 -71 3l-8 133c130 -12 202 7 215 58h-58c-75 0 -134 19 -177 57c-44 38 -66 88 -66 150c0 65 22 119 67 164c44 44 100 66 168 66c73 0 127 -20 164 -61c36 -41 54 -91 54 -152v-95zM202 216c0 -55 32 -87 92 -87h61v75
c0 66 -25 99 -74 99c-48 0 -79 -39 -79 -87z" />
    <glyph glyph-name="uniFE88" unicode="&#x625;" horiz-adv-x="292" arabic-form="final" 
d="M292 129c13 0 20 -23 20 -69c0 -40 -7 -60 -20 -60c-172 0 -234 60 -234 196v560h148v-558c0 -48 25 -69 86 -69zM139 -167c0 -9 3 -17 8 -26h79v-66h-178v66h33c-8 13 -12 27 -12 42c0 48 36 80 95 80c19 0 36 -2 53 -7l-12 -64c-11 3 -21 4 -31 4
c-23 0 -35 -10 -35 -29z" />
    <glyph glyph-name="uniFE8A" unicode="&#x626;" horiz-adv-x="773" arabic-form="final" 
d="M189 300h101v-85h-226v85h42c-10 17 -15 35 -15 53c0 60 47 101 120 101c23 0 46 -2 67 -7l-14 -83c-12 3 -25 5 -40 5c-30 0 -45 -12 -45 -36c0 -11 3 -22 10 -33zM662 129h111c13 0 20 -23 20 -69c0 -40 -7 -60 -20 -60h-38c20 -23 30 -50 30 -83
c0 -50 -33 -92 -100 -126s-159 -51 -276 -51c-255 0 -379 97 -379 252c0 40 9 87 27 141l131 -35c-7 -34 -10 -62 -10 -84c0 -93 65 -130 241 -130c145 0 218 28 218 71c0 31 -26 53 -77 66l-149 39l37 110l135 -32c26 -6 59 -9 99 -9z" />
    <glyph glyph-name="uniFE8B" unicode="&#x626;" horiz-adv-x="350" arabic-form="initial" 
d="M187 624h101v-85h-226v85h42c-10 17 -15 35 -15 53c0 60 47 101 120 101c23 0 46 -2 67 -7l-14 -83c-12 3 -25 5 -40 5c-30 0 -45 -12 -45 -36c0 -11 3 -22 10 -33zM126 235v191h148v-209c0 -81 -18 -138 -54 -169c-37 -32 -99 -48 -187 -48h-33v129h29c40 0 66 7 79 21
c12 14 18 42 18 85z" />
    <glyph glyph-name="uniFE8C" unicode="&#x626;" horiz-adv-x="363" arabic-form="medial" 
d="M187 624h101v-85h-226v85h42c-10 17 -15 35 -15 53c0 60 47 101 120 101c23 0 46 -2 67 -7l-14 -83c-12 3 -25 5 -40 5c-30 0 -45 -12 -45 -36c0 -11 3 -22 10 -33zM363 129c13 0 20 -23 20 -69c0 -40 -7 -60 -20 -60c-65 0 -111 18 -137 54c-35 -36 -100 -54 -193 -54
h-33v129h29c40 0 66 7 79 21c12 14 18 42 18 85v191h148v-205c0 -61 30 -92 89 -92z" />
    <glyph glyph-name="uniFE8E" unicode="&#x627;" horiz-adv-x="292" arabic-form="final" 
d="M292 0c-172 0 -234 60 -234 196v560h148v-558c0 -48 25 -69 86 -69c13 0 20 -23 20 -69c0 -40 -7 -60 -20 -60z" />
    <glyph glyph-name="uniFE90" unicode="&#x628;" horiz-adv-x="1013" arabic-form="final" 
d="M1013 129c13 0 20 -23 20 -69c0 -40 -7 -60 -20 -60c-60 0 -103 15 -130 45c-29 -30 -72 -45 -129 -45h-474h-1c-80 0 -143 20 -189 59c-47 39 -70 89 -70 151c0 51 11 105 32 162l127 -33c-11 -46 -16 -79 -16 -98c0 -69 55 -112 140 -112h397c56 0 76 23 76 84v213h148
v-205c0 -61 30 -92 89 -92zM421 -99c27 29 80 29 106 0c13 -14 19 -32 19 -54c0 -43 -28 -73 -72 -73s-74 30 -74 73c0 22 7 40 21 54z" />
    <glyph glyph-name="uniFE91" unicode="&#x628;" horiz-adv-x="281" arabic-form="initial" 
d="M0 0v129c35 0 58 7 70 21c11 13 17 42 17 85v191h148v-209c0 -82 -18 -139 -55 -170s-97 -47 -180 -47zM174 -206c-26 -27 -79 -27 -106 0c-14 14 -21 32 -21 53c0 44 30 76 74 76s72 -32 72 -76c0 -21 -6 -39 -19 -53z" />
    <glyph glyph-name="uniFE92" unicode="&#x628;" horiz-adv-x="324" arabic-form="medial" 
d="M324 129c13 0 20 -23 20 -69c0 -40 -7 -60 -20 -60c-65 0 -111 18 -137 54c-34 -36 -96 -54 -187 -54v129c35 0 58 7 70 21c11 13 17 42 17 85v191h148v-205c0 -61 30 -92 89 -92zM95 -99c27 29 80 29 106 0c13 -14 19 -32 19 -54c0 -43 -28 -73 -72 -73s-74 30 -74 73
c0 22 7 40 21 54z" />
    <glyph glyph-name="uniFE94" unicode="&#x629;" horiz-adv-x="568" arabic-form="final" 
d="M253 564c-28 -29 -78 -29 -106 0c-29 28 -29 78 0 106c28 28 78 28 106 0c27 -28 27 -78 0 -106zM380 542c-43 0 -75 32 -75 75s32 74 75 74s73 -31 73 -74s-32 -75 -73 -75zM568 129c13 0 20 -23 20 -69c0 -40 -7 -60 -20 -60c-86 0 -144 12 -175 37
c-42 -20 -88 -30 -137 -30c-67 0 -122 17 -167 52s-68 84 -68 149c0 59 23 110 69 153s113 65 201 65h205v-219c0 -59 16 -78 72 -78zM340 151v146h-69c-64 0 -102 -30 -102 -79c0 -51 36 -76 108 -76c27 0 48 3 63 9z" />
    <glyph glyph-name="uniFE96" unicode="&#x62a;" horiz-adv-x="1013" arabic-form="final" 
d="M446 451c-28 -29 -78 -29 -106 0c-29 28 -29 78 0 106c28 28 78 28 106 0c27 -28 27 -78 0 -106zM573 429c-43 0 -75 32 -75 75s32 74 75 74s73 -31 73 -74s-32 -75 -73 -75zM1013 129c13 0 20 -23 20 -69c0 -40 -7 -60 -20 -60c-60 0 -103 15 -130 45
c-29 -30 -72 -45 -129 -45h-474h-1c-80 0 -143 20 -189 59c-47 39 -70 89 -70 151c0 51 11 105 32 162l127 -33c-11 -46 -16 -79 -16 -98c0 -69 55 -112 140 -112h397c56 0 76 23 76 84v213h148v-205c0 -61 30 -92 89 -92z" />
    <glyph glyph-name="uniFE97" unicode="&#x62a;" horiz-adv-x="350" arabic-form="initial" 
d="M142 564c-28 -29 -78 -29 -106 0c-29 28 -29 78 0 106c28 28 78 28 106 0c27 -28 27 -78 0 -106zM269 542c-43 0 -75 32 -75 75s32 74 75 74s73 -31 73 -74s-32 -75 -73 -75zM33 0h-33v129h29c40 0 66 7 79 21c12 14 18 42 18 85v191h148v-209c0 -81 -18 -138 -54 -169
c-37 -32 -99 -48 -187 -48z" />
    <glyph glyph-name="uniFE98" unicode="&#x62a;" horiz-adv-x="363" arabic-form="medial" 
d="M142 564c-28 -29 -78 -29 -106 0c-29 28 -29 78 0 106c28 28 78 28 106 0c27 -28 27 -78 0 -106zM269 542c-43 0 -75 32 -75 75s32 74 75 74s73 -31 73 -74s-32 -75 -73 -75zM363 129c13 0 20 -23 20 -69c0 -40 -7 -60 -20 -60c-65 0 -111 18 -137 54
c-35 -36 -100 -54 -193 -54h-33v129h29c40 0 66 7 79 21c12 14 18 42 18 85v191h148v-205c0 -61 30 -92 89 -92z" />
    <glyph glyph-name="uniFE9A" unicode="&#x62b;" horiz-adv-x="1013" arabic-form="final" 
d="M486 570c-41 0 -73 34 -73 75c0 43 32 76 73 76c44 0 74 -33 74 -76s-30 -75 -74 -75zM446 439c-28 -29 -78 -29 -106 0c-29 29 -29 79 0 107c43 45 132 13 126 -53c0 -22 -7 -40 -20 -54zM520 439c-29 29 -29 79 0 107c28 28 78 28 106 0c44 -42 11 -134 -53 -129
c-21 0 -39 7 -53 22zM1013 129c13 0 20 -23 20 -69c0 -40 -7 -60 -20 -60c-60 0 -103 15 -130 45c-29 -30 -72 -45 -129 -45h-474h-1c-80 0 -143 20 -189 59c-47 39 -70 89 -70 151c0 51 11 105 32 162l127 -33c-11 -46 -16 -79 -16 -98c0 -69 55 -112 140 -112h397
c56 0 76 23 76 84v213h148v-205c0 -61 30 -92 89 -92z" />
    <glyph glyph-name="uniFE9B" unicode="&#x62b;" horiz-adv-x="350" arabic-form="initial" 
d="M182 683c-41 0 -73 34 -73 75c0 43 32 76 73 76c44 0 74 -33 74 -76s-30 -75 -74 -75zM142 552c-28 -29 -78 -29 -106 0c-29 29 -29 79 0 107c43 45 132 13 126 -53c0 -22 -7 -40 -20 -54zM269 530c-43 0 -75 33 -75 76s32 74 75 74s73 -31 73 -74s-32 -76 -73 -76zM33 0
h-33v129h29c40 0 66 7 79 21c12 14 18 42 18 85v191h148v-209c0 -81 -18 -138 -54 -169c-37 -32 -99 -48 -187 -48z" />
    <glyph glyph-name="uniFE9C" unicode="&#x62b;" horiz-adv-x="363" arabic-form="medial" 
d="M182 683c-41 0 -73 34 -73 75c0 43 32 76 73 76c44 0 74 -33 74 -76s-30 -75 -74 -75zM142 552c-28 -29 -78 -29 -106 0c-29 29 -29 79 0 107c43 45 132 13 126 -53c0 -22 -7 -40 -20 -54zM216 552c-29 29 -29 79 0 107c28 28 78 28 106 0c44 -42 11 -134 -53 -129
c-21 0 -39 7 -53 22zM363 129c13 0 20 -23 20 -69c0 -40 -7 -60 -20 -60c-65 0 -111 18 -137 54c-35 -36 -100 -54 -193 -54h-33v129h29c40 0 66 7 79 21c12 14 18 42 18 85v191h148v-205c0 -61 30 -92 89 -92z" />
    <glyph glyph-name="uniFE9E" unicode="&#x62c;" horiz-adv-x="606" arabic-form="final" 
d="M554 129h52c13 0 20 -23 20 -69c0 -40 -7 -60 -20 -60h-359c-45 0 -74 -26 -74 -67s35 -67 75 -67h1l6 -126h-2c-67 0 -123 17 -166 50c-44 34 -66 80 -66 137c0 127 85 202 222 202h173v3c0 124 -43 171 -144 171c-31 0 -63 -4 -96 -11l-32 122c39 15 84 23 136 23
c183 0 274 -95 274 -286v-22zM363 -33c39 0 65 -29 65 -69c0 -39 -25 -65 -65 -65s-67 26 -67 65c0 40 27 69 67 69z" />
    <glyph glyph-name="uniFE9F" unicode="&#x62c;" horiz-adv-x="473" arabic-form="initial" 
d="M414 0h-414v129h281c13 101 -22 174 -135 174c-30 0 -62 -4 -95 -11l-33 122c42 15 88 23 137 23c233 0 319 -146 259 -437zM259 -206c-26 -27 -79 -27 -106 0c-14 14 -21 32 -21 53c0 44 30 76 74 76s72 -32 72 -76c0 -21 -6 -39 -19 -53z" />
    <glyph glyph-name="uniFEA0" unicode="&#x62c;" horiz-adv-x="471" arabic-form="medial" 
d="M431 129h40c13 0 20 -23 20 -69c0 -40 -7 -60 -20 -60h-471v129h281c13 101 -22 174 -135 174c-30 0 -62 -4 -95 -11l-33 122c42 15 88 23 137 23c195 0 287 -103 276 -308zM153 -99c27 29 80 29 106 0c13 -14 19 -32 19 -54c0 -43 -28 -73 -72 -73s-74 30 -74 73
c0 22 7 40 21 54z" />
    <glyph glyph-name="uniFEA2" unicode="&#x62d;" horiz-adv-x="606" arabic-form="final" 
d="M564 129h42c13 0 20 -23 20 -69c0 -40 -7 -60 -20 -60h-359c-47 0 -78 -24 -78 -63c0 -42 32 -63 97 -63c26 0 50 2 73 7l26 -123c-38 -12 -75 -18 -111 -18c-69 0 -125 18 -168 53s-65 85 -65 148c0 113 86 188 218 188h177v3c0 124 -43 171 -144 171
c-31 0 -63 -4 -96 -11l-32 122c39 15 84 23 136 23c193 0 284 -107 284 -286v-22z" />
    <glyph glyph-name="uniFEA3" unicode="&#x62d;" horiz-adv-x="473" arabic-form="initial" 
d="M414 0h-414v129h281c13 101 -22 174 -135 174c-30 0 -62 -4 -95 -11l-33 122c42 15 88 23 137 23c233 0 319 -146 259 -437z" />
    <glyph glyph-name="uniFEA4" unicode="&#x62d;" horiz-adv-x="471" arabic-form="medial" 
d="M431 129h40c13 0 20 -23 20 -69c0 -40 -7 -60 -20 -60h-471v129h281c13 101 -22 174 -135 174c-30 0 -62 -4 -95 -11l-33 122c42 15 88 23 137 23c195 0 287 -103 276 -308z" />
    <glyph glyph-name="uniFEA6" unicode="&#x62e;" horiz-adv-x="606" arabic-form="final" 
d="M333 575c-26 -29 -79 -29 -106 0c-14 14 -21 32 -21 53c0 44 30 74 74 74s72 -30 72 -74c0 -21 -6 -39 -19 -53zM564 129h42c13 0 20 -23 20 -69c0 -40 -7 -60 -20 -60h-359c-47 0 -78 -24 -78 -63c0 -42 32 -63 97 -63c26 0 50 2 73 7l26 -123c-38 -12 -75 -18 -111 -18
c-69 0 -125 18 -168 53s-65 85 -65 148c0 113 86 188 218 188h177v3c0 124 -43 171 -144 171c-31 0 -63 -4 -96 -11l-32 122c39 15 84 23 136 23c193 0 284 -107 284 -286v-22z" />
    <glyph glyph-name="uniFEA7" unicode="&#x62e;" horiz-adv-x="473" arabic-form="initial" 
d="M208 575c-26 -29 -79 -29 -106 0c-14 14 -21 32 -21 53c0 44 30 74 74 74s72 -30 72 -74c0 -21 -6 -39 -19 -53zM414 0h-414v129h281c13 101 -22 174 -135 174c-30 0 -62 -4 -95 -11l-33 122c42 15 88 23 137 23c233 0 319 -146 259 -437z" />
    <glyph glyph-name="uniFEA8" unicode="&#x62e;" horiz-adv-x="471" arabic-form="medial" 
d="M208 575c-26 -29 -79 -29 -106 0c-14 14 -21 32 -21 53c0 44 30 74 74 74s72 -30 72 -74c0 -21 -6 -39 -19 -53zM431 129h40c13 0 20 -23 20 -69c0 -40 -7 -60 -20 -60h-471v129h281c13 101 -22 174 -135 174c-30 0 -62 -4 -95 -11l-33 122c42 15 88 23 137 23
c195 0 287 -103 276 -308z" />
    <glyph glyph-name="uniFEAA" unicode="&#x62f;" horiz-adv-x="509" arabic-form="final" 
d="M456 129h53c13 0 20 -23 20 -69c0 -40 -7 -60 -20 -60h-479v129h280c-3 41 -23 82 -60 122s-72 70 -107 90l90 119c77 -50 132 -101 165 -154s52 -112 58 -177z" />
    <glyph glyph-name="uniFEAC" unicode="&#x630;" horiz-adv-x="509" arabic-form="final" 
d="M235 545c-26 -29 -79 -29 -106 0c-14 14 -21 32 -21 53c0 44 30 74 74 74s72 -30 72 -74c0 -21 -6 -39 -19 -53zM456 129h53c13 0 20 -23 20 -69c0 -40 -7 -60 -20 -60h-479v129h280c-3 41 -23 82 -60 122s-72 70 -107 90l90 119c77 -50 132 -101 165 -154
s52 -112 58 -177z" />
    <glyph glyph-name="uniFEAE" unicode="&#x631;" horiz-adv-x="337" arabic-form="final" 
d="M258 129h79c13 0 20 -23 20 -69c0 -40 -7 -60 -20 -60h-83c-17 -127 -93 -184 -241 -191l-18 125c85 9 115 33 115 98v394h148v-297z" />
    <glyph glyph-name="uniFEB0" unicode="&#x632;" horiz-adv-x="337" arabic-form="final" 
d="M236 564c-26 -29 -79 -29 -106 0c-14 14 -21 32 -21 53c0 44 30 74 74 74s72 -30 72 -74c0 -21 -6 -39 -19 -53zM258 129h79c13 0 20 -23 20 -69c0 -40 -7 -60 -20 -60h-83c-17 -127 -93 -184 -241 -191l-18 125c85 9 115 33 115 98v394h148v-297z" />
    <glyph glyph-name="uniFEB2" unicode="&#x633;" horiz-adv-x="1222" arabic-form="final" 
d="M1222 129c13 0 20 -23 20 -69c0 -40 -7 -60 -20 -60c-65 0 -110 18 -136 53c-35 -35 -84 -53 -145 -53c-53 0 -97 13 -134 38c-35 -25 -82 -38 -142 -38c-38 0 -69 6 -94 19c-20 -136 -126 -202 -281 -202c-197 -1 -280 136 -280 251c0 57 15 120 46 190l129 -46
c-18 -48 -27 -89 -27 -124c0 -85 51 -137 135 -137c88 0 134 41 134 156v246h148v-168c0 -37 22 -56 65 -56c56 0 66 23 66 80v144h148v-168c0 -37 22 -56 65 -56c56 0 66 23 66 80v217h148v-205c0 -61 30 -92 89 -92z" />
    <glyph glyph-name="uniFEB3" unicode="&#x633;" horiz-adv-x="844" arabic-form="initial" 
d="M650 209v217h148v-253c0 -105 -80 -173 -193 -173c-52 0 -96 13 -133 38c-35 -25 -82 -38 -142 -38c-65 0 -114 13 -147 40c-36 -29 -75 -40 -156 -40h-27v129h26c55 0 66 23 66 80v144h148v-168c0 -37 22 -56 65 -56c56 0 66 23 66 80v144h148v-168c0 -37 22 -56 65 -56
c55 0 66 24 66 80z" />
    <glyph glyph-name="uniFEB4" unicode="&#x633;" horiz-adv-x="887" arabic-form="medial" 
d="M887 129c13 0 20 -23 20 -69c0 -40 -7 -60 -20 -60c-65 0 -110 18 -136 53c-37 -35 -85 -53 -146 -53c-52 0 -96 13 -133 38c-35 -25 -82 -38 -142 -38c-65 0 -114 13 -147 40c-36 -29 -75 -40 -156 -40h-27v129h26c55 0 66 23 66 80v144h148v-168c0 -37 22 -56 65 -56
c56 0 66 23 66 80v144h148v-168c0 -37 22 -56 65 -56c55 0 66 24 66 80v217h148v-205c0 -61 30 -92 89 -92z" />
    <glyph glyph-name="uniFEB6" unicode="&#x634;" horiz-adv-x="1222" arabic-form="final" 
d="M782 610c-41 0 -73 34 -73 75c0 43 32 76 73 76c44 0 74 -33 74 -76s-30 -75 -74 -75zM742 479c-28 -29 -78 -29 -106 0c-29 29 -29 79 0 107c43 45 132 13 126 -53c0 -22 -7 -40 -20 -54zM816 479c-29 29 -29 79 0 107c28 28 78 28 106 0c44 -42 11 -134 -53 -129
c-21 0 -39 7 -53 22zM1222 129c13 0 20 -23 20 -69c0 -40 -7 -60 -20 -60c-65 0 -110 18 -136 53c-35 -35 -84 -53 -145 -53c-53 0 -97 13 -134 38c-35 -25 -82 -38 -142 -38c-38 0 -69 6 -94 19c-20 -136 -126 -202 -281 -202c-197 -1 -280 136 -280 251
c0 57 15 120 46 190l129 -46c-18 -48 -27 -89 -27 -124c0 -85 51 -137 135 -137c88 0 134 41 134 156v246h148v-168c0 -37 22 -56 65 -56c56 0 66 23 66 80v144h148v-168c0 -37 22 -56 65 -56c56 0 66 23 66 80v217h148v-205c0 -61 30 -92 89 -92z" />
    <glyph glyph-name="uniFEB7" unicode="&#x634;" horiz-adv-x="844" arabic-form="initial" 
d="M446 610c-41 0 -73 34 -73 75c0 43 32 76 73 76c44 0 74 -33 74 -76s-30 -75 -74 -75zM406 479c-28 -29 -78 -29 -106 0c-29 29 -29 79 0 107c43 45 132 13 126 -53c0 -22 -7 -40 -20 -54zM480 479c-29 29 -29 79 0 107c28 28 78 28 106 0c44 -42 11 -134 -53 -129
c-21 0 -39 7 -53 22zM650 209v217h148v-253c0 -105 -80 -173 -193 -173c-52 0 -96 13 -133 38c-35 -25 -82 -38 -142 -38c-65 0 -114 13 -147 40c-36 -29 -75 -40 -156 -40h-27v129h26c55 0 66 23 66 80v144h148v-168c0 -37 22 -56 65 -56c56 0 66 23 66 80v144h148v-168
c0 -37 22 -56 65 -56c55 0 66 24 66 80z" />
    <glyph glyph-name="uniFEB8" unicode="&#x634;" horiz-adv-x="887" arabic-form="medial" 
d="M446 610c-41 0 -73 34 -73 75c0 43 32 76 73 76c44 0 74 -33 74 -76s-30 -75 -74 -75zM406 479c-28 -29 -78 -29 -106 0c-29 29 -29 79 0 107c43 45 132 13 126 -53c0 -22 -7 -40 -20 -54zM480 479c-29 29 -29 79 0 107c28 28 78 28 106 0c44 -42 11 -134 -53 -129
c-21 0 -39 7 -53 22zM887 129c13 0 20 -23 20 -69c0 -40 -7 -60 -20 -60c-65 0 -110 18 -136 53c-37 -35 -85 -53 -146 -53c-52 0 -96 13 -133 38c-35 -25 -82 -38 -142 -38c-65 0 -114 13 -147 40c-36 -29 -75 -40 -156 -40h-27v129h26c55 0 66 23 66 80v144h148v-168
c0 -37 22 -56 65 -56c56 0 66 23 66 80v144h148v-168c0 -37 22 -56 65 -56c55 0 66 24 66 80v217h148v-205c0 -61 30 -92 89 -92z" />
    <glyph glyph-name="uniFEBA" unicode="&#x635;" horiz-adv-x="1343" arabic-form="final" 
d="M1286 129h57c13 0 20 -23 20 -69c0 -40 -7 -60 -20 -60h-661c-47 0 -84 9 -109 27c-17 -141 -124 -210 -283 -210c-197 -1 -280 136 -280 251c0 57 15 120 46 190l129 -46c-18 -48 -27 -89 -27 -124c0 -85 51 -137 135 -137c88 0 134 41 134 156v246h148v-157
c0 -36 29 -64 76 -67c49 101 114 181 169 224c27 21 56 39 86 52c59 27 98 32 139 32c155 0 243 -97 243 -262c0 -9 -1 -25 -2 -46zM817 129h323c1 16 2 27 2 33c0 88 -41 141 -117 141s-155 -67 -208 -174z" />
    <glyph glyph-name="uniFEBB" unicode="&#x635;" horiz-adv-x="945" arabic-form="initial" 
d="M662 437c155 0 242 -97 242 -262c0 -55 -9 -114 -26 -175h-580c-54 0 -99 10 -135 30c-29 -20 -83 -30 -163 -30v129c30 0 49 5 56 15c7 9 11 34 11 74v135h148v-167c0 -41 9 -56 53 -57c60 125 140 215 213 255s128 53 181 53zM434 129h323c1 16 2 27 2 33
c0 88 -42 141 -118 141c-75 0 -154 -67 -207 -174z" />
    <glyph glyph-name="uniFEBC" unicode="&#x635;" horiz-adv-x="959" arabic-form="medial" 
d="M902 129h57c13 0 20 -23 20 -69c0 -40 -7 -60 -20 -60h-661c-54 0 -99 10 -135 30c-29 -20 -83 -30 -163 -30v129c30 0 49 5 56 15c7 9 11 34 11 74v135h148v-167c0 -41 9 -56 53 -57c60 125 140 215 213 255s128 53 181 53c155 0 242 -97 242 -262c0 -9 -1 -25 -2 -46z
M434 129h323c1 16 2 27 2 33c0 88 -42 141 -118 141c-75 0 -154 -67 -207 -174z" />
    <glyph glyph-name="uniFEBE" unicode="&#x636;" horiz-adv-x="1343" arabic-form="final" 
d="M1013 575c-26 -29 -79 -29 -106 0c-14 14 -21 32 -21 53c0 44 30 74 74 74s72 -30 72 -74c0 -21 -6 -39 -19 -53zM1286 129h57c13 0 20 -23 20 -69c0 -40 -7 -60 -20 -60h-661c-47 0 -84 9 -109 27c-17 -141 -124 -210 -283 -210c-197 -1 -280 136 -280 251
c0 57 15 120 46 190l129 -46c-18 -48 -27 -89 -27 -124c0 -85 51 -137 135 -137c88 0 134 41 134 156v246h148v-157c0 -36 29 -64 76 -67c49 101 114 181 169 224c27 21 56 39 86 52c59 27 98 32 139 32c155 0 243 -97 243 -262c0 -9 -1 -25 -2 -46zM817 129h323
c1 16 2 27 2 33c0 88 -41 141 -117 141s-155 -67 -208 -174z" />
    <glyph glyph-name="uniFEBF" unicode="&#x636;" horiz-adv-x="945" arabic-form="initial" 
d="M614 575c-26 -29 -79 -29 -106 0c-14 14 -21 32 -21 53c0 44 30 74 74 74s72 -30 72 -74c0 -21 -6 -39 -19 -53zM662 437c155 0 242 -97 242 -262c0 -55 -9 -114 -26 -175h-580c-54 0 -99 10 -135 30c-29 -20 -83 -30 -163 -30v129c30 0 49 5 56 15c7 9 11 34 11 74v135
h148v-167c0 -41 9 -56 53 -57c60 125 140 215 213 255s128 53 181 53zM434 129h323c1 16 2 27 2 33c0 88 -42 141 -118 141c-75 0 -154 -67 -207 -174z" />
    <glyph glyph-name="uniFEC0" unicode="&#x636;" horiz-adv-x="959" arabic-form="medial" 
d="M614 575c-26 -29 -79 -29 -106 0c-14 14 -21 32 -21 53c0 44 30 74 74 74s72 -30 72 -74c0 -21 -6 -39 -19 -53zM902 129h57c13 0 20 -23 20 -69c0 -40 -7 -60 -20 -60h-661c-54 0 -99 10 -135 30c-29 -20 -83 -30 -163 -30v129c30 0 49 5 56 15c7 9 11 34 11 74v135h148
v-167c0 -41 9 -56 53 -57c60 125 140 215 213 255s128 53 181 53c155 0 242 -97 242 -262c0 -9 -1 -25 -2 -46zM434 129h323c1 16 2 27 2 33c0 88 -42 141 -118 141c-75 0 -154 -67 -207 -174z" />
    <glyph glyph-name="uniFEC2" unicode="&#x637;" horiz-adv-x="840" arabic-form="final" 
d="M783 129h57c13 0 20 -23 20 -69c0 -40 -7 -60 -20 -60h-820v129h85v627h148v-470c80 103 189 151 285 151c160 0 247 -96 247 -261c0 -10 -1 -26 -2 -47zM253 129h385c1 16 2 27 2 33c0 88 -42 141 -122 141c-83 0 -182 -67 -265 -174z" />
    <glyph glyph-name="uniFEC3" unicode="&#x637;" horiz-adv-x="797" arabic-form="initial" 
d="M508 437c160 0 248 -96 248 -261c0 -55 -9 -113 -26 -176h-730v129h76v627h148v-469c80 101 189 150 284 150zM225 129h383c0 4 3 25 3 33c0 88 -42 141 -122 141c-87 0 -183 -67 -264 -174z" />
    <glyph glyph-name="uniFEC4" unicode="&#x637;" horiz-adv-x="811" arabic-form="medial" 
d="M754 129h57c13 0 20 -23 20 -69c0 -40 -7 -60 -20 -60h-811v129h76v627h148v-469c80 101 189 150 284 150c160 0 248 -96 248 -261c0 -10 -1 -26 -2 -47zM225 129h383c0 4 3 25 3 33c0 88 -42 141 -122 141c-87 0 -183 -67 -264 -174z" />
    <glyph glyph-name="uniFEC6" unicode="&#x638;" horiz-adv-x="840" arabic-form="final" 
d="M783 129h57c13 0 20 -23 20 -69c0 -40 -7 -60 -20 -60h-820v129h85v627h148v-470c80 103 189 151 285 151c160 0 247 -96 247 -261c0 -10 -1 -26 -2 -47zM558 575c-26 -29 -79 -29 -106 0c-14 14 -21 32 -21 53c0 44 30 74 74 74s72 -30 72 -74c0 -21 -6 -39 -19 -53z
M253 129h385c1 16 2 27 2 33c0 88 -42 141 -122 141c-83 0 -182 -67 -265 -174z" />
    <glyph glyph-name="uniFEC7" unicode="&#x638;" horiz-adv-x="797" arabic-form="initial" 
d="M508 437c160 0 248 -96 248 -261c0 -55 -9 -113 -26 -176h-730v129h76v627h148v-469c80 101 189 150 284 150zM515 575c-26 -29 -79 -29 -106 0c-14 14 -21 32 -21 53c0 44 30 74 74 74s72 -30 72 -74c0 -21 -6 -39 -19 -53zM225 129h383c0 4 3 25 3 33
c0 88 -42 141 -122 141c-87 0 -183 -67 -264 -174z" />
    <glyph glyph-name="uniFEC8" unicode="&#x638;" horiz-adv-x="811" arabic-form="medial" 
d="M754 129h57c13 0 20 -23 20 -69c0 -40 -7 -60 -20 -60h-811v129h76v627h148v-469c80 101 189 150 284 150c160 0 248 -96 248 -261c0 -10 -1 -26 -2 -47zM515 575c-26 -29 -79 -29 -106 0c-14 14 -21 32 -21 53c0 44 30 74 74 74s72 -30 72 -74c0 -21 -6 -39 -19 -53z
M225 129h383c0 4 3 25 3 33c0 88 -42 141 -122 141c-87 0 -183 -67 -264 -174z" />
    <glyph glyph-name="uniFECA" unicode="&#x639;" horiz-adv-x="577" arabic-form="final" 
d="M476 129h101c13 0 20 -23 20 -69c0 -40 -7 -60 -20 -60h-88c-75 0 -144 7 -207 20c-73 -21 -109 -53 -109 -95c0 -34 30 -51 89 -51c30 0 55 2 75 5l26 -123c-29 -11 -65 -16 -108 -16c-144 0 -234 61 -234 172c0 81 51 143 152 186c-44 69 -87 119 -129 152
c7 59 16 104 29 133c77 36 157 54 239 54c127 0 206 -55 206 -148c0 -52 -21 -105 -63 -160h21zM189 292l-1 -4c49 -45 85 -91 110 -138c44 31 71 72 71 100c0 31 -29 53 -90 53c-35 0 -65 -4 -90 -11z" />
    <glyph glyph-name="uniFECB" unicode="&#x639;" horiz-adv-x="471" arabic-form="initial" 
d="M219 129h227v-129h-446v129h66c-13 30 -19 64 -19 102c0 124 90 206 245 206c43 0 86 -5 129 -16l-28 -128c-35 7 -63 10 -86 10c-75 0 -112 -29 -112 -88c0 -30 8 -59 24 -86z" />
    <glyph glyph-name="uniFECC" unicode="&#x639;" horiz-adv-x="584" arabic-form="medial" 
d="M484 129h100c13 0 20 -23 20 -69c0 -40 -7 -60 -20 -60h-87c-78 0 -146 7 -205 20c-66 -13 -153 -20 -260 -20h-32v129h119h40c-38 54 -74 94 -108 120c7 62 17 107 28 134c77 36 157 54 240 54c127 0 205 -54 205 -149c0 -51 -21 -104 -62 -159h22zM195 292l-1 -4
c50 -45 87 -92 111 -139c43 23 71 68 71 101c0 31 -29 53 -90 53c-35 0 -65 -4 -91 -11z" />
    <glyph glyph-name="uniFECE" unicode="&#x63a;" horiz-adv-x="577" arabic-form="final" 
d="M355 575c-26 -29 -79 -29 -106 0c-14 14 -21 32 -21 53c0 44 30 74 74 74s72 -30 72 -74c0 -21 -6 -39 -19 -53zM476 129h101c13 0 20 -23 20 -69c0 -40 -7 -60 -20 -60h-88c-75 0 -144 7 -207 20c-73 -21 -109 -53 -109 -95c0 -34 30 -51 89 -51c30 0 55 2 75 5l26 -123
c-29 -11 -65 -16 -108 -16c-144 0 -234 61 -234 172c0 81 51 143 152 186c-44 69 -87 119 -129 152c7 59 16 104 29 133c77 36 157 54 239 54c127 0 206 -55 206 -148c0 -52 -21 -105 -63 -160h21zM189 292l-1 -4c49 -45 85 -91 110 -138c44 31 71 72 71 100
c0 31 -29 53 -90 53c-35 0 -65 -4 -90 -11z" />
    <glyph glyph-name="uniFECF" unicode="&#x63a;" horiz-adv-x="471" arabic-form="initial" 
d="M345 575c-26 -29 -79 -29 -106 0c-14 14 -21 32 -21 53c0 44 30 74 74 74s72 -30 72 -74c0 -21 -6 -39 -19 -53zM219 129h227v-129h-446v129h66c-13 30 -19 64 -19 102c0 124 90 206 245 206c43 0 86 -5 129 -16l-28 -128c-35 7 -63 10 -86 10c-75 0 -112 -29 -112 -88
c0 -30 8 -59 24 -86z" />
    <glyph glyph-name="uniFED0" unicode="&#x63a;" horiz-adv-x="584" arabic-form="medial" 
d="M362 575c-26 -29 -79 -29 -106 0c-14 14 -21 32 -21 53c0 44 30 74 74 74s72 -30 72 -74c0 -21 -6 -39 -19 -53zM484 129h100c13 0 20 -23 20 -69c0 -40 -7 -60 -20 -60h-87c-78 0 -146 7 -205 20c-66 -13 -153 -20 -260 -20h-32v129h119h40c-38 54 -74 94 -108 120
c7 62 17 107 28 134c77 36 157 54 240 54c127 0 205 -54 205 -149c0 -51 -21 -104 -62 -159h22zM195 292l-1 -4c50 -45 87 -92 111 -139c43 23 71 68 71 101c0 31 -29 53 -90 53c-35 0 -65 -4 -91 -11z" />
    <glyph glyph-name="uniFED2" unicode="&#x641;" horiz-adv-x="1106" arabic-form="final" 
d="M871 575c-26 -29 -79 -29 -106 0c-14 14 -21 32 -21 53c0 44 30 74 74 74s72 -30 72 -74c0 -21 -6 -39 -19 -53zM1023 129h83c13 0 20 -23 20 -69c0 -40 -7 -60 -20 -60h-112c-64 0 -126 4 -185 13c-63 -9 -121 -13 -172 -13h-348c-80 0 -143 20 -189 59
c-47 39 -70 89 -70 151c0 51 11 105 32 162l127 -33c-11 -46 -16 -79 -16 -98c0 -69 55 -112 140 -112h290c-19 30 -28 64 -28 101c0 56 22 105 65 146s102 61 178 61c74 0 132 -20 175 -59c42 -40 63 -87 63 -142c0 -37 -11 -73 -33 -107zM814 130c19 1 39 11 61 30
c21 19 32 40 32 65c0 44 -35 78 -91 78c-55 0 -93 -32 -93 -77c0 -23 11 -44 32 -63s40 -30 59 -33z" />
    <glyph glyph-name="uniFED3" unicode="&#x641;" horiz-adv-x="589" arabic-form="initial" 
d="M366 575c-26 -29 -79 -29 -106 0c-14 14 -21 32 -21 53c0 44 30 74 74 74s72 -30 72 -74c0 -21 -6 -39 -19 -53zM313 437c184 0 235 -141 235 -224c0 -70 -13 -141 -40 -213h-508v129h77c-9 25 -13 50 -13 77c0 67 22 123 67 166s105 65 182 65zM228 129h164
c5 23 7 46 7 68c0 61 -28 106 -89 106c-63 0 -98 -37 -98 -94c0 -26 5 -53 16 -80z" />
    <glyph glyph-name="uniFED4" unicode="&#x641;" horiz-adv-x="595" arabic-form="medial" 
d="M360 575c-26 -29 -79 -29 -106 0c-14 14 -21 32 -21 53c0 44 30 74 74 74s72 -30 72 -74c0 -21 -6 -39 -19 -53zM512 129h83c13 0 20 -23 20 -69c0 -40 -7 -60 -20 -60h-112c-64 0 -126 4 -185 13c-63 -9 -121 -13 -172 -13h-126v129h92c-19 30 -28 64 -28 101
c0 56 22 105 65 146s102 61 178 61c74 0 132 -20 175 -59c42 -40 63 -87 63 -142c0 -37 -11 -73 -33 -107zM303 130c19 1 39 11 61 30c21 19 32 40 32 65c0 44 -35 78 -91 78c-55 0 -93 -32 -93 -77c0 -23 11 -44 32 -63s40 -30 59 -33z" />
    <glyph glyph-name="uniFED6" unicode="&#x642;" horiz-adv-x="828" arabic-form="final" 
d="M504 575c-28 -29 -78 -29 -106 0c-29 28 -29 78 0 106c28 28 78 28 106 0c27 -28 27 -78 0 -106zM631 553c-43 0 -75 32 -75 75s32 74 75 74s73 -31 73 -74s-32 -75 -73 -75zM760 129h68c13 0 20 -23 20 -69c0 -40 -7 -60 -20 -60h-81c-36 -122 -153 -183 -352 -183
c-257 0 -385 84 -385 251c0 43 9 90 27 141l135 -36c-7 -29 -10 -56 -10 -81c0 -41 9 -69 41 -98c31 -28 97 -43 194 -43c118 0 188 16 211 49h-49c-169 0 -252 79 -252 207c0 64 22 118 67 163c44 45 100 67 168 67c73 0 127 -20 164 -61c36 -41 54 -91 54 -152v-95z
M551 129h61v75c0 66 -26 99 -77 99c-45 0 -76 -37 -76 -88c0 -55 31 -86 92 -86z" />
    <glyph glyph-name="uniFED7" unicode="&#x642;" horiz-adv-x="589" arabic-form="initial" 
d="M275 575c-28 -29 -78 -29 -106 0c-29 28 -29 78 0 106c28 28 78 28 106 0c27 -28 27 -78 0 -106zM402 553c-43 0 -75 32 -75 75s32 74 75 74s73 -31 73 -74s-32 -75 -73 -75zM313 437c184 0 235 -141 235 -224c0 -70 -13 -141 -40 -213h-508v129h77c-9 25 -13 50 -13 77
c0 67 22 123 67 166s105 65 182 65zM228 129h164c5 23 7 46 7 68c0 61 -28 106 -89 106c-63 0 -98 -37 -98 -94c0 -26 5 -53 16 -80z" />
    <glyph glyph-name="uniFED8" unicode="&#x642;" horiz-adv-x="595" arabic-form="medial" 
d="M269 575c-28 -29 -78 -29 -106 0c-29 28 -29 78 0 106c28 28 78 28 106 0c27 -28 27 -78 0 -106zM396 553c-43 0 -75 32 -75 75s32 74 75 74s73 -31 73 -74s-32 -75 -73 -75zM512 129h83c13 0 20 -23 20 -69c0 -40 -7 -60 -20 -60h-112c-64 0 -126 4 -185 13
c-63 -9 -121 -13 -172 -13h-126v129h92c-19 30 -28 64 -28 101c0 56 22 105 65 146s102 61 178 61c74 0 132 -20 175 -59c42 -40 63 -87 63 -142c0 -37 -11 -73 -33 -107zM303 130c19 1 39 11 61 30c21 19 32 40 32 65c0 44 -35 78 -91 78c-55 0 -93 -32 -93 -77
c0 -23 11 -44 32 -63s40 -30 59 -33z" />
    <glyph glyph-name="uniFEDA" unicode="&#x643;" horiz-adv-x="899" arabic-form="final" 
d="M899 129c13 0 20 -23 20 -69c0 -40 -7 -60 -20 -60c-65 0 -110 18 -136 54c-35 -36 -98 -54 -187 -54h-296h-1c-80 0 -143 20 -189 59c-47 39 -70 89 -70 151c0 51 11 105 32 162l127 -33c-11 -46 -16 -79 -16 -98c0 -69 55 -112 140 -112h273c68 0 87 26 87 106v521h148
v-539v-13c5 -50 35 -75 88 -75zM444 394h78v-74h-206v74h38c-7 13 -10 26 -10 41c0 52 43 94 114 94c17 0 34 -3 53 -8l-10 -73c-13 3 -24 4 -32 4c-24 0 -36 -9 -36 -28c0 -11 4 -21 11 -30z" />
    <glyph glyph-name="uniFEDB" unicode="&#x643;" horiz-adv-x="478" arabic-form="initial" 
d="M403 659l-230 -222c143 -44 211 -100 241 -179c20 -56 24 -97 24 -165v-93h-438v129h290c-1 77 -21 123 -100 165c-40 21 -95 38 -166 51v139l283 273z" />
    <glyph glyph-name="uniFEDC" unicode="&#x643;" horiz-adv-x="504" arabic-form="medial" 
d="M437 129h67c13 0 20 -23 20 -69c0 -40 -7 -60 -20 -60h-504v129h290c-1 77 -21 123 -100 165c-40 21 -95 38 -166 51v139l283 273l96 -98l-230 -222c107 -31 177 -73 213 -129s48 -106 51 -179z" />
    <glyph glyph-name="uniFEDE" unicode="&#x644;" horiz-adv-x="675" arabic-form="final" 
d="M290 -183c-197 0 -280 134 -280 251c0 57 16 121 47 190l128 -46c-18 -48 -27 -89 -27 -124c0 -85 51 -137 135 -137c89 0 134 43 134 156v649h148v-686c0 -171 -110 -253 -285 -253zM675 0h-91v129h91c13 0 20 -23 20 -69c0 -40 -7 -60 -20 -60z" />
    <glyph glyph-name="uniFEDF" unicode="&#x644;" horiz-adv-x="293" arabic-form="initial" 
d="M0 0v129c68 0 87 26 87 106v521h148v-539c0 -82 -18 -139 -55 -170s-97 -47 -180 -47z" />
    <glyph glyph-name="uniFEE0" unicode="&#x644;" horiz-adv-x="323" arabic-form="medial" 
d="M323 129c13 0 20 -23 20 -69c0 -40 -7 -60 -20 -60c-65 0 -110 18 -136 54c-35 -36 -98 -54 -187 -54v129c68 0 87 26 87 106v521h148v-539v-13c5 -50 35 -75 88 -75z" />
    <glyph glyph-name="uniFEE2" unicode="&#x645;" horiz-adv-x="749" arabic-form="final" 
d="M695 129h54c13 0 20 -23 20 -69c0 -40 -7 -60 -20 -60h-108c-45 -47 -112 -71 -199 -71h-101c-31 22 -56 46 -74 71h-24c-53 0 -78 -18 -78 -74v-186h-144v212c0 113 72 177 197 177h2v17c0 69 23 127 69 172c45 45 105 67 180 67c69 0 125 -21 166 -64s61 -99 61 -169
c0 -11 0 -18 -1 -23zM395 58h49c71 0 104 40 104 97c0 51 -34 95 -87 95c-55 0 -93 -46 -93 -107c0 -35 9 -63 27 -85z" />
    <glyph glyph-name="uniFEE3" unicode="&#x645;" horiz-adv-x="562" arabic-form="initial" 
d="M293 437c73 0 129 -21 169 -63s60 -91 60 -148c0 -55 -13 -101 -49 -148c-36 -48 -110 -78 -213 -78h-260v129h67c-14 27 -21 60 -21 97c0 62 23 113 70 152c46 39 105 59 177 59zM216 129h61c65 0 97 30 97 90c0 51 -35 84 -87 84c-56 0 -93 -34 -93 -97
c0 -27 7 -52 22 -77z" />
    <glyph glyph-name="uniFEE4" unicode="&#x645;" horiz-adv-x="576" arabic-form="medial" 
d="M522 129h54c13 0 20 -23 20 -69c0 -40 -7 -60 -20 -60h-108c-44 -47 -110 -71 -198 -71h-102c-29 21 -54 44 -74 71h-94v129h47v17c0 69 23 127 69 172c45 45 105 67 180 67c69 0 125 -21 166 -64s61 -99 61 -169c0 -11 0 -18 -1 -23zM217 58h54c71 0 104 40 104 97
c0 51 -34 95 -87 95c-90 6 -117 -116 -71 -192z" />
    <glyph glyph-name="uniFEE6" unicode="&#x646;" horiz-adv-x="656" arabic-form="final" 
d="M364 431c-26 -29 -79 -29 -106 0c-14 14 -21 32 -21 53c0 44 30 74 74 74s72 -30 72 -74c0 -21 -6 -39 -19 -53zM585 129h71c13 0 20 -23 20 -69c0 -40 -7 -60 -20 -60h-78c-27 -124 -130 -183 -278 -183c-197 -1 -280 136 -280 251c0 57 15 120 46 190l129 -46
c-18 -48 -27 -89 -27 -124c0 -85 51 -137 135 -137c88 0 134 41 134 156v246h148v-224z" />
    <glyph glyph-name="uniFEE7" unicode="&#x646;" horiz-adv-x="281" arabic-form="initial" 
d="M214 564c-26 -29 -79 -29 -106 0c-14 14 -21 32 -21 53c0 44 30 74 74 74s72 -30 72 -74c0 -21 -6 -39 -19 -53zM0 0v129c35 0 58 7 70 21c11 13 17 42 17 85v191h148v-209c0 -82 -18 -139 -55 -170s-97 -47 -180 -47z" />
    <glyph glyph-name="uniFEE8" unicode="&#x646;" horiz-adv-x="324" arabic-form="medial" 
d="M214 564c-26 -29 -79 -29 -106 0c-14 14 -21 32 -21 53c0 44 30 74 74 74s72 -30 72 -74c0 -21 -6 -39 -19 -53zM324 129c13 0 20 -23 20 -69c0 -40 -7 -60 -20 -60c-65 0 -111 18 -137 54c-34 -36 -96 -54 -187 -54v129c35 0 58 7 70 21c11 13 17 42 17 85v191h148v-205
c0 -61 30 -92 89 -92z" />
    <glyph glyph-name="uniFEE9" unicode="&#x647;" horiz-adv-x="526" arabic-form="isolated" 
d="M255 -5c-141 0 -234 76 -234 205c0 72 22 130 65 173s99 64 169 64c69 0 125 -22 168 -65c42 -44 63 -101 63 -172c0 -129 -86 -205 -231 -205zM255 129c47 0 79 31 79 82c0 57 -32 92 -79 92c-49 0 -82 -34 -82 -90c0 -55 29 -84 82 -84z" />
    <glyph glyph-name="uniFEEA" unicode="&#x647;" horiz-adv-x="568" arabic-form="final" 
d="M568 129c13 0 20 -23 20 -69c0 -40 -7 -60 -20 -60c-86 0 -144 12 -175 37c-42 -20 -88 -30 -137 -30c-67 0 -122 17 -167 52s-68 84 -68 149c0 59 23 110 69 153s113 65 201 65h205v-219c0 -59 16 -78 72 -78zM340 151v146h-69c-64 0 -102 -30 -102 -79
c0 -51 36 -76 108 -76c27 0 48 3 63 9z" />
    <glyph glyph-name="uniFEEB" unicode="&#x647;" horiz-adv-x="647" arabic-form="initial" 
d="M34 346l17 115c93 -3 157 -7 239 -19c82 -13 137 -31 195 -64c82 -47 131 -128 131 -250c0 -37 -5 -80 -15 -128h-257c-45 0 -84 7 -117 20c-29 -13 -69 -20 -120 -20h-107v129h71c-15 27 -23 59 -23 95c0 49 14 89 43 120c-13 0 -45 2 -57 2zM229 131
c43 25 65 60 65 107s-23 76 -62 76c-37 0 -62 -29 -62 -76c0 -44 20 -80 59 -107zM493 143c0 61 -29 108 -87 139c7 -17 10 -36 10 -55c0 -35 -8 -68 -24 -98h100c1 3 1 8 1 14z" />
    <glyph glyph-name="uniFEEC" unicode="&#x647;" horiz-adv-x="515" arabic-form="medial" 
d="M454 129h61c13 0 20 -23 20 -69c0 -40 -7 -60 -20 -60h-63c18 -29 27 -58 27 -86c0 -92 -74 -154 -202 -154c-168 0 -236 74 -236 209v31h-41v129h41v51c0 75 20 136 59 183c39 46 94 69 164 69c79 0 140 -32 169 -77s43 -90 43 -131c0 -32 -7 -64 -22 -95zM189 209v-83
h40c61 0 99 32 99 96c0 43 -22 76 -66 76c-45 0 -73 -34 -73 -89zM267 -106c43 0 64 17 64 52c0 19 -6 37 -17 54h-125v-18c0 -60 22 -88 78 -88z" />
    <glyph glyph-name="uniFEEE" unicode="&#x648;" horiz-adv-x="565" arabic-form="final" 
d="M503 129h62c13 0 20 -23 20 -69c0 -40 -7 -60 -20 -60h-65c-8 -61 -33 -108 -75 -143c-43 -34 -113 -51 -210 -51c-22 0 -46 1 -71 3l-8 133c130 -12 202 7 215 58h-58c-75 0 -134 19 -177 57c-44 38 -66 88 -66 150c0 65 22 119 67 164c44 44 100 66 168 66
c73 0 127 -20 164 -61c36 -41 54 -91 54 -152v-95zM202 216c0 -55 32 -87 92 -87h61v75c0 66 -25 99 -74 99c-48 0 -79 -39 -79 -87z" />
    <glyph glyph-name="uniFEF0" unicode="&#x649;" horiz-adv-x="773" arabic-form="final" 
d="M662 129h111c13 0 20 -23 20 -69c0 -40 -7 -60 -20 -60h-38c20 -23 30 -50 30 -83c0 -50 -33 -92 -100 -126s-159 -51 -276 -51c-255 0 -379 97 -379 252c0 40 9 87 27 141l131 -35c-7 -34 -10 -62 -10 -84c0 -93 65 -130 241 -130c145 0 218 28 218 71
c0 31 -26 53 -77 66l-149 39l37 110l135 -32c26 -6 59 -9 99 -9z" />
    <glyph glyph-name="uniFEF2" unicode="&#x64a;" horiz-adv-x="773" arabic-form="final" 
d="M662 129h111c13 0 20 -23 20 -69c0 -40 -7 -60 -20 -60h-38c20 -23 30 -50 30 -83c0 -50 -33 -92 -100 -126s-159 -51 -276 -51c-255 0 -379 97 -379 252c0 40 9 87 27 141l131 -35c-7 -34 -10 -62 -10 -84c0 -93 65 -130 241 -130c145 0 218 28 218 71
c0 31 -26 53 -77 66l-149 39l37 110l135 -32c26 -6 59 -9 99 -9zM244 -359c43 47 132 13 126 -54c0 -43 -30 -73 -73 -73s-75 32 -75 73c0 21 7 39 22 54zM477 -337c41 0 73 -33 73 -76c0 -41 -32 -73 -73 -73c-43 0 -75 32 -75 73c0 43 32 76 75 76z" />
    <glyph glyph-name="uniFEF3" unicode="&#x64a;" horiz-adv-x="350" arabic-form="initial" 
d="M33 0h-33v129h29c40 0 66 7 79 21c12 14 18 42 18 85v191h148v-209c0 -81 -18 -138 -54 -169c-37 -32 -99 -48 -187 -48zM129 -206c-42 -44 -134 -11 -128 53c0 43 32 76 75 76s73 -32 73 -76c0 -21 -7 -39 -20 -53zM309 -205c-42 -46 -134 -12 -128 52c0 43 32 76 75 76
c41 0 73 -33 73 -76c0 -21 -7 -38 -20 -52z" />
    <glyph glyph-name="uniFEF4" unicode="&#x64a;" horiz-adv-x="363" arabic-form="medial" 
d="M363 129c13 0 20 -23 20 -69c0 -40 -7 -60 -20 -60c-65 0 -111 18 -137 54c-35 -36 -100 -54 -193 -54h-33v129h29c40 0 66 7 79 21c12 14 18 42 18 85v191h148v-205c0 -61 30 -92 89 -92zM36 -99c43 47 132 13 126 -54c0 -43 -30 -73 -73 -73s-75 32 -75 73
c0 21 7 39 22 54zM269 -77c41 0 73 -33 73 -76c0 -41 -32 -73 -73 -73c-43 0 -75 32 -75 73c0 43 32 76 75 76z" />
    <glyph glyph-name=".notdef" horiz-adv-x="512" 
d="M0 718h512v-718h-512v718zM50 50h412v617h-412v-617zM259 609c73 0 124 -54 124 -131c0 -51 -16 -78 -65 -121c-23 -21 -37 -38 -41 -50c-4 -9 -6 -34 -6 -73h-46l-2 19c0 35 4 61 13 80c9 18 26 39 51 63c30 28 45 54 45 78c0 47 -36 85 -76 85c-47 0 -74 -32 -82 -95
l-50 8c8 89 56 137 135 137zM222 117v67h56v-67h-56z" />
    <glyph glyph-name="null" 
 />
    <glyph glyph-name="nonmarkingreturn" horiz-adv-x="333" 
 />
    <glyph glyph-name="NULL" 
 />
    <glyph glyph-name="NULL" 
 />
    <glyph glyph-name="CR" unicode="&#xd;" horiz-adv-x="296" 
 />
    <glyph glyph-name="space" unicode=" " horiz-adv-x="296" 
 />
    <glyph glyph-name="exclam" unicode="!" horiz-adv-x="444" 
d="M147 708h150v-474h-150v474zM314 86c0 -49 -40 -92 -92 -92s-92 41 -92 92c0 52 41 92 92 92s92 -40 92 -92z" />
    <glyph glyph-name="quotedbl" unicode="&#x22;" horiz-adv-x="520" 
d="M81 708h126v-282h-126v282zM313 708h126v-282h-126v282z" />
    <glyph glyph-name="numbersign" unicode="#" horiz-adv-x="592" 
d="M198 708h97l-28 -201h99l28 201h97l-28 -201h84v-90h-96l-17 -126h84v-90h-96l-28 -201h-97l28 201h-99l-28 -201h-97l28 201h-84v90h96l17 126h-84v90h96zM354 417h-99l-17 -126h99z" />
    <glyph glyph-name="dollar" unicode="$" horiz-adv-x="592" 
d="M262 790h66v-70c90 0 161 -21 214 -63l-96 -117c-29 26 -69 40 -118 42v-159l94 -27c95 -28 147 -93 147 -182c0 -124 -92 -211 -241 -226v-70h-66v70c-105 0 -188 27 -247 81l106 119c30 -37 77 -57 141 -62v169l-69 21c-109 33 -159 91 -159 188c0 55 21 103 63 143
c41 40 96 64 165 73v70zM190 511c0 -23 6 -39 21 -49s21 -15 38 -20l13 -3v140c-48 -10 -72 -33 -72 -68zM328 278v-150c57 11 85 36 85 74c0 37 -17 53 -85 76z" />
    <glyph glyph-name="percent" unicode="%" horiz-adv-x="907" 
d="M286 -32l-76 43l405 729l84 -47zM341 663c39 -39 58 -86 58 -141s-19 -102 -57 -140c-39 -39 -85 -58 -140 -58s-102 19 -140 58s-57 85 -57 140s19 102 58 141c38 38 84 57 139 57c54 0 100 -19 139 -57zM135 455c37 -38 97 -38 134 -1c37 36 37 100 0 137
c-37 36 -97 37 -134 -1s-37 -97 0 -135zM845 327c38 -39 57 -85 57 -140s-19 -101 -57 -140c-39 -39 -85 -59 -140 -59s-101 19 -139 58c-39 39 -58 86 -58 141s19 101 58 140c38 39 84 58 139 58s101 -19 140 -58zM638 119c36 -38 98 -38 135 -1c36 37 36 101 -1 138
c-54 61 -166 12 -162 -69c0 -27 9 -49 28 -68z" />
    <glyph glyph-name="ampersand" unicode="&#x26;" horiz-adv-x="759" 
d="M335 726c59 0 108 -15 147 -45s59 -73 59 -129c0 -77 -44 -138 -131 -184l91 -97l69 94h174l-149 -198l158 -167h-193l-59 67c-55 -57 -124 -85 -208 -85c-73 0 -133 19 -180 58s-71 90 -71 154c0 84 58 161 150 193c-60 63 -78 103 -78 159c0 61 22 107 66 136
c43 29 95 44 155 44zM264 540c0 -24 20 -54 59 -89c53 30 80 60 80 91c0 37 -29 64 -70 64c-40 0 -69 -27 -69 -66zM204 201c0 -49 43 -87 95 -87c40 0 66 12 111 52l-125 136c-19 -12 -33 -21 -41 -26c-8 -6 -17 -16 -26 -29c-9 -14 -14 -29 -14 -46z" />
    <glyph glyph-name="quotesingle" unicode="'" horiz-adv-x="296" 
d="M85 708h126v-282h-126v282z" />
    <glyph glyph-name="parenleft" unicode="(" horiz-adv-x="314" 
d="M190 732l103 -60c-49 -75 -82 -142 -101 -199s-28 -119 -28 -185c0 -67 9 -129 28 -186s52 -123 101 -198l-103 -60l-2 4c-96 143 -144 290 -144 440c0 64 9 127 26 188s34 108 52 143c18 34 40 70 66 109z" />
    <glyph glyph-name="parenright" unicode=")" horiz-adv-x="314" 
d="M21 672l103 60l2 -4c96 -139 144 -285 144 -440c0 -150 -48 -297 -144 -440l-2 -4l-103 60c45 71 78 134 99 191c20 57 30 121 30 193c0 71 -10 136 -31 195c-21 58 -54 121 -98 189z" />
    <glyph glyph-name="asterisk" unicode="*" horiz-adv-x="482" 
d="M191 708h102v-138l131 43l30 -95l-131 -42l83 -114l-83 -61l-84 115l-81 -110l-81 61l84 109l-133 46l32 95l131 -47v138z" />
    <glyph glyph-name="plus" unicode="+" horiz-adv-x="666" 
d="M270 577h126v-211h211v-126h-211v-211h-126v211h-211v126h211v211z" />
    <glyph glyph-name="comma" unicode="," horiz-adv-x="296" 
d="M91 162h144l-90 -282h-128z" />
    <glyph glyph-name="hyphen" unicode="-" horiz-adv-x="296" 
d="M25 309h246v-120h-246v120z" />
    <glyph glyph-name="period" unicode="." horiz-adv-x="296" 
d="M83 151c52 59 162 15 157 -65c0 -52 -41 -92 -92 -92c-80 -5 -124 105 -65 157z" />
    <glyph glyph-name="slash" unicode="/" horiz-adv-x="407" 
d="M296 761l114 -35l-300 -779l-113 35z" />
    <glyph glyph-name="zero" unicode="0" horiz-adv-x="592" 
d="M296 720c171 0 263 -134 263 -366c0 -116 -22 -206 -67 -270s-111 -96 -196 -96s-150 32 -195 97c-45 64 -68 154 -68 269c0 232 94 366 263 366zM295 582c-75 0 -112 -76 -112 -228s38 -228 113 -228s113 76 113 228s-38 228 -114 228z" />
    <glyph glyph-name="one" unicode="1" horiz-adv-x="592" 
d="M292 708h140v-708h-144v540l-142 -125l-85 98z" />
    <glyph glyph-name="two" unicode="2" horiz-adv-x="592" 
d="M308 720c137 0 229 -81 229 -213c0 -43 -8 -79 -24 -108s-44 -60 -84 -95l-200 -172h314v-132h-494v159l275 247c49 44 63 67 63 99c0 45 -39 77 -87 77c-51 0 -87 -35 -92 -90l-150 11c9 139 102 217 250 217z" />
    <glyph glyph-name="three" unicode="3" horiz-adv-x="592" 
d="M290 720c143 0 239 -73 239 -197c0 -81 -45 -139 -121 -155v-3c81 -11 133 -80 133 -165c0 -65 -23 -117 -70 -155s-109 -57 -185 -57c-137 0 -227 66 -254 183l158 37c11 -55 46 -82 105 -82c61 0 96 34 96 91c-4 48 -25 69 -65 77c-29 6 -40 5 -71 5h-39v130h46
c78 0 117 26 117 79c0 44 -39 74 -88 74c-43 0 -77 -23 -88 -66l-165 34c29 111 117 170 252 170z" />
    <glyph glyph-name="four" unicode="4" horiz-adv-x="592" 
d="M313 708h164v-440h91v-126h-91v-142h-144v142h-309v126zM333 512h-2l-157 -244h159v244z" />
    <glyph glyph-name="five" unicode="5" horiz-adv-x="592" 
d="M89 708h428v-132h-281l-3 -109c15 5 36 8 62 8c75 0 135 -21 180 -64c44 -43 66 -100 66 -170c0 -77 -25 -139 -74 -184c-49 -46 -115 -69 -196 -69c-124 0 -208 62 -239 181l157 36c8 -52 45 -85 97 -85c60 0 105 42 105 106c0 76 -58 117 -163 117
c-48 0 -97 -9 -147 -26z" />
    <glyph glyph-name="six" unicode="6" horiz-adv-x="592" 
d="M116 467l154 241h183l-166 -253c19 5 35 7 49 7c65 0 118 -22 160 -66c41 -44 62 -99 62 -165c0 -73 -25 -131 -76 -176s-114 -67 -188 -67c-73 0 -135 22 -186 66c-52 44 -78 103 -78 177c0 45 7 83 20 116s35 73 66 120zM180 237c0 -68 53 -111 114 -111
c65 0 114 44 114 111s-50 111 -115 111c-64 0 -113 -47 -113 -111z" />
    <glyph glyph-name="seven" unicode="7" horiz-adv-x="592" 
d="M37 708h518v-132l-283 -576h-175l290 570h-350v138z" />
    <glyph glyph-name="eight" unicode="8" horiz-adv-x="592" 
d="M296 720c144 0 237 -75 237 -195c0 -77 -44 -136 -120 -157v-2c88 -25 132 -82 132 -172c0 -62 -23 -112 -69 -149c-47 -38 -107 -57 -180 -57s-133 19 -179 56c-47 37 -70 87 -70 150c0 91 44 148 132 172v2c-76 21 -120 80 -120 157c0 117 92 195 237 195zM209 504
c0 -44 36 -79 87 -79s87 34 87 79s-36 78 -88 78s-86 -35 -86 -78zM225 280c-37 -34 -37 -96 1 -129c19 -17 42 -25 70 -25c56 0 99 36 99 89c0 52 -43 90 -100 90c-28 0 -51 -8 -70 -25z" />
    <glyph glyph-name="nine" unicode="9" horiz-adv-x="592" 
d="M111 653c51 45 113 67 187 67s137 -22 188 -67s76 -103 76 -176c0 -63 -21 -125 -41 -161c-10 -19 -25 -44 -46 -77l-153 -239h-183l166 253c-19 -5 -35 -7 -50 -7c-65 0 -118 22 -159 66s-62 99 -62 165c0 72 26 131 77 176zM184 471c0 -65 47 -111 114 -111
c65 0 114 46 114 111s-50 111 -115 111c-64 0 -113 -47 -113 -111z" />
    <glyph glyph-name="colon" unicode=":" horiz-adv-x="296" 
d="M83 471c52 59 162 15 157 -65c5 -79 -105 -124 -157 -65c-36 36 -36 94 0 130zM83 151c52 59 162 15 157 -65c0 -51 -41 -92 -92 -92s-92 40 -92 92c0 25 9 47 27 65z" />
    <glyph glyph-name="semicolon" unicode=";" horiz-adv-x="296" 
d="M148 498c52 0 92 -41 92 -92s-41 -92 -92 -92s-92 41 -92 92s41 92 92 92zM91 162h144l-90 -282h-128z" />
    <glyph glyph-name="less" unicode="&#x3c;" horiz-adv-x="666" 
d="M269 304v-2l317 -124v-136l-506 198v126l506 198v-136z" />
    <glyph glyph-name="equal" unicode="=" horiz-adv-x="666" 
d="M59 462h548v-126h-548v126zM59 270h548v-126h-548v126z" />
    <glyph glyph-name="greater" unicode="&#x3e;" horiz-adv-x="666" 
d="M397 302v2l-317 124v136l506 -198v-126l-506 -198v136z" />
    <glyph glyph-name="question" unicode="?" horiz-adv-x="556" 
d="M304 726c65 0 119 -18 162 -53c42 -35 63 -83 63 -144c0 -40 -9 -73 -26 -99c-18 -27 -49 -58 -92 -93c-33 -27 -45 -43 -45 -78v-25h-150v37c0 43 12 75 36 98l85 78c28 26 42 50 42 72c0 41 -29 69 -72 69c-56 0 -94 -33 -99 -89l-154 10c13 137 107 217 250 217z
M291 178c49 0 92 -41 92 -92c0 -52 -41 -92 -92 -92s-92 40 -92 92c0 51 41 92 92 92z" />
    <glyph glyph-name="at" unicode="@" horiz-adv-x="800" 
d="M414 726c98 0 182 -30 251 -91s103 -141 103 -238c0 -81 -22 -142 -66 -183c-43 -41 -95 -61 -156 -61c-52 0 -78 26 -79 54h-2c-34 -36 -77 -54 -128 -54c-91 0 -144 73 -144 168c0 62 19 115 56 159s85 66 144 66c53 0 89 -19 108 -57h2l8 45h94l-36 -192
c-7 -38 -10 -62 -10 -71c0 -19 9 -28 27 -28c52 0 86 61 86 149c0 156 -104 244 -261 244c-83 0 -150 -27 -201 -80c-51 -54 -76 -122 -76 -203c0 -86 28 -154 83 -205s125 -76 211 -76c75 0 138 20 189 61h110c-72 -97 -182 -151 -307 -151c-108 0 -200 35 -275 105
s-113 159 -113 266c0 105 37 194 112 266c74 71 164 107 270 107zM301 332c0 -59 23 -89 70 -89c69 0 104 48 104 121c0 53 -24 92 -75 92c-61 0 -99 -57 -99 -124z" />
    <glyph glyph-name="A" unicode="A" horiz-adv-x="741" 
d="M305 708h129l308 -708h-176l-61 150h-275l-59 -150h-172zM365 502l-86 -220h173z" />
    <glyph glyph-name="B" unicode="B" horiz-adv-x="648" 
d="M72 0v708h270c169 0 253 -60 253 -180c0 -77 -47 -132 -122 -156v-2c88 -11 155 -76 155 -173c0 -148 -140 -197 -265 -197h-291zM228 576v-151h116c53 0 95 26 95 77c0 52 -46 74 -102 74h-109zM228 293v-161h143c56 0 101 30 101 83c-3 63 -68 80 -122 78h-122z" />
    <glyph glyph-name="C" unicode="C" horiz-adv-x="685" 
d="M416 726c96 0 187 -37 239 -104l-120 -98c-32 39 -77 58 -134 58s-106 -21 -145 -63c-40 -42 -60 -97 -60 -165c0 -62 18 -115 55 -160s85 -68 145 -68c63 0 112 25 146 76l130 -97c-53 -79 -155 -123 -256 -123c-112 0 -204 34 -275 102s-107 158 -107 270
c0 111 36 201 107 270c71 68 162 102 275 102z" />
    <glyph glyph-name="D" unicode="D" horiz-adv-x="759" 
d="M72 0v708h240c116 0 213 -26 290 -81c77 -56 123 -151 123 -274c1 -220 -182 -358 -394 -353h-259zM228 564v-420h86c151 0 249 66 249 215c0 67 -23 118 -68 153c-46 35 -103 52 -171 52h-96z" />
    <glyph glyph-name="E" unicode="E" horiz-adv-x="630" 
d="M78 708h481v-144h-325v-132h307v-144h-307v-144h343v-144h-499v708z" />
    <glyph glyph-name="F" unicode="F" horiz-adv-x="593" 
d="M78 708h475v-144h-319v-144h295v-144h-295v-276h-156v708z" />
    <glyph glyph-name="G" unicode="G" horiz-adv-x="778" 
d="M417 726c121 0 214 -30 281 -91l-110 -120c-42 45 -99 67 -171 67c-66 0 -119 -21 -160 -63c-41 -43 -61 -98 -61 -165s20 -122 61 -164c41 -43 94 -64 160 -64c53 0 102 12 146 35v115h-127v144h277v-370c-85 -45 -184 -68 -296 -68c-113 0 -205 34 -276 102
c-71 67 -107 157 -107 270c0 112 36 202 107 270s163 102 276 102z" />
    <glyph glyph-name="H" unicode="H" horiz-adv-x="759" 
d="M72 708h156v-264h303v264h156v-708h-156v306h-303v-306h-156v708z" />
    <glyph glyph-name="I" unicode="I" horiz-adv-x="296" 
d="M70 708h156v-708h-156v708z" />
    <glyph glyph-name="J" unicode="J" horiz-adv-x="500" 
d="M282 708h156v-477c0 -172 -74 -249 -226 -249c-117 0 -194 57 -217 165l143 35c5 -36 37 -62 70 -62c52 0 74 36 74 129v459z" />
    <glyph glyph-name="K" unicode="K" horiz-adv-x="722" 
d="M78 708h156v-294l275 294h204l-315 -329l342 -379h-218l-288 336v-336h-156v708z" />
    <glyph glyph-name="L" unicode="L" horiz-adv-x="537" 
d="M78 708h156v-564h289v-144h-445v708z" />
    <glyph glyph-name="M" unicode="M" horiz-adv-x="944" 
d="M72 708h236l163 -462h2l164 462h235v-708h-156v543h-2l-186 -543h-119l-179 543h-2v-543h-156v708z" />
    <glyph glyph-name="N" unicode="N" horiz-adv-x="815" 
d="M72 708h212l301 -492h2v492h156v-708h-204l-309 504h-2v-504h-156v708z" />
    <glyph glyph-name="O" unicode="O" horiz-adv-x="832" 
d="M416 726c113 0 205 -34 276 -102s106 -158 106 -270c0 -111 -36 -201 -107 -269c-71 -69 -163 -103 -275 -103c-113 0 -204 34 -275 102s-107 158 -107 270s36 202 107 270s162 102 275 102zM257 519c-41 -43 -61 -98 -61 -165s20 -122 61 -164c40 -43 93 -64 159 -64
c65 0 118 21 159 64s61 97 61 164s-20 122 -61 165c-41 42 -94 63 -160 63c-65 0 -118 -21 -158 -63z" />
    <glyph glyph-name="P" unicode="P" horiz-adv-x="630" 
d="M72 708h268c176 0 264 -72 264 -215c0 -145 -86 -217 -257 -217h-119v-276h-156v708zM228 408h107c65 0 107 29 107 85c0 55 -43 83 -130 83h-84v-168z" />
    <glyph glyph-name="Q" unicode="Q" horiz-adv-x="852" 
d="M144 624c73 68 162 102 268 102s196 -34 269 -102s109 -155 109 -261c0 -105 -50 -202 -141 -241v-2h198v-120h-434c-110 0 -201 33 -272 99c-71 65 -107 153 -107 264c0 105 37 192 110 261zM196 363c0 -60 21 -111 63 -154s93 -65 153 -65s111 22 153 65s63 94 63 154
c0 61 -21 113 -63 156c-43 42 -94 63 -154 63s-111 -22 -152 -65c-42 -43 -63 -95 -63 -154z" />
    <glyph glyph-name="R" unicode="R" horiz-adv-x="648" 
d="M72 708h279c128 0 262 -42 262 -215c0 -104 -57 -175 -153 -194l180 -299h-187l-148 283h-77v-283h-156v708zM228 415h97c83 0 126 18 126 79c0 55 -39 82 -117 82h-106v-161z" />
    <glyph glyph-name="S" unicode="S" horiz-adv-x="574" 
d="M312 726c88 0 160 -25 217 -74l-107 -117c-24 31 -72 47 -113 47c-52 0 -105 -25 -105 -73c0 -17 5 -31 18 -42c12 -12 19 -19 43 -27c23 -9 28 -12 60 -20c15 -5 26 -8 32 -10c49 -15 81 -30 118 -58c36 -29 55 -76 55 -137c0 -76 -26 -134 -78 -173
c-52 -40 -117 -60 -195 -60c-95 0 -175 30 -238 89l111 122c35 -45 81 -67 136 -67c27 0 51 6 74 19c23 12 34 30 34 55c0 31 -20 49 -46 66c-10 6 -39 15 -50 19c-12 4 -47 15 -58 19c-52 17 -82 31 -120 60c-38 28 -58 73 -58 132c0 72 27 128 80 169s116 61 190 61z" />
    <glyph glyph-name="T" unicode="T" horiz-adv-x="574" 
d="M7 708h560v-138h-202v-570h-156v570h-202v138z" />
    <glyph glyph-name="U" unicode="U" horiz-adv-x="741" 
d="M72 270v438h156v-431c0 -43 14 -78 41 -107s61 -44 102 -44c39 0 72 14 100 42s42 64 42 109v431h156v-438c0 -83 -25 -151 -76 -206s-125 -82 -222 -82s-171 27 -222 82s-77 123 -77 206z" />
    <glyph glyph-name="V" unicode="V" horiz-adv-x="704" 
d="M2 708h178l175 -464h2l178 464h167l-292 -708h-125z" />
    <glyph glyph-name="W" unicode="W" horiz-adv-x="1000" 
d="M-2 708h170l113 -454h2l148 454h145l147 -466h2l119 466h158l-207 -708h-139l-156 490h-2l-156 -490h-134z" />
    <glyph glyph-name="X" unicode="X" horiz-adv-x="722" 
d="M14 708h196l151 -248l145 248h189l-229 -335l256 -373h-196l-173 285l-168 -285h-185l248 370z" />
    <glyph glyph-name="Y" unicode="Y" horiz-adv-x="648" 
d="M-20 708h194l150 -265l159 265h185l-266 -406v-302h-156v302z" />
    <glyph glyph-name="Z" unicode="Z" horiz-adv-x="630" 
d="M48 708h535v-138l-352 -426h364v-144h-560v144l359 426h-346v138z" />
    <glyph glyph-name="bracketleft" unicode="[" horiz-adv-x="296" 
d="M66 732h210v-90h-90v-708h90v-90h-210v888z" />
    <glyph glyph-name="backslash" unicode="\" horiz-adv-x="407" 
d="M-3 726l114 35l299 -779l-113 -35z" />
    <glyph glyph-name="bracketright" unicode="]" horiz-adv-x="296" 
d="M20 732h210v-888h-210v90h90v708h-90v90z" />
    <glyph glyph-name="asciicircum" unicode="^" horiz-adv-x="666" 
d="M260 708h146l180 -365h-142l-111 238l-112 -238h-141z" />
    <glyph glyph-name="underscore" unicode="_" horiz-adv-x="500" 
d="M0 -75h500v-50h-500v50z" />
    <glyph glyph-name="grave" unicode="`" horiz-adv-x="260" 
d="M-73 708h204l101 -144h-132z" />
    <glyph glyph-name="a" unicode="a" horiz-adv-x="537" 
d="M274 498c163 0 222 -76 222 -244v-254h-138v61h-2c-31 -49 -82 -73 -154 -73c-48 0 -89 13 -122 40c-34 27 -51 63 -51 110s19 85 44 109c24 23 72 40 105 48c30 7 98 13 124 14h56c0 53 -44 87 -96 87c-47 0 -87 -19 -122 -58l-80 82c54 52 125 78 214 78zM173 143
c0 -35 35 -53 72 -53c61 0 113 33 113 92v31h-45c-93 0 -140 -23 -140 -70z" />
    <glyph glyph-name="b" unicode="b" horiz-adv-x="630" 
d="M67 0v756h150v-322h2c31 43 82 64 154 64c67 0 121 -26 162 -77c40 -52 60 -113 60 -182c0 -73 -22 -133 -65 -180c-44 -47 -102 -71 -174 -71c-57 0 -116 29 -149 76h-2v-64h-138zM205 243c0 -73 47 -123 120 -123s120 48 120 123c0 76 -46 123 -121 123
c-69 0 -119 -44 -119 -123z" />
    <glyph glyph-name="c" unicode="c" horiz-adv-x="482" 
d="M308 498c74 0 132 -22 173 -65l-99 -104c-18 25 -43 37 -74 37c-73 0 -120 -50 -120 -123c0 -75 48 -123 120 -123c29 0 54 12 74 37l99 -104c-43 -43 -100 -65 -173 -65c-77 0 -141 24 -192 71c-52 47 -78 108 -78 184s26 138 78 185c51 47 115 70 192 70z" />
    <glyph glyph-name="d" unicode="d" horiz-adv-x="630" 
d="M413 434v322h150v-756h-138v64h-2c-32 -47 -93 -76 -150 -76c-72 0 -130 24 -173 71s-65 107 -65 180c0 69 20 130 61 182c40 51 94 77 161 77c71 0 123 -21 154 -64h2zM185 243c0 -73 47 -123 120 -123s120 48 120 123c0 77 -49 123 -121 123c-73 0 -119 -48 -119 -123z
" />
    <glyph glyph-name="e" unicode="e" horiz-adv-x="574" 
d="M38 243c0 76 26 138 78 185c51 47 117 70 196 70c94 0 224 -57 224 -260v-42h-348c12 -57 53 -94 113 -94c41 0 77 20 107 59l105 -77c-47 -60 -128 -96 -205 -96c-75 0 -139 23 -191 70c-53 47 -79 108 -79 185zM188 298h198c0 55 -40 92 -93 92
c-57 0 -100 -36 -105 -92z" />
    <glyph glyph-name="f" unicode="f" horiz-adv-x="370" 
d="M383 759l-7 -127c-19 7 -36 10 -49 10c-55 0 -72 -21 -72 -80v-76h111v-120h-111v-366h-150v366h-99v120h99v91c0 127 51 191 190 191c35 0 64 -3 88 -9z" />
    <glyph glyph-name="g" unicode="g" horiz-adv-x="630" 
d="M257 498c75 0 131 -25 166 -76h2v64h138v-450c0 -181 -98 -276 -281 -276c-103 0 -184 24 -244 71l83 124c51 -42 103 -63 158 -63c79 0 134 41 134 117v49h-2c-31 -41 -85 -64 -138 -64c-72 0 -130 24 -173 71s-65 107 -65 180c0 67 21 126 62 177s94 76 160 76z
M185 246c0 -33 12 -62 36 -85c23 -23 51 -35 84 -35c32 0 60 12 84 36c24 23 36 51 36 84s-12 61 -35 85c-24 23 -53 35 -86 35c-32 0 -60 -12 -83 -36c-24 -24 -36 -52 -36 -84z" />
    <glyph glyph-name="h" unicode="h" horiz-adv-x="574" 
d="M53 756h150v-336h2c17 47 73 78 136 78c128 0 180 -69 180 -225v-273h-150v247c0 88 -25 119 -78 119c-60 0 -90 -40 -90 -119v-247h-150v756z" />
    <glyph glyph-name="i" unicode="i" horiz-adv-x="260" 
d="M69 701c34 33 89 34 123 0s34 -89 0 -123c-50 -57 -153 -12 -149 61c0 25 9 45 26 62zM55 486h150v-486h-150v486z" />
    <glyph glyph-name="j" unicode="j" horiz-adv-x="260" 
d="M69 701c34 34 89 34 123 0s34 -89 0 -123c-50 -57 -153 -12 -149 61c0 24 9 45 26 62zM55 486h150v-527c0 -135 -57 -199 -180 -199c-30 0 -53 3 -70 8l8 133c13 -6 26 -9 39 -9c35 0 53 31 53 94v500z" />
    <glyph glyph-name="k" unicode="k" horiz-adv-x="556" 
d="M53 756h150v-462l166 192h184l-193 -219l198 -267h-189l-164 246h-2v-246h-150v756z" />
    <glyph glyph-name="l" unicode="l" horiz-adv-x="260" 
d="M55 756h150v-756h-150v756z" />
    <glyph glyph-name="m" unicode="m" horiz-adv-x="870" 
d="M341 498c73 0 123 -29 150 -87c33 58 84 87 154 87c115 0 172 -69 172 -206v-292h-150v285c0 54 -22 81 -66 81c-61 0 -91 -35 -91 -106v-260h-150v266c0 72 -22 100 -67 100c-61 0 -90 -35 -90 -119v-247h-150v486h144v-66h2c27 49 81 78 142 78z" />
    <glyph glyph-name="n" unicode="n" horiz-adv-x="574" 
d="M341 498c124 0 180 -64 180 -223v-275h-150v250c0 84 -25 116 -78 116c-60 0 -90 -40 -90 -119v-247h-150v486h144v-66h2c27 49 79 78 142 78z" />
    <glyph glyph-name="o" unicode="o" horiz-adv-x="610" 
d="M113 428c51 47 115 70 192 70s141 -23 193 -70c51 -47 77 -109 77 -185c0 -75 -26 -137 -78 -184s-116 -71 -192 -71c-77 0 -141 23 -192 70c-52 47 -78 108 -78 185c0 76 26 138 78 185zM218 332c-22 -23 -33 -52 -33 -89s11 -66 33 -89c21 -23 50 -34 87 -34
c73 0 120 48 120 123c0 76 -46 123 -121 123c-36 0 -65 -11 -86 -34z" />
    <glyph glyph-name="p" unicode="p" horiz-adv-x="630" 
d="M356 498c72 0 130 -23 174 -70c43 -47 65 -108 65 -181c0 -68 -20 -128 -59 -180c-40 -53 -94 -79 -163 -79c-72 0 -123 21 -154 64h-2v-280h-150v714h138v-64h2c33 45 92 76 149 76zM238 332c-22 -23 -33 -52 -33 -89s11 -66 33 -89c21 -23 50 -34 87 -34
c73 0 120 48 120 123c0 76 -46 123 -121 123c-36 0 -65 -11 -86 -34z" />
    <glyph glyph-name="q" unicode="q" horiz-adv-x="630" 
d="M273 498c59 0 119 -31 150 -76h2v64h138v-714h-150v280h-2c-31 -43 -83 -64 -154 -64c-68 0 -122 26 -162 78s-60 112 -60 181c0 73 22 134 66 181c43 47 101 70 172 70zM185 243c0 -73 47 -123 120 -123s120 48 120 123c0 76 -46 123 -121 123c-76 0 -119 -54 -119 -123
z" />
    <glyph glyph-name="r" unicode="r" horiz-adv-x="407" 
d="M346 498c21 0 38 -2 49 -5v-137c-25 7 -46 10 -64 10c-101 0 -128 -48 -128 -157v-209h-150v486h150v-78h2c33 60 80 90 141 90z" />
    <glyph glyph-name="s" unicode="s" horiz-adv-x="463" 
d="M240 498c79 0 139 -21 180 -64l-92 -91c-23 27 -51 41 -86 41c-33 0 -56 -16 -56 -40c0 -23 22 -34 90 -47c117 -23 163 -68 163 -149c0 -105 -89 -160 -224 -160c-85 0 -148 22 -191 66l91 101c30 -35 65 -53 106 -53c45 0 68 12 68 35c0 25 -25 36 -77 47
c-43 9 -61 12 -97 28c-18 7 -32 16 -42 26c-20 19 -37 53 -37 96c0 101 84 164 204 164z" />
    <glyph glyph-name="t" unicode="t" horiz-adv-x="407" 
d="M102 630h150v-144h132v-120h-132v-171c0 -59 20 -81 71 -81c31 0 52 5 61 14v-125c-29 -10 -64 -15 -105 -15c-115 0 -177 54 -177 143v235h-96v120h96v144z" />
    <glyph glyph-name="u" unicode="u" horiz-adv-x="574" 
d="M53 486h150v-241c0 -28 0 -37 5 -64c3 -14 7 -25 12 -32c10 -15 32 -29 61 -29c63 0 90 39 90 120v246h150v-486h-144v66h-2c-27 -49 -80 -78 -143 -78c-127 0 -179 68 -179 224v274z" />
    <glyph glyph-name="v" unicode="v" horiz-adv-x="556" 
d="M2 486h162l123 -330h2l114 330h151l-192 -486h-159z" />
    <glyph glyph-name="w" unicode="w" horiz-adv-x="833" 
d="M-5 486h160l99 -305h2l83 305h164l90 -305h2l91 305h152l-173 -486h-148l-101 323h-2l-90 -323h-151z" />
    <glyph glyph-name="x" unicode="x" horiz-adv-x="556" 
d="M22 486h177l86 -132l83 132h167l-158 -226l187 -260h-177l-106 162l-114 -162h-175l192 260z" />
    <glyph glyph-name="y" unicode="y" horiz-adv-x="556" 
d="M216 -4l-213 490h162l125 -321h2l107 321h154l-218 -560c-15 -36 -17 -43 -29 -71c-13 -28 -20 -33 -36 -52s-31 -23 -55 -32s-52 -11 -88 -11c-39 0 -76 6 -112 18l20 123c23 -10 47 -15 70 -15s40 2 53 11s20 11 29 29s11 20 20 44c4 13 7 21 9 26z" />
    <glyph glyph-name="z" unicode="z" horiz-adv-x="500" 
d="M40 486h420v-144l-264 -222h270v-120h-432v150l252 216h-246v120z" />
    <glyph glyph-name="braceleft" unicode="{" horiz-adv-x="370" 
d="M248 732h108v-114h-39c-23 0 -32 -1 -49 -8s-26 -25 -26 -53v-158c0 -75 -27 -105 -100 -110v-2c61 -4 100 -25 100 -102v-161c0 -52 22 -66 71 -66h43v-114h-108c-77 0 -126 51 -126 148v170c0 43 -43 69 -108 69v114c64 0 108 28 108 67v178c0 100 57 142 126 142z" />
    <glyph glyph-name="bar" unicode="|" horiz-adv-x="222" 
d="M48 750h126v-1000h-126v1000z" />
    <glyph glyph-name="braceright" unicode="}" horiz-adv-x="370" 
d="M14 732h108c79 0 126 -57 126 -141v-180c0 -39 43 -66 108 -66v-114c-64 0 -108 -26 -108 -67v-172c0 -19 1 -24 -7 -60c-5 -17 -11 -32 -19 -43c-16 -22 -53 -45 -102 -45h-106v114h40c24 0 35 1 51 9s23 26 23 55v161c0 76 39 100 100 104v2c-75 5 -100 34 -100 110
v158c0 51 -27 61 -74 61h-40v114z" />
    <glyph glyph-name="asciitilde" unicode="~" horiz-adv-x="666" 
d="M227 400c26 0 63 -11 111 -32c53 -24 87 -36 102 -36c28 0 49 13 88 68l36 -108c-31 -57 -72 -86 -125 -86c-27 0 -64 11 -111 32c-53 24 -87 36 -102 36c-27 0 -49 -15 -88 -68l-36 108c31 57 72 86 125 86z" />
    <glyph glyph-name="uni00A0" unicode="&#xa0;" horiz-adv-x="296" 
 />
    <glyph glyph-name="exclamdown" unicode="&#xa1;" horiz-adv-x="444" 
d="M222 492c49 0 92 -40 92 -92c5 -77 -105 -125 -157 -65c-59 52 -14 162 65 157zM147 252h150v-474h-150v474z" />
    <glyph glyph-name="cent" unicode="&#xa2;" horiz-adv-x="592" 
d="M310 498v66h60v-66c65 0 123 -21 172 -62l-96 -102c-25 25 -51 38 -76 38v-258c27 0 54 14 83 43l91 -107c-40 -40 -98 -61 -174 -62v-69h-60v69c-69 3 -126 29 -169 78s-65 108 -65 177c0 140 90 236 234 255zM220 244c0 -68 30 -111 90 -130v258
c-56 -9 -90 -60 -90 -128z" />
    <glyph glyph-name="sterling" unicode="&#xa3;" horiz-adv-x="592" 
d="M392 720c92 0 162 -23 209 -68l-100 -107c-29 29 -59 43 -91 43c-77 0 -116 -44 -116 -131v-43h156v-102h-156v-198h253v-114h-499v114h96v198h-96v102h96v66c0 70 23 128 69 173s106 67 179 67z" />
    <glyph glyph-name="currency" unicode="&#xa4;" horiz-adv-x="592" 
d="M36 555l60 59l49 -48c45 32 95 48 151 48s106 -16 151 -48l49 48l60 -59l-49 -49c33 -45 49 -96 49 -152c0 -57 -16 -107 -49 -152l49 -49l-60 -59l-49 48c-45 -32 -95 -48 -151 -48s-106 16 -151 48l-49 -48l-60 59l49 49c-33 45 -49 96 -49 152s16 107 49 152zM168 354
c0 -37 13 -69 38 -95s55 -39 90 -39c36 0 66 13 91 40c25 26 37 57 37 94s-12 69 -37 95s-56 39 -92 39c-35 0 -64 -13 -89 -38c-25 -26 -38 -58 -38 -96z" />
    <glyph glyph-name="yen" unicode="&#xa5;" horiz-adv-x="592" 
d="M-36 708h182l150 -264l150 264h182l-185 -290h100v-96h-157l-12 -20v-48h169v-96h-169v-158h-156v158h-169v96h169v48l-12 20h-157v96h100z" />
    <glyph glyph-name="brokenbar" unicode="&#xa6;" horiz-adv-x="222" 
d="M48 675h126v-350h-126v350zM48 175h126v-350h-126v350z" />
    <glyph glyph-name="section" unicode="&#xa7;" horiz-adv-x="592" 
d="M293 726c97 0 187 -32 224 -109l-126 -72c-13 37 -51 61 -92 61c-35 0 -65 -20 -65 -53c0 -55 112 -84 202 -125c61 -29 110 -80 110 -147c0 -53 -36 -107 -84 -130c37 -31 55 -70 55 -119c0 -81 -61 -141 -133 -165c-36 -12 -74 -18 -113 -18c-117 0 -195 42 -233 126
l128 63c11 -44 60 -69 109 -69c41 0 80 15 80 52c0 94 -301 79 -301 272c0 63 29 112 87 148c-42 27 -63 66 -63 115c0 54 22 96 65 126c43 29 93 44 150 44zM192 321c0 -30 19 -54 56 -71l126 -58h1c22 15 33 35 33 61c0 28 -18 50 -54 67l-127 60c-23 -13 -35 -33 -35 -59
z" />
    <glyph glyph-name="dieresis" unicode="&#xa8;" horiz-adv-x="260" 
d="M23 726c45 0 87 -34 87 -82s-36 -86 -85 -86c-47 0 -83 39 -83 86c0 44 37 82 81 82zM231 726c47 0 87 -35 87 -82c0 -48 -36 -86 -85 -86c-45 0 -83 39 -83 86c0 44 38 82 81 82z" />
    <glyph glyph-name="copyright" unicode="&#xa9;" horiz-adv-x="800" 
d="M137 617c73 73 160 109 263 109s190 -36 263 -109s109 -160 109 -263s-36 -191 -109 -263c-73 -73 -160 -109 -263 -109s-190 36 -263 109s-109 160 -109 263c0 102 36 190 109 263zM130 354c0 -77 26 -143 79 -198c52 -56 116 -84 191 -84c76 0 140 28 192 84
s78 122 78 198c0 77 -26 143 -78 199c-53 55 -117 83 -193 83c-75 0 -139 -28 -191 -84c-52 -57 -78 -123 -78 -198zM408 567c96 0 167 -55 180 -148h-94c-8 39 -34 58 -78 58c-67 0 -97 -49 -97 -118c0 -68 32 -126 95 -126c51 0 78 22 80 67h94
c-13 -95 -82 -157 -178 -157c-61 0 -109 20 -145 61c-36 40 -54 91 -54 153c0 127 73 210 197 210z" />
    <glyph glyph-name="ordfeminine" unicode="&#xaa;" horiz-adv-x="349" 
d="M183 726c100 0 143 -42 143 -142v-153h-96v37h-2c-13 -29 -44 -43 -93 -43c-64 0 -112 36 -112 89c0 70 66 105 199 105h8c0 27 -25 47 -56 47c-29 0 -55 -12 -79 -36l-52 49c37 31 84 47 140 47zM125 518c0 -18 14 -27 43 -27c35 0 68 22 68 50v18h-15
c-64 0 -96 -14 -96 -41z" />
    <glyph glyph-name="guillemotleft" unicode="&#xab;" horiz-adv-x="538" 
d="M177 483l91 -61l-116 -173l116 -173l-91 -61l-159 234zM419 483l91 -61l-116 -173l116 -173l-91 -61l-159 234z" />
    <glyph glyph-name="logicalnot" unicode="&#xac;" horiz-adv-x="666" 
d="M59 462h548v-320h-126v194h-422v126z" />
    <glyph glyph-name="uni00AD" unicode="&#xad;" horiz-adv-x="296" 
d="M25 309h246v-120h-246v120z" />
    <glyph glyph-name="registered" unicode="&#xae;" horiz-adv-x="800" 
d="M137 617c73 73 160 109 263 109s190 -36 263 -109s109 -160 109 -263s-36 -191 -109 -263c-73 -73 -160 -109 -263 -109s-190 36 -263 109s-109 160 -109 263c0 102 36 190 109 263zM130 354c0 -77 26 -143 79 -198c52 -56 116 -84 191 -84c76 0 140 28 192 84
s78 122 78 198c0 77 -26 143 -78 199c-53 55 -117 83 -193 83c-75 0 -139 -28 -191 -84c-52 -57 -78 -123 -78 -198zM257 553h143c107 0 161 -42 161 -126c0 -64 -30 -100 -91 -109l100 -155h-105l-89 150h-17v-150h-102v390zM358 475v-84h43c39 0 58 14 58 42
s-19 42 -58 42h-43z" />
    <glyph glyph-name="overscore" unicode="&#xaf;" horiz-adv-x="260" 
d="M-40 687h340v-96h-340v96z" />
    <glyph glyph-name="degree" unicode="&#xb0;" horiz-adv-x="400" 
d="M200 720c48 0 89 -17 122 -50c33 -34 50 -75 50 -122s-17 -88 -50 -121c-33 -34 -74 -51 -122 -51c-47 0 -87 17 -121 50s-51 74 -51 122s17 89 51 122c33 33 74 50 121 50zM138 611c-57 -51 -14 -156 62 -151c48 0 88 39 88 88c0 48 -39 88 -88 88c-24 0 -45 -8 -62 -25
z" />
    <glyph glyph-name="plusminus" unicode="&#xb1;" horiz-adv-x="666" 
d="M270 577h126v-128h211v-126h-211v-128h-126v128h-211v126h211v128zM59 155h548v-126h-548v126z" />
    <glyph glyph-name="two.sups" unicode="&#xb2;" horiz-adv-x="385" 
d="M199 720c96 0 162 -45 162 -120c0 -59 -13 -80 -58 -115l-143 -110v-2h201v-84h-337v89l195 165c23 19 34 35 34 48c0 24 -23 39 -59 39c-39 0 -63 -23 -66 -54l-102 6c7 89 69 138 173 138z" />
    <glyph glyph-name="three.sups" unicode="&#xb3;" horiz-adv-x="385" 
d="M195 720c96 0 164 -43 164 -114c0 -48 -30 -84 -83 -93v-2c56 -5 92 -49 92 -100c0 -79 -71 -128 -176 -128c-99 0 -157 39 -175 118l109 22c7 -33 29 -50 66 -50c45 0 68 16 68 48s-21 47 -82 47h-35v84h33c50 0 75 15 75 45c0 22 -19 33 -56 33c-35 0 -57 -15 -64 -44
l-110 20c20 76 78 114 174 114z" />
    <glyph glyph-name="acute" unicode="&#xb4;" horiz-adv-x="260" 
d="M131 708h204l-173 -144h-132z" />
    <glyph glyph-name="uni00B5" unicode="&#xb5;" horiz-adv-x="574" 
d="M53 486h150v-249c0 -83 23 -117 78 -117c63 0 90 39 90 120v246h150v-486h-144v66h-2c-27 -49 -81 -78 -142 -78c-11 0 -21 1 -30 3v-219h-150v714z" />
    <glyph glyph-name="paragraph" unicode="&#xb6;" horiz-adv-x="620" 
d="M255 708h306v-841h-108v745h-109v-745h-108v492c-144 0 -223 62 -223 171c0 123 77 178 242 178z" />
    <glyph glyph-name="middot" unicode="&#xb7;" horiz-adv-x="296" 
d="M83 348c52 59 163 14 157 -65c5 -80 -105 -124 -157 -65c-36 36 -36 94 0 130z" />
    <glyph glyph-name="cedilla" unicode="&#xb8;" horiz-adv-x="260" 
d="M101 0h67l-41 -60h6c80 0 120 -28 120 -83c0 -60 -64 -97 -140 -97c-41 0 -82 10 -124 30l25 47c29 -11 54 -17 77 -17c44 0 66 11 66 32s-23 34 -50 34c-11 0 -23 -3 -36 -8l-32 29z" />
    <glyph glyph-name="one.sups" unicode="&#xb9;" horiz-adv-x="385" 
d="M195 714h96v-425h-108v317l-89 -75l-58 66z" />
    <glyph glyph-name="ordmasculine" unicode="&#xba;" horiz-adv-x="397" 
d="M73 684c33 28 74 42 125 42s93 -14 126 -42c33 -29 50 -65 50 -109c0 -91 -72 -150 -176 -150s-175 61 -175 150c0 44 17 80 50 109zM125 576c0 -37 30 -67 73 -67s74 29 74 66c0 40 -33 67 -74 67s-73 -27 -73 -66z" />
    <glyph glyph-name="guillemotright" unicode="&#xbb;" horiz-adv-x="538" 
d="M28 422l91 61l159 -234l-159 -234l-91 61l116 173zM270 422l91 61l159 -234l-159 -234l-91 61l116 173z" />
    <glyph glyph-name="onequarter" unicode="&#xbc;" horiz-adv-x="889" 
d="M189 11l405 729l84 -47l-413 -725zM167 714h96v-425h-108v317l-89 -75l-58 66zM706 425h118v-256h57v-84h-57v-85h-108v85h-209v78zM714 305l-99 -136h101v136h-2z" />
    <glyph glyph-name="onehalf" unicode="&#xbd;" horiz-adv-x="889" 
d="M189 11l405 729l84 -47l-413 -725zM167 714h96v-425h-108v317l-89 -75l-58 66zM719 431c96 0 162 -45 162 -120c0 -59 -13 -80 -58 -115l-143 -110v-2h201v-84h-337v89l195 165c23 19 34 35 34 48c0 24 -23 39 -59 39c-37 0 -63 -23 -66 -54l-102 6c7 89 69 138 173 138z
" />
    <glyph glyph-name="threequarters" unicode="&#xbe;" horiz-adv-x="889" 
d="M213 11l405 729l84 -47l-413 -725zM182 720c96 0 164 -43 164 -114c0 -48 -30 -84 -83 -93v-2c56 -5 92 -49 92 -100c0 -79 -71 -128 -176 -128c-99 0 -157 39 -175 118l109 22c7 -33 29 -50 66 -50c45 0 68 16 68 48s-21 47 -82 47h-35v84h33c50 0 75 15 75 45
c0 22 -19 33 -56 33c-35 0 -57 -15 -64 -44l-110 20c20 76 78 114 174 114zM710 425h118v-256h57v-84h-57v-85h-108v85h-209v78zM718 305l-99 -136h101v136h-2z" />
    <glyph glyph-name="questiondown" unicode="&#xbf;" horiz-adv-x="556" 
d="M265 492c51 0 92 -43 92 -92c5 -79 -105 -124 -157 -65c-60 52 -12 162 65 157zM190 252h150v-36c0 -28 -3 -49 -10 -64s-22 -33 -46 -54l-66 -60c-27 -25 -41 -48 -41 -70c0 -41 28 -70 72 -70c56 0 94 33 99 89l154 -10c-13 -139 -109 -217 -250 -217
c-67 0 -121 18 -162 53c-42 36 -63 84 -63 144c0 79 35 128 119 193c35 27 44 44 44 80v22z" />
    <glyph glyph-name="Agrave" unicode="&#xc0;" horiz-adv-x="741" 
d="M168 904h204l101 -144h-132zM305 708h129l308 -708h-176l-61 150h-275l-59 -150h-172zM365 502l-86 -220h173z" />
    <glyph glyph-name="Aacute" unicode="&#xc1;" horiz-adv-x="741" 
d="M372 904h204l-173 -144h-132zM305 708h129l308 -708h-176l-61 150h-275l-59 -150h-172zM365 502l-86 -220h173z" />
    <glyph glyph-name="Acircumflex" unicode="&#xc2;" horiz-adv-x="741" 
d="M291 904h163l116 -144h-138l-63 78l-62 -78h-135zM305 708h129l308 -708h-176l-61 150h-275l-59 -150h-172zM365 502l-86 -220h173z" />
    <glyph glyph-name="Atilde" unicode="&#xc3;" horiz-adv-x="741" 
d="M302 904c23 0 52 -7 87 -21c23 -10 42 -15 56 -15c19 0 33 12 44 36h78c-15 -92 -59 -138 -130 -138c-20 0 -46 7 -78 21c-31 14 -52 21 -63 21c-19 0 -33 -14 -42 -42h-79c13 81 62 138 127 138zM305 708h129l308 -708h-176l-61 150h-275l-59 -150h-172zM365 502
l-86 -220h173z" />
    <glyph glyph-name="Adieresis" unicode="&#xc4;" horiz-adv-x="741" 
d="M264 922c48 0 87 -35 87 -82c0 -48 -36 -86 -85 -86c-45 0 -83 39 -83 86c0 44 37 82 81 82zM472 922c48 0 87 -35 87 -82c0 -48 -36 -86 -85 -86c-45 0 -83 39 -83 86c0 44 38 82 81 82zM305 708h129l308 -708h-176l-61 150h-275l-59 -150h-172zM365 502l-86 -220h173z
" />
    <glyph glyph-name="Aring" unicode="&#xc5;" horiz-adv-x="741" 
d="M371 953c31 0 57 -11 79 -33c21 -23 32 -49 32 -78c0 -30 -11 -56 -33 -78s-48 -33 -78 -33s-56 11 -78 33c-44 44 -44 112 0 156c22 22 48 33 78 33zM336 878c-21 -20 -21 -52 -1 -72s52 -20 72 0c31 31 9 87 -37 87c-13 0 -24 -5 -34 -15zM305 708h129l308 -708h-176
l-61 150h-275l-59 -150h-172zM365 502l-86 -220h173z" />
    <glyph glyph-name="AE" unicode="&#xc6;" horiz-adv-x="1037" 
d="M434 708h538v-144h-282v-132h258v-144h-258v-144h294v-144h-450v150h-263l-95 -150h-191zM517 564l-179 -282h196v282h-17z" />
    <glyph glyph-name="Ccedilla" unicode="&#xc7;" horiz-adv-x="685" 
d="M416 726c96 0 187 -37 239 -104l-120 -98c-32 39 -77 58 -134 58s-106 -21 -145 -63c-40 -42 -60 -97 -60 -165c0 -62 18 -115 55 -160s85 -68 145 -68c63 0 112 25 146 76l130 -97c-55 -79 -153 -123 -256 -123c-8 0 -14 0 -19 1l-29 -43h6c80 0 120 -28 120 -83
c0 -30 -14 -54 -42 -71s-60 -26 -97 -26c-42 0 -84 10 -125 30l25 47c30 -11 56 -17 77 -17c44 0 66 11 66 32c0 20 -23 34 -50 34c-11 0 -23 -3 -36 -8l-32 29l54 82c-91 16 -163 57 -218 122s-82 146 -82 243c0 111 36 201 107 270c71 68 162 102 275 102z" />
    <glyph glyph-name="Egrave" unicode="&#xc8;" horiz-adv-x="630" 
d="M112 904h204l101 -144h-132zM78 708h481v-144h-325v-132h307v-144h-307v-144h343v-144h-499v708z" />
    <glyph glyph-name="Eacute" unicode="&#xc9;" horiz-adv-x="630" 
d="M316 904h204l-173 -144h-132zM78 708h481v-144h-325v-132h307v-144h-307v-144h343v-144h-499v708z" />
    <glyph glyph-name="Ecircumflex" unicode="&#xca;" horiz-adv-x="630" 
d="M235 904h163l116 -144h-138l-63 78l-62 -78h-135zM78 708h481v-144h-325v-132h307v-144h-307v-144h343v-144h-499v708z" />
    <glyph glyph-name="Edieresis" unicode="&#xcb;" horiz-adv-x="630" 
d="M208 922c48 0 87 -35 87 -82c0 -48 -36 -86 -85 -86c-45 0 -83 39 -83 86c0 44 37 82 81 82zM416 922c48 0 87 -35 87 -82c0 -48 -36 -86 -85 -86c-45 0 -83 39 -83 86c0 44 38 82 81 82zM78 708h481v-144h-325v-132h307v-144h-307v-144h343v-144h-499v708z" />
    <glyph glyph-name="Igrave" unicode="&#xcc;" horiz-adv-x="296" 
d="M-55 904h204l101 -144h-132zM70 708h156v-708h-156v708z" />
    <glyph glyph-name="Iacute" unicode="&#xcd;" horiz-adv-x="296" 
d="M149 904h204l-173 -144h-132zM70 708h156v-708h-156v708z" />
    <glyph glyph-name="Icircumflex" unicode="&#xce;" horiz-adv-x="296" 
d="M68 904h163l116 -144h-138l-63 78l-62 -78h-135zM70 708h156v-708h-156v708z" />
    <glyph glyph-name="Idieresis" unicode="&#xcf;" horiz-adv-x="296" 
d="M41 922c48 0 87 -35 87 -82c0 -48 -36 -86 -85 -86c-45 0 -83 39 -83 86c0 44 37 82 81 82zM249 922c48 0 87 -35 87 -82c0 -48 -36 -86 -85 -86c-45 0 -83 39 -83 86c0 44 38 82 81 82zM70 708h156v-708h-156v708z" />
    <glyph glyph-name="Eth" unicode="&#xd0;" horiz-adv-x="759" 
d="M72 708h240c116 0 213 -26 290 -81c77 -56 123 -151 123 -274c1 -220 -182 -358 -394 -353h-259v318h-60v102h60v288zM228 144h86c151 0 249 66 249 215c0 67 -23 118 -68 153c-46 35 -103 52 -171 52h-96v-144h198v-102h-198v-174z" />
    <glyph glyph-name="Ntilde" unicode="&#xd1;" horiz-adv-x="815" 
d="M339 904c23 0 52 -7 87 -21c23 -10 42 -15 56 -15c19 0 33 12 44 36h78c-15 -92 -59 -138 -130 -138c-20 0 -46 7 -78 21c-31 14 -52 21 -63 21c-19 0 -33 -14 -42 -42h-79c13 81 62 138 127 138zM72 708h212l301 -492h2v492h156v-708h-204l-309 504h-2v-504h-156v708z
" />
    <glyph glyph-name="Ograve" unicode="&#xd2;" horiz-adv-x="832" 
d="M213 904h204l101 -144h-132zM416 726c113 0 205 -34 276 -102s106 -158 106 -270c0 -111 -36 -201 -107 -269c-71 -69 -163 -103 -275 -103c-113 0 -204 34 -275 102s-107 158 -107 270s36 202 107 270s162 102 275 102zM257 519c-41 -43 -61 -98 -61 -165
s20 -122 61 -164c40 -43 93 -64 159 -64c65 0 118 21 159 64s61 97 61 164s-20 122 -61 165c-41 42 -94 63 -160 63c-65 0 -118 -21 -158 -63z" />
    <glyph glyph-name="Oacute" unicode="&#xd3;" horiz-adv-x="832" 
d="M417 904h204l-173 -144h-132zM416 726c113 0 205 -34 276 -102s106 -158 106 -270c0 -111 -36 -201 -107 -269c-71 -69 -163 -103 -275 -103c-113 0 -204 34 -275 102s-107 158 -107 270s36 202 107 270s162 102 275 102zM257 519c-41 -43 -61 -98 -61 -165
s20 -122 61 -164c40 -43 93 -64 159 -64c65 0 118 21 159 64s61 97 61 164s-20 122 -61 165c-41 42 -94 63 -160 63c-65 0 -118 -21 -158 -63z" />
    <glyph glyph-name="Ocircumflex" unicode="&#xd4;" horiz-adv-x="832" 
d="M336 904h163l116 -144h-138l-63 78l-62 -78h-135zM416 726c113 0 205 -34 276 -102s106 -158 106 -270c0 -111 -36 -201 -107 -269c-71 -69 -163 -103 -275 -103c-113 0 -204 34 -275 102s-107 158 -107 270s36 202 107 270s162 102 275 102zM257 519
c-41 -43 -61 -98 -61 -165s20 -122 61 -164c40 -43 93 -64 159 -64c65 0 118 21 159 64s61 97 61 164s-20 122 -61 165c-41 42 -94 63 -160 63c-65 0 -118 -21 -158 -63z" />
    <glyph glyph-name="Otilde" unicode="&#xd5;" horiz-adv-x="832" 
d="M347 904c23 0 52 -7 87 -21c23 -10 42 -15 56 -15c19 0 33 12 44 36h78c-15 -92 -59 -138 -130 -138c-20 0 -46 7 -78 21c-31 14 -52 21 -63 21c-19 0 -33 -14 -42 -42h-79c13 81 62 138 127 138zM416 726c113 0 205 -34 276 -102s106 -158 106 -270
c0 -111 -36 -201 -107 -269c-71 -69 -163 -103 -275 -103c-113 0 -204 34 -275 102s-107 158 -107 270s36 202 107 270s162 102 275 102zM257 519c-41 -43 -61 -98 -61 -165s20 -122 61 -164c40 -43 93 -64 159 -64c65 0 118 21 159 64s61 97 61 164s-20 122 -61 165
c-41 42 -94 63 -160 63c-65 0 -118 -21 -158 -63z" />
    <glyph glyph-name="Odieresis" unicode="&#xd6;" horiz-adv-x="832" 
d="M309 922c48 0 87 -35 87 -82c0 -48 -36 -86 -85 -86c-45 0 -83 39 -83 86c0 44 37 82 81 82zM517 922c48 0 87 -35 87 -82c0 -48 -36 -86 -85 -86c-45 0 -83 39 -83 86c0 44 38 82 81 82zM416 726c113 0 205 -34 276 -102s106 -158 106 -270c0 -111 -36 -201 -107 -269
c-71 -69 -163 -103 -275 -103c-113 0 -204 34 -275 102s-107 158 -107 270s36 202 107 270s162 102 275 102zM257 519c-41 -43 -61 -98 -61 -165s20 -122 61 -164c40 -43 93 -64 159 -64c65 0 118 21 159 64s61 97 61 164s-20 122 -61 165c-41 42 -94 63 -160 63
c-65 0 -118 -21 -158 -63z" />
    <glyph glyph-name="multiply" unicode="&#xd7;" horiz-adv-x="666" 
d="M157 570l177 -175l172 174l89 -86l-173 -180l180 -173l-92 -93l-176 176l-177 -177l-89 86l174 181l-178 172z" />
    <glyph glyph-name="Oslash" unicode="&#xd8;" horiz-adv-x="832" 
d="M643 662l92 100l55 -49l-90 -98c65 -67 98 -154 98 -261c0 -112 -36 -202 -107 -270s-163 -102 -275 -102c-92 0 -170 23 -233 68l-93 -101l-56 48l93 102c-62 68 -93 153 -93 255c0 112 36 202 107 270s162 102 275 102c87 0 162 -21 227 -64zM196 354
c0 -52 13 -98 39 -137l304 331c-36 23 -77 34 -124 34c-65 0 -118 -22 -158 -65c-41 -43 -61 -98 -61 -163zM592 497l-305 -333c35 -25 78 -38 129 -38c65 0 118 21 159 64s61 97 61 164c0 56 -15 104 -44 143z" />
    <glyph glyph-name="Ugrave" unicode="&#xd9;" horiz-adv-x="741" 
d="M168 904h204l101 -144h-132zM72 270v438h156v-431c0 -43 14 -78 41 -107s61 -44 102 -44c39 0 72 14 100 42s42 64 42 109v431h156v-438c0 -83 -25 -151 -76 -206s-125 -82 -222 -82s-171 27 -222 82s-77 123 -77 206z" />
    <glyph glyph-name="Uacute" unicode="&#xda;" horiz-adv-x="741" 
d="M372 904h204l-173 -144h-132zM72 270v438h156v-431c0 -43 14 -78 41 -107s61 -44 102 -44c39 0 72 14 100 42s42 64 42 109v431h156v-438c0 -83 -25 -151 -76 -206s-125 -82 -222 -82s-171 27 -222 82s-77 123 -77 206z" />
    <glyph glyph-name="Ucircumflex" unicode="&#xdb;" horiz-adv-x="741" 
d="M291 904h163l116 -144h-138l-63 78l-62 -78h-135zM72 270v438h156v-431c0 -43 14 -78 41 -107s61 -44 102 -44c39 0 72 14 100 42s42 64 42 109v431h156v-438c0 -83 -25 -151 -76 -206s-125 -82 -222 -82s-171 27 -222 82s-77 123 -77 206z" />
    <glyph glyph-name="Udieresis" unicode="&#xdc;" horiz-adv-x="741" 
d="M264 922c48 0 87 -35 87 -82c0 -48 -36 -86 -85 -86c-45 0 -83 39 -83 86c0 44 37 82 81 82zM472 922c48 0 87 -35 87 -82c0 -48 -36 -86 -85 -86c-45 0 -83 39 -83 86c0 44 38 82 81 82zM72 270v438h156v-431c0 -43 14 -78 41 -107s61 -44 102 -44c39 0 72 14 100 42
s42 64 42 109v431h156v-438c0 -83 -25 -151 -76 -206s-125 -82 -222 -82s-171 27 -222 82s-77 123 -77 206z" />
    <glyph glyph-name="Yacute" unicode="&#xdd;" horiz-adv-x="648" 
d="M325 930h204l-173 -144h-132zM-20 708h194l150 -265l159 265h185l-266 -406v-302h-156v302z" />
    <glyph glyph-name="Thorn" unicode="&#xde;" horiz-adv-x="630" 
d="M72 708h156v-126h112c176 0 264 -72 264 -215c0 -145 -86 -217 -257 -217h-119v-150h-156v708zM228 282h106c68 0 108 30 108 85s-43 83 -130 83h-84v-168z" />
    <glyph glyph-name="germandbls" unicode="&#xdf;" horiz-adv-x="630" 
d="M309 768c67 0 122 -16 166 -49c43 -33 65 -78 65 -134c0 -79 -34 -132 -102 -160v-2c99 -20 156 -95 156 -206c0 -70 -22 -126 -66 -167s-101 -62 -172 -62c-29 0 -60 4 -93 12v122c17 -5 34 -8 49 -8c84 0 138 45 138 117c0 77 -48 122 -140 122h-17v126h10
c56 0 93 31 93 79c0 47 -40 78 -91 78c-61 0 -102 -40 -102 -95v-541h-150v517c0 167 85 251 256 251z" />
    <glyph glyph-name="agrave" unicode="&#xe0;" horiz-adv-x="537" 
d="M66 708h204l101 -144h-132zM274 498c163 0 222 -76 222 -244v-254h-138v61h-2c-31 -49 -82 -73 -154 -73c-48 0 -89 13 -122 40c-34 27 -51 63 -51 110s19 85 44 109c24 23 72 40 105 48c30 7 98 13 124 14h56c0 53 -44 87 -96 87c-47 0 -87 -19 -122 -58l-80 82
c54 52 125 78 214 78zM173 143c0 -35 35 -53 72 -53c61 0 113 33 113 92v31h-45c-93 0 -140 -23 -140 -70z" />
    <glyph glyph-name="aacute" unicode="&#xe1;" horiz-adv-x="537" 
d="M270 708h204l-173 -144h-132zM274 498c163 0 222 -76 222 -244v-254h-138v61h-2c-31 -49 -82 -73 -154 -73c-48 0 -89 13 -122 40c-34 27 -51 63 -51 110s19 85 44 109c24 23 72 40 105 48c30 7 98 13 124 14h56c0 53 -44 87 -96 87c-47 0 -87 -19 -122 -58l-80 82
c54 52 125 78 214 78zM173 143c0 -35 35 -53 72 -53c61 0 113 33 113 92v31h-45c-93 0 -140 -23 -140 -70z" />
    <glyph glyph-name="acircumflex" unicode="&#xe2;" horiz-adv-x="537" 
d="M189 708h163l116 -144h-138l-63 78l-62 -78h-135zM274 498c163 0 222 -76 222 -244v-254h-138v61h-2c-31 -49 -82 -73 -154 -73c-48 0 -89 13 -122 40c-34 27 -51 63 -51 110s19 85 44 109c24 23 72 40 105 48c30 7 98 13 124 14h56c0 53 -44 87 -96 87
c-47 0 -87 -19 -122 -58l-80 82c54 52 125 78 214 78zM173 143c0 -35 35 -53 72 -53c61 0 113 33 113 92v31h-45c-93 0 -140 -23 -140 -70z" />
    <glyph glyph-name="atilde" unicode="&#xe3;" horiz-adv-x="537" 
d="M200 708c23 0 52 -7 87 -21c23 -10 42 -15 56 -15c19 0 33 12 44 36h78c-15 -92 -59 -138 -130 -138c-20 0 -46 7 -78 21c-31 14 -52 21 -63 21c-19 0 -33 -14 -42 -42h-79c13 81 62 138 127 138zM274 498c163 0 222 -76 222 -244v-254h-138v61h-2
c-31 -49 -82 -73 -154 -73c-48 0 -89 13 -122 40c-34 27 -51 63 -51 110s19 85 44 109c24 23 72 40 105 48c30 7 98 13 124 14h56c0 53 -44 87 -96 87c-47 0 -87 -19 -122 -58l-80 82c54 52 125 78 214 78zM173 143c0 -35 35 -53 72 -53c61 0 113 33 113 92v31h-45
c-93 0 -140 -23 -140 -70z" />
    <glyph glyph-name="adieresis" unicode="&#xe4;" horiz-adv-x="537" 
d="M162 726c45 0 87 -34 87 -82s-36 -86 -85 -86c-47 0 -83 39 -83 86c0 44 37 82 81 82zM370 726c47 0 87 -35 87 -82c0 -48 -36 -86 -85 -86c-45 0 -83 39 -83 86c0 44 38 82 81 82zM274 498c163 0 222 -76 222 -244v-254h-138v61h-2c-31 -49 -82 -73 -154 -73
c-48 0 -89 13 -122 40c-34 27 -51 63 -51 110s19 85 44 109c24 23 72 40 105 48c30 7 98 13 124 14h56c0 53 -44 87 -96 87c-47 0 -87 -19 -122 -58l-80 82c54 52 125 78 214 78zM173 143c0 -35 35 -53 72 -53c61 0 113 33 113 92v31h-45c-93 0 -140 -23 -140 -70z" />
    <glyph glyph-name="aring" unicode="&#xe5;" horiz-adv-x="537" 
d="M269 767c31 0 57 -11 79 -33c21 -23 32 -49 32 -78s-11 -55 -32 -77c-22 -23 -48 -34 -79 -34c-29 0 -55 11 -77 33c-23 22 -34 48 -34 78s11 56 33 78s48 33 78 33zM234 692c-21 -20 -21 -52 -1 -72s52 -20 72 0c31 31 9 87 -37 87c-13 0 -24 -5 -34 -15zM274 498
c163 0 222 -76 222 -244v-254h-138v61h-2c-31 -49 -82 -73 -154 -73c-48 0 -89 13 -122 40c-34 27 -51 63 -51 110s19 85 44 109c24 23 72 40 105 48c30 7 98 13 124 14h56c0 53 -44 87 -96 87c-47 0 -87 -19 -122 -58l-80 82c54 52 125 78 214 78zM173 143
c0 -35 35 -53 72 -53c61 0 113 33 113 92v31h-45c-93 0 -140 -23 -140 -70z" />
    <glyph glyph-name="ae" unicode="&#xe6;" horiz-adv-x="852" 
d="M273 498c66 0 119 -20 159 -59c40 39 94 59 163 59c67 0 121 -22 164 -66s64 -107 64 -190v-46h-348c12 -56 56 -94 113 -94c43 0 78 20 107 59l105 -77c-48 -60 -126 -96 -205 -96c-93 0 -158 26 -194 79c-37 -53 -103 -79 -198 -79c-47 0 -88 13 -122 40
c-35 26 -52 63 -52 110c-4 76 51 118 107 138c36 14 97 19 133 21c17 1 38 1 63 1h17c0 56 -32 98 -87 98c-47 0 -87 -19 -122 -58l-80 82c53 51 134 78 213 78zM475 298h198c0 53 -41 92 -93 92c-56 0 -100 -36 -105 -92zM173 139c0 -33 26 -49 77 -49c66 0 99 35 99 104v2
h-19c-105 0 -157 -19 -157 -57z" />
    <glyph glyph-name="ccedilla" unicode="&#xe7;" horiz-adv-x="482" 
d="M308 498c74 0 132 -22 173 -65l-99 -104c-18 25 -43 37 -74 37c-73 0 -120 -50 -120 -123c0 -75 48 -123 120 -123c29 0 54 12 74 37l99 -104c-43 -43 -100 -65 -173 -65h-10l-32 -48h6c80 0 120 -28 120 -83c0 -33 -15 -58 -46 -74c-31 -15 -62 -23 -93 -23
c-42 0 -84 10 -125 30l25 47c30 -11 56 -17 77 -17c44 0 66 11 66 32c0 20 -23 34 -50 34c-11 0 -23 -3 -36 -8l-32 29l59 89c-119 27 -199 120 -199 247c0 76 26 138 78 185c51 47 115 70 192 70z" />
    <glyph glyph-name="egrave" unicode="&#xe8;" horiz-adv-x="574" 
d="M84 708h204l101 -144h-132zM38 243c0 76 26 138 78 185c51 47 117 70 196 70c94 0 224 -57 224 -260v-42h-348c12 -57 53 -94 113 -94c41 0 77 20 107 59l105 -77c-47 -60 -128 -96 -205 -96c-75 0 -139 23 -191 70c-53 47 -79 108 -79 185zM188 298h198
c0 55 -40 92 -93 92c-57 0 -100 -36 -105 -92z" />
    <glyph glyph-name="eacute" unicode="&#xe9;" horiz-adv-x="574" 
d="M288 708h204l-173 -144h-132zM38 243c0 76 26 138 78 185c51 47 117 70 196 70c94 0 224 -57 224 -260v-42h-348c12 -57 53 -94 113 -94c41 0 77 20 107 59l105 -77c-47 -60 -128 -96 -205 -96c-75 0 -139 23 -191 70c-53 47 -79 108 -79 185zM188 298h198
c0 55 -40 92 -93 92c-57 0 -100 -36 -105 -92z" />
    <glyph glyph-name="ecircumflex" unicode="&#xea;" horiz-adv-x="574" 
d="M207 708h163l116 -144h-138l-63 78l-62 -78h-135zM38 243c0 76 26 138 78 185c51 47 117 70 196 70c94 0 224 -57 224 -260v-42h-348c12 -57 53 -94 113 -94c41 0 77 20 107 59l105 -77c-47 -60 -128 -96 -205 -96c-75 0 -139 23 -191 70c-53 47 -79 108 -79 185z
M188 298h198c0 55 -40 92 -93 92c-57 0 -100 -36 -105 -92z" />
    <glyph glyph-name="edieresis" unicode="&#xeb;" horiz-adv-x="574" 
d="M180 726c45 0 87 -34 87 -82s-36 -86 -85 -86c-47 0 -83 39 -83 86c0 44 37 82 81 82zM388 726c47 0 87 -35 87 -82c0 -48 -36 -86 -85 -86c-45 0 -83 39 -83 86c0 44 38 82 81 82zM38 243c0 76 26 138 78 185c51 47 117 70 196 70c94 0 224 -57 224 -260v-42h-348
c12 -57 53 -94 113 -94c41 0 77 20 107 59l105 -77c-47 -60 -128 -96 -205 -96c-75 0 -139 23 -191 70c-53 47 -79 108 -79 185zM188 298h198c0 55 -40 92 -93 92c-57 0 -100 -36 -105 -92z" />
    <glyph glyph-name="igrave" unicode="&#xec;" horiz-adv-x="260" 
d="M-73 708h204l101 -144h-132zM55 486h150v-486h-150v486z" />
    <glyph glyph-name="iacute" unicode="&#xed;" horiz-adv-x="260" 
d="M131 708h204l-173 -144h-132zM55 486h150v-486h-150v486z" />
    <glyph glyph-name="icircumflex" unicode="&#xee;" horiz-adv-x="260" 
d="M50 708h163l116 -144h-138l-63 78l-62 -78h-135zM55 486h150v-486h-150v486z" />
    <glyph glyph-name="idieresis" unicode="&#xef;" horiz-adv-x="260" 
d="M23 726c45 0 87 -34 87 -82s-36 -86 -85 -86c-47 0 -83 39 -83 86c0 44 37 82 81 82zM231 726c47 0 87 -35 87 -82c0 -48 -36 -86 -85 -86c-45 0 -83 39 -83 86c0 44 38 82 81 82zM55 486h150v-486h-150v486z" />
    <glyph glyph-name="eth" unicode="&#xf0;" horiz-adv-x="610" 
d="M133 731l122 70c22 -17 49 -41 80 -72l114 48l77 -67l-123 -51c112 -116 172 -231 172 -375c0 -89 -22 -160 -67 -214c-45 -55 -112 -82 -200 -82c-77 0 -142 23 -194 70c-53 46 -79 108 -79 185c0 75 25 136 76 184c51 47 108 71 172 71c43 0 76 -9 98 -26l2 2
c-34 48 -71 91 -111 129l-106 -45l-72 68l108 46c-23 24 -46 44 -69 59zM217 332c-21 -23 -32 -52 -32 -89s11 -66 33 -89c21 -23 50 -34 87 -34c75 0 120 50 120 123s-46 123 -121 123c-37 0 -66 -11 -87 -34z" />
    <glyph glyph-name="ntilde" unicode="&#xf1;" horiz-adv-x="574" 
d="M218 708c23 0 52 -7 87 -21c23 -10 42 -15 56 -15c19 0 33 12 44 36h78c-15 -92 -59 -138 -130 -138c-20 0 -46 7 -78 21c-31 14 -52 21 -63 21c-19 0 -33 -14 -42 -42h-79c13 81 62 138 127 138zM341 498c124 0 180 -64 180 -223v-275h-150v250c0 84 -25 116 -78 116
c-60 0 -90 -40 -90 -119v-247h-150v486h144v-66h2c27 49 79 78 142 78z" />
    <glyph glyph-name="ograve" unicode="&#xf2;" horiz-adv-x="610" 
d="M102 708h204l101 -144h-132zM113 428c51 47 115 70 192 70s141 -23 193 -70c51 -47 77 -109 77 -185c0 -75 -26 -137 -78 -184s-116 -71 -192 -71c-77 0 -141 23 -192 70c-52 47 -78 108 -78 185c0 76 26 138 78 185zM218 332c-22 -23 -33 -52 -33 -89s11 -66 33 -89
c21 -23 50 -34 87 -34c73 0 120 48 120 123c0 76 -46 123 -121 123c-36 0 -65 -11 -86 -34z" />
    <glyph glyph-name="oacute" unicode="&#xf3;" horiz-adv-x="610" 
d="M306 708h204l-173 -144h-132zM113 428c51 47 115 70 192 70s141 -23 193 -70c51 -47 77 -109 77 -185c0 -75 -26 -137 -78 -184s-116 -71 -192 -71c-77 0 -141 23 -192 70c-52 47 -78 108 -78 185c0 76 26 138 78 185zM218 332c-22 -23 -33 -52 -33 -89s11 -66 33 -89
c21 -23 50 -34 87 -34c73 0 120 48 120 123c0 76 -46 123 -121 123c-36 0 -65 -11 -86 -34z" />
    <glyph glyph-name="ocircumflex" unicode="&#xf4;" horiz-adv-x="610" 
d="M225 708h163l116 -144h-138l-63 78l-62 -78h-135zM113 428c51 47 115 70 192 70s141 -23 193 -70c51 -47 77 -109 77 -185c0 -75 -26 -137 -78 -184s-116 -71 -192 -71c-77 0 -141 23 -192 70c-52 47 -78 108 -78 185c0 76 26 138 78 185zM218 332
c-22 -23 -33 -52 -33 -89s11 -66 33 -89c21 -23 50 -34 87 -34c73 0 120 48 120 123c0 76 -46 123 -121 123c-36 0 -65 -11 -86 -34z" />
    <glyph glyph-name="otilde" unicode="&#xf5;" horiz-adv-x="610" 
d="M236 708c23 0 52 -7 87 -21c23 -10 42 -15 56 -15c19 0 33 12 44 36h78c-15 -92 -59 -138 -130 -138c-20 0 -46 7 -78 21c-31 14 -52 21 -63 21c-19 0 -33 -14 -42 -42h-79c13 81 62 138 127 138zM113 428c51 47 115 70 192 70s141 -23 193 -70c51 -47 77 -109 77 -185
c0 -75 -26 -137 -78 -184s-116 -71 -192 -71c-77 0 -141 23 -192 70c-52 47 -78 108 -78 185c0 76 26 138 78 185zM218 332c-22 -23 -33 -52 -33 -89s11 -66 33 -89c21 -23 50 -34 87 -34c73 0 120 48 120 123c0 76 -46 123 -121 123c-36 0 -65 -11 -86 -34z" />
    <glyph glyph-name="odieresis" unicode="&#xf6;" horiz-adv-x="610" 
d="M198 726c45 0 87 -34 87 -82s-36 -86 -85 -86c-47 0 -83 39 -83 86c0 44 37 82 81 82zM406 726c47 0 87 -35 87 -82c0 -48 -36 -86 -85 -86c-45 0 -83 39 -83 86c0 44 38 82 81 82zM113 428c51 47 115 70 192 70s141 -23 193 -70c51 -47 77 -109 77 -185
c0 -75 -26 -137 -78 -184s-116 -71 -192 -71c-77 0 -141 23 -192 70c-52 47 -78 108 -78 185c0 76 26 138 78 185zM218 332c-22 -23 -33 -52 -33 -89s11 -66 33 -89c21 -23 50 -34 87 -34c73 0 120 48 120 123c0 76 -46 123 -121 123c-36 0 -65 -11 -86 -34z" />
    <glyph glyph-name="divide" unicode="&#xf7;" horiz-adv-x="666" 
d="M272 553c49 56 152 12 147 -61c0 -47 -38 -86 -86 -86c-73 -4 -116 98 -61 147zM59 366h548v-126h-548v126zM333 200c48 0 86 -39 86 -86s-38 -86 -86 -86c-47 0 -86 39 -86 86s39 86 86 86z" />
    <glyph glyph-name="oslash" unicode="&#xf8;" horiz-adv-x="610" 
d="M470 449l67 67l47 -45l-66 -66c38 -45 57 -99 57 -162c0 -76 -26 -137 -77 -184c-52 -47 -116 -71 -193 -71c-61 0 -114 15 -159 46l-73 -73l-47 45l70 70c-41 45 -61 101 -61 167c0 76 26 138 78 185c51 47 115 70 192 70c63 0 118 -16 165 -49zM185 243
c0 -25 5 -46 15 -63l170 170c-18 11 -40 16 -66 16c-72 0 -119 -50 -119 -123zM413 300l-167 -166c19 -9 38 -14 59 -14c73 0 120 48 120 123c0 20 -4 39 -12 57z" />
    <glyph glyph-name="ugrave" unicode="&#xf9;" horiz-adv-x="574" 
d="M84 708h204l101 -144h-132zM53 486h150v-241c0 -28 0 -37 5 -64c3 -14 7 -25 12 -32c10 -15 32 -29 61 -29c63 0 90 39 90 120v246h150v-486h-144v66h-2c-27 -49 -80 -78 -143 -78c-127 0 -179 68 -179 224v274z" />
    <glyph glyph-name="uacute" unicode="&#xfa;" horiz-adv-x="574" 
d="M288 708h204l-173 -144h-132zM53 486h150v-241c0 -28 0 -37 5 -64c3 -14 7 -25 12 -32c10 -15 32 -29 61 -29c63 0 90 39 90 120v246h150v-486h-144v66h-2c-27 -49 -80 -78 -143 -78c-127 0 -179 68 -179 224v274z" />
    <glyph glyph-name="ucircumflex" unicode="&#xfb;" horiz-adv-x="574" 
d="M207 708h163l116 -144h-138l-63 78l-62 -78h-135zM53 486h150v-241c0 -28 0 -37 5 -64c3 -14 7 -25 12 -32c10 -15 32 -29 61 -29c63 0 90 39 90 120v246h150v-486h-144v66h-2c-27 -49 -80 -78 -143 -78c-127 0 -179 68 -179 224v274z" />
    <glyph glyph-name="udieresis" unicode="&#xfc;" horiz-adv-x="574" 
d="M180 726c45 0 87 -34 87 -82s-36 -86 -85 -86c-47 0 -83 39 -83 86c0 44 37 82 81 82zM388 726c47 0 87 -35 87 -82c0 -48 -36 -86 -85 -86c-45 0 -83 39 -83 86c0 44 38 82 81 82zM53 486h150v-241c0 -28 0 -37 5 -64c3 -14 7 -25 12 -32c10 -15 32 -29 61 -29
c63 0 90 39 90 120v246h150v-486h-144v66h-2c-27 -49 -80 -78 -143 -78c-127 0 -179 68 -179 224v274z" />
    <glyph glyph-name="yacute" unicode="&#xfd;" horiz-adv-x="556" 
d="M279 708h204l-173 -144h-132zM216 -4l-213 490h162l125 -321h2l107 321h154l-218 -560c-15 -36 -17 -43 -29 -71c-13 -28 -20 -33 -36 -52s-31 -23 -55 -32s-52 -11 -88 -11c-39 0 -76 6 -112 18l20 123c23 -10 47 -15 70 -15s40 2 53 11s20 11 29 29s11 20 20 44
c4 13 7 21 9 26z" />
    <glyph glyph-name="thorn" unicode="&#xfe;" horiz-adv-x="630" 
d="M67 -228v984h150v-322h2c25 40 84 64 137 64c72 0 130 -23 174 -70c43 -47 65 -108 65 -181c0 -69 -20 -129 -60 -181s-94 -78 -162 -78c-71 0 -122 21 -153 63h-3v-279h-150zM238 332c-22 -23 -33 -52 -33 -89s11 -66 33 -89c21 -23 50 -34 87 -34c73 0 120 48 120 123
c0 76 -46 123 -121 123c-36 0 -65 -11 -86 -34z" />
    <glyph glyph-name="ydieresis" unicode="&#xff;" horiz-adv-x="556" 
d="M171 726c45 0 87 -34 87 -82s-36 -86 -85 -86c-47 0 -83 39 -83 86c0 44 37 82 81 82zM379 726c47 0 87 -35 87 -82c0 -48 -36 -86 -85 -86c-45 0 -83 39 -83 86c0 44 38 82 81 82zM216 -4l-213 490h162l125 -321h2l107 321h154l-218 -560c-15 -36 -17 -43 -29 -71
c-13 -28 -20 -33 -36 -52s-31 -23 -55 -32s-52 -11 -88 -11c-39 0 -76 6 -112 18l20 123c23 -10 47 -15 70 -15s40 2 53 11s20 11 29 29s11 20 20 44c4 13 7 21 9 26z" />
    <glyph glyph-name="dotlessi" unicode="&#x131;" horiz-adv-x="260" 
d="M55 486h150v-486h-150v486z" />
    <glyph glyph-name="Lslash" unicode="&#x141;" horiz-adv-x="537" 
d="M78 708h156v-281l210 185v-130l-210 -184v-154h289v-144h-445v160l-60 -52v132l60 52v416z" />
    <glyph glyph-name="lslash" unicode="&#x142;" horiz-adv-x="260" 
d="M55 756h150v-229l60 61v-129l-60 -61v-398h-150v248l-60 -61v129l60 61v379z" />
    <glyph glyph-name="OE" unicode="&#x152;" horiz-adv-x="1018" 
d="M953 564h-288v-132h264v-144h-264v-144h300v-144h-536c-100 0 -220 34 -303 116c-54 52 -92 138 -92 238c0 110 37 197 110 260s165 94 276 94h533v-144zM196 354c0 -69 24 -121 73 -156c48 -36 109 -54 183 -54h57v420h-51c-119 0 -262 -46 -262 -210z" />
    <glyph glyph-name="oe" unicode="&#x153;" horiz-adv-x="944" 
d="M306 498c73 0 133 -24 182 -73c46 49 109 73 190 73c72 0 128 -24 168 -71c40 -48 60 -110 60 -186v-45h-348c12 -56 56 -94 113 -94c42 0 78 20 107 59l105 -77c-48 -60 -126 -96 -205 -96c-84 0 -147 23 -190 69c-45 -46 -106 -69 -182 -69c-77 0 -142 23 -193 70
c-52 47 -78 108 -78 185s26 138 78 185c51 47 116 70 193 70zM558 298h198c0 55 -40 92 -93 92c-57 0 -100 -36 -105 -92zM185 243c0 -75 46 -123 121 -123c73 0 120 48 120 123c0 76 -46 123 -121 123c-73 0 -120 -50 -120 -123z" />
    <glyph glyph-name="Scaron" unicode="&#x160;" horiz-adv-x="574" 
d="M84 930h138l63 -78l62 78h135l-119 -144h-163zM312 726c88 0 160 -25 217 -74l-107 -117c-24 31 -72 47 -113 47c-52 0 -105 -25 -105 -73c0 -17 5 -31 18 -42c12 -12 19 -19 43 -27c23 -9 28 -12 60 -20c15 -5 26 -8 32 -10c49 -15 81 -30 118 -58
c36 -29 55 -76 55 -137c0 -76 -26 -134 -78 -173c-52 -40 -117 -60 -195 -60c-95 0 -175 30 -238 89l111 122c35 -45 81 -67 136 -67c27 0 51 6 74 19c23 12 34 30 34 55c0 31 -20 49 -46 66c-10 6 -39 15 -50 19c-12 4 -47 15 -58 19c-52 17 -82 31 -120 60
c-38 28 -58 73 -58 132c0 72 27 128 80 169s116 61 190 61z" />
    <glyph glyph-name="scaron" unicode="&#x161;" horiz-adv-x="463" 
d="M29 708h138l63 -78l62 78h135l-119 -144h-163zM240 498c79 0 139 -21 180 -64l-92 -91c-23 27 -51 41 -86 41c-33 0 -56 -16 -56 -40c0 -23 22 -34 90 -47c117 -23 163 -68 163 -149c0 -105 -89 -160 -224 -160c-85 0 -148 22 -191 66l91 101c30 -35 65 -53 106 -53
c45 0 68 12 68 35c0 25 -25 36 -77 47c-43 9 -61 12 -97 28c-18 7 -32 16 -42 26c-20 19 -37 53 -37 96c0 101 84 164 204 164z" />
    <glyph glyph-name="Ydieresis" unicode="&#x178;" horiz-adv-x="648" 
d="M217 948c48 0 87 -35 87 -82c0 -48 -36 -86 -85 -86c-45 0 -83 39 -83 86c0 44 37 82 81 82zM425 948c48 0 87 -35 87 -82c0 -48 -36 -86 -85 -86c-45 0 -83 39 -83 86c0 44 38 82 81 82zM-20 708h194l150 -265l159 265h185l-266 -406v-302h-156v302z" />
    <glyph glyph-name="Zcaron" unicode="&#x17d;" horiz-adv-x="630" 
d="M112 931h138l63 -78l62 78h135l-119 -144h-163zM48 708h535v-138l-352 -426h364v-144h-560v144l359 426h-346v138z" />
    <glyph glyph-name="zcaron" unicode="&#x17e;" horiz-adv-x="500" 
d="M47 708h138l63 -78l62 78h135l-119 -144h-163zM40 486h420v-144l-264 -222h270v-120h-432v150l252 216h-246v120z" />
    <glyph glyph-name="florin" unicode="&#x192;" horiz-adv-x="592" 
d="M438 720c45 0 88 -10 131 -30l-53 -113c-18 7 -35 11 -52 11c-44 0 -67 -23 -78 -78l-16 -76h126v-102h-146l-58 -294c-24 -118 -91 -177 -201 -177c-35 0 -72 8 -111 24l52 119c13 -7 28 -11 46 -11c34 4 51 15 63 49c8 24 8 29 15 60l47 230h-114v102h134l20 101
c13 69 34 117 63 144s73 41 132 41z" />
    <glyph glyph-name="circumflex" unicode="&#x2c6;" horiz-adv-x="260" 
d="M50 708h163l116 -144h-138l-63 78l-62 -78h-135z" />
    <glyph glyph-name="caron" unicode="&#x2c7;" horiz-adv-x="260" 
d="M-73 708h138l63 -78l62 78h135l-119 -144h-163z" />
    <glyph glyph-name="uni02C9" unicode="&#x2c9;" horiz-adv-x="260" 
d="M-40 687h340v-96h-340v96z" />
    <glyph glyph-name="breve" unicode="&#x2d8;" horiz-adv-x="260" 
d="M-54 708h80c6 -32 41 -48 105 -48c28 0 39 1 61 6s35 19 43 42h79c-11 -97 -83 -144 -184 -144c-105 0 -179 45 -184 144z" />
    <glyph glyph-name="dotaccent" unicode="&#x2d9;" horiz-adv-x="260" 
d="M127 726c48 0 87 -35 87 -82c0 -48 -36 -86 -85 -86c-47 0 -83 41 -83 86c0 44 38 82 81 82z" />
    <glyph glyph-name="ring" unicode="&#x2da;" horiz-adv-x="260" 
d="M130 767c31 0 57 -11 79 -33c21 -23 32 -49 32 -78s-11 -55 -32 -77c-22 -23 -48 -34 -79 -34c-29 0 -55 11 -77 33c-23 22 -34 48 -34 78s11 56 33 78s48 33 78 33zM95 692c-21 -20 -21 -52 -1 -72s52 -20 72 0c31 31 9 87 -37 87c-13 0 -24 -5 -34 -15z" />
    <glyph glyph-name="ogonek" unicode="&#x2db;" horiz-adv-x="260" 
d="M96 12h68c-51 -47 -83 -99 -83 -134c0 -24 19 -46 42 -46c17 0 35 8 54 23l28 -53c-37 -28 -73 -42 -109 -42c-63 0 -105 38 -105 93c0 48 44 111 105 159z" />
    <glyph glyph-name="tilde" unicode="&#x2dc;" horiz-adv-x="260" 
d="M61 708c23 0 52 -7 87 -21c23 -10 42 -15 56 -15c19 0 33 12 44 36h78c-15 -92 -59 -138 -130 -138c-20 0 -46 7 -78 21c-31 14 -52 21 -63 21c-19 0 -33 -14 -42 -42h-79c13 81 62 138 127 138z" />
    <glyph glyph-name="hungarumlaut" unicode="&#x2dd;" horiz-adv-x="260" 
d="M-1 708h204l-173 -144h-132zM263 708h204l-173 -144h-132z" />
    <glyph glyph-name="uni0394" unicode="&#x394;" horiz-adv-x="693" 
d="M267 721h165l233 -642v-79h-638v78zM345 580h-3c-5 -20 -14 -49 -27 -86c-13 -38 -22 -64 -26 -77l-119 -308h345l-112 293c-4 13 -13 40 -27 82c-15 42 -25 74 -31 96z" />
    <glyph glyph-name="uni0394" unicode="&#x3b4;" horiz-adv-x="693" 
d="M267 721h165l233 -642v-79h-638v78zM345 580h-3c-5 -20 -14 -49 -27 -86c-13 -38 -22 -64 -26 -77l-119 -308h345l-112 293c-4 13 -13 40 -27 82c-15 42 -25 74 -31 96z" />
    <glyph glyph-name="uni03A9" unicode="&#x3a9;" horiz-adv-x="751" 
d="M378 716c93 0 170 -31 229 -94s89 -138 89 -225c0 -108 -50 -216 -131 -285v-3h145v-109h-283v81c86 55 129 151 129 288c0 61 -15 116 -46 164s-75 72 -133 72c-59 0 -104 -24 -135 -72c-32 -48 -48 -104 -48 -169c0 -58 11 -113 32 -165s53 -91 97 -118v-81h-284v109
h143v3c-85 76 -128 169 -128 280c0 93 31 170 93 232c61 61 138 92 231 92z" />
    <glyph glyph-name="uni03A9" unicode="&#x3c9;" horiz-adv-x="751" 
d="M378 716c93 0 170 -31 229 -94s89 -138 89 -225c0 -108 -50 -216 -131 -285v-3h145v-109h-283v81c86 55 129 151 129 288c0 61 -15 116 -46 164s-75 72 -133 72c-59 0 -104 -24 -135 -72c-32 -48 -48 -104 -48 -169c0 -58 11 -113 32 -165s53 -91 97 -118v-81h-284v109
h143v3c-85 76 -128 169 -128 280c0 93 31 170 93 232c61 61 138 92 231 92z" />
    <glyph glyph-name="uni03BC" unicode="&#x3bc;" horiz-adv-x="574" 
d="M53 486h150v-249c0 -83 23 -117 78 -117c63 0 90 39 90 120v246h150v-486h-144v66h-2c-27 -49 -81 -78 -142 -78c-11 0 -21 1 -30 3v-219h-150v714z" />
    <glyph glyph-name="pi" unicode="&#x3c0;" horiz-adv-x="637" 
d="M171 530h451l-10 -114h-74v-271c0 -59 5 -107 14 -145h-134c-12 18 -18 64 -18 139v277h-142c-10 -175 -32 -313 -66 -416h-134c14 48 28 112 41 191s21 154 23 225c-47 0 -81 -3 -103 -10l-15 89c29 23 85 35 167 35z" />
    <glyph glyph-name="uni060C" unicode="&#x60c;" horiz-adv-x="296" 
d="M187 0h-143l90 281h127z" />
    <glyph glyph-name="uni0615" unicode="&#x615;" 
d="M49 748c63 0 104 -44 104 -113c0 -25 -6 -53 -18 -85h-288v73h45v172h68v-95c23 32 53 48 89 48zM40 675c-30 0 -57 -17 -80 -52h117c1 3 1 7 1 12c0 25 -15 40 -38 40z" />
    <glyph glyph-name="uni061B" unicode="&#x61b;" horiz-adv-x="296" 
d="M186 232h-143l90 262h126zM119 -6c-51 0 -91 40 -91 91s40 91 91 91s91 -40 91 -91s-39 -91 -91 -91z" />
    <glyph glyph-name="uni061F" unicode="&#x61f;" horiz-adv-x="554" 
d="M355 232h-148v30c0 27 -13 50 -40 71c-45 35 -76 67 -95 96c-19 28 -28 61 -28 100c0 61 21 110 64 145c42 35 95 52 160 52c141 0 234 -77 249 -216l-152 -10c-4 52 -40 90 -99 90c-43 0 -73 -28 -73 -72c0 -23 20 -51 40 -70c16 -16 70 -63 86 -79
c24 -23 36 -54 36 -92v-45zM281 -6c-51 0 -91 40 -91 91s40 91 91 91c52 0 91 -40 91 -91s-39 -91 -91 -91z" />
    <glyph glyph-name="uni0621" unicode="&#x621;" horiz-adv-x="472" 
d="M250 117h172v-117h-366v117h62c-14 25 -21 54 -21 85c0 105 78 175 198 175c34 0 70 -5 109 -15l-27 -121c-29 7 -52 10 -71 10c-45 0 -74 -29 -74 -70c0 -25 6 -47 18 -64z" />
    <glyph glyph-name="uni0622" unicode="&#x622;" horiz-adv-x="264" 
d="M205 801c-19 0 -48 5 -87 14s-62 13 -71 13c-15 0 -31 -6 -47 -17l-42 58c28 28 58 42 90 42c13 0 38 -5 75 -14c37 -10 63 -15 78 -15c16 0 33 8 50 23l47 -51c-27 -35 -58 -53 -93 -53zM206 0h-148v756h148v-756z" />
    <glyph glyph-name="uni0623" unicode="&#x623;" horiz-adv-x="264" 
d="M138 866h80v-67h-178v67h32c-7 13 -11 27 -11 41c0 48 36 80 95 80c19 0 36 -2 53 -7l-12 -64c-11 3 -21 4 -31 4c-23 0 -35 -10 -35 -29c0 -7 2 -16 7 -25zM206 0h-148v756h148v-756z" />
    <glyph glyph-name="uni0624" unicode="&#x624;" horiz-adv-x="549" 
d="M292 635h101v-85h-226v85h42c-10 17 -15 34 -15 53c0 60 47 101 120 101c24 0 46 -2 67 -7l-14 -83c-12 3 -25 5 -40 5c-30 0 -45 -12 -45 -36c0 -11 3 -22 10 -33zM285 437c73 0 128 -20 164 -60c36 -41 54 -92 54 -153v-200c1 -62 -16 -124 -79 -171
c-41 -27 -114 -47 -210 -47c-21 0 -45 1 -70 3l-8 133c139 -12 219 15 218 86c-27 -6 -56 -9 -89 -9c-129 0 -215 75 -215 199c0 61 22 112 65 155s100 64 170 64zM355 159v40c0 69 -25 104 -76 104c-47 0 -81 -33 -81 -78c0 -47 30 -71 91 -71c19 0 41 2 66 5z" />
    <glyph glyph-name="uni0625" unicode="&#x625;" horiz-adv-x="264" 
d="M58 756h148v-756h-148v756zM141 -193h79v-66h-178v66h33c-8 13 -12 27 -12 42c0 48 36 80 95 80c19 0 36 -2 53 -7l-12 -64c-11 3 -21 4 -31 4c-23 0 -35 -10 -35 -29c0 -9 3 -17 8 -26z" />
    <glyph glyph-name="uni0626" unicode="&#x626;" horiz-adv-x="773" 
d="M171 376h101v-85h-226v85h42c-10 17 -15 35 -15 53c0 60 47 101 120 101c23 0 46 -2 67 -7l-14 -83c-12 3 -25 5 -40 5c-30 0 -45 -12 -45 -36c0 -11 3 -22 10 -33zM495 251c0 -13 12 -27 37 -42s52 -29 82 -42c29 -13 56 -33 81 -58c25 -26 37 -55 37 -88
c0 -52 -26 -118 -106 -164c-52 -29 -140 -51 -248 -51c-113 0 -203 21 -269 64s-99 109 -99 198c0 40 9 87 27 141l136 -34c-7 -33 -11 -58 -11 -77c0 -99 72 -148 216 -148c131 0 202 25 202 61c0 10 -12 22 -37 37s-53 30 -82 45c-30 15 -57 38 -82 68
c-25 29 -38 62 -38 98c0 49 21 91 64 126s102 52 177 52c39 0 78 -5 118 -15l-25 -140c-29 7 -58 11 -86 11c-61 0 -94 -18 -94 -42z" />
    <glyph glyph-name="uni0627" unicode="&#x627;" horiz-adv-x="264" 
d="M206 0h-148v756h148v-756z" />
    <glyph glyph-name="uni0628" unicode="&#x628;" horiz-adv-x="970" 
d="M776 213v213h148v-262c0 -104 -58 -164 -170 -164h-474h-1c-80 0 -143 20 -189 59c-47 39 -70 89 -70 151c0 51 11 105 32 162l127 -33c-11 -46 -16 -79 -16 -98c0 -69 55 -112 140 -112h397c56 0 76 23 76 84zM421 -99c27 29 80 29 106 0c13 -14 19 -32 19 -54
c0 -43 -28 -73 -72 -73s-74 30 -74 73c0 22 7 40 21 54z" />
    <glyph glyph-name="uni0629" unicode="&#x629;" horiz-adv-x="526" 
d="M217 575c-28 -29 -78 -29 -106 0c-29 28 -29 78 0 106c28 28 78 28 106 0c27 -28 27 -78 0 -106zM344 553c-43 0 -75 32 -75 75s32 74 75 74s73 -31 73 -74s-32 -75 -73 -75zM255 -5c-141 0 -234 76 -234 205c0 72 22 130 65 173s99 64 169 64c69 0 125 -22 168 -65
c42 -44 63 -101 63 -172c0 -129 -86 -205 -231 -205zM255 129c47 0 79 31 79 82c0 57 -32 92 -79 92c-49 0 -82 -34 -82 -90c0 -55 29 -84 82 -84z" />
    <glyph glyph-name="uni062A" unicode="&#x62a;" horiz-adv-x="970" 
d="M446 451c-28 -29 -78 -29 -106 0c-29 28 -29 78 0 106c28 28 78 28 106 0c27 -28 27 -78 0 -106zM573 429c-43 0 -75 32 -75 75s32 74 75 74s73 -31 73 -74s-32 -75 -73 -75zM776 213v213h148v-262c0 -104 -58 -164 -170 -164h-474h-1c-80 0 -143 20 -189 59
c-47 39 -70 89 -70 151c0 51 11 105 32 162l127 -33c-11 -46 -16 -79 -16 -98c0 -69 55 -112 140 -112h397c56 0 76 23 76 84z" />
    <glyph glyph-name="uni062B" unicode="&#x62b;" horiz-adv-x="970" 
d="M486 570c-41 0 -73 34 -73 75c0 43 32 76 73 76c44 0 74 -33 74 -76s-30 -75 -74 -75zM446 439c-28 -29 -78 -29 -106 0c-29 29 -29 79 0 107c43 45 132 13 126 -53c0 -22 -7 -40 -20 -54zM520 439c-29 29 -29 79 0 107c28 28 78 28 106 0c44 -42 11 -134 -53 -129
c-21 0 -39 7 -53 22zM776 213v213h148v-262c0 -104 -58 -164 -170 -164h-474h-1c-80 0 -143 20 -189 59c-47 39 -70 89 -70 151c0 51 11 105 32 162l127 -33c-11 -46 -16 -79 -16 -98c0 -69 55 -112 140 -112h397c56 0 76 23 76 84z" />
    <glyph glyph-name="uni062C" unicode="&#x62c;" horiz-adv-x="595" 
d="M280 437c183 0 274 -95 274 -286c0 -47 -5 -98 -15 -151h-292c-45 0 -74 -26 -74 -67s35 -67 75 -67h1l6 -126h-2c-67 0 -123 17 -166 50c-44 34 -66 80 -66 137c0 127 85 202 222 202h173v3c0 124 -43 171 -144 171c-31 0 -63 -4 -96 -11l-32 122c39 15 84 23 136 23z
M363 -33c39 0 65 -29 65 -69c0 -39 -25 -65 -65 -65s-67 26 -67 65c0 40 27 69 67 69z" />
    <glyph glyph-name="uni062D" unicode="&#x62d;" horiz-adv-x="605" 
d="M549 0h-302c-47 0 -78 -24 -78 -63c0 -42 32 -63 97 -63c26 0 50 2 73 7l26 -123c-38 -12 -75 -18 -111 -18c-69 0 -125 18 -168 53s-65 85 -65 148c0 113 86 188 218 188h177v3c0 124 -43 171 -144 171c-31 0 -63 -4 -96 -11l-32 122c39 15 84 23 136 23
c193 0 284 -107 284 -286c0 -47 -5 -98 -15 -151z" />
    <glyph glyph-name="uni062E" unicode="&#x62e;" horiz-adv-x="605" 
d="M333 575c-26 -29 -79 -29 -106 0c-14 14 -21 32 -21 53c0 44 30 74 74 74s72 -30 72 -74c0 -21 -6 -39 -19 -53zM549 0h-302c-47 0 -78 -24 -78 -63c0 -42 32 -63 97 -63c26 0 50 2 73 7l26 -123c-38 -12 -75 -18 -111 -18c-69 0 -125 18 -168 53s-65 85 -65 148
c0 113 86 188 218 188h177v3c0 124 -43 171 -144 171c-31 0 -63 -4 -96 -11l-32 122c39 15 84 23 136 23c193 0 284 -107 284 -286c0 -47 -5 -98 -15 -151z" />
    <glyph glyph-name="uni062F" unicode="&#x62f;" horiz-adv-x="498" 
d="M143 341l90 119c89 -58 149 -117 180 -178c30 -61 45 -133 45 -215v-67h-428v129h280c-3 41 -23 82 -60 122s-72 70 -107 90z" />
    <glyph glyph-name="uni0630" unicode="&#x630;" horiz-adv-x="498" 
d="M235 545c-26 -29 -79 -29 -106 0c-14 14 -21 32 -21 53c0 44 30 74 74 74s72 -30 72 -74c0 -21 -6 -39 -19 -53zM143 341l90 119c89 -58 149 -117 180 -178c30 -61 45 -133 45 -215v-67h-428v129h280c-3 41 -23 82 -60 122s-72 70 -107 90z" />
    <glyph glyph-name="uni0631" unicode="&#x631;" horiz-adv-x="316" 
d="M13 -191l-18 125c85 9 115 33 115 98v394h148v-364c0 -171 -74 -246 -245 -253z" />
    <glyph glyph-name="uni0632" unicode="&#x632;" horiz-adv-x="316" 
d="M236 564c-26 -29 -79 -29 -106 0c-14 14 -21 32 -21 53c0 44 30 74 74 74s72 -30 72 -74c0 -21 -6 -39 -19 -53zM13 -191l-18 125c85 9 115 33 115 98v394h148v-364c0 -171 -74 -246 -245 -253z" />
    <glyph glyph-name="uni0633" unicode="&#x633;" horiz-adv-x="1179" 
d="M985 209v217h148v-253c0 -105 -79 -173 -192 -173c-53 0 -97 13 -134 38c-35 -25 -82 -38 -142 -38c-38 0 -69 6 -94 19c-20 -136 -126 -202 -281 -202c-197 -1 -280 136 -280 251c0 57 15 120 46 190l129 -46c-18 -48 -27 -89 -27 -124c0 -85 51 -137 135 -137
c88 0 134 41 134 156v246h148v-168c0 -37 22 -56 65 -56c56 0 66 23 66 80v144h148v-168c0 -37 22 -56 65 -56c56 0 66 23 66 80z" />
    <glyph glyph-name="uni0634" unicode="&#x634;" horiz-adv-x="1179" 
d="M782 610c-41 0 -73 34 -73 75c0 43 32 76 73 76c44 0 74 -33 74 -76s-30 -75 -74 -75zM742 479c-28 -29 -78 -29 -106 0c-29 29 -29 79 0 107c43 45 132 13 126 -53c0 -22 -7 -40 -20 -54zM816 479c-29 29 -29 79 0 107c28 28 78 28 106 0c44 -42 11 -134 -53 -129
c-21 0 -39 7 -53 22zM985 209v217h148v-253c0 -105 -79 -173 -192 -173c-53 0 -97 13 -134 38c-35 -25 -82 -38 -142 -38c-38 0 -69 6 -94 19c-20 -136 -126 -202 -281 -202c-197 -1 -280 136 -280 251c0 57 15 120 46 190l129 -46c-18 -48 -27 -89 -27 -124
c0 -85 51 -137 135 -137c88 0 134 41 134 156v246h148v-168c0 -37 22 -56 65 -56c56 0 66 23 66 80v144h148v-168c0 -37 22 -56 65 -56c56 0 66 23 66 80z" />
    <glyph glyph-name="uni0635" unicode="&#x635;" horiz-adv-x="1329" 
d="M1045 437c155 0 243 -97 243 -262c0 -55 -9 -114 -26 -175h-580c-47 0 -84 9 -109 27c-17 -141 -124 -210 -283 -210c-197 -1 -280 136 -280 251c0 57 15 120 46 190l129 -46c-18 -48 -27 -89 -27 -124c0 -85 51 -137 135 -137c88 0 134 41 134 156v246h148v-157
c0 -36 29 -64 76 -67c49 101 114 181 169 224c27 21 56 39 86 52c59 27 98 32 139 32zM817 129h323c1 16 2 27 2 33c0 88 -41 141 -117 141s-155 -67 -208 -174z" />
    <glyph glyph-name="uni0636" unicode="&#x636;" horiz-adv-x="1329" 
d="M1013 575c-26 -29 -79 -29 -106 0c-14 14 -21 32 -21 53c0 44 30 74 74 74s72 -30 72 -74c0 -21 -6 -39 -19 -53zM1045 437c155 0 243 -97 243 -262c0 -55 -9 -114 -26 -175h-580c-47 0 -84 9 -109 27c-17 -141 -124 -210 -283 -210c-197 -1 -280 136 -280 251
c0 57 15 120 46 190l129 -46c-18 -48 -27 -89 -27 -124c0 -85 51 -137 135 -137c88 0 134 41 134 156v246h148v-157c0 -36 29 -64 76 -67c49 101 114 181 169 224c27 21 56 39 86 52c59 27 98 32 139 32zM817 129h323c1 16 2 27 2 33c0 88 -41 141 -117 141
s-155 -67 -208 -174z" />
    <glyph glyph-name="uni0637" unicode="&#x637;" horiz-adv-x="826" 
d="M538 437c160 0 247 -96 247 -261c0 -55 -9 -113 -26 -176h-739v129h85v627h148v-470c80 103 189 151 285 151zM253 129h385c1 16 2 27 2 33c0 88 -42 141 -122 141c-83 0 -182 -67 -265 -174z" />
    <glyph glyph-name="uni0638" unicode="&#x638;" horiz-adv-x="826" 
d="M538 437c160 0 247 -96 247 -261c0 -55 -9 -113 -26 -176h-739v129h85v627h148v-470c80 103 189 151 285 151zM558 575c-26 -29 -79 -29 -106 0c-14 14 -21 32 -21 53c0 44 30 74 74 74s72 -30 72 -74c0 -21 -6 -39 -19 -53zM253 129h385c1 16 2 27 2 33
c0 88 -42 141 -122 141c-83 0 -182 -67 -265 -174z" />
    <glyph glyph-name="uni0639" unicode="&#x639;" horiz-adv-x="533" 
d="M508 0h-247c-59 0 -88 -22 -88 -65c0 -41 30 -61 89 -61c30 0 55 2 75 5l26 -123c-32 -11 -68 -16 -108 -16c-144 0 -234 66 -234 190c0 88 43 153 119 182c-21 36 -31 76 -31 119c0 124 90 206 245 206c43 0 86 -5 129 -16l-27 -128c-35 7 -63 10 -86 10
c-75 0 -113 -29 -113 -88c0 -29 10 -57 29 -86h222v-129z" />
    <glyph glyph-name="uni063A" unicode="&#x63a;" horiz-adv-x="533" 
d="M407 575c-26 -29 -79 -29 -106 0c-14 14 -21 32 -21 53c0 44 30 74 74 74s72 -30 72 -74c0 -21 -6 -39 -19 -53zM508 0h-247c-59 0 -88 -22 -88 -65c0 -41 30 -61 89 -61c30 0 55 2 75 5l26 -123c-32 -11 -68 -16 -108 -16c-144 0 -234 66 -234 190c0 88 43 153 119 182
c-21 36 -31 76 -31 119c0 124 90 206 245 206c43 0 86 -5 129 -16l-27 -128c-35 7 -63 10 -86 10c-75 0 -113 -29 -113 -88c0 -29 10 -57 29 -86h222v-129z" />
    <glyph glyph-name="uni0640" unicode="&#x640;" horiz-adv-x="52" 
d="M52 0h-52v129h52c13 0 20 -23 20 -69c0 -40 -7 -60 -20 -60z" />
    <glyph glyph-name="uni0641" unicode="&#x641;" horiz-adv-x="1096" 
d="M868 575c-26 -29 -79 -29 -106 0c-14 14 -21 32 -21 53c0 44 30 74 74 74s72 -30 72 -74c0 -21 -6 -39 -19 -53zM815 437c184 0 235 -141 235 -224c0 -70 -13 -141 -40 -213h-721c-80 0 -143 20 -189 59c-47 39 -70 89 -70 151c0 51 11 105 32 162l127 -33
c-11 -46 -16 -79 -16 -98c0 -69 55 -112 140 -112h266c-9 25 -13 50 -13 77c0 67 22 123 67 166s105 65 182 65zM730 129h164c5 23 7 46 7 68c0 61 -28 106 -89 106c-63 0 -98 -37 -98 -94c0 -26 5 -53 16 -80z" />
    <glyph glyph-name="uni0642" unicode="&#x642;" horiz-adv-x="806" 
d="M499 575c-28 -29 -78 -29 -106 0c-29 28 -29 78 0 106c28 28 78 28 106 0c27 -28 27 -78 0 -106zM626 553c-43 0 -75 32 -75 75s32 74 75 74s73 -31 73 -74s-32 -75 -73 -75zM390 -183c-261 0 -380 92 -380 251c0 43 9 90 27 141l131 -36c-7 -29 -10 -56 -10 -81
c0 -75 36 -141 239 -141c136 0 205 32 214 77c-27 -6 -57 -9 -90 -9c-139 0 -224 74 -224 199c0 60 22 112 66 155s102 64 174 64c73 0 129 -22 167 -65c37 -44 56 -97 56 -158v-118c0 -180 -110 -279 -370 -279zM545 154c27 0 49 2 67 5v25c0 79 -28 119 -84 119
c-48 0 -83 -30 -83 -77c0 -48 33 -72 100 -72z" />
    <glyph glyph-name="uni0643" unicode="&#x643;" horiz-adv-x="869" 
d="M663 235v521h148v-539c0 -82 -18 -139 -55 -170s-97 -47 -180 -47h-296h-1c-80 0 -143 20 -189 59c-47 39 -70 89 -70 151c0 51 11 105 32 162l127 -33c-11 -46 -16 -79 -16 -98c0 -69 55 -112 140 -112h273c68 0 87 26 87 106zM444 394h78v-74h-206v74h38
c-7 13 -10 26 -10 41c0 52 43 94 114 94c17 0 34 -3 53 -8l-10 -73c-13 3 -24 4 -32 4c-24 0 -36 -9 -36 -28c0 -11 4 -21 11 -30z" />
    <glyph glyph-name="uni0644" unicode="&#x644;" horiz-adv-x="633" 
d="M290 -183c-197 0 -280 134 -280 251c0 57 16 121 47 190l128 -46c-18 -48 -27 -89 -27 -124c0 -85 51 -137 135 -137c89 0 134 43 134 156v649h148v-686c0 -171 -110 -253 -285 -253z" />
    <glyph glyph-name="uni0645" unicode="&#x645;" horiz-adv-x="679" 
d="M232 378c46 39 105 59 178 59s129 -21 169 -63s60 -91 60 -148c0 -55 -14 -101 -49 -148c-36 -48 -110 -78 -213 -78h-134c-53 0 -78 -18 -78 -74v-186h-144v212c0 103 60 164 164 175c-15 28 -23 61 -23 99c0 62 23 113 70 152zM332 129h65c63 0 94 30 94 90
c0 49 -36 84 -88 84c-48 0 -93 -32 -93 -97c0 -26 7 -52 22 -77z" />
    <glyph glyph-name="uni0646" unicode="&#x646;" horiz-adv-x="643" 
d="M364 431c-26 -29 -79 -29 -106 0c-14 14 -21 32 -21 53c0 44 30 74 74 74s72 -30 72 -74c0 -21 -6 -39 -19 -53zM300 -183c-197 -1 -280 136 -280 251c0 57 15 120 46 190l129 -46c-18 -48 -27 -89 -27 -124c0 -85 51 -137 135 -137c88 0 134 41 134 156v246h148v-283
c0 -171 -110 -253 -285 -253z" />
    <glyph glyph-name="uni0647" unicode="&#x647;" horiz-adv-x="526" 
d="M255 -5c-141 0 -234 76 -234 205c0 72 22 130 65 173s99 64 169 64c69 0 125 -22 168 -65c42 -44 63 -101 63 -172c0 -129 -86 -205 -231 -205zM255 129c47 0 79 31 79 82c0 57 -32 92 -79 92c-49 0 -82 -34 -82 -90c0 -55 29 -84 82 -84z" />
    <glyph glyph-name="uni0648" unicode="&#x648;" horiz-adv-x="549" 
d="M144 -191l-8 133c139 -12 219 15 218 86c-27 -6 -56 -9 -89 -9c-129 0 -215 75 -215 199c0 61 22 112 65 155s100 64 170 64c73 0 128 -20 164 -60c36 -41 54 -92 54 -153v-200c1 -62 -16 -124 -79 -171c-41 -27 -114 -47 -210 -47c-21 0 -45 1 -70 3zM289 154
c19 0 41 2 66 5v40c0 69 -25 104 -76 104c-47 0 -81 -33 -81 -78c0 -47 30 -71 91 -71z" />
    <glyph glyph-name="uni0649" unicode="&#x649;" horiz-adv-x="773" 
d="M378 -194c-113 0 -203 21 -269 64s-99 109 -99 198c0 40 9 87 27 141l136 -34c-7 -33 -11 -58 -11 -77c0 -99 72 -148 216 -148c131 0 202 25 202 61c0 10 -12 22 -37 37s-53 30 -82 45c-30 15 -57 38 -82 68c-25 29 -38 62 -38 98c0 49 21 91 64 126s102 52 177 52
c39 0 78 -5 118 -15l-25 -140c-29 7 -58 11 -86 11c-61 0 -94 -18 -94 -42c0 -13 12 -27 37 -42s52 -29 82 -42c29 -13 56 -33 81 -58c25 -26 37 -55 37 -88c0 -52 -26 -118 -106 -164c-52 -29 -140 -51 -248 -51z" />
    <glyph glyph-name="uni064A" unicode="&#x64a;" horiz-adv-x="773" 
d="M378 -194c-113 0 -203 21 -269 64s-99 109 -99 198c0 40 9 87 27 141l136 -34c-7 -33 -11 -58 -11 -77c0 -99 72 -148 216 -148c131 0 202 25 202 61c0 10 -12 22 -37 37s-53 30 -82 45c-30 15 -57 38 -82 68c-25 29 -38 62 -38 98c0 49 21 91 64 126s102 52 177 52
c39 0 78 -5 118 -15l-25 -140c-29 7 -58 11 -86 11c-61 0 -94 -18 -94 -42c0 -13 12 -27 37 -42s52 -29 82 -42c29 -13 56 -33 81 -58c25 -26 37 -55 37 -88c0 -52 -26 -118 -106 -164c-52 -29 -140 -51 -248 -51zM338 -400c-42 -44 -134 -11 -128 53c0 43 32 76 75 76
s73 -32 73 -76c0 -21 -7 -39 -20 -53zM465 -420c-43 0 -75 32 -75 73c0 43 32 76 75 76c41 0 73 -33 73 -76c0 -41 -32 -73 -73 -73z" />
    <glyph glyph-name="uni064B" unicode="&#x64b;" 
d="M108 686l-224 -34l-3 1l11 64l224 34l3 -1zM108 568l-224 -34l-3 1l11 64l224 34l3 -1z" />
    <glyph glyph-name="uni064C" unicode="&#x64c;" 
d="M14 759c31 36 86 36 114 0c14 -19 21 -43 21 -73c0 -97 -52 -146 -115 -146c-70 0 -84 58 -112 58c-9 0 -19 -8 -31 -23l-40 32c20 32 50 56 74 56c17 0 37 -10 59 -29c22 -20 40 -30 53 -30c18 0 31 8 40 23h-5c-47 0 -81 21 -81 68c0 24 8 45 23 64zM74 679
c8 0 14 0 17 1v3c0 26 -8 39 -23 39c-12 0 -21 -12 -21 -24c0 -13 9 -19 27 -19z" />
    <glyph glyph-name="uni064D" unicode="&#x64d;" 
d="M107 -147l-224 -34l-3 1l11 64l224 34l3 -1zM107 -251l-224 -34l-3 1l11 64l224 34l3 -1z" />
    <glyph glyph-name="uni064E" unicode="&#x64e;" 
d="M108 568l-224 -34l-3 1l11 64l224 34l3 -1z" />
    <glyph glyph-name="uni064F" unicode="&#x64f;" 
d="M15 786c47 0 77 -40 77 -100c0 -97 -52 -146 -116 -146c-24 0 -47 6 -68 18l25 56c15 -7 30 -10 43 -10c20 0 35 8 45 23h-1c-58 0 -87 23 -87 68c0 48 34 91 82 91zM22 679h12v4c0 24 -11 39 -24 39c-12 0 -20 -11 -20 -22c0 -14 11 -21 32 -21z" />
    <glyph glyph-name="uni0650" unicode="&#x650;" 
d="M108 -147l-224 -34l-3 1l11 64l224 34l3 -1z" />
    <glyph glyph-name="uni0651" unicode="&#x651;" 
d="M59 672l47 18c12 -25 18 -48 18 -71c0 -68 -62 -92 -118 -53c-12 -17 -31 -26 -57 -26c-45 0 -73 27 -73 72c0 18 4 37 11 56l41 -10c-2 -9 -3 -17 -3 -23c0 -21 9 -31 26 -31c15 0 23 10 23 31c0 6 0 11 -1 14l43 8c3 -16 4 -28 4 -36v-3c7 -4 16 -6 25 -6
c14 0 21 9 21 26c0 11 -2 22 -7 34z" />
    <glyph glyph-name="uni0652" unicode="&#x652;" 
d="M1 540c-55 0 -85 33 -85 82s33 94 85 94c51 0 83 -45 83 -94s-30 -82 -83 -82zM1 604c15 0 22 7 22 22c0 13 -9 28 -22 28c-16 0 -24 -9 -24 -28c0 -15 8 -22 24 -22z" />
    <glyph glyph-name="uni0653" unicode="&#x653;" 
d="M77 534c-19 0 -48 5 -87 14s-62 13 -71 13c-15 0 -31 -6 -47 -17l-42 58c28 28 58 42 90 42c13 0 37 -5 74 -14c38 -10 64 -15 79 -15c16 0 33 8 50 23l47 -51c-27 -35 -58 -53 -93 -53z" />
    <glyph glyph-name="uni0654" unicode="&#x654;" 
d="M9 599h80v-67h-178v67h32c-7 13 -11 27 -11 41c0 48 36 80 95 80c19 0 36 -2 53 -7l-12 -64c-11 3 -21 4 -31 4c-23 0 -35 -10 -35 -29c0 -7 2 -16 7 -25z" />
    <glyph glyph-name="uni0655" unicode="&#x655;" 
d="M10 -193h79v-66h-178v66h33c-8 13 -12 27 -12 42c0 48 36 80 95 80c19 0 36 -2 53 -7l-12 -64c-11 3 -21 4 -31 4c-23 0 -35 -10 -35 -29c0 -9 3 -17 8 -26z" />
    <glyph glyph-name="uni0656" unicode="&#x656;" 
d="M-28 -288h-6v186h68v-169z" />
    <glyph glyph-name="uni0658" unicode="&#x658;" 
d="M-77 692l52 -18c-7 -20 -11 -35 -11 -46c0 -23 13 -35 38 -35c23 0 34 14 34 41v55h59v-55c0 -61 -36 -100 -93 -100c-59 0 -97 32 -97 84c0 20 6 45 18 74z" />
    <glyph glyph-name="uni0660" unicode="&#x660;" horiz-adv-x="540" 
d="M393 293l-123 -123l-124 124l124 119z" />
    <glyph glyph-name="uni0661" unicode="&#x661;" horiz-adv-x="540" 
d="M345 0h-148v653h148v-653z" />
    <glyph glyph-name="uni0662" unicode="&#x662;" horiz-adv-x="540" 
d="M351 647l148 8c15 -195 -43 -271 -195 -271c-41 0 -75 5 -103 14v-398h-148v653h148v-117c28 -11 56 -17 83 -17c56 0 74 32 67 128z" />
    <glyph glyph-name="uni0663" unicode="&#x663;" horiz-adv-x="540" 
d="M397 645l129 10c12 -171 -34 -248 -151 -248c-32 0 -61 6 -86 19c-19 -13 -43 -19 -73 -19c-18 0 -32 2 -43 5v-412h-148v653h148v-117c4 -1 10 -1 19 -1c36 0 42 20 33 111l117 9c4 -47 4 -87 0 -120h6c25 0 41 7 47 21c6 13 7 43 2 89z" />
    <glyph glyph-name="uni0664" unicode="&#x664;" horiz-adv-x="540" 
d="M461 133l6 -136c-42 -6 -89 -9 -141 -9c-180 0 -268 44 -268 164c0 77 44 138 132 183c-69 27 -104 71 -104 132c0 125 102 188 306 188c13 0 28 0 45 -1v-135c-133 5 -199 -15 -199 -59s64 -64 181 -48l-1 -138c-143 -12 -208 -51 -208 -96c0 -33 35 -50 142 -50
c35 0 71 2 109 5z" />
    <glyph glyph-name="uni0665" unicode="&#x665;" horiz-adv-x="540" 
d="M453 62c-41 -47 -102 -70 -183 -70s-141 23 -182 70s-62 121 -62 223c0 235 91 369 244 369c155 0 244 -134 244 -369c0 -102 -20 -176 -61 -223zM197 170c15 -27 40 -40 73 -40s58 13 73 40s23 68 23 124c0 63 -8 116 -23 159c-16 42 -40 63 -73 63s-57 -21 -72 -63
c-16 -43 -24 -96 -24 -159c0 -56 8 -97 23 -124z" />
    <glyph glyph-name="uni0666" unicode="&#x666;" horiz-adv-x="540" 
d="M466 0h-148v516h-271v137h419v-653z" />
    <glyph glyph-name="uni0667" unicode="&#x667;" horiz-adv-x="540" 
d="M270 186l118 479l149 -33l-174 -632h-186l-174 632l149 33z" />
    <glyph glyph-name="uni0668" unicode="&#x668;" horiz-adv-x="540" 
d="M363 643l174 -632l-149 -33l-118 479l-118 -479l-149 33l174 632h186z" />
    <glyph glyph-name="uni0669" unicode="&#x669;" horiz-adv-x="540" 
d="M257 653h219v-652h-148v243c-208 -19 -305 57 -305 194c0 135 83 215 234 215zM175 446c0 -55 51 -77 153 -66v136h-50c-69 0 -103 -23 -103 -70z" />
    <glyph glyph-name="uni066A" unicode="&#x66a;" horiz-adv-x="540" 
d="M472 632l-283 -649l-108 39l283 650zM222 561l-102 -100l-99 100l99 100zM522 99l-101 -99l-100 99l100 101z" />
    <glyph glyph-name="uni066B" unicode="&#x66b;" horiz-adv-x="278" 
d="M86 74h143l-90 -281h-127z" />
    <glyph glyph-name="uni066C" unicode="&#x66c;" horiz-adv-x="251" 
d="M64 129h138l-64 -203h-126z" />
    <glyph glyph-name="uni066D" unicode="&#x66d;" horiz-adv-x="842" 
d="M426 100l-223 -198l-24 20l113 266l-251 150l8 37l299 -37l63 288h30l59 -288l299 37l11 -37l-261 -149l122 -267l-27 -20z" />
    <glyph glyph-name="uni066E" unicode="&#x66e;" horiz-adv-x="970" 
d="M776 213v213h148v-262c0 -104 -58 -164 -170 -164h-474h-1c-80 0 -143 20 -189 59c-47 39 -70 89 -70 151c0 51 11 105 32 162l127 -33c-11 -46 -16 -79 -16 -98c0 -69 55 -112 140 -112h397c56 0 76 23 76 84z" />
    <glyph glyph-name="uni066F" unicode="&#x66f;" horiz-adv-x="806" 
d="M390 -183c-261 0 -380 92 -380 251c0 43 9 90 27 141l131 -36c-7 -29 -10 -56 -10 -81c0 -75 36 -141 239 -141c136 0 205 32 214 77c-27 -6 -57 -9 -90 -9c-139 0 -224 74 -224 199c0 60 22 112 66 155s102 64 174 64c73 0 129 -22 167 -65c37 -44 56 -97 56 -158v-118
c0 -180 -110 -279 -370 -279zM545 154c27 0 49 2 67 5v25c0 79 -28 119 -84 119c-48 0 -83 -30 -83 -77c0 -48 33 -72 100 -72z" />
    <glyph glyph-name="uni0670" unicode="&#x670;" 
d="M-28 545h-6v186h68v-169z" />
    <glyph glyph-name="uni0671" unicode="&#x671;" horiz-adv-x="264" 
d="M182 970c52 0 86 -36 86 -93c0 -24 -5 -49 -16 -75h-254v65h40v100h61v-40c24 29 52 43 83 43zM164 904c-25 0 -48 -12 -69 -37h104c1 4 2 7 2 8c0 16 -14 29 -37 29zM206 0h-148v756h148v-756z" />
    <glyph glyph-name="uni0679" unicode="&#x679;" horiz-adv-x="970" 
d="M622 518c0 -25 -6 -53 -18 -85h-288v73h45v172h68v-95c23 32 53 48 89 48c63 0 104 -44 104 -113zM509 558c-30 0 -57 -17 -80 -52h117c1 3 1 7 1 12c0 25 -15 40 -38 40zM776 213v213h148v-262c0 -104 -58 -164 -170 -164h-474h-1c-80 0 -143 20 -189 59
c-47 39 -70 89 -70 151c0 51 11 105 32 162l127 -33c-11 -46 -16 -79 -16 -98c0 -69 55 -112 140 -112h397c56 0 76 23 76 84z" />
    <glyph glyph-name="uni067E" unicode="&#x67e;" horiz-adv-x="970" 
d="M776 213v213h148v-262c0 -104 -58 -164 -170 -164h-474h-1c-80 0 -143 20 -189 59c-47 39 -70 89 -70 151c0 51 11 105 32 162l127 -33c-11 -46 -16 -79 -16 -98c0 -69 55 -112 140 -112h397c56 0 76 23 76 84zM435 -100c27 -28 27 -78 0 -106c-28 -28 -78 -28 -106 0
c-29 28 -29 78 0 106c28 29 78 29 106 0zM562 -78c41 0 73 -32 73 -75s-30 -74 -73 -74s-75 31 -75 74s32 75 75 75zM474 -228c44 0 73 -32 73 -76c0 -43 -29 -73 -73 -73c-43 0 -75 32 -75 73c0 44 32 76 75 76z" />
    <glyph glyph-name="uni0686" unicode="&#x686;" horiz-adv-x="595" 
d="M280 437c183 0 274 -95 274 -286c0 -47 -5 -98 -15 -151h-292c-45 0 -74 -26 -74 -67s35 -67 75 -67h1l6 -126h-2c-67 0 -123 17 -166 50c-44 34 -66 80 -66 137c0 127 85 202 222 202h173v3c0 124 -43 171 -144 171c-31 0 -63 -4 -96 -11l-32 122c39 15 84 23 136 23z
M382 -81c0 -31 -22 -52 -51 -52c-47 0 -71 57 -37 89c33 33 88 8 88 -37zM420 -44c33 33 88 8 88 -37c0 -29 -22 -52 -51 -52c-47 0 -71 57 -37 89zM395 -134c31 0 51 -22 51 -53c0 -29 -20 -51 -51 -51c-29 0 -52 22 -52 51c0 31 23 53 52 53z" />
    <glyph glyph-name="uni0688" unicode="&#x688;" horiz-adv-x="498" 
d="M320 612c0 -25 -6 -53 -18 -85h-288v73h45v172h68v-95c23 32 53 48 89 48c63 0 104 -44 104 -113zM207 652c-30 0 -57 -17 -80 -52h117c1 3 1 7 1 12c0 25 -15 40 -38 40zM143 341l90 119c89 -58 149 -117 180 -178c30 -61 45 -133 45 -215v-67h-428v129h280
c-3 41 -23 82 -60 122s-72 70 -107 90z" />
    <glyph glyph-name="uni0691" unicode="&#x691;" horiz-adv-x="316" 
d="M217 744c63 0 104 -44 104 -113c0 -25 -6 -53 -18 -85h-288v73h45v172h68v-95c23 32 53 48 89 48zM208 671c-30 0 -57 -17 -80 -52h117c1 3 1 7 1 12c0 25 -15 40 -38 40zM110 32v394h148v-364c0 -171 -74 -246 -245 -253l-18 125c85 9 115 33 115 98z" />
    <glyph glyph-name="uni0698" unicode="&#x698;" horiz-adv-x="316" 
d="M185 683c-41 0 -73 34 -73 75c0 43 32 76 73 76c44 0 74 -33 74 -76s-30 -75 -74 -75zM145 552c-28 -29 -78 -29 -106 0c-29 29 -29 79 0 107c43 45 132 13 126 -53c0 -22 -7 -40 -20 -54zM272 530c-43 0 -75 33 -75 76s32 74 75 74s73 -31 73 -74s-32 -76 -73 -76z
M13 -191l-18 125c85 9 115 33 115 98v394h148v-364c0 -171 -74 -246 -245 -253z" />
    <glyph glyph-name="uni06A1" unicode="&#x6a1;" horiz-adv-x="1096" 
d="M815 437c184 0 235 -141 235 -224c0 -70 -13 -141 -40 -213h-721c-80 0 -143 20 -189 59c-47 39 -70 89 -70 151c0 51 11 105 32 162l127 -33c-11 -46 -16 -79 -16 -98c0 -69 55 -112 140 -112h266c-9 25 -13 50 -13 77c0 67 22 123 67 166s105 65 182 65zM730 129h164
c5 23 7 46 7 68c0 61 -28 106 -89 106c-63 0 -98 -37 -98 -94c0 -26 5 -53 16 -80z" />
    <glyph glyph-name="uni06A4" unicode="&#x6a4;" horiz-adv-x="1096" 
d="M817 694c-41 0 -73 34 -73 75c0 43 32 76 73 76c44 0 74 -33 74 -76s-30 -75 -74 -75zM777 563c-28 -29 -78 -29 -106 0c-29 29 -29 79 0 107c43 45 132 13 126 -53c0 -22 -7 -40 -20 -54zM851 563c-29 29 -29 79 0 107c28 28 78 28 106 0c44 -42 11 -134 -53 -129
c-21 0 -39 7 -53 22zM815 437c184 0 235 -141 235 -224c0 -70 -13 -141 -40 -213h-721c-80 0 -143 20 -189 59c-47 39 -70 89 -70 151c0 51 11 105 32 162l127 -33c-11 -46 -16 -79 -16 -98c0 -69 55 -112 140 -112h266c-9 25 -13 50 -13 77c0 67 22 123 67 166
s105 65 182 65zM730 129h164c5 23 7 46 7 68c0 61 -28 106 -89 106c-63 0 -98 -37 -98 -94c0 -26 5 -53 16 -80z" />
    <glyph glyph-name="uni06A9" unicode="&#x6a9;" horiz-adv-x="870" 
d="M795 659l-230 -222c143 -44 211 -100 241 -179c20 -56 24 -97 24 -165v-93h-550h-1c-80 0 -143 20 -189 59c-47 39 -70 89 -70 151c0 51 11 105 32 162l127 -33c-11 -46 -16 -79 -16 -98c0 -69 55 -112 140 -112h379c-1 77 -21 123 -100 165c-40 21 -95 38 -166 51v139
l283 273z" />
    <glyph glyph-name="uni06AF" unicode="&#x6af;" horiz-adv-x="870" 
d="M592 866l68 -69l-261 -250l-69 69zM795 659l-230 -222c143 -44 211 -100 241 -179c20 -56 24 -97 24 -165v-93h-550h-1c-80 0 -143 20 -189 59c-47 39 -70 89 -70 151c0 51 11 105 32 162l127 -33c-11 -46 -16 -79 -16 -98c0 -69 55 -112 140 -112h379
c-1 77 -21 123 -100 165c-40 21 -95 38 -166 51v139l283 273z" />
    <glyph glyph-name="uni06BA" unicode="&#x6ba;" horiz-adv-x="643" 
d="M300 -183c-197 -1 -280 136 -280 251c0 57 15 120 46 190l129 -46c-18 -48 -27 -89 -27 -124c0 -85 51 -137 135 -137c88 0 134 41 134 156v246h148v-283c0 -171 -110 -253 -285 -253z" />
    <glyph glyph-name="uni06BE" unicode="&#x6be;" horiz-adv-x="780" 
d="M167 346l17 115c93 -3 157 -7 239 -19c82 -13 137 -31 195 -64c82 -47 131 -128 131 -250c0 -37 -5 -80 -15 -128h-257c-45 0 -84 7 -116 20c-35 -13 -81 -20 -138 -20c-77 0 -141 10 -193 29l30 126c40 -14 88 -23 144 -26c-15 29 -23 60 -23 95c0 49 14 89 43 120
c-13 0 -45 2 -57 2zM363 131c43 26 64 62 64 107c0 47 -24 76 -61 76c-39 0 -63 -29 -63 -76c0 -44 20 -80 60 -107zM627 143c0 61 -29 107 -88 139c7 -17 10 -36 10 -55c0 -35 -8 -68 -24 -98h101c1 3 1 8 1 14z" />
    <glyph glyph-name="uni06C1" unicode="&#x6c1;" horiz-adv-x="526" 
d="M255 -5c-141 0 -234 76 -234 205c0 72 22 130 65 173s99 64 169 64c69 0 125 -22 168 -65c42 -44 63 -101 63 -172c0 -129 -86 -205 -231 -205zM255 129c47 0 79 31 79 82c0 57 -32 92 -79 92c-49 0 -82 -34 -82 -90c0 -55 29 -84 82 -84z" />
    <glyph glyph-name="uni06C2" unicode="&#x6c2;" horiz-adv-x="526" 
d="M262 635h101v-85h-226v85h42c-10 17 -15 34 -15 53c0 60 47 101 120 101c24 0 46 -2 67 -7l-14 -83c-12 3 -25 5 -40 5c-30 0 -45 -12 -45 -36c0 -11 3 -22 10 -33zM255 437c69 0 125 -22 168 -65c42 -44 63 -101 63 -172c0 -129 -86 -205 -231 -205
c-141 0 -234 76 -234 205c0 72 22 130 65 173s99 64 169 64zM255 129c47 0 79 31 79 82c0 57 -32 92 -79 92c-49 0 -82 -34 -82 -90c0 -55 29 -84 82 -84z" />
    <glyph glyph-name="uni06C3" unicode="&#x6c3;" horiz-adv-x="526" 
d="M217 575c-28 -29 -78 -29 -106 0c-29 28 -29 78 0 106c28 28 78 28 106 0c27 -28 27 -78 0 -106zM344 553c-43 0 -75 32 -75 75s32 74 75 74s73 -31 73 -74s-32 -75 -73 -75zM255 -5c-141 0 -234 76 -234 205c0 72 22 130 65 173s99 64 169 64c69 0 125 -22 168 -65
c42 -44 63 -101 63 -172c0 -129 -86 -205 -231 -205zM255 129c47 0 79 31 79 82c0 57 -32 92 -79 92c-49 0 -82 -34 -82 -90c0 -55 29 -84 82 -84z" />
    <glyph glyph-name="uni06CC" unicode="&#x6cc;" horiz-adv-x="773" 
d="M378 -194c-113 0 -203 21 -269 64s-99 109 -99 198c0 40 9 87 27 141l136 -34c-7 -33 -11 -58 -11 -77c0 -99 72 -148 216 -148c131 0 202 25 202 61c0 10 -12 22 -37 37s-53 30 -82 45c-30 15 -57 38 -82 68c-25 29 -38 62 -38 98c0 49 21 91 64 126s102 52 177 52
c39 0 78 -5 118 -15l-25 -140c-29 7 -58 11 -86 11c-61 0 -94 -18 -94 -42c0 -13 12 -27 37 -42s52 -29 82 -42c29 -13 56 -33 81 -58c25 -26 37 -55 37 -88c0 -52 -26 -118 -106 -164c-52 -29 -140 -51 -248 -51z" />
    <glyph glyph-name="uni06D2" unicode="&#x6d2;" horiz-adv-x="778" 
d="M374 -13c-265 3 -343 47 -344 153c0 90 72 132 127 164c39 22 70 46 70 75v38h137v-47c0 -67 -49 -119 -97 -142c-49 -24 -98 -50 -98 -71c0 -25 26 -39 228 -39c123 0 246 9 370 27l5 -128c-129 -20 -262 -30 -398 -30z" />
    <glyph glyph-name="uni06D3" unicode="&#x6d3;" horiz-adv-x="778" 
d="M304 615h101v-85h-226v85h42c-10 17 -15 34 -15 53c0 60 47 101 120 101c24 0 46 -2 67 -7l-14 -83c-12 3 -25 5 -40 5c-30 0 -45 -12 -45 -36c0 -11 3 -22 10 -33zM767 145l5 -128c-129 -20 -262 -30 -398 -30c-265 3 -343 47 -344 153c0 90 72 132 127 164
c39 22 70 46 70 75v38h137v-47c0 -67 -49 -119 -97 -142c-49 -24 -98 -50 -98 -71c0 -25 26 -39 228 -39c123 0 246 9 370 27z" />
    <glyph glyph-name="uni06D4" unicode="&#x6d4;" horiz-adv-x="374" 
d="M30 63l52 100c25 -23 60 -34 107 -34h155v-129h-155c-73 0 -126 21 -159 63z" />
    <glyph glyph-name="uni06D5" unicode="&#x6d5;" horiz-adv-x="526" 
d="M255 -5c-141 0 -234 76 -234 205c0 72 22 130 65 173s99 64 169 64c69 0 125 -22 168 -65c42 -44 63 -101 63 -172c0 -129 -86 -205 -231 -205zM255 129c47 0 79 31 79 82c0 57 -32 92 -79 92c-49 0 -82 -34 -82 -90c0 -55 29 -84 82 -84z" />
    <glyph glyph-name="uni06F0" unicode="&#x6f0;" horiz-adv-x="540" 
d="M393 293l-123 -123l-124 124l124 119z" />
    <glyph glyph-name="uni06F1" unicode="&#x6f1;" horiz-adv-x="540" 
d="M345 0h-148v653h148v-653z" />
    <glyph glyph-name="uni06F2" unicode="&#x6f2;" horiz-adv-x="540" 
d="M351 647l148 8c15 -195 -43 -271 -195 -271c-41 0 -75 5 -103 14v-398h-148v653h148v-117c28 -11 56 -17 83 -17c56 0 74 32 67 128z" />
    <glyph glyph-name="uni06F3" unicode="&#x6f3;" horiz-adv-x="540" 
d="M397 645l129 10c12 -171 -34 -248 -151 -248c-32 0 -61 6 -86 19c-19 -13 -43 -19 -73 -19c-18 0 -32 2 -43 5v-412h-148v653h148v-117c4 -1 10 -1 19 -1c36 0 42 20 33 111l117 9c4 -47 4 -87 0 -120h6c25 0 41 7 47 21c6 13 7 43 2 89z" />
    <glyph glyph-name="uni06F4" unicode="&#x6f4;" horiz-adv-x="540" 
d="M508 494l16 -122c-70 -14 -137 -21 -201 -21c-59 0 -113 6 -162 19v-370h-148v653h148v-158c30 -7 58 -11 84 -14c-5 19 -7 35 -7 49c0 89 47 134 142 134c34 0 68 -5 101 -14l-30 -114c-18 7 -37 11 -56 11c-32 0 -48 -14 -48 -42c0 -9 2 -18 5 -28c57 2 109 8 156 17z
" />
    <glyph glyph-name="uni06F5" unicode="&#x6f5;" horiz-adv-x="540" 
d="M173 -6c-101 0 -156 78 -156 259c0 123 25 221 75 293s109 108 178 108s128 -36 178 -108s75 -170 75 -293c0 -173 -52 -259 -155 -259c-42 0 -75 15 -98 46c-23 -31 -56 -46 -97 -46zM219 133c18 0 35 10 51 30c16 -20 33 -30 52 -30c33 0 49 43 49 129
c0 49 -6 104 -21 159s-43 94 -80 94s-65 -39 -80 -94s-21 -110 -21 -159c0 -86 17 -129 50 -129z" />
    <glyph glyph-name="uni06F6" unicode="&#x6f6;" horiz-adv-x="540" 
d="M337 381l57 64l114 -96l-328 -375l-115 96l161 183c-105 27 -164 95 -164 199c0 136 98 204 293 204c12 0 33 -1 62 -2v-135c-133 12 -203 -15 -203 -66c0 -41 41 -65 123 -72z" />
    <glyph glyph-name="uni06F7" unicode="&#x6f7;" horiz-adv-x="540" 
d="M270 186l118 479l149 -33l-174 -632h-186l-174 632l149 33z" />
    <glyph glyph-name="uni06F8" unicode="&#x6f8;" horiz-adv-x="540" 
d="M363 643l174 -632l-149 -33l-118 479l-118 -479l-149 33l174 632h186z" />
    <glyph glyph-name="uni06F9" unicode="&#x6f9;" horiz-adv-x="540" 
d="M257 653h219v-652h-148v243c-208 -19 -305 57 -305 194c0 135 83 215 234 215zM175 446c0 -55 51 -77 153 -66v136h-50c-69 0 -103 -23 -103 -70z" />
    <glyph glyph-name="uni1E9E" unicode="&#x1e9e;" horiz-adv-x="770" 
d="M646 713v-136c-109 1 -163 -24 -163 -77c-4 -25 25 -47 54 -65c17 -12 56 -35 77 -48c57 -37 86 -63 107 -111c10 -25 15 -53 15 -86c0 -133 -95 -208 -240 -208c-95 0 -172 28 -233 83l111 113c43 -39 85 -58 127 -58c40 0 75 27 75 66c0 33 -20 55 -44 71
c-13 8 -48 28 -63 37c-87 55 -137 103 -137 172c0 52 29 94 88 126h-33c-113 0 -169 -42 -169 -125v-467h-156v466c0 89 31 155 93 197c61 42 143 63 245 63c85 0 167 -4 246 -13z" />
    <glyph glyph-name="uni2002" unicode="&#x2002;" horiz-adv-x="572" 
 />
    <glyph glyph-name="uni2003" unicode="&#x2003;" horiz-adv-x="1143" 
 />
    <glyph glyph-name="thinspace" unicode="&#x2009;" horiz-adv-x="114" 
 />
    <glyph glyph-name="uni200A" unicode="&#x200a;" horiz-adv-x="23" 
 />
    <glyph glyph-name="uni200C" unicode="&#x200c;" 
d="M-78 958l-60 -60l-18 20l59 59l-59 59l18 20l60 -61l59 60l18 -19l-58 -59l58 -59l-18 -19z" />
    <glyph glyph-name="uni200D" unicode="&#x200d;" 
d="M-87 912h-26v79h227v-79h-26v53h-175v-53z" />
    <glyph glyph-name="uni200E" unicode="&#x200e;" 
d="M109 977l-79 -79l-19 20l47 47h-144v26h144l-47 45l19 20z" />
    <glyph glyph-name="uni200F" unicode="&#x200f;" 
d="M-11 918l-19 -19l-79 78l79 79l19 -18l-47 -47h145v-26h-144z" />
    <glyph glyph-name="uni2011" unicode="&#x2011;" horiz-adv-x="296" 
d="M25 309h246v-120h-246v120z" />
    <glyph glyph-name="endash" unicode="&#x2013;" horiz-adv-x="500" 
d="M0 309h500v-120h-500v120z" />
    <glyph glyph-name="emdash" unicode="&#x2014;" horiz-adv-x="1000" 
d="M0 309h1000v-120h-1000v120z" />
    <glyph glyph-name="quoteleft" unicode="&#x2018;" horiz-adv-x="296" 
d="M129 708h128l-74 -282h-144z" />
    <glyph glyph-name="quoteright" unicode="&#x2019;" horiz-adv-x="296" 
d="M113 708h144l-90 -282h-128z" />
    <glyph glyph-name="quotesinglbase" unicode="&#x201a;" horiz-adv-x="296" 
d="M113 156h144l-90 -282h-128z" />
    <glyph glyph-name="quotedblleft" unicode="&#x201c;" horiz-adv-x="520" 
d="M134 708h128l-74 -282h-144zM348 708h128l-74 -282h-144z" />
    <glyph glyph-name="quotedblright" unicode="&#x201d;" horiz-adv-x="520" 
d="M118 708h144l-90 -282h-128zM332 708h144l-90 -282h-128z" />
    <glyph glyph-name="quotedblbase" unicode="&#x201e;" horiz-adv-x="520" 
d="M118 156h144l-90 -282h-128zM332 156h144l-90 -282h-128z" />
    <glyph glyph-name="dagger" unicode="&#x2020;" horiz-adv-x="592" 
d="M224 708h138v-210h196v-126h-196v-505h-138v505h-190v126h190v210z" />
    <glyph glyph-name="daggerdbl" unicode="&#x2021;" horiz-adv-x="592" 
d="M227 708h138v-180h193v-120h-193v-241h193v-120h-193v-180h-138v180h-193v120h193v241h-193v120h193v180z" />
    <glyph glyph-name="bullet" unicode="&#x2022;" horiz-adv-x="500" 
d="M125 479c34 35 76 52 125 52s91 -17 126 -52c34 -35 51 -76 51 -125s-17 -91 -52 -125c-35 -35 -76 -52 -125 -52c-48 0 -89 17 -124 51s-53 76 -53 126c0 49 17 90 52 125z" />
    <glyph glyph-name="ellipsis" unicode="&#x2026;" horiz-adv-x="1000" 
d="M102 151c52 59 162 14 157 -65c5 -77 -105 -125 -157 -65c-36 36 -36 94 0 130zM435 151c52 60 162 12 157 -65c0 -51 -40 -92 -92 -92c-79 -5 -124 105 -65 157zM833 178c52 0 92 -43 92 -92c0 -51 -41 -92 -92 -92c-52 0 -92 41 -92 92s41 92 92 92z" />
    <glyph glyph-name="uni202A" unicode="&#x202a;" 
d="M109 977l-79 -79l-19 20l47 47h-57v26h57l-47 45l19 20zM-32 965h-65v26h65v-26z" />
    <glyph glyph-name="uni202B" unicode="&#x202b;" 
d="M-11 918l-19 -19l-79 78l79 79l19 -18l-47 -47h57v-26h-56zM97 965h-65v26h65v-26z" />
    <glyph glyph-name="uni202C" unicode="&#x202c;" 
d="M13 897h-27v116l-45 -46l-19 19l78 78l78 -78l-19 -19l-46 46v-116z" />
    <glyph glyph-name="uni202D" unicode="&#x202d;" 
d="M55 977l-79 -79l-18 20l47 47h-123v26h122l-46 45l18 20zM129 977l-79 -79l-18 20l61 59l-61 59l18 20z" />
    <glyph glyph-name="uni202E" unicode="&#x202e;" 
d="M-32 945l-18 -19l-79 79l79 79l18 -19l-60 -60zM43 945l-19 -19l-78 79l78 79l19 -19l-47 -48h123v-25h-123z" />
    <glyph glyph-name="perthousand" unicode="&#x2030;" horiz-adv-x="1167" 
d="M147 11l405 729l84 -47l-413 -725zM84 669c34 34 75 51 124 51s90 -17 125 -52s52 -76 52 -124s-17 -89 -52 -124s-76 -53 -125 -53s-90 18 -124 53c-35 35 -52 76 -52 124c0 49 17 90 52 125zM128 544c0 -45 37 -81 80 -81c44 0 81 37 81 81c0 45 -38 80 -81 80
s-80 -36 -80 -80zM447 289c34 35 75 52 124 52s90 -17 125 -52c34 -35 51 -76 51 -124c0 -49 -17 -90 -52 -125s-76 -52 -124 -52c-49 0 -90 18 -124 53c-35 35 -52 76 -52 124s17 89 52 124zM958 341c48 0 90 -17 125 -52s52 -76 52 -124c0 -49 -17 -90 -52 -125
s-77 -52 -125 -52c-49 0 -90 18 -124 53c-35 35 -52 76 -52 124c0 49 17 90 52 125c34 34 75 51 124 51zM515 221c-53 -45 -11 -139 56 -137c45 0 80 38 80 81c0 44 -37 80 -81 80c-21 0 -40 -8 -55 -24zM878 165c0 -45 36 -81 80 -81c43 0 81 36 81 81c0 44 -37 80 -81 80
s-80 -36 -80 -80z" />
    <glyph glyph-name="guilsinglleft" unicode="&#x2039;" horiz-adv-x="296" 
d="M177 483l91 -61l-116 -173l116 -173l-91 -61l-159 234z" />
    <glyph glyph-name="guilsinglright" unicode="&#x203a;" horiz-adv-x="296" 
d="M28 422l91 61l159 -234l-159 -234l-91 61l116 173z" />
    <glyph glyph-name="fraction" unicode="&#x2044;" horiz-adv-x="167" 
d="M-161 11l405 729l84 -47l-413 -725z" />
    <glyph glyph-name="Euro" unicode="&#x20ac;" horiz-adv-x="592" 
d="M402 720c25 0 55 -3 90 -9c34 -7 56 -13 66 -20l-46 -130c-27 17 -63 25 -109 25c-72 0 -122 -32 -149 -96h235l-30 -92h-226c-1 -16 -2 -30 -2 -43c0 -12 1 -35 1 -43h204l-29 -90h-160c22 -69 65 -104 129 -104c48 0 88 19 120 58l82 -101c-47 -53 -129 -87 -216 -87
c-149 0 -240 78 -271 234h-81l28 90h42c-1 5 -1 17 -1 37c0 11 1 28 2 49h-68l31 92h52c41 153 143 230 306 230z" />
    <glyph glyph-name="uni20B9" unicode="&#x20b9;" horiz-adv-x="592" 
d="M561 708v-96h-157c16 -21 26 -44 31 -71h126v-96h-127c-9 -96 -81 -151 -185 -158l208 -287h-185l-197 291v83h83c67 0 108 24 123 71h-206l1 96h209c-15 47 -57 71 -124 71h-87v96h487z" />
    <glyph glyph-name="uni20BA" unicode="&#x20ba;" horiz-adv-x="592" 
d="M251 708v-98l154 64v-102l-154 -64v-76l154 64v-102l-154 -64v-201h3c58 1 101 22 130 65c28 42 42 96 42 161v10h148v-12c0 -224 -118 -362 -339 -362c-40 0 -83 3 -128 8v265l-80 -34v101l80 35v76l-80 -34v102l80 34v164h144z" />
    <glyph glyph-name="uni2113" unicode="&#x2113;" horiz-adv-x="546" 
d="M301 776c95 0 151 -70 151 -181c0 -109 -64 -215 -209 -351l1 -39c1 -59 35 -104 88 -104c52 0 98 31 138 93l56 -58c-50 -97 -124 -145 -223 -145c-121 0 -182 75 -191 174c-28 -23 -46 -36 -53 -40l-35 71c5 5 19 15 40 32c21 16 37 29 47 38v254c0 156 70 256 190 256
zM243 528v-161c80 89 120 167 120 232c0 55 -19 82 -56 82c-39 0 -64 -60 -64 -153z" />
    <glyph glyph-name="trademark" unicode="&#x2122;" horiz-adv-x="1000" 
d="M40 708h346v-96h-119v-316h-108v316h-119v96zM474 708h145l98 -268l98 268h145v-412h-108v268h-2l-98 -268h-70l-98 268h-2v-268h-108v412z" />
    <glyph glyph-name="uni2126" unicode="&#x2126;" horiz-adv-x="751" 
d="M378 716c93 0 170 -31 229 -94s89 -138 89 -225c0 -108 -50 -216 -131 -285v-3h145v-109h-283v81c86 55 129 151 129 288c0 61 -15 116 -46 164s-75 72 -133 72c-59 0 -104 -24 -135 -72c-32 -48 -48 -104 -48 -169c0 -58 11 -113 32 -165s53 -91 97 -118v-81h-284v109
h143v3c-85 76 -128 169 -128 280c0 93 31 170 93 232c61 61 138 92 231 92z" />
    <glyph glyph-name="estimated" unicode="&#x212e;" horiz-adv-x="976" 
d="M900 341h-667c-4 0 -6 -2 -6 -6v-190c0 -14 3 -24 8 -30c57 -72 140 -108 251 -108c109 0 189 42 269 118h72c-42 -51 -88 -87 -138 -110c-51 -23 -117 -34 -200 -34c-127 0 -227 35 -302 105s-112 156 -112 257c0 97 41 192 110 263c68 71 178 117 302 117
c317 0 413 -206 413 -382zM749 368v194c0 9 -4 19 -12 28c-63 77 -163 107 -254 107c-96 0 -178 -35 -246 -105c-7 -8 -10 -18 -10 -29v-195c0 -4 2 -6 6 -6h510c4 0 6 2 6 6z" />
    <glyph glyph-name="partialdiff" unicode="&#x2202;" horiz-adv-x="606" 
d="M264 797c87 0 158 -35 212 -106s81 -165 81 -281c0 -128 -27 -229 -81 -304c-55 -76 -127 -114 -217 -114c-65 0 -118 24 -159 72c-41 47 -62 104 -62 169c0 79 22 143 65 192c43 48 97 72 162 72c63 0 123 -32 156 -83h1c1 5 1 16 1 33c0 75 -21 148 -77 200
c-28 26 -61 39 -100 39c-49 0 -95 -16 -139 -48l-39 99c54 40 119 60 196 60zM174 229c0 -32 9 -61 26 -86c17 -26 41 -39 72 -39c27 0 52 13 73 38s36 51 46 80c9 28 15 55 18 82c-15 47 -66 86 -115 86c-37 0 -67 -17 -88 -50c-21 -34 -32 -71 -32 -111z" />
    <glyph glyph-name="uni2206" unicode="&#x2206;" horiz-adv-x="693" 
d="M267 721h165l233 -642v-79h-638v78zM345 580h-3c-5 -20 -14 -49 -27 -86c-13 -38 -22 -64 -26 -77l-119 -308h345l-112 293c-4 13 -13 40 -27 82c-15 42 -25 74 -31 96z" />
    <glyph glyph-name="product" unicode="&#x220f;" horiz-adv-x="759" 
d="M24 705h710v-122h-108v-680h-135v680h-224v-680h-135v680h-108v122z" />
    <glyph glyph-name="summation" unicode="&#x2211;" horiz-adv-x="588" 
d="M33 705h519v-115h-334v-4l211 -261l-233 -295v-3h373v-124h-546v85l252 316l-242 307v94z" />
    <glyph glyph-name="minus" unicode="&#x2212;" horiz-adv-x="666" 
d="M59 366h548v-126h-548v126z" />
    <glyph glyph-name="uni2215" unicode="&#x2215;" horiz-adv-x="167" 
d="M-161 11l405 729l84 -47l-413 -725z" />
    <glyph glyph-name="uni2219" unicode="&#x2219;" horiz-adv-x="296" 
d="M83 348c52 59 163 14 157 -65c5 -80 -105 -124 -157 -65c-36 36 -36 94 0 130z" />
    <glyph glyph-name="radical" unicode="&#x221a;" horiz-adv-x="624" 
d="M539 846h96l-237 -988h-109l-157 440l-77 -31l-23 74l181 74l109 -322c10 -44 17 -73 21 -87l1 -1c10 58 16 91 18 98z" />
    <glyph glyph-name="infinity" unicode="&#x221e;" horiz-adv-x="803" 
d="M221 463c65 0 126 -38 185 -114c32 36 48 53 81 78c32 24 66 36 106 36c48 0 87 -16 116 -49s44 -74 44 -123c0 -51 -15 -93 -46 -128s-71 -52 -120 -52c-65 0 -126 39 -185 117c-60 -76 -110 -117 -190 -117c-47 0 -85 17 -116 52c-31 34 -47 75 -47 123
c0 51 16 93 49 127c32 33 73 50 123 50zM124 285c0 -57 42 -100 98 -100c17 0 33 4 49 13s24 13 41 30c16 16 17 17 35 37c9 10 14 16 15 17c2 -2 -28 38 -28 38c-4 4 -25 31 -32 36c-8 4 -27 21 -38 25c-12 4 -30 10 -47 10c-59 0 -93 -45 -93 -106zM444 289
c4 -5 24 -28 29 -35c5 -8 24 -27 33 -34c8 -7 25 -21 37 -25c12 -5 30 -10 46 -10c52 0 89 49 89 101c0 60 -35 105 -94 105c-17 0 -33 -3 -49 -13s-25 -16 -41 -32c-16 -17 -19 -19 -35 -39c-8 -10 -13 -16 -15 -18z" />
    <glyph glyph-name="integral" unicode="&#x222b;" horiz-adv-x="410" 
d="M326 873c22 0 43 -4 64 -12l-14 -92c-12 6 -25 9 -38 9c-37 0 -62 -24 -70 -70c-10 -50 -10 -64 -10 -116v-10c0 -38 3 -116 8 -234s8 -199 8 -244c0 -189 -54 -280 -173 -280c-32 0 -59 6 -82 17l17 95c9 -2 30 -11 45 -11c55 0 75 47 75 179c0 41 -3 125 -8 250
s-8 209 -8 252c0 178 62 267 186 267z" />
    <glyph glyph-name="approxequal" unicode="&#x2248;" horiz-adv-x="666" 
d="M513 502l78 -76c-41 -83 -93 -125 -157 -125c-23 0 -55 12 -98 35s-76 35 -99 35c-18 0 -46 -28 -83 -84l-79 75c40 77 105 125 168 125c23 0 56 -11 99 -34s74 -35 92 -35c22 0 48 28 79 84zM513 303l78 -75c-45 -87 -97 -131 -158 -131c-25 0 -57 12 -97 36
c-41 23 -74 35 -99 35c-22 0 -50 -28 -83 -85l-79 78c39 79 107 128 168 128c28 0 61 -11 99 -34s68 -35 91 -35c24 0 45 26 80 83z" />
    <glyph glyph-name="notequal" unicode="&#x2260;" horiz-adv-x="666" 
d="M338 462l50 116l106 -43l-32 -73h145v-126h-200l-29 -66h229v-126h-284l-52 -119l-102 38l34 81h-144v126h198l28 66h-226v126h279z" />
    <glyph glyph-name="lessequal" unicode="&#x2264;" horiz-adv-x="666" 
d="M551 619v-140l-326 -108l326 -109v-138l-482 189v113zM65 108h490v-123h-490v123z" />
    <glyph glyph-name="greaterequal" unicode="&#x2265;" horiz-adv-x="666" 
d="M69 479v140l482 -193v-113l-482 -189v138l326 109zM65 108h490v-123h-490v123z" />
    <glyph glyph-name="lozenge" unicode="&#x25ca;" horiz-adv-x="623" 
d="M259 755h109l204 -403l-209 -403h-108l-204 403zM313 647h-3c-4 -17 -11 -36 -20 -58l-119 -234l118 -240c6 -11 13 -31 20 -59h4c5 21 11 39 18 53l121 240l-114 230c-11 21 -19 44 -25 68z" />
    <glyph glyph-name="uni25CC" unicode="&#x25cc;" horiz-adv-x="460" 
d="M257 370c0 -19 -9 -28 -27 -28s-27 9 -27 28c0 18 9 27 27 27s27 -9 27 -27zM143 320c-17 0 -26 10 -26 29c0 17 9 26 26 26c19 0 29 -9 29 -26c0 -19 -10 -29 -29 -29zM316 320c-19 0 -29 10 -29 29c0 17 10 26 29 26c17 0 26 -9 26 -26c0 -19 -9 -29 -26 -29zM80 257
c-17 0 -26 9 -26 28c0 18 9 27 26 27c19 0 28 -9 28 -27c0 -19 -9 -28 -28 -28zM406 285c0 -19 -9 -28 -27 -28s-27 9 -27 28c0 18 9 27 27 27s27 -9 27 -27zM58 172c-17 0 -26 9 -26 27s9 27 26 27c19 0 28 -9 28 -27s-9 -27 -28 -27zM428 199c0 -18 -9 -27 -27 -27
s-27 9 -27 27s9 27 27 27s27 -9 27 -27zM80 86c-17 0 -26 9 -26 27s9 27 26 27c19 0 28 -9 28 -27s-9 -27 -28 -27zM406 113c0 -18 -9 -27 -27 -27s-27 9 -27 27s9 27 27 27s27 -9 27 -27zM143 23c-17 0 -26 9 -26 27s9 27 26 27c19 0 29 -9 29 -27s-10 -27 -29 -27zM316 23
c-19 0 -29 9 -29 27s10 27 29 27c17 0 26 -9 26 -27s-9 -27 -26 -27zM257 28c0 -18 -9 -27 -27 -27s-27 9 -27 27c0 19 9 28 27 28s27 -9 27 -28z" />
    <glyph glyph-name="uni274A" unicode="&#x274a;" horiz-adv-x="637" 
d="M319 163l-55 -172l-124 61l98 149l-167 -63l-31 134l179 16l-154 92l86 107l123 -130l-24 178h138l-25 -178l124 130l86 -107l-154 -92l178 -16l-30 -134l-167 63l98 -150l-124 -60z" />
    <glyph glyph-name="fi" unicode="&#xfb01;" horiz-adv-x="630" 
d="M383 759l-7 -127c-19 7 -36 10 -49 10c-55 0 -72 -21 -72 -80v-76h111v-120h-111v-366h-150v366h-99v120h99v91c0 127 51 191 190 191c35 0 64 -3 88 -9zM439 701c34 33 89 34 123 0s34 -89 0 -123c-50 -57 -154 -12 -149 61c0 25 9 45 26 62zM425 486h150v-486h-150v486
z" />
    <glyph glyph-name="fl" unicode="&#xfb02;" horiz-adv-x="630" 
d="M383 759l-7 -127c-19 7 -36 10 -49 10c-55 0 -72 -21 -72 -80v-76h111v-120h-111v-366h-150v366h-99v120h99v91c0 127 51 191 190 191c35 0 64 -3 88 -9zM425 756h150v-756h-150v756z" />
    <glyph glyph-name="uniFBB2" unicode="&#xfbb2;" 
d="M54 568c-26 -29 -79 -29 -107 0c-13 14 -20 32 -20 53c0 44 30 74 74 74s72 -30 72 -74c0 -21 -6 -39 -19 -53z" />
    <glyph glyph-name="uniFBB3" unicode="&#xfbb3;" 
d="M54 -206c-26 -27 -79 -27 -107 0c-13 14 -20 32 -20 53c0 44 30 76 74 76s72 -32 72 -76c0 -21 -6 -39 -19 -53z" />
    <glyph glyph-name="uniFBB4" unicode="&#xfbb4;" 
d="M-37 568c-27 -29 -77 -29 -106 0c-28 28 -28 78 0 106c29 28 79 28 106 0c28 -28 28 -78 0 -106zM91 546c-43 0 -75 32 -75 75s32 74 75 74s73 -31 73 -74s-32 -75 -73 -75z" />
    <glyph glyph-name="uniFBB5" unicode="&#xfbb5;" 
d="M-37 -206c-41 -44 -132 -11 -127 53c0 43 32 76 75 76s73 -32 73 -76c0 -21 -7 -39 -21 -53zM91 -226c-43 0 -75 32 -75 73c0 43 32 76 75 76c41 0 73 -33 73 -76c0 -41 -32 -73 -73 -73z" />
    <glyph glyph-name="uniFBB6" unicode="&#xfbb6;" 
d="M4 687c-41 0 -73 34 -73 75c0 43 32 76 73 76c44 0 74 -33 74 -76s-30 -75 -74 -75zM-37 556c-27 -29 -77 -29 -106 0c-28 29 -28 79 0 107c44 45 133 13 127 -53c0 -22 -7 -40 -21 -54zM91 534c-43 0 -75 33 -75 76s32 74 75 74s73 -31 73 -74s-32 -76 -73 -76z" />
    <glyph glyph-name="uniFBB9" unicode="&#xfbb9;" 
d="M-37 -206c-27 -28 -77 -28 -106 0c-28 28 -28 78 0 106c29 29 79 29 106 0c28 -28 28 -78 0 -106zM144 -206c-42 -45 -133 -13 -128 53c0 43 32 75 75 75c64 5 97 -86 53 -128zM3 -377c-43 0 -75 32 -75 73c0 44 32 76 75 76c44 0 73 -32 73 -76c0 -43 -29 -73 -73 -73z
" />
    <glyph glyph-name="uniFD3E" unicode="&#xfd3e;" horiz-adv-x="512" 
d="M464 -97c-13 0 -37 15 -70 45s-67 68 -100 114c-34 45 -56 86 -65 121l-68 -11c-13 -3 -20 11 -11 23l57 79c5 5 8 10 8 17c0 5 -4 8 -12 8c-5 0 -9 -2 -14 -7l-72 -64c-5 -5 -10 -8 -14 -8c-9 0 -14 6 -14 19v56c-39 19 -59 36 -59 49s20 29 59 48v55c0 13 5 20 14 20
c1 0 6 -3 14 -9l72 -64c7 -5 11 -7 14 -7c8 0 12 3 12 9c0 7 -3 12 -8 17l-57 79c-8 12 -2 24 11 23l68 -11c9 35 31 76 65 122c33 45 67 83 100 113s57 45 70 45c12 0 13 -6 2 -18c-92 -111 -144 -189 -152 -264l48 6c19 3 25 -7 14 -18l-63 -74c-7 -9 -11 -14 -11 -17
c0 -5 3 -7 10 -7c5 0 10 1 14 3l74 54c15 11 25 11 25 -2v-55c40 -15 60 -31 60 -48c0 -18 -20 -34 -60 -49v-56c0 -13 -10 -13 -25 -2l-74 55c-4 2 -9 3 -14 3c-7 0 -10 -3 -10 -8c0 -1 4 -7 11 -18l63 -72c11 -11 5 -21 -14 -18l-48 6c9 -83 60 -171 152 -264
c11 -9 9 -18 -2 -18zM182 491l47 -68v27h22l20 32v-32h18v-26l63 64l-67 -13c3 25 14 60 33 105v42c-33 -33 -63 -97 -75 -146zM112 313v-53l72 56h-44v17c-13 3 -23 7 -28 11c5 3 15 7 28 10v16h44l-72 57v-53c-38 -13 -57 -23 -57 -30s19 -18 57 -31zM334 314l70 -53v52
c32 7 57 20 57 31c0 8 -25 23 -57 30v52l-70 -53h40v-18c9 -1 20 -4 31 -11c-10 -7 -20 -11 -31 -12v-18h-40zM259 295c28 0 48 21 48 49c0 27 -20 48 -48 48c-25 0 -47 -24 -47 -48c0 -25 22 -49 47 -49zM318 64v43c-19 43 -30 78 -33 104l67 -13l-63 65v-28h-18v-31
l-20 31h-22v28l-47 -67l61 14c16 -62 41 -111 75 -146z" />
    <glyph glyph-name="uniFD3F" unicode="&#xfd3f;" horiz-adv-x="512" 
d="M51 -97c-10 0 -13 9 -2 18c92 93 143 181 152 264l-48 -6c-19 -3 -25 7 -14 18l63 72c7 11 11 17 11 18c0 5 -3 8 -10 8c-5 0 -10 -1 -14 -3l-74 -55c-15 -11 -25 -11 -25 2v56c-40 15 -60 31 -60 49c0 17 20 33 60 48v55c0 13 10 13 25 2l74 -54c4 -2 9 -3 14 -3
c7 0 10 2 10 7c0 3 -4 8 -11 17l-63 74c-11 11 -5 21 14 18l48 -6c-8 75 -60 153 -152 264c-11 12 -10 18 2 18c13 0 37 -15 70 -45s67 -68 101 -113c33 -46 55 -87 64 -122l68 11c13 1 19 -11 11 -23l-57 -79c-5 -5 -8 -10 -8 -17c0 -6 4 -9 12 -9c3 0 7 2 14 7l72 64
c8 6 13 9 14 9c9 0 14 -7 14 -20v-55c39 -19 59 -35 59 -48s-20 -30 -59 -49v-56c0 -13 -5 -19 -14 -19c-4 0 -9 3 -14 8l-72 64c-5 5 -9 7 -14 7c-8 0 -12 -3 -12 -8c0 -7 3 -12 8 -17l57 -79c9 -12 2 -26 -11 -23l-68 11c-9 -35 -31 -76 -64 -121
c-34 -46 -68 -84 -101 -114s-57 -45 -70 -45zM286 450v-27l47 68l-61 -15c-12 49 -42 113 -75 146v-42c19 -45 30 -80 33 -105l-67 13l63 -64v26h18v32l20 -32h22zM331 316l72 -56v53c38 13 57 24 57 31s-19 17 -57 30v53l-72 -57h44v-16c13 -3 23 -7 28 -10
c-5 -4 -15 -8 -28 -11v-17h-44zM111 313v-52l70 53h-40v18c-11 1 -21 5 -31 12c11 7 22 10 31 11v18h40l-70 53v-52c-32 -7 -57 -22 -57 -30c0 -11 25 -24 57 -31zM256 295c25 0 47 24 47 49c0 24 -23 48 -47 48c-28 0 -48 -21 -48 -48c0 -28 20 -49 48 -49zM197 107v-43
c34 35 59 84 75 146l61 -14l-47 67v-28h-22l-20 -31v31h-18v28l-63 -65l67 13c-3 -26 -14 -61 -33 -104z" />
    <glyph glyph-name="uniFEFF" unicode="&#xfeff;" 
 />
    <glyph glyph-name="uniFBE9.wide" horiz-adv-x="363" 
d="M363 129c13 0 20 -23 20 -69c0 -40 -7 -60 -20 -60c-65 0 -111 18 -137 54c-35 -36 -100 -54 -193 -54h-33v129h29c40 0 66 7 79 21c12 14 18 42 18 85v191h148v-205c0 -61 30 -92 89 -92z" />
    <glyph glyph-name="uniFBE8.wide" horiz-adv-x="350" 
d="M33 0h-33v129h29c40 0 66 7 79 21c12 14 18 42 18 85v191h148v-209c0 -81 -18 -138 -54 -169c-37 -32 -99 -48 -187 -48z" />
    <glyph glyph-name="uniFBAF.wide" horiz-adv-x="821" 
d="M363 -260c-129 0 -218 15 -269 45c-51 31 -76 80 -76 147c0 137 94 197 287 197h516c13 0 20 -23 20 -69c0 -40 -7 -60 -20 -60h-525c-92 0 -138 -21 -138 -64c0 -23 16 -39 47 -50s92 -16 181 -16c124 0 247 9 369 28l5 -128c-128 -20 -260 -30 -397 -30z" />
    <glyph glyph-name="uniFBB1.wide" horiz-adv-x="821" 
d="M281 298h80v-67h-178v67h32c-7 13 -11 27 -11 41c0 48 36 80 95 80c19 0 37 -2 53 -7l-12 -64c-11 3 -21 4 -31 4c-23 0 -35 -10 -35 -29c0 -7 2 -16 7 -25zM305 129h516c13 0 20 -23 20 -69c0 -40 -7 -60 -20 -60h-525c-92 0 -138 -21 -138 -64c0 -23 16 -39 47 -50
s92 -16 181 -16c124 0 247 9 369 28l5 -128c-128 -20 -260 -30 -397 -30c-129 0 -218 15 -269 45c-51 31 -76 80 -76 147c0 137 94 197 287 197z" />
    <glyph glyph-name="uni0660.lf" horiz-adv-x="287" 
d="M267 293l-123 -123l-124 124l124 119z" />
    <glyph glyph-name="uni0661.lf" horiz-adv-x="310" 
d="M229 0h-148v653h148v-653z" />
    <glyph glyph-name="uni0662.lf" horiz-adv-x="554" 
d="M379 647l148 8c15 -195 -43 -271 -195 -271c-41 0 -75 5 -103 14v-398h-148v653h148v-117c28 -11 56 -17 83 -17c56 0 74 32 67 128z" />
    <glyph glyph-name="uni0663.lf" horiz-adv-x="609" 
d="M453 645l129 10c12 -171 -34 -248 -151 -248c-32 0 -61 6 -86 19c-19 -13 -43 -19 -73 -19c-18 0 -32 2 -43 5v-412h-148v653h148v-117c4 -1 10 -1 19 -1c36 0 42 20 33 111l117 9c4 -47 4 -87 0 -120h6c25 0 41 7 47 21c6 13 7 43 2 89z" />
    <glyph glyph-name="uni0664.lf" horiz-adv-x="486" 
d="M449 133l6 -136c-42 -6 -89 -9 -141 -9c-180 0 -268 44 -268 164c0 77 44 138 132 183c-69 27 -104 71 -104 132c0 125 102 188 306 188c13 0 28 0 45 -1v-135c-133 5 -199 -15 -199 -59s64 -64 181 -48l-1 -138c-143 -12 -208 -51 -208 -96c0 -33 35 -50 142 -50
c35 0 71 2 109 5z" />
    <glyph glyph-name="uni0665.lf" horiz-adv-x="590" 
d="M478 62c-41 -47 -102 -70 -183 -70s-141 23 -182 70s-62 121 -62 223c0 235 91 369 244 369c155 0 244 -134 244 -369c0 -102 -20 -176 -61 -223zM222 170c15 -27 40 -40 73 -40s58 13 73 40s23 68 23 124c0 63 -8 116 -23 159c-16 42 -40 63 -73 63s-57 -21 -72 -63
c-16 -43 -24 -96 -24 -159c0 -56 8 -97 23 -124z" />
    <glyph glyph-name="uni0666.lf" horiz-adv-x="506" 
d="M425 0h-148v516h-271v137h419v-653z" />
    <glyph glyph-name="uni0667.lf" horiz-adv-x="566" 
d="M283 186l118 479l149 -33l-174 -632h-186l-174 632l149 33z" />
    <glyph glyph-name="uni0668.lf" horiz-adv-x="566" 
d="M376 643l174 -632l-149 -33l-118 479l-118 -479l-149 33l174 632h186z" />
    <glyph glyph-name="uni0669.lf" horiz-adv-x="570" 
d="M270 653h219v-652h-148v243c-208 -19 -305 57 -305 194c0 135 83 215 234 215zM188 446c0 -55 51 -77 153 -66v136h-50c-69 0 -103 -23 -103 -70z" />
    <glyph glyph-name="uni06F0.lf" horiz-adv-x="287" 
d="M267 293l-123 -123l-124 124l124 119z" />
    <glyph glyph-name="uni06F1.lf" horiz-adv-x="310" 
d="M229 0h-148v653h148v-653z" />
    <glyph glyph-name="uni06F2.lf" horiz-adv-x="554" 
d="M379 647l148 8c15 -195 -43 -271 -195 -271c-41 0 -75 5 -103 14v-398h-148v653h148v-117c28 -11 56 -17 83 -17c56 0 74 32 67 128z" />
    <glyph glyph-name="uni06F3.lf" horiz-adv-x="609" 
d="M453 645l129 10c12 -171 -34 -248 -151 -248c-32 0 -61 6 -86 19c-19 -13 -43 -19 -73 -19c-18 0 -32 2 -43 5v-412h-148v653h148v-117c4 -1 10 -1 19 -1c36 0 42 20 33 111l117 9c4 -47 4 -87 0 -120h6c25 0 41 7 47 21c6 13 7 43 2 89z" />
    <glyph glyph-name="uni06F4.lf" horiz-adv-x="617" 
d="M576 494l16 -122c-70 -14 -137 -21 -201 -21c-59 0 -113 6 -162 19v-370h-148v653h148v-158c30 -7 58 -11 84 -14c-5 19 -7 35 -7 49c0 89 47 134 142 134c34 0 68 -5 101 -14l-30 -114c-18 7 -37 11 -56 11c-32 0 -48 -14 -48 -42c0 -9 2 -18 5 -28c57 2 109 8 156 17z
" />
    <glyph glyph-name="uni06F5.lf" horiz-adv-x="608" 
d="M207 -6c-101 0 -156 78 -156 259c0 123 25 221 75 293s109 108 178 108s128 -36 178 -108s75 -170 75 -293c0 -173 -52 -259 -155 -259c-42 0 -75 15 -98 46c-23 -31 -56 -46 -97 -46zM253 133c18 0 35 10 51 30c16 -20 33 -30 52 -30c33 0 49 43 49 129
c0 49 -6 104 -21 159s-43 94 -80 94s-65 -39 -80 -94s-21 -110 -21 -159c0 -86 17 -129 50 -129z" />
    <glyph glyph-name="uni06F6.lf" horiz-adv-x="501" 
d="M312 381l57 64l114 -96l-328 -375l-115 96l161 183c-105 27 -164 95 -164 199c0 136 98 204 293 204c12 0 33 -1 62 -2v-135c-133 12 -203 -15 -203 -66c0 -41 41 -65 123 -72z" />
    <glyph glyph-name="uni06F7.lf" horiz-adv-x="566" 
d="M283 186l118 479l149 -33l-174 -632h-186l-174 632l149 33z" />
    <glyph glyph-name="uni06F8.lf" horiz-adv-x="566" 
d="M376 643l174 -632l-149 -33l-118 479l-118 -479l-149 33l174 632h186z" />
    <glyph glyph-name="uni06F9.lf" horiz-adv-x="570" 
d="M270 653h219v-652h-148v243c-208 -19 -305 57 -305 194c0 135 83 215 234 215zM188 446c0 -55 51 -77 153 -66v136h-50c-69 0 -103 -23 -103 -70z" />
    <glyph glyph-name="uni06F4.urdu" horiz-adv-x="540" 
d="M439 448h-107c-20 48 -43 72 -70 72c-29 0 -44 -22 -44 -66v-454h-148v453c0 149 70 220 170 220c60 0 101 -30 142 -91c21 25 45 51 72 78l90 -90c-41 -39 -76 -80 -105 -122z" />
    <glyph glyph-name="uni06F7.urdu" horiz-adv-x="540" 
d="M473 0h-358l-85 138l241 524l138 -61l-222 -472h286v-129z" />
    <glyph glyph-name="uni06F4.urdu.lf" horiz-adv-x="535" 
d="M430 448h-107c-20 48 -43 72 -70 72c-29 0 -44 -22 -44 -66v-454h-148v453c0 149 70 220 170 220c60 0 101 -30 142 -91c21 25 45 51 72 78l90 -90c-41 -39 -76 -80 -105 -122z" />
    <glyph glyph-name="uni06F7.urdu.lf" horiz-adv-x="465" 
d="M454 0h-358l-85 138l241 524l138 -61l-222 -472h286v-129z" />
    <glyph glyph-name="acute.case" horiz-adv-x="260" 
d="M131 904h204l-173 -144h-132z" />
    <glyph glyph-name="breve.case" horiz-adv-x="260" 
d="M-54 904h80c6 -32 41 -48 105 -48c28 0 39 1 61 6s35 19 43 42h79c-11 -97 -83 -144 -184 -144c-105 0 -179 45 -184 144z" />
    <glyph glyph-name="caron.case" horiz-adv-x="260" 
d="M-73 931h138l63 -78l62 78h135l-119 -144h-163z" />
    <glyph glyph-name="circumflex.case" horiz-adv-x="260" 
d="M50 904h163l116 -144h-138l-63 78l-62 -78h-135z" />
    <glyph glyph-name="dieresis.case" horiz-adv-x="260" 
d="M23 922c48 0 87 -35 87 -82c0 -48 -36 -86 -85 -86c-45 0 -83 39 -83 86c0 44 37 82 81 82zM231 922c48 0 87 -35 87 -82c0 -48 -36 -86 -85 -86c-45 0 -83 39 -83 86c0 44 38 82 81 82z" />
    <glyph glyph-name="dotaccent.case" horiz-adv-x="260" 
d="M127 922c48 0 87 -35 87 -82c0 -48 -36 -86 -85 -86c-45 0 -83 39 -83 86c0 44 38 82 81 82z" />
    <glyph glyph-name="grave.case" horiz-adv-x="260" 
d="M-73 904h204l101 -144h-132z" />
    <glyph glyph-name="hungarumlaut.case" horiz-adv-x="260" 
d="M-1 904h204l-173 -144h-132zM263 904h204l-173 -144h-132z" />
    <glyph glyph-name="macron.case" horiz-adv-x="260" 
d="M-40 883h340v-96h-340v96z" />
    <glyph glyph-name="ring.case" horiz-adv-x="260" 
d="M130 953c31 0 57 -11 79 -33c21 -23 32 -49 32 -78c0 -30 -11 -56 -33 -78s-48 -33 -78 -33s-56 11 -78 33c-44 44 -44 112 0 156c22 22 48 33 78 33zM95 878c-21 -20 -21 -52 -1 -72s52 -20 72 0c31 31 9 87 -37 87c-13 0 -24 -5 -34 -15z" />
    <glyph glyph-name="tilde.case" horiz-adv-x="260" 
d="M61 904c23 0 52 -7 87 -21c23 -10 42 -15 56 -15c19 0 33 12 44 36h78c-15 -92 -59 -138 -130 -138c-20 0 -46 7 -78 21c-31 14 -52 21 -63 21c-19 0 -33 -14 -42 -42h-79c13 81 62 138 127 138z" />
    <glyph glyph-name="waslaar" 
d="M49 703c52 0 86 -36 86 -93c0 -24 -5 -49 -16 -75h-254v65h40v100h61v-40c24 29 52 43 83 43zM31 637c-25 0 -48 -12 -69 -37h104c1 4 2 7 2 8c0 16 -14 29 -37 29z" />
    <glyph glyph-name="gafsarkashabovear" 
d="M165 658l-261 -250l-69 69l262 250z" />
    <glyph glyph-name="uni0654.big" 
d="M12 628h101v-85h-226v85h42c-10 17 -15 35 -15 53c0 60 47 101 120 101c24 0 46 -2 67 -7l-14 -83c-12 3 -25 5 -40 5c-30 0 -45 -12 -45 -36c0 -11 3 -22 10 -33z" />
    <glyph glyph-name="uni0654064F" 
d="M89 905c0 -97 -52 -146 -116 -146c-25 0 -47 6 -68 18l25 56c15 -7 30 -10 43 -10c20 0 35 8 45 23h-1c-58 0 -87 23 -87 68c0 48 34 91 82 91c47 0 77 -40 77 -100zM19 898h12v4c0 24 -11 39 -24 39c-12 0 -20 -11 -20 -22c0 -14 11 -21 32 -21zM2 624c0 -7 2 -16 7 -25
h80v-67h-178v67h32c-7 13 -11 27 -11 41c0 48 36 80 95 80c19 0 36 -2 53 -7l-12 -64c-11 3 -21 4 -31 4c-23 0 -35 -10 -35 -29z" />
    <glyph glyph-name="uni0654064C" 
d="M125 905c0 -97 -52 -146 -115 -146c-70 0 -84 58 -112 58c-9 0 -19 -8 -31 -23l-40 32c20 32 50 56 74 56c17 0 37 -10 59 -29c22 -20 40 -30 53 -30c18 0 31 8 40 23h-5c-47 0 -81 21 -81 68c0 48 34 91 81 91s77 -40 77 -100zM50 898c8 0 14 0 17 1v3
c0 26 -8 39 -23 39c-12 0 -21 -12 -21 -24c0 -13 9 -19 27 -19zM2 624c0 -7 2 -16 7 -25h80v-67h-178v67h32c-7 13 -11 27 -11 41c0 48 36 80 95 80c19 0 36 -2 53 -7l-12 -64c-11 3 -21 4 -31 4c-23 0 -35 -10 -35 -29z" />
    <glyph glyph-name="uni0654064E" 
d="M-101 818l224 34l3 -1l-11 -64l-224 -34l-3 1zM2 624c0 -7 2 -16 7 -25h80v-67h-178v67h32c-7 13 -11 27 -11 41c0 48 36 80 95 80c19 0 36 -2 53 -7l-12 -64c-11 3 -21 4 -31 4c-23 0 -35 -10 -35 -29z" />
    <glyph glyph-name="uni0654064B" 
d="M126 969l-11 -64l-224 -34l-3 1l11 64l224 34zM-112 754l11 64l224 34l3 -1l-11 -64l-224 -34zM2 624c0 -7 2 -16 7 -25h80v-67h-178v67h32c-7 13 -11 27 -11 41c0 48 36 80 95 80c19 0 36 -2 53 -7l-12 -64c-11 3 -21 4 -31 4c-23 0 -35 -10 -35 -29z" />
    <glyph glyph-name="uni06540652" 
d="M21 760c-55 0 -85 33 -85 82s33 94 85 94c51 0 83 -45 83 -94s-30 -82 -83 -82zM21 874c-16 0 -24 -9 -24 -28c0 -15 8 -22 24 -22c15 0 22 7 22 22c0 13 -9 28 -22 28zM2 624c0 -7 2 -16 7 -25h80v-67h-178v67h32c-7 13 -11 27 -11 41c0 48 36 80 95 80
c19 0 36 -2 53 -7l-12 -64c-11 3 -21 4 -31 4c-23 0 -35 -10 -35 -29z" />
    <glyph glyph-name="uni06550650" 
d="M10 -193h79v-66h-178v66h33c-8 13 -12 27 -12 42c0 48 36 80 95 80c19 0 36 -2 53 -7l-12 -64c-11 3 -21 4 -31 4c-23 0 -35 -10 -35 -29c0 -9 3 -17 8 -26zM-98 -322l224 34l3 -1l-11 -64l-224 -34l-3 1z" />
    <glyph glyph-name="uni0655064D" 
d="M10 -193h79v-66h-178v66h33c-8 13 -12 27 -12 42c0 48 36 80 95 80c19 0 36 -2 53 -7l-12 -64c-11 3 -21 4 -31 4c-23 0 -35 -10 -35 -29c0 -9 3 -17 8 -26zM129 -289l-11 -64l-224 -34l-3 1l11 64l224 34zM-109 -490l11 64l224 34l3 -1l-11 -64l-224 -34z" />
    <glyph glyph-name="uni06510670" 
d="M34 888v-169l-62 -17h-6v186h68zM59 672l47 18c12 -25 18 -48 18 -71c0 -68 -62 -92 -118 -53c-12 -17 -31 -26 -57 -26c-45 0 -73 27 -73 72c0 18 4 37 11 56l41 -10c-2 -9 -3 -17 -3 -23c0 -21 9 -31 26 -31c15 0 23 10 23 31c0 6 0 11 -1 14l43 8c3 -16 4 -28 4 -36
v-3c7 -4 16 -6 25 -6c14 0 21 9 21 26c0 11 -2 22 -7 34z" />
    <glyph glyph-name="uni0651064F" 
d="M74 852c0 -97 -52 -146 -116 -146c-24 0 -47 6 -68 18l25 56c15 -7 30 -10 43 -10c20 0 35 8 45 23h-1c-58 0 -87 23 -87 68c0 48 34 91 82 91c47 0 77 -40 77 -100zM4 845h12v4c0 24 -11 39 -24 39c-12 0 -20 -11 -20 -22c0 -14 11 -21 32 -21zM59 672l47 18
c12 -25 18 -48 18 -71c0 -68 -62 -92 -118 -53c-12 -17 -31 -26 -57 -26c-45 0 -73 27 -73 72c0 18 4 37 11 56l41 -10c-2 -9 -3 -17 -3 -23c0 -21 9 -31 26 -31c15 0 23 10 23 31c0 6 0 11 -1 14l43 8c3 -16 4 -28 4 -36v-3c7 -4 16 -6 25 -6c14 0 21 9 21 26
c0 11 -2 22 -7 34z" />
    <glyph glyph-name="uni0651064C" 
d="M-5 706c-70 0 -84 58 -112 58c-9 0 -19 -8 -31 -23l-40 32c20 32 50 56 74 56c17 0 37 -10 59 -29c22 -20 40 -30 53 -30c18 0 31 8 40 23h-5c-47 0 -81 21 -81 68c0 48 34 91 81 91s77 -40 77 -100c0 -97 -52 -146 -115 -146zM35 845c8 0 14 0 17 1v3c0 26 -8 39 -23 39
c-12 0 -21 -12 -21 -24c0 -13 9 -19 27 -19zM59 672l47 18c12 -25 18 -48 18 -71c0 -68 -62 -92 -118 -53c-12 -17 -31 -26 -57 -26c-45 0 -73 27 -73 72c0 18 4 37 11 56l41 -10c-2 -9 -3 -17 -3 -23c0 -21 9 -31 26 -31c15 0 23 10 23 31c0 6 0 11 -1 14l43 8
c3 -16 4 -28 4 -36v-3c7 -4 16 -6 25 -6c14 0 21 9 21 26c0 11 -2 22 -7 34z" />
    <glyph glyph-name="uni0651064E" 
d="M111 798l-11 -64l-224 -34l-3 1l11 64l224 34zM59 672l47 18c12 -25 18 -48 18 -71c0 -68 -62 -92 -118 -53c-12 -17 -31 -26 -57 -26c-45 0 -73 27 -73 72c0 18 4 37 11 56l41 -10c-2 -9 -3 -17 -3 -23c0 -21 9 -31 26 -31c15 0 23 10 23 31c0 6 0 11 -1 14l43 8
c3 -16 4 -28 4 -36v-3c7 -4 16 -6 25 -6c14 0 21 9 21 26c0 11 -2 22 -7 34z" />
    <glyph glyph-name="uni0651064B.1" 
d="M111 916l-11 -64l-224 -34l-3 1l11 64l224 34zM111 798l-11 -64l-224 -34l-3 1l11 64l224 34zM59 672l47 18c12 -25 18 -48 18 -71c0 -68 -62 -92 -118 -53c-12 -17 -31 -26 -57 -26c-45 0 -73 27 -73 72c0 18 4 37 11 56l41 -10c-2 -9 -3 -17 -3 -23c0 -21 9 -31 26 -31
c15 0 23 10 23 31c0 6 0 11 -1 14l43 8c3 -16 4 -28 4 -36v-3c7 -4 16 -6 25 -6c14 0 21 9 21 26c0 11 -2 22 -7 34z" />
    <glyph glyph-name="uni06510650" 
d="M-43 658c-45 0 -73 27 -73 72c0 18 4 37 11 56l41 -10c-2 -9 -3 -17 -3 -23c0 -21 9 -31 26 -31c15 0 23 10 23 31c0 6 0 11 -1 14l43 8c3 -16 4 -28 4 -36v-3c7 -4 15 -6 25 -6c14 0 21 9 21 26c0 11 -2 22 -7 34l47 18c12 -25 18 -48 18 -71c0 -68 -62 -92 -118 -53
c-12 -17 -31 -26 -57 -26zM-119 535l11 64l224 34l3 -1l-11 -64l-224 -34z" />
    <glyph glyph-name="uni0651064D" 
d="M-43 776c-45 0 -73 27 -73 72c0 18 4 37 11 56l41 -10c-2 -9 -3 -17 -3 -23c0 -21 9 -31 26 -31c15 0 23 10 23 31c0 6 0 11 -1 14l43 8c3 -16 4 -28 4 -36v-3c7 -4 15 -6 25 -6c14 0 21 9 21 26c0 11 -2 22 -7 34l47 18c12 -25 18 -48 18 -71c0 -68 -62 -92 -118 -53
c-12 -17 -31 -26 -57 -26zM-119 653l11 64l224 34l3 -1l-11 -64l-224 -34zM-119 535l11 64l224 34l3 -1l-11 -64l-224 -34z" />
    </font>
</defs>
</svg>
