<svg width="17" height="17" viewBox="0 0 17 17" fill="none" xmlns="http://www.w3.org/2000/svg">
<path d="M12.1561 11.7199L9.32739 14.5486C9.20369 14.6724 9.05679 14.7707 8.8951 14.8377C8.73341 14.9047 8.56009 14.9392 8.38506 14.9392C8.21003 14.9392 8.03671 14.9047 7.87502 14.8377C7.71333 14.7707 7.56643 14.6724 7.44273 14.5486L4.61339 11.7199C3.86754 10.9741 3.35962 10.0237 3.15385 8.98919C2.94809 7.95463 3.05372 6.88229 3.4574 5.90777C3.86107 4.93325 4.54466 4.10031 5.42171 3.51429C6.29877 2.92827 7.32991 2.61548 8.38473 2.61548C9.43955 2.61548 10.4707 2.92827 11.3477 3.51429C12.2248 4.10031 12.9084 4.93325 13.3121 5.90777C13.7157 6.88229 13.8214 7.95463 13.6156 8.98919C13.4098 10.0237 12.9019 10.9741 12.1561 11.7199V11.7199Z" stroke="white" stroke-linecap="round" stroke-linejoin="round"/>
<path d="M10.3848 7.94861C10.3848 8.47904 10.1741 8.98775 9.79898 9.36282C9.42391 9.73789 8.9152 9.94861 8.38477 9.94861C7.85433 9.94861 7.34562 9.73789 6.97055 9.36282C6.59548 8.98775 6.38477 8.47904 6.38477 7.94861C6.38477 7.41818 6.59548 6.90947 6.97055 6.53439C7.34562 6.15932 7.85433 5.94861 8.38477 5.94861C8.9152 5.94861 9.42391 6.15932 9.79898 6.53439C10.1741 6.90947 10.3848 7.41818 10.3848 7.94861V7.94861Z" stroke="white" stroke-linecap="round" stroke-linejoin="round"/>
</svg>
