<svg width="23" height="22" viewBox="0 0 23 22" fill="none" xmlns="http://www.w3.org/2000/svg">
<g clip-path="url(#clip0_148_179)">
<path d="M18.6046 15.154L14.8687 13.4943C14.4806 13.3208 14.0459 13.2806 13.6324 13.3801C13.219 13.4796 12.8502 13.7131 12.5835 14.0443L11.5069 15.3905C9.74179 14.2578 8.23925 12.7609 7.1 11.0001L8.44612 9.92347C8.77702 9.65687 9.01041 9.28828 9.10989 8.87516C9.20938 8.46204 9.16938 8.02761 8.99612 7.6396L7.34887 3.8941C7.16377 3.47703 6.83653 3.13928 6.42553 2.94108C6.01453 2.74288 5.54648 2.69713 5.10487 2.81197L1.94237 3.63697C1.48357 3.75569 1.08468 4.03947 0.822089 4.43399C0.5595 4.82851 0.451671 5.30602 0.51925 5.7751C1.10836 9.86541 3.00642 13.6549 5.9293 16.5763C8.85218 19.4977 12.6426 21.3938 16.7332 21.9808C17.202 22.0472 17.6789 21.9385 18.0725 21.6754C18.4662 21.4124 18.7492 21.0135 18.8673 20.555L19.6923 17.3925C19.807 16.951 19.7605 16.483 19.5611 16.0727C19.3618 15.6624 19.0226 15.3366 18.6046 15.154Z" fill="white"/>
<path d="M17 1.0993e-05C16.0735 -0.00167506 15.1616 0.23114 14.3493 0.676774C13.537 1.12241 12.8506 1.76637 12.3542 2.54868C11.8578 3.33099 11.5674 4.22621 11.5101 5.15096C11.4529 6.07571 11.6305 6.99992 12.0266 7.83751L11.5 11L14.6625 10.4734C15.4085 10.8256 16.2241 11.0056 17.0491 10.9999C17.874 10.9942 18.6871 10.8029 19.4281 10.4404C20.1692 10.0778 20.8191 9.55323 21.3299 8.90542C21.8407 8.25761 22.1992 7.50319 22.3789 6.69804C22.5586 5.89289 22.5549 5.05763 22.368 4.25411C22.1812 3.45059 21.8159 2.6994 21.2994 2.05618C20.7828 1.41295 20.1282 0.894167 19.384 0.53824C18.6397 0.182312 17.825 -0.00163828 17 1.0993e-05Z" fill="white"/>
</g>
<defs>
<clipPath id="clip0_148_179">
<rect width="22" height="22" fill="white" transform="translate(0.5)"/>
</clipPath>
</defs>
</svg>
