<svg width="42" height="42" viewBox="0 0 42 42" fill="none" xmlns="http://www.w3.org/2000/svg">
<path d="M5.86754 15.4577C7.00765 10.6932 10.8028 6.97296 15.6633 5.85534C19.1734 5.04822 22.8266 5.04822 26.3367 5.85534C31.1972 6.97296 34.9924 10.6932 36.1325 15.4577C36.9558 18.8986 36.9558 22.4796 36.1325 25.9205C34.9924 30.6851 31.1972 34.4053 26.3367 35.5229C22.8266 36.33 19.1734 36.33 15.6633 35.5229C10.8028 34.4053 7.00765 30.6851 5.86754 25.9205C5.04415 22.4796 5.04415 18.8986 5.86754 15.4577Z" fill="#DCDCDC" fill-opacity="0.42"/>
<path d="M5.86754 25.9205L6.59694 25.746L5.86754 25.9205ZM5.86754 15.4577L6.59694 15.6322L5.86754 15.4577ZM36.1325 15.4577L35.4031 15.6323L36.1325 15.4577ZM36.1325 25.9205L35.4031 25.746L36.1325 25.9205ZM26.3367 35.5229L26.5048 36.2538L26.3367 35.5229ZM15.6633 35.5229L15.8313 34.792L15.6633 35.5229ZM15.6633 5.85534L15.8313 6.58627L15.6633 5.85534ZM26.3367 5.85534L26.5048 5.12442L26.3367 5.85534ZM6.59694 25.746C5.80102 22.4198 5.80102 18.9584 6.59694 15.6322L5.13813 15.2832C4.28729 18.8388 4.28729 22.5394 5.13813 26.0951L6.59694 25.746ZM35.4031 15.6323C36.199 18.9584 36.199 22.4198 35.4031 25.746L36.8619 26.0951C37.7127 22.5394 37.7127 18.8388 36.8619 15.2832L35.4031 15.6323ZM26.1687 34.792C22.7691 35.5737 19.2309 35.5736 15.8313 34.792L15.4952 36.2538C19.116 37.0864 22.884 37.0864 26.5048 36.2538L26.1687 34.792ZM15.8313 6.58627C19.2309 5.80458 22.7691 5.80458 26.1687 6.58627L26.5048 5.12442C22.884 4.29186 19.116 4.29186 15.4952 5.12442L15.8313 6.58627ZM15.8313 34.792C11.242 33.7367 7.66927 30.2272 6.59694 25.746L5.13813 26.0951C6.34604 31.1429 10.3635 35.0738 15.4952 36.2538L15.8313 34.792ZM26.5048 36.2538C31.6365 35.0738 35.654 31.1429 36.8619 26.0951L35.4031 25.746C34.3307 30.2272 30.758 33.7367 26.1687 34.792L26.5048 36.2538ZM26.1687 6.58627C30.758 7.64152 34.3307 11.151 35.4031 15.6323L36.8619 15.2832C35.654 10.2353 31.6365 6.30439 26.5048 5.12442L26.1687 6.58627ZM15.4952 5.12442C10.3635 6.30439 6.34604 10.2353 5.13813 15.2832L6.59694 15.6322C7.66927 11.151 11.242 7.64152 15.8313 6.58627L15.4952 5.12442ZM25.391 36.75C25.391 34.2047 25.3926 32.3726 25.5839 30.9775C25.7721 29.6056 26.131 28.7685 26.7656 28.1464L25.7156 27.0752C24.7505 28.0212 24.3096 29.2299 24.0979 30.7737C23.8893 32.2944 23.891 34.2479 23.891 36.75H25.391ZM35.5638 25.2927C33.0101 25.2927 31.0208 25.2912 29.4731 25.4952C27.9054 25.7018 26.6785 26.1313 25.7156 27.0752L26.7656 28.1464C27.4023 27.5223 28.2624 27.1677 29.6691 26.9823C31.096 26.7943 32.9685 26.7927 35.5638 26.7927V25.2927Z" fill="white"/>
<path d="M15.75 15.75H21M15.75 21H24.5" stroke="white" stroke-width="1.5" stroke-linecap="round"/>
</svg>
