<svg width="42" height="41" viewBox="0 0 42 41" fill="none" xmlns="http://www.w3.org/2000/svg">
<path d="M33.7344 25.0055V16.6033V16.242L26.1099 8.56597C23.8313 6.27199 22.6921 5.125 21.2763 5.125C19.8606 5.125 18.7213 6.27199 16.4428 8.56597L8.81825 16.2421V16.6033V25.0055C8.81825 29.9507 12.1992 34.2453 16.9813 35.3747C19.8063 36.0418 22.7463 36.0418 25.5713 35.3747C30.3534 34.2453 33.7344 29.9507 33.7344 25.0055Z" fill="#647E9E"/>
<path d="M25.5713 35.3747L25.3989 34.6447L25.3989 34.6447L25.5713 35.3747ZM16.9813 35.3747L17.1537 34.6447L17.1537 34.6447L16.9813 35.3747ZM26.1099 8.56597L25.5778 9.09451L26.1099 8.56597ZM16.4428 8.56597L16.9749 9.09451L16.9749 9.09451L16.4428 8.56597ZM17.3773 31.2972L18.1144 31.4356L18.1144 31.4356L17.3773 31.2972ZM17.4103 31.1212L18.1475 31.2596L18.1475 31.2596L17.4103 31.1212ZM25.1423 31.1212L24.4052 31.2596L24.4052 31.2596L25.1423 31.1212ZM25.1754 31.2972L25.9125 31.1588L25.9125 31.1588L25.1754 31.2972ZM24.6801 35.1095L24.003 34.7871L24.003 34.7871L24.6801 35.1095ZM23.8034 35.2063C23.6254 35.5803 23.7842 36.0278 24.1582 36.2059C24.5322 36.3839 24.9797 36.2251 25.1578 35.8511L23.8034 35.2063ZM17.8725 35.1095L17.1954 35.4319L17.1954 35.4319L17.8725 35.1095ZM17.3949 35.8511C17.573 36.2251 18.0205 36.3839 18.3945 36.2059C18.7685 36.0278 18.9273 35.5803 18.7493 35.2063L17.3949 35.8511ZM20.1844 28.0894L19.984 27.3666L19.984 27.3666L20.1844 28.0894ZM22.3682 28.0894L22.1678 28.8121L22.1678 28.8121L22.3682 28.0894ZM5.36388 18.6555C5.07198 18.9494 5.07358 19.4243 5.36746 19.7162C5.66134 20.0081 6.13621 20.0065 6.42811 19.7126L5.36388 18.6555ZM36.1246 19.7126C36.4165 20.0065 36.8913 20.0081 37.1852 19.7162C37.4791 19.4243 37.4807 18.9494 37.1888 18.6555L36.1246 19.7126ZM32.9844 16.6033V25.0055H34.4844V16.6033H32.9844ZM9.56825 25.0055V16.6033H8.06825V25.0055H9.56825ZM25.3989 34.6447C22.6873 35.2851 19.8653 35.2851 17.1537 34.6447L16.809 36.1046C19.7473 36.7985 22.8053 36.7985 25.7437 36.1046L25.3989 34.6447ZM17.1537 34.6447C12.7132 33.5961 9.56825 29.6061 9.56825 25.0055H8.06825C8.06825 30.2953 11.6852 34.8946 16.809 36.1046L17.1537 34.6447ZM25.7437 36.1046C30.8674 34.8946 34.4844 30.2953 34.4844 25.0055H32.9844C32.9844 29.6061 29.8394 33.5961 25.3989 34.6447L25.7437 36.1046ZM26.642 8.03743C25.5177 6.90552 24.6224 6.00185 23.8264 5.39046C23.0134 4.76594 22.2157 4.375 21.2763 4.375V5.875C21.7527 5.875 22.2325 6.05756 22.9127 6.58003C23.61 7.11563 24.4235 7.93244 25.5778 9.09451L26.642 8.03743ZM16.9749 9.09451C18.1291 7.93244 18.9427 7.11563 19.64 6.58003C20.3202 6.05756 20.8 5.875 21.2763 5.875V4.375C20.337 4.375 19.5393 4.76594 18.7262 5.39046C17.9303 6.00185 17.035 6.90552 15.9106 8.03743L16.9749 9.09451ZM18.1144 31.4356L18.1475 31.2596L16.6732 30.9828L16.6402 31.1588L18.1144 31.4356ZM24.4052 31.2596L24.4383 31.4356L25.9125 31.1588L25.8795 30.9828L24.4052 31.2596ZM24.003 34.7871L23.8034 35.2063L25.1578 35.8511L25.3573 35.4319L24.003 34.7871ZM17.1954 35.4319L17.3949 35.8511L18.7493 35.2063L18.5497 34.7871L17.1954 35.4319ZM24.4383 31.4356C24.6515 32.5711 24.4989 33.7454 24.003 34.7871L25.3573 35.4319C25.9899 34.1031 26.1843 32.6061 25.9125 31.1588L24.4383 31.4356ZM16.6402 31.1588C16.3684 32.6061 16.5628 34.1031 17.1954 35.4319L18.5497 34.7871C18.0538 33.7454 17.9012 32.5711 18.1144 31.4356L16.6402 31.1588ZM20.3849 28.8121C20.9684 28.6502 21.5843 28.6502 22.1678 28.8121L22.5687 27.3666C21.7229 27.132 20.8298 27.1321 19.984 27.3666L20.3849 28.8121ZM25.8795 30.9828C25.5528 29.243 24.2701 27.8386 22.5687 27.3666L22.1678 28.8121C23.3136 29.1299 24.1833 30.0778 24.4052 31.2596L25.8795 30.9828ZM18.1475 31.2596C18.3694 30.0778 19.2391 29.1299 20.3849 28.8121L19.984 27.3666C18.2826 27.8386 16.9999 29.243 16.6732 30.9828L18.1475 31.2596ZM15.9106 8.03743L8.28613 15.7135L9.35036 16.7706L16.9749 9.09451L15.9106 8.03743ZM8.28613 15.7135L5.36388 18.6555L6.42811 19.7126L9.35036 16.7706L8.28613 15.7135ZM9.56825 16.6033V16.2421H8.06825V16.6033H9.56825ZM25.5778 9.09451L33.2023 16.7706L34.2665 15.7135L26.642 8.03743L25.5778 9.09451ZM33.2023 16.7706L36.1246 19.7126L37.1888 18.6555L34.2665 15.7135L33.2023 16.7706ZM34.4844 16.6033V16.242H32.9844V16.6033H34.4844Z" fill="white"/>
</svg>
