<svg width="173" height="82" viewBox="0 0 173 82" fill="none" xmlns="http://www.w3.org/2000/svg">
<path d="M32.4324 3.98051V-0.000488281H0V23.3152C0 27.5825 3.47122 31.0424 7.75246 31.0424H10.3104V27.0614H8.3022C5.92374 27.0614 3.99628 25.1402 3.99628 22.7695V3.98051H32.4324ZM10.3104 10.6364V15.4695L14.3045 18.8981V18.8064L22.9724 27.0614H14.3045V31.0424L31.0009 31.0334C31.5192 31.0334 31.7705 30.405 31.3958 30.0471L10.7615 10.4418C10.5909 10.2808 10.3104 10.3993 10.3104 10.6342V10.6364ZM28.4384 13.9956V23.1385C28.4384 24.2948 28.8917 25.4041 29.7017 26.2316L32.4324 29.0206V10.0124H13.8243L16.4137 12.6582C17.2506 13.5126 18.3972 13.9934 19.5932 13.9934H28.4362L28.4384 13.9956ZM32.4324 3.98275V10.0169H36.3771V3.98051H32.4324V3.98275Z" fill="white"/>
<path d="M14.3092 27.0591V18.8846L10.3174 15.465V59.0682H60.824V19.0837C60.824 14.0694 56.7447 10.0034 51.714 10.0034H32.4394V13.9822H51.3482C54.3774 13.9822 56.8299 16.4267 56.8299 19.446V55.0894H14.3092V31.0379" fill="white"/>
<path d="M14.3096 18.8845V19.4638L14.3141 18.889L14.3096 18.8845Z" fill="white"/>
<g style="mix-blend-mode:multiply">
<path d="M14.3159 18.889L14.3092 19.4638V19.5063L10.3174 17.1758V15.4626L14.3092 18.8845L14.3159 18.889Z" fill="white"/>
</g>
<path d="M14.3086 18.8848V19.464L14.3131 18.8892L14.3086 18.8848Z" fill="white"/>
<g style="mix-blend-mode:multiply" opacity="0.7">
<path d="M14.9414 27.0637L15.5831 31.0358H14.3108L14.3086 27.0637H14.9414Z" fill="white"/>
</g>
<path d="M66.5342 56.1452L69.1168 53.061C70.9052 54.5326 72.7788 55.4653 75.0496 55.4653C76.8379 55.4653 77.9149 54.7585 77.9149 53.5978V53.5418C77.9149 52.4392 77.2328 51.8734 73.9142 51.0235C69.9134 50.0059 67.3307 48.9011 67.3307 44.9693V44.9134C67.3307 41.3215 70.2253 38.9441 74.2844 38.9441C77.179 38.9441 79.6494 39.8499 81.6644 41.4624L79.3936 44.7434C77.6345 43.5267 75.9022 42.7909 74.2283 42.7909C72.5544 42.7909 71.6748 43.5558 71.6748 44.5175V44.5734C71.6748 45.8751 72.5275 46.3 75.9606 47.1767C79.9905 48.2234 82.2612 49.666 82.2612 53.1169V53.1728C82.2612 57.1046 79.2523 59.3121 74.9665 59.3121C71.9575 59.3121 68.9216 58.2654 66.5364 56.1429" fill="white"/>
<path d="M92.4464 39.0872H96.4764L104.992 59.0302H100.423L98.608 54.5885H90.2071L88.3918 59.0302H83.9355L92.4487 39.0872H92.4464ZM97.0441 50.7417L94.4053 44.3206L91.7665 50.7417H97.0441Z" fill="white"/>
<path d="M108.059 39.228H112.771L117.992 47.6016L123.213 39.228H127.926V59.0302H123.584V46.1031L117.992 54.5616H117.88L112.344 46.1881V59.0302H108.059V39.228Z" fill="white"/>
<path d="M131.816 49.1873V49.1314C131.816 43.5021 136.073 38.8904 142.176 38.8904C145.921 38.8904 148.165 40.1361 150.009 41.9455L147.227 45.1414C145.695 43.7548 144.133 42.9072 142.147 42.9072C138.797 42.9072 136.387 45.6804 136.387 49.0755V49.1314C136.387 52.5264 138.743 55.3534 142.147 55.3534C144.418 55.3534 145.809 54.4476 147.368 53.0341L150.151 55.8342C148.107 58.0126 145.836 59.3702 142.006 59.3702C136.16 59.3702 131.816 54.8725 131.816 49.1873Z" fill="white"/>
<path d="M160.456 39.0872H164.486L173 59.0302H168.431L166.616 54.5885H158.215L156.4 59.0302H151.943L160.459 39.0872H160.456ZM165.054 50.7417L162.415 44.3206L159.777 50.7417H165.054Z" fill="white"/>
<path d="M9.99219 79.0291L10.3602 78.5953C10.9077 79.0873 11.4305 79.3333 12.1575 79.3333C12.8845 79.3333 13.3243 78.9598 13.3243 78.4454V78.4298C13.3243 77.9444 13.0618 77.6693 11.9623 77.4367C10.7573 77.1751 10.2031 76.7882 10.2031 75.9293V75.9137C10.2031 75.0929 10.9301 74.489 11.9241 74.489C12.687 74.489 13.2345 74.706 13.7663 75.1309L13.4208 75.5849C12.9339 75.189 12.4469 75.0168 11.9084 75.0168C11.2263 75.0168 10.7932 75.3903 10.7932 75.86V75.8757C10.7932 76.3677 11.0625 76.645 12.2158 76.891C13.3826 77.1438 13.9234 77.5709 13.9234 78.3694V78.385C13.9234 79.2796 13.174 79.8634 12.1351 79.8634C11.3048 79.8634 10.6227 79.586 9.99443 79.0269L9.99219 79.0291Z" fill="white"/>
<path d="M14.7603 78.6713V78.6556C14.7603 77.8416 15.4335 77.4099 16.4141 77.4099C16.9077 77.4099 17.26 77.477 17.6033 77.5732V77.439C17.6033 76.7457 17.177 76.3878 16.45 76.3878C15.9945 76.3878 15.6332 76.5064 15.2742 76.6719L15.1014 76.2022C15.5277 76.0076 15.9473 75.8801 16.5083 75.8801C17.0693 75.8801 17.4731 76.021 17.7581 76.3051C18.0206 76.5667 18.1553 76.9402 18.1553 77.4323V79.7896H17.601V79.2081C17.3318 79.5592 16.883 79.8723 16.2009 79.8723C15.4829 79.8723 14.7559 79.4608 14.7559 78.6713H14.7603ZM17.6123 78.3738V78.0003C17.3273 77.9176 16.9458 77.8371 16.4746 77.8371C15.7476 77.8371 15.3437 78.1502 15.3437 78.6355V78.6512C15.3437 79.1365 15.7925 79.4205 16.3176 79.4205C17.0289 79.4205 17.6123 78.9867 17.6123 78.3761V78.3738Z" fill="white"/>
<path d="M19.3489 78.3267V75.9314H19.9256V78.1858C19.9256 78.9015 20.3138 79.3488 20.9959 79.3488C21.678 79.3488 22.156 78.8635 22.156 78.1411V75.9314H22.7259V79.7894H22.156V79.1184C21.8934 79.5367 21.4963 79.8721 20.8299 79.8721C19.8942 79.8721 19.3467 79.2459 19.3467 78.3267H19.3489Z" fill="white"/>
<path d="M23.8164 77.8705V77.8549C23.8164 76.5935 24.7364 75.8487 25.6653 75.8487C26.3834 75.8487 26.8478 76.2356 27.1485 76.6695V74.3413H27.7252V79.7895H27.1485V79.0134C26.8344 79.4764 26.3766 79.8722 25.6653 79.8722C24.7364 79.8722 23.8164 79.1409 23.8164 77.8728V77.8705ZM27.1709 77.8638V77.8482C27.1709 76.9603 26.4888 76.3631 25.7708 76.3631C25.0528 76.3631 24.4088 76.9155 24.4088 77.8482V77.8638C24.4088 78.7741 25.0371 79.3556 25.7708 79.3556C26.5045 79.3556 27.1709 78.7517 27.1709 77.8638Z" fill="white"/>
<path d="M29.0488 74.4531H29.7085V75.0883H29.0488V74.4531ZM29.087 75.9315H29.6636V79.7895H29.087V75.9315Z" fill="white"/>
<path d="M33.3887 74.565H33.9878L35.8973 77.4165L37.8068 74.565H38.4059V79.7895H37.8135V75.558L35.904 78.3559H35.8748L33.9653 75.5647V79.7872H33.3887V74.5627V74.565Z" fill="white"/>
<path d="M39.5191 78.6713V78.6556C39.5191 77.8416 40.1923 77.4099 41.1728 77.4099C41.6665 77.4099 42.0188 77.477 42.3621 77.5732V77.439C42.3621 76.7457 41.9357 76.3878 41.2087 76.3878C40.7532 76.3878 40.392 76.5064 40.033 76.6719L39.8602 76.2022C40.2865 76.0076 40.7061 75.8801 41.2671 75.8801C41.828 75.8801 42.2319 76.021 42.5169 76.3051C42.7794 76.5667 42.9141 76.9402 42.9141 77.4323V79.7896H42.3598V79.2081C42.0906 79.5592 41.6418 79.8723 40.9597 79.8723C40.2416 79.8723 39.5146 79.4608 39.5146 78.6713H39.5191ZM42.3711 78.3738V78.0003C42.0861 77.9176 41.7046 77.8371 41.2334 77.8371C40.5064 77.8371 40.1025 78.1502 40.1025 78.6355V78.6512C40.1025 79.1365 40.5513 79.4205 41.0764 79.4205C41.7877 79.4205 42.3711 78.9867 42.3711 78.3761V78.3738Z" fill="white"/>
<path d="M44.168 75.9314H44.7446V76.6023C44.9982 76.1841 45.4043 75.8486 46.0707 75.8486C47.0064 75.8486 47.5539 76.4749 47.5539 77.3941V79.7894H46.9773V77.535C46.9773 76.8193 46.5891 76.3697 45.9069 76.3697C45.2248 76.3697 44.7469 76.8551 44.7469 77.5797V79.7894H44.1702V75.9314H44.168Z" fill="white"/>
<path d="M48.5103 78.6713V78.6556C48.5103 77.8416 49.1835 77.4099 50.1641 77.4099C50.6577 77.4099 51.01 77.477 51.3533 77.5732V77.439C51.3533 76.7457 50.927 76.3878 50.2 76.3878C49.7445 76.3878 49.3832 76.5064 49.0242 76.6719L48.8514 76.2022C49.2777 76.0076 49.6973 75.8801 50.2583 75.8801C50.8193 75.8801 51.2232 76.021 51.5081 76.3051C51.7706 76.5667 51.9053 76.9402 51.9053 77.4323V79.7896H51.351V79.2081C51.0818 79.5592 50.633 79.8723 49.9509 79.8723C49.2329 79.8723 48.5059 79.4608 48.5059 78.6713H48.5103ZM51.3623 78.3738V78.0003C51.0773 77.9176 50.6958 77.8371 50.2246 77.8371C49.4976 77.8371 49.0937 78.1502 49.0937 78.6355V78.6512C49.0937 79.1365 49.5425 79.4205 50.0676 79.4205C50.7789 79.4205 51.3623 78.9867 51.3623 78.3761V78.3738Z" fill="white"/>
<path d="M53.1121 80.4605L53.3747 80.0132C53.8167 80.3353 54.3103 80.5053 54.8646 80.5053C55.7172 80.5053 56.2715 80.0356 56.2715 79.1321V78.678C55.9349 79.1253 55.4637 79.4921 54.7524 79.4921C53.8234 79.4921 52.9326 78.7988 52.9326 77.6873V77.6716C52.9326 76.5444 53.8302 75.8511 54.7524 75.8511C55.4794 75.8511 55.9506 76.2089 56.2647 76.6271V75.9338H56.8414V79.1209C56.8414 79.718 56.6619 80.1743 56.3477 80.4874C56.0022 80.8318 55.4861 81.0018 54.8735 81.0018C54.2296 81.0018 53.6305 80.8229 53.1144 80.465L53.1121 80.4605ZM56.2872 77.6761V77.6604C56.2872 76.8687 55.5983 76.3543 54.8646 76.3543C54.1308 76.3543 53.525 76.862 53.525 77.6537V77.6694C53.525 78.4454 54.1465 78.9822 54.8646 78.9822C55.5826 78.9822 56.2872 78.4521 56.2872 77.6761Z" fill="white"/>
<path d="M57.9114 77.8704V77.8548C57.9114 76.7432 58.6968 75.8486 59.7671 75.8486C60.9137 75.8486 61.5711 76.7589 61.5711 77.8861C61.5711 77.9599 61.5711 78.0046 61.5644 78.0717H58.4948C58.5778 78.9082 59.168 79.3779 59.8568 79.3779C60.3886 79.3779 60.7633 79.1609 61.0775 78.8321L61.4365 79.1542C61.0483 79.5859 60.5749 79.8788 59.8411 79.8788C58.7775 79.8788 57.9092 79.0647 57.9092 77.8704H57.9114ZM60.9877 77.6468C60.9271 76.9445 60.5233 76.334 59.7514 76.334C59.0782 76.334 58.5689 76.8931 58.4948 77.6468H60.9877Z" fill="white"/>
<path d="M62.6035 75.9314H63.1802V76.58C63.4337 76.1998 63.7793 75.8486 64.43 75.8486C65.0807 75.8486 65.4622 76.1841 65.6731 76.618C65.9491 76.1931 66.3619 75.8486 67.0351 75.8486C67.9259 75.8486 68.4734 76.4458 68.4734 77.4008V79.7894H67.8967V77.535C67.8967 76.788 67.522 76.3697 66.8937 76.3697C66.3103 76.3697 65.8234 76.8036 65.8234 77.564V79.7871H65.2535V77.5193C65.2535 76.7947 64.872 76.3697 64.2572 76.3697C63.6424 76.3697 63.1802 76.8774 63.1802 77.5864V79.7871H62.6035V75.9291V75.9314Z" fill="white"/>
<path d="M69.4834 77.8704V77.8548C69.4834 76.7432 70.2687 75.8486 71.3413 75.8486C72.4857 75.8486 73.1453 76.7589 73.1453 77.8861C73.1453 77.9599 73.1453 78.0046 73.1386 78.0717H70.069C70.1521 78.9082 70.7422 79.3779 71.431 79.3779C71.9628 79.3779 72.3376 79.1609 72.6517 78.8321L73.0107 79.1542C72.6203 79.5859 72.1491 79.8788 71.4153 79.8788C70.3518 79.8788 69.4834 79.0647 69.4834 77.8704ZM72.5597 77.6468C72.4991 76.9445 72.0952 76.334 71.3233 76.334C70.6502 76.334 70.1408 76.8931 70.0646 77.6468H72.5575H72.5597Z" fill="white"/>
<path d="M74.1748 75.9314H74.7515V76.6023C75.005 76.1841 75.4112 75.8486 76.0776 75.8486C77.0133 75.8486 77.5608 76.4749 77.5608 77.3941V79.7894H76.9841V77.535C76.9841 76.8193 76.5959 76.3697 75.9138 76.3697C75.2317 76.3697 74.7537 76.8551 74.7537 77.5797V79.7894H74.177V75.9314H74.1748Z" fill="white"/>
<path d="M79.0102 78.7675V76.4393H78.4717V75.9316H79.0102V74.7664H79.5869V75.9316H80.8142V76.4393H79.5869V78.6937C79.5869 79.1634 79.8494 79.3356 80.2376 79.3356C80.4328 79.3356 80.5966 79.2975 80.7985 79.2014V79.6934C80.5966 79.7985 80.3789 79.8567 80.1029 79.8567C79.4814 79.8567 79.0102 79.5503 79.0102 78.7675Z" fill="white"/>
<path d="M83.9873 77.193V77.1773C83.9873 75.699 85.0958 74.4756 86.6373 74.4756C87.5887 74.4756 88.1564 74.8111 88.6814 75.3031L88.2775 75.737C87.8355 75.3188 87.3418 75.0213 86.6305 75.0213C85.4705 75.0213 84.6021 75.9606 84.6021 77.1639V77.1795C84.6021 78.3873 85.4772 79.3355 86.6305 79.3355C87.3486 79.3355 87.8198 79.0582 88.3224 78.5818L88.7128 78.962C88.1676 79.5145 87.5685 79.879 86.6171 79.879C85.1047 79.879 83.9896 78.6914 83.9896 77.193H83.9873Z" fill="white"/>
<path d="M89.3838 77.8794V77.8637C89.3838 76.7745 90.2364 75.8486 91.4055 75.8486C92.5745 75.8486 93.4205 76.7589 93.4205 77.8481V77.8637C93.4205 78.9529 92.5588 79.8788 91.392 79.8788C90.2252 79.8788 89.386 78.9686 89.386 77.8794H89.3838ZM92.8281 77.8794V77.8637C92.8281 77.0362 92.2065 76.3563 91.3898 76.3563C90.573 76.3563 89.9739 77.0362 89.9739 77.8481V77.8637C89.9739 78.6912 90.5887 79.3644 91.4032 79.3644C92.2178 79.3644 92.8258 78.6935 92.8258 77.8794H92.8281Z" fill="white"/>
<path d="M94.4814 75.9314H95.0581V76.6023C95.3117 76.1841 95.7178 75.8486 96.3842 75.8486C97.3199 75.8486 97.8674 76.4749 97.8674 77.3941V79.7894H97.2907V77.535C97.2907 76.8193 96.9025 76.3697 96.2204 76.3697C95.5383 76.3697 95.0604 76.8551 95.0604 77.5797V79.7894H94.4837V75.9314H94.4814Z" fill="white"/>
<path d="M98.7939 79.2973L99.0856 78.8881C99.5052 79.2012 99.9697 79.3801 100.425 79.3801C100.881 79.3801 101.226 79.1408 101.226 78.7673V78.7516C101.226 78.3647 100.771 78.2149 100.261 78.0717C99.6556 77.8995 98.9824 77.6915 98.9824 76.9826V76.9669C98.9824 76.3027 99.5367 75.8621 100.3 75.8621C100.771 75.8621 101.296 76.0253 101.693 76.287L101.43 76.7186C101.071 76.4883 100.659 76.3451 100.284 76.3451C99.8284 76.3451 99.5344 76.5845 99.5344 76.9043V76.9199C99.5344 77.2867 100.015 77.4276 100.531 77.5842C101.13 77.7631 101.774 77.9935 101.774 78.689V78.7047C101.774 79.436 101.168 79.861 100.396 79.861C99.8418 79.861 99.2293 79.644 98.7939 79.2929V79.2973Z" fill="white"/>
<path d="M102.806 78.3267V75.9314H103.383V78.1858C103.383 78.9015 103.771 79.3488 104.453 79.3488C105.135 79.3488 105.613 78.8635 105.613 78.1411V75.9314H106.183V79.7894H105.613V79.1184C105.35 79.5367 104.953 79.8721 104.287 79.8721C103.351 79.8721 102.804 79.2459 102.804 78.3267H102.806Z" fill="white"/>
<path d="M107.55 74.3413H108.126V79.7895H107.55V74.3413Z" fill="white"/>
<path d="M109.691 78.7675V76.4393H109.152V75.9316H109.691V74.7664H110.268V75.9316H111.495V76.4393H110.268V78.6937C110.268 79.1634 110.53 79.3356 110.918 79.3356C111.113 79.3356 111.277 79.2975 111.479 79.2014V79.6934C111.277 79.7985 111.06 79.8567 110.784 79.8567C110.162 79.8567 109.691 79.5503 109.691 78.7675Z" fill="white"/>
<path d="M112.244 78.6713V78.6556C112.244 77.8416 112.917 77.4099 113.897 77.4099C114.391 77.4099 114.743 77.477 115.087 77.5732V77.439C115.087 76.7457 114.66 76.3878 113.933 76.3878C113.476 76.3878 113.117 76.5064 112.758 76.6719L112.585 76.2022C113.011 76.0076 113.431 75.8801 113.992 75.8801C114.553 75.8801 114.957 76.021 115.242 76.3051C115.504 76.5667 115.639 76.9402 115.639 77.4323V79.7896H115.084V79.2081C114.815 79.5592 114.366 79.8723 113.684 79.8723C112.966 79.8723 112.239 79.4608 112.239 78.6713H112.244ZM115.096 78.3738V78.0003C114.811 77.9176 114.429 77.8371 113.958 77.8371C113.233 77.8371 112.827 78.1502 112.827 78.6355V78.6512C112.827 79.1365 113.276 79.4205 113.801 79.4205C114.512 79.4205 115.096 78.9867 115.096 78.3761V78.3738Z" fill="white"/>
<path d="M116.891 75.9314H117.467V76.6023C117.721 76.1841 118.127 75.8486 118.793 75.8486C119.729 75.8486 120.277 76.4749 120.277 77.3941V79.7894H119.7V77.535C119.7 76.8193 119.312 76.3697 118.63 76.3697C117.947 76.3697 117.47 76.8551 117.47 77.5797V79.7894H116.893V75.9314H116.891Z" fill="white"/>
<path d="M121.726 78.7675V76.4393H121.188V75.9316H121.726V74.7664H122.303V75.9316H123.53V76.4393H122.303V78.6937C122.303 79.1634 122.565 79.3356 122.953 79.3356C123.149 79.3356 123.312 79.2975 123.514 79.2014V79.6934C123.312 79.7985 123.095 79.8567 122.819 79.8567C122.197 79.8567 121.726 79.5503 121.726 78.7675Z" fill="white"/>
<path d="M124.248 79.2973L124.54 78.8881C124.959 79.2012 125.424 79.3801 125.879 79.3801C126.335 79.3801 126.68 79.1408 126.68 78.7673V78.7516C126.68 78.3647 126.225 78.2149 125.716 78.0717C125.11 77.8995 124.434 77.6915 124.434 76.9826V76.9669C124.434 76.3027 124.989 75.8621 125.751 75.8621C126.223 75.8621 126.748 76.0253 127.145 76.287L126.882 76.7186C126.523 76.4883 126.11 76.3451 125.738 76.3451C125.28 76.3451 124.989 76.5845 124.989 76.9043V76.9199C124.989 77.2867 125.469 77.4276 125.985 77.5842C126.584 77.7631 127.228 77.9935 127.228 78.689V78.7047C127.228 79.436 126.622 79.861 125.85 79.861C125.296 79.861 124.681 79.644 124.248 79.2929V79.2973Z" fill="white"/>
<path d="M132.625 74.5291H133.179L135.567 79.7893H134.929L134.315 78.4094H131.463L130.841 79.7893H130.235L132.623 74.5291H132.625ZM134.086 77.8794L132.897 75.2157L131.698 77.8794H134.086Z" fill="white"/>
<path d="M136.204 79.2973L136.496 78.8881C136.915 79.2012 137.38 79.3801 137.835 79.3801C138.291 79.3801 138.636 79.1408 138.636 78.7673V78.7516C138.636 78.3647 138.181 78.2149 137.672 78.0717C137.066 77.8995 136.39 77.6915 136.39 76.9826V76.9669C136.39 76.3027 136.945 75.8621 137.707 75.8621C138.179 75.8621 138.704 76.0253 139.101 76.287L138.838 76.7186C138.479 76.4883 138.066 76.3451 137.694 76.3451C137.236 76.3451 136.945 76.5845 136.945 76.9043V76.9199C136.945 77.2867 137.425 77.4276 137.941 77.5842C138.54 77.7631 139.184 77.9935 139.184 78.689V78.7047C139.184 79.436 138.578 79.861 137.806 79.861C137.252 79.861 136.637 79.644 136.204 79.2929V79.2973Z" fill="white"/>
<path d="M139.879 79.2973L140.171 78.8881C140.59 79.2012 141.055 79.3801 141.51 79.3801C141.966 79.3801 142.311 79.1408 142.311 78.7673V78.7516C142.311 78.3647 141.856 78.2149 141.346 78.0717C140.741 77.8995 140.067 77.6915 140.067 76.9826V76.9669C140.067 76.3027 140.622 75.8621 141.385 75.8621C141.856 75.8621 142.381 76.0253 142.778 76.287L142.515 76.7186C142.156 76.4883 141.744 76.3451 141.369 76.3451C140.913 76.3451 140.619 76.5845 140.619 76.9043V76.9199C140.619 77.2867 141.1 77.4276 141.616 77.5842C142.215 77.7631 142.859 77.9935 142.859 78.689V78.7047C142.859 79.436 142.253 79.861 141.481 79.861C140.927 79.861 140.314 79.644 139.879 79.2929V79.2973Z" fill="white"/>
<path d="M143.709 77.8794V77.8637C143.709 76.7745 144.562 75.8486 145.731 75.8486C146.9 75.8486 147.746 76.7589 147.746 77.8481V77.8637C147.746 78.9529 146.884 79.8788 145.717 79.8788C144.55 79.8788 143.711 78.9686 143.711 77.8794H143.709ZM147.153 77.8794V77.8637C147.153 77.0362 146.532 76.3563 145.715 76.3563C144.898 76.3563 144.299 77.0362 144.299 77.8481V77.8637C144.299 78.6912 144.914 79.3644 145.728 79.3644C146.543 79.3644 147.151 78.6935 147.151 77.8794H147.153Z" fill="white"/>
<path d="M148.567 77.8794V77.8637C148.567 76.7745 149.42 75.8486 150.551 75.8486C151.285 75.8486 151.74 76.155 152.101 76.5352L151.72 76.9378C151.413 76.6158 151.069 76.3563 150.544 76.3563C149.759 76.3563 149.16 77.0206 149.16 77.8481V77.8637C149.16 78.7002 149.775 79.3644 150.582 79.3644C151.076 79.3644 151.457 79.1184 151.765 78.7897L152.133 79.1318C151.742 79.5657 151.28 79.8788 150.553 79.8788C149.422 79.8788 148.57 78.9619 148.57 77.8794H148.567Z" fill="white"/>
<path d="M153.118 74.4531H153.778V75.0883H153.118V74.4531ZM153.156 75.9315H153.733V79.7895H153.156V75.9315Z" fill="white"/>
<path d="M154.803 78.6713V78.6556C154.803 77.8416 155.476 77.4099 156.457 77.4099C156.951 77.4099 157.303 77.477 157.646 77.5732V77.439C157.646 76.7457 157.22 76.3878 156.493 76.3878C156.035 76.3878 155.676 76.5064 155.317 76.6719L155.144 76.2022C155.571 76.0076 155.99 75.8801 156.551 75.8801C157.112 75.8801 157.516 76.021 157.801 76.3051C158.064 76.5667 158.198 76.9402 158.198 77.4323V79.7896H157.644V79.2081C157.375 79.5592 156.926 79.8723 156.244 79.8723C155.526 79.8723 154.799 79.4608 154.799 78.6713H154.803ZM157.655 78.3738V78.0003C157.37 77.9176 156.989 77.8371 156.518 77.8371C155.793 77.8371 155.387 78.1502 155.387 78.6355V78.6512C155.387 79.1365 155.835 79.4205 156.361 79.4205C157.072 79.4205 157.655 78.9867 157.655 78.3761V78.3738Z" fill="white"/>
<path d="M159.616 78.7675V76.4393H159.077V75.9316H159.616V74.7664H160.192V75.9316H161.42V76.4393H160.192V78.6937C160.192 79.1634 160.455 79.3356 160.843 79.3356C161.038 79.3356 161.202 79.2975 161.404 79.2014V79.6934C161.202 79.7985 160.984 79.8567 160.708 79.8567C160.087 79.8567 159.616 79.5503 159.616 78.7675Z" fill="white"/>
<path d="M162.475 74.4531H163.134V75.0883H162.475V74.4531ZM162.513 75.9315H163.089V79.7895H162.513V75.9315Z" fill="white"/>
<path d="M164.211 77.8794V77.8637C164.211 76.7745 165.064 75.8486 166.233 75.8486C167.402 75.8486 168.248 76.7589 168.248 77.8481V77.8637C168.248 78.9529 167.386 79.8788 166.219 79.8788C165.052 79.8788 164.213 78.9686 164.213 77.8794H164.211ZM167.655 77.8794V77.8637C167.655 77.0362 167.034 76.3563 166.217 76.3563C165.4 76.3563 164.801 77.0362 164.801 77.8481V77.8637C164.801 78.6912 165.416 79.3644 166.23 79.3644C167.045 79.3644 167.653 78.6935 167.653 77.8794H167.655Z" fill="white"/>
<path d="M169.31 75.9314H169.886V76.6023C170.14 76.1841 170.546 75.8486 171.21 75.8486C172.146 75.8486 172.693 76.4749 172.693 77.3941V79.7894H172.117V77.535C172.117 76.8193 171.726 76.3697 171.046 76.3697C170.366 76.3697 169.886 76.8551 169.886 77.5797V79.7894H169.31V75.9314Z" fill="white"/>
<path d="M14.2125 67.1375H14.6523V69.1437C14.668 69.8168 15.0113 70.3447 15.7675 70.3447H16.0929V70.7584H15.8393C15.2694 70.7584 14.7959 70.4252 14.6007 70.0673C14.3898 71.3421 13.5506 72.163 12.2783 72.163C10.8602 72.163 9.94922 71.0514 9.94922 69.3852C9.94922 69.0027 10.03 68.5733 10.1287 68.2647H10.6336C10.4877 68.6225 10.4137 69.0363 10.4137 69.3852C10.4137 70.6354 11.0891 71.7156 12.2783 71.7156C13.5326 71.7156 14.208 70.6354 14.208 69.3852V67.1353L14.2125 67.1375ZM12.5835 68.5264H12.0696V67.9739H12.5835V68.5264Z" fill="white"/>
<path d="M16.0303 70.7607V70.3469H16.6989C17.3025 70.3469 17.6683 69.9891 17.6683 69.3472V67.3992H18.1081V69.1459C18.1238 69.8191 18.4671 70.3469 19.2165 70.3469H19.5509V70.7607H19.2906C18.6623 70.7607 18.1664 70.3536 18.0026 69.9577C17.8635 70.3648 17.5471 70.7607 16.8134 70.7607H16.0325H16.0303ZM17.0243 72.1741H16.5105V71.6217H17.0243V72.1741ZM18.1395 72.1741H17.6256V71.6217H18.1395V72.1741Z" fill="white"/>
<path d="M19.5078 70.7606V70.3468H20.2079C20.8115 70.3468 21.1772 69.989 21.1772 69.3471V67.1396H21.617V69.2822C21.617 69.7049 21.5183 70.7606 20.3223 70.7606H19.5078ZM20.0284 72.174H19.5145V71.6216H20.0284V72.174ZM21.1436 72.174H20.6297V71.6216H21.1436V72.174Z" fill="white"/>
<path d="M25.0079 68.3227C24.9586 67.7211 24.6736 67.5355 24.1597 67.5355C23.6953 67.5355 23.3116 67.6741 23.2555 68.1684H22.782C22.8965 67.4125 23.4574 67.1284 24.1597 67.1284C24.9743 67.1284 25.4634 67.5019 25.4634 68.3384V70.7583H22.6855V70.3445H25.0079V68.3227Z" fill="white"/>
<path d="M29.7419 70.7606V70.7695C29.7419 71.7111 29.0822 72.2076 28.252 72.1584C27.9177 72.1338 27.5362 71.9951 27.4464 71.9392C27.4464 71.9392 27.4218 71.7357 27.3971 71.5322C27.7314 71.7178 28.0007 71.7357 28.2026 71.7424C28.8623 71.767 29.2931 71.3846 29.3021 70.7606H28.3417C27.2984 70.7606 26.5332 69.9823 26.5332 69.0071C26.5332 68.032 27.2265 67.1396 28.3417 67.1396H29.7419V70.3468H30.9401V70.7606H29.7419ZM29.3021 70.3468V67.5467H28.3417C27.5025 67.5467 27.0224 68.3183 27.0224 68.9356C27.0224 69.6334 27.5025 70.349 28.3417 70.349H29.3021V70.3468Z" fill="white"/>
<path d="M32.3562 70.7607H30.873V70.3469H32.3562V70.7607Z" fill="white"/>
<path d="M33.7742 70.7607H32.291V70.3469H33.7742V70.7607Z" fill="white"/>
<path d="M35.1922 70.7607H33.709V70.3469H35.1922V70.7607Z" fill="white"/>
<path d="M36.6101 70.7607H35.127V70.3469H36.6101V70.7607Z" fill="white"/>
<path d="M38.0261 70.7607H36.543V70.3469H38.0261V70.7607Z" fill="white"/>
<path d="M42.4419 68.5846C42.1479 69.1034 41.6431 69.7789 40.9587 70.2575C41.1292 70.3134 41.3087 70.3469 41.5129 70.3469H43.1824V70.7607H41.6498C41.2594 70.7607 40.8914 70.6556 40.566 70.4923C40.2407 70.6556 39.8817 70.7607 39.4912 70.7607H37.9609V70.3469H39.6304C39.8256 70.3469 40.0051 70.3156 40.1846 70.2575C39.4912 69.7789 38.9864 69.1034 38.7014 68.5846C38.9617 67.1465 39.9243 66.9609 40.566 66.9519C41.2167 66.9609 42.1794 67.1465 42.4396 68.5846H42.4419ZM40.5683 70.0875C41.4075 69.6156 41.8877 68.6919 41.9527 68.4884C41.7171 67.4015 40.7949 67.3187 40.5683 67.3187C40.3417 67.3187 39.4284 67.3992 39.1906 68.4884C39.2556 68.6919 39.7291 69.6178 40.5683 70.0875Z" fill="white"/>
<path d="M44.6033 70.7607H43.1201V70.3469H44.6033V70.7607Z" fill="white"/>
<path d="M46.0193 70.7607H44.5361V70.3469H46.0193V70.7607Z" fill="white"/>
<path d="M47.4373 70.7607H45.9541V70.3469H47.4373V70.7607Z" fill="white"/>
<path d="M47.3721 70.7605V70.3467H48.1058C48.7094 70.3467 49.0751 69.9889 49.0751 69.347V67.399H49.5149V69.186C49.5149 69.8435 49.8403 70.4451 50.5651 70.4451C51.1686 70.4451 51.5344 70.0716 51.5344 69.4387V67.4012H51.9742V69.1882C51.9742 69.8458 52.2995 70.4474 53.0243 70.4474C53.6279 70.4474 53.9936 70.0739 53.9936 69.4409V67.144H54.4334V69.3045C54.5075 69.8659 54.7835 70.3512 55.4836 70.3512H55.8987V70.765H55.5486C54.9854 70.765 54.5052 70.3512 54.3684 70.0739L54.3369 70.0247C54.1978 70.4384 53.8882 70.8522 53.1387 70.8522C52.5688 70.8522 52.1447 70.4787 51.8687 70.0493C51.7139 70.5279 51.2584 70.8522 50.6795 70.8522C50.1993 70.8522 49.7842 70.642 49.5306 70.1857C49.4813 70.1209 49.4409 70.047 49.4005 69.9755C49.2614 70.3736 48.945 70.7627 48.2202 70.7627H47.3721V70.7605Z" fill="white"/>
<path d="M55.8604 70.7607V70.3469H56.5604C57.164 70.3469 57.5298 69.9891 57.5298 69.3472V65.4915H57.9696V69.2846C57.9696 69.7073 57.8708 70.7629 56.6749 70.7629H55.8604V70.7607Z" fill="white"/>
<path d="M59.6253 70.7607H59.1855V65.4915H59.6253V70.7607Z" fill="white"/>
<path d="M66.4557 67.1375H66.8955V69.1437C66.9112 69.8168 67.2545 70.3447 68.0107 70.3447H68.336V70.7584H68.0825C67.5125 70.7584 67.0391 70.4252 66.8439 70.0673C66.6329 71.3421 65.7937 72.163 64.5215 72.163C63.1034 72.163 62.1924 71.0514 62.1924 69.3852C62.1924 69.0027 62.2732 68.5733 62.3719 68.2647H62.8768C62.7309 68.6225 62.6569 69.0363 62.6569 69.3852C62.6569 70.6354 63.3322 71.7156 64.5215 71.7156C65.7758 71.7156 66.4512 70.6354 66.4512 69.3852V67.1353L66.4557 67.1375ZM64.8266 68.5264H64.3128V67.9739H64.8266V68.5264Z" fill="white"/>
<path d="M68.2734 70.7607V70.3469H68.9421C69.5457 70.3469 69.9114 69.9891 69.9114 69.3472V67.3992H70.3512V69.1459C70.3669 69.8191 70.7102 70.3469 71.4597 70.3469H71.794V70.7607H71.5337C70.9055 70.7607 70.4096 70.3536 70.2458 69.9577C70.1067 70.3648 69.7903 70.7607 69.0565 70.7607H68.2734ZM69.2675 72.1741H68.7536V71.6217H69.2675V72.1741ZM70.3827 72.1741H69.8688V71.6217H70.3827V72.1741Z" fill="white"/>
<path d="M71.751 70.7606V70.3468H72.4511C73.0547 70.3468 73.4204 69.989 73.4204 69.3471V67.1396H73.8602V69.2822C73.8602 69.7049 73.7615 70.7606 72.5655 70.7606H71.751ZM72.2715 72.174H71.7577V71.6216H72.2715V72.174ZM73.3867 72.174H72.8729V71.6216H73.3867V72.174Z" fill="white"/>
<path d="M76.279 67.1375H76.7188V70.7674C76.7188 71.5233 76.0681 72.163 75.2289 72.1562C74.8946 72.1562 74.5109 71.993 74.4234 71.9371C74.4234 71.9371 74.3987 71.7335 74.374 71.53C74.7084 71.7156 75.0584 71.7402 75.1796 71.7402C75.7495 71.7402 76.2072 71.3914 76.279 70.7651V67.1353V67.1375Z" fill="white"/>
<path d="M78.3343 70.7607H77.8945V65.4915H78.3343V70.7607Z" fill="white"/>
<path d="M81.6827 68.3227C81.6334 67.7211 81.3484 67.5355 80.8346 67.5355C80.3701 67.5355 79.9864 67.6741 79.9303 68.1684H79.4568C79.5713 67.4125 80.1322 67.1284 80.8346 67.1284C81.6491 67.1284 82.1382 67.5019 82.1382 68.3384V70.7583H79.3604V70.3445H81.6827V68.3227Z" fill="white"/>
<path d="M82.6855 72.3106L82.7843 72.0512H82.9885V71.7739C82.9885 71.4496 83.1433 71.1476 83.509 71.1476C83.785 71.1476 83.9892 71.3825 84.0072 71.6509H83.7289C83.72 71.5122 83.6639 71.3914 83.5001 71.3914C83.3116 71.3914 83.2488 71.5793 83.2488 71.7739V72.0512H83.6885C83.72 72.0512 83.8187 72.0512 83.868 71.9617L84.0565 72.1317C83.9421 72.286 83.803 72.3106 83.6661 72.3106H82.6878H82.6855ZM84.1351 70.7607C85.34 70.7607 85.4387 69.7051 85.4387 69.2824V65.4893H84.9989V69.345C84.9989 69.8169 84.7948 70.1323 84.4537 70.2709L83.3138 65.619H82.874L84.0386 70.3447H83.233L83.0131 70.7585H84.1373L84.1351 70.7607Z" fill="white"/>
<path d="M87.0521 70.7607H86.6123V65.4915H87.0521V70.7607Z" fill="white"/>
<path d="M93.8805 67.1375H94.3203V69.1437C94.336 69.8168 94.6793 70.3447 95.4355 70.3447H95.7608V70.7584H95.5073C94.9373 70.7584 94.4639 70.4252 94.2687 70.0673C94.0577 71.3421 93.2185 72.163 91.9463 72.163C90.5282 72.163 89.6172 71.0514 89.6172 69.3852C89.6172 69.0027 89.698 68.5733 89.7967 68.2647H90.3016C90.1557 68.6225 90.0817 69.0363 90.0817 69.3852C90.0817 70.6354 90.7571 71.7156 91.9463 71.7156C93.2006 71.7156 93.876 70.6354 93.876 69.3852V67.1353L93.8805 67.1375ZM92.2515 68.5264H91.7376V67.9739H92.2515V68.5264Z" fill="white"/>
<path d="M95.6973 70.7607V70.3469H96.3659C96.9695 70.3469 97.3353 69.9891 97.3353 69.3472V67.3992H97.7751V69.1459C97.7908 69.8191 98.1341 70.3469 98.8835 70.3469H99.2178V70.7607H98.9576C98.3293 70.7607 97.8334 70.3536 97.6696 69.9577C97.5305 70.3648 97.2141 70.7607 96.4804 70.7607H95.6995H95.6973ZM96.6913 72.1741H96.1775V71.6217H96.6913V72.1741ZM97.8065 72.1741H97.2926V71.6217H97.8065V72.1741Z" fill="white"/>
<path d="M99.1777 70.7606V70.3468H99.8778C100.481 70.3468 100.847 69.989 100.847 69.3471V67.1396H101.287V69.2822C101.287 69.7049 101.188 70.7606 99.9922 70.7606H99.1777ZM99.6983 72.174H99.1845V71.6216H99.6983V72.174ZM100.813 72.174H100.3V71.6216H100.813V72.174Z" fill="white"/>
<path d="M103.706 67.1375H104.146V70.7674C104.146 71.5233 103.495 72.163 102.656 72.1562C102.321 72.1562 101.938 71.993 101.85 71.9371C101.85 71.9371 101.825 71.7335 101.801 71.53C102.135 71.7156 102.485 71.7402 102.606 71.7402C103.176 71.7402 103.634 71.3914 103.706 70.7651V67.1353V67.1375Z" fill="white"/>
<path d="M106.616 70.7607C105.418 70.7607 105.321 69.7051 105.321 69.2824V65.4893H105.761V69.345C105.761 69.9869 106.127 70.3447 106.721 70.3447H107.112V70.7585H106.614L106.616 70.7607Z" fill="white"/>
<path d="M108.53 70.7607H107.047V70.3469H108.53V70.7607Z" fill="white"/>
<path d="M109.948 70.7607H108.465V70.3469H109.948V70.7607Z" fill="white"/>
<path d="M111.364 70.7607H109.881V70.3469H111.364V70.7607Z" fill="white"/>
<path d="M111.299 70.7606V70.3469H112.033C112.636 70.3469 113.002 69.989 113.002 69.3471V67.3991H113.442V69.1861C113.442 69.8436 113.767 70.4453 114.492 70.4453C115.096 70.4453 115.461 70.0718 115.461 69.4388V67.4014H115.901V69.1883C115.901 69.8459 116.227 70.4475 116.951 70.4475C117.555 70.4475 117.921 70.074 117.921 69.4411V67.1442H118.36V69.3046C118.435 69.866 118.711 70.3513 119.411 70.3513H119.826V70.7651H119.476C118.915 70.7651 118.432 70.3513 118.295 70.074L118.262 70.0248C118.123 70.4386 117.813 70.8523 117.064 70.8523C116.494 70.8523 116.07 70.4788 115.794 70.0494C115.639 70.528 115.183 70.8523 114.604 70.8523C114.124 70.8523 113.709 70.6421 113.455 70.1858C113.406 70.121 113.366 70.0472 113.325 69.9756C113.186 70.3737 112.87 70.7628 112.145 70.7628H111.297L111.299 70.7606ZM115.381 66.0349H114.867V65.4914H115.381V66.0349ZM115.935 65.1335H115.439V64.6057H115.935V65.1335ZM116.505 66.0349H115.991V65.4914H116.505V66.0349Z" fill="white"/>
<path d="M119.756 70.7607V70.3469H120.425C121.028 70.3469 121.394 69.9891 121.394 69.3472V67.3992H121.834V69.1459C121.849 69.8191 122.193 70.3469 122.942 70.3469H123.276V70.7607H123.016C122.388 70.7607 121.892 70.3536 121.728 69.9578C121.589 70.3648 121.273 70.7607 120.539 70.7607H119.758H119.756ZM120.741 66.2944H120.227V65.7419H120.741V66.2944ZM121.856 66.2944H121.342V65.7419H121.856V66.2944Z" fill="white"/>
<path d="M124.685 70.7607H123.202V70.3469H124.685V70.7607Z" fill="white"/>
<path d="M126.104 70.7607H124.621V70.3469H126.104V70.7607Z" fill="white"/>
<path d="M127.522 70.7607H126.039V70.3469H127.522V70.7607Z" fill="white"/>
<path d="M128.938 70.7607H127.455V70.3469H128.938V70.7607Z" fill="white"/>
<path d="M128.906 70.7605V70.3467H129.606C130.21 70.3467 130.576 69.9889 130.576 69.347V67.399H131.015V69.186C131.015 69.8435 131.341 70.4451 132.066 70.4451C132.669 70.4451 133.035 70.0716 133.035 69.4387V67.4012H133.475V69.1882C133.475 69.8458 133.8 70.4474 134.525 70.4474C135.128 70.4474 135.494 70.0739 135.494 69.4409V67.144H135.934V69.3694C135.934 69.7921 135.835 70.8544 134.639 70.8544C134.069 70.8544 133.645 70.4809 133.369 70.0515C133.214 70.5301 132.759 70.8544 132.18 70.8544C131.7 70.8544 131.285 70.6442 131.031 70.1879C130.982 70.1231 130.941 70.0493 130.901 69.9777C130.762 70.3758 130.446 70.765 129.721 70.765H128.906V70.7605Z" fill="white"/>
<path d="M136.809 70.7607L137.029 70.3469H137.834L136.67 65.6212H137.11L138.25 70.2731C138.591 70.1345 138.795 69.8191 138.795 69.3472V65.4915H139.235V69.2846C139.235 69.7073 139.136 70.7629 137.931 70.7629H136.807L136.809 70.7607Z" fill="white"/>
<path d="M140.85 70.7607H140.41V65.4915H140.85V70.7607Z" fill="white"/>
<path d="M144.763 70.3447C144.119 70.3447 143.493 69.752 143.509 68.9402C143.534 67.7056 144.519 67.2583 145.928 67.3567V67.0078L146.368 66.8691L146.377 69.3696C146.401 69.9958 146.751 70.3447 147.346 70.3447H147.795V70.7585H147.234C146.314 70.7585 146.045 70.1322 145.971 69.6469C145.971 69.6469 145.645 70.3447 144.766 70.3447H144.763ZM144.837 69.9555C146.027 69.9555 145.946 68.6561 145.93 67.7638C145.401 67.7794 144.041 67.5848 143.967 68.9335C143.951 69.2264 144.131 69.9555 144.837 69.9555ZM144.903 65.7419H144.389V66.2944H144.903V65.7419ZM146.018 65.7419H145.504V66.2944H146.018V65.7419Z" fill="white"/>
<path d="M149.204 70.7607H147.721V70.3469H149.204V70.7607Z" fill="white"/>
<path d="M150.62 70.7607H149.137V70.3469H150.62V70.7607Z" fill="white"/>
<path d="M150.555 70.7607V70.3469H151.223C151.827 70.3469 152.193 69.9891 152.193 69.3472V67.3992H152.632V69.1459C152.648 69.8191 152.991 70.3469 153.741 70.3469H154.075V70.7607H153.815C153.187 70.7607 152.691 70.3536 152.527 69.9577C152.388 70.3648 152.072 70.7607 151.338 70.7607H150.557H150.555ZM151.549 72.1741H151.035V71.6217H151.549V72.1741ZM152.664 72.1741H152.15V71.6217H152.664V72.1741Z" fill="white"/>
<path d="M158.482 68.5846C158.188 69.1034 157.683 69.7789 156.999 70.2575C157.169 70.3134 157.349 70.3469 157.553 70.3469H159.222V70.7607H157.69C157.299 70.7607 156.931 70.6556 156.606 70.4923C156.281 70.6556 155.922 70.7607 155.531 70.7607H154.001V70.3469H155.67C155.866 70.3469 156.045 70.3156 156.225 70.2575C155.531 69.7789 155.026 69.1034 154.741 68.5846C155.002 67.1465 155.964 66.9609 156.606 66.9519C157.257 66.9609 158.219 67.1465 158.48 68.5846H158.482ZM156.608 70.0875C157.448 69.6156 157.928 68.6919 157.993 68.4884C157.757 67.4015 156.835 67.3187 156.608 67.3187C156.382 67.3187 155.468 67.3992 155.231 68.4884C155.296 68.6919 155.769 69.6178 156.608 70.0875Z" fill="white"/>
<path d="M159.436 70.3446C159.73 70.3446 160.381 70.1746 160.415 69.3694C160.464 68.4838 161.009 67.502 162.125 67.502C163.24 67.502 163.803 68.4771 163.843 69.3448C163.924 69.8816 164.202 70.3446 164.887 70.3446H165.302V70.7583H164.952C164.391 70.7583 163.902 70.3446 163.763 70.0672C163.558 70.7986 162.997 71.3823 162.125 71.3823C161.335 71.3823 160.781 70.8948 160.552 70.2708C160.406 70.5056 160.062 70.7583 159.508 70.7583H159.158V70.3446H159.434H159.436ZM162.125 67.9001C161.245 67.9001 160.886 68.7678 160.886 69.4432C160.886 70.1187 161.245 70.9864 162.125 70.9864C163.004 70.9864 163.37 70.1254 163.37 69.4432C163.37 68.7611 163.011 67.9001 162.125 67.9001Z" fill="white"/>
<path d="M166.711 70.7607H165.228V70.3469H166.711V70.7607Z" fill="white"/>
<path d="M168.129 70.7607H166.646V70.3469H168.129V70.7607Z" fill="white"/>
<path d="M168.063 70.7606V70.3469H172.17L172.179 69.8839C172.194 68.8037 171.705 67.5534 170.354 67.5534C169.654 67.5534 169.141 67.871 169.051 68.5107H168.636C168.71 67.5601 169.491 67.1375 170.354 67.1375C171.952 67.1375 172.627 68.4369 172.627 69.8817V70.7584H168.066L168.063 70.7606ZM170.597 72.1651H170.083V71.6127H170.597V72.1651Z" fill="white"/>
</svg>
