<svg width="173" height="82" viewBox="0 0 173 82" fill="none" xmlns="http://www.w3.org/2000/svg">
<path d="M32.4324 3.981V0H0V23.3157C0 27.583 3.47122 31.0429 7.75246 31.0429H10.3104V27.0619H8.3022C5.92374 27.0619 3.99628 25.1407 3.99628 22.77V3.981H32.4324ZM10.3104 10.6369V15.47L14.3045 18.8986V18.8069L22.9724 27.0619H14.3045V31.0429L31.0009 31.0339C31.5192 31.0339 31.7705 30.4055 31.3958 30.0476L10.7615 10.4423C10.5909 10.2813 10.3104 10.3998 10.3104 10.6346V10.6369ZM28.4384 13.9961V23.139C28.4384 24.2953 28.8917 25.4046 29.7017 26.2321L32.4324 29.0211V10.0129H13.8243L16.4137 12.6587C17.2506 13.513 18.3972 13.9939 19.5932 13.9939H28.4362L28.4384 13.9961ZM32.4324 3.98324V10.0174H36.3771V3.981H32.4324V3.98324Z" fill="white"/>
<path d="M14.3089 27.0596V18.8851L10.3171 15.4655V59.0686H60.8237V19.0842C60.8237 14.0699 56.7444 10.0039 51.7137 10.0039H32.4391V13.9827H51.348C54.3772 13.9827 56.8297 16.4272 56.8297 19.4465V55.0899H14.3089V31.0384" fill="white"/>
<path d="M14.309 18.885V19.4643L14.3134 18.8895L14.309 18.885Z" fill="white"/>
<g style="mix-blend-mode:multiply">
<path d="M14.3157 18.8895L14.3089 19.4643V19.5068L10.3171 17.1763V15.4631L14.3089 18.885L14.3157 18.8895Z" fill="white"/>
</g>
<path d="M14.309 18.8853V19.4645L14.3134 18.8897L14.309 18.8853Z" fill="white"/>
<g style="mix-blend-mode:multiply" opacity="0.7">
<path d="M14.9417 27.0642L15.5835 31.0363H14.3112L14.309 27.0642H14.9417Z" fill="white"/>
</g>
<path d="M66.5343 56.1456L69.117 53.0615C70.9053 54.5331 72.7789 55.4657 75.0497 55.4657C76.838 55.4657 77.9151 54.759 77.9151 53.5982V53.5423C77.9151 52.4397 77.2329 51.8739 73.9143 51.024C69.9135 50.0064 67.3309 48.9016 67.3309 44.9698V44.9138C67.3309 41.322 70.2254 38.9446 74.2845 38.9446C77.1791 38.9446 79.6495 39.8504 81.6645 41.4629L79.3937 44.7439C77.6346 43.5272 75.9023 42.7914 74.2284 42.7914C72.5545 42.7914 71.6749 43.5563 71.6749 44.518V44.5739C71.6749 45.8756 72.5276 46.3005 75.9607 47.1772C79.9906 48.2239 82.2614 49.6664 82.2614 53.1174V53.1733C82.2614 57.1051 79.2524 59.3126 74.9667 59.3126C71.9577 59.3126 68.9217 58.2659 66.5365 56.1434" fill="white"/>
<path d="M92.4462 39.0876H96.4761L104.991 59.0307H100.423L98.6078 54.589H90.2068L88.3916 59.0307H83.9353L92.4484 39.0876H92.4462ZM97.0438 50.7421L94.4051 44.3211L91.7663 50.7421H97.0438Z" fill="white"/>
<path d="M108.059 39.2285H112.771L117.992 47.602L123.214 39.2285H127.926V59.0307H123.584V46.1036L117.992 54.5621H117.88L112.345 46.1886V59.0307H108.059V39.2285Z" fill="white"/>
<path d="M131.817 49.1878V49.1319C131.817 43.5026 136.073 38.8909 142.176 38.8909C145.921 38.8909 148.165 40.1366 150.01 41.946L147.227 45.1419C145.695 43.7553 144.133 42.9077 142.147 42.9077C138.797 42.9077 136.387 45.6809 136.387 49.076V49.1319C136.387 52.5269 138.743 55.3539 142.147 55.3539C144.418 55.3539 145.809 54.4481 147.369 53.0346L150.151 55.8347C148.107 58.0131 145.836 59.3707 142.006 59.3707C136.161 59.3707 131.817 54.873 131.817 49.1878Z" fill="white"/>
<path d="M160.457 39.0876H164.487L173 59.0307H168.432L166.616 54.589H158.215L156.4 59.0307H151.944L160.459 39.0876H160.457ZM165.055 50.7421L162.416 44.3211L159.777 50.7421H165.055Z" fill="white"/>
<path d="M9.99182 79.0296L10.3598 78.5958C10.9073 79.0878 11.4301 79.3338 12.1571 79.3338C12.8841 79.3338 13.3239 78.9603 13.3239 78.4459V78.4302C13.3239 77.9449 13.0614 77.6698 11.9619 77.4372C10.757 77.1756 10.2027 76.7886 10.2027 75.9298V75.9142C10.2027 75.0934 10.9297 74.4895 11.9238 74.4895C12.6867 74.4895 13.2342 74.7064 13.766 75.1314L13.4204 75.5854C12.9335 75.1895 12.4466 75.0173 11.9081 75.0173C11.2259 75.0173 10.7929 75.3908 10.7929 75.8605V75.8761C10.7929 76.3682 11.0621 76.6455 12.2155 76.8915C13.3823 77.1442 13.923 77.5714 13.923 78.3699V78.3855C13.923 79.2801 13.1736 79.8639 12.1347 79.8639C11.3045 79.8639 10.6223 79.5865 9.99407 79.0274L9.99182 79.0296Z" fill="white"/>
<path d="M14.76 78.6718V78.6561C14.76 77.842 15.4331 77.4104 16.4137 77.4104C16.9073 77.4104 17.2596 77.4775 17.6029 77.5737V77.4395C17.6029 76.7461 17.1766 76.3883 16.4496 76.3883C15.9941 76.3883 15.6328 76.5068 15.2738 76.6723L15.101 76.2027C15.5274 76.0081 15.947 75.8806 16.5079 75.8806C17.0689 75.8806 17.4728 76.0215 17.7577 76.3056C18.0203 76.5672 18.1549 76.9407 18.1549 77.4328V79.7901H17.6007V79.2086C17.3314 79.5597 16.8827 79.8728 16.2005 79.8728C15.4825 79.8728 14.7555 79.4613 14.7555 78.6718H14.76ZM17.6119 78.3743V78.0008C17.3269 77.9181 16.9455 77.8376 16.4743 77.8376C15.7473 77.8376 15.3434 78.1507 15.3434 78.636V78.6517C15.3434 79.137 15.7921 79.421 16.3172 79.421C17.0285 79.421 17.6119 78.9871 17.6119 78.3766V78.3743Z" fill="white"/>
<path d="M19.3487 78.3272V75.9319H19.9253V78.1863C19.9253 78.902 20.3135 79.3493 20.9957 79.3493C21.6778 79.3493 22.1557 78.864 22.1557 78.1416V75.9319H22.7257V79.7899H22.1557V79.1189C21.8932 79.5372 21.496 79.8726 20.8296 79.8726C19.8939 79.8726 19.3464 79.2464 19.3464 78.3272H19.3487Z" fill="white"/>
<path d="M23.8162 77.871V77.8554C23.8162 76.594 24.7361 75.8492 25.6651 75.8492C26.3831 75.8492 26.8476 76.2361 27.1483 76.67V74.3418H27.7249V79.79H27.1483V79.0139C26.8341 79.4768 26.3764 79.8727 25.6651 79.8727C24.7361 79.8727 23.8162 79.1414 23.8162 77.8733V77.871ZM27.1707 77.8643V77.8487C27.1707 76.9608 26.4886 76.3636 25.7705 76.3636C25.0525 76.3636 24.4085 76.916 24.4085 77.8487V77.8643C24.4085 78.7746 25.0368 79.3561 25.7705 79.3561C26.5043 79.3561 27.1707 78.7522 27.1707 77.8643Z" fill="white"/>
<path d="M29.0487 74.4536H29.7084V75.0888H29.0487V74.4536ZM29.0869 75.932H29.6635V79.79H29.0869V75.932Z" fill="white"/>
<path d="M33.3883 74.5655H33.9874L35.8969 77.417L37.8064 74.5655H38.4055V79.79H37.8132V75.5585L35.9036 78.3564H35.8745L33.965 75.5652V79.7877H33.3883V74.5632V74.5655Z" fill="white"/>
<path d="M39.5185 78.6718V78.6561C39.5185 77.842 40.1917 77.4104 41.1722 77.4104C41.6659 77.4104 42.0182 77.4775 42.3615 77.5737V77.4395C42.3615 76.7461 41.9351 76.3883 41.2081 76.3883C40.7526 76.3883 40.3914 76.5068 40.0324 76.6723L39.8596 76.2027C40.2859 76.0081 40.7055 75.8806 41.2665 75.8806C41.8274 75.8806 42.2313 76.0215 42.5163 76.3056C42.7788 76.5672 42.9135 76.9407 42.9135 77.4328V79.7901H42.3592V79.2086C42.09 79.5597 41.6412 79.8728 40.9591 79.8728C40.241 79.8728 39.514 79.4613 39.514 78.6718H39.5185ZM42.3704 78.3743V78.0008C42.0855 77.9181 41.704 77.8376 41.2328 77.8376C40.5058 77.8376 40.1019 78.1507 40.1019 78.636V78.6517C40.1019 79.137 40.5507 79.421 41.0757 79.421C41.787 79.421 42.3704 78.9871 42.3704 78.3766V78.3743Z" fill="white"/>
<path d="M44.1677 75.9319H44.7444V76.6028C44.9979 76.1846 45.4041 75.8491 46.0705 75.8491C47.0062 75.8491 47.5537 76.4753 47.5537 77.3945V79.7899H46.977V77.5355C46.977 76.8198 46.5888 76.3702 45.9067 76.3702C45.2246 76.3702 44.7466 76.8556 44.7466 77.5802V79.7899H44.17V75.9319H44.1677Z" fill="white"/>
<path d="M48.5096 78.6718V78.6561C48.5096 77.842 49.1828 77.4104 50.1633 77.4104C50.657 77.4104 51.0093 77.4775 51.3526 77.5737V77.4395C51.3526 76.7461 50.9262 76.3883 50.1992 76.3883C49.7437 76.3883 49.3825 76.5068 49.0235 76.6723L48.8507 76.2027C49.277 76.0081 49.6966 75.8806 50.2576 75.8806C50.8185 75.8806 51.2224 76.0215 51.5074 76.3056C51.7699 76.5672 51.9045 76.9407 51.9045 77.4328V79.7901H51.3503V79.2086C51.0811 79.5597 50.6323 79.8728 49.9502 79.8728C49.2321 79.8728 48.5051 79.4613 48.5051 78.6718H48.5096ZM51.3615 78.3743V78.0008C51.0766 77.9181 50.6951 77.8376 50.2239 77.8376C49.4969 77.8376 49.093 78.1507 49.093 78.636V78.6517C49.093 79.137 49.5418 79.421 50.0668 79.421C50.7781 79.421 51.3615 78.9871 51.3615 78.3766V78.3743Z" fill="white"/>
<path d="M53.1116 80.461L53.3742 80.0137C53.8162 80.3358 54.3098 80.5058 54.8641 80.5058C55.7167 80.5058 56.271 80.0361 56.271 79.1325V78.6785C55.9344 79.1258 55.4632 79.4926 54.7519 79.4926C53.8229 79.4926 52.9321 78.7993 52.9321 77.6877V77.6721C52.9321 76.5449 53.8297 75.8516 54.7519 75.8516C55.4789 75.8516 55.9501 76.2094 56.2642 76.6276V75.9343H56.8409V79.1214C56.8409 79.7185 56.6614 80.1748 56.3473 80.4879C56.0017 80.8323 55.4856 81.0023 54.8731 81.0023C54.2291 81.0023 53.63 80.8233 53.1139 80.4655L53.1116 80.461ZM56.2867 77.6766V77.6609C56.2867 76.8692 55.5978 76.3548 54.8641 76.3548C54.1303 76.3548 53.5245 76.8625 53.5245 77.6542V77.6699C53.5245 78.4459 54.146 78.9827 54.8641 78.9827C55.5821 78.9827 56.2867 78.4526 56.2867 77.6766Z" fill="white"/>
<path d="M57.9113 77.8709V77.8553C57.9113 76.7437 58.6966 75.8491 59.767 75.8491C60.9136 75.8491 61.571 76.7594 61.571 77.8866C61.571 77.9604 61.571 78.0051 61.5643 78.0722H58.4947C58.5777 78.9087 59.1679 79.3783 59.8567 79.3783C60.3885 79.3783 60.7632 79.1614 61.0774 78.8326L61.4364 79.1547C61.0482 79.5863 60.5747 79.8793 59.841 79.8793C58.7774 79.8793 57.9091 79.0652 57.9091 77.8709H57.9113ZM60.9876 77.6473C60.927 76.945 60.5231 76.3344 59.7513 76.3344C59.0781 76.3344 58.5687 76.8936 58.4947 77.6473H60.9876Z" fill="white"/>
<path d="M62.6031 75.9319H63.1798V76.5805C63.4334 76.2003 63.7789 75.8491 64.4296 75.8491C65.0804 75.8491 65.4618 76.1846 65.6727 76.6185C65.9487 76.1935 66.3616 75.8491 67.0347 75.8491C67.9255 75.8491 68.473 76.4463 68.473 77.4013V79.7899H67.8964V77.5355C67.8964 76.7885 67.5216 76.3702 66.8934 76.3702C66.31 76.3702 65.8231 76.8041 65.8231 77.5645V79.7876H65.2531V77.5198C65.2531 76.7952 64.8717 76.3702 64.2569 76.3702C63.642 76.3702 63.1798 76.8779 63.1798 77.5869V79.7876H62.6031V75.9296V75.9319Z" fill="white"/>
<path d="M69.4828 77.8709V77.8553C69.4828 76.7437 70.2681 75.8491 71.3407 75.8491C72.485 75.8491 73.1447 76.7594 73.1447 77.8866C73.1447 77.9604 73.1447 78.0051 73.138 78.0722H70.0684C70.1514 78.9087 70.7416 79.3783 71.4304 79.3783C71.9622 79.3783 72.337 79.1614 72.6511 78.8326L73.0101 79.1547C72.6197 79.5863 72.1485 79.8793 71.4147 79.8793C70.3512 79.8793 69.4828 79.0652 69.4828 77.8709ZM72.5591 77.6473C72.4985 76.945 72.0946 76.3344 71.3227 76.3344C70.6496 76.3344 70.1402 76.8936 70.0639 77.6473H72.5568H72.5591Z" fill="white"/>
<path d="M74.1746 75.9319H74.7512V76.6028C75.0048 76.1846 75.4109 75.8491 76.0773 75.8491C77.013 75.8491 77.5605 76.4753 77.5605 77.3945V79.7899H76.9838V77.5355C76.9838 76.8198 76.5957 76.3702 75.9135 76.3702C75.2314 76.3702 74.7535 76.8556 74.7535 77.5802V79.7899H74.1768V75.9319H74.1746Z" fill="white"/>
<path d="M79.0101 78.768V76.4398H78.4716V75.9321H79.0101V74.7668H79.5867V75.9321H80.8141V76.4398H79.5867V78.6942C79.5867 79.1638 79.8493 79.3361 80.2375 79.3361C80.4327 79.3361 80.5965 79.298 80.7984 79.2019V79.6939C80.5965 79.799 80.3788 79.8572 80.1028 79.8572C79.4813 79.8572 79.0101 79.5508 79.0101 78.768Z" fill="white"/>
<path d="M83.9869 77.1934V77.1778C83.9869 75.6994 85.0954 74.4761 86.6369 74.4761C87.5883 74.4761 88.156 74.8116 88.6811 75.3036L88.2772 75.7375C87.8351 75.3192 87.3415 75.0218 86.6302 75.0218C85.4701 75.0218 84.6018 75.9611 84.6018 77.1644V77.18C84.6018 78.3877 85.4768 79.336 86.6302 79.336C87.3482 79.336 87.8194 79.0587 88.322 78.5823L88.7125 78.9625C88.1672 79.515 87.5681 79.8795 86.6167 79.8795C85.1044 79.8795 83.9892 78.6919 83.9892 77.1934H83.9869Z" fill="white"/>
<path d="M89.3833 77.8799V77.8642C89.3833 76.775 90.236 75.8491 91.405 75.8491C92.574 75.8491 93.42 76.7594 93.42 77.8486V77.8642C93.42 78.9534 92.5583 79.8793 91.3915 79.8793C90.2247 79.8793 89.3855 78.9691 89.3855 77.8799H89.3833ZM92.8276 77.8799V77.8642C92.8276 77.0367 92.2061 76.3568 91.3893 76.3568C90.5725 76.3568 89.9734 77.0367 89.9734 77.8486V77.8642C89.9734 78.6917 90.5882 79.3649 91.4028 79.3649C92.2173 79.3649 92.8253 78.694 92.8253 77.8799H92.8276Z" fill="white"/>
<path d="M94.4813 75.9319H95.058V76.6028C95.3115 76.1846 95.7177 75.8491 96.3841 75.8491C97.3198 75.8491 97.8673 76.4753 97.8673 77.3945V79.7899H97.2906V77.5355C97.2906 76.8198 96.9024 76.3702 96.2203 76.3702C95.5382 76.3702 95.0602 76.8556 95.0602 77.5802V79.7899H94.4836V75.9319H94.4813Z" fill="white"/>
<path d="M98.7939 79.2978L99.0856 78.8886C99.5052 79.2017 99.9697 79.3806 100.425 79.3806C100.881 79.3806 101.226 79.1413 101.226 78.7678V78.7521C101.226 78.3652 100.771 78.2154 100.261 78.0722C99.6556 77.9 98.9824 77.692 98.9824 76.983V76.9674C98.9824 76.3031 99.5367 75.8625 100.3 75.8625C100.771 75.8625 101.296 76.0258 101.693 76.2875L101.43 76.7191C101.071 76.4888 100.659 76.3456 100.284 76.3456C99.8284 76.3456 99.5344 76.5849 99.5344 76.9048V76.9204C99.5344 77.2872 100.015 77.4281 100.531 77.5847C101.13 77.7636 101.774 77.9939 101.774 78.6895V78.7052C101.774 79.4365 101.168 79.8614 100.396 79.8614C99.8418 79.8614 99.2293 79.6445 98.7939 79.2934V79.2978Z" fill="white"/>
<path d="M102.806 78.3272V75.9319H103.383V78.1863C103.383 78.902 103.771 79.3493 104.453 79.3493C105.135 79.3493 105.613 78.864 105.613 78.1416V75.9319H106.183V79.7899H105.613V79.1189C105.35 79.5372 104.953 79.8726 104.287 79.8726C103.351 79.8726 102.804 79.2464 102.804 78.3272H102.806Z" fill="white"/>
<path d="M107.549 74.3418H108.126V79.79H107.549V74.3418Z" fill="white"/>
<path d="M109.69 78.768V76.4398H109.152V75.9321H109.69V74.7668H110.267V75.9321H111.494V76.4398H110.267V78.6942C110.267 79.1638 110.529 79.3361 110.918 79.3361C111.113 79.3361 111.277 79.298 111.478 79.2019V79.6939C111.277 79.799 111.059 79.8572 110.783 79.8572C110.161 79.8572 109.69 79.5508 109.69 78.768Z" fill="white"/>
<path d="M112.244 78.6718V78.6561C112.244 77.842 112.917 77.4104 113.897 77.4104C114.391 77.4104 114.743 77.4775 115.087 77.5737V77.4395C115.087 76.7461 114.66 76.3883 113.933 76.3883C113.475 76.3883 113.116 76.5068 112.757 76.6723L112.585 76.2027C113.011 76.0081 113.431 75.8806 113.992 75.8806C114.553 75.8806 114.956 76.0215 115.241 76.3056C115.504 76.5672 115.639 76.9407 115.639 77.4328V79.7901H115.084V79.2086C114.815 79.5597 114.366 79.8728 113.684 79.8728C112.966 79.8728 112.239 79.4613 112.239 78.6718H112.244ZM115.096 78.3743V78.0008C114.811 77.9181 114.429 77.8376 113.958 77.8376C113.233 77.8376 112.827 78.1507 112.827 78.636V78.6517C112.827 79.137 113.276 79.421 113.801 79.421C114.512 79.421 115.096 78.9871 115.096 78.3766V78.3743Z" fill="white"/>
<path d="M116.891 75.9319H117.467V76.6028C117.721 76.1846 118.127 75.8491 118.793 75.8491C119.729 75.8491 120.277 76.4753 120.277 77.3945V79.7899H119.7V77.5355C119.7 76.8198 119.312 76.3702 118.63 76.3702C117.947 76.3702 117.47 76.8556 117.47 77.5802V79.7899H116.893V75.9319H116.891Z" fill="white"/>
<path d="M121.726 78.768V76.4398H121.188V75.9321H121.726V74.7668H122.303V75.9321H123.53V76.4398H122.303V78.6942C122.303 79.1638 122.565 79.3361 122.953 79.3361C123.149 79.3361 123.312 79.298 123.514 79.2019V79.6939C123.312 79.799 123.095 79.8572 122.819 79.8572C122.197 79.8572 121.726 79.5508 121.726 78.768Z" fill="white"/>
<path d="M124.248 79.2978L124.54 78.8886C124.959 79.2017 125.424 79.3806 125.879 79.3806C126.335 79.3806 126.68 79.1413 126.68 78.7678V78.7521C126.68 78.3652 126.225 78.2154 125.716 78.0722C125.11 77.9 124.434 77.692 124.434 76.983V76.9674C124.434 76.3031 124.989 75.8625 125.751 75.8625C126.223 75.8625 126.748 76.0258 127.145 76.2875L126.882 76.7191C126.523 76.4888 126.11 76.3456 125.738 76.3456C125.28 76.3456 124.989 76.5849 124.989 76.9048V76.9204C124.989 77.2872 125.469 77.4281 125.985 77.5847C126.584 77.7636 127.228 77.9939 127.228 78.6895V78.7052C127.228 79.4365 126.622 79.8614 125.85 79.8614C125.296 79.8614 124.681 79.6445 124.248 79.2934V79.2978Z" fill="white"/>
<path d="M132.624 74.5295H133.179L135.566 79.7898H134.929L134.314 78.4099H131.462L130.84 79.7898H130.235L132.622 74.5295H132.624ZM134.085 77.8798L132.896 75.2162L131.698 77.8798H134.085Z" fill="white"/>
<path d="M136.203 79.2978L136.495 78.8886C136.915 79.2017 137.379 79.3806 137.835 79.3806C138.29 79.3806 138.636 79.1413 138.636 78.7678V78.7521C138.636 78.3652 138.18 78.2154 137.671 78.0722C137.065 77.9 136.389 77.692 136.389 76.983V76.9674C136.389 76.3031 136.944 75.8625 137.707 75.8625C138.178 75.8625 138.703 76.0258 139.1 76.2875L138.838 76.7191C138.478 76.4888 138.066 76.3456 137.693 76.3456C137.235 76.3456 136.944 76.5849 136.944 76.9048V76.9204C136.944 77.2872 137.424 77.4281 137.94 77.5847C138.539 77.7636 139.183 77.9939 139.183 78.6895V78.7052C139.183 79.4365 138.577 79.8614 137.805 79.8614C137.251 79.8614 136.636 79.6445 136.203 79.2934V79.2978Z" fill="white"/>
<path d="M139.879 79.2978L140.17 78.8886C140.59 79.2017 141.054 79.3806 141.51 79.3806C141.965 79.3806 142.311 79.1413 142.311 78.7678V78.7521C142.311 78.3652 141.855 78.2154 141.346 78.0722C140.74 77.9 140.067 77.692 140.067 76.983V76.9674C140.067 76.3031 140.621 75.8625 141.384 75.8625C141.855 75.8625 142.381 76.0258 142.778 76.2875L142.515 76.7191C142.156 76.4888 141.743 76.3456 141.369 76.3456C140.913 76.3456 140.619 76.5849 140.619 76.9048V76.9204C140.619 77.2872 141.099 77.4281 141.615 77.5847C142.214 77.7636 142.858 77.9939 142.858 78.6895V78.7052C142.858 79.4365 142.253 79.8614 141.481 79.8614C140.927 79.8614 140.314 79.6445 139.879 79.2934V79.2978Z" fill="white"/>
<path d="M143.709 77.8799V77.8642C143.709 76.775 144.562 75.8491 145.731 75.8491C146.9 75.8491 147.746 76.7594 147.746 77.8486V77.8642C147.746 78.9534 146.884 79.8793 145.717 79.8793C144.55 79.8793 143.711 78.9691 143.711 77.8799H143.709ZM147.153 77.8799V77.8642C147.153 77.0367 146.532 76.3568 145.715 76.3568C144.898 76.3568 144.299 77.0367 144.299 77.8486V77.8642C144.299 78.6917 144.914 79.3649 145.728 79.3649C146.543 79.3649 147.151 78.694 147.151 77.8799H147.153Z" fill="white"/>
<path d="M148.567 77.8799V77.8642C148.567 76.775 149.42 75.8491 150.55 75.8491C151.284 75.8491 151.74 76.1555 152.101 76.5357L151.719 76.9383C151.412 76.6162 151.069 76.3568 150.544 76.3568C149.758 76.3568 149.159 77.0211 149.159 77.8486V77.8642C149.159 78.7007 149.774 79.3649 150.582 79.3649C151.076 79.3649 151.457 79.1189 151.764 78.7901L152.132 79.1323C151.742 79.5662 151.28 79.8793 150.553 79.8793C149.422 79.8793 148.569 78.9624 148.569 77.8799H148.567Z" fill="white"/>
<path d="M153.117 74.4536H153.777V75.0888H153.117V74.4536ZM153.155 75.932H153.732V79.79H153.155V75.932Z" fill="white"/>
<path d="M154.802 78.6718V78.6561C154.802 77.842 155.476 77.4104 156.456 77.4104C156.95 77.4104 157.302 77.4775 157.645 77.5737V77.4395C157.645 76.7461 157.219 76.3883 156.492 76.3883C156.034 76.3883 155.675 76.5068 155.316 76.6723L155.144 76.2027C155.57 76.0081 155.989 75.8806 156.55 75.8806C157.111 75.8806 157.515 76.0215 157.8 76.3056C158.063 76.5672 158.197 76.9407 158.197 77.4328V79.7901H157.643V79.2086C157.374 79.5597 156.925 79.8728 156.243 79.8728C155.525 79.8728 154.798 79.4613 154.798 78.6718H154.802ZM157.654 78.3743V78.0008C157.369 77.9181 156.988 77.8376 156.517 77.8376C155.792 77.8376 155.386 78.1507 155.386 78.636V78.6517C155.386 79.137 155.835 79.421 156.36 79.421C157.071 79.421 157.654 78.9871 157.654 78.3766V78.3743Z" fill="white"/>
<path d="M159.616 78.768V76.4398H159.077V75.9321H159.616V74.7668H160.192V75.9321H161.42V76.4398H160.192V78.6942C160.192 79.1638 160.455 79.3361 160.843 79.3361C161.038 79.3361 161.202 79.298 161.404 79.2019V79.6939C161.202 79.799 160.984 79.8572 160.708 79.8572C160.087 79.8572 159.616 79.5508 159.616 78.768Z" fill="white"/>
<path d="M162.474 74.4536H163.134V75.0888H162.474V74.4536ZM162.512 75.932H163.089V79.79H162.512V75.932Z" fill="white"/>
<path d="M164.211 77.8799V77.8642C164.211 76.775 165.064 75.8491 166.233 75.8491C167.402 75.8491 168.248 76.7594 168.248 77.8486V77.8642C168.248 78.9534 167.386 79.8793 166.219 79.8793C165.052 79.8793 164.213 78.9691 164.213 77.8799H164.211ZM167.655 77.8799V77.8642C167.655 77.0367 167.034 76.3568 166.217 76.3568C165.4 76.3568 164.801 77.0367 164.801 77.8486V77.8642C164.801 78.6917 165.416 79.3649 166.23 79.3649C167.045 79.3649 167.653 78.694 167.653 77.8799H167.655Z" fill="white"/>
<path d="M169.309 75.9319H169.886V76.6028C170.139 76.1846 170.545 75.8491 171.209 75.8491C172.145 75.8491 172.693 76.4753 172.693 77.3945V79.7899H172.116V77.5355C172.116 76.8198 171.725 76.3702 171.046 76.3702C170.366 76.3702 169.886 76.8556 169.886 77.5802V79.7899H169.309V75.9319Z" fill="white"/>
<path d="M14.2125 67.138H14.6523V69.1441C14.668 69.8173 15.0113 70.3451 15.7675 70.3451H16.0929V70.7589H15.8393C15.2694 70.7589 14.7959 70.4257 14.6007 70.0678C14.3898 71.3426 13.5506 72.1634 12.2783 72.1634C10.8602 72.1634 9.94922 71.0519 9.94922 69.3857C9.94922 69.0032 10.03 68.5738 10.1287 68.2652H10.6336C10.4877 68.623 10.4137 69.0368 10.4137 69.3857C10.4137 70.6359 11.0891 71.7161 12.2783 71.7161C13.5326 71.7161 14.208 70.6359 14.208 69.3857V67.1357L14.2125 67.138ZM12.5835 68.5269H12.0696V67.9744H12.5835V68.5269Z" fill="white"/>
<path d="M16.03 70.7612V70.3474H16.6987C17.3023 70.3474 17.668 69.9896 17.668 69.3477V67.3997H18.1078V69.1464C18.1235 69.8196 18.4668 70.3474 19.2163 70.3474H19.5506V70.7612H19.2903C18.6621 70.7612 18.1662 70.3541 18.0024 69.9582C17.8632 70.3653 17.5469 70.7612 16.8131 70.7612H16.0323H16.03ZM17.0241 72.1746H16.5102V71.6222H17.0241V72.1746ZM18.1392 72.1746H17.6254V71.6222H18.1392V72.1746Z" fill="white"/>
<path d="M19.5079 70.7611V70.3473H20.208C20.8116 70.3473 21.1773 69.9895 21.1773 69.3476V67.1401H21.6171V69.2827C21.6171 69.7054 21.5184 70.7611 20.3224 70.7611H19.5079ZM20.0285 72.1745H19.5147V71.6221H20.0285V72.1745ZM21.1437 72.1745H20.6299V71.6221H21.1437V72.1745Z" fill="white"/>
<path d="M25.0077 68.3232C24.9583 67.7216 24.6733 67.536 24.1595 67.536C23.695 67.536 23.3113 67.6746 23.2552 68.1689H22.7818C22.8962 67.4129 23.4572 67.1289 24.1595 67.1289C24.974 67.1289 25.4632 67.5024 25.4632 68.3389V70.7588H22.6853V70.345H25.0077V68.3232Z" fill="white"/>
<path d="M29.7421 70.7611V70.77C29.7421 71.7116 29.0824 72.2081 28.2522 72.1589C27.9179 72.1343 27.5364 71.9956 27.4467 71.9397C27.4467 71.9397 27.422 71.7362 27.3973 71.5327C27.7317 71.7183 28.0009 71.7362 28.2029 71.7429C28.8626 71.7675 29.2934 71.385 29.3023 70.7611H28.342C27.2986 70.7611 26.5334 69.9827 26.5334 69.0076C26.5334 68.0325 27.2268 67.1401 28.342 67.1401H29.7421V70.3473H30.9403V70.7611H29.7421ZM29.3023 70.3473V67.5472H28.342C27.5028 67.5472 27.0226 68.3188 27.0226 68.9361C27.0226 69.6339 27.5028 70.3495 28.342 70.3495H29.3023V70.3473Z" fill="white"/>
<path d="M32.3562 70.7612H30.873V70.3474H32.3562V70.7612Z" fill="white"/>
<path d="M33.7743 70.7612H32.2911V70.3474H33.7743V70.7612Z" fill="white"/>
<path d="M35.1924 70.7612H33.7092V70.3474H35.1924V70.7612Z" fill="white"/>
<path d="M36.6105 70.7612H35.1273V70.3474H36.6105V70.7612Z" fill="white"/>
<path d="M38.0264 70.7612H36.5432V70.3474H38.0264V70.7612Z" fill="white"/>
<path d="M42.4423 68.5851C42.1483 69.1039 41.6434 69.7794 40.9591 70.258C41.1296 70.3139 41.3091 70.3474 41.5133 70.3474H43.1827V70.7612H41.6502C41.2597 70.7612 40.8918 70.6561 40.5664 70.4928C40.241 70.6561 39.882 70.7612 39.4916 70.7612H37.9613V70.3474H39.6307C39.8259 70.3474 40.0054 70.3161 40.1849 70.258C39.4916 69.7794 38.9867 69.1039 38.7018 68.5851C38.9621 67.147 39.9247 66.9613 40.5664 66.9524C41.2171 66.9613 42.1797 67.147 42.44 68.5851H42.4423ZM40.5686 70.088C41.4078 69.6161 41.888 68.6924 41.9531 68.4889C41.7175 67.4019 40.7953 67.3192 40.5686 67.3192C40.342 67.3192 39.4288 67.3997 39.1909 68.4889C39.256 68.6924 39.7295 69.6183 40.5686 70.088Z" fill="white"/>
<path d="M44.6031 70.7612H43.1199V70.3474H44.6031V70.7612Z" fill="white"/>
<path d="M46.0189 70.7612H44.5358V70.3474H46.0189V70.7612Z" fill="white"/>
<path d="M47.437 70.7612H45.9539V70.3474H47.437V70.7612Z" fill="white"/>
<path d="M47.3719 70.761V70.3472H48.1057C48.7093 70.3472 49.075 69.9894 49.075 69.3475V67.3995H49.5148V69.1865C49.5148 69.844 49.8402 70.4456 50.5649 70.4456C51.1685 70.4456 51.5343 70.0721 51.5343 69.4392V67.4017H51.9741V69.1887C51.9741 69.8462 52.2994 70.4479 53.0242 70.4479C53.6278 70.4479 53.9935 70.0744 53.9935 69.4414V67.1445H54.4333V69.305C54.5074 69.8664 54.7834 70.3517 55.4834 70.3517H55.8985V70.7655H55.5485C54.9853 70.7655 54.5051 70.3517 54.3682 70.0744L54.3368 70.0252C54.1977 70.4389 53.8881 70.8527 53.1386 70.8527C52.5687 70.8527 52.1446 70.4792 51.8686 70.0498C51.7138 70.5284 51.2583 70.8527 50.6794 70.8527C50.1992 70.8527 49.7841 70.6424 49.5305 70.1862C49.4812 70.1213 49.4408 70.0475 49.4004 69.976C49.2613 70.3741 48.9449 70.7632 48.2201 70.7632H47.3719V70.761Z" fill="white"/>
<path d="M55.8604 70.7612V70.3474H56.5604C57.164 70.3474 57.5298 69.9896 57.5298 69.3477V65.4919H57.9696V69.2851C57.9696 69.7078 57.8708 70.7634 56.6749 70.7634H55.8604V70.7612Z" fill="white"/>
<path d="M59.6256 70.7612H59.1858V65.4919H59.6256V70.7612Z" fill="white"/>
<path d="M66.4558 67.138H66.8956V69.1441C66.9113 69.8173 67.2546 70.3451 68.0108 70.3451H68.3361V70.7589H68.0826C67.5126 70.7589 67.0392 70.4257 66.844 70.0678C66.6331 71.3426 65.7939 72.1634 64.5216 72.1634C63.1035 72.1634 62.1925 71.0519 62.1925 69.3857C62.1925 69.0032 62.2733 68.5738 62.372 68.2652H62.8769C62.731 68.623 62.657 69.0368 62.657 69.3857C62.657 70.6359 63.3324 71.7161 64.5216 71.7161C65.7759 71.7161 66.4513 70.6359 66.4513 69.3857V67.1357L66.4558 67.138ZM64.8268 68.5269H64.3129V67.9744H64.8268V68.5269Z" fill="white"/>
<path d="M68.2733 70.7612V70.3474H68.942C69.5456 70.3474 69.9113 69.9896 69.9113 69.3477V67.3997H70.3511V69.1464C70.3668 69.8196 70.7101 70.3474 71.4596 70.3474H71.7939V70.7612H71.5336C70.9053 70.7612 70.4095 70.3541 70.2457 69.9582C70.1065 70.3653 69.7902 70.7612 69.0564 70.7612H68.2733ZM69.2673 72.1746H68.7535V71.6222H69.2673V72.1746ZM70.3825 72.1746H69.8687V71.6222H70.3825V72.1746Z" fill="white"/>
<path d="M71.7512 70.7611V70.3473H72.4513C73.0549 70.3473 73.4206 69.9895 73.4206 69.3476V67.1401H73.8604V69.2827C73.8604 69.7054 73.7617 70.7611 72.5657 70.7611H71.7512ZM72.2718 72.1745H71.758V71.6221H72.2718V72.1745ZM73.387 72.1745H72.8731V71.6221H73.387V72.1745Z" fill="white"/>
<path d="M76.2793 67.138H76.7191V70.7679C76.7191 71.5238 76.0684 72.1634 75.2292 72.1567C74.8948 72.1567 74.5111 71.9935 74.4236 71.9375C74.4236 71.9375 74.3989 71.734 74.3743 71.5305C74.7086 71.7161 75.0586 71.7407 75.1798 71.7407C75.7497 71.7407 76.2075 71.3918 76.2793 70.7656V67.1357V67.138Z" fill="white"/>
<path d="M78.3347 70.7612H77.8949V65.4919H78.3347V70.7612Z" fill="white"/>
<path d="M81.6825 68.3232C81.6331 67.7216 81.3482 67.536 80.8343 67.536C80.3698 67.536 79.9861 67.6746 79.93 68.1689H79.4566C79.571 67.4129 80.132 67.1289 80.8343 67.1289C81.6488 67.1289 82.138 67.5024 82.138 68.3389V70.7588H79.3601V70.345H81.6825V68.3232Z" fill="white"/>
<path d="M82.6855 72.3111L82.7843 72.0517H82.9885V71.7744C82.9885 71.4501 83.1433 71.1481 83.509 71.1481C83.785 71.1481 83.9892 71.383 84.0072 71.6514H83.7289C83.72 71.5127 83.6639 71.3919 83.5001 71.3919C83.3116 71.3919 83.2488 71.5798 83.2488 71.7744V72.0517H83.6885C83.72 72.0517 83.8187 72.0517 83.868 71.9622L84.0565 72.1322C83.9421 72.2865 83.803 72.3111 83.6661 72.3111H82.6878H82.6855ZM84.1351 70.7612C85.34 70.7612 85.4387 69.7056 85.4387 69.2829V65.4897H84.9989V69.3455C84.9989 69.8174 84.7948 70.1328 84.4537 70.2714L83.3138 65.6195H82.874L84.0386 70.3452H83.233L83.0131 70.759H84.1373L84.1351 70.7612Z" fill="white"/>
<path d="M87.052 70.7612H86.6122V65.4919H87.052V70.7612Z" fill="white"/>
<path d="M93.88 67.138H94.3198V69.1441C94.3355 69.8173 94.6788 70.3451 95.435 70.3451H95.7603V70.7589H95.5068C94.9368 70.7589 94.4634 70.4257 94.2682 70.0678C94.0573 71.3426 93.2181 72.1634 91.9458 72.1634C90.5277 72.1634 89.6167 71.0519 89.6167 69.3857C89.6167 69.0032 89.6975 68.5738 89.7962 68.2652H90.3011C90.1552 68.623 90.0812 69.0368 90.0812 69.3857C90.0812 70.6359 90.7566 71.7161 91.9458 71.7161C93.2001 71.7161 93.8755 70.6359 93.8755 69.3857V67.1357L93.88 67.138ZM92.251 68.5269H91.7371V67.9744H92.251V68.5269Z" fill="white"/>
<path d="M95.6975 70.7612V70.3474H96.3662C96.9698 70.3474 97.3355 69.9896 97.3355 69.3477V67.3997H97.7753V69.1464C97.791 69.8196 98.1343 70.3474 98.8838 70.3474H99.2181V70.7612H98.9578C98.3295 70.7612 97.8336 70.3541 97.6698 69.9582C97.5307 70.3653 97.2143 70.7612 96.4806 70.7612H95.6998H95.6975ZM96.6915 72.1746H96.1777V71.6222H96.6915V72.1746ZM97.8067 72.1746H97.2929V71.6222H97.8067V72.1746Z" fill="white"/>
<path d="M99.1777 70.7611V70.3473H99.8778C100.481 70.3473 100.847 69.9895 100.847 69.3476V67.1401H101.287V69.2827C101.287 69.7054 101.188 70.7611 99.9922 70.7611H99.1777ZM99.6983 72.1745H99.1845V71.6221H99.6983V72.1745ZM100.813 72.1745H100.3V71.6221H100.813V72.1745Z" fill="white"/>
<path d="M103.706 67.138H104.146V70.7679C104.146 71.5238 103.495 72.1634 102.656 72.1567C102.321 72.1567 101.938 71.9935 101.85 71.9375C101.85 71.9375 101.825 71.734 101.801 71.5305C102.135 71.7161 102.485 71.7407 102.606 71.7407C103.176 71.7407 103.634 71.3918 103.706 70.7656V67.1357V67.138Z" fill="white"/>
<path d="M106.616 70.7612C105.418 70.7612 105.321 69.7056 105.321 69.2829V65.4897H105.761V69.3455C105.761 69.9874 106.127 70.3452 106.722 70.3452H107.112V70.759H106.614L106.616 70.7612Z" fill="white"/>
<path d="M108.53 70.7612H107.047V70.3474H108.53V70.7612Z" fill="white"/>
<path d="M109.948 70.7612H108.465V70.3474H109.948V70.7612Z" fill="white"/>
<path d="M111.364 70.7612H109.881V70.3474H111.364V70.7612Z" fill="white"/>
<path d="M111.299 70.7611V70.3473H112.033C112.636 70.3473 113.002 69.9895 113.002 69.3476V67.3996H113.442V69.1866C113.442 69.8441 113.767 70.4458 114.492 70.4458C115.096 70.4458 115.461 70.0723 115.461 69.4393V67.4018H115.901V69.1888C115.901 69.8464 116.226 70.448 116.951 70.448C117.555 70.448 117.921 70.0745 117.921 69.4416V67.1447H118.36V69.3051C118.434 69.8665 118.71 70.3518 119.41 70.3518H119.826V70.7656H119.476C118.915 70.7656 118.432 70.3518 118.295 70.0745L118.262 70.0253C118.123 70.439 117.813 70.8528 117.063 70.8528C116.493 70.8528 116.069 70.4793 115.793 70.0499C115.639 70.5285 115.183 70.8528 114.604 70.8528C114.124 70.8528 113.709 70.6426 113.455 70.1863C113.406 70.1215 113.366 70.0477 113.325 69.9761C113.186 70.3742 112.87 70.7633 112.145 70.7633H111.297L111.299 70.7611ZM115.381 66.0353H114.867V65.4919H115.381V66.0353ZM115.935 65.134H115.439V64.6062H115.935V65.134ZM116.505 66.0353H115.991V65.4919H116.505V66.0353Z" fill="white"/>
<path d="M119.756 70.7612V70.3474H120.425C121.028 70.3474 121.394 69.9896 121.394 69.3477V67.3997H121.834V69.1464C121.849 69.8196 122.193 70.3474 122.942 70.3474H123.277V70.7612H123.016C122.388 70.7612 121.892 70.3541 121.728 69.9583C121.589 70.3653 121.273 70.7612 120.539 70.7612H119.758H119.756ZM120.741 66.2949H120.227V65.7424H120.741V66.2949ZM121.856 66.2949H121.342V65.7424H121.856V66.2949Z" fill="white"/>
<path d="M124.686 70.7612H123.203V70.3474H124.686V70.7612Z" fill="white"/>
<path d="M126.104 70.7612H124.621V70.3474H126.104V70.7612Z" fill="white"/>
<path d="M127.522 70.7612H126.039V70.3474H127.522V70.7612Z" fill="white"/>
<path d="M128.938 70.7612H127.455V70.3474H128.938V70.7612Z" fill="white"/>
<path d="M128.906 70.761V70.3472H129.606C130.21 70.3472 130.576 69.9894 130.576 69.3475V67.3995H131.016V69.1865C131.016 69.844 131.341 70.4456 132.066 70.4456C132.669 70.4456 133.035 70.0721 133.035 69.4392V67.4017H133.475V69.1887C133.475 69.8462 133.8 70.4479 134.525 70.4479C135.129 70.4479 135.494 70.0744 135.494 69.4414V67.1445H135.934V69.3699C135.934 69.7926 135.835 70.8549 134.639 70.8549C134.069 70.8549 133.645 70.4814 133.369 70.052C133.215 70.5306 132.759 70.8549 132.18 70.8549C131.7 70.8549 131.285 70.6447 131.031 70.1884C130.982 70.1236 130.942 70.0498 130.901 69.9782C130.762 70.3763 130.446 70.7655 129.721 70.7655H128.906V70.761Z" fill="white"/>
<path d="M136.809 70.7612L137.029 70.3474H137.835L136.67 65.6217H137.11L138.25 70.2736C138.591 70.135 138.795 69.8196 138.795 69.3477V65.4919H139.235V69.2851C139.235 69.7078 139.136 70.7634 137.931 70.7634H136.807L136.809 70.7612Z" fill="white"/>
<path d="M140.85 70.7612H140.411V65.4919H140.85V70.7612Z" fill="white"/>
<path d="M144.763 70.3452C144.12 70.3452 143.493 69.7525 143.509 68.9407C143.534 67.7061 144.519 67.2588 145.928 67.3572V67.0083L146.368 66.8696L146.377 69.3701C146.402 69.9963 146.752 70.3452 147.346 70.3452H147.795V70.7589H147.234C146.314 70.7589 146.045 70.1327 145.971 69.6474C145.971 69.6474 145.645 70.3452 144.766 70.3452H144.763ZM144.838 69.956C146.027 69.956 145.946 68.6566 145.93 67.7642C145.401 67.7799 144.041 67.5853 143.967 68.9339C143.951 69.2269 144.131 69.956 144.838 69.956ZM144.903 65.7424H144.389V66.2949H144.903V65.7424ZM146.018 65.7424H145.504V66.2949H146.018V65.7424Z" fill="white"/>
<path d="M149.204 70.7612H147.721V70.3474H149.204V70.7612Z" fill="white"/>
<path d="M150.62 70.7612H149.137V70.3474H150.62V70.7612Z" fill="white"/>
<path d="M150.555 70.7612V70.3474H151.224C151.827 70.3474 152.193 69.9896 152.193 69.3477V67.3997H152.633V69.1464C152.648 69.8196 152.992 70.3474 153.741 70.3474H154.076V70.7612H153.815C153.187 70.7612 152.691 70.3541 152.527 69.9582C152.388 70.3653 152.072 70.7612 151.338 70.7612H150.557H150.555ZM151.549 72.1746H151.035V71.6222H151.549V72.1746ZM152.664 72.1746H152.15V71.6222H152.664V72.1746Z" fill="white"/>
<path d="M158.482 68.5851C158.188 69.1039 157.684 69.7794 156.999 70.258C157.17 70.3139 157.349 70.3474 157.553 70.3474H159.223V70.7612H157.69C157.3 70.7612 156.932 70.6561 156.607 70.4928C156.281 70.6561 155.922 70.7612 155.532 70.7612H154.001V70.3474H155.671C155.866 70.3474 156.046 70.3161 156.225 70.258C155.532 69.7794 155.027 69.1039 154.742 68.5851C155.002 67.147 155.965 66.9613 156.607 66.9524C157.257 66.9613 158.22 67.147 158.48 68.5851H158.482ZM156.609 70.088C157.448 69.6161 157.928 68.6924 157.993 68.4889C157.758 67.4019 156.835 67.3192 156.609 67.3192C156.382 67.3192 155.469 67.3997 155.231 68.4889C155.296 68.6924 155.77 69.6183 156.609 70.088Z" fill="white"/>
<path d="M159.436 70.3451C159.73 70.3451 160.381 70.1751 160.414 69.3699C160.464 68.4843 161.009 67.5024 162.124 67.5024C163.239 67.5024 163.802 68.4776 163.843 69.3453C163.924 69.8821 164.202 70.3451 164.886 70.3451H165.301V70.7588H164.951C164.39 70.7588 163.901 70.3451 163.762 70.0677C163.558 70.7991 162.997 71.3828 162.124 71.3828C161.334 71.3828 160.78 70.8952 160.551 70.2713C160.405 70.5061 160.062 70.7588 159.508 70.7588H159.158V70.3451H159.434H159.436ZM162.124 67.9005C161.244 67.9005 160.885 68.7683 160.885 69.4437C160.885 70.1192 161.244 70.9869 162.124 70.9869C163.004 70.9869 163.369 70.1259 163.369 69.4437C163.369 68.7616 163.01 67.9005 162.124 67.9005Z" fill="white"/>
<path d="M166.71 70.7612H165.227V70.3474H166.71V70.7612Z" fill="white"/>
<path d="M168.129 70.7612H166.646V70.3474H168.129V70.7612Z" fill="white"/>
<path d="M168.064 70.7611V70.3473H172.17L172.179 69.8844C172.195 68.8041 171.705 67.5539 170.355 67.5539C169.654 67.5539 169.141 67.8715 169.051 68.5112H168.636C168.71 67.5606 169.491 67.1379 170.355 67.1379C171.952 67.1379 172.628 68.4374 172.628 69.8821V70.7589H168.066L168.064 70.7611ZM170.597 72.1656H170.083V71.6132H170.597V72.1656Z" fill="white"/>
</svg>
