<svg width="31" height="31" viewBox="0 0 31 31" fill="none" xmlns="http://www.w3.org/2000/svg">
<path d="M3.72729 11.4296C4.59614 7.93062 7.3706 5.22523 10.8898 4.44542L11.476 4.31552C14.1268 3.72816 16.8739 3.72816 19.5246 4.31552L20.1109 4.44542C23.6301 5.22523 26.4045 7.93062 27.2734 11.4296C27.9371 14.1026 27.9371 16.8974 27.2734 19.5704C26.4045 23.0694 23.6301 25.7748 20.1109 26.5546L19.5246 26.6845C16.8739 27.2718 14.1268 27.2718 11.476 26.6845L10.8898 26.5546C7.37059 25.7748 4.59614 23.0694 3.72729 19.5704C3.06356 16.8974 3.06356 14.1026 3.72729 11.4296Z" fill="#C1C1C1" fill-opacity="0.43"/>
<path d="M5.5574 8.39635L13.0235 13.7305C14.5051 14.789 16.4955 14.789 17.9771 13.7305L25.4432 8.39635M3.72729 19.5704C3.06356 16.8974 3.06356 14.1026 3.72729 11.4296C4.59614 7.93062 7.3706 5.22523 10.8898 4.44542L11.476 4.31552C14.1268 3.72816 16.8739 3.72816 19.5246 4.31552L20.1109 4.44542C23.6301 5.22523 26.4045 7.93062 27.2734 11.4296C27.9371 14.1026 27.9371 16.8974 27.2734 19.5704C26.4045 23.0694 23.6301 25.7748 20.1109 26.5546L19.5246 26.6845C16.8739 27.2718 14.1268 27.2718 11.476 26.6845L10.8898 26.5546C7.37059 25.7748 4.59614 23.0694 3.72729 19.5704Z" stroke="#2C8790" stroke-width="1.5" stroke-linecap="round"/>
</svg>
