<svg width="31" height="31" viewBox="0 0 31 31" fill="none" xmlns="http://www.w3.org/2000/svg">
<path d="M18.7822 19.375C16.9695 19.375 15.5 20.707 15.5 22.3502C15.5 22.7228 15.5568 23.0937 15.6687 23.4522L15.7764 23.7971C16.2842 25.4233 17.7584 26.652 19.5885 26.9745C20.7272 27.1752 21.8978 27.1752 23.0365 26.9745C24.8666 26.652 26.3408 25.4233 26.8486 23.7971L26.9563 23.4522C27.0682 23.0937 27.125 22.7228 27.125 22.3502C27.125 20.707 25.6555 19.375 23.8428 19.375H18.7822Z" fill="#C1C1C1" fill-opacity="0.43"/>
<path d="M11.625 7.15721C11.625 5.3445 10.293 3.875 8.64978 3.875C8.27716 3.875 7.90633 3.93178 7.54779 4.04373L7.20286 4.15144C5.5767 4.65921 4.34798 6.13337 4.02548 7.96354C3.82484 9.10219 3.82484 10.2728 4.02548 11.4115C4.34798 13.2416 5.57669 14.7158 7.20286 15.2236L7.54779 15.3313C7.90633 15.4432 8.27716 15.5 8.64978 15.5C10.293 15.5 11.625 14.0305 11.625 12.2178L11.625 7.15721Z" fill="#C1C1C1" fill-opacity="0.43"/>
<path d="M19.5885 26.9745C20.7272 27.1752 21.8978 27.1752 23.0365 26.9745C24.8666 26.652 26.3408 25.4233 26.8486 23.7971L26.9563 23.4522C27.0682 23.0937 27.125 22.7228 27.125 22.3502C27.125 20.707 25.6555 19.375 23.8428 19.375H18.7822C16.9695 19.375 15.5 20.707 15.5 22.3502C15.5 22.7228 15.5568 23.0937 15.6687 23.4522L15.7764 23.7971C16.2842 25.4233 17.7584 26.652 19.5885 26.9745ZM19.5885 26.9745C11.6792 25.509 5.49098 19.3208 4.02548 11.4115M4.02548 11.4115C3.82484 10.2728 3.82484 9.10219 4.02548 7.96354C4.34798 6.13337 5.5767 4.65921 7.20286 4.15144L7.54779 4.04373C7.90633 3.93178 8.27716 3.875 8.64978 3.875C10.293 3.875 11.625 5.3445 11.625 7.15721L11.625 12.2178C11.625 14.0305 10.293 15.5 8.64978 15.5C8.27716 15.5 7.90633 15.4432 7.54779 15.3313L7.20286 15.2236C5.57669 14.7158 4.34798 13.2416 4.02548 11.4115Z" stroke="#2C8790" stroke-width="1.5"/>
</svg>
