<svg width="15" height="15" viewBox="0 0 15 15" fill="none" xmlns="http://www.w3.org/2000/svg">
<path d="M14.1642 11.8915C14.1642 12.1315 14.1108 12.3782 13.9975 12.6182C13.8842 12.8582 13.7375 13.0849 13.5442 13.2982C13.2175 13.6582 12.8575 13.9182 12.4508 14.0849C12.0508 14.2515 11.6175 14.3382 11.1508 14.3382C10.4708 14.3382 9.74416 14.1782 8.9775 13.8515C8.21083 13.5249 7.44416 13.0849 6.68416 12.5315C5.9175 11.9715 5.19083 11.3515 4.4975 10.6649C3.81083 9.97155 3.19083 9.24488 2.6375 8.48488C2.09083 7.72488 1.65083 6.96488 1.33083 6.21155C1.01083 5.45155 0.85083 4.72488 0.85083 4.03155C0.85083 3.57822 0.93083 3.14488 1.09083 2.74488C1.25083 2.33822 1.50416 1.96488 1.8575 1.63155C2.28416 1.21155 2.75083 1.00488 3.24416 1.00488C3.43083 1.00488 3.6175 1.04488 3.78416 1.12488C3.9575 1.20488 4.11083 1.32488 4.23083 1.49822L5.7775 3.67822C5.8975 3.84488 5.98416 3.99822 6.04416 4.14488C6.10416 4.28488 6.1375 4.42488 6.1375 4.55155C6.1375 4.71155 6.09083 4.87155 5.9975 5.02488C5.91083 5.17822 5.78416 5.33822 5.62416 5.49822L5.1175 6.02488C5.04416 6.09822 5.01083 6.18488 5.01083 6.29155C5.01083 6.34488 5.0175 6.39155 5.03083 6.44488C5.05083 6.49822 5.07083 6.53822 5.08416 6.57822C5.20416 6.79822 5.41083 7.08488 5.70416 7.43155C6.00416 7.77822 6.32416 8.13155 6.67083 8.48488C7.03083 8.83822 7.3775 9.16488 7.73083 9.46488C8.0775 9.75822 8.36416 9.95822 8.59083 10.0782C8.62416 10.0915 8.66416 10.1115 8.71083 10.1315C8.76416 10.1515 8.8175 10.1582 8.8775 10.1582C8.99083 10.1582 9.0775 10.1182 9.15083 10.0449L9.6575 9.54488C9.82416 9.37822 9.98416 9.25155 10.1375 9.17155C10.2908 9.07822 10.4442 9.03155 10.6108 9.03155C10.7375 9.03155 10.8708 9.05822 11.0175 9.11822C11.1642 9.17822 11.3175 9.26488 11.4842 9.37822L13.6908 10.9449C13.8642 11.0649 13.9842 11.2049 14.0575 11.3715C14.1242 11.5382 14.1642 11.7049 14.1642 11.8915Z" stroke="white" stroke-miterlimit="10"/>
</svg>
