<svg width="41" height="41" viewBox="0 0 41 41" fill="none" xmlns="http://www.w3.org/2000/svg">
<path d="M6.01342 11.5135C6.84416 8.64275 9.26572 6.47151 12.2748 5.89939C17.7068 4.86655 23.2932 4.86655 28.7253 5.89939C31.7343 6.47151 34.1559 8.64275 34.9866 11.5135L35.069 11.7984C36.1437 15.5119 36.1437 19.4418 35.069 23.1553L34.9866 23.4402C34.1558 26.3109 31.7343 28.4822 28.7253 29.0543C23.2932 30.0871 17.7069 30.0871 12.2748 29.0543C9.26572 28.4822 6.84416 26.3109 6.01342 23.4402L5.93096 23.1553C4.85635 19.4418 4.85635 15.5119 5.93096 11.7984L6.01342 11.5135Z" fill="#D4EBED"/>
<path d="M5.93096 23.1553L6.6514 22.9468L5.93096 23.1553ZM5.93096 11.7984L5.21052 11.5899H5.21052L5.93096 11.7984ZM35.069 11.7984L35.7895 11.5899V11.5899L35.069 11.7984ZM35.069 23.1553L34.3486 22.9468L34.3486 22.9468L35.069 23.1553ZM28.7253 29.0543L28.5852 28.3175L28.7253 29.0543ZM12.2748 29.0543L12.4148 28.3175L12.2748 29.0543ZM12.2748 5.89939L12.1347 5.16259L12.2748 5.89939ZM28.7253 5.89939L28.8653 5.16259L28.7253 5.89939ZM6.01342 23.4402L5.29298 23.6487H5.29298L6.01342 23.4402ZM34.9866 23.4402L35.707 23.6487L35.707 23.6487L34.9866 23.4402ZM34.9866 11.5135L34.2661 11.722V11.722L34.9866 11.5135ZM6.01342 11.5135L6.73386 11.7219L6.01342 11.5135ZM21.25 30.6182C21.25 30.204 20.9142 29.8682 20.5 29.8682C20.0858 29.8682 19.75 30.204 19.75 30.6182H21.25ZM19.75 35.8748C19.75 36.289 20.0858 36.6248 20.5 36.6248C20.9142 36.6248 21.25 36.289 21.25 35.8748H19.75ZM15.9966 35.1248C15.5824 35.1248 15.2466 35.4605 15.2466 35.8748C15.2466 36.289 15.5824 36.6248 15.9966 36.6248V35.1248ZM25.0034 36.6248C25.4176 36.6248 25.7534 36.289 25.7534 35.8748C25.7534 35.4605 25.4176 35.1248 25.0034 35.1248V36.6248ZM34.2661 11.722L34.3486 12.0069L35.7895 11.5899L35.707 11.305L34.2661 11.722ZM34.3486 22.9468L34.2661 23.2317L35.707 23.6487L35.7895 23.3637L34.3486 22.9468ZM6.73386 23.2317L6.6514 22.9468L5.21052 23.3637L5.29298 23.6487L6.73386 23.2317ZM6.6514 12.0069L6.73386 11.7219L5.29298 11.305L5.21052 11.5899L6.6514 12.0069ZM6.6514 22.9468C5.6162 19.3695 5.6162 15.5842 6.6514 12.0069L5.21052 11.5899C4.09649 15.4396 4.09649 19.5141 5.21052 23.3637L6.6514 22.9468ZM34.3486 12.0069C35.3838 15.5842 35.3838 19.3695 34.3486 22.9468L35.7895 23.3637C36.9035 19.5141 36.9035 15.4396 35.7895 11.5899L34.3486 12.0069ZM28.5852 28.3175C23.2456 29.3327 17.7544 29.3327 12.4148 28.3175L12.1347 29.7911C17.6593 30.8415 23.3407 30.8415 28.8653 29.7911L28.5852 28.3175ZM12.4148 6.63619C17.7544 5.62095 23.2456 5.62095 28.5852 6.63619L28.8653 5.16259C23.3407 4.11215 17.6593 4.11215 12.1347 5.16259L12.4148 6.63619ZM12.4148 28.3175C9.67456 27.7965 7.48363 25.8226 6.73386 23.2317L5.29298 23.6487C6.20469 26.7992 8.85688 29.1679 12.1347 29.7911L12.4148 28.3175ZM28.8653 29.7911C32.1431 29.1679 34.7953 26.7992 35.707 23.6487L34.2661 23.2317C33.5164 25.8226 31.3255 27.7965 28.5852 28.3175L28.8653 29.7911ZM28.5852 6.63619C31.3255 7.15722 33.5164 9.13104 34.2661 11.722L35.707 11.305C34.7953 8.15447 32.1431 5.78581 28.8653 5.16259L28.5852 6.63619ZM12.1347 5.16259C8.85688 5.78581 6.20469 8.15446 5.29298 11.305L6.73386 11.7219C7.48363 9.13104 9.67455 7.15722 12.4148 6.63619L12.1347 5.16259ZM19.75 30.6182V35.8748H21.25V30.6182H19.75ZM15.9966 36.6248H25.0034V35.1248H15.9966V36.6248Z" fill="#2C8791"/>
<path d="M13.6666 19.2185L17.7493 16.0034C18.1251 15.7075 18.313 15.5595 18.5208 15.5859C18.7285 15.6123 18.8735 15.8025 19.1634 16.183L21.8365 19.6915C22.1264 20.072 22.2714 20.2622 22.4792 20.2886C22.6869 20.315 22.8748 20.167 23.2506 19.8711L27.3333 16.656" stroke="#2C8791" stroke-width="1.5" stroke-linecap="round"/>
</svg>
