<svg width="41" height="41" viewBox="0 0 41 41" fill="none" xmlns="http://www.w3.org/2000/svg">
<path d="M5.93299 18.1255C6.89094 14.7687 9.68333 12.2297 13.1532 11.5607L14.9872 11.2071C18.6279 10.5051 22.3721 10.5051 26.0128 11.2071L27.8468 11.5607C31.3167 12.2297 34.1091 14.7687 35.067 18.1255L35.2259 18.6822C36.0954 21.7291 36.0894 24.9747 35.2199 28.0216C34.1729 31.6903 31.1134 34.4922 27.3212 35.2233C22.8164 36.0919 18.1836 36.0919 13.6788 35.2233C9.88663 34.4922 6.82709 31.6903 5.78014 28.0216C4.91064 24.9747 4.90462 21.7291 5.77413 18.6822L5.93299 18.1255Z" fill="#D4EBED"/>
<path d="M18.5696 5.37535L18.378 4.65023V4.65023L18.5696 5.37535ZM22.4304 5.37535L22.2388 6.10047L22.2388 6.10047L22.4304 5.37535ZM5.78014 28.0216L6.50135 27.8158L5.78014 28.0216ZM5.77413 18.6822L6.49533 18.888H6.49533L5.77413 18.6822ZM35.2259 18.6822L35.9471 18.4764L35.9471 18.4764L35.2259 18.6822ZM35.2199 28.0216L35.9411 28.2274L35.2199 28.0216ZM27.3212 35.2233L27.1792 34.4869L27.3212 35.2233ZM13.6788 35.2233L13.8208 34.4869L13.6788 35.2233ZM14.9872 11.2071L15.1291 11.9436L14.9872 11.2071ZM26.0128 11.2071L26.1548 10.4707L26.0128 11.2071ZM27.8468 11.5607L27.7048 12.2972L27.8468 11.5607ZM35.067 18.1255L34.3458 18.3313L35.067 18.1255ZM13.1532 11.5607L13.0112 10.8243L13.1532 11.5607ZM5.93299 18.1255L5.21178 17.9197H5.21178L5.93299 18.1255ZM18.7612 6.10047C19.9002 5.79952 21.0997 5.79952 22.2388 6.10047L22.622 4.65023C21.2318 4.28293 19.7682 4.28293 18.378 4.65023L18.7612 6.10047ZM28.3858 12.066C28.3858 8.58414 26.0154 5.54676 22.622 4.65023L22.2388 6.10047C24.986 6.82628 26.8858 9.27742 26.8858 12.066L28.3858 12.066ZM14.1142 12.066C14.1142 9.27742 16.014 6.82628 18.7612 6.10047L18.378 4.65023C14.9846 5.54676 12.6142 8.58413 12.6142 12.066H14.1142ZM13.2951 12.2972L15.1291 11.9436L14.8452 10.4707L13.0112 10.8243L13.2951 12.2972ZM25.8709 11.9436L27.7048 12.2972L27.9888 10.8243L26.1548 10.4707L25.8709 11.9436ZM34.3458 18.3313L34.5047 18.888L35.9471 18.4764L35.7882 17.9197L34.3458 18.3313ZM6.49533 18.888L6.6542 18.3313L5.21178 17.9197L5.05292 18.4764L6.49533 18.888ZM6.50135 27.8158C5.66996 24.9025 5.66449 21.7994 6.49533 18.888L5.05292 18.4764C4.14475 21.6588 4.15132 25.0469 5.05894 28.2274L6.50135 27.8158ZM34.5047 18.888C35.3355 21.7994 35.33 24.9025 34.4987 27.8158L35.9411 28.2274C36.8487 25.0469 36.8552 21.6588 35.9471 18.4764L34.5047 18.888ZM27.1792 34.4869C22.7682 35.3374 18.2318 35.3374 13.8208 34.4869L13.5368 35.9598C18.1354 36.8464 22.8646 36.8464 27.4632 35.9598L27.1792 34.4869ZM15.1291 11.9436C18.6761 11.2597 22.3239 11.2597 25.8709 11.9436L26.1548 10.4707C22.4203 9.75063 18.5797 9.75063 14.8452 10.4707L15.1291 11.9436ZM13.8208 34.4869C10.3043 33.8089 7.47014 31.2106 6.50135 27.8158L5.05894 28.2274C6.18405 32.17 9.46899 35.1755 13.5368 35.9598L13.8208 34.4869ZM27.4632 35.9598C31.531 35.1755 34.816 32.17 35.9411 28.2274L34.4987 27.8158C33.5299 31.2106 30.6957 33.8089 27.1792 34.4869L27.4632 35.9598ZM27.7048 12.2972C30.9013 12.9135 33.4667 15.2506 34.3458 18.3313L35.7882 17.9197C34.7515 14.2867 31.732 11.546 27.9888 10.8243L27.7048 12.2972ZM13.0112 10.8243C9.26801 11.546 6.24854 14.2867 5.21178 17.9197L6.6542 18.3313C7.53335 15.2506 10.0987 12.9135 13.2951 12.2972L13.0112 10.8243ZM5.96828 19.6457C15.3377 23.1114 25.6623 23.1114 35.0317 19.6457L34.5113 18.2389C25.4777 21.5803 15.5223 21.5803 6.48866 18.2389L5.96828 19.6457Z" fill="#2C8791"/>
<path d="M13.6666 17.9373V23.9164" stroke="#2C8791" stroke-width="1.5" stroke-linecap="round"/>
<path d="M27.3334 17.9373V23.9164" stroke="#2C8791" stroke-width="1.5" stroke-linecap="round"/>
</svg>
