<svg width="41" height="41" viewBox="0 0 41 41" fill="none" xmlns="http://www.w3.org/2000/svg">
<path d="M4.13514 14.8954C5.31521 10.3703 8.92072 6.90828 13.4483 5.95301L14.3134 5.77047C18.3939 4.90952 22.6061 4.90952 26.6866 5.77047L27.5518 5.95301C32.0793 6.90828 35.6848 10.3703 36.8649 14.8955C37.8228 18.5688 37.8228 22.4307 36.8649 26.1041C35.6848 30.6292 32.0793 34.0912 27.5518 35.0465L26.6866 35.229C22.6061 36.09 18.3939 36.09 14.3134 35.229L13.4483 35.0465C8.92072 34.0912 5.31521 30.6292 4.13514 26.1041C3.1772 22.4307 3.1772 18.5688 4.13514 14.8954Z" fill="#D4EBED" stroke="#2C8791" stroke-width="1.5"/>
<path d="M10.25 20.4998H13.6667L17.0833 25.6248L23.9167 15.3748L27.3333 20.4998H30.75" stroke="#2C8791" stroke-width="1.5" stroke-linecap="round" stroke-linejoin="round"/>
</svg>
