<svg width="41" height="41" viewBox="0 0 41 41" fill="none" xmlns="http://www.w3.org/2000/svg">
<path d="M5.72783 15.2901C6.8408 10.5453 10.5456 6.84056 15.2903 5.72759C18.7169 4.92381 22.2831 4.92381 25.7097 5.72759C30.4544 6.84056 34.1592 10.5453 35.2722 15.2901C36.0759 18.7167 36.0759 22.2828 35.2722 25.7094C34.1592 30.4542 30.4544 34.159 25.7097 35.2719C22.2831 36.0757 18.7169 36.0757 15.2903 35.2719C10.5456 34.159 6.84081 30.4542 5.72783 25.7094C4.92406 22.2828 4.92406 18.7167 5.72783 15.2901Z" fill="#D4EBED" stroke="#2C8791" stroke-width="1.5"/>
<path d="M17.3939 19.2968C17.7412 18.4287 18.4291 17.7407 19.2973 17.3935L22.7784 16.001C24.173 15.4432 25.5568 16.8271 24.999 18.2216L23.6066 21.7027C23.2593 22.5709 22.5714 23.2588 21.7032 23.6061L18.2221 24.9985C16.8276 25.5564 15.4437 24.1725 16.0015 22.7779L17.3939 19.2968Z" fill="#D4EBED" stroke="#2C8791" stroke-width="1.5" stroke-linecap="round" stroke-linejoin="round"/>
</svg>
