<svg width="41" height="41" viewBox="0 0 41 41" fill="none" xmlns="http://www.w3.org/2000/svg">
<path d="M13.36 24.7023L11.4008 32.4015C10.8125 34.7132 13.2853 36.6343 15.4876 35.5766L18.7895 33.9909C19.8672 33.4733 21.1328 33.4733 22.2106 33.9909L25.5125 35.5766C27.7148 36.6343 30.1876 34.7132 29.5993 32.4015L27.6401 24.7023C26.6486 25.4094 25.5049 25.93 24.2626 26.2122C21.7878 26.7744 19.2123 26.7744 16.7375 26.2122C15.4951 25.93 14.3515 25.4094 13.36 24.7023Z" fill="#D4EBED"/>
<path d="M9.83125 12.2352C10.6351 8.91634 13.3107 6.32493 16.7375 5.54643C19.2123 4.9842 21.7878 4.9842 24.2626 5.54643C27.6894 6.32493 30.365 8.91635 31.1688 12.2352C31.7493 14.6321 31.7493 17.1265 31.1688 19.5234C30.365 22.8423 27.6894 25.4337 24.2626 26.2122C21.7878 26.7744 19.2123 26.7744 16.7375 26.2122C13.3107 25.4337 10.6351 22.8423 9.83125 19.5234C9.25075 17.1265 9.25075 14.6321 9.83125 12.2352Z" fill="#D4EBED"/>
<path d="M24.2626 26.2122C25.5049 25.93 26.6486 25.4094 27.6401 24.7023L29.5993 32.4015C30.1876 34.7132 27.7148 36.6343 25.5125 35.5766L22.2106 33.9909C21.1328 33.4733 19.8672 33.4733 18.7895 33.9909L15.4876 35.5766C13.2853 36.6343 10.8125 34.7132 11.4008 32.4015L13.36 24.7023C14.3515 25.4094 15.4951 25.93 16.7375 26.2122M24.2626 26.2122C21.7878 26.7744 19.2123 26.7744 16.7375 26.2122M24.2626 26.2122C27.6894 25.4337 30.365 22.8423 31.1688 19.5234C31.7493 17.1265 31.7493 14.6321 31.1688 12.2352C30.365 8.91635 27.6894 6.32493 24.2626 5.54643C21.7878 4.9842 19.2123 4.9842 16.7375 5.54643C13.3107 6.32493 10.6351 8.91634 9.83125 12.2352C9.25075 14.6321 9.25075 17.1265 9.83125 19.5234C10.6351 22.8423 13.3107 25.4337 16.7375 26.2122" stroke="#2C8791" stroke-width="1.5"/>
</svg>
