<svg width="41" height="41" viewBox="0 0 41 41" fill="none" xmlns="http://www.w3.org/2000/svg">
<path d="M6.45014 15.7616C7.60566 10.7344 11.3719 6.82861 16.1719 5.67963L16.5529 5.58842C19.1356 4.9702 21.8175 4.9702 24.4001 5.58842L25.0512 5.74427C29.6857 6.85366 33.3222 10.6249 34.4379 15.4788L34.5897 16.1391C35.1645 18.6398 35.1645 21.2484 34.5897 23.7491C33.4321 28.785 29.1422 32.333 24.2106 32.333H22.3975C21.802 32.333 21.2631 32.7168 21.0368 33.2954C20.2145 35.3978 17.9187 36.4297 15.9147 35.5729L15.7128 35.4866C11.0817 33.5067 7.6295 29.2575 6.45591 24.1518C5.82406 21.4029 5.81829 18.5104 6.45014 15.7616Z" fill="#D4EBED"/>
<path d="M14.8561 15.4737H25.1602M14.8561 21.378H21.4133M22.3975 32.333H24.2106C29.1422 32.333 33.4321 28.785 34.5897 23.7491C35.1645 21.2484 35.1645 18.6398 34.5897 16.1391L34.4379 15.4788C33.3222 10.6249 29.6857 6.85366 25.0512 5.74427L24.4001 5.58842C21.8175 4.9702 19.1356 4.9702 16.5529 5.58842L16.1719 5.67963C11.3719 6.82861 7.60566 10.7344 6.45014 15.7616C5.81829 18.5104 5.82406 21.4029 6.45591 24.1518C7.6295 29.2575 11.0817 33.5067 15.7128 35.4866L15.9147 35.5729C17.9187 36.4297 20.2145 35.3978 21.0368 33.2954C21.2631 32.7168 21.802 32.333 22.3975 32.333Z" stroke="#2C8791" stroke-width="1.5" stroke-linecap="round"/>
</svg>
