<svg width="41" height="41" viewBox="0 0 41 41" fill="none" xmlns="http://www.w3.org/2000/svg">
<path d="M5.72783 15.0894C6.84081 10.4383 10.5456 6.80669 15.2903 5.71569C18.7169 4.92778 22.2831 4.92778 25.7097 5.71569C30.4544 6.80669 34.1592 10.4383 35.2722 15.0894C36.0759 18.4484 36.0759 21.9441 35.2722 25.3031C34.1592 29.9542 30.4544 33.5859 25.7097 34.6769C22.2831 35.4648 18.7169 35.4648 15.2903 34.6769C10.5456 33.5859 6.84081 29.9542 5.72783 25.3031C4.92406 21.9441 4.92406 18.4484 5.72783 15.0894Z" fill="#D4EBED"/>
<path d="M5.72783 25.3031L6.45724 25.1286L5.72783 25.3031ZM5.72783 15.0894L6.45724 15.264L5.72783 15.0894ZM35.2722 15.0894L34.5428 15.264L35.2722 15.0894ZM35.2722 25.3031L34.5428 25.1286L35.2722 25.3031ZM25.7097 34.6769L25.8777 35.4078L25.7097 34.6769ZM15.2903 34.6769L15.4584 33.9459L15.2903 34.6769ZM15.2903 5.71569L15.4584 6.44661L15.2903 5.71569ZM25.7097 5.71569L25.8777 4.98476L25.7097 5.71569ZM6.45724 25.1286C5.68092 21.8843 5.68092 18.5082 6.45724 15.264L4.99843 14.9149C4.16719 18.3886 4.16719 22.0039 4.99843 25.4777L6.45724 25.1286ZM34.5428 15.264C35.3191 18.5082 35.3191 21.8843 34.5428 25.1286L36.0016 25.4777C36.8328 22.0039 36.8328 18.3886 36.0016 14.9149L34.5428 15.264ZM25.5416 33.9459C22.2256 34.7084 18.7744 34.7084 15.4584 33.9459L15.1223 35.4078C18.6595 36.2211 22.3405 36.2211 25.8777 35.4078L25.5416 33.9459ZM15.4584 6.44661C18.7744 5.68414 22.2256 5.68414 25.5416 6.44661L25.8777 4.98476C22.3405 4.17142 18.6595 4.17142 15.1223 4.98476L15.4584 6.44661ZM15.4584 33.9459C10.9848 32.9173 7.50242 29.4964 6.45724 25.1286L4.99843 25.4777C6.17919 30.4121 10.1063 34.2544 15.1223 35.4078L15.4584 33.9459ZM25.8777 35.4078C30.8937 34.2544 34.8208 30.4121 36.0016 25.4777L34.5428 25.1286C33.4976 29.4964 30.0152 32.9173 25.5416 33.9459L25.8777 35.4078ZM25.5416 6.44661C30.0152 7.47526 33.4976 10.8962 34.5428 15.264L36.0016 14.9149C34.8208 9.98047 30.8937 6.13812 25.8777 4.98476L25.5416 6.44661ZM15.1223 4.98476C10.1063 6.13812 6.17919 9.98046 4.99843 14.9149L6.45724 15.264C7.50242 10.8962 10.9848 7.47526 15.4584 6.44661L15.1223 4.98476ZM24.8043 35.8748C24.8043 33.3895 24.8059 31.6025 24.9925 30.2421C25.1759 28.9049 25.5252 28.0921 26.1408 27.4887L25.0908 26.4176C24.1448 27.3448 23.7134 28.5292 23.5064 30.0383C23.3026 31.5243 23.3043 33.4327 23.3043 35.8748H24.8043ZM34.7171 24.6724C32.2246 24.6724 30.2813 24.6709 28.7691 24.8702C27.2368 25.0721 26.0347 25.4923 25.0908 26.4176L26.1408 27.4887C26.7585 26.8833 27.5937 26.5381 28.9651 26.3573C30.3565 26.174 32.183 26.1724 34.7171 26.1724V24.6724Z" fill="#2C8791"/>
<path d="M15.375 15.3748H20.5M15.375 20.4998H23.9167" stroke="#2C8791" stroke-width="1.5" stroke-linecap="round"/>
</svg>
