<svg width="41" height="41" viewBox="0 0 41 41" fill="none" xmlns="http://www.w3.org/2000/svg">
<path d="M7.99526 14.5255C9.02453 10.1376 12.4506 6.71151 16.8385 5.68225C20.0074 4.93893 23.3053 4.93893 26.4742 5.68225C30.8621 6.71151 34.2882 10.1376 35.3175 14.5255C36.0608 17.6944 36.0608 20.9923 35.3175 24.1612C34.2882 28.5491 30.8621 31.9752 26.4742 33.0045C23.3053 33.7478 20.0074 33.7478 16.8385 33.0045C12.4506 31.9752 9.02453 28.5491 7.99526 24.1612C7.25194 20.9923 7.25194 17.6944 7.99526 14.5255Z" fill="#D4EBED"/>
<path d="M9.1586 27.1854C6.90384 27.3476 5.125 29.2283 5.125 31.5244C5.125 33.927 7.07272 35.8748 9.47536 35.8748C11.7715 35.8748 13.6521 34.0959 13.8144 31.8411C11.8556 30.7599 10.2398 29.1441 9.1586 27.1854Z" fill="#D4EBED"/>
<path d="M7.99526 24.1612L8.72544 23.99L7.99526 24.1612ZM7.99526 14.5255L7.26508 14.3542L7.99526 14.5255ZM35.3175 14.5255L34.5873 14.6968L35.3175 14.5255ZM35.3175 24.1612L36.0477 24.3325L35.3175 24.1612ZM26.4742 33.0045L26.303 32.2743L26.4742 33.0045ZM16.8385 33.0045L17.0098 32.2743L16.8385 33.0045ZM16.8385 5.68225L17.0098 6.41243L16.8385 5.68225ZM26.4742 5.68225L26.303 6.41243L26.4742 5.68225ZM9.1586 27.1854L9.81521 26.8229L9.58335 26.4029L9.10477 26.4373L9.1586 27.1854ZM13.8144 31.8411L14.5624 31.895L14.5969 31.4164L14.1768 31.1845L13.8144 31.8411ZM15.5659 15.9832C15.1517 15.9832 14.8159 16.3189 14.8159 16.7332C14.8159 17.1474 15.1517 17.4832 15.5659 17.4832V15.9832ZM20.7863 17.4832C21.2005 17.4832 21.5363 17.1474 21.5363 16.7332C21.5363 16.3189 21.2005 15.9832 20.7863 15.9832V17.4832ZM17.306 21.2036C16.8918 21.2036 16.556 21.5394 16.556 21.9536C16.556 22.3678 16.8918 22.7036 17.306 22.7036V21.2036ZM26.0067 22.7036C26.421 22.7036 26.7567 22.3678 26.7567 21.9536C26.7567 21.5394 26.421 21.2036 26.0067 21.2036V22.7036ZM8.72544 23.99C8.00855 20.9337 8.00855 17.753 8.72544 14.6968L7.26508 14.3542C6.49533 17.6358 6.49533 21.051 7.26508 24.3325L8.72544 23.99ZM34.5873 14.6968C35.3042 17.753 35.3042 20.9337 34.5873 23.9899L36.0477 24.3325C36.8174 21.051 36.8174 17.6358 36.0477 14.3543L34.5873 14.6968ZM26.303 32.2743C23.2467 32.9912 20.0661 32.9912 17.0098 32.2743L16.6673 33.7347C19.9488 34.5044 23.364 34.5044 26.6455 33.7347L26.303 32.2743ZM17.0098 6.41243C20.0661 5.69553 23.2467 5.69553 26.303 6.41243L26.6455 4.95207C23.364 4.18232 19.9488 4.18232 16.6673 4.95207L17.0098 6.41243ZM17.0098 32.2743C12.8992 31.3101 9.68966 28.1005 8.72544 23.99L7.26508 24.3325C8.3594 28.9977 12.002 32.6404 16.6673 33.7347L17.0098 32.2743ZM26.6455 33.7347C31.3107 32.6404 34.9534 28.9977 36.0477 24.3325L34.5873 23.9899C33.6231 28.1005 30.4135 31.3101 26.303 32.2743L26.6455 33.7347ZM26.303 6.41243C30.4135 7.37664 33.6231 10.5862 34.5873 14.6968L36.0477 14.3543C34.9534 9.68903 31.3107 6.04638 26.6455 4.95207L26.303 6.41243ZM16.6673 4.95207C12.002 6.04638 8.3594 9.68902 7.26508 14.3542L8.72544 14.6968C9.68966 10.5862 12.8992 7.37664 17.0098 6.41243L16.6673 4.95207ZM9.10477 26.4373C6.46055 26.6276 4.375 28.8321 4.375 31.5244H5.875C5.875 29.6245 7.34714 28.0677 9.21243 27.9334L9.10477 26.4373ZM4.375 31.5244C4.375 34.3412 6.65851 36.6248 9.47536 36.6248V35.1248C7.48694 35.1248 5.875 33.5128 5.875 31.5244H4.375ZM9.47536 36.6248C12.1677 36.6248 14.3722 34.5392 14.5624 31.895L13.0663 31.7873C12.9321 33.6526 11.3753 35.1248 9.47536 35.1248V36.6248ZM14.1768 31.1845C12.3419 30.1717 10.8281 28.6579 9.81521 26.8229L8.50199 27.5478C9.65155 29.6304 11.3693 31.3482 13.4519 32.4978L14.1768 31.1845ZM15.5659 17.4832H20.7863V15.9832H15.5659V17.4832ZM17.306 22.7036H26.0067V21.2036H17.306V22.7036Z" fill="#2C8791"/>
</svg>
