<svg width="117" height="74" viewBox="0 0 117 74" fill="none" xmlns="http://www.w3.org/2000/svg">
<path d="M54.9707 9.15004C56.074 14.8667 61.4398 22.6845 60.3445 21.3278L63.614 19.6877C63.5604 19.6877 61.8607 14.927 61.0449 10.5556C60.1414 5.72979 54.6733 7.62233 54.9707 9.15004Z" fill="#EFB4B4"/>
<path d="M56.3707 9.14996C56.3707 9.14996 55.4363 14.7706 56.6047 19.4547C57.7731 24.1388 52.8672 19.9221 52.8672 19.9221L51.4648 10.7901L54.034 8.448L56.3707 9.14996Z" fill="#FCBFBF"/>
<path d="M48.6609 8.9204C48.6609 8.9204 46.3257 13.37 46.0917 14.3065C45.8577 15.243 50.9976 14.7756 50.9976 14.7756C50.9976 14.7756 52.868 11.497 54.7351 9.624C56.6022 7.75101 48.6609 8.9204 48.6609 8.9204Z" fill="url(#paint0_linear_360_2150)"/>
<path opacity="0.8" d="M62.1618 23.5591H11.9168C10.8398 23.5591 9.9668 24.4341 9.9668 25.5135V50.8266C9.9668 51.906 10.8398 52.7811 11.9168 52.7811H62.1618C63.2388 52.7811 64.1118 51.906 64.1118 50.8266V25.5135C64.1118 24.4341 63.2388 23.5591 62.1618 23.5591Z" fill="url(#paint1_linear_360_2150)"/>
<path d="M52.1219 42.8916H1.95C1.43283 42.8916 0.936838 42.6857 0.571142 42.3192C0.205446 41.9527 0 41.4556 0 40.9372L0 15.5296C0 15.0113 0.205446 14.5142 0.571142 14.1476C0.936838 13.7811 1.43283 13.5752 1.95 13.5752H52.1219C52.6391 13.5752 53.135 13.7811 53.5007 14.1476C53.8664 14.5142 54.0719 15.0113 54.0719 15.5296V40.9372C54.0719 41.4556 53.8664 41.9527 53.5007 42.3192C53.135 42.6857 52.6391 42.8916 52.1219 42.8916Z" fill="#2C8791"/>
<path d="M57.1082 18.5542H6.93633C5.85937 18.5542 4.98633 19.4292 4.98633 20.5086V45.9227C4.98633 47.0021 5.85937 47.8772 6.93633 47.8772H57.1082C58.1852 47.8772 59.0582 47.0021 59.0582 45.9227V20.5086C59.0582 19.4292 58.1852 18.5542 57.1082 18.5542Z" fill="white"/>
<path d="M56.7832 20.8344V45.5905H7.26133V20.8344H56.7832ZM57.1082 18.5542H6.93633C6.41916 18.5542 5.92317 18.7601 5.55747 19.1266C5.19177 19.4932 4.98633 19.9903 4.98633 20.5086V45.9162C4.98633 46.4346 5.19177 46.9317 5.55747 47.2982C5.92317 47.6647 6.41916 47.8706 6.93633 47.8706H57.1082C57.6254 47.8706 58.1214 47.6647 58.4871 47.2982C58.8528 46.9317 59.0582 46.4346 59.0582 45.9162V20.5086C59.0582 19.9903 58.8528 19.4932 58.4871 19.1266C58.1214 18.7601 57.6254 18.5542 57.1082 18.5542Z" fill="#3EB6C2"/>
<path d="M41 30H25V32H41V30Z" fill="#3EB6C2"/>
<path d="M46 35H25V37H46V35Z" fill="#3EB6C2"/>
<path d="M23.5 29H13V37H23.5V29Z" fill="#3EB6C2"/>
<path d="M101.113 26.367C101.113 26.367 96.2075 22.621 90.8336 24.0249C85.4598 25.4288 84.0574 26.1324 74.946 25.4305C65.8346 24.7285 61.1611 28.0071 57.422 30.8117C53.6829 33.6163 53.2165 31.9827 52.9825 31.5136C52.7485 31.0446 51.3494 28.0071 54.3849 25.437C57.4204 22.8669 67.7099 14.8994 67.7099 14.8994C67.7099 14.8994 66.7739 11.3863 64.2048 10.9188C61.6356 10.4514 50.8798 8.34224 40.3725 9.7478C29.8653 11.1534 30.3268 9.04421 29.16 7.64027C27.9933 6.23634 45.2816 2.72162 45.2816 2.72162C45.2816 2.72162 67.4694 -0.563447 73.7744 1.31118C80.0794 3.1858 93.8675 5.99367 93.8675 5.99367C93.8675 5.99367 98.541 6.93016 101.11 8.57026C103.679 10.2103 108.356 14.199 108.356 14.199L101.113 26.367Z" fill="#F9D2D2"/>
<path d="M58.8257 29.8019C58.7623 29.8768 59.0613 28.1342 57.6882 27.196C56.9098 26.6634 51.5132 32.0039 53.8467 32.0821C56.3329 32.1798 58.7851 29.8345 58.8257 29.8019Z" fill="url(#paint2_linear_360_2150)"/>
<path d="M111.369 32.9029C110.409 33.5205 109.403 34.065 108.361 34.5316L100.148 26.4973L108.072 13.5215L116.605 18.0297C117.908 24.3262 115.94 29.9371 111.369 32.9029Z" fill="#395372"/>
<path d="M70.7339 73.4451H70.6543C66.7676 73.4447 63.0402 71.8969 60.292 69.1422C57.5439 66.3875 56 62.6515 56 58.7559C56 56.8182 56.3808 54.8994 57.1207 53.1091C57.8606 51.3188 58.945 49.6921 60.3121 48.3219C61.6792 46.9517 63.3022 45.8648 65.0884 45.1232C66.8747 44.3817 68.7891 44 70.7225 44C72.6471 44 74.5528 44.38 76.3308 45.1182C78.1089 45.8564 79.7244 46.9384 81.0852 48.3025C82.446 49.6665 83.5254 51.2858 84.2617 53.068C84.9981 54.8502 85.377 56.7602 85.3767 58.6892V58.769C85.3767 62.6613 83.834 66.3943 81.088 69.1466C78.3419 71.8989 74.6174 73.4451 70.7339 73.4451Z" fill="#FD736D"/>
<path d="M64 62.9227C64 61.5462 65.0002 60.3737 66.3595 60.1568L66.482 60.1372C67.5704 59.9635 68.6796 59.9635 69.768 60.1372L69.8905 60.1568C71.2498 60.3737 72.25 61.5462 72.25 62.9227C72.25 63.5177 71.7677 64 71.1727 64H65.0773C64.4823 64 64 63.5177 64 62.9227Z" fill="white" fill-opacity="0.35"/>
<path d="M70.5312 55.4062C70.5312 56.7352 69.4539 57.8125 68.125 57.8125C66.7961 57.8125 65.7188 56.7352 65.7188 55.4062C65.7188 54.0773 66.7961 53 68.125 53C69.4539 53 70.5312 54.0773 70.5312 55.4062Z" fill="white" fill-opacity="0.35"/>
<path d="M64 62.9227C64 61.5462 65.0002 60.3737 66.3595 60.1568L66.482 60.1372C67.5704 59.9635 68.6796 59.9635 69.768 60.1372L69.8905 60.1568C71.2498 60.3737 72.25 61.5462 72.25 62.9227C72.25 63.5177 71.7677 64 71.1727 64H65.0773C64.4823 64 64 63.5177 64 62.9227Z" stroke="white"/>
<path d="M70.5312 55.4062C70.5312 56.7352 69.4539 57.8125 68.125 57.8125C66.7961 57.8125 65.7188 56.7352 65.7188 55.4062C65.7188 54.0773 66.7961 53 68.125 53C69.4539 53 70.5312 54.0773 70.5312 55.4062Z" stroke="white"/>
<path d="M72.25 57.8125C73.5789 57.8125 74.6562 56.7352 74.6562 55.4062C74.6562 54.0773 73.5789 53 72.25 53M73.893 64H75.2977C75.8927 64 76.375 63.5177 76.375 62.9227C76.375 61.5462 75.3748 60.3737 74.0155 60.1568V60.1568C73.934 60.1438 73.8514 60.1372 73.7689 60.1372C73.5491 60.1372 73.4808 60.1372 73.1033 60.1372" stroke="white" stroke-linecap="round"/>
<defs>
<linearGradient id="paint0_linear_360_2150" x1="49.4555" y1="16.2821" x2="51.7223" y2="6.96671" gradientUnits="userSpaceOnUse">
<stop offset="0.32" stop-color="#F9D2D2"/>
<stop offset="0.51" stop-color="#F9CFCF"/>
<stop offset="0.63" stop-color="#F9C7C6"/>
<stop offset="0.74" stop-color="#FAB9B7"/>
<stop offset="0.84" stop-color="#FBA5A2"/>
<stop offset="0.93" stop-color="#FC8B86"/>
<stop offset="1" stop-color="#FD736D"/>
</linearGradient>
<linearGradient id="paint1_linear_360_2150" x1="5.01542" y1="16.2316" x2="66.7228" y2="58.3136" gradientUnits="userSpaceOnUse">
<stop stop-color="white" stop-opacity="0"/>
<stop offset="0.3" stop-color="white" stop-opacity="0.28"/>
<stop offset="1" stop-color="white" stop-opacity="0.99"/>
</linearGradient>
<linearGradient id="paint2_linear_360_2150" x1="52.9772" y1="32.9348" x2="61.4615" y2="25.3022" gradientUnits="userSpaceOnUse">
<stop offset="0.32" stop-color="#F9D2D2"/>
<stop offset="0.44" stop-color="#F9CECD"/>
<stop offset="0.58" stop-color="#FAC1C0"/>
<stop offset="0.73" stop-color="#FBABA9"/>
<stop offset="0.89" stop-color="#FC8E89"/>
<stop offset="1" stop-color="#FD736D"/>
</linearGradient>
</defs>
</svg>
