<?xml version="1.0" standalone="no"?>
<!DOCTYPE svg PUBLIC "-//W3C//DTD SVG 1.1//EN" "http://www.w3.org/Graphics/SVG/1.1/DTD/svg11.dtd" >
<svg xmlns="http://www.w3.org/2000/svg" xmlns:xlink="http://www.w3.org/1999/xlink" version="1.1">
<metadata>
Created by FontForge 20190801 at Fri Jan  3 23:18:10 2020
 By root
Copyright \(c\) 2018 Monotype GmbH. All rights reserved.
</metadata>
<defs>
<font id="AvenirArabic-Light" horiz-adv-x="0" >
  <font-face 
    font-family="Avenir Arabic"
    font-weight="300"
    font-stretch="normal"
    units-per-em="1000"
    panose-1="2 11 4 3 2 2 3 2 2 4"
    ascent="800"
    descent="-200"
    x-height="462"
    cap-height="708"
    bbox="-167 -458 1388 1084"
    underline-thickness="50"
    underline-position="-150"
    stemh="57"
    stemv="54"
    unicode-range="U+000D-FEFF"
  />
<missing-glyph horiz-adv-x="512" 
d="M0 718h512v-718h-512v718zM50 50h412v617h-412v-617zM259 609c73 0 124 -52 124 -131c0 -47 -16 -79 -63 -120c-21 -19 -35 -34 -41 -46c-5 -10 -8 -36 -8 -78h-46c-1 7 -2 14 -2 23c0 30 4 54 12 72c7 17 23 38 46 61c4 4 19 18 23 22s14 16 17 22c5 11 11 24 11 40
c0 48 -35 85 -76 85c-47 0 -74 -32 -82 -95l-50 8c8 88 56 137 135 137zM222 117v67h56v-67h-56z" />
    <glyph glyph-name="uniFDF2" unicode="&#x627;&#xfedf;&#xfee0;&#xfeea;" horiz-adv-x="1379" arabic-form="isolated" 
d="M691 790h-5v145h33v-135zM657 638c-41 0 -66 26 -66 65c0 14 3 30 10 47l23 -7c-3 -13 -5 -23 -5 -30c0 -26 13 -39 38 -39c21 0 32 13 32 38c0 10 -1 18 -2 23l24 7c4 -14 6 -26 6 -37v-6c9 -11 22 -16 38 -16c22 0 33 11 33 34c0 13 -3 28 -9 46l24 10
c9 -18 14 -37 14 -56c6 -62 -66 -89 -108 -50c-10 -19 -27 -29 -52 -29zM549 0c-95 0 -150 19 -167 58c-47 -23 -94 -34 -141 -34c-124 0 -201 64 -201 175c0 123 86 202 229 202h159v-250c0 -73 30 -94 121 -94c92 0 124 39 124 140v389h60v-402c0 -85 45 -127 136 -127
c92 0 124 39 124 140v559h60v-583c0 -115 -61 -173 -184 -173c-79 0 -132 26 -158 77c-28 -51 -82 -77 -162 -77zM1298 0h-60v756h60v-756zM246 83c46 0 86 10 120 29v232h-108c-96 0 -157 -48 -157 -139c0 -80 52 -122 145 -122z" />
    <glyph glyph-name="uniFEF5" unicode="&#xfedf;&#xfe82;" horiz-adv-x="658" arabic-form="isolated" 
d="M517 201v555h60v-570c0 -119 -70 -186 -198 -186h-349v57h218v493h60v-493h65c97 0 144 44 144 144zM197 662c-15 0 -32 -6 -49 -19l-22 26c25 22 49 33 73 33c12 0 34 -4 67 -13s56 -14 69 -14c19 0 37 9 56 26l25 -24c-19 -28 -45 -42 -78 -42c-18 0 -43 5 -76 14
s-55 13 -65 13z" />
    <glyph glyph-name="uniFEF6" unicode="&#xfee0;&#xfe82;" horiz-adv-x="713" arabic-form="final" 
d="M713 57c13 0 20 -9 20 -28s-7 -29 -20 -29c-82 0 -136 27 -162 80c-32 -53 -89 -80 -172 -80h-349v57h218v493h60v-493h65c97 0 144 44 144 144v555h60v-570v-2c0 -85 45 -127 136 -127zM197 662c-15 0 -32 -6 -49 -19l-22 26c25 22 49 33 73 33c12 0 34 -4 67 -13
s56 -14 69 -14c19 0 37 9 56 26l25 -24c-19 -28 -45 -42 -78 -42c-18 0 -43 5 -76 14s-55 13 -65 13z" />
    <glyph glyph-name="uniFEF7" unicode="&#xfedf;&#xfe84;" horiz-adv-x="658" arabic-form="isolated" 
d="M273 658h87v-32h-160v32h39c-11 18 -16 36 -16 53c0 45 34 75 82 75c13 0 29 -2 46 -6l-6 -32c-11 3 -23 5 -35 5c-48 0 -70 -42 -37 -95zM517 201v555h60v-570c0 -119 -70 -186 -198 -186h-349v57h218v493h60v-493h65c97 0 144 44 144 144z" />
    <glyph glyph-name="uniFEF8" unicode="&#xfee0;&#xfe84;" horiz-adv-x="713" arabic-form="final" 
d="M273 658h87v-32h-160v32h39c-11 18 -16 36 -16 53c0 45 34 75 82 75c13 0 29 -2 46 -6l-6 -32c-11 3 -23 5 -35 5c-48 0 -70 -42 -37 -95zM713 57c13 0 20 -9 20 -28s-7 -29 -20 -29c-82 0 -136 27 -162 80c-32 -53 -89 -80 -172 -80h-349v57h218v493h60v-493h65
c97 0 144 44 144 144v555h60v-570v-2c0 -85 45 -127 136 -127z" />
    <glyph glyph-name="uniFEF9" unicode="&#xfedf;&#xfe88;" horiz-adv-x="658" arabic-form="isolated" 
d="M517 201v555h60v-570c0 -119 -70 -186 -198 -186h-349v57h218v493h60v-493h65c97 0 144 44 144 144zM255 -170c0 -17 5 -33 16 -48h87v-32h-160v32h38c-10 16 -15 33 -15 52c0 45 33 76 81 76c15 0 30 -2 47 -7l-6 -31c-11 3 -23 5 -35 5c-31 0 -53 -18 -53 -47z" />
    <glyph glyph-name="uniFEFA" unicode="&#xfee0;&#xfe88;" horiz-adv-x="713" arabic-form="final" 
d="M713 57c13 0 20 -9 20 -28s-7 -29 -20 -29c-82 0 -136 27 -162 80c-32 -53 -89 -80 -172 -80h-349v57h218v493h60v-493h65c97 0 144 44 144 144v555h60v-570v-2c0 -85 45 -127 136 -127zM255 -170c0 -17 5 -33 16 -48h87v-32h-160v32h38c-10 16 -15 33 -15 52
c0 45 33 76 81 76c15 0 30 -2 47 -7l-6 -31c-11 3 -23 5 -35 5c-31 0 -53 -18 -53 -47z" />
    <glyph glyph-name="uniFEFB" unicode="&#xfedf;&#xfe8e;" horiz-adv-x="658" arabic-form="isolated" 
d="M517 201v555h60v-570c0 -119 -70 -186 -198 -186h-349v57h218v493h60v-493h65c97 0 144 44 144 144z" />
    <glyph glyph-name="uniFEFC" unicode="&#xfee0;&#xfe8e;" horiz-adv-x="713" arabic-form="final" 
d="M713 57c13 0 20 -9 20 -28s-7 -29 -20 -29c-82 0 -136 27 -162 80c-32 -53 -89 -80 -172 -80h-349v57h218v493h60v-493h65c97 0 144 44 144 144v555h60v-570v-2c0 -85 45 -127 136 -127z" />
    <glyph glyph-name="uni06440671" unicode="&#xfedf;&#xfb51;" horiz-adv-x="658" 
d="M385 679c0 -19 -3 -37 -9 -53h-239v32h51v99h32v-46c23 35 53 52 89 52c47 0 76 -33 76 -84zM517 201v555h60v-570c0 -119 -70 -186 -198 -186h-349v57h218v493h60v-493h65c97 0 144 44 144 144zM306 730c-36 0 -70 -29 -89 -72h134c2 8 3 15 3 22c0 32 -19 50 -48 50z
" />
    <glyph glyph-name="uni06440671.fina" unicode="&#xfee0;&#xfb51;" horiz-adv-x="713" 
d="M385 679c0 -19 -3 -37 -9 -53h-239v32h51v99h32v-46c23 35 53 52 89 52c47 0 76 -33 76 -84zM713 57c13 0 20 -9 20 -28s-7 -29 -20 -29c-82 0 -136 27 -162 80c-32 -53 -89 -80 -172 -80h-349v57h218v493h60v-493h65c97 0 144 44 144 144v555h60v-570v-2
c0 -85 45 -127 136 -127zM306 730c-36 0 -70 -29 -89 -72h134c2 8 3 15 3 22c0 32 -19 50 -48 50z" />
    <glyph glyph-name="uni066E.fina" unicode="&#x66e;" horiz-adv-x="998" 
d="M998 57c13 0 20 -9 20 -28s-7 -29 -20 -29c-80 0 -134 26 -161 78c-33 -52 -88 -78 -167 -78h-394c-145 0 -230 71 -230 188c0 46 11 98 32 156l56 -15c-18 -58 -27 -102 -27 -131c0 -94 59 -141 177 -141h379c95 0 139 43 139 140v204h60v-217c0 -85 45 -127 136 -127z
" />
    <glyph glyph-name="uni066F.fina" unicode="&#x66f;" horiz-adv-x="825" 
d="M708 57h117c13 0 20 -9 20 -28s-7 -29 -20 -29h-120c-19 -120 -118 -164 -319 -164c-227 0 -340 77 -340 232c0 39 8 83 23 130l56 -15c-12 -37 -18 -72 -18 -107c0 -121 87 -181 279 -181c161 0 248 35 259 105h-81c-155 0 -233 67 -233 201c0 57 18 107 53 148
s84 62 145 62c109 0 179 -72 179 -197v-157zM572 57h76v144c0 97 -43 152 -124 152c-79 0 -131 -58 -131 -151c0 -103 59 -145 179 -145z" />
    <glyph glyph-name="uni06A1.init" unicode="&#x6a1;" horiz-adv-x="552" 
d="M299 411c123 0 187 -87 187 -214c0 -57 -15 -123 -44 -197h-442v57h145c-37 39 -56 88 -56 146c0 61 20 111 59 150s89 58 151 58zM214 57h186c16 51 24 97 24 137c0 99 -46 159 -130 159c-87 0 -143 -62 -143 -151c0 -53 21 -101 63 -145z" />
    <glyph glyph-name="uni06A1.medi" unicode="&#x6a1;" horiz-adv-x="575" 
d="M458 57h117c13 0 20 -9 20 -28s-7 -29 -20 -29h-112c-69 0 -128 7 -178 21c-50 -14 -111 -21 -183 -21h-102v57h105c40 0 70 2 89 7c-63 37 -105 99 -105 171c0 51 18 93 55 126s84 50 143 50c116 0 193 -72 193 -176c0 -74 -35 -131 -106 -172c25 -4 53 -6 84 -6z
M151 235c0 -73 58 -131 134 -155c36 11 67 30 94 58c26 28 39 61 39 98c0 71 -53 117 -132 117s-135 -49 -135 -118z" />
    <glyph glyph-name="uni06A1.fina" unicode="&#x6a1;" horiz-adv-x="1075" 
d="M958 57h117c13 0 20 -9 20 -28s-7 -29 -20 -29h-112c-69 0 -128 7 -178 21c-50 -14 -111 -21 -183 -21h-326c-145 0 -230 71 -230 188c0 46 11 98 32 156l56 -15c-18 -58 -27 -102 -27 -131c0 -94 59 -141 177 -141h321c40 0 70 2 89 7c-63 37 -105 99 -105 171
c0 51 18 93 55 126s84 50 143 50c116 0 193 -72 193 -176c0 -74 -35 -131 -106 -172c25 -4 53 -6 84 -6zM651 235c0 -73 58 -131 134 -155c36 11 67 30 94 58c26 28 39 61 39 98c0 71 -53 117 -132 117s-135 -49 -135 -118z" />
    <glyph glyph-name="uni06C2.fina" unicode="&#x6c2;" horiz-adv-x="540" 
d="M255 574h113v-40h-206v40h50c-14 22 -21 45 -21 70c0 57 42 93 103 93c19 0 40 -2 62 -7l-8 -39c-21 3 -37 5 -46 5c-39 0 -69 -19 -69 -58c0 -20 7 -41 22 -64zM540 57c13 0 20 -9 20 -28s-7 -29 -20 -29h-37c-101 0 -153 52 -153 141v209h-77c-97 0 -167 -54 -167 -149
c0 -39 13 -76 40 -109l-44 -36c-39 40 -58 89 -58 146c0 59 21 108 62 147s96 58 167 58h140v-247c0 -79 32 -103 127 -103z" />
    <glyph glyph-name="uni06C3.fina" unicode="&#x6c3;" horiz-adv-x="549" 
d="M201 520c-23 0 -41 17 -41 41s18 41 41 41c53 5 53 -87 0 -82zM334 520c-55 -5 -55 87 0 82c52 5 52 -87 0 -82zM549 57c13 0 20 -9 20 -28s-7 -29 -20 -29c-94 0 -150 19 -168 57c-47 -22 -94 -33 -140 -33c-124 0 -201 64 -201 175c0 123 86 202 229 202h159v-250
c0 -73 30 -94 121 -94zM366 112v232h-108c-96 0 -157 -48 -157 -139c0 -80 52 -122 145 -122c46 0 86 10 120 29z" />
    <glyph glyph-name="uni06D5.fina" unicode="&#x6d5;" horiz-adv-x="549" 
d="M549 57c13 0 20 -9 20 -28s-7 -29 -20 -29c-94 0 -150 19 -168 57c-47 -22 -94 -33 -140 -33c-124 0 -201 64 -201 175c0 123 86 202 229 202h159v-250c0 -73 30 -94 121 -94zM366 112v232h-108c-96 0 -157 -48 -157 -139c0 -80 52 -122 145 -122c46 0 86 10 120 29z" />
    <glyph glyph-name="uniFB51" unicode="&#x671;" horiz-adv-x="279" arabic-form="final" 
d="M218 864c0 -19 -3 -37 -9 -53h-239v32h51v99h32v-46c23 35 53 52 89 52c47 0 76 -33 76 -84zM139 915c-36 0 -70 -29 -89 -72h134c2 8 3 15 3 22c0 31 -20 50 -48 50zM279 57c13 0 20 -9 20 -28s-7 -29 -20 -29c-136 0 -198 54 -198 169v587h60v-583
c0 -77 46 -116 138 -116z" />
    <glyph glyph-name="uniFB57" unicode="&#x67e;" horiz-adv-x="998" arabic-form="final" 
d="M998 57c13 0 20 -9 20 -28s-7 -29 -20 -29c-80 0 -134 26 -161 78c-33 -52 -88 -78 -167 -78h-394c-145 0 -230 71 -230 188c0 46 11 98 32 156l56 -15c-18 -58 -27 -102 -27 -131c0 -94 59 -141 177 -141h379c95 0 139 43 139 140v204h60v-217c0 -85 45 -127 136 -127z
M412 -131c0 -25 -17 -42 -41 -42c-23 0 -41 17 -41 42c0 23 18 40 41 40c24 0 41 -17 41 -40zM504 -91c23 0 40 -17 40 -40c0 -25 -17 -42 -40 -42c-24 0 -42 17 -42 42c0 23 18 40 42 40zM410 -201c25 26 70 7 70 -29c0 -23 -17 -41 -41 -41s-41 18 -41 41c0 12 4 22 12 29
z" />
    <glyph glyph-name="uniFB58" unicode="&#x67e;" horiz-adv-x="312" arabic-form="initial" 
d="M4 0h-4v57h6c85 0 122 41 122 140v204h60v-213c0 -125 -61 -188 -184 -188zM80 -162c-26 -25 -71 -7 -71 31c0 23 18 40 41 40c24 0 41 -17 41 -40c0 -13 -4 -23 -11 -31zM183 -173c-24 0 -42 17 -42 42c0 23 18 40 42 40c23 0 40 -17 40 -40c0 -25 -17 -42 -40 -42z
M148 -259c-27 -27 -71 -6 -71 29c-5 53 87 53 82 0c0 -11 -4 -21 -11 -29z" />
    <glyph glyph-name="uniFB59" unicode="&#x67e;" horiz-adv-x="324" arabic-form="medial" 
d="M324 57c13 0 20 -9 20 -28s-7 -29 -20 -29c-79 0 -133 25 -160 76c-28 -51 -81 -76 -160 -76h-4v57h6c85 0 122 41 122 140v204h60v-213v-4c0 -85 45 -127 136 -127zM120 -131c0 -25 -17 -42 -41 -42c-23 0 -41 17 -41 42c0 23 18 40 41 40c24 0 41 -17 41 -40zM212 -91
c23 0 40 -17 40 -40c0 -25 -17 -42 -40 -42c-24 0 -42 17 -42 42c0 23 18 40 42 40zM118 -201c25 26 70 7 70 -29c0 -23 -17 -41 -41 -41s-41 18 -41 41c0 12 4 22 12 29z" />
    <glyph glyph-name="uniFB67" unicode="&#x679;" horiz-adv-x="998" arabic-form="final" 
d="M570 488c0 -17 -3 -34 -9 -52h-247v33h51v168h33v-107c25 33 55 50 90 50c51 0 82 -37 82 -92zM486 547c-36 0 -70 -29 -89 -78h139c1 9 2 16 2 19c0 36 -20 59 -52 59zM998 57c13 0 20 -9 20 -28s-7 -29 -20 -29c-80 0 -134 26 -161 78c-33 -52 -88 -78 -167 -78h-394
c-145 0 -230 71 -230 188c0 46 11 98 32 156l56 -15c-18 -58 -27 -102 -27 -131c0 -94 59 -141 177 -141h379c95 0 139 43 139 140v204h60v-217c0 -85 45 -127 136 -127z" />
    <glyph glyph-name="uniFB68" unicode="&#x679;" horiz-adv-x="249" arabic-form="initial" 
d="M197 668c51 0 82 -37 82 -92c0 -17 -3 -34 -9 -52h-247v33h51v168h33v-107c25 33 55 50 90 50zM195 635c-36 0 -70 -29 -89 -78h139c1 9 2 16 2 19c0 36 -20 59 -52 59zM128 197v204h60v-213c0 -131 -63 -188 -188 -188v57c91 0 128 39 128 140z" />
    <glyph glyph-name="uniFB69" unicode="&#x679;" horiz-adv-x="324" arabic-form="medial" 
d="M279 576c0 -17 -3 -34 -9 -52h-247v33h51v168h33v-107c25 33 55 50 90 50c51 0 82 -37 82 -92zM195 635c-36 0 -70 -29 -89 -78h139c1 9 2 16 2 19c0 36 -20 59 -52 59zM324 57c13 0 20 -9 20 -28s-7 -29 -20 -29c-79 0 -133 25 -160 76c-28 -51 -83 -76 -164 -76v57
c91 0 128 39 128 140v204h60v-213v-4c0 -85 45 -127 136 -127z" />
    <glyph glyph-name="uniFB6B" unicode="&#x6a4;" horiz-adv-x="1075" arabic-form="final" 
d="M788 632c-24 0 -41 18 -41 42c0 23 17 41 41 41c23 0 40 -18 40 -41c0 -24 -17 -42 -40 -42zM719 533c-23 0 -41 17 -41 41c0 23 18 41 41 41c24 0 41 -18 41 -41c0 -24 -17 -41 -41 -41zM810 574c0 23 18 41 42 41c23 0 40 -18 40 -41c0 -24 -17 -41 -40 -41
c-24 0 -42 17 -42 41zM958 57h117c13 0 20 -9 20 -28s-7 -29 -20 -29h-112c-69 0 -128 7 -178 21c-50 -14 -111 -21 -183 -21h-326c-145 0 -230 71 -230 188c0 46 11 98 32 156l56 -15c-18 -58 -27 -102 -27 -131c0 -94 59 -141 177 -141h321c40 0 70 2 89 7
c-63 37 -105 99 -105 171c0 51 18 93 55 126s84 50 143 50c116 0 193 -72 193 -176c0 -74 -35 -131 -106 -172c25 -4 53 -6 84 -6zM651 235c0 -73 58 -131 134 -155c36 11 67 30 94 58c26 28 39 61 39 98c0 71 -53 117 -132 117s-135 -49 -135 -118z" />
    <glyph glyph-name="uniFB6C" unicode="&#x6a4;" horiz-adv-x="552" arabic-form="initial" 
d="M300 632c-24 0 -41 18 -41 42c0 23 17 41 41 41c23 0 40 -18 40 -41c0 -24 -17 -42 -40 -42zM231 533c-23 0 -41 17 -41 41c0 23 18 41 41 41c24 0 41 -18 41 -41c0 -24 -17 -41 -41 -41zM322 574c0 23 18 41 42 41c23 0 40 -18 40 -41c0 -24 -17 -41 -40 -41
c-24 0 -42 17 -42 41zM299 411c123 0 187 -87 187 -214c0 -57 -15 -123 -44 -197h-442v57h145c-37 39 -56 88 -56 146c0 61 20 111 59 150s89 58 151 58zM214 57h186c16 51 24 97 24 137c0 99 -46 159 -130 159c-87 0 -143 -62 -143 -151c0 -53 21 -101 63 -145z" />
    <glyph glyph-name="uniFB6D" unicode="&#x6a4;" horiz-adv-x="575" arabic-form="medial" 
d="M288 632c-24 0 -41 18 -41 42c0 23 17 41 41 41c23 0 40 -18 40 -41c0 -24 -17 -42 -40 -42zM219 533c-23 0 -41 17 -41 41c0 23 18 41 41 41c24 0 41 -18 41 -41c0 -24 -17 -41 -41 -41zM310 574c0 23 18 41 42 41c23 0 40 -18 40 -41c0 -24 -17 -41 -40 -41
c-24 0 -42 17 -42 41zM458 57h117c13 0 20 -9 20 -28s-7 -29 -20 -29h-112c-69 0 -128 7 -178 21c-50 -14 -111 -21 -183 -21h-102v57h105c40 0 70 2 89 7c-63 37 -105 99 -105 171c0 51 18 93 55 126s84 50 143 50c116 0 193 -72 193 -176c0 -74 -35 -131 -106 -172
c25 -4 53 -6 84 -6zM151 235c0 -73 58 -131 134 -155c36 11 67 30 94 58c26 28 39 61 39 98c0 71 -53 117 -132 117s-135 -49 -135 -118z" />
    <glyph glyph-name="uniFB7B" unicode="&#x686;" horiz-adv-x="658" arabic-form="final" 
d="M536 57h122c13 0 20 -9 20 -28s-7 -29 -20 -29h-444c-71 0 -113 -35 -113 -98c0 -67 49 -103 134 -103c20 0 41 2 63 7l12 -57c-23 -6 -50 -9 -82 -9c-112 0 -188 61 -188 161c0 96 65 156 168 156h266c8 30 12 59 12 88c0 127 -71 208 -202 208c-33 0 -71 -7 -114 -20
l-15 54c43 16 89 24 138 24c164 0 251 -101 251 -262c0 -27 -3 -58 -8 -92zM288 -60c17 0 29 -12 29 -28c0 -17 -12 -29 -29 -29c-16 0 -29 12 -29 29c0 16 13 28 29 28zM381 -60c16 0 28 -12 28 -28c0 -17 -12 -29 -28 -29c-17 0 -29 12 -29 29c0 16 12 28 29 28zM335 -128
c17 0 29 -12 29 -29c0 -16 -12 -29 -29 -29c-16 0 -28 13 -28 29c0 17 12 29 28 29z" />
    <glyph glyph-name="uniFB7C" unicode="&#x686;" horiz-adv-x="490" arabic-form="initial" 
d="M401 0h-401v57h353c32 126 4 296 -190 296c-34 0 -72 -7 -114 -20l-15 54c43 16 89 24 138 24c219 0 294 -173 229 -411zM129 -173c-23 0 -41 17 -41 42c0 23 18 40 41 40c24 0 41 -17 41 -40c0 -25 -17 -42 -41 -42zM262 -173c-24 0 -42 17 -42 42c0 23 18 40 42 40
c23 0 40 -17 40 -40c0 -25 -17 -42 -40 -42zM227 -259c-27 -27 -71 -6 -71 29c-5 53 87 53 82 0c0 -11 -4 -21 -11 -29z" />
    <glyph glyph-name="uniFB7D" unicode="&#x686;" horiz-adv-x="536" arabic-form="medial" 
d="M414 57h122c13 0 20 -9 20 -28s-7 -29 -20 -29h-536v57h353c32 126 4 296 -190 296c-34 0 -72 -7 -114 -20l-15 54c43 16 89 24 138 24c98 0 168 -32 210 -96c41 -65 52 -151 32 -258zM170 -131c0 -25 -17 -42 -41 -42c-23 0 -41 17 -41 42c0 23 18 40 41 40
c24 0 41 -17 41 -40zM262 -91c23 0 40 -17 40 -40c0 -25 -17 -42 -40 -42c-24 0 -42 17 -42 42c0 23 18 40 42 40zM168 -201c25 26 70 7 70 -29c0 -23 -17 -41 -41 -41s-41 18 -41 41c0 12 4 22 12 29z" />
    <glyph glyph-name="uniFB89" unicode="&#x688;" horiz-adv-x="555" arabic-form="final" 
d="M312 582c0 -17 -3 -34 -9 -52h-247v33h51v168h33v-107c25 33 55 50 90 50c51 0 82 -37 82 -92zM228 641c-36 0 -70 -29 -89 -78h139c1 9 2 16 2 19c0 36 -20 59 -52 59zM442 57h113c13 0 20 -9 20 -28s-7 -29 -20 -29h-515v57h342v22c0 113 -69 214 -206 303l36 48
c85 -56 145 -113 179 -170s51 -124 51 -199v-4z" />
    <glyph glyph-name="uniFB8B" unicode="&#x698;" horiz-adv-x="336" arabic-form="final" 
d="M177 622c-24 0 -41 18 -41 42c0 23 17 41 41 41c23 0 40 -18 40 -41c0 -24 -17 -42 -40 -42zM108 523c-23 0 -41 17 -41 41c0 23 18 41 41 41c24 0 41 -18 41 -41c0 -24 -17 -41 -41 -41zM199 564c0 23 18 41 42 41c23 0 40 -18 40 -41c0 -24 -17 -41 -40 -41
c-24 0 -42 17 -42 41zM204 57h132c13 0 20 -9 20 -28s-7 -29 -20 -29h-137v6c-18 -104 -82 -163 -191 -178l-12 56c105 17 149 68 149 185v332h60v-320c0 -11 0 -19 -1 -24z" />
    <glyph glyph-name="uniFB8D" unicode="&#x691;" horiz-adv-x="336" arabic-form="final" 
d="M296 576c0 -17 -3 -34 -9 -52h-247v33h51v168h33v-107c25 33 55 50 90 50c51 0 82 -37 82 -92zM212 635c-36 0 -70 -29 -89 -78h139c1 9 2 16 2 19c0 36 -20 59 -52 59zM204 57h132c13 0 20 -9 20 -28s-7 -29 -20 -29h-137v6c-18 -104 -82 -163 -191 -178l-12 56
c105 17 149 68 149 185v332h60v-320c0 -11 0 -19 -1 -24z" />
    <glyph glyph-name="uniFB8F" unicode="&#x6a9;" horiz-adv-x="914" arabic-form="final" 
d="M782 57h132c13 0 20 -9 20 -28s-7 -29 -20 -29h-638c-145 0 -230 71 -230 188c0 46 11 98 32 156l56 -15c-18 -58 -27 -102 -27 -131c0 -94 59 -141 177 -141h440v46c0 76 -23 137 -68 184c-46 46 -125 86 -237 121v60l283 273l40 -41l-262 -253
c113 -37 192 -84 236 -140c44 -57 66 -128 66 -214v-36z" />
    <glyph glyph-name="uniFB90" unicode="&#x6a9;" horiz-adv-x="466" arabic-form="initial" 
d="M360 700l-262 -253c113 -37 192 -84 236 -140c44 -57 66 -128 66 -214v-93h-400v57h342v46c0 76 -23 137 -68 184c-46 46 -125 86 -237 121v60l283 273z" />
    <glyph glyph-name="uniFB91" unicode="&#x6a9;" horiz-adv-x="528" arabic-form="medial" 
d="M400 57h128c13 0 20 -9 20 -28s-7 -29 -20 -29h-528v57h342v46c0 76 -23 137 -68 184c-46 46 -125 86 -237 121v60l283 273l40 -41l-262 -253c113 -37 192 -84 236 -140c44 -57 66 -128 66 -214v-36z" />
    <glyph glyph-name="uniFB93" unicode="&#x6af;" horiz-adv-x="914" arabic-form="final" 
d="M626 818l40 -40l-253 -242l-41 41zM782 57h132c13 0 20 -9 20 -28s-7 -29 -20 -29h-638c-145 0 -230 71 -230 188c0 46 11 98 32 156l56 -15c-18 -58 -27 -102 -27 -131c0 -94 59 -141 177 -141h440v46c0 76 -23 137 -68 184c-46 46 -125 86 -237 121v60l283 273l40 -41
l-262 -253c113 -37 192 -84 236 -140c44 -57 66 -128 66 -214v-36z" />
    <glyph glyph-name="uniFB94" unicode="&#x6af;" horiz-adv-x="466" arabic-form="initial" 
d="M284 778l-253 -242l-41 41l254 241zM360 700l-262 -253c113 -37 192 -84 236 -140c44 -57 66 -128 66 -214v-93h-400v57h342v46c0 76 -23 137 -68 184c-46 46 -125 86 -237 121v60l283 273z" />
    <glyph glyph-name="uniFB95" unicode="&#x6af;" horiz-adv-x="528" arabic-form="medial" 
d="M244 818l40 -40l-253 -242l-41 41zM400 57h128c13 0 20 -9 20 -28s-7 -29 -20 -29h-528v57h342v46c0 76 -23 137 -68 184c-46 46 -125 86 -237 121v60l283 273l40 -41l-262 -253c113 -37 192 -84 236 -140c44 -57 66 -128 66 -214v-36z" />
    <glyph glyph-name="uniFB9F" unicode="&#x6ba;" horiz-adv-x="696" arabic-form="final" 
d="M569 57h127c13 0 20 -9 20 -28s-7 -29 -20 -29h-136c-28 -108 -120 -164 -255 -164c-165 0 -259 90 -259 226c0 53 14 112 41 177l53 -19c-22 -55 -33 -106 -33 -151c0 -116 73 -174 200 -174c135 0 202 65 202 195v238h60v-253v-18z" />
    <glyph glyph-name="uniFBA7" unicode="&#x6c1;" horiz-adv-x="575" arabic-form="final" 
d="M87 -8l-47 20c69 148 164 241 263 241c60 0 96 -27 141 -104c22 -39 41 -64 58 -75c16 -11 40 -17 73 -17c13 0 20 -10 20 -30c0 -18 -7 -27 -20 -27c-45 0 -80 7 -103 22c-24 15 -48 44 -73 88c-39 67 -60 86 -100 86c-72 0 -152 -81 -212 -204z" />
    <glyph glyph-name="uniFBA8" unicode="&#x6c1;" horiz-adv-x="249" arabic-form="initial" 
d="M0 0v57c91 0 128 39 128 140v204h60v-213c0 -131 -63 -188 -188 -188zM141 -221l-48 -24c-20 29 -30 63 -30 102c0 33 8 66 24 99l43 -12c-11 -25 -16 -50 -16 -75c0 -31 9 -61 27 -90z" />
    <glyph glyph-name="uniFBA9" unicode="&#x6c1;" horiz-adv-x="382" arabic-form="medial" 
d="M368 57h14c13 0 20 -9 20 -28s-7 -29 -20 -29h-13c-80 0 -129 -54 -129 -157c0 -25 3 -53 9 -83c-124 8 -211 80 -211 205c0 15 1 26 2 35h-41v57h108c-7 -29 -11 -57 -11 -83c0 -76 31 -126 93 -151c-1 7 -1 16 -1 29c0 129 75 205 180 205z" />
    <glyph glyph-name="uniFBAB" unicode="&#x6be;" horiz-adv-x="637" arabic-form="final" 
d="M506 57h131c13 0 20 -9 20 -28s-7 -29 -20 -29h-87c17 -33 26 -63 26 -91c0 -91 -70 -149 -178 -149c-120 0 -179 65 -179 182v58h-23c-60 0 -112 10 -156 29l18 54c41 -17 87 -26 138 -26h23v132c0 135 61 219 180 219c54 0 96 -18 126 -53c29 -36 44 -80 44 -133
c0 -70 -21 -125 -63 -165zM279 196v-139h91c84 0 139 67 139 160c0 79 -44 132 -115 132c-73 0 -115 -53 -115 -153zM402 -181c75 0 112 36 112 95c0 28 -10 57 -29 86h-206v-53c0 -85 41 -128 123 -128z" />
    <glyph glyph-name="uniFBAC" unicode="&#x6be;" horiz-adv-x="619" arabic-form="initial" 
d="M77 370l9 53c295 -23 477 -105 477 -312c0 -36 -5 -73 -14 -111h-171c-55 0 -103 8 -145 23c-39 -15 -88 -23 -146 -23h-87v57h87c27 0 52 3 76 8c-44 32 -74 88 -74 151s32 119 84 146c-21 3 -53 5 -96 8zM144 218c0 -64 36 -113 87 -138c57 23 100 71 100 139
s-40 114 -93 114c-55 0 -94 -50 -94 -115zM366 57h135c4 19 6 39 6 60c0 94 -51 162 -152 203c21 -29 31 -62 31 -101c0 -65 -36 -124 -85 -156c23 -4 45 -6 65 -6z" />
    <glyph glyph-name="uniFBAD" unicode="&#x6be;" horiz-adv-x="506" arabic-form="medial" 
d="M375 57h131c13 0 20 -9 20 -28s-7 -29 -20 -29h-87c17 -33 26 -63 26 -91c0 -91 -70 -149 -178 -149c-120 0 -179 65 -179 182v58h-88v57h88v132c0 135 61 219 180 219c54 0 96 -18 126 -53c29 -36 44 -80 44 -133c0 -70 -21 -125 -63 -165zM148 196v-139h91
c84 0 139 67 139 160c0 79 -45 132 -116 132c-72 0 -114 -53 -114 -153zM271 -181c75 0 112 36 112 95c0 28 -10 57 -29 86h-206v-53c0 -87 39 -128 123 -128z" />
    <glyph glyph-name="uniFBAF" unicode="&#x6d2;" horiz-adv-x="414" arabic-form="final" 
d="M344 -260c-212 0 -311 50 -311 163c0 99 77 154 212 154h169c13 0 20 -9 20 -28s-7 -29 -20 -29h-175c-99 0 -149 -32 -149 -95c0 -76 75 -106 268 -106c109 0 232 12 367 36l3 -58c-149 -25 -277 -37 -384 -37z" />
    <glyph glyph-name="uniFBB1" unicode="&#x6d3;" horiz-adv-x="414" arabic-form="final" 
d="M204 224h113v-40h-206v40h50c-14 22 -21 45 -21 70c0 57 42 93 103 93c19 0 40 -2 62 -7l-8 -39c-22 3 -37 5 -46 5c-39 0 -69 -19 -69 -58c0 -20 7 -41 22 -64zM725 -165l3 -58c-149 -25 -277 -37 -384 -37c-212 0 -311 50 -311 163c0 99 77 154 212 154h169
c13 0 20 -9 20 -28s-7 -29 -20 -29h-175c-99 0 -149 -32 -149 -95c0 -76 75 -106 268 -106c109 0 232 12 367 36z" />
    <glyph glyph-name="uniFBE8" unicode="&#x649;" horiz-adv-x="249" arabic-form="initial" 
d="M0 0v57c91 0 128 39 128 140v204h60v-213c0 -131 -63 -188 -188 -188z" />
    <glyph glyph-name="uniFBE9" unicode="&#x649;" horiz-adv-x="324" arabic-form="medial" 
d="M324 57c13 0 20 -9 20 -28s-7 -29 -20 -29c-79 0 -133 25 -160 76c-28 -51 -83 -76 -164 -76v57c91 0 128 39 128 140v204h60v-213v-4c0 -85 45 -127 136 -127z" />
    <glyph glyph-name="uniFBFD" unicode="&#x6cc;" horiz-adv-x="764" arabic-form="final" 
d="M653 57h111c13 0 20 -9 20 -28s-7 -29 -20 -29h-98c29 -19 44 -47 44 -83c0 -49 -31 -91 -93 -126c-62 -34 -144 -51 -245 -51c-219 0 -326 82 -326 227c0 38 8 81 23 129l56 -15c-12 -44 -18 -80 -18 -107c0 -117 82 -175 269 -175c83 0 150 11 199 34s74 52 74 87
c0 44 -43 77 -128 98l-115 29l15 51l135 -32c25 -6 58 -9 97 -9z" />
    <glyph glyph-name="uniFBFE" unicode="&#x6cc;" horiz-adv-x="279" arabic-form="initial" 
d="M4 0h-4v57h6c85 0 122 41 122 140v204h60v-213c0 -125 -61 -188 -184 -188zM50 -172c-23 0 -41 17 -41 41s18 41 41 41c53 5 53 -87 0 -82zM183 -172c-55 -5 -55 87 0 82c52 5 52 -87 0 -82z" />
    <glyph glyph-name="uniFBFF" unicode="&#x6cc;" horiz-adv-x="324" arabic-form="medial" 
d="M324 57c13 0 20 -9 20 -28s-7 -29 -20 -29c-79 0 -133 25 -160 76c-28 -51 -81 -76 -160 -76h-4v57h6c85 0 122 41 122 140v204h60v-213v-4c0 -85 45 -127 136 -127zM79 -90c53 5 53 -87 0 -82c-23 0 -41 17 -41 41s18 41 41 41zM212 -90c52 5 52 -87 0 -82
c-55 -5 -55 87 0 82z" />
    <glyph glyph-name="uniFDFA" unicode="&#xfdfa;" horiz-adv-x="1120" arabic-form="isolated" 
d="M257 677c-16 0 -24 9 -24 26c0 7 1 13 4 19l16 -4c-2 -5 -3 -9 -3 -11c0 -15 20 -15 20 0v9l14 2c1 -5 1 -11 1 -16c3 -3 6 -4 10 -4c7 0 10 4 10 12c0 4 -1 9 -4 14l17 6c3 -10 5 -18 5 -24c0 -18 -8 -27 -25 -27c-6 0 -12 2 -18 7c-6 -6 -14 -9 -23 -9zM108 467
c-45 0 -74 25 -74 66c0 49 33 79 93 79h63v-86c0 -19 9 -26 34 -26s35 11 35 39v124h41v-127c0 -24 12 -36 36 -36c27 0 36 12 36 41v167h41v-176c0 -52 -24 -72 -77 -72c-26 0 -44 8 -54 23c-11 -15 -31 -23 -60 -23s-49 6 -60 19c-16 -8 -34 -12 -54 -12zM513 353
c-67 0 -102 27 -102 71c0 10 2 21 7 33l39 -8c-2 -6 -3 -12 -3 -18c0 -25 21 -38 62 -38c57 0 91 19 91 46c0 16 -14 23 -63 36l10 35c25 -7 49 -10 71 -10c27 0 36 11 36 43v165h41v-172c0 -24 13 -36 38 -36s38 12 38 37v57h40v-63c0 -17 7 -27 22 -30
c41 79 89 119 142 119c52 0 83 -36 83 -93c0 -21 -4 -43 -12 -67h-201c-25 0 -41 7 -50 22c-11 -15 -32 -22 -61 -22c-25 0 -42 8 -52 23c-9 -15 -27 -23 -54 -23c10 -7 15 -16 15 -29c0 -44 -53 -78 -137 -78zM463 708h42v-234h-42v234zM979 582c-35 0 -67 -27 -97 -82
l137 -1c4 15 6 25 6 31c0 32 -18 52 -46 52zM149 579h-27c-32 0 -48 -13 -48 -40c0 -23 14 -35 42 -35c13 0 24 3 33 8v67zM971 263c0 -16 5 -30 15 -41h78v-40h-259c-27 0 -46 8 -55 23c-10 -15 -30 -23 -60 -23h-156v-203c0 -24 13 -36 38 -36h17c22 0 33 12 33 35v54h41
v-60c0 -19 10 -29 31 -29s31 12 31 35v54h40v-60c0 -19 10 -29 31 -29s31 12 31 36v79h41v-93c0 -41 -22 -62 -66 -62c-21 0 -38 8 -50 24c-11 -16 -28 -24 -51 -24s-40 8 -51 23c-13 -15 -33 -23 -59 -23h-19c-26 0 -44 8 -55 24c-11 -16 -32 -24 -61 -24h-187
c-15 -15 -37 -23 -65 -23h-35c-9 7 -15 15 -20 24l-21 -1c-19 -1 -28 -12 -28 -32v-61h-40v68c0 43 21 65 63 65h12c-1 8 -2 15 -2 20c0 47 33 81 82 81c47 0 76 -32 76 -80c0 -5 -1 -12 -2 -21h166c27 0 37 12 37 41v198h-140c-27 0 -45 8 -54 24c-12 -16 -33 -24 -62 -24
h-8c-28 0 -48 6 -60 19c-16 -8 -34 -12 -54 -12c-45 0 -74 25 -74 66c0 49 33 79 93 79h63v-83c0 -21 9 -29 37 -29h2c28 0 39 11 39 42v70h40v-74c0 -25 13 -38 40 -38h138v80h42v-80h155c27 0 38 11 38 42v148h41v-155c0 -23 13 -35 38 -35h135c-9 15 -13 30 -13 45
c0 45 30 74 83 74c11 0 25 -2 44 -6l-7 -36c-13 3 -24 4 -31 4c-31 0 -46 -13 -46 -40zM156 234v67h-28c-32 0 -48 -13 -48 -40c0 -24 14 -36 42 -36c9 0 21 3 34 9zM279 132c0 -13 -9 -22 -21 -22c-15 0 -22 7 -22 22s7 22 22 22c14 0 21 -7 21 -22zM339 132
c0 -15 -7 -22 -20 -22c-15 0 -22 7 -22 22c0 12 9 22 22 22c12 0 20 -10 20 -22zM982 62c49 0 73 -32 73 -80v-58c0 -68 -42 -96 -131 -92l-2 38c61 -3 91 11 92 44c-9 -4 -21 -6 -36 -6c-45 0 -74 28 -74 75c0 45 31 79 78 79zM1017 -53v35c0 30 -12 45 -36 45
c-23 0 -38 -18 -38 -45c0 -25 16 -41 41 -41c13 0 24 2 33 6zM188 -84h16c32 0 49 20 49 48c6 56 -88 57 -82 -2c0 -17 6 -33 17 -46z" />
    <glyph glyph-name="uniFE82" unicode="&#x622;" horiz-adv-x="279" arabic-form="final" 
d="M171 820c-18 0 -43 5 -76 14s-55 13 -65 13c-15 0 -32 -6 -49 -19l-22 26c25 22 49 33 73 33c12 0 34 -4 67 -13s56 -14 69 -14c19 0 37 9 56 26l25 -24c-19 -28 -45 -42 -78 -42zM279 0c-136 0 -198 54 -198 169v587h60v-583c0 -77 46 -116 138 -116c13 0 20 -9 20 -28
s-7 -29 -20 -29z" />
    <glyph glyph-name="uniFE84" unicode="&#x623;" horiz-adv-x="279" arabic-form="final" 
d="M106 843h87v-32h-160v32h39c-11 18 -16 36 -16 53c0 45 34 75 82 75c13 0 29 -2 46 -6l-6 -32c-11 3 -23 5 -35 5c-48 0 -70 -42 -37 -95zM279 57c13 0 20 -9 20 -28s-7 -29 -20 -29c-136 0 -198 54 -198 169v587h60v-583c0 -77 46 -116 138 -116z" />
    <glyph glyph-name="uniFE86" unicode="&#x624;" horiz-adv-x="533" arabic-form="final" 
d="M232 579h113v-40h-206v40h50c-14 22 -21 45 -21 70c0 57 42 93 103 93c19 0 40 -2 62 -7l-8 -39c-22 3 -37 5 -46 5c-39 0 -69 -19 -69 -58c0 -20 7 -41 22 -64zM432 57h101c13 0 20 -9 20 -28s-7 -29 -20 -29h-103c-15 -115 -105 -173 -272 -173c-15 0 -28 0 -41 1
l-3 55c161 -9 247 30 256 117h-77c-160 0 -238 74 -238 199c0 59 18 110 55 151c36 41 83 62 141 62c111 0 181 -72 181 -191v-164zM116 206c0 -101 57 -149 184 -149h72v144c0 96 -44 153 -123 153c-76 0 -133 -60 -133 -148z" />
    <glyph glyph-name="uniFE88" unicode="&#x625;" horiz-adv-x="279" arabic-form="final" 
d="M279 57c13 0 20 -9 20 -28s-7 -29 -20 -29c-136 0 -198 54 -198 169v587h60v-583c0 -77 46 -116 138 -116zM117 -170c0 -17 5 -33 16 -48h87v-32h-160v32h38c-10 16 -15 33 -15 52c0 45 33 76 81 76c15 0 30 -2 47 -7l-6 -31c-11 3 -23 5 -35 5c-31 0 -53 -18 -53 -47z
" />
    <glyph glyph-name="uniFE8A" unicode="&#x626;" horiz-adv-x="764" arabic-form="final" 
d="M163 248h113v-40h-206v40h50c-14 22 -21 45 -21 70c0 57 42 93 103 93c19 0 40 -2 62 -7l-8 -39c-22 3 -37 5 -46 5c-39 0 -69 -19 -69 -58c0 -20 7 -41 22 -64zM653 57h111c13 0 20 -9 20 -28s-7 -29 -20 -29h-98c29 -19 44 -47 44 -83c0 -49 -31 -91 -93 -126
c-62 -34 -144 -51 -245 -51c-219 0 -326 82 -326 227c0 38 8 81 23 129l56 -15c-12 -44 -18 -80 -18 -107c0 -117 82 -175 269 -175c83 0 150 11 199 34s74 52 74 87c0 44 -43 77 -128 98l-115 29l15 51l135 -32c25 -6 58 -9 97 -9z" />
    <glyph glyph-name="uniFE8B" unicode="&#x626;" horiz-adv-x="279" arabic-form="initial" 
d="M140 568h113v-40h-206v40h50c-14 22 -21 45 -21 70c0 57 42 93 103 93c19 0 40 -2 62 -7l-8 -39c-22 3 -37 5 -46 5c-39 0 -69 -19 -69 -58c0 -20 7 -41 22 -64zM128 197v204h60v-213c0 -125 -61 -188 -184 -188h-4v57h6c85 0 122 41 122 140z" />
    <glyph glyph-name="uniFE8C" unicode="&#x626;" horiz-adv-x="324" arabic-form="medial" 
d="M140 568h113v-40h-206v40h50c-14 22 -21 45 -21 70c0 57 42 93 103 93c19 0 40 -2 62 -7l-8 -39c-22 3 -37 5 -46 5c-39 0 -69 -19 -69 -58c0 -20 7 -41 22 -64zM324 57c13 0 20 -9 20 -28s-7 -29 -20 -29c-79 0 -133 25 -160 76c-28 -51 -81 -76 -160 -76h-4v57h6
c85 0 122 41 122 140v204h60v-213v-4c0 -85 45 -127 136 -127z" />
    <glyph glyph-name="uniFE8E" unicode="&#x627;" horiz-adv-x="279" arabic-form="final" 
d="M279 0c-136 0 -198 54 -198 169v587h60v-583c0 -77 46 -116 138 -116c13 0 20 -9 20 -28s-7 -29 -20 -29z" />
    <glyph glyph-name="uniFE90" unicode="&#x628;" horiz-adv-x="998" arabic-form="final" 
d="M998 57c13 0 20 -9 20 -28s-7 -29 -20 -29c-80 0 -134 26 -161 78c-33 -52 -88 -78 -167 -78h-394c-145 0 -230 71 -230 188c0 46 11 98 32 156l56 -15c-18 -58 -27 -102 -27 -131c0 -94 59 -141 177 -141h379c95 0 139 43 139 140v204h60v-217c0 -85 45 -127 136 -127z
M440 -90c52 0 52 -82 0 -82c-55 0 -55 82 0 82z" />
    <glyph glyph-name="uniFE91" unicode="&#x628;" horiz-adv-x="249" arabic-form="initial" 
d="M0 0v57c91 0 128 39 128 140v204h60v-213c0 -131 -63 -188 -188 -188zM120 -172c-55 0 -55 82 0 82c52 0 52 -82 0 -82z" />
    <glyph glyph-name="uniFE92" unicode="&#x628;" horiz-adv-x="324" arabic-form="medial" 
d="M324 57c13 0 20 -9 20 -28s-7 -29 -20 -29c-79 0 -133 25 -160 76c-28 -51 -83 -76 -164 -76v57c91 0 128 39 128 140v204h60v-213v-4c0 -85 45 -127 136 -127zM148 -90c52 0 52 -82 0 -82c-55 0 -55 82 0 82z" />
    <glyph glyph-name="uniFE94" unicode="&#x629;" horiz-adv-x="549" arabic-form="final" 
d="M201 520c-23 0 -41 17 -41 41s18 41 41 41c53 5 53 -87 0 -82zM334 520c-55 -5 -55 87 0 82c52 5 52 -87 0 -82zM549 57c13 0 20 -9 20 -28s-7 -29 -20 -29c-94 0 -150 19 -168 57c-47 -22 -94 -33 -140 -33c-124 0 -201 64 -201 175c0 123 86 202 229 202h159v-250
c0 -73 30 -94 121 -94zM366 112v232h-108c-96 0 -157 -48 -157 -139c0 -80 52 -122 145 -122c46 0 86 10 120 29z" />
    <glyph glyph-name="uniFE96" unicode="&#x62a;" horiz-adv-x="998" arabic-form="final" 
d="M382 432c-23 0 -41 17 -41 41s18 41 41 41c53 5 53 -87 0 -82zM515 432c-55 -5 -55 87 0 82c52 5 52 -87 0 -82zM998 57c13 0 20 -9 20 -28s-7 -29 -20 -29c-80 0 -134 26 -161 78c-33 -52 -88 -78 -167 -78h-394c-145 0 -230 71 -230 188c0 46 11 98 32 156l56 -15
c-18 -58 -27 -102 -27 -131c0 -94 59 -141 177 -141h379c95 0 139 43 139 140v204h60v-217c0 -85 45 -127 136 -127z" />
    <glyph glyph-name="uniFE97" unicode="&#x62a;" horiz-adv-x="279" arabic-form="initial" 
d="M90 520c-23 0 -41 17 -41 41s18 41 41 41c53 5 53 -87 0 -82zM223 520c-55 -5 -55 87 0 82c52 5 52 -87 0 -82zM4 0h-4v57h6c85 0 122 41 122 140v204h60v-213c0 -125 -61 -188 -184 -188z" />
    <glyph glyph-name="uniFE98" unicode="&#x62a;" horiz-adv-x="324" arabic-form="medial" 
d="M90 520c-23 0 -41 17 -41 41s18 41 41 41c53 5 53 -87 0 -82zM223 520c-55 -5 -55 87 0 82c52 5 52 -87 0 -82zM324 57c13 0 20 -9 20 -28s-7 -29 -20 -29c-79 0 -133 25 -160 76c-28 -51 -81 -76 -160 -76h-4v57h6c85 0 122 41 122 140v204h60v-213v-4
c0 -85 45 -127 136 -127z" />
    <glyph glyph-name="uniFE9A" unicode="&#x62b;" horiz-adv-x="998" arabic-form="final" 
d="M451 534c-24 0 -41 18 -41 42c0 23 17 41 41 41c23 0 40 -18 40 -41c0 -24 -17 -42 -40 -42zM382 435c-23 0 -41 17 -41 41c0 23 18 41 41 41c24 0 41 -18 41 -41c0 -24 -17 -41 -41 -41zM473 476c0 23 18 41 42 41c23 0 40 -18 40 -41c0 -24 -17 -41 -40 -41
c-24 0 -42 17 -42 41zM998 57c13 0 20 -9 20 -28s-7 -29 -20 -29c-80 0 -134 26 -161 78c-33 -52 -88 -78 -167 -78h-394c-145 0 -230 71 -230 188c0 46 11 98 32 156l56 -15c-18 -58 -27 -102 -27 -131c0 -94 59 -141 177 -141h379c95 0 139 43 139 140v204h60v-217
c0 -85 45 -127 136 -127z" />
    <glyph glyph-name="uniFE9B" unicode="&#x62b;" horiz-adv-x="279" arabic-form="initial" 
d="M159 622c-24 0 -41 18 -41 42c0 23 17 41 41 41c23 0 40 -18 40 -41c0 -24 -17 -42 -40 -42zM90 523c-23 0 -41 17 -41 41c0 23 18 41 41 41c24 0 41 -18 41 -41c0 -24 -17 -41 -41 -41zM223 523c-24 0 -42 17 -42 41c0 23 18 41 42 41c23 0 40 -18 40 -41
c0 -24 -17 -41 -40 -41zM4 0h-4v57h6c85 0 122 41 122 140v204h60v-213c0 -125 -61 -188 -184 -188z" />
    <glyph glyph-name="uniFE9C" unicode="&#x62b;" horiz-adv-x="324" arabic-form="medial" 
d="M159 622c-24 0 -41 18 -41 42c0 23 17 41 41 41c23 0 40 -18 40 -41c0 -24 -17 -42 -40 -42zM90 523c-23 0 -41 17 -41 41c0 23 18 41 41 41c24 0 41 -18 41 -41c0 -24 -17 -41 -41 -41zM181 564c0 23 18 41 42 41c23 0 40 -18 40 -41c0 -24 -17 -41 -40 -41
c-24 0 -42 17 -42 41zM324 57c13 0 20 -9 20 -28s-7 -29 -20 -29c-79 0 -133 25 -160 76c-28 -51 -81 -76 -160 -76h-4v57h6c85 0 122 41 122 140v204h60v-213v-4c0 -85 45 -127 136 -127z" />
    <glyph glyph-name="uniFE9E" unicode="&#x62c;" horiz-adv-x="658" arabic-form="final" 
d="M536 57h122c13 0 20 -9 20 -28s-7 -29 -20 -29h-444c-71 0 -113 -35 -113 -98c0 -67 49 -103 134 -103c20 0 41 2 63 7l12 -57c-23 -6 -50 -9 -82 -9c-112 0 -188 61 -188 161c0 96 65 156 168 156h266c8 30 12 59 12 88c0 127 -71 208 -202 208c-33 0 -71 -7 -114 -20
l-15 54c43 16 89 24 138 24c164 0 251 -101 251 -262c0 -27 -3 -58 -8 -92zM257 -68c26 25 65 6 65 -27c0 -23 -16 -38 -37 -38c-34 0 -53 41 -28 65z" />
    <glyph glyph-name="uniFE9F" unicode="&#x62c;" horiz-adv-x="490" arabic-form="initial" 
d="M401 0h-401v57h353c32 126 4 296 -190 296c-34 0 -72 -7 -114 -20l-15 54c43 16 89 24 138 24c219 0 294 -173 229 -411zM198 -172c-55 0 -55 82 0 82c52 0 52 -82 0 -82z" />
    <glyph glyph-name="uniFEA0" unicode="&#x62c;" horiz-adv-x="536" arabic-form="medial" 
d="M414 57h122c13 0 20 -9 20 -28s-7 -29 -20 -29h-536v57h353c32 126 4 296 -190 296c-34 0 -72 -7 -114 -20l-15 54c43 16 89 24 138 24c98 0 168 -32 210 -96c41 -65 52 -151 32 -258zM198 -90c52 0 52 -82 0 -82c-55 0 -55 82 0 82z" />
    <glyph glyph-name="uniFEA2" unicode="&#x62d;" horiz-adv-x="658" arabic-form="final" 
d="M536 57h122c13 0 20 -9 20 -28s-7 -29 -20 -29h-444c-71 0 -113 -35 -113 -98c0 -67 49 -103 134 -103c27 0 58 5 93 14l11 -55c-38 -12 -75 -18 -111 -18c-112 0 -188 61 -188 161c0 96 65 156 168 156h266c8 30 12 59 12 88c0 127 -71 208 -202 208
c-33 0 -71 -7 -114 -20l-15 54c43 16 89 24 138 24c164 0 251 -101 251 -262c0 -27 -3 -58 -8 -92z" />
    <glyph glyph-name="uniFEA3" unicode="&#x62d;" horiz-adv-x="490" arabic-form="initial" 
d="M401 0h-401v57h353c32 126 4 296 -190 296c-34 0 -72 -7 -114 -20l-15 54c43 16 89 24 138 24c219 0 294 -173 229 -411z" />
    <glyph glyph-name="uniFEA4" unicode="&#x62d;" horiz-adv-x="536" arabic-form="medial" 
d="M414 57h122c13 0 20 -9 20 -28s-7 -29 -20 -29h-536v57h353c32 126 4 296 -190 296c-34 0 -72 -7 -114 -20l-15 54c43 16 89 24 138 24c98 0 168 -32 210 -96c41 -65 52 -151 32 -258z" />
    <glyph glyph-name="uniFEA6" unicode="&#x62e;" horiz-adv-x="658" arabic-form="final" 
d="M293 530c-55 0 -55 82 0 82c52 0 52 -82 0 -82zM536 57h122c13 0 20 -9 20 -28s-7 -29 -20 -29h-444c-71 0 -113 -35 -113 -98c0 -67 49 -103 134 -103c27 0 58 5 93 14l11 -55c-38 -12 -75 -18 -111 -18c-112 0 -188 61 -188 161c0 96 65 156 168 156h266
c8 30 12 59 12 88c0 127 -71 208 -202 208c-33 0 -71 -7 -114 -20l-15 54c43 16 89 24 138 24c164 0 251 -101 251 -262c0 -27 -3 -58 -8 -92z" />
    <glyph glyph-name="uniFEA7" unicode="&#x62e;" horiz-adv-x="490" arabic-form="initial" 
d="M172 530c-55 0 -55 82 0 82c52 0 52 -82 0 -82zM401 0h-401v57h353c32 126 4 296 -190 296c-34 0 -72 -7 -114 -20l-15 54c43 16 89 24 138 24c219 0 294 -173 229 -411z" />
    <glyph glyph-name="uniFEA8" unicode="&#x62e;" horiz-adv-x="536" arabic-form="medial" 
d="M172 530c-55 0 -55 82 0 82c52 0 52 -82 0 -82zM414 57h122c13 0 20 -9 20 -28s-7 -29 -20 -29h-536v57h353c32 126 4 296 -190 296c-34 0 -72 -7 -114 -20l-15 54c43 16 89 24 138 24c98 0 168 -32 210 -96c41 -65 52 -151 32 -258z" />
    <glyph glyph-name="uniFEAA" unicode="&#x62f;" horiz-adv-x="555" arabic-form="final" 
d="M442 57h113c13 0 20 -9 20 -28s-7 -29 -20 -29h-515v57h342v22c0 113 -69 214 -206 303l36 48c85 -56 145 -113 179 -170s51 -124 51 -199v-4z" />
    <glyph glyph-name="uniFEAC" unicode="&#x630;" horiz-adv-x="555" arabic-form="final" 
d="M192 526c-55 0 -55 82 0 82c52 0 52 -82 0 -82zM442 57h113c13 0 20 -9 20 -28s-7 -29 -20 -29h-515v57h342v22c0 113 -69 214 -206 303l36 48c85 -56 145 -113 179 -170s51 -124 51 -199v-4z" />
    <glyph glyph-name="uniFEAE" unicode="&#x631;" horiz-adv-x="336" arabic-form="final" 
d="M204 57h132c13 0 20 -9 20 -28s-7 -29 -20 -29h-137v6c-18 -104 -82 -163 -191 -178l-12 56c105 17 149 68 149 185v332h60v-320c0 -11 0 -19 -1 -24z" />
    <glyph glyph-name="uniFEB0" unicode="&#x632;" horiz-adv-x="336" arabic-form="final" 
d="M176 520c-55 0 -55 82 0 82c52 0 52 -82 0 -82zM204 57h132c13 0 20 -9 20 -28s-7 -29 -20 -29h-137v6c-18 -104 -82 -163 -191 -178l-12 56c105 17 149 68 149 185v332h60v-320c0 -11 0 -19 -1 -24z" />
    <glyph glyph-name="uniFEB2" unicode="&#x633;" horiz-adv-x="1267" arabic-form="final" 
d="M1267 57c13 0 20 -9 20 -28s-7 -29 -20 -29c-79 0 -132 25 -159 74c-28 -49 -77 -74 -147 -74c-69 0 -116 25 -140 74c-27 -51 -75 -76 -145 -76c-49 0 -85 15 -108 46c-13 -135 -111 -208 -263 -208c-165 0 -259 90 -259 226c0 53 14 112 41 177l53 -19
c-22 -55 -33 -106 -33 -151c0 -116 73 -174 200 -174c135 0 202 65 202 195v238h60v-171c0 -67 36 -100 107 -100c73 0 112 37 112 134v137h60v-166c0 -70 37 -105 112 -105c77 0 111 41 111 140v204h60v-217c0 -85 45 -127 136 -127z" />
    <glyph glyph-name="uniFEB3" unicode="&#x633;" horiz-adv-x="818" arabic-form="initial" 
d="M697 197v204h60v-228c0 -109 -63 -173 -171 -173c-68 0 -114 25 -139 74c-25 -49 -73 -74 -145 -74c-69 0 -114 23 -134 70c-24 -41 -80 -70 -156 -70h-12v57h13c81 0 122 37 122 134v137h60v-167c0 -69 35 -104 106 -104c75 0 113 37 113 134v137h60v-166
c0 -70 37 -105 112 -105c77 0 111 43 111 140z" />
    <glyph glyph-name="uniFEB4" unicode="&#x633;" horiz-adv-x="893" arabic-form="medial" 
d="M893 57c13 0 20 -9 20 -28s-7 -29 -20 -29c-79 0 -132 25 -159 75c-27 -50 -77 -75 -148 -75c-68 0 -114 25 -139 74c-25 -49 -73 -74 -145 -74c-69 0 -114 23 -134 70c-24 -41 -80 -70 -156 -70h-12v57h13c81 0 122 37 122 134v137h60v-167c0 -69 35 -104 106 -104
c75 0 113 37 113 134v137h60v-166c0 -70 37 -105 112 -105c77 0 111 43 111 140v204h60v-217c0 -85 45 -127 136 -127z" />
    <glyph glyph-name="uniFEB6" unicode="&#x634;" horiz-adv-x="1267" arabic-form="final" 
d="M820 549c-24 0 -41 18 -41 42c0 23 17 41 41 41c23 0 40 -18 40 -41c0 -24 -17 -42 -40 -42zM751 450c-23 0 -41 17 -41 41c0 23 18 41 41 41c24 0 41 -18 41 -41c0 -24 -17 -41 -41 -41zM842 491c0 23 18 41 42 41c23 0 40 -18 40 -41c0 -24 -17 -41 -40 -41
c-24 0 -42 17 -42 41zM1267 57c13 0 20 -9 20 -28s-7 -29 -20 -29c-79 0 -132 25 -159 74c-28 -49 -77 -74 -147 -74c-69 0 -116 25 -140 74c-27 -51 -75 -76 -145 -76c-49 0 -85 15 -108 46c-13 -135 -111 -208 -263 -208c-165 0 -259 90 -259 226c0 53 14 112 41 177
l53 -19c-22 -55 -33 -106 -33 -151c0 -116 73 -174 200 -174c135 0 202 65 202 195v238h60v-171c0 -67 36 -100 107 -100c73 0 112 37 112 134v137h60v-166c0 -70 37 -105 112 -105c77 0 111 41 111 140v204h60v-217c0 -85 45 -127 136 -127z" />
    <glyph glyph-name="uniFEB7" unicode="&#x634;" horiz-adv-x="818" arabic-form="initial" 
d="M445 549c-24 0 -41 18 -41 42c0 23 17 41 41 41c23 0 40 -18 40 -41c0 -24 -17 -42 -40 -42zM376 450c-23 0 -41 17 -41 41c0 23 18 41 41 41c24 0 41 -18 41 -41c0 -24 -17 -41 -41 -41zM467 491c0 23 18 41 42 41c23 0 40 -18 40 -41c0 -24 -17 -41 -40 -41
c-24 0 -42 17 -42 41zM697 197v204h60v-228c0 -109 -63 -173 -171 -173c-68 0 -114 25 -139 74c-25 -49 -73 -74 -145 -74c-69 0 -114 23 -134 70c-24 -41 -80 -70 -156 -70h-12v57h13c81 0 122 37 122 134v137h60v-167c0 -69 35 -104 106 -104c75 0 113 37 113 134v137h60
v-166c0 -70 37 -105 112 -105c77 0 111 43 111 140z" />
    <glyph glyph-name="uniFEB8" unicode="&#x634;" horiz-adv-x="893" arabic-form="medial" 
d="M445 549c-24 0 -41 18 -41 42c0 23 17 41 41 41c23 0 40 -18 40 -41c0 -24 -17 -42 -40 -42zM376 450c-23 0 -41 17 -41 41c0 23 18 41 41 41c24 0 41 -18 41 -41c0 -24 -17 -41 -41 -41zM467 491c0 23 18 41 42 41c23 0 40 -18 40 -41c0 -24 -17 -41 -40 -41
c-24 0 -42 17 -42 41zM893 57c13 0 20 -9 20 -28s-7 -29 -20 -29c-79 0 -132 25 -159 75c-27 -50 -77 -75 -148 -75c-68 0 -114 25 -139 74c-25 -49 -73 -74 -145 -74c-69 0 -114 23 -134 70c-24 -41 -80 -70 -156 -70h-12v57h13c81 0 122 37 122 134v137h60v-167
c0 -69 35 -104 106 -104c75 0 113 37 113 134v137h60v-166c0 -70 37 -105 112 -105c77 0 111 43 111 140v204h60v-217c0 -85 45 -127 136 -127z" />
    <glyph glyph-name="uniFEBA" unicode="&#x635;" horiz-adv-x="1368" arabic-form="final" 
d="M1248 57h120c13 0 20 -9 20 -28s-7 -29 -20 -29h-689c-50 0 -87 12 -112 35c-17 -129 -114 -199 -262 -199c-165 0 -259 90 -259 226c0 53 14 112 41 177l53 -19c-22 -55 -33 -106 -33 -151c0 -116 73 -174 200 -174c135 0 202 65 202 195v238h60v-185
c0 -43 21 -70 64 -81c72 135 153 233 225 282c72 48 131 67 191 67c137 0 213 -96 213 -241c0 -34 -5 -72 -14 -113zM696 57h487c12 39 18 75 18 110c0 111 -58 186 -158 186c-113 0 -236 -95 -347 -296z" />
    <glyph glyph-name="uniFEBB" unicode="&#x635;" horiz-adv-x="928" arabic-form="initial" 
d="M649 411c137 0 213 -96 213 -241c0 -54 -10 -111 -31 -170h-552c-69 0 -114 23 -135 68c-21 -45 -69 -68 -144 -68v57c76 0 110 41 110 134v143h60v-173c0 -51 21 -84 64 -98c72 135 153 232 225 281c72 48 131 67 190 67zM296 57h487c12 36 18 73 18 110
c0 111 -58 186 -158 186c-113 0 -235 -95 -347 -296z" />
    <glyph glyph-name="uniFEBC" unicode="&#x635;" horiz-adv-x="968" arabic-form="medial" 
d="M848 57h120c13 0 20 -9 20 -28s-7 -29 -20 -29h-689c-69 0 -114 23 -135 68c-21 -45 -69 -68 -144 -68v57c76 0 110 41 110 134v143h60v-173c0 -51 21 -84 64 -98c72 135 153 232 225 281c72 48 131 67 190 67c137 0 213 -96 213 -241c0 -34 -5 -72 -14 -113zM296 57h487
c12 36 18 73 18 110c0 111 -58 186 -158 186c-113 0 -235 -95 -347 -296z" />
    <glyph glyph-name="uniFEBE" unicode="&#x636;" horiz-adv-x="1368" arabic-form="final" 
d="M961 530c-55 0 -55 82 0 82c52 0 52 -82 0 -82zM1248 57h120c13 0 20 -9 20 -28s-7 -29 -20 -29h-689c-50 0 -87 12 -112 35c-17 -129 -114 -199 -262 -199c-165 0 -259 90 -259 226c0 53 14 112 41 177l53 -19c-22 -55 -33 -106 -33 -151c0 -116 73 -174 200 -174
c135 0 202 65 202 195v238h60v-185c0 -43 21 -70 64 -81c72 135 153 233 225 282c72 48 131 67 191 67c137 0 213 -96 213 -241c0 -34 -5 -72 -14 -113zM696 57h487c12 39 18 75 18 110c0 111 -58 186 -158 186c-113 0 -236 -95 -347 -296z" />
    <glyph glyph-name="uniFEBF" unicode="&#x636;" horiz-adv-x="928" arabic-form="initial" 
d="M561 530c-55 0 -55 82 0 82c52 0 52 -82 0 -82zM649 411c137 0 213 -96 213 -241c0 -54 -10 -111 -31 -170h-552c-69 0 -114 23 -135 68c-21 -45 -69 -68 -144 -68v57c76 0 110 41 110 134v143h60v-173c0 -51 21 -84 64 -98c72 135 153 232 225 281c72 48 131 67 190 67z
M296 57h487c12 36 18 73 18 110c0 111 -58 186 -158 186c-113 0 -235 -95 -347 -296z" />
    <glyph glyph-name="uniFEC0" unicode="&#x636;" horiz-adv-x="968" arabic-form="medial" 
d="M561 530c-55 0 -55 82 0 82c52 0 52 -82 0 -82zM848 57h120c13 0 20 -9 20 -28s-7 -29 -20 -29h-689c-69 0 -114 23 -135 68c-21 -45 -69 -68 -144 -68v57c76 0 110 41 110 134v143h60v-173c0 -51 21 -84 64 -98c72 135 153 232 225 281c72 48 131 67 190 67
c137 0 213 -96 213 -241c0 -34 -5 -72 -14 -113zM296 57h487c12 36 18 73 18 110c0 111 -58 186 -158 186c-113 0 -235 -95 -347 -296z" />
    <glyph glyph-name="uniFEC2" unicode="&#x637;" horiz-adv-x="892" arabic-form="final" 
d="M771 57h121c13 0 20 -9 20 -28s-7 -29 -20 -29h-846v57h113v699h60v-596c101 165 231 251 354 251c137 0 212 -98 212 -241c0 -38 -5 -76 -14 -113zM220 57h487c12 39 18 77 18 113c0 111 -57 183 -157 183c-59 0 -119 -26 -182 -77s-119 -124 -166 -219z" />
    <glyph glyph-name="uniFEC3" unicode="&#x637;" horiz-adv-x="798" arabic-form="initial" 
d="M520 411c137 0 212 -98 212 -241c0 -55 -10 -112 -30 -170h-702v57h106v699h60v-596c101 165 231 251 354 251zM167 57h487c12 39 18 77 18 113c0 111 -57 183 -157 183c-59 0 -119 -26 -182 -77s-119 -124 -166 -219z" />
    <glyph glyph-name="uniFEC4" unicode="&#x637;" horiz-adv-x="835" arabic-form="medial" 
d="M718 57h117c13 0 20 -9 20 -28s-7 -29 -20 -29h-835v57h106v699h60v-596c101 165 231 251 354 251c137 0 212 -98 212 -241c0 -38 -5 -76 -14 -113zM167 57h487c12 39 18 77 18 113c0 111 -57 183 -157 183c-59 0 -119 -26 -182 -77s-119 -124 -166 -219z" />
    <glyph glyph-name="uniFEC6" unicode="&#x638;" horiz-adv-x="892" arabic-form="final" 
d="M771 57h121c13 0 20 -9 20 -28s-7 -29 -20 -29h-846v57h113v699h60v-596c101 165 231 251 354 251c137 0 212 -98 212 -241c0 -38 -5 -76 -14 -113zM503 530c-55 0 -55 82 0 82c52 0 52 -82 0 -82zM220 57h487c12 39 18 77 18 113c0 111 -57 183 -157 183
c-59 0 -119 -26 -182 -77s-119 -124 -166 -219z" />
    <glyph glyph-name="uniFEC7" unicode="&#x638;" horiz-adv-x="798" arabic-form="initial" 
d="M520 411c137 0 212 -98 212 -241c0 -55 -10 -112 -30 -170h-702v57h106v699h60v-596c101 165 231 251 354 251zM450 530c-55 0 -55 82 0 82c52 0 52 -82 0 -82zM167 57h487c12 39 18 77 18 113c0 111 -57 183 -157 183c-59 0 -119 -26 -182 -77s-119 -124 -166 -219z" />
    <glyph glyph-name="uniFEC8" unicode="&#x638;" horiz-adv-x="835" arabic-form="medial" 
d="M718 57h117c13 0 20 -9 20 -28s-7 -29 -20 -29h-835v57h106v699h60v-596c101 165 231 251 354 251c137 0 212 -98 212 -241c0 -38 -5 -76 -14 -113zM450 530c-55 0 -55 82 0 82c52 0 52 -82 0 -82zM167 57h487c12 39 18 77 18 113c0 111 -57 183 -157 183
c-59 0 -119 -26 -182 -77s-119 -124 -166 -219z" />
    <glyph glyph-name="uniFECA" unicode="&#x639;" horiz-adv-x="575" arabic-form="final" 
d="M484 57h91c13 0 20 -9 20 -28s-7 -29 -20 -29h-87c-95 0 -168 14 -221 43c-111 -38 -166 -87 -166 -147c0 -65 46 -97 139 -97c31 0 61 4 91 12l11 -55c-35 -11 -69 -16 -103 -16c-124 0 -199 54 -199 155c0 83 62 147 186 193c-27 39 -78 101 -153 186c3 27 7 49 13 65
c67 48 138 72 215 72c111 0 184 -54 184 -142c0 -75 -48 -140 -144 -195c37 -11 85 -17 143 -17zM125 304l-1 -5c41 -36 95 -99 162 -189c85 40 137 95 137 150s-48 93 -129 93c-57 0 -113 -16 -169 -49z" />
    <glyph glyph-name="uniFECB" unicode="&#x639;" horiz-adv-x="480" arabic-form="initial" 
d="M212 57h234v-57h-446v57h141c-34 51 -51 103 -51 156c0 119 81 198 225 198c35 0 72 -5 109 -15l-12 -56c-35 9 -67 13 -96 13c-104 0 -165 -56 -165 -141c0 -52 20 -104 61 -155z" />
    <glyph glyph-name="uniFECC" unicode="&#x639;" horiz-adv-x="582" arabic-form="medial" 
d="M506 57h76c13 0 20 -9 20 -28s-7 -29 -20 -29h-71c-97 0 -174 14 -233 42c-67 -28 -149 -42 -247 -42h-31v57h36c77 0 142 9 195 28c-24 36 -65 83 -91 113c-13 14 -57 61 -68 73c4 30 9 52 14 67c66 48 138 72 216 72c111 0 182 -55 182 -144c0 -72 -46 -135 -138 -189
c46 -13 99 -20 160 -20zM125 300l-1 -7c53 -45 108 -106 165 -182c89 43 134 92 134 147c0 53 -49 93 -133 93c-55 0 -110 -17 -165 -51z" />
    <glyph glyph-name="uniFECE" unicode="&#x63a;" horiz-adv-x="575" arabic-form="final" 
d="M300 530c-55 0 -55 82 0 82c52 0 52 -82 0 -82zM484 57h91c13 0 20 -9 20 -28s-7 -29 -20 -29h-87c-95 0 -168 14 -221 43c-111 -38 -166 -87 -166 -147c0 -65 46 -97 139 -97c31 0 61 4 91 12l11 -55c-35 -11 -69 -16 -103 -16c-124 0 -199 54 -199 155
c0 83 62 147 186 193c-27 39 -78 101 -153 186c3 27 7 49 13 65c67 48 138 72 215 72c111 0 184 -54 184 -142c0 -75 -48 -140 -144 -195c37 -11 85 -17 143 -17zM125 304l-1 -5c41 -36 95 -99 162 -189c85 40 137 95 137 150s-48 93 -129 93c-57 0 -113 -16 -169 -49z" />
    <glyph glyph-name="uniFECF" unicode="&#x63a;" horiz-adv-x="480" arabic-form="initial" 
d="M315 530c-55 0 -55 82 0 82c52 0 52 -82 0 -82zM212 57h234v-57h-446v57h141c-34 51 -51 103 -51 156c0 119 81 198 225 198c35 0 72 -5 109 -15l-12 -56c-35 9 -67 13 -96 13c-104 0 -165 -56 -165 -141c0 -52 20 -104 61 -155z" />
    <glyph glyph-name="uniFED0" unicode="&#x63a;" horiz-adv-x="582" arabic-form="medial" 
d="M296 529c-55 0 -55 82 0 82c52 0 52 -82 0 -82zM506 57h76c13 0 20 -9 20 -28s-7 -29 -20 -29h-71c-97 0 -174 14 -233 42c-67 -28 -149 -42 -247 -42h-31v57h36c77 0 142 9 195 28c-24 36 -65 83 -91 113c-13 14 -57 61 -68 73c4 30 9 52 14 67c66 48 138 72 216 72
c111 0 182 -55 182 -144c0 -72 -46 -135 -138 -189c46 -13 99 -20 160 -20zM125 300l-1 -7c53 -45 108 -106 165 -182c89 43 134 92 134 147c0 53 -49 93 -133 93c-55 0 -110 -17 -165 -51z" />
    <glyph glyph-name="uniFED2" unicode="&#x641;" horiz-adv-x="1075" arabic-form="final" 
d="M787 530c-55 0 -55 82 0 82c52 0 52 -82 0 -82zM958 57h117c13 0 20 -9 20 -28s-7 -29 -20 -29h-112c-69 0 -128 7 -178 21c-50 -14 -111 -21 -183 -21h-326c-145 0 -230 71 -230 188c0 46 11 98 32 156l56 -15c-18 -58 -27 -102 -27 -131c0 -94 59 -141 177 -141h321
c40 0 70 2 89 7c-63 37 -105 99 -105 171c0 51 18 93 55 126s84 50 143 50c116 0 193 -72 193 -176c0 -74 -35 -131 -106 -172c25 -4 53 -6 84 -6zM651 235c0 -73 58 -131 134 -155c36 11 67 30 94 58c26 28 39 61 39 98c0 71 -53 117 -132 117s-135 -49 -135 -118z" />
    <glyph glyph-name="uniFED3" unicode="&#x641;" horiz-adv-x="552" arabic-form="initial" 
d="M299 530c-55 0 -55 82 0 82c52 0 52 -82 0 -82zM299 411c123 0 187 -87 187 -214c0 -57 -15 -123 -44 -197h-442v57h145c-37 39 -56 88 -56 146c0 61 20 111 59 150s89 58 151 58zM214 57h186c16 51 24 97 24 137c0 99 -46 159 -130 159c-87 0 -143 -62 -143 -151
c0 -53 21 -101 63 -145z" />
    <glyph glyph-name="uniFED4" unicode="&#x641;" horiz-adv-x="575" arabic-form="medial" 
d="M287 530c-55 0 -55 82 0 82c52 0 52 -82 0 -82zM458 57h117c13 0 20 -9 20 -28s-7 -29 -20 -29h-112c-69 0 -128 7 -178 21c-50 -14 -111 -21 -183 -21h-102v57h105c40 0 70 2 89 7c-63 37 -105 99 -105 171c0 51 18 93 55 126s84 50 143 50c116 0 193 -72 193 -176
c0 -74 -35 -131 -106 -172c25 -4 53 -6 84 -6zM151 235c0 -73 58 -131 134 -155c36 11 67 30 94 58c26 28 39 61 39 98c0 71 -53 117 -132 117s-135 -49 -135 -118z" />
    <glyph glyph-name="uniFED6" unicode="&#x642;" horiz-adv-x="825" arabic-form="final" 
d="M461 530c-23 0 -41 17 -41 41s18 41 41 41c53 5 53 -87 0 -82zM594 530c-55 -5 -55 87 0 82c52 5 52 -87 0 -82zM708 57h117c13 0 20 -9 20 -28s-7 -29 -20 -29h-120c-19 -120 -118 -164 -319 -164c-227 0 -340 77 -340 232c0 39 8 83 23 130l56 -15
c-12 -37 -18 -72 -18 -107c0 -121 87 -181 279 -181c161 0 248 35 259 105h-81c-155 0 -233 67 -233 201c0 57 18 107 53 148s84 62 145 62c109 0 179 -72 179 -197v-157zM572 57h76v144c0 97 -43 152 -124 152c-79 0 -131 -58 -131 -151c0 -103 59 -145 179 -145z" />
    <glyph glyph-name="uniFED7" unicode="&#x642;" horiz-adv-x="552" arabic-form="initial" 
d="M231 530c-23 0 -41 17 -41 41s18 41 41 41c53 5 53 -87 0 -82zM364 530c-55 -5 -55 87 0 82c52 5 52 -87 0 -82zM299 411c123 0 187 -87 187 -214c0 -57 -15 -123 -44 -197h-442v57h145c-37 39 -56 88 -56 146c0 61 20 111 59 150s89 58 151 58zM214 57h186
c16 51 24 97 24 137c0 99 -46 159 -130 159c-87 0 -143 -62 -143 -151c0 -53 21 -101 63 -145z" />
    <glyph glyph-name="uniFED8" unicode="&#x642;" horiz-adv-x="575" arabic-form="medial" 
d="M219 530c-23 0 -41 17 -41 41s18 41 41 41c53 5 53 -87 0 -82zM352 530c-55 -5 -55 87 0 82c52 5 52 -87 0 -82zM458 57h117c13 0 20 -9 20 -28s-7 -29 -20 -29h-112c-69 0 -128 7 -178 21c-50 -14 -111 -21 -183 -21h-102v57h105c40 0 70 2 89 7
c-63 37 -105 99 -105 171c0 51 18 93 55 126s84 50 143 50c116 0 193 -72 193 -176c0 -74 -35 -131 -106 -172c25 -4 53 -6 84 -6zM151 235c0 -73 58 -131 134 -155c36 11 67 30 94 58c26 28 39 61 39 98c0 71 -53 117 -132 117s-135 -49 -135 -118z" />
    <glyph glyph-name="uniFEDA" unicode="&#x643;" horiz-adv-x="881" arabic-form="final" 
d="M881 57c13 0 20 -9 20 -28s-7 -29 -20 -29c-78 0 -131 25 -158 74c-29 -49 -83 -74 -162 -74h-285c-145 0 -230 71 -230 188c0 46 11 98 32 156l56 -15c-18 -58 -27 -102 -27 -131c0 -94 59 -141 177 -141h277c92 0 124 39 124 140v559h60v-572c0 -85 45 -127 136 -127z
M410 357h95v-39h-195v39h55c-13 19 -19 39 -19 61c0 52 40 92 100 92c15 0 31 -3 48 -8l-8 -38c-14 5 -27 7 -39 7c-36 0 -61 -20 -61 -56c0 -22 8 -41 24 -58z" />
    <glyph glyph-name="uniFEDB" unicode="&#x643;" horiz-adv-x="466" arabic-form="initial" 
d="M360 700l-262 -253c113 -37 192 -84 236 -140c44 -57 66 -128 66 -214v-93h-400v57h342v46c0 76 -23 137 -68 184c-46 46 -125 86 -237 121v60l283 273z" />
    <glyph glyph-name="uniFEDC" unicode="&#x643;" horiz-adv-x="528" arabic-form="medial" 
d="M400 57h128c13 0 20 -9 20 -28s-7 -29 -20 -29h-528v57h342v46c0 76 -23 137 -68 184c-46 46 -125 86 -237 121v60l283 273l40 -41l-262 -253c113 -37 192 -84 236 -140c44 -57 66 -128 66 -214v-36z" />
    <glyph glyph-name="uniFEDE" unicode="&#x644;" horiz-adv-x="682" arabic-form="final" 
d="M568 57h114c13 0 20 -9 20 -28s-7 -29 -20 -29h-123c-31 -104 -124 -164 -257 -164c-157 0 -256 87 -256 226c0 53 14 112 41 177l53 -19c-22 -63 -33 -113 -33 -152c0 -115 71 -173 199 -173c135 0 203 66 203 198v663h60v-678c0 -9 0 -16 -1 -21z" />
    <glyph glyph-name="uniFEDF" unicode="&#x644;" horiz-adv-x="265" arabic-form="initial" 
d="M0 0v57c92 0 124 39 124 140v559h60v-583c0 -115 -61 -173 -184 -173z" />
    <glyph glyph-name="uniFEE0" unicode="&#x644;" horiz-adv-x="320" arabic-form="medial" 
d="M320 57c13 0 20 -9 20 -28s-7 -29 -20 -29c-78 0 -131 25 -158 74c-29 -49 -83 -74 -162 -74v57c92 0 124 39 124 140v559h60v-572c0 -85 45 -127 136 -127z" />
    <glyph glyph-name="uniFEE2" unicode="&#x645;" horiz-adv-x="693" arabic-form="final" 
d="M587 57h106c13 0 20 -9 20 -28s-7 -29 -20 -29h-151c-40 -32 -95 -48 -166 -48h-53c-17 13 -34 29 -49 48h-80c-63 0 -95 -33 -95 -99v-161h-59v161c0 99 56 156 153 156h46c-16 35 -24 71 -24 108c0 59 20 108 59 147c39 38 88 57 147 57c63 0 110 -19 142 -58
c31 -39 47 -87 47 -144c0 -41 -8 -78 -23 -110zM340 9h49c109 0 161 66 161 162c0 85 -50 141 -133 141c-84 0 -142 -58 -142 -149c0 -61 22 -113 65 -154z" />
    <glyph glyph-name="uniFEE3" unicode="&#x645;" horiz-adv-x="546" arabic-form="initial" 
d="M295 411c59 0 106 -19 140 -58c33 -39 50 -89 50 -150c0 -120 -73 -203 -221 -203h-264v57h140c-33 45 -50 93 -50 146c0 61 19 111 58 150c38 39 87 58 147 58zM210 57h59c103 0 155 59 155 147c0 91 -54 149 -135 149s-138 -57 -138 -149c0 -50 20 -99 59 -147z" />
    <glyph glyph-name="uniFEE4" unicode="&#x645;" horiz-adv-x="568" arabic-form="medial" 
d="M461 57h107c13 0 20 -9 20 -28s-7 -29 -20 -29h-154c-41 -32 -95 -48 -163 -48h-53c-17 13 -34 29 -49 48h-149v57h114c-16 35 -24 71 -24 108c0 59 20 108 59 147c39 38 88 57 147 57c63 0 110 -19 142 -58c31 -39 47 -87 47 -144c0 -41 -8 -78 -24 -110zM215 9h49
c109 0 161 66 161 162c0 85 -50 141 -133 141c-84 0 -142 -58 -142 -149c0 -61 22 -113 65 -154z" />
    <glyph glyph-name="uniFEE6" unicode="&#x646;" horiz-adv-x="696" arabic-form="final" 
d="M317 412c-55 0 -55 82 0 82c52 0 52 -82 0 -82zM569 57h127c13 0 20 -9 20 -28s-7 -29 -20 -29h-136c-28 -108 -120 -164 -255 -164c-165 0 -259 90 -259 226c0 53 14 112 41 177l53 -19c-22 -55 -33 -106 -33 -151c0 -116 73 -174 200 -174c135 0 202 65 202 195v238h60
v-253v-18z" />
    <glyph glyph-name="uniFEE7" unicode="&#x646;" horiz-adv-x="249" arabic-form="initial" 
d="M159 520c-55 0 -55 82 0 82c52 0 52 -82 0 -82zM0 0v57c91 0 128 39 128 140v204h60v-213c0 -131 -63 -188 -188 -188z" />
    <glyph glyph-name="uniFEE8" unicode="&#x646;" horiz-adv-x="324" arabic-form="medial" 
d="M159 520c-55 0 -55 82 0 82c52 0 52 -82 0 -82zM324 57c13 0 20 -9 20 -28s-7 -29 -20 -29c-79 0 -133 25 -160 76c-28 -51 -83 -76 -164 -76v57c91 0 128 39 128 140v204h60v-213v-4c0 -85 45 -127 136 -127z" />
    <glyph glyph-name="uniFEE9" unicode="&#x647;" horiz-adv-x="505" arabic-form="isolated" 
d="M242 -5c-129 0 -202 81 -202 198c0 61 18 113 54 155c35 42 85 63 148 63s113 -21 149 -63c35 -43 53 -94 53 -155c0 -119 -77 -198 -202 -198zM244 54c88 0 139 48 139 141c0 95 -50 158 -141 158c-92 0 -141 -63 -141 -158s54 -141 143 -141z" />
    <glyph glyph-name="uniFEEA" unicode="&#x647;" horiz-adv-x="549" arabic-form="final" 
d="M549 57c13 0 20 -9 20 -28s-7 -29 -20 -29c-94 0 -150 19 -168 57c-47 -22 -94 -33 -140 -33c-124 0 -201 64 -201 175c0 123 86 202 229 202h159v-250c0 -73 30 -94 121 -94zM366 112v232h-108c-96 0 -157 -48 -157 -139c0 -80 52 -122 145 -122c46 0 86 10 120 29z" />
    <glyph glyph-name="uniFEEB" unicode="&#x647;" horiz-adv-x="619" arabic-form="initial" 
d="M77 370l9 53c295 -23 477 -105 477 -312c0 -36 -5 -73 -14 -111h-171c-55 0 -103 8 -145 23c-39 -15 -88 -23 -146 -23h-87v57h87c27 0 52 3 76 8c-44 32 -74 88 -74 151s32 119 84 146c-21 3 -53 5 -96 8zM144 218c0 -64 36 -113 87 -138c57 23 100 71 100 139
s-40 114 -93 114c-55 0 -94 -50 -94 -115zM366 57h135c4 19 6 39 6 60c0 94 -51 162 -152 203c21 -29 31 -62 31 -101c0 -65 -36 -124 -85 -156c23 -4 45 -6 65 -6z" />
    <glyph glyph-name="uniFEEC" unicode="&#x647;" horiz-adv-x="506" arabic-form="medial" 
d="M375 57h131c13 0 20 -9 20 -28s-7 -29 -20 -29h-87c17 -33 26 -63 26 -91c0 -91 -70 -149 -178 -149c-120 0 -179 65 -179 182v58h-88v57h88v132c0 135 61 219 180 219c54 0 96 -18 126 -53c29 -36 44 -80 44 -133c0 -70 -21 -125 -63 -165zM148 196v-139h91
c84 0 139 67 139 160c0 79 -45 132 -116 132c-72 0 -114 -53 -114 -153zM271 -181c75 0 112 36 112 95c0 28 -10 57 -29 86h-206v-53c0 -87 39 -128 123 -128z" />
    <glyph glyph-name="uniFEEE" unicode="&#x648;" horiz-adv-x="533" arabic-form="final" 
d="M432 57h101c13 0 20 -9 20 -28s-7 -29 -20 -29h-103c-15 -115 -105 -173 -272 -173c-15 0 -28 0 -41 1l-3 55c161 -9 247 30 256 117h-77c-160 0 -238 74 -238 199c0 59 18 110 55 151c36 41 83 62 141 62c111 0 181 -72 181 -191v-164zM116 206c0 -101 57 -149 184 -149
h72v144c0 96 -44 153 -123 153c-76 0 -133 -60 -133 -148z" />
    <glyph glyph-name="uniFEF0" unicode="&#x649;" horiz-adv-x="764" arabic-form="final" 
d="M653 57h111c13 0 20 -9 20 -28s-7 -29 -20 -29h-98c29 -19 44 -47 44 -83c0 -49 -31 -91 -93 -126c-62 -34 -144 -51 -245 -51c-219 0 -326 82 -326 227c0 38 8 81 23 129l56 -15c-12 -44 -18 -80 -18 -107c0 -117 82 -175 269 -175c83 0 150 11 199 34s74 52 74 87
c0 44 -43 77 -128 98l-115 29l15 51l135 -32c25 -6 58 -9 97 -9z" />
    <glyph glyph-name="uniFEF2" unicode="&#x64a;" horiz-adv-x="764" arabic-form="final" 
d="M653 57h111c13 0 20 -9 20 -28s-7 -29 -20 -29h-98c29 -19 44 -47 44 -83c0 -49 -31 -91 -93 -126c-62 -34 -144 -51 -245 -51c-219 0 -326 82 -326 227c0 38 8 81 23 129l56 -15c-12 -44 -18 -80 -18 -107c0 -117 82 -175 269 -175c83 0 150 11 199 34s74 52 74 87
c0 44 -43 77 -128 98l-115 29l15 51l135 -32c25 -6 58 -9 97 -9zM302 -350c53 5 53 -87 0 -82c-23 0 -41 17 -41 41s18 41 41 41zM435 -350c52 5 52 -87 0 -82c-55 -5 -55 87 0 82z" />
    <glyph glyph-name="uniFEF3" unicode="&#x64a;" horiz-adv-x="279" arabic-form="initial" 
d="M4 0h-4v57h6c85 0 122 41 122 140v204h60v-213c0 -125 -61 -188 -184 -188zM50 -172c-23 0 -41 17 -41 41s18 41 41 41c53 5 53 -87 0 -82zM183 -172c-55 -5 -55 87 0 82c52 5 52 -87 0 -82z" />
    <glyph glyph-name="uniFEF4" unicode="&#x64a;" horiz-adv-x="324" arabic-form="medial" 
d="M324 57c13 0 20 -9 20 -28s-7 -29 -20 -29c-79 0 -133 25 -160 76c-28 -51 -81 -76 -160 -76h-4v57h6c85 0 122 41 122 140v204h60v-213v-4c0 -85 45 -127 136 -127zM79 -90c53 5 53 -87 0 -82c-23 0 -41 17 -41 41s18 41 41 41zM212 -90c52 5 52 -87 0 -82
c-55 -5 -55 87 0 82z" />
    <glyph glyph-name=".notdef" horiz-adv-x="512" 
d="M0 718h512v-718h-512v718zM50 50h412v617h-412v-617zM259 609c73 0 124 -52 124 -131c0 -47 -16 -79 -63 -120c-21 -19 -35 -34 -41 -46c-5 -10 -8 -36 -8 -78h-46c-1 7 -2 14 -2 23c0 30 4 54 12 72c7 17 23 38 46 61c4 4 19 18 23 22s14 16 17 22c5 11 11 24 11 40
c0 48 -35 85 -76 85c-47 0 -74 -32 -82 -95l-50 8c8 88 56 137 135 137zM222 117v67h56v-67h-56z" />
    <glyph glyph-name="null" 
 />
    <glyph glyph-name="nonmarkingreturn" horiz-adv-x="333" 
 />
    <glyph glyph-name="NULL" 
 />
    <glyph glyph-name="NULL" 
 />
    <glyph glyph-name="CR" unicode="&#xd;" horiz-adv-x="260" 
 />
    <glyph glyph-name="space" unicode=" " horiz-adv-x="260" 
 />
    <glyph glyph-name="exclam" unicode="!" horiz-adv-x="370" 
d="M155 186v522h60v-522h-60zM151 76c19 19 49 19 68 0s19 -49 0 -68s-49 -19 -68 0s-19 49 0 68z" />
    <glyph glyph-name="quotedbl" unicode="&#x22;" horiz-adv-x="520" 
d="M161 480v228h60v-228h-60zM299 480v228h60v-228h-60z" />
    <glyph glyph-name="numbersign" unicode="#" horiz-adv-x="520" 
d="M157 481l30 227h52l-31 -227h139l31 227h52l-31 -227h108v-48h-114l-22 -156h108v-48h-115l-30 -229h-52l30 229h-139l-30 -229h-52l30 229h-108v48h115l22 156h-108v48h115zM202 433l-21 -156h138l21 156h-138z" />
    <glyph glyph-name="dollar" unicode="$" horiz-adv-x="520" 
d="M233 720v67h48v-67c81 0 143 -30 185 -89l-55 -40c-32 49 -75 74 -130 75v-282l56 -19c95 -32 142 -93 142 -184c0 -51 -18 -95 -55 -131c-37 -37 -85 -57 -143 -62v-67h-48v67c-80 0 -156 41 -200 105l57 39c35 -57 82 -87 143 -90v290l-71 26c-73 28 -115 91 -115 168
c0 49 18 93 54 130s80 58 132 64zM146 618c-22 -25 -33 -55 -33 -88s9 -60 28 -80c19 -21 49 -37 92 -50v266c-37 -7 -66 -23 -87 -48zM281 314v-272c77 4 132 64 132 143c0 53 -31 91 -92 114z" />
    <glyph glyph-name="percent" unicode="%" horiz-adv-x="815" 
d="M158 -6l456 748l46 -28l-457 -748zM210 720c47 0 88 -17 122 -50c33 -33 50 -74 50 -122s-17 -89 -50 -122c-34 -33 -75 -50 -122 -50s-88 17 -121 51c-34 33 -51 74 -51 121s17 87 51 121s74 51 121 51zM127 632c-23 -23 -35 -51 -35 -84s12 -60 35 -83s50 -35 83 -35
c65 0 118 51 118 118c0 65 -52 118 -119 118c-32 0 -59 -11 -82 -34zM484 281c33 34 74 51 121 51s88 -17 122 -50c33 -33 50 -74 50 -122s-17 -89 -50 -122c-34 -33 -75 -50 -122 -50s-88 17 -121 51c-34 33 -51 74 -51 121s17 87 51 121zM522 244c-23 -23 -35 -51 -35 -84
s12 -60 35 -83s50 -35 83 -35c65 0 118 51 118 118c0 65 -52 118 -119 118c-32 0 -59 -11 -82 -34z" />
    <glyph glyph-name="ampersand" unicode="&#x26;" horiz-adv-x="704" 
d="M473 576c0 -42 -12 -76 -37 -103s-66 -55 -121 -85l172 -182l102 184h68l-128 -226l161 -169h-89l-106 114c-67 -89 -133 -127 -220 -127c-62 0 -113 19 -154 58c-41 38 -62 87 -62 148c0 40 11 76 34 107c22 31 65 65 128 102c-22 27 -37 46 -45 57s-17 27 -26 49
c-10 21 -15 42 -15 62c0 47 17 86 51 116c33 30 76 45 127 45c44 0 82 -14 113 -43s47 -64 47 -107zM277 429c84 41 130 79 130 142c0 55 -41 95 -100 95c-57 0 -106 -43 -106 -100c0 -35 25 -80 76 -137zM285 42c64 0 121 36 170 109l-196 204c-91 -51 -134 -100 -134 -165
c0 -43 15 -79 46 -106c30 -28 68 -42 114 -42z" />
    <glyph glyph-name="quotesingle" unicode="'" horiz-adv-x="260" 
d="M100 480v228h60v-228h-60z" />
    <glyph glyph-name="parenleft" unicode="(" horiz-adv-x="260" 
d="M197 732l51 -32c-41 -51 -73 -115 -96 -190s-34 -149 -34 -222c0 -151 42 -273 130 -414l-47 -30c-45 61 -80 131 -105 211c-25 79 -38 157 -38 233c0 77 12 156 37 235c24 79 58 148 102 209z" />
    <glyph glyph-name="parenright" unicode=")" horiz-adv-x="260" 
d="M12 702l47 30c91 -124 143 -289 143 -444c0 -77 -12 -155 -36 -234c-25 -80 -59 -149 -103 -210l-51 32c41 51 73 115 96 191c23 75 34 149 34 221c0 149 -42 273 -130 414z" />
    <glyph glyph-name="asterisk" unicode="*" horiz-adv-x="444" 
d="M199 556v152h48v-152l144 48l15 -48l-144 -47l91 -122l-37 -29l-94 125l-89 -125l-40 29l91 122l-146 50l14 45z" />
    <glyph glyph-name="plus" unicode="+" horiz-adv-x="666" 
d="M309 327v231h48v-231h231v-48h-231v-231h-48v231h-231v48h231z" />
    <glyph glyph-name="comma" unicode="," horiz-adv-x="260" 
d="M116 90h70l-77 -228h-59z" />
    <glyph glyph-name="hyphen" unicode="-" horiz-adv-x="333" 
d="M43 264h247v-54h-247v54z" />
    <glyph glyph-name="period" unicode="." horiz-adv-x="260" 
d="M96 76c19 19 49 19 68 0s19 -49 0 -68s-49 -19 -68 0s-19 49 0 68z" />
    <glyph glyph-name="slash" unicode="/" horiz-adv-x="370" 
d="M9 -18l304 762l52 -18l-303 -762z" />
    <glyph glyph-name="zero" unicode="0" horiz-adv-x="520" 
d="M86 626c39 63 97 94 174 94s135 -31 175 -93c39 -63 59 -154 59 -273s-20 -210 -59 -272c-40 -63 -98 -94 -175 -94s-135 31 -174 94c-40 63 -60 153 -60 272s20 209 60 272zM135 586c-29 -54 -43 -131 -43 -232s14 -178 43 -231c29 -54 70 -81 125 -81
c111 0 168 109 168 312c0 201 -57 312 -169 312c-54 0 -95 -27 -124 -80z" />
    <glyph glyph-name="one" unicode="1" horiz-adv-x="520" 
d="M95 565l175 143h51v-708h-60v625l-129 -106z" />
    <glyph glyph-name="two" unicode="2" horiz-adv-x="520" 
d="M270 720c58 0 107 -17 146 -50c39 -34 58 -78 58 -131c0 -52 -14 -99 -44 -141c-15 -21 -27 -37 -35 -46c-9 -10 -21 -23 -36 -39l-252 -259h372v-54h-438v70l297 314c47 49 70 99 70 150c0 79 -58 132 -141 132c-71 0 -125 -43 -142 -116l-70 7c23 105 102 163 215 163z
" />
    <glyph glyph-name="three" unicode="3" horiz-adv-x="520" 
d="M257 720c119 0 197 -72 197 -181c0 -81 -49 -146 -126 -165v-2c45 -8 81 -29 109 -63s42 -73 42 -118c0 -123 -84 -203 -219 -203c-110 0 -183 46 -219 139l65 21c27 -71 76 -106 149 -106c99 0 158 63 158 154c0 89 -72 146 -195 146h-18v60h21c108 0 167 51 167 134
c0 75 -55 130 -131 130c-57 0 -107 -31 -134 -83l-57 32c37 70 101 105 191 105z" />
    <glyph glyph-name="four" unicode="4" horiz-adv-x="520" 
d="M306 708h83v-480h108v-54h-108v-174h-60v174h-306v71zM327 642l-250 -414h252v414h-2z" />
    <glyph glyph-name="five" unicode="5" horiz-adv-x="520" 
d="M101 708h350v-54h-292l-3 -225c27 13 61 20 103 20c65 0 118 -23 159 -68s61 -101 61 -166s-21 -119 -64 -162s-98 -65 -163 -65c-99 0 -169 40 -211 120l62 31c25 -56 89 -97 148 -97c45 0 83 17 115 50c31 33 47 72 47 119c0 51 -17 94 -51 130s-76 54 -127 54
c-49 0 -95 -16 -140 -48z" />
    <glyph glyph-name="six" unicode="6" horiz-adv-x="520" 
d="M285 708h76l-193 -312h2c20 17 68 30 105 30c61 0 113 -21 155 -63c41 -42 62 -94 62 -155c0 -63 -22 -116 -65 -157c-44 -42 -100 -63 -167 -63s-122 21 -166 62s-66 94 -66 158c0 47 18 99 34 128c8 14 20 35 37 63zM94 208c0 -97 67 -166 166 -166s166 69 166 166
c0 46 -16 85 -48 118c-33 32 -72 48 -119 48c-45 0 -83 -16 -116 -48c-33 -33 -49 -72 -49 -118z" />
    <glyph glyph-name="seven" unicode="7" horiz-adv-x="520" 
d="M41 708h402v-54l-282 -654h-67l287 654h-340v54z" />
    <glyph glyph-name="eight" unicode="8" horiz-adv-x="520" 
d="M121 668c37 35 83 52 139 52s102 -17 139 -52s55 -78 55 -131c0 -35 -10 -67 -31 -98s-49 -51 -84 -60c85 -17 140 -89 140 -182c0 -63 -21 -113 -62 -151c-41 -39 -94 -58 -157 -58c-64 0 -116 19 -157 58s-62 89 -62 151c0 92 54 165 139 182c-34 10 -61 30 -82 61
s-32 63 -32 97c0 53 18 96 55 131zM132 536c0 -73 55 -130 128 -130s128 57 128 130c0 76 -54 130 -129 130c-73 0 -127 -55 -127 -130zM151 308c-29 -29 -44 -66 -44 -111s14 -82 43 -111s65 -44 110 -44c44 0 81 15 110 44s43 66 43 111s-14 82 -43 111s-66 44 -111 44
c-43 0 -79 -15 -108 -44z" />
    <glyph glyph-name="nine" unicode="9" horiz-adv-x="520" 
d="M94 658c44 41 99 62 166 62s122 -21 166 -62c44 -42 66 -95 66 -158c0 -47 -18 -97 -33 -124c-7 -14 -19 -35 -36 -63l-188 -313h-76l193 312h-2c-23 -20 -58 -30 -105 -30c-62 0 -114 21 -155 63c-41 41 -62 93 -62 155c0 64 22 117 66 158zM94 500
c0 -45 16 -84 49 -117c32 -33 71 -49 117 -49s85 16 118 49c32 32 48 71 48 117c0 97 -68 166 -167 166c-49 0 -88 -16 -119 -47s-46 -71 -46 -119z" />
    <glyph glyph-name="colon" unicode=":" horiz-adv-x="260" 
d="M96 454c19 19 49 19 68 0s19 -49 0 -68s-49 -19 -68 0s-19 49 0 68zM96 76c19 19 49 19 68 0s19 -49 0 -68s-49 -19 -68 0s-19 49 0 68z" />
    <glyph glyph-name="semicolon" unicode=";" horiz-adv-x="260" 
d="M96 454c19 19 49 19 68 0s19 -49 0 -68s-49 -19 -68 0s-19 49 0 68zM116 90h70l-77 -228h-59z" />
    <glyph glyph-name="less" unicode="&#x3c;" horiz-adv-x="666" 
d="M82 327l502 234v-50l-448 -208l448 -208v-50l-502 234v48z" />
    <glyph glyph-name="equal" unicode="=" horiz-adv-x="666" 
d="M78 399h510v-48h-510v48zM78 255h510v-48h-510v48z" />
    <glyph glyph-name="greater" unicode="&#x3e;" horiz-adv-x="666" 
d="M82 511v50l502 -234v-48l-502 -234v50l448 208z" />
    <glyph glyph-name="question" unicode="?" horiz-adv-x="463" 
d="M242 726c111 0 184 -68 184 -172c0 -69 -27 -117 -84 -165c-52 -45 -78 -91 -78 -136v-67h-60v86c0 46 26 92 78 139s78 93 78 140c0 72 -46 121 -117 121c-67 0 -116 -43 -131 -116l-65 8c19 101 95 162 195 162zM201 76c19 19 49 19 68 0s19 -49 0 -68s-49 -19 -68 0
s-19 49 0 68z" />
    <glyph glyph-name="at" unicode="@" horiz-adv-x="800" 
d="M414 726c93 0 174 -28 241 -83c67 -56 101 -128 101 -217c0 -81 -25 -151 -74 -208c-49 -58 -103 -87 -160 -87c-37 0 -62 24 -62 67h-2c-37 -45 -80 -67 -129 -67c-84 0 -135 60 -135 147c-5 138 96 292 236 290c54 0 89 -28 106 -83h2l24 64h60l-99 -295
c-6 -23 -9 -37 -9 -43c0 -17 9 -26 26 -26c37 0 74 28 109 83s53 107 53 158c0 73 -28 133 -85 181c-57 47 -124 71 -201 71c-89 0 -164 -32 -225 -96c-62 -64 -93 -140 -93 -227c0 -88 31 -164 93 -228c62 -65 138 -97 227 -97c48 0 96 12 143 36s84 56 111 96h58
c-30 -55 -74 -99 -131 -131c-58 -33 -118 -49 -181 -49c-107 0 -196 36 -267 108c-71 71 -107 160 -107 265c0 103 36 190 108 263c71 72 159 108 262 108zM254 280c0 -56 33 -95 84 -95c44 0 83 26 118 79c34 53 51 102 51 149c0 67 -27 101 -82 101
c-98 2 -175 -141 -171 -234z" />
    <glyph glyph-name="A" unicode="A" horiz-adv-x="685" 
d="M314 708h68l298 -708h-74l-77 188h-375l-80 -188h-69zM345 636l-165 -388h325z" />
    <glyph glyph-name="B" unicode="B" horiz-adv-x="630" 
d="M97 708h209c149 0 223 -62 223 -187c0 -75 -47 -131 -127 -147v-2c96 -5 158 -78 158 -174c0 -127 -91 -198 -235 -198h-228v708zM163 402h141c97 0 159 44 159 119c0 85 -50 127 -150 127h-150v-246zM163 60h156c111 0 175 51 175 136c0 93 -69 146 -168 146h-163v-282z
" />
    <glyph glyph-name="C" unicode="C" horiz-adv-x="704" 
d="M417 726c105 0 186 -37 244 -111l-54 -45c-40 60 -110 96 -190 96c-89 0 -162 -29 -217 -88s-83 -133 -83 -224c0 -90 28 -164 83 -223s127 -89 217 -89c83 0 168 43 209 110l54 -41c-63 -86 -150 -129 -263 -129c-108 0 -196 35 -264 106c-68 70 -102 159 -102 266
c0 109 34 198 103 268c68 69 156 104 263 104z" />
    <glyph glyph-name="D" unicode="D" horiz-adv-x="741" 
d="M88 708h221c119 0 213 -32 280 -97s101 -153 101 -262c0 -88 -32 -192 -118 -267c-55 -48 -147 -82 -259 -82h-225v708zM154 60h141c100 0 180 25 240 76c59 51 89 122 89 213c0 193 -127 299 -332 299h-138v-588z" />
    <glyph glyph-name="E" unicode="E" horiz-adv-x="593" 
d="M97 708h433v-60h-367v-252h344v-60h-344v-276h383v-60h-449v708z" />
    <glyph glyph-name="F" unicode="F" horiz-adv-x="556" 
d="M97 708h424v-60h-358v-252h333v-60h-333v-336h-66v708z" />
    <glyph glyph-name="G" unicode="G" horiz-adv-x="778" 
d="M417 726c105 0 190 -33 255 -98l-48 -50c-22 27 -53 48 -92 64s-78 24 -115 24c-89 0 -162 -29 -217 -88s-83 -134 -83 -224c0 -91 28 -165 83 -224s128 -88 218 -88c85 0 150 14 197 42v238h-170v60h236v-336c-75 -43 -163 -64 -264 -64c-108 0 -196 35 -264 106
c-68 70 -102 159 -102 266s34 196 103 267c68 70 156 105 263 105z" />
    <glyph glyph-name="H" unicode="H" horiz-adv-x="722" 
d="M97 708h66v-312h396v312h66v-708h-66v336h-396v-336h-66v708z" />
    <glyph glyph-name="I" unicode="I" horiz-adv-x="260" 
d="M97 708h66v-708h-66v708z" />
    <glyph glyph-name="J" unicode="J" horiz-adv-x="482" 
d="M319 708h66v-507c0 -151 -65 -219 -194 -219c-97 0 -163 53 -184 145l66 12c16 -65 55 -97 118 -97c85 0 128 55 128 146v520z" />
    <glyph glyph-name="K" unicode="K" horiz-adv-x="611" 
d="M97 708h66v-312h6l343 312h91l-358 -324l378 -384h-95l-359 366h-6v-366h-66v708z" />
    <glyph glyph-name="L" unicode="L" horiz-adv-x="500" 
d="M97 708h66v-648h330v-60h-396v708z" />
    <glyph glyph-name="M" unicode="M" horiz-adv-x="889" 
d="M90 708h99l258 -594l258 594h94v-708h-66v624h-2l-270 -624h-29l-274 624h-2v-624h-66v708z" />
    <glyph glyph-name="N" unicode="N" horiz-adv-x="778" 
d="M97 708h85l431 -620h2v620h66v-708h-85l-431 620h-2v-620h-66v708z" />
    <glyph glyph-name="O" unicode="O" horiz-adv-x="834" 
d="M417 726c109 0 198 -35 265 -105c67 -71 101 -160 101 -267s-34 -196 -102 -266c-69 -71 -157 -106 -264 -106s-195 35 -263 106c-69 70 -103 159 -103 266c0 108 34 197 102 267s156 105 264 105zM117 354c0 -90 28 -164 83 -223s128 -89 217 -89s162 30 217 89
s83 133 83 223c0 91 -27 165 -82 224s-128 88 -219 88c-90 0 -162 -29 -217 -88s-82 -133 -82 -224z" />
    <glyph glyph-name="P" unicode="P" horiz-adv-x="574" 
d="M97 708h202c144 0 230 -68 230 -187c0 -57 -20 -102 -59 -135s-89 -50 -150 -50h-157v-336h-66v708zM163 396h153c88 0 147 45 147 125s-65 127 -150 127h-150v-252z" />
    <glyph glyph-name="Q" unicode="Q" horiz-adv-x="834" 
d="M151 624c67 68 153 102 259 102s192 -34 259 -102c67 -69 100 -156 100 -261c2 -115 -68 -263 -177 -301v-2h221v-60h-392c-104 0 -192 35 -263 105c-71 69 -107 155 -107 258c0 105 33 192 100 261zM117 363c0 -86 29 -158 88 -216c58 -58 130 -87 216 -87
c84 0 152 29 204 87s78 130 78 216c0 89 -27 162 -80 219c-53 56 -125 84 -214 84s-159 -28 -212 -85s-80 -129 -80 -218z" />
    <glyph glyph-name="R" unicode="R" horiz-adv-x="593" 
d="M97 708h191c163 0 247 -65 247 -186c0 -105 -60 -166 -181 -182l206 -340h-75l-199 336h-123v-336h-66v708zM163 396h145c101 0 161 49 161 126s-59 126 -163 126h-143v-252z" />
    <glyph glyph-name="S" unicode="S" horiz-adv-x="556" 
d="M299 726c82 0 146 -30 193 -89l-57 -41c-34 47 -80 70 -138 70c-95 0 -159 -53 -159 -134c0 -73 40 -113 148 -145c27 -8 47 -14 60 -19s30 -11 50 -19c20 -9 35 -17 46 -26c33 -27 65 -74 61 -142c0 -57 -21 -105 -62 -142c-41 -38 -94 -57 -158 -57
c-103 0 -179 36 -230 107l63 42c35 -59 89 -89 162 -89c92 0 159 58 159 139c0 41 -13 71 -39 89c-27 18 -78 39 -153 64c-7 2 -12 4 -16 5c-108 36 -157 94 -157 193c0 58 21 105 64 141c43 35 97 53 163 53z" />
    <glyph glyph-name="T" unicode="T" horiz-adv-x="574" 
d="M12 708h550v-60h-242v-648h-66v648h-242v60z" />
    <glyph glyph-name="U" unicode="U" horiz-adv-x="684" 
d="M84 708h66v-425c0 -155 65 -241 192 -241c128 0 192 88 192 251v415h66v-432c0 -185 -90 -294 -258 -294s-258 108 -258 289v437z" />
    <glyph glyph-name="V" unicode="V" horiz-adv-x="593" 
d="M-3 708h71l228 -621l230 621h70l-269 -708h-66z" />
    <glyph glyph-name="W" unicode="W" horiz-adv-x="944" 
d="M5 708h68l176 -627h2l179 627h84l179 -627h2l176 627h68l-206 -707l-1 -1h-80l-179 630h-2l-179 -630h-81z" />
    <glyph glyph-name="X" unicode="X" horiz-adv-x="611" 
d="M25 708h78l204 -288l201 288h79l-240 -336l263 -372h-82l-224 320l-224 -320h-79l266 372z" />
    <glyph glyph-name="Y" unicode="Y" horiz-adv-x="574" 
d="M-6 708h79l214 -336l219 336h74l-260 -403v-305h-66v305z" />
    <glyph glyph-name="Z" unicode="Z" horiz-adv-x="556" 
d="M29 708h493v-54l-417 -594h428v-60h-510v52l414 596h-408v60z" />
    <glyph glyph-name="bracketleft" unicode="[" horiz-adv-x="260" 
d="M74 732h150v-48h-90v-792h90v-48h-150v888z" />
    <glyph glyph-name="backslash" unicode="\" horiz-adv-x="370" 
d="M5 726l52 18l304 -762l-53 -18z" />
    <glyph glyph-name="bracketright" unicode="]" horiz-adv-x="260" 
d="M36 732h150v-888h-150v48h90v792h-90v48z" />
    <glyph glyph-name="asciicircum" unicode="^" horiz-adv-x="666" 
d="M82 256l228 452h46l228 -452h-56l-195 398l-194 -398h-57z" />
    <glyph glyph-name="underscore" unicode="_" horiz-adv-x="500" 
d="M0 -75h500v-50h-500v50z" />
    <glyph glyph-name="grave" unicode="`" horiz-adv-x="240" 
d="M-6 708h80l104 -144h-50z" />
    <glyph glyph-name="a" unicode="a" horiz-adv-x="519" 
d="M255 474c120 0 184 -59 184 -163v-137c0 -75 3 -133 9 -174h-56c-4 21 -6 46 -6 75h-2c-34 -58 -88 -87 -161 -87c-100 0 -164 53 -164 137c0 103 91 155 252 155h74v27c0 75 -49 113 -130 113c-53 0 -100 -17 -141 -52l-35 41c43 41 113 65 176 65zM119 128
c0 -51 45 -86 106 -86c105 0 160 59 160 158v32h-72c-112 0 -194 -33 -194 -104z" />
    <glyph glyph-name="b" unicode="b" horiz-adv-x="611" 
d="M67 0v756h60v-375h2c33 57 108 93 185 93c70 0 128 -23 174 -68c46 -46 69 -104 69 -175c0 -70 -23 -128 -68 -174s-104 -69 -175 -69c-77 0 -153 36 -185 93h-2v-81h-60zM178 365c-38 -37 -57 -82 -57 -134s19 -96 57 -133c37 -37 83 -56 136 -56c54 0 98 18 132 54
s51 81 51 135c0 55 -17 100 -51 136c-35 35 -79 53 -133 53c-53 0 -98 -18 -135 -55z" />
    <glyph glyph-name="c" unicode="c" horiz-adv-x="481" 
d="M297 474c67 0 125 -27 172 -80l-48 -36c-39 41 -81 62 -125 62c-53 0 -96 -18 -130 -54c-35 -36 -52 -81 -52 -135c0 -55 17 -100 51 -135c34 -36 78 -54 131 -54c49 0 91 21 125 64l46 -38c-45 -53 -101 -80 -170 -80c-71 0 -129 23 -174 69c-46 46 -69 104 -69 174
c0 71 23 129 69 175c46 45 104 68 174 68z" />
    <glyph glyph-name="d" unicode="d" horiz-adv-x="611" 
d="M484 381v375h60v-756h-60v81h-2c-35 -60 -109 -93 -185 -93c-71 0 -129 23 -174 69c-46 46 -69 104 -69 174c0 71 23 129 69 175c46 45 104 68 174 68c77 0 152 -36 185 -93h2zM114 231c0 -55 17 -100 51 -135c34 -36 78 -54 132 -54c53 0 99 18 137 55
c37 37 56 81 56 134s-19 97 -56 134c-38 37 -84 55 -138 55c-53 0 -96 -18 -130 -54c-35 -36 -52 -81 -52 -135z" />
    <glyph glyph-name="e" unicode="e" horiz-adv-x="556" 
d="M285 474c63 0 115 -20 156 -60c41 -41 61 -95 61 -162v-36h-388c5 -101 71 -174 175 -174c63 0 126 33 155 82l44 -37c-44 -66 -111 -99 -200 -99c-70 0 -126 23 -169 68s-65 103 -65 176c0 68 22 125 65 172s98 70 166 70zM114 270h328c-1 43 -16 78 -47 107
s-69 43 -114 43c-44 0 -81 -15 -112 -44s-50 -65 -55 -106z" />
    <glyph glyph-name="f" unicode="f" horiz-adv-x="296" 
d="M252 768c28 0 51 -4 69 -12l-12 -52c-13 7 -31 10 -54 10c-54 0 -81 -40 -81 -119v-133h108v-54h-108v-408h-60v408h-96v54h96v155c0 93 58 151 138 151z" />
    <glyph glyph-name="g" unicode="g" horiz-adv-x="611" 
d="M307 474c79 0 137 -30 175 -90h2v78h60v-430c0 -177 -90 -272 -247 -272c-89 0 -180 34 -228 97l47 44c41 -58 102 -87 182 -87c121 0 186 71 186 207v69h-2c-38 -60 -96 -90 -175 -90c-67 0 -125 23 -174 70c-49 46 -73 102 -73 167s25 121 74 168c49 46 107 69 173 69z
M174 366c-36 -36 -54 -79 -54 -129s18 -93 53 -129s79 -54 130 -54s95 18 130 54s53 79 53 129s-18 93 -53 129c-36 36 -80 54 -131 54c-50 0 -93 -18 -128 -54z" />
    <glyph glyph-name="h" unicode="h" horiz-adv-x="556" 
d="M80 0v756h60v-375h2c27 56 90 93 158 93c117 0 176 -65 176 -195v-279h-60v273c0 98 -39 147 -116 147c-99 0 -160 -74 -160 -187v-233h-60z" />
    <glyph glyph-name="i" unicode="i" horiz-adv-x="240" 
d="M88 677c17 17 47 17 64 0s17 -47 0 -64s-47 -17 -64 0s-17 47 0 64zM90 0v462h60v-462h-60z" />
    <glyph glyph-name="j" unicode="j" horiz-adv-x="240" 
d="M88 677c17 17 47 17 64 0s17 -47 0 -64s-47 -17 -64 0s-17 47 0 64zM90 -90v552h60v-548c0 -107 -42 -154 -131 -154c-17 0 -33 3 -49 9l9 53c13 -5 26 -8 39 -8c49 0 72 28 72 96z" />
    <glyph glyph-name="k" unicode="k" horiz-adv-x="481" 
d="M80 0v756h60v-504l229 210h88l-239 -212l266 -250h-91l-253 244v-244h-60z" />
    <glyph glyph-name="l" unicode="l" horiz-adv-x="240" 
d="M90 0v756h60v-756h-60z" />
    <glyph glyph-name="m" unicode="m" horiz-adv-x="852" 
d="M206 449c88 52 209 22 233 -75c25 63 86 100 158 100c117 0 175 -65 175 -196v-278h-60v275c0 97 -39 145 -116 145c-91 0 -140 -65 -140 -165v-255h-60v281c0 84 -33 139 -97 139c-97 0 -159 -72 -159 -191v-229h-60v337c0 3 -1 24 -2 63c-2 39 -3 59 -3 62h60
c2 -51 3 -78 4 -81h3c13 28 35 51 64 68z" />
    <glyph glyph-name="n" unicode="n" horiz-adv-x="556" 
d="M300 474c117 0 176 -67 176 -201v-273h-60v270c0 100 -39 150 -116 150c-97 0 -160 -72 -160 -191v-229h-60v337c0 3 -1 24 -2 63c-2 39 -3 59 -3 62h60c2 -51 3 -78 4 -81h3c27 56 90 93 158 93z" />
    <glyph glyph-name="o" unicode="o" horiz-adv-x="594" 
d="M297 474c71 0 129 -23 175 -68c45 -46 68 -104 68 -175c0 -70 -23 -128 -68 -174s-104 -69 -175 -69s-129 23 -174 69c-46 45 -69 103 -69 174s23 129 68 175c45 45 104 68 175 68zM166 367c-35 -36 -52 -81 -52 -136s17 -100 51 -135c34 -36 78 -54 132 -54
s98 18 132 54c34 35 51 80 51 135s-17 100 -51 136c-35 35 -79 53 -133 53c-53 0 -96 -18 -130 -53z" />
    <glyph glyph-name="p" unicode="p" horiz-adv-x="611" 
d="M314 474c71 0 129 -23 175 -68c45 -46 68 -104 68 -175c0 -70 -22 -128 -67 -174s-104 -69 -176 -69c-79 0 -153 36 -185 93h-2v-309h-60v690h60v-81h2c33 59 109 93 185 93zM121 231c0 -52 19 -96 56 -133s83 -56 137 -56c55 0 99 18 133 54c33 36 50 81 50 135
c0 55 -17 100 -51 136c-34 35 -78 53 -133 53c-53 0 -99 -18 -136 -55s-56 -81 -56 -134z" />
    <glyph glyph-name="q" unicode="q" horiz-adv-x="611" 
d="M297 474c76 0 152 -34 185 -93h2v81h60v-690h-60v309h-2c-32 -57 -106 -93 -185 -93c-72 0 -130 23 -175 69s-68 104 -68 174c0 71 23 129 69 175c45 45 103 68 174 68zM490 231c0 53 -19 97 -56 134s-83 55 -136 55c-55 0 -99 -18 -133 -53c-34 -36 -51 -81 -51 -136
c0 -54 17 -99 51 -135s78 -54 132 -54s100 19 137 56s56 81 56 133z" />
    <glyph glyph-name="r" unicode="r" horiz-adv-x="333" 
d="M286 474c12 0 24 -2 35 -5l-7 -59c-7 3 -15 4 -24 4c-95 0 -150 -63 -150 -162v-252h-60v337c0 3 -1 24 -2 63c-2 39 -3 59 -3 62h60c1 -47 3 -74 4 -81c35 62 84 93 147 93z" />
    <glyph glyph-name="s" unicode="s" horiz-adv-x="426" 
d="M206 474c78 0 132 -29 162 -87l-54 -32c-23 43 -59 65 -108 65c-51 0 -99 -31 -99 -74c0 -48 40 -66 112 -79c117 -21 162 -55 162 -136c0 -87 -69 -143 -168 -143c-87 0 -149 31 -185 94l53 36c23 -45 77 -76 134 -76s106 36 106 85c0 28 -11 48 -41 61s-45 17 -90 26
c-111 23 -143 63 -143 127c0 80 68 133 159 133z" />
    <glyph glyph-name="t" unicode="t" horiz-adv-x="333" 
d="M114 462v133h60v-133h132v-54h-132v-302c0 -40 24 -64 64 -64c22 0 45 5 68 16l5 -54c-29 -11 -55 -16 -79 -16c-76 0 -118 45 -118 118v302h-100v54h100z" />
    <glyph glyph-name="u" unicode="u" horiz-adv-x="556" 
d="M251 -12c-117 0 -176 67 -176 201v273h60v-270c0 -100 39 -150 116 -150c97 0 160 72 160 191v229h60v-337c0 -3 1 -24 3 -63c1 -39 2 -59 2 -62h-60c-2 51 -3 78 -4 81h-3c-27 -56 -90 -93 -158 -93z" />
    <glyph glyph-name="v" unicode="v" horiz-adv-x="463" 
d="M15 462h68l154 -397l150 397h61l-182 -462h-62z" />
    <glyph glyph-name="w" unicode="w" horiz-adv-x="704" 
d="M15 462h66l112 -387h2l129 387h57l137 -387h2l109 387h60l-136 -462h-62l-138 378h-2l-129 -378h-62z" />
    <glyph glyph-name="x" unicode="x" horiz-adv-x="481" 
d="M33 462h77l128 -175l127 175h75l-163 -212l198 -250h-78l-161 209l-158 -209h-72l192 250z" />
    <glyph glyph-name="y" unicode="y" horiz-adv-x="463" 
d="M15 462h67l153 -389l149 389h64l-237 -603c-26 -66 -69 -99 -128 -99c-18 0 -38 3 -59 9l6 56c23 -7 41 -11 54 -11c31 0 57 25 76 74l43 110z" />
    <glyph glyph-name="z" unicode="z" horiz-adv-x="426" 
d="M41 462h346v-36l-276 -372h288v-54h-372v36l277 372h-263v54z" />
    <glyph glyph-name="braceleft" unicode="{" horiz-adv-x="333" 
d="M274 732v-48h-22c-37 0 -56 -32 -56 -97v-144c0 -77 -34 -133 -70 -154v-2c43 -28 70 -87 70 -147v-155c0 -56 19 -93 54 -93h24v-48h-51c-53 0 -87 45 -87 120v155c0 93 -25 145 -70 145v48c47 0 70 50 70 149v148c0 87 38 123 90 123h48z" />
    <glyph glyph-name="bar" unicode="|" horiz-adv-x="222" 
d="M87 -250v1000h48v-1000h-48z" />
    <glyph glyph-name="braceright" unicode="}" horiz-adv-x="333" 
d="M60 684l-1 48h49c49 0 89 -36 89 -123v-148c0 -99 23 -149 70 -149v-48c-49 0 -70 -63 -70 -142v-158c0 -75 -34 -120 -87 -120h-51v48h24c35 0 54 38 54 94v154c0 61 27 122 70 147v2c-36 21 -70 77 -70 154v144c0 65 -19 97 -56 97h-21z" />
    <glyph glyph-name="asciitilde" unicode="~" horiz-adv-x="666" 
d="M228 364c23 0 60 -11 111 -34c50 -23 84 -34 102 -34c30 0 59 23 88 68l34 -32c-29 -60 -70 -90 -125 -90c-21 0 -58 11 -110 34c-53 23 -87 34 -103 34c-30 0 -59 -23 -88 -68l-34 32c31 60 73 90 125 90z" />
    <glyph glyph-name="uni00A0" unicode="&#xa0;" horiz-adv-x="260" 
 />
    <glyph glyph-name="exclamdown" unicode="&#xa1;" horiz-adv-x="370" 
d="M151 478c19 19 49 19 68 0s19 -49 0 -68s-49 -19 -68 0s-19 49 0 68zM155 -222v522h60v-522h-60z" />
    <glyph glyph-name="cent" unicode="&#xa2;" horiz-adv-x="520" 
d="M256 471v72h48v-71c63 -1 118 -27 164 -78l-48 -36c-33 37 -72 57 -116 60v-376c45 2 84 23 116 64l46 -38c-42 -51 -96 -78 -162 -80v-69h-48v72c-61 9 -111 36 -148 81s-56 99 -56 161c0 61 19 114 57 159c37 44 86 70 147 79zM112 233c0 -44 13 -84 40 -119
c26 -36 61 -58 104 -67v370c-88 -15 -144 -91 -144 -184z" />
    <glyph glyph-name="sterling" unicode="&#xa3;" horiz-adv-x="520" 
d="M373 720c53 0 100 -19 143 -56l-40 -48c-33 33 -69 50 -106 50c-85 0 -141 -66 -141 -150v-120h165v-54h-165v-288h245v-54h-416v54h105v288h-95v54h95v111c0 63 19 114 56 154c37 39 89 59 154 59z" />
    <glyph glyph-name="currency" unicode="&#xa4;" horiz-adv-x="520" 
d="M48 603l57 -56c45 35 96 53 155 53s110 -18 155 -53l57 56l34 -37l-57 -55c40 -43 60 -96 60 -157s-20 -114 -60 -157l57 -55l-34 -37l-57 56c-46 -35 -98 -53 -155 -53c-59 0 -110 18 -155 53l-57 -56l-34 37l57 55c-40 43 -60 96 -60 157s20 114 60 157l-57 55z
M126 489c-37 -38 -55 -83 -55 -135s19 -97 56 -135s81 -57 133 -57c53 0 97 19 134 57s55 83 55 135c0 53 -18 98 -55 136c-37 37 -82 56 -135 56c-52 0 -96 -19 -133 -57z" />
    <glyph glyph-name="yen" unicode="&#xa5;" horiz-adv-x="520" 
d="M0 708h68l192 -344l195 344h65l-191 -339h134v-48h-161l-9 -16v-77h170v-48h-170v-180h-66v180h-170v48h170v77l-9 16h-161v48h134z" />
    <glyph glyph-name="brokenbar" unicode="&#xa6;" horiz-adv-x="222" 
d="M87 325v350h48v-350h-48zM87 -175v350h48v-350h-48z" />
    <glyph glyph-name="section" unicode="&#xa7;" horiz-adv-x="520" 
d="M288 726c77 0 137 -34 160 -94l-58 -34c-19 45 -54 68 -105 68c-67 0 -117 -37 -117 -97c0 -51 40 -78 124 -117c25 -12 45 -21 58 -28s29 -18 49 -33c39 -29 57 -66 57 -113c0 -56 -30 -100 -89 -132c50 -30 75 -71 75 -124c0 -49 -18 -89 -53 -120
c-36 -31 -80 -46 -133 -46c-91 0 -161 43 -192 120l61 30c22 -60 65 -90 130 -90c71 0 121 40 121 97c0 39 -34 74 -65 91c-15 8 -37 18 -64 31c-27 12 -46 21 -57 27c-69 37 -112 78 -112 151c0 56 35 99 106 129c-55 33 -82 75 -82 127c0 47 18 85 54 114s80 43 132 43z
M144 314c0 -35 20 -62 60 -83l110 -56c51 28 76 60 76 96c0 37 -23 69 -69 95l-80 44c-65 -21 -97 -53 -97 -96z" />
    <glyph glyph-name="dieresis" unicode="&#xa8;" horiz-adv-x="240" 
d="M-9 686c19 19 49 19 68 0s19 -49 0 -68s-49 -19 -68 0s-19 49 0 68zM181 686c19 19 49 19 68 0s19 -49 0 -68s-49 -19 -68 0s-19 49 0 68z" />
    <glyph glyph-name="copyright" unicode="&#xa9;" horiz-adv-x="800" 
d="M400 726c102 0 190 -36 263 -109s109 -161 109 -263s-36 -189 -108 -262c-73 -73 -161 -110 -264 -110s-191 37 -263 110c-73 73 -109 160 -109 262c0 101 36 189 109 262c72 73 160 110 263 110zM175 579c-62 -63 -93 -138 -93 -225s31 -162 93 -224
c62 -63 137 -94 225 -94c89 0 164 31 226 94c61 62 92 137 92 224s-31 162 -92 225c-62 62 -138 93 -227 93c-88 0 -163 -31 -224 -93zM409 583c99 0 173 -59 185 -152h-54c-15 64 -68 104 -131 104c-47 0 -86 -17 -115 -51c-30 -35 -45 -78 -45 -130c0 -53 15 -96 45 -130
s69 -51 116 -51c65 0 117 41 130 104h54c-12 -93 -86 -152 -185 -152c-65 0 -117 21 -156 63s-58 97 -58 166s20 125 59 167c39 41 90 62 155 62z" />
    <glyph glyph-name="ordfeminine" unicode="&#xaa;" horiz-adv-x="337" 
d="M178 720c85 0 120 -35 120 -106v-96c0 -32 2 -61 5 -88h-49c-1 2 -2 17 -4 46h-2c-21 -35 -56 -52 -104 -52c-68 0 -110 29 -110 81c0 65 51 97 154 97h62v4c0 52 -23 72 -83 72c-33 0 -65 -12 -94 -35l-26 38c33 26 76 39 131 39zM82 507c0 -23 33 -41 72 -41
c56 0 96 39 96 88v6h-39c-86 0 -129 -18 -129 -53z" />
    <glyph glyph-name="guillemotleft" unicode="&#xab;" horiz-adv-x="481" 
d="M63 237l137 203l42 -29l-116 -174l118 -176l-44 -27zM229 237l137 203l42 -29l-116 -174l118 -176l-44 -27z" />
    <glyph glyph-name="logicalnot" unicode="&#xac;" horiz-adv-x="666" 
d="M78 399h510v-265h-48v217h-462v48z" />
    <glyph glyph-name="uni00AD" unicode="&#xad;" horiz-adv-x="333" 
d="M43 264h247v-54h-247v54z" />
    <glyph glyph-name="registered" unicode="&#xae;" horiz-adv-x="800" 
d="M400 726c103 0 190 -36 263 -109s109 -161 109 -263s-36 -189 -108 -262c-73 -73 -161 -110 -264 -110s-191 37 -263 110c-73 73 -109 160 -109 262c0 101 36 189 109 262c72 73 160 110 263 110zM175 579c-62 -63 -93 -138 -93 -225s31 -162 93 -224
c62 -63 137 -94 225 -94c89 0 164 31 226 94c61 62 92 137 92 224s-31 162 -92 225c-62 62 -138 93 -227 93c-88 0 -163 -31 -224 -93zM265 570h168c88 0 132 -40 132 -119c0 -70 -36 -111 -108 -122l128 -188h-61l-128 188h-77v-188h-54v429zM319 377h79
c84 0 113 23 113 74c0 47 -34 71 -101 71h-91v-145z" />
    <glyph glyph-name="overscore" unicode="&#xaf;" horiz-adv-x="240" 
d="M-12 654h264v-48h-264v48z" />
    <glyph glyph-name="degree" unicode="&#xb0;" horiz-adv-x="400" 
d="M98 678c27 28 61 42 102 42s75 -14 103 -42c27 -28 41 -62 41 -101c0 -40 -14 -74 -41 -102c-28 -29 -62 -43 -103 -43s-75 14 -102 43c-28 28 -42 62 -42 102c0 39 14 73 42 101zM132 644c-61 -55 -15 -168 68 -164c53 0 96 43 96 96c0 52 -41 96 -96 96
c-27 0 -49 -9 -68 -28z" />
    <glyph glyph-name="plusminus" unicode="&#xb1;" horiz-adv-x="666" 
d="M306 375v183h48v-183h234v-48h-234v-183h-48v183h-228v48h228zM82 96h502v-48h-502v48z" />
    <glyph glyph-name="two.sups" unicode="&#xb2;" horiz-adv-x="338" 
d="M179 720c80 0 135 -44 135 -109c0 -55 -25 -90 -92 -153l-127 -121h220v-48h-292v43l181 177c40 39 56 64 56 100c0 37 -32 63 -84 63c-44 0 -73 -20 -86 -59l-51 4c15 65 72 103 140 103z" />
    <glyph glyph-name="three.sups" unicode="&#xb3;" horiz-adv-x="338" 
d="M168 720c76 0 131 -45 131 -108c0 -44 -34 -83 -82 -99v-2c56 -7 94 -52 94 -107c0 -72 -58 -121 -145 -121c-70 0 -116 30 -139 89l47 18c15 -39 45 -59 92 -59s91 37 91 77c0 53 -39 80 -117 80h-13v48h23c57 0 95 30 95 75c0 35 -32 61 -77 61c-39 0 -68 -17 -88 -50
l-39 25c31 49 73 73 127 73z" />
    <glyph glyph-name="acute" unicode="&#xb4;" horiz-adv-x="240" 
d="M166 708h80l-134 -144h-50z" />
    <glyph glyph-name="uni00B5" unicode="&#xb5;" horiz-adv-x="556" 
d="M75 -228v690h60v-276c0 -96 39 -144 116 -144c99 0 160 76 160 185v235h60v-337c0 -3 1 -24 3 -63c1 -39 2 -59 2 -62h-60c-1 43 -3 70 -4 81h-3c-29 -59 -90 -93 -159 -93c-49 0 -87 13 -116 38v-254h-59z" />
    <glyph glyph-name="paragraph" unicode="&#xb6;" horiz-adv-x="600" 
d="M279 708h231v-834h-60v786h-123v-786h-60v449c-59 0 -108 19 -147 56c-40 37 -60 82 -60 134c0 124 84 195 219 195z" />
    <glyph glyph-name="middot" unicode="&#xb7;" horiz-adv-x="260" 
d="M96 352c19 19 49 19 68 0s19 -49 0 -68s-49 -19 -68 0s-19 49 0 68z" />
    <glyph glyph-name="cedilla" unicode="&#xb8;" horiz-adv-x="240" 
d="M70 -88l63 88h38l-47 -64l2 -2c9 5 19 7 31 7c48 0 83 -28 83 -72c0 -51 -48 -85 -113 -85c-34 0 -65 7 -94 21l14 32c20 -11 45 -17 76 -17c36 0 63 18 63 43s-22 42 -57 42c-14 0 -28 -3 -43 -8z" />
    <glyph glyph-name="one.sups" unicode="&#xb9;" horiz-adv-x="338" 
d="M67 628l110 86h54v-425h-54v371l-85 -66z" />
    <glyph glyph-name="ordmasculine" unicode="&#xba;" horiz-adv-x="386" 
d="M78 679c29 27 67 41 114 41s86 -14 116 -41c29 -27 44 -63 44 -107c0 -87 -67 -148 -160 -148c-96 0 -158 61 -158 148c0 43 15 79 44 107zM114 647c-69 -60 -18 -187 78 -181c63 0 112 47 112 106c0 61 -46 106 -113 106c-30 0 -56 -10 -77 -31z" />
    <glyph glyph-name="guillemotright" unicode="&#xbb;" horiz-adv-x="481" 
d="M71 413l44 27l137 -203l-137 -203l-42 29l116 174zM237 413l44 27l137 -203l-137 -203l-42 29l116 174z" />
    <glyph glyph-name="onequarter" unicode="&#xbc;" horiz-adv-x="778" 
d="M115 -6l456 748l46 -28l-457 -748zM36 628l110 86h54v-425h-54v371l-85 -66zM434 147l185 277h59v-274h64v-48h-64v-102h-54v102h-190v45zM622 352l-134 -202h136v202h-2z" />
    <glyph glyph-name="onehalf" unicode="&#xbd;" horiz-adv-x="778" 
d="M106 -6l456 748l46 -28l-458 -748zM28 628l110 86h54v-425h-54v371l-85 -66zM614 431c80 0 135 -44 135 -109c0 -55 -25 -90 -92 -153l-127 -121h220v-48h-292v43l181 177c40 39 56 64 56 100c0 37 -32 63 -84 63c-44 0 -73 -20 -86 -59l-51 4c15 65 72 103 140 103z" />
    <glyph glyph-name="threequarters" unicode="&#xbe;" horiz-adv-x="778" 
d="M668 714l-457 -748l-45 28l456 748zM162 720c76 0 131 -45 131 -108c0 -44 -34 -83 -82 -99v-2c56 -7 94 -52 94 -107c0 -72 -58 -121 -145 -121c-70 0 -117 30 -140 89l48 18c15 -39 45 -59 92 -59s91 37 91 77c0 53 -39 80 -117 80h-13v48h23c57 0 95 30 95 75
c0 35 -32 61 -77 61c-39 0 -68 -17 -88 -50l-39 25c31 49 73 73 127 73zM450 147l185 277h59v-274h64v-48h-64v-102h-54v102h-190v45zM638 352l-134 -202h136v202h-2z" />
    <glyph glyph-name="questiondown" unicode="&#xbf;" horiz-adv-x="463" 
d="M194 478c19 19 49 19 68 0s19 -49 0 -68s-49 -19 -68 0s-19 49 0 68zM221 -240c-111 0 -184 68 -184 172c0 69 27 117 84 165c52 45 78 91 78 136v67h60v-86c0 -46 -26 -92 -78 -139s-78 -93 -78 -140c0 -72 46 -121 117 -121c67 0 116 43 131 116l65 -8
c-19 -101 -95 -162 -195 -162z" />
    <glyph glyph-name="Agrave" unicode="&#xc0;" horiz-adv-x="685" 
d="M217 896h80l104 -144h-50zM314 708h68l298 -708h-74l-77 188h-375l-80 -188h-69zM345 636l-165 -388h325z" />
    <glyph glyph-name="Aacute" unicode="&#xc1;" horiz-adv-x="685" 
d="M389 896h80l-134 -144h-50zM314 708h68l298 -708h-74l-77 188h-375l-80 -188h-69zM345 636l-165 -388h325z" />
    <glyph glyph-name="Acircumflex" unicode="&#xc2;" horiz-adv-x="685" 
d="M308 896h70l108 -144h-65l-81 108l-81 -108h-59zM314 708h68l298 -708h-74l-77 188h-375l-80 -188h-69zM345 636l-165 -388h325z" />
    <glyph glyph-name="Atilde" unicode="&#xc3;" horiz-adv-x="685" 
d="M277 871c17 0 42 -8 74 -24c31 -16 53 -24 64 -24c24 0 40 16 48 48h36c-7 -63 -40 -102 -84 -102c-18 0 -43 8 -75 24s-54 24 -66 24c-25 0 -42 -16 -51 -48h-36c9 60 45 102 90 102zM314 708h68l298 -708h-74l-77 188h-375l-80 -188h-69zM345 636l-165 -388h325z" />
    <glyph glyph-name="Adieresis" unicode="&#xc4;" horiz-adv-x="685" 
d="M214 874c30 30 82 8 82 -34c0 -28 -21 -48 -48 -48c-28 0 -48 20 -48 48c0 13 5 25 14 34zM404 874c30 30 82 8 82 -34c0 -27 -21 -48 -48 -48c-28 0 -48 20 -48 48c0 13 5 25 14 34zM314 708h68l298 -708h-74l-77 188h-375l-80 -188h-69zM345 636l-165 -388h325z" />
    <glyph glyph-name="Aring" unicode="&#xc5;" horiz-adv-x="685" 
d="M344 932c49 0 92 -44 92 -96c0 -51 -43 -94 -92 -94c-51 0 -94 43 -94 95s43 95 94 95zM286 836c0 -32 25 -58 57 -58s57 26 57 59c0 35 -25 59 -57 59s-57 -27 -57 -60zM314 708h68l298 -708h-74l-77 188h-375l-80 -188h-69zM345 636l-165 -388h325z" />
    <glyph glyph-name="AE" unicode="&#xc6;" horiz-adv-x="926" 
d="M456 708h403v-60h-293v-252h276v-60h-276v-276h301v-60h-367v188h-312l-123 -188h-70zM500 648h-12l-261 -400h273v400z" />
    <glyph glyph-name="Ccedilla" unicode="&#xc7;" horiz-adv-x="704" 
d="M417 726c105 0 186 -37 244 -111l-54 -45c-40 60 -110 96 -190 96c-89 0 -162 -29 -217 -88s-83 -133 -83 -224c0 -90 27 -164 82 -223s127 -89 217 -89c83 0 166 43 210 110l54 -41c-63 -86 -151 -129 -264 -129c-7 0 -21 1 -26 1l-34 -46l2 -3c9 5 20 7 31 7
c48 0 83 -28 83 -72c0 -51 -48 -85 -113 -85c-34 0 -65 7 -94 21l14 32c20 -11 45 -17 76 -17c36 0 63 18 63 43s-22 42 -57 42c-14 0 -28 -3 -43 -8l-16 15l53 75c-92 13 -166 54 -221 121s-83 149 -83 246c0 109 34 198 103 268c68 69 156 104 263 104z" />
    <glyph glyph-name="Egrave" unicode="&#xc8;" horiz-adv-x="593" 
d="M171 896h80l104 -144h-50zM97 708h433v-60h-367v-252h344v-60h-344v-276h383v-60h-449v708z" />
    <glyph glyph-name="Eacute" unicode="&#xc9;" horiz-adv-x="593" 
d="M347 896h80l-134 -144h-50zM97 708h433v-60h-367v-252h344v-60h-344v-276h383v-60h-449v708z" />
    <glyph glyph-name="Ecircumflex" unicode="&#xca;" horiz-adv-x="593" 
d="M278 896h70l108 -144h-65l-81 108l-81 -108h-59zM97 708h433v-60h-367v-252h344v-60h-344v-276h383v-60h-449v708z" />
    <glyph glyph-name="Edieresis" unicode="&#xcb;" horiz-adv-x="593" 
d="M189 874c30 30 82 8 82 -34c0 -28 -21 -48 -48 -48c-28 0 -48 20 -48 48c0 13 5 25 14 34zM379 874c30 30 82 8 82 -34c0 -27 -21 -48 -48 -48c-28 0 -48 20 -48 48c0 13 5 25 14 34zM97 708h433v-60h-367v-252h344v-60h-344v-276h383v-60h-449v708z" />
    <glyph glyph-name="Igrave" unicode="&#xcc;" horiz-adv-x="260" 
d="M4 896h80l104 -144h-50zM97 708h66v-708h-66v708z" />
    <glyph glyph-name="Iacute" unicode="&#xcd;" horiz-adv-x="260" 
d="M176 896h80l-134 -144h-50zM97 708h66v-708h-66v708z" />
    <glyph glyph-name="Icircumflex" unicode="&#xce;" horiz-adv-x="260" 
d="M95 896h70l108 -144h-65l-81 108l-81 -108h-59zM97 708h66v-708h-66v708z" />
    <glyph glyph-name="Idieresis" unicode="&#xcf;" horiz-adv-x="260" 
d="M1 874c30 30 82 8 82 -34c0 -28 -21 -48 -48 -48c-28 0 -48 20 -48 48c0 13 5 25 14 34zM191 874c30 30 82 8 82 -34c0 -27 -21 -48 -48 -48c-28 0 -48 20 -48 48c0 13 5 25 14 34zM97 708h66v-708h-66v708z" />
    <glyph glyph-name="Eth" unicode="&#xd0;" horiz-adv-x="741" 
d="M10 396h78v312h221c131 0 233 -43 293 -111c59 -68 88 -151 88 -246c0 -87 -31 -193 -117 -268c-56 -49 -148 -83 -260 -83h-225v342h-78v54zM154 60h141c100 0 180 25 240 76c59 51 89 122 89 213c0 193 -127 299 -332 299h-138v-252h258v-54h-258v-282z" />
    <glyph glyph-name="Ntilde" unicode="&#xd1;" horiz-adv-x="778" 
d="M334 871c17 0 42 -8 74 -24c31 -16 53 -24 64 -24c24 0 40 16 48 48h36c-7 -63 -40 -102 -84 -102c-17 0 -42 8 -75 24s-55 24 -66 24c-25 0 -42 -16 -51 -48h-36c9 60 45 102 90 102zM97 708h85l431 -620h2v620h66v-708h-85l-431 620h-2v-620h-66v708z" />
    <glyph glyph-name="Ograve" unicode="&#xd2;" horiz-adv-x="834" 
d="M291 896h80l104 -144h-50zM417 726c109 0 198 -35 265 -105c67 -71 101 -160 101 -267s-34 -196 -102 -266c-69 -71 -157 -106 -264 -106s-195 35 -263 106c-69 70 -103 159 -103 266c0 108 34 197 102 267s156 105 264 105zM117 354c0 -90 28 -164 83 -223
s128 -89 217 -89s162 30 217 89s83 133 83 223c0 91 -27 165 -82 224s-128 88 -219 88c-90 0 -162 -29 -217 -88s-82 -133 -82 -224z" />
    <glyph glyph-name="Oacute" unicode="&#xd3;" horiz-adv-x="834" 
d="M463 896h80l-134 -144h-50zM417 726c109 0 198 -35 265 -105c67 -71 101 -160 101 -267s-34 -196 -102 -266c-69 -71 -157 -106 -264 -106s-195 35 -263 106c-69 70 -103 159 -103 266c0 108 34 197 102 267s156 105 264 105zM117 354c0 -90 28 -164 83 -223
s128 -89 217 -89s162 30 217 89s83 133 83 223c0 91 -27 165 -82 224s-128 88 -219 88c-90 0 -162 -29 -217 -88s-82 -133 -82 -224z" />
    <glyph glyph-name="Ocircumflex" unicode="&#xd4;" horiz-adv-x="834" 
d="M382 896h70l108 -144h-65l-81 108l-81 -108h-59zM417 726c109 0 198 -35 265 -105c67 -71 101 -160 101 -267s-34 -196 -102 -266c-69 -71 -157 -106 -264 -106s-195 35 -263 106c-69 70 -103 159 -103 266c0 108 34 197 102 267s156 105 264 105zM117 354
c0 -90 28 -164 83 -223s128 -89 217 -89s162 30 217 89s83 133 83 223c0 91 -27 165 -82 224s-128 88 -219 88c-90 0 -162 -29 -217 -88s-82 -133 -82 -224z" />
    <glyph glyph-name="Otilde" unicode="&#xd5;" horiz-adv-x="834" 
d="M351 871c17 0 42 -8 74 -24c31 -16 53 -24 64 -24c24 0 40 16 48 48h36c-7 -63 -40 -102 -84 -102c-18 0 -43 8 -75 24s-54 24 -66 24c-25 0 -42 -16 -51 -48h-36c9 60 45 102 90 102zM417 726c109 0 198 -35 265 -105c67 -71 101 -160 101 -267s-34 -196 -102 -266
c-69 -71 -157 -106 -264 -106s-195 35 -263 106c-69 70 -103 159 -103 266c0 108 34 197 102 267s156 105 264 105zM117 354c0 -90 28 -164 83 -223s128 -89 217 -89s162 30 217 89s83 133 83 223c0 91 -27 165 -82 224s-128 88 -219 88c-90 0 -162 -29 -217 -88
s-82 -133 -82 -224z" />
    <glyph glyph-name="Odieresis" unicode="&#xd6;" horiz-adv-x="834" 
d="M288 874c30 30 82 8 82 -34c0 -28 -21 -48 -48 -48c-28 0 -48 20 -48 48c0 13 5 25 14 34zM478 874c30 30 82 8 82 -34c0 -27 -21 -48 -48 -48c-28 0 -48 20 -48 48c0 13 5 25 14 34zM417 726c109 0 198 -35 265 -105c67 -71 101 -160 101 -267s-34 -196 -102 -266
c-69 -71 -157 -106 -264 -106s-195 35 -263 106c-69 70 -103 159 -103 266c0 108 34 197 102 267s156 105 264 105zM117 354c0 -90 28 -164 83 -223s128 -89 217 -89s162 30 217 89s83 133 83 223c0 91 -27 165 -82 224s-128 88 -219 88c-90 0 -162 -29 -217 -88
s-82 -133 -82 -224z" />
    <glyph glyph-name="multiply" unicode="&#xd7;" horiz-adv-x="666" 
d="M102 501l34 34l198 -198l198 198l33 -34l-198 -198l198 -198l-34 -34l-198 199l-199 -200l-34 35l199 199z" />
    <glyph glyph-name="Oslash" unicode="&#xd8;" horiz-adv-x="834" 
d="M68 15l76 82c-62 69 -93 155 -93 257c0 108 34 197 102 267s156 105 264 105c92 0 170 -26 235 -78l74 80l34 -31l-74 -81c65 -69 97 -156 97 -262c0 -107 -34 -196 -102 -266c-69 -71 -157 -106 -264 -106c-95 0 -175 28 -240 83l-74 -81zM117 354
c0 -83 23 -153 70 -210l422 457c-53 43 -117 65 -193 65c-90 0 -162 -29 -217 -88s-82 -133 -82 -224zM717 354c0 86 -25 158 -75 215l-422 -458c52 -46 118 -69 197 -69c89 0 162 30 217 89s83 133 83 223z" />
    <glyph glyph-name="Ugrave" unicode="&#xd9;" horiz-adv-x="684" 
d="M216 896h80l104 -144h-50zM84 708h66v-425c0 -155 65 -241 192 -241c128 0 192 88 192 251v415h66v-432c0 -185 -90 -294 -258 -294s-258 108 -258 289v437z" />
    <glyph glyph-name="Uacute" unicode="&#xda;" horiz-adv-x="684" 
d="M388 896h80l-134 -144h-50zM84 708h66v-425c0 -155 65 -241 192 -241c128 0 192 88 192 251v415h66v-432c0 -185 -90 -294 -258 -294s-258 108 -258 289v437z" />
    <glyph glyph-name="Ucircumflex" unicode="&#xdb;" horiz-adv-x="684" 
d="M309 896h70l108 -144h-65l-81 108l-81 -108h-59zM84 708h66v-425c0 -155 65 -241 192 -241c128 0 192 88 192 251v415h66v-432c0 -185 -90 -294 -258 -294s-258 108 -258 289v437z" />
    <glyph glyph-name="Udieresis" unicode="&#xdc;" horiz-adv-x="684" 
d="M217 874c30 30 82 8 82 -34c0 -28 -21 -48 -48 -48c-28 0 -48 20 -48 48c0 13 5 25 14 34zM407 874c30 30 82 8 82 -34c0 -27 -21 -48 -48 -48c-28 0 -48 20 -48 48c0 13 5 25 14 34zM84 708h66v-425c0 -155 65 -241 192 -241c128 0 192 88 192 251v415h66v-432
c0 -185 -90 -294 -258 -294s-258 108 -258 289v437z" />
    <glyph glyph-name="Yacute" unicode="&#xdd;" horiz-adv-x="574" 
d="M333 896h80l-134 -144h-50zM-6 708h79l214 -336l219 336h74l-260 -403v-305h-66v305z" />
    <glyph glyph-name="Thorn" unicode="&#xde;" horiz-adv-x="574" 
d="M97 708h66v-156h142c133 0 224 -68 224 -187c0 -115 -85 -185 -214 -185h-152v-180h-66v708zM163 240h153c88 0 147 46 147 125s-65 127 -150 127h-150v-252z" />
    <glyph glyph-name="germandbls" unicode="&#xdf;" horiz-adv-x="593" 
d="M291 768c111 0 185 -71 185 -179c0 -75 -36 -134 -99 -154v-2c106 -21 159 -91 159 -211c0 -69 -22 -125 -67 -166s-105 -62 -180 -62c-16 0 -32 2 -47 5v58c15 -6 33 -9 53 -9c108 0 181 69 181 172c0 113 -73 184 -194 184h-16v54h11c87 0 139 50 139 129
c0 77 -51 127 -130 127c-95 0 -146 -70 -146 -186v-528h-60v536c0 139 79 232 211 232z" />
    <glyph glyph-name="agrave" unicode="&#xe0;" horiz-adv-x="519" 
d="M153 708h80l104 -144h-50zM255 474c120 0 184 -59 184 -163v-137c0 -75 3 -133 9 -174h-56c-4 21 -6 46 -6 75h-2c-34 -58 -88 -87 -161 -87c-100 0 -164 53 -164 137c0 103 91 155 252 155h74v27c0 75 -49 113 -130 113c-53 0 -100 -17 -141 -52l-35 41
c43 41 113 65 176 65zM119 128c0 -51 45 -86 106 -86c105 0 160 59 160 158v32h-72c-112 0 -194 -33 -194 -104z" />
    <glyph glyph-name="aacute" unicode="&#xe1;" horiz-adv-x="519" 
d="M309 708h80l-134 -144h-50zM255 474c120 0 184 -59 184 -163v-137c0 -75 3 -133 9 -174h-56c-4 21 -6 46 -6 75h-2c-34 -58 -88 -87 -161 -87c-100 0 -164 53 -164 137c0 103 91 155 252 155h74v27c0 75 -49 113 -130 113c-53 0 -100 -17 -141 -52l-35 41
c43 41 113 65 176 65zM119 128c0 -51 45 -86 106 -86c105 0 160 59 160 158v32h-72c-112 0 -194 -33 -194 -104z" />
    <glyph glyph-name="acircumflex" unicode="&#xe2;" horiz-adv-x="519" 
d="M235 708h70l108 -144h-65l-81 108l-81 -108h-59zM255 474c120 0 184 -59 184 -163v-137c0 -75 3 -133 9 -174h-56c-4 21 -6 46 -6 75h-2c-34 -58 -88 -87 -161 -87c-100 0 -164 53 -164 137c0 103 91 155 252 155h74v27c0 75 -49 113 -130 113c-53 0 -100 -17 -141 -52
l-35 41c43 41 113 65 176 65zM119 128c0 -51 45 -86 106 -86c105 0 160 59 160 158v32h-72c-112 0 -194 -33 -194 -104z" />
    <glyph glyph-name="atilde" unicode="&#xe3;" horiz-adv-x="519" 
d="M194 683c19 0 43 -8 74 -24s52 -24 64 -24c24 0 40 16 48 48h36c-9 -65 -40 -102 -84 -102c-18 0 -43 8 -75 24s-54 24 -66 24c-26 0 -43 -16 -51 -48h-36c7 57 45 102 90 102zM255 474c120 0 184 -59 184 -163v-137c0 -75 3 -133 9 -174h-56c-4 21 -6 46 -6 75h-2
c-34 -58 -88 -87 -161 -87c-100 0 -164 53 -164 137c0 103 91 155 252 155h74v27c0 75 -49 113 -130 113c-53 0 -100 -17 -141 -52l-35 41c43 41 113 65 176 65zM119 128c0 -51 45 -86 106 -86c105 0 160 59 160 158v32h-72c-112 0 -194 -33 -194 -104z" />
    <glyph glyph-name="adieresis" unicode="&#xe4;" horiz-adv-x="519" 
d="M131 686c19 19 49 19 68 0s19 -49 0 -68s-49 -19 -68 0s-19 49 0 68zM321 686c19 19 49 19 68 0s19 -49 0 -68s-49 -19 -68 0s-19 49 0 68zM255 474c120 0 184 -59 184 -163v-137c0 -75 3 -133 9 -174h-56c-4 21 -6 46 -6 75h-2c-34 -58 -88 -87 -161 -87
c-100 0 -164 53 -164 137c0 103 91 155 252 155h74v27c0 75 -49 113 -130 113c-53 0 -100 -17 -141 -52l-35 41c43 41 113 65 176 65zM119 128c0 -51 45 -86 106 -86c105 0 160 59 160 158v32h-72c-112 0 -194 -33 -194 -104z" />
    <glyph glyph-name="aring" unicode="&#xe5;" horiz-adv-x="519" 
d="M261 744c49 0 92 -44 92 -96c0 -51 -43 -94 -92 -94c-51 0 -94 43 -94 95s43 95 94 95zM203 648c0 -32 25 -58 57 -58s57 26 57 59c0 35 -25 59 -57 59s-57 -27 -57 -60zM255 474c120 0 184 -59 184 -163v-137c0 -75 3 -133 9 -174h-56c-4 21 -6 46 -6 75h-2
c-34 -58 -88 -87 -161 -87c-100 0 -164 53 -164 137c0 103 91 155 252 155h74v27c0 75 -49 113 -130 113c-53 0 -100 -17 -141 -52l-35 41c43 41 113 65 176 65zM119 128c0 -51 45 -86 106 -86c105 0 160 59 160 158v32h-72c-112 0 -194 -33 -194 -104z" />
    <glyph glyph-name="ae" unicode="&#xe6;" horiz-adv-x="852" 
d="M250 474c96 0 149 -31 180 -96c32 59 101 96 170 96c131 0 208 -85 208 -225v-33h-356v-9c0 -100 64 -165 160 -165c58 0 102 25 133 74l47 -34c-53 -68 -104 -94 -189 -94c-91 0 -152 38 -183 114c-36 -76 -104 -114 -203 -114s-163 54 -163 137c0 92 79 145 218 145
h120v8c0 95 -47 142 -142 142c-53 0 -100 -17 -141 -52l-35 41c41 40 113 65 176 65zM452 270h296c-1 96 -56 150 -148 150c-84 0 -147 -59 -148 -150zM114 127c0 -49 46 -85 106 -85c107 0 172 63 172 174h-121c-104 0 -157 -37 -157 -89z" />
    <glyph glyph-name="ccedilla" unicode="&#xe7;" horiz-adv-x="481" 
d="M191 -88l57 81c-58 10 -105 37 -140 80c-36 43 -54 96 -54 158c0 71 23 129 69 175c45 45 103 68 174 68c67 0 125 -27 172 -80l-48 -36c-39 41 -81 62 -125 62c-53 0 -97 -18 -131 -53c-34 -36 -51 -81 -51 -136s17 -100 51 -135c34 -36 78 -54 131 -54
c49 0 90 21 125 64l46 -38c-44 -53 -99 -80 -166 -80c-8 0 -14 0 -18 1l-38 -52l2 -3c9 5 20 7 31 7c48 0 83 -28 83 -72c0 -51 -48 -85 -113 -85c-34 0 -65 7 -94 21l14 32c20 -11 45 -17 76 -17c36 0 63 18 63 43s-22 42 -57 42c-14 0 -28 -3 -43 -8z" />
    <glyph glyph-name="egrave" unicode="&#xe8;" horiz-adv-x="556" 
d="M152 708h80l104 -144h-50zM285 474c63 0 115 -20 156 -60c41 -41 61 -95 61 -162v-36h-388c5 -101 71 -174 175 -174c63 0 126 33 155 82l44 -37c-44 -66 -111 -99 -200 -99c-70 0 -126 23 -169 68s-65 103 -65 176c0 68 22 125 65 172s98 70 166 70zM114 270h328
c-1 43 -16 78 -47 107s-69 43 -114 43c-44 0 -81 -15 -112 -44s-50 -65 -55 -106z" />
    <glyph glyph-name="eacute" unicode="&#xe9;" horiz-adv-x="556" 
d="M324 708h80l-134 -144h-50zM285 474c63 0 115 -20 156 -60c41 -41 61 -95 61 -162v-36h-388c5 -101 71 -174 175 -174c63 0 126 33 155 82l44 -37c-44 -66 -111 -99 -200 -99c-70 0 -126 23 -169 68s-65 103 -65 176c0 68 22 125 65 172s98 70 166 70zM114 270h328
c-1 43 -16 78 -47 107s-69 43 -114 43c-44 0 -81 -15 -112 -44s-50 -65 -55 -106z" />
    <glyph glyph-name="ecircumflex" unicode="&#xea;" horiz-adv-x="556" 
d="M243 708h70l108 -144h-65l-81 108l-81 -108h-59zM285 474c63 0 115 -20 156 -60c41 -41 61 -95 61 -162v-36h-388c5 -101 71 -174 175 -174c63 0 126 33 155 82l44 -37c-44 -66 -111 -99 -200 -99c-70 0 -126 23 -169 68s-65 103 -65 176c0 68 22 125 65 172
s98 70 166 70zM114 270h328c-1 43 -16 78 -47 107s-69 43 -114 43c-44 0 -81 -15 -112 -44s-50 -65 -55 -106z" />
    <glyph glyph-name="edieresis" unicode="&#xeb;" horiz-adv-x="556" 
d="M149 686c19 19 49 19 68 0s19 -49 0 -68s-49 -19 -68 0s-19 49 0 68zM339 686c19 19 49 19 68 0s19 -49 0 -68s-49 -19 -68 0s-19 49 0 68zM285 474c63 0 115 -20 156 -60c41 -41 61 -95 61 -162v-36h-388c5 -101 71 -174 175 -174c63 0 126 33 155 82l44 -37
c-44 -66 -111 -99 -200 -99c-70 0 -126 23 -169 68s-65 103 -65 176c0 68 22 125 65 172s98 70 166 70zM114 270h328c-1 43 -16 78 -47 107s-69 43 -114 43c-44 0 -81 -15 -112 -44s-50 -65 -55 -106z" />
    <glyph glyph-name="igrave" unicode="&#xec;" horiz-adv-x="240" 
d="M-6 708h80l104 -144h-50zM90 0v462h60v-462h-60z" />
    <glyph glyph-name="iacute" unicode="&#xed;" horiz-adv-x="240" 
d="M166 708h80l-134 -144h-50zM90 0v462h60v-462h-60z" />
    <glyph glyph-name="icircumflex" unicode="&#xee;" horiz-adv-x="240" 
d="M85 708h70l108 -144h-65l-81 108l-81 -108h-59zM90 0v462h60v-462h-60z" />
    <glyph glyph-name="idieresis" unicode="&#xef;" horiz-adv-x="240" 
d="M-9 686c19 19 49 19 68 0s19 -49 0 -68s-49 -19 -68 0s-19 49 0 68zM181 686c19 19 49 19 68 0s19 -49 0 -68s-49 -19 -68 0s-19 49 0 68zM90 0v462h60v-462h-60z" />
    <glyph glyph-name="eth" unicode="&#xf0;" horiz-adv-x="594" 
d="M159 738l52 30c37 -25 68 -51 95 -80l104 56l36 -30l-106 -57c133 -121 200 -255 200 -401c0 -81 -22 -145 -67 -194s-103 -74 -176 -74c-71 0 -129 23 -174 69c-46 46 -69 104 -69 174c0 71 23 129 69 175c45 45 103 68 174 68c59 0 108 -18 149 -55l2 2
c-49 85 -102 154 -161 207l-107 -57l-31 33l104 56c-35 31 -67 57 -94 78zM165 367c-34 -36 -51 -81 -51 -136s17 -100 51 -135c34 -36 78 -54 132 -54s98 18 132 54c34 35 51 80 51 135s-17 100 -51 136c-35 35 -79 53 -133 53c-53 0 -97 -18 -131 -53z" />
    <glyph glyph-name="ntilde" unicode="&#xf1;" horiz-adv-x="556" 
d="M212 683c19 0 43 -8 74 -24s52 -24 64 -24c24 0 40 16 48 48h36c-9 -65 -40 -102 -84 -102c-18 0 -43 8 -75 24s-54 24 -66 24c-26 0 -43 -16 -51 -48h-36c7 57 45 102 90 102zM300 474c117 0 176 -67 176 -201v-273h-60v270c0 100 -39 150 -116 150
c-97 0 -160 -72 -160 -191v-229h-60v337c0 3 -1 24 -2 63c-2 39 -3 59 -3 62h60c2 -51 3 -78 4 -81h3c27 56 90 93 158 93z" />
    <glyph glyph-name="ograve" unicode="&#xf2;" horiz-adv-x="594" 
d="M171 708h80l104 -144h-50zM297 474c71 0 129 -23 175 -68c45 -46 68 -104 68 -175c0 -70 -23 -128 -68 -174s-104 -69 -175 -69s-129 23 -174 69c-46 45 -69 103 -69 174s23 129 68 175c45 45 104 68 175 68zM166 367c-35 -36 -52 -81 -52 -136s17 -100 51 -135
c34 -36 78 -54 132 -54s98 18 132 54c34 35 51 80 51 135s-17 100 -51 136c-35 35 -79 53 -133 53c-53 0 -96 -18 -130 -53z" />
    <glyph glyph-name="oacute" unicode="&#xf3;" horiz-adv-x="594" 
d="M343 708h80l-134 -144h-50zM297 474c71 0 129 -23 175 -68c45 -46 68 -104 68 -175c0 -70 -23 -128 -68 -174s-104 -69 -175 -69s-129 23 -174 69c-46 45 -69 103 -69 174s23 129 68 175c45 45 104 68 175 68zM166 367c-35 -36 -52 -81 -52 -136s17 -100 51 -135
c34 -36 78 -54 132 -54s98 18 132 54c34 35 51 80 51 135s-17 100 -51 136c-35 35 -79 53 -133 53c-53 0 -96 -18 -130 -53z" />
    <glyph glyph-name="ocircumflex" unicode="&#xf4;" horiz-adv-x="594" 
d="M262 708h70l108 -144h-65l-81 108l-81 -108h-59zM297 474c71 0 129 -23 175 -68c45 -46 68 -104 68 -175c0 -70 -23 -128 -68 -174s-104 -69 -175 -69s-129 23 -174 69c-46 45 -69 103 -69 174s23 129 68 175c45 45 104 68 175 68zM166 367c-35 -36 -52 -81 -52 -136
s17 -100 51 -135c34 -36 78 -54 132 -54s98 18 132 54c34 35 51 80 51 135s-17 100 -51 136c-35 35 -79 53 -133 53c-53 0 -96 -18 -130 -53z" />
    <glyph glyph-name="otilde" unicode="&#xf5;" horiz-adv-x="594" 
d="M231 683c18 0 42 -8 73 -24s52 -24 65 -24c24 0 40 16 48 48h36c-9 -65 -40 -102 -84 -102c-18 0 -43 8 -75 24s-54 24 -66 24c-26 0 -43 -16 -51 -48h-36c7 57 45 102 90 102zM297 474c71 0 129 -23 175 -68c45 -46 68 -104 68 -175c0 -70 -23 -128 -68 -174
s-104 -69 -175 -69s-129 23 -174 69c-46 45 -69 103 -69 174s23 129 68 175c45 45 104 68 175 68zM166 367c-35 -36 -52 -81 -52 -136s17 -100 51 -135c34 -36 78 -54 132 -54s98 18 132 54c34 35 51 80 51 135s-17 100 -51 136c-35 35 -79 53 -133 53
c-53 0 -96 -18 -130 -53z" />
    <glyph glyph-name="odieresis" unicode="&#xf6;" horiz-adv-x="594" 
d="M168 686c19 19 49 19 68 0s19 -49 0 -68s-49 -19 -68 0s-19 49 0 68zM358 686c19 19 49 19 68 0s19 -49 0 -68s-49 -19 -68 0s-19 49 0 68zM297 474c71 0 129 -23 175 -68c45 -46 68 -104 68 -175c0 -70 -23 -128 -68 -174s-104 -69 -175 -69s-129 23 -174 69
c-46 45 -69 103 -69 174s23 129 68 175c45 45 104 68 175 68zM166 367c-35 -36 -52 -81 -52 -136s17 -100 51 -135c34 -36 78 -54 132 -54s98 18 132 54c34 35 51 80 51 135s-17 100 -51 136c-35 35 -79 53 -133 53c-53 0 -96 -18 -130 -53z" />
    <glyph glyph-name="divide" unicode="&#xf7;" horiz-adv-x="666" 
d="M297 493c20 20 52 20 72 0s20 -52 0 -72c-21 -20 -51 -20 -71 0c-21 20 -21 52 -1 72zM78 327h510v-48h-510v48zM333 200c44 0 68 -55 36 -87s-87 -9 -87 36c0 29 26 51 51 51z" />
    <glyph glyph-name="oslash" unicode="&#xf8;" horiz-adv-x="594" 
d="M454 421l69 70l32 -29l-71 -71c37 -41 56 -95 56 -160c0 -70 -23 -128 -68 -174s-104 -69 -175 -69c-64 0 -117 18 -158 54l-68 -69l-32 29l70 71c-37 44 -55 97 -55 158c0 71 23 129 68 175c45 45 104 68 175 68c61 0 113 -18 157 -53zM114 231c0 -46 12 -85 36 -116
l263 265c-31 27 -70 40 -117 40c-53 0 -97 -18 -131 -53c-34 -36 -51 -81 -51 -136zM443 349l-263 -266c31 -27 70 -41 117 -41c54 0 98 18 132 54c34 35 51 80 51 135c0 48 -12 87 -37 118z" />
    <glyph glyph-name="ugrave" unicode="&#xf9;" horiz-adv-x="556" 
d="M152 708h80l104 -144h-50zM251 -12c-117 0 -176 67 -176 201v273h60v-270c0 -100 39 -150 116 -150c97 0 160 72 160 191v229h60v-337c0 -3 1 -24 3 -63c1 -39 2 -59 2 -62h-60c-2 51 -3 78 -4 81h-3c-27 -56 -90 -93 -158 -93z" />
    <glyph glyph-name="uacute" unicode="&#xfa;" horiz-adv-x="556" 
d="M324 708h80l-134 -144h-50zM251 -12c-117 0 -176 67 -176 201v273h60v-270c0 -100 39 -150 116 -150c97 0 160 72 160 191v229h60v-337c0 -3 1 -24 3 -63c1 -39 2 -59 2 -62h-60c-2 51 -3 78 -4 81h-3c-27 -56 -90 -93 -158 -93z" />
    <glyph glyph-name="ucircumflex" unicode="&#xfb;" horiz-adv-x="556" 
d="M243 708h70l108 -144h-65l-81 108l-81 -108h-59zM251 -12c-117 0 -176 67 -176 201v273h60v-270c0 -100 39 -150 116 -150c97 0 160 72 160 191v229h60v-337c0 -3 1 -24 3 -63c1 -39 2 -59 2 -62h-60c-2 51 -3 78 -4 81h-3c-27 -56 -90 -93 -158 -93z" />
    <glyph glyph-name="udieresis" unicode="&#xfc;" horiz-adv-x="556" 
d="M149 686c19 19 49 19 68 0s19 -49 0 -68s-49 -19 -68 0s-19 49 0 68zM339 686c19 19 49 19 68 0s19 -49 0 -68s-49 -19 -68 0s-19 49 0 68zM251 -12c-117 0 -176 67 -176 201v273h60v-270c0 -100 39 -150 116 -150c97 0 160 72 160 191v229h60v-337c0 -3 1 -24 3 -63
c1 -39 2 -59 2 -62h-60c-2 51 -3 78 -4 81h-3c-27 -56 -90 -93 -158 -93z" />
    <glyph glyph-name="yacute" unicode="&#xfd;" horiz-adv-x="463" 
d="M280 708h80l-134 -144h-50zM15 462h67l153 -389l149 389h64l-237 -603c-26 -66 -69 -99 -128 -99c-18 0 -38 3 -59 9l6 56c23 -7 41 -11 54 -11c31 0 57 25 76 74l43 110z" />
    <glyph glyph-name="thorn" unicode="&#xfe;" horiz-adv-x="611" 
d="M67 -228v984h60v-375h2c32 57 108 93 185 93c70 0 128 -23 174 -68c46 -46 69 -104 69 -175c0 -70 -22 -128 -67 -174s-104 -69 -176 -69c-77 0 -152 36 -185 93h-2v-309h-60zM121 231c0 -52 19 -96 56 -133s83 -56 137 -56s98 18 132 54s51 81 51 135
c0 55 -17 101 -51 136c-35 35 -79 53 -133 53c-53 0 -98 -18 -135 -55c-38 -37 -57 -81 -57 -134z" />
    <glyph glyph-name="ydieresis" unicode="&#xff;" horiz-adv-x="463" 
d="M103 686c19 19 49 19 68 0s19 -49 0 -68s-49 -19 -68 0s-19 49 0 68zM293 686c19 19 49 19 68 0s19 -49 0 -68s-49 -19 -68 0s-19 49 0 68zM15 462h67l153 -389l149 389h64l-237 -603c-26 -66 -69 -99 -128 -99c-18 0 -38 3 -59 9l6 56c23 -7 41 -11 54 -11
c31 0 57 25 76 74l43 110z" />
    <glyph glyph-name="dotlessi" unicode="&#x131;" horiz-adv-x="240" 
d="M90 0v462h60v-462h-60z" />
    <glyph glyph-name="Lslash" unicode="&#x141;" horiz-adv-x="500" 
d="M97 708h66v-358l216 189v-62l-216 -189v-228h330v-60h-396v231l-72 -64v65l72 63v413z" />
    <glyph glyph-name="lslash" unicode="&#x142;" horiz-adv-x="240" 
d="M90 391v365h60v-305l84 86v-67l-84 -85v-385h-60v324l-84 -85v67z" />
    <glyph glyph-name="OE" unicode="&#x152;" horiz-adv-x="944" 
d="M444 708h433v-60h-296v-252h279v-60h-279v-276h304v-60h-471c-101 0 -186 34 -253 101c-68 67 -102 151 -102 253c0 108 37 194 111 258s165 96 274 96zM125 354c0 -91 31 -162 92 -215s135 -79 222 -79h76v588h-77c-87 0 -160 -27 -221 -80s-92 -125 -92 -214z" />
    <glyph glyph-name="oe" unicode="&#x153;" horiz-adv-x="907" 
d="M274 474c91 0 158 -38 199 -115c32 73 98 115 181 115c127 0 209 -79 209 -224v-34h-356v-9c0 -100 64 -165 160 -165c57 0 102 25 133 74l47 -34c-52 -67 -104 -94 -189 -94c-92 0 -153 38 -183 114h-2c-39 -76 -106 -114 -199 -114c-68 0 -123 23 -166 70
s-64 104 -64 173s21 126 64 173s98 70 166 70zM153 366c-33 -37 -49 -82 -49 -135s16 -98 49 -134c33 -37 74 -55 123 -55c51 0 92 18 124 54c31 35 47 80 47 135s-16 101 -48 136s-73 53 -124 53c-49 0 -89 -18 -122 -54zM507 270h296c-1 96 -56 150 -148 150
c-83 0 -147 -61 -148 -150z" />
    <glyph glyph-name="Scaron" unicode="&#x160;" horiz-adv-x="556" 
d="M241 752l-109 144h62l83 -114l86 114h54l-106 -144h-70zM299 726c82 0 146 -30 193 -89l-57 -41c-34 47 -80 70 -138 70c-95 0 -159 -53 -159 -134c0 -73 40 -113 148 -145c27 -8 47 -14 60 -19s30 -11 50 -19c20 -9 35 -17 46 -26c33 -27 65 -74 61 -142
c0 -57 -21 -105 -62 -142c-41 -38 -94 -57 -158 -57c-103 0 -179 36 -230 107l63 42c35 -59 89 -89 162 -89c92 0 159 58 159 139c0 41 -13 71 -39 89c-27 18 -78 39 -153 64c-7 2 -12 4 -16 5c-108 36 -157 94 -157 193c0 58 21 105 64 141c43 35 97 53 163 53z" />
    <glyph glyph-name="scaron" unicode="&#x161;" horiz-adv-x="426" 
d="M176 564l-109 144h62l83 -114l86 114h54l-106 -144h-70zM206 474c78 0 132 -29 162 -87l-54 -32c-23 43 -59 65 -108 65c-51 0 -99 -31 -99 -74c0 -48 40 -66 112 -79c117 -21 162 -55 162 -136c0 -87 -69 -143 -168 -143c-87 0 -149 31 -185 94l53 36
c23 -45 77 -76 134 -76s106 36 106 85c0 28 -11 48 -41 61s-45 17 -90 26c-111 23 -143 63 -143 127c0 80 68 133 159 133z" />
    <glyph glyph-name="Ydieresis" unicode="&#x178;" horiz-adv-x="574" 
d="M158 874c30 30 82 8 82 -34c0 -28 -21 -48 -48 -48c-28 0 -48 20 -48 48c0 13 5 25 14 34zM348 874c30 30 82 8 82 -34c0 -27 -21 -48 -48 -48c-28 0 -48 20 -48 48c0 13 5 25 14 34zM-6 708h79l214 -336l219 336h74l-260 -403v-305h-66v305z" />
    <glyph glyph-name="Zcaron" unicode="&#x17d;" horiz-adv-x="556" 
d="M241 752l-109 144h62l83 -114l86 114h54l-106 -144h-70zM29 708h493v-54l-417 -594h428v-60h-510v52l414 596h-408v60z" />
    <glyph glyph-name="zcaron" unicode="&#x17e;" horiz-adv-x="426" 
d="M176 564l-109 144h62l83 -114l86 114h54l-106 -144h-70zM41 462h346v-36l-276 -372h288v-54h-372v36l277 372h-263v54z" />
    <glyph glyph-name="florin" unicode="&#x192;" horiz-adv-x="520" 
d="M399 720c31 0 61 -10 90 -30l-32 -45c-21 14 -41 21 -58 21c-44 0 -72 -31 -84 -94l-28 -153h108v-48h-117l-72 -390c-15 -83 -63 -125 -143 -125c-33 0 -60 8 -79 24l30 47c14 -11 32 -17 53 -17c49 0 73 31 88 115l63 346h-108v48h117l29 155c17 96 68 146 143 146z
" />
    <glyph glyph-name="circumflex" unicode="&#x2c6;" horiz-adv-x="240" 
d="M85 708h70l108 -144h-65l-81 108l-81 -108h-59z" />
    <glyph glyph-name="caron" unicode="&#x2c7;" horiz-adv-x="240" 
d="M83 564l-109 144h62l83 -114l86 114h54l-106 -144h-70z" />
    <glyph glyph-name="uni02C9" unicode="&#x2c9;" horiz-adv-x="240" 
d="M-12 654h264v-48h-264v48z" />
    <glyph glyph-name="breve" unicode="&#x2d8;" horiz-adv-x="240" 
d="M-24 708h42c7 -49 44 -78 101 -78c64 0 91 22 103 78h42c-9 -80 -65 -126 -146 -126c-83 0 -138 47 -142 126z" />
    <glyph glyph-name="dotaccent" unicode="&#x2d9;" horiz-adv-x="240" 
d="M89 686c30 30 82 8 82 -34c0 -28 -20 -48 -48 -48c-27 0 -48 20 -48 48c0 13 5 25 14 34z" />
    <glyph glyph-name="ring" unicode="&#x2da;" horiz-adv-x="240" 
d="M121 744c49 0 92 -44 92 -96c0 -51 -43 -94 -92 -94c-51 0 -94 43 -94 95s43 95 94 95zM63 648c0 -32 25 -58 57 -58s57 26 57 59c0 35 -25 59 -57 59s-57 -27 -57 -60z" />
    <glyph glyph-name="ogonek" unicode="&#x2db;" horiz-adv-x="240" 
d="M98 0h45c-41 -29 -73 -81 -73 -121c0 -31 14 -47 43 -47c23 0 41 8 55 23l19 -38c-25 -22 -54 -33 -85 -33c-56 0 -92 33 -92 82c0 42 29 87 88 134z" />
    <glyph glyph-name="tilde" unicode="&#x2dc;" horiz-adv-x="240" 
d="M54 683c19 0 43 -8 74 -24s52 -24 64 -24c24 0 40 16 48 48h36c-9 -65 -40 -102 -84 -102c-18 0 -43 8 -75 24s-54 24 -66 24c-26 0 -43 -16 -51 -48h-36c7 57 45 102 90 102z" />
    <glyph glyph-name="hungarumlaut" unicode="&#x2dd;" horiz-adv-x="240" 
d="M93 708h80l-134 -144h-50zM239 708h80l-134 -144h-50z" />
    <glyph glyph-name="uni0394" unicode="&#x394;" horiz-adv-x="670" 
d="M296 712h74l287 -712h-642zM332 645l-226 -583h455z" />
    <glyph glyph-name="uni0394" unicode="&#x3b4;" horiz-adv-x="670" 
d="M296 712h74l287 -712h-642zM332 645l-226 -583h455z" />
    <glyph glyph-name="uni03A9" unicode="&#x3a9;" horiz-adv-x="744" 
d="M367 721c89 0 164 -29 226 -87c61 -59 92 -131 92 -217c0 -67 -17 -125 -52 -176s-83 -84 -145 -101v-82h197v-58h-251v181c116 21 184 109 184 234c0 70 -24 128 -72 175s-108 70 -180 70c-71 0 -130 -23 -179 -70s-73 -106 -73 -175c0 -124 69 -215 184 -234v-181h-251
v58h197v82c-61 17 -109 52 -144 103s-53 108 -53 173c0 87 31 159 93 218c62 58 138 87 227 87z" />
    <glyph glyph-name="uni03A9" unicode="&#x3c9;" horiz-adv-x="744" 
d="M367 721c89 0 164 -29 226 -87c61 -59 92 -131 92 -217c0 -67 -17 -125 -52 -176s-83 -84 -145 -101v-82h197v-58h-251v181c116 21 184 109 184 234c0 70 -24 128 -72 175s-108 70 -180 70c-71 0 -130 -23 -179 -70s-73 -106 -73 -175c0 -124 69 -215 184 -234v-181h-251
v58h197v82c-61 17 -109 52 -144 103s-53 108 -53 173c0 87 31 159 93 218c62 58 138 87 227 87z" />
    <glyph glyph-name="uni03BC" unicode="&#x3bc;" horiz-adv-x="556" 
d="M75 -228v690h60v-276c0 -96 39 -144 116 -144c99 0 160 76 160 185v235h60v-337c0 -3 1 -24 3 -63c1 -39 2 -59 2 -62h-60c-1 43 -3 70 -4 81h-3c-29 -59 -90 -93 -159 -93c-49 0 -87 13 -116 38v-254h-59z" />
    <glyph glyph-name="pi" unicode="&#x3c0;" horiz-adv-x="563" 
d="M38 462h482v-47h-76v-321c0 -43 12 -56 44 -56c10 0 22 2 36 7v-36c-23 -10 -43 -15 -58 -15c-53 0 -74 24 -74 105v316h-232v-415h-52v415h-70v47z" />
    <glyph glyph-name="uni060C" unicode="&#x60c;" horiz-adv-x="260" 
d="M137 0h-70l77 228h59z" />
    <glyph glyph-name="uni0615" unicode="&#x615;" 
d="M46 697c51 0 82 -37 82 -92c0 -17 -3 -34 -9 -52h-247v33h51v168h33v-107c25 33 55 50 90 50zM44 664c-36 0 -70 -29 -89 -78h139c1 9 2 16 2 19c0 36 -20 59 -52 59z" />
    <glyph glyph-name="uni061B" unicode="&#x61b;" horiz-adv-x="260" 
d="M140 186h-70l77 228h59zM140 8c-19 -19 -49 -19 -68 0s-19 49 0 68s49 19 68 0s19 -49 0 -68z" />
    <glyph glyph-name="uni061F" unicode="&#x61f;" horiz-adv-x="463" 
d="M269 186h-60v64c0 59 -28 95 -81 142c-54 47 -81 101 -81 162c0 105 76 172 184 172c101 0 176 -61 195 -162l-65 -8c-16 71 -62 116 -131 116c-72 0 -117 -48 -117 -121c0 -47 26 -93 78 -140s78 -94 78 -141v-84zM272 8c-19 -19 -49 -19 -68 0s-19 49 0 68s49 19 68 0
s19 -49 0 -68z" />
    <glyph glyph-name="uni0621" unicode="&#x621;" horiz-adv-x="472" 
d="M219 53h203v-53h-366v53h99c-32 37 -48 80 -48 131s18 93 55 128s83 52 140 52c34 0 67 -5 99 -16l-12 -52c-28 8 -54 12 -79 12c-89 0 -147 -49 -147 -129c0 -42 19 -84 56 -126z" />
    <glyph glyph-name="uni0622" unicode="&#x622;" horiz-adv-x="222" 
d="M171 820c-18 0 -43 5 -76 14s-55 13 -65 13c-15 0 -32 -6 -49 -19l-22 26c25 22 49 33 73 33c12 0 34 -4 67 -13s56 -14 69 -14c19 0 37 9 56 26l25 -24c-19 -28 -45 -42 -78 -42zM141 0h-60v756h60v-756z" />
    <glyph glyph-name="uni0623" unicode="&#x623;" horiz-adv-x="222" 
d="M106 843h87v-32h-160v32h39c-11 18 -16 36 -16 53c0 45 34 75 82 75c13 0 29 -2 46 -6l-6 -32c-11 3 -23 5 -35 5c-48 0 -70 -42 -37 -95zM141 0h-60v756h60v-756z" />
    <glyph glyph-name="uni0624" unicode="&#x624;" horiz-adv-x="493" 
d="M233 579h113v-40h-206v40h50c-14 22 -21 45 -21 70c0 57 42 93 103 93c19 0 40 -2 62 -7l-8 -39c-21 3 -37 5 -46 5c-39 0 -69 -19 -69 -58c0 -20 7 -41 22 -64zM251 412c116 0 181 -76 181 -191v-176c0 -136 -83 -218 -275 -218c-15 0 -28 0 -40 1l-3 55
c168 -9 253 37 256 138c-34 -14 -72 -21 -114 -21c-124 0 -201 73 -201 196c0 61 18 113 54 154c35 41 83 62 142 62zM372 77v124c0 100 -45 153 -124 153c-77 0 -132 -59 -132 -152s56 -143 148 -143c40 0 76 6 108 18z" />
    <glyph glyph-name="uni0625" unicode="&#x625;" horiz-adv-x="222" 
d="M81 756h60v-756h-60v756zM104 -218h87v-32h-160v32h38c-10 16 -15 33 -15 52c0 45 33 76 81 76c15 0 31 -2 47 -7l-6 -31c-11 3 -23 5 -35 5c-31 0 -53 -18 -53 -47c0 -17 5 -33 16 -48z" />
    <glyph glyph-name="uni0626" unicode="&#x626;" horiz-adv-x="754" 
d="M163 308h113v-40h-206v40h50c-14 22 -21 45 -21 70c0 57 42 93 103 93c19 0 40 -2 62 -7l-8 -39c-22 3 -37 5 -46 5c-39 0 -69 -19 -69 -58c0 -20 7 -41 22 -64zM439 262c0 -66 89 -99 161 -135c48 -25 87 -67 87 -119s-29 -94 -86 -125c-58 -31 -135 -47 -232 -47
c-215 0 -323 69 -323 207c0 38 8 81 23 129l56 -15c-12 -45 -18 -80 -18 -107c0 -108 87 -155 262 -155c161 0 257 42 257 106c0 56 -89 88 -161 129c-49 28 -88 73 -88 129c0 88 73 153 193 153c30 0 66 -5 107 -15l-11 -57c-36 9 -69 14 -98 14c-80 0 -129 -37 -129 -92z
" />
    <glyph glyph-name="uni0627" unicode="&#x627;" horiz-adv-x="222" 
d="M141 0h-60v756h60v-756z" />
    <glyph glyph-name="uni0628" unicode="&#x628;" horiz-adv-x="923" 
d="M802 197v204h60v-228c0 -104 -69 -173 -192 -173h-394c-145 0 -230 71 -230 188c0 46 11 98 32 156l56 -15c-18 -58 -27 -102 -27 -131c0 -94 59 -141 177 -141h379c95 0 139 43 139 140zM440 -90c52 0 52 -82 0 -82c-55 0 -55 82 0 82z" />
    <glyph glyph-name="uni0629" unicode="&#x629;" horiz-adv-x="505" 
d="M174 530c-23 0 -41 17 -41 41s18 41 41 41c53 5 53 -87 0 -82zM307 530c-55 -5 -55 87 0 82c52 5 52 -87 0 -82zM242 -5c-129 0 -202 81 -202 198c0 61 18 113 54 155c35 42 85 63 148 63s113 -21 149 -63c35 -43 53 -94 53 -155c0 -119 -77 -198 -202 -198zM244 54
c88 0 139 48 139 141c0 95 -50 158 -141 158c-92 0 -141 -63 -141 -158s54 -141 143 -141z" />
    <glyph glyph-name="uni062A" unicode="&#x62a;" horiz-adv-x="923" 
d="M382 432c-23 0 -41 17 -41 41s18 41 41 41c53 5 53 -87 0 -82zM515 432c-55 -5 -55 87 0 82c52 5 52 -87 0 -82zM802 197v204h60v-228c0 -104 -69 -173 -192 -173h-394c-145 0 -230 71 -230 188c0 46 11 98 32 156l56 -15c-18 -58 -27 -102 -27 -131
c0 -94 59 -141 177 -141h379c95 0 139 43 139 140z" />
    <glyph glyph-name="uni062B" unicode="&#x62b;" horiz-adv-x="923" 
d="M451 534c-24 0 -41 18 -41 42c0 23 17 41 41 41c23 0 40 -18 40 -41c0 -24 -17 -42 -40 -42zM382 435c-23 0 -41 17 -41 41c0 23 18 41 41 41c24 0 41 -18 41 -41c0 -24 -17 -41 -41 -41zM473 476c0 23 18 41 42 41c23 0 40 -18 40 -41c0 -24 -17 -41 -40 -41
c-24 0 -42 17 -42 41zM802 197v204h60v-228c0 -104 -69 -173 -192 -173h-394c-145 0 -230 71 -230 188c0 46 11 98 32 156l56 -15c-18 -58 -27 -102 -27 -131c0 -94 59 -141 177 -141h379c95 0 139 43 139 140z" />
    <glyph glyph-name="uni062C" unicode="&#x62c;" horiz-adv-x="610" 
d="M293 411c164 0 251 -101 251 -262c0 -46 -7 -96 -21 -149h-309c-71 0 -113 -35 -113 -98c0 -67 49 -103 134 -103c20 0 41 2 63 7l12 -57c-23 -6 -50 -9 -82 -9c-112 0 -188 61 -188 161c0 96 65 156 168 156h266c8 30 12 59 12 88c0 127 -71 208 -202 208
c-33 0 -71 -7 -114 -20l-15 54c43 16 89 24 138 24zM257 -68c26 25 65 6 65 -27c0 -23 -16 -38 -37 -38c-34 0 -53 41 -28 65z" />
    <glyph glyph-name="uni062D" unicode="&#x62d;" horiz-adv-x="610" 
d="M523 0h-309c-71 0 -113 -35 -113 -98c0 -67 49 -103 134 -103c27 0 58 5 93 14l11 -55c-38 -12 -75 -18 -111 -18c-112 0 -188 61 -188 161c0 96 65 156 168 156h266c8 30 12 59 12 88c0 127 -71 208 -202 208c-33 0 -71 -7 -114 -20l-15 54c43 16 89 24 138 24
c164 0 251 -101 251 -262c0 -46 -7 -96 -21 -149z" />
    <glyph glyph-name="uni062E" unicode="&#x62e;" horiz-adv-x="610" 
d="M293 530c-55 0 -55 82 0 82c52 0 52 -82 0 -82zM523 0h-309c-71 0 -113 -35 -113 -98c0 -67 49 -103 134 -103c27 0 58 5 93 14l11 -55c-38 -12 -75 -18 -111 -18c-112 0 -188 61 -188 161c0 96 65 156 168 156h266c8 30 12 59 12 88c0 127 -71 208 -202 208
c-33 0 -71 -7 -114 -20l-15 54c43 16 89 24 138 24c164 0 251 -101 251 -262c0 -46 -7 -96 -21 -149z" />
    <glyph glyph-name="uni062F" unicode="&#x62f;" horiz-adv-x="508" 
d="M442 0h-402v57h342v22c0 113 -69 214 -206 303l36 48c85 -56 145 -113 179 -170s51 -124 51 -199v-61z" />
    <glyph glyph-name="uni0630" unicode="&#x630;" horiz-adv-x="508" 
d="M192 526c-55 0 -55 82 0 82c52 0 52 -82 0 -82zM442 0h-402v57h342v22c0 113 -69 214 -206 303l36 48c85 -56 145 -113 179 -170s51 -124 51 -199v-61z" />
    <glyph glyph-name="uni0631" unicode="&#x631;" horiz-adv-x="286" 
d="M8 -172l-12 56c105 17 149 68 149 185v332h60v-320c0 -151 -66 -236 -197 -253z" />
    <glyph glyph-name="uni0632" unicode="&#x632;" horiz-adv-x="286" 
d="M176 520c-55 0 -55 82 0 82c52 0 52 -82 0 -82zM8 -172l-12 56c105 17 149 68 149 185v332h60v-320c0 -151 -66 -236 -197 -253z" />
    <glyph glyph-name="uni0633" unicode="&#x633;" horiz-adv-x="1192" 
d="M1071 197v204h60v-228c0 -109 -62 -173 -170 -173c-69 0 -116 25 -140 74c-27 -51 -75 -76 -145 -76c-49 0 -85 15 -108 46c-13 -135 -111 -208 -263 -208c-165 0 -259 90 -259 226c0 53 14 112 41 177l53 -19c-22 -55 -33 -106 -33 -151c0 -116 73 -174 200 -174
c135 0 202 65 202 195v238h60v-171c0 -67 36 -100 107 -100c73 0 112 37 112 134v137h60v-166c0 -70 37 -105 112 -105c77 0 111 41 111 140z" />
    <glyph glyph-name="uni0634" unicode="&#x634;" horiz-adv-x="1192" 
d="M820 549c-24 0 -41 18 -41 42c0 23 17 41 41 41c23 0 40 -18 40 -41c0 -24 -17 -42 -40 -42zM751 450c-23 0 -41 17 -41 41c0 23 18 41 41 41c24 0 41 -18 41 -41c0 -24 -17 -41 -41 -41zM842 491c0 23 18 41 42 41c23 0 40 -18 40 -41c0 -24 -17 -41 -40 -41
c-24 0 -42 17 -42 41zM1071 197v204h60v-228c0 -109 -62 -173 -170 -173c-69 0 -116 25 -140 74c-27 -51 -75 -76 -145 -76c-49 0 -85 15 -108 46c-13 -135 -111 -208 -263 -208c-165 0 -259 90 -259 226c0 53 14 112 41 177l53 -19c-22 -55 -33 -106 -33 -151
c0 -116 73 -174 200 -174c135 0 202 65 202 195v238h60v-171c0 -67 36 -100 107 -100c73 0 112 37 112 134v137h60v-166c0 -70 37 -105 112 -105c77 0 111 41 111 140z" />
    <glyph glyph-name="uni0635" unicode="&#x635;" horiz-adv-x="1328" 
d="M1049 411c137 0 213 -96 213 -241c0 -54 -10 -111 -31 -170h-552c-50 0 -87 12 -112 35c-17 -129 -114 -199 -262 -199c-165 0 -259 90 -259 226c0 53 14 112 41 177l53 -19c-22 -55 -33 -106 -33 -151c0 -116 73 -174 200 -174c135 0 202 65 202 195v238h60v-185
c0 -43 21 -70 64 -81c72 135 153 233 225 282c72 48 131 67 191 67zM696 57h487c12 39 18 75 18 110c0 111 -58 186 -158 186c-113 0 -236 -95 -347 -296z" />
    <glyph glyph-name="uni0636" unicode="&#x636;" horiz-adv-x="1328" 
d="M961 530c-55 0 -55 82 0 82c52 0 52 -82 0 -82zM1049 411c137 0 213 -96 213 -241c0 -54 -10 -111 -31 -170h-552c-50 0 -87 12 -112 35c-17 -129 -114 -199 -262 -199c-165 0 -259 90 -259 226c0 53 14 112 41 177l53 -19c-22 -55 -33 -106 -33 -151
c0 -116 73 -174 200 -174c135 0 202 65 202 195v238h60v-185c0 -43 21 -70 64 -81c72 135 153 233 225 282c72 48 131 67 191 67zM696 57h487c12 39 18 75 18 110c0 111 -58 186 -158 186c-113 0 -236 -95 -347 -296z" />
    <glyph glyph-name="uni0637" unicode="&#x637;" horiz-adv-x="851" 
d="M573 411c137 0 212 -98 212 -241c0 -55 -10 -112 -30 -170h-709v57h113v699h60v-596c101 165 231 251 354 251zM220 57h487c12 39 18 77 18 113c0 111 -57 183 -157 183c-59 0 -119 -26 -182 -77s-119 -124 -166 -219z" />
    <glyph glyph-name="uni0638" unicode="&#x638;" horiz-adv-x="851" 
d="M573 411c137 0 212 -98 212 -241c0 -55 -10 -112 -30 -170h-709v57h113v699h60v-596c101 165 231 251 354 251zM503 530c-55 0 -55 82 0 82c52 0 52 -82 0 -82zM220 57h487c12 39 18 77 18 113c0 111 -57 183 -157 183c-59 0 -119 -26 -182 -77s-119 -124 -166 -219z" />
    <glyph glyph-name="uni0639" unicode="&#x639;" horiz-adv-x="510" 
d="M476 0h-251c-77 0 -124 -36 -124 -97c0 -69 53 -104 138 -104c30 0 60 4 89 12l11 -55c-34 -11 -68 -16 -102 -16c-123 0 -197 59 -197 162c0 83 56 140 144 153c-41 51 -62 106 -62 163s20 104 60 140c39 35 94 53 163 53c35 0 71 -5 108 -15l-12 -57
c-37 9 -70 14 -97 14c-99 0 -159 -55 -159 -139c0 -56 23 -108 69 -157h222v-57z" />
    <glyph glyph-name="uni063A" unicode="&#x63a;" horiz-adv-x="510" 
d="M345 530c-55 0 -55 82 0 82c52 0 52 -82 0 -82zM476 0h-251c-77 0 -124 -36 -124 -97c0 -69 53 -104 138 -104c30 0 60 4 89 12l11 -55c-34 -11 -68 -16 -102 -16c-123 0 -197 59 -197 162c0 83 56 140 144 153c-41 51 -62 106 -62 163s20 104 60 140c39 35 94 53 163 53
c35 0 71 -5 108 -15l-12 -57c-37 9 -70 14 -97 14c-99 0 -159 -55 -159 -139c0 -56 23 -108 69 -157h222v-57z" />
    <glyph glyph-name="uni0640" unicode="&#x640;" horiz-adv-x="52" 
d="M52 0h-52v57h52c13 0 20 -9 20 -28s-7 -29 -20 -29z" />
    <glyph glyph-name="uni0641" unicode="&#x641;" horiz-adv-x="1034" 
d="M786 530c-55 0 -55 82 0 82c52 0 52 -82 0 -82zM786 411c123 0 187 -87 187 -214c0 -57 -15 -123 -44 -197h-653c-145 0 -230 71 -230 188c0 46 11 98 32 156l56 -15c-18 -58 -27 -102 -27 -131c0 -94 59 -141 177 -141h348c-37 39 -56 88 -56 146c0 61 20 111 59 150
s89 58 151 58zM701 57h186c16 51 24 97 24 137c0 99 -46 159 -130 159c-87 0 -143 -62 -143 -151c0 -53 21 -101 63 -145z" />
    <glyph glyph-name="uni0642" unicode="&#x642;" horiz-adv-x="769" 
d="M460 530c-23 0 -41 17 -41 41s18 41 41 41c53 5 53 -87 0 -82zM593 530c-55 -5 -55 87 0 82c52 5 52 -87 0 -82zM386 -164c-227 0 -340 77 -340 232c0 39 8 83 23 130l56 -15c-12 -37 -18 -72 -18 -107c0 -121 87 -181 279 -181c169 0 256 42 261 126
c-35 -14 -74 -21 -115 -21c-124 0 -201 73 -201 196c0 61 18 113 54 154c35 41 83 61 143 61c115 0 180 -81 180 -202v-153c0 -149 -102 -220 -322 -220zM540 59c41 0 77 6 108 18v117c0 100 -40 159 -123 159c-77 0 -132 -58 -132 -151s55 -143 147 -143z" />
    <glyph glyph-name="uni0643" unicode="&#x643;" horiz-adv-x="826" 
d="M685 197v559h60v-583c0 -115 -61 -173 -184 -173h-285c-145 0 -230 71 -230 188c0 46 11 98 32 156l56 -15c-18 -58 -27 -102 -27 -131c0 -94 59 -141 177 -141h277c92 0 124 39 124 140zM410 357h95v-39h-195v39h55c-13 19 -19 39 -19 61c0 52 40 92 100 92
c15 0 31 -3 48 -8l-8 -38c-14 5 -27 7 -39 7c-36 0 -61 -20 -61 -56c0 -22 8 -41 24 -58z" />
    <glyph glyph-name="uni0644" unicode="&#x644;" horiz-adv-x="650" 
d="M302 -164c-157 0 -256 87 -256 226c0 53 14 112 41 177l53 -19c-22 -63 -33 -113 -33 -152c0 -115 71 -173 199 -173c135 0 203 66 203 198v663h60v-678c0 -151 -102 -242 -267 -242z" />
    <glyph glyph-name="uni0645" unicode="&#x645;" horiz-adv-x="633" 
d="M382 411c59 0 106 -19 140 -58c33 -39 50 -89 50 -150c0 -120 -73 -203 -221 -203h-157c-63 0 -95 -33 -95 -99v-161h-59v161c0 99 56 156 153 156h30c-31 49 -46 97 -46 146c0 61 19 111 58 150c38 39 87 58 147 58zM291 57h65c103 0 155 59 155 147
c0 91 -54 149 -135 149s-138 -57 -138 -149c0 -45 18 -94 53 -147z" />
    <glyph glyph-name="uni0646" unicode="&#x646;" horiz-adv-x="650" 
d="M317 412c-55 0 -55 82 0 82c52 0 52 -82 0 -82zM305 -164c-165 0 -259 90 -259 226c0 53 14 112 41 177l53 -19c-22 -55 -33 -106 -33 -151c0 -116 73 -174 200 -174c135 0 202 65 202 195v238h60v-253c0 -155 -101 -239 -264 -239z" />
    <glyph glyph-name="uni0647" unicode="&#x647;" horiz-adv-x="505" 
d="M242 -5c-129 0 -202 81 -202 198c0 61 18 113 54 155c35 42 85 63 148 63s113 -21 149 -63c35 -43 53 -94 53 -155c0 -119 -77 -198 -202 -198zM244 54c88 0 139 48 139 141c0 95 -50 158 -141 158c-92 0 -141 -63 -141 -158s54 -141 143 -141z" />
    <glyph glyph-name="uni0648" unicode="&#x648;" horiz-adv-x="493" 
d="M117 -172l-3 55c168 -9 253 37 256 138c-34 -14 -72 -21 -114 -21c-124 0 -201 73 -201 196c0 61 18 113 54 154c35 41 83 62 142 62c116 0 181 -76 181 -191v-176c0 -136 -83 -218 -275 -218c-15 0 -28 0 -40 1zM264 59c40 0 76 6 108 18v124c0 100 -45 153 -124 153
c-77 0 -132 -59 -132 -152s56 -143 148 -143z" />
    <glyph glyph-name="uni0649" unicode="&#x649;" horiz-adv-x="754" 
d="M369 -164c-215 0 -323 69 -323 207c0 38 8 81 23 129l56 -15c-12 -45 -18 -80 -18 -107c0 -108 87 -155 262 -155c161 0 257 42 257 106c0 56 -89 88 -161 129c-49 28 -88 73 -88 129c0 88 73 153 193 153c30 0 66 -5 107 -15l-11 -57c-36 9 -69 14 -98 14
c-80 0 -129 -37 -129 -92c0 -66 89 -99 161 -135c48 -25 87 -67 87 -119s-29 -94 -86 -125c-58 -31 -135 -47 -232 -47z" />
    <glyph glyph-name="uni064A" unicode="&#x64a;" horiz-adv-x="754" 
d="M369 -164c-215 0 -323 69 -323 207c0 38 8 81 23 129l56 -15c-12 -45 -18 -80 -18 -107c0 -108 87 -155 262 -155c161 0 257 42 257 106c0 56 -89 88 -161 129c-49 28 -88 73 -88 129c0 88 73 153 193 153c30 0 66 -5 107 -15l-11 -57c-36 9 -69 14 -98 14
c-80 0 -129 -37 -129 -92c0 -66 89 -99 161 -135c48 -25 87 -67 87 -119s-29 -94 -86 -125c-58 -31 -135 -47 -232 -47zM298 -336c-23 0 -41 17 -41 41s18 41 41 41c53 5 53 -87 0 -82zM431 -336c-55 -5 -55 87 0 82c52 5 52 -87 0 -82z" />
    <glyph glyph-name="uni064B" unicode="&#x64b;" 
d="M111 669l-224 -34l-3 1l5 32l224 34l3 -1zM111 578l-224 -34l-3 1l5 32l224 34l3 -1z" />
    <glyph glyph-name="uni064C" unicode="&#x64c;" 
d="M28 742c39 48 112 14 107 -66c0 -73 -49 -126 -102 -126c-50 0 -82 72 -104 72c-12 0 -26 -11 -43 -34l-21 19c21 31 43 46 66 46c15 0 33 -12 53 -35c21 -24 38 -36 51 -36c29 0 49 17 62 51c-8 -1 -15 -2 -20 -2c-40 0 -69 20 -69 59c0 20 7 37 20 52zM83 662
c5 0 12 1 21 2c1 3 1 7 1 12c0 37 -11 56 -33 56c-20 0 -35 -18 -35 -39s15 -31 46 -31z" />
    <glyph glyph-name="uni064D" unicode="&#x64d;" 
d="M110 -125l-224 -34l-3 1l5 32l224 34l3 -1zM110 -205l-224 -34l-3 1l5 32l224 34l3 -1z" />
    <glyph glyph-name="uni064E" unicode="&#x64e;" 
d="M111 578l-224 -34l-3 1l5 32l224 34l3 -1z" />
    <glyph glyph-name="uni064F" unicode="&#x64f;" 
d="M-28 742c40 48 113 14 108 -66c0 -79 -47 -126 -104 -126c-21 0 -39 5 -56 15l14 28c13 -7 27 -11 42 -11c31 0 53 17 66 51c-8 -1 -15 -2 -20 -2c-40 0 -69 20 -69 59c0 20 6 37 19 52zM28 662c5 0 12 1 21 2c1 3 1 7 1 12c0 32 -13 56 -34 56c-20 0 -34 -18 -34 -39
s15 -31 46 -31z" />
    <glyph glyph-name="uni0650" unicode="&#x650;" 
d="M111 -125l-224 -34l-3 1l5 32l224 34l3 -1z" />
    <glyph glyph-name="uni0651" unicode="&#x651;" 
d="M75 675l24 10c30 -57 12 -124 -45 -124c-21 0 -37 6 -48 17c-11 -19 -28 -28 -53 -28c-41 0 -66 25 -66 64c0 15 3 31 10 47l24 -7c-3 -9 -5 -19 -5 -30c0 -26 12 -39 37 -39c22 0 33 13 33 39c0 7 -1 15 -3 23l25 6c4 -14 6 -27 6 -38v-5c9 -11 22 -16 38 -16
c21 0 32 12 32 35c0 15 -3 30 -9 46z" />
    <glyph glyph-name="uni0652" unicode="&#x652;" 
d="M49 565c-24 -23 -74 -23 -98 0c-23 23 -23 71 1 103c25 32 71 32 96 0c24 -32 24 -80 1 -103zM0 580c22 0 33 12 33 35c0 24 -13 44 -33 44s-34 -19 -34 -44c0 -23 11 -35 34 -35z" />
    <glyph glyph-name="uni0653" unicode="&#x653;" 
d="M67 553c-18 0 -43 5 -77 14c-33 9 -54 13 -64 13c-15 0 -32 -6 -49 -19l-22 26c25 22 49 33 73 33c12 0 34 -4 67 -13s56 -14 69 -14c19 0 37 9 56 26l25 -24c-19 -28 -45 -42 -78 -42z" />
    <glyph glyph-name="uni0654" unicode="&#x654;" 
d="M-7 576h87v-32h-160v32h39c-11 18 -16 36 -16 53c0 45 34 75 82 75c13 0 29 -2 46 -6l-6 -32c-11 3 -23 5 -35 5c-48 0 -70 -42 -37 -95z" />
    <glyph glyph-name="uni0655" unicode="&#x655;" 
d="M-7 -218h87v-32h-160v32h38c-10 16 -15 33 -15 52c0 45 33 76 81 76c15 0 30 -2 47 -7l-6 -31c-11 3 -23 5 -35 5c-31 0 -53 -18 -53 -47c0 -17 5 -33 16 -48z" />
    <glyph glyph-name="uni0656" unicode="&#x656;" 
d="M-11 -277h-5v175h32v-165z" />
    <glyph glyph-name="uni0658" unicode="&#x658;" 
d="M-61 665l29 -10c-7 -19 -11 -35 -11 -48c0 -27 15 -40 45 -40c27 0 41 16 41 48v51h33v-51c0 -51 -27 -81 -74 -81c-48 0 -78 26 -78 70c0 20 5 40 15 61z" />
    <glyph glyph-name="uni0660" unicode="&#x660;" horiz-adv-x="540" 
d="M333 294l-63 -63l-64 64l64 61z" />
    <glyph glyph-name="uni0661" unicode="&#x661;" horiz-adv-x="540" 
d="M300 0h-60v653h60v-653z" />
    <glyph glyph-name="uni0662" unicode="&#x662;" horiz-adv-x="540" 
d="M395 649l60 4c11 -159 -38 -232 -165 -232c-41 0 -85 10 -134 31v-452h-60v653h60v-144c49 -22 94 -33 135 -33c85 0 115 52 104 173z" />
    <glyph glyph-name="uni0663" unicode="&#x663;" horiz-adv-x="540" 
d="M452 649l60 4c12 -145 -29 -217 -124 -217c-35 0 -74 9 -116 26c-21 -17 -46 -26 -77 -26c-30 0 -60 5 -89 16v-452h-60v653h60v-149c27 -9 52 -14 77 -14c63 0 87 48 76 159l60 4c5 -64 0 -114 -16 -149c28 -9 53 -14 74 -14c61 0 86 48 75 159z" />
    <glyph glyph-name="uni0664" unicode="&#x664;" horiz-adv-x="540" 
d="M455 57l3 -55c-52 -5 -93 -8 -123 -8c-156 0 -243 50 -243 153c0 81 58 149 158 188c-71 23 -125 69 -125 138c0 116 108 182 276 182c7 0 15 0 23 -1v-56c-145 7 -238 -37 -238 -126c0 -75 81 -116 222 -101v-57c-167 -15 -255 -78 -255 -157c0 -71 63 -106 190 -106
c27 0 64 2 112 6z" />
    <glyph glyph-name="uni0665" unicode="&#x665;" horiz-adv-x="540" 
d="M483 266c0 -183 -71 -274 -213 -274s-213 91 -213 274c0 127 21 223 64 289c42 66 92 99 149 99c58 0 108 -33 150 -99s63 -162 63 -289zM119 268c0 -145 50 -218 151 -218s151 73 151 218c0 101 -15 181 -45 240c-31 59 -66 88 -106 88s-75 -29 -105 -88
c-31 -59 -46 -139 -46 -240z" />
    <glyph glyph-name="uni0666" unicode="&#x666;" horiz-adv-x="540" 
d="M423 0h-60v597h-315v56h375v-653z" />
    <glyph glyph-name="uni0667" unicode="&#x667;" horiz-adv-x="540" 
d="M270 86l189 573l64 -20l-219 -639h-67l-220 641l63 18z" />
    <glyph glyph-name="uni0668" unicode="&#x668;" horiz-adv-x="540" 
d="M302 652l221 -641l-64 -18l-189 570l-190 -570l-63 19l219 640h66z" />
    <glyph glyph-name="uni0669" unicode="&#x669;" horiz-adv-x="540" 
d="M282 653h150v-653h-60v282c-91 -8 -164 3 -219 32s-83 76 -83 143c0 121 81 196 212 196zM131 457c0 -49 23 -83 70 -102c46 -20 103 -26 171 -17v259h-77c-103 0 -164 -52 -164 -140z" />
    <glyph glyph-name="uni066A" unicode="&#x66a;" horiz-adv-x="569" 
d="M217 592l-67 -66l-67 67l67 66zM446 642l-291 -660l-45 17l291 660zM488 66l-67 -66l-66 67l66 65z" />
    <glyph glyph-name="uni066B" unicode="&#x66b;" horiz-adv-x="230" 
d="M101 74h70l-77 -228h-59z" />
    <glyph glyph-name="uni066C" unicode="&#x66c;" horiz-adv-x="197" 
d="M81 129h57l-53 -159h-50z" />
    <glyph glyph-name="uni066D" unicode="&#x66d;" horiz-adv-x="842" 
d="M426 100l-223 -198l-24 20l113 266l-251 150l8 37l299 -37l63 288h30l59 -288l299 37l11 -37l-261 -149l122 -267l-27 -20z" />
    <glyph glyph-name="uni066E" unicode="&#x66e;" horiz-adv-x="923" 
d="M802 197v204h60v-228c0 -104 -69 -173 -192 -173h-394c-145 0 -230 71 -230 188c0 46 11 98 32 156l56 -15c-18 -58 -27 -102 -27 -131c0 -94 59 -141 177 -141h379c95 0 139 43 139 140z" />
    <glyph glyph-name="uni066F" unicode="&#x66f;" horiz-adv-x="769" 
d="M386 -164c-227 0 -340 77 -340 232c0 39 8 83 23 130l56 -15c-12 -37 -18 -72 -18 -107c0 -121 87 -181 279 -181c169 0 256 42 261 126c-35 -14 -74 -21 -115 -21c-124 0 -201 73 -201 196c0 61 18 113 54 154c35 41 83 61 143 61c115 0 180 -81 180 -202v-153
c0 -149 -102 -220 -322 -220zM540 59c41 0 77 6 108 18v117c0 100 -40 159 -123 159c-77 0 -132 -58 -132 -151s55 -143 147 -143z" />
    <glyph glyph-name="uni0670" unicode="&#x670;" 
d="M-11 556h-5v175h32v-165z" />
    <glyph glyph-name="uni0671" unicode="&#x671;" horiz-adv-x="222" 
d="M142 948c47 0 76 -33 76 -84c0 -19 -3 -37 -9 -53h-239v32h51v99h32v-46c23 35 53 52 89 52zM139 915c-36 0 -70 -29 -89 -72h134c2 8 3 15 3 22c0 31 -20 50 -48 50zM141 0h-60v756h60v-756z" />
    <glyph glyph-name="uni0679" unicode="&#x679;" horiz-adv-x="923" 
d="M570 488c0 -17 -3 -34 -9 -52h-247v33h51v168h33v-107c25 33 55 50 90 50c51 0 82 -37 82 -92zM486 547c-36 0 -70 -29 -89 -78h139c1 9 2 16 2 19c0 36 -20 59 -52 59zM802 197v204h60v-228c0 -104 -69 -173 -192 -173h-394c-145 0 -230 71 -230 188c0 46 11 98 32 156
l56 -15c-18 -58 -27 -102 -27 -131c0 -94 59 -141 177 -141h379c95 0 139 43 139 140z" />
    <glyph glyph-name="uni067E" unicode="&#x67e;" horiz-adv-x="923" 
d="M802 197v204h60v-228c0 -104 -69 -173 -192 -173h-394c-145 0 -230 71 -230 188c0 46 11 98 32 156l56 -15c-18 -58 -27 -102 -27 -131c0 -94 59 -141 177 -141h379c95 0 139 43 139 140zM412 -131c0 -25 -17 -42 -41 -42c-23 0 -41 17 -41 42c0 23 18 40 41 40
c24 0 41 -17 41 -40zM504 -91c23 0 40 -17 40 -40c0 -25 -17 -42 -40 -42c-24 0 -42 17 -42 42c0 23 18 40 42 40zM410 -201c25 26 70 7 70 -29c0 -23 -17 -41 -41 -41s-41 18 -41 41c0 12 4 22 12 29z" />
    <glyph glyph-name="uni0686" unicode="&#x686;" horiz-adv-x="610" 
d="M293 411c164 0 251 -101 251 -262c0 -46 -7 -96 -21 -149h-309c-71 0 -113 -35 -113 -98c0 -67 49 -103 134 -103c20 0 41 2 63 7l12 -57c-23 -6 -50 -9 -82 -9c-112 0 -188 61 -188 161c0 96 65 156 168 156h266c8 30 12 59 12 88c0 127 -71 208 -202 208
c-33 0 -71 -7 -114 -20l-15 54c43 16 89 24 138 24zM288 -60c17 0 29 -12 29 -28c0 -17 -12 -29 -29 -29c-16 0 -29 12 -29 29c0 16 13 28 29 28zM381 -60c16 0 28 -12 28 -28c0 -17 -12 -29 -28 -29c-17 0 -29 12 -29 29c0 16 12 28 29 28zM335 -128c17 0 29 -12 29 -29
c0 -16 -12 -29 -29 -29c-16 0 -28 13 -28 29c0 17 12 29 28 29z" />
    <glyph glyph-name="uni0688" unicode="&#x688;" horiz-adv-x="508" 
d="M312 582c0 -17 -3 -34 -9 -52h-247v33h51v168h33v-107c25 33 55 50 90 50c51 0 82 -37 82 -92zM228 641c-36 0 -70 -29 -89 -78h139c1 9 2 16 2 19c0 36 -20 59 -52 59zM176 382l36 48c85 -56 145 -113 179 -170s51 -124 51 -199v-61h-402v57h342v22
c0 113 -69 214 -206 303z" />
    <glyph glyph-name="uni0691" unicode="&#x691;" horiz-adv-x="286" 
d="M214 668c51 0 82 -37 82 -92c0 -17 -3 -34 -9 -52h-247v33h51v168h33v-107c25 33 55 50 90 50zM212 635c-36 0 -70 -29 -89 -78h139c1 9 2 16 2 19c0 36 -20 59 -52 59zM145 69v332h60v-320c0 -151 -66 -236 -197 -253l-12 56c105 17 149 68 149 185z" />
    <glyph glyph-name="uni0698" unicode="&#x698;" horiz-adv-x="286" 
d="M177 622c-24 0 -41 18 -41 42c0 23 17 41 41 41c23 0 40 -18 40 -41c0 -24 -17 -42 -40 -42zM108 523c-23 0 -41 17 -41 41c0 23 18 41 41 41c24 0 41 -18 41 -41c0 -24 -17 -41 -41 -41zM241 523c-24 0 -42 17 -42 41c0 23 18 41 42 41c23 0 40 -18 40 -41
c0 -24 -17 -41 -40 -41zM8 -172l-12 56c105 17 149 68 149 185v332h60v-320c0 -151 -66 -236 -197 -253z" />
    <glyph glyph-name="uni06A1" unicode="&#x6a1;" horiz-adv-x="1034" 
d="M786 411c123 0 187 -87 187 -214c0 -57 -15 -123 -44 -197h-653c-145 0 -230 71 -230 188c0 46 11 98 32 156l56 -15c-18 -58 -27 -102 -27 -131c0 -94 59 -141 177 -141h348c-37 39 -56 88 -56 146c0 61 20 111 59 150s89 58 151 58zM701 57h186c16 51 24 97 24 137
c0 99 -46 159 -130 159c-87 0 -143 -62 -143 -151c0 -53 21 -101 63 -145z" />
    <glyph glyph-name="uni06A4" unicode="&#x6a4;" horiz-adv-x="1034" 
d="M787 632c-24 0 -41 18 -41 42c0 23 17 41 41 41c23 0 40 -18 40 -41c0 -24 -17 -42 -40 -42zM718 533c-23 0 -41 17 -41 41c0 23 18 41 41 41c24 0 41 -18 41 -41c0 -24 -17 -41 -41 -41zM809 574c0 23 18 41 42 41c23 0 40 -18 40 -41c0 -24 -17 -41 -40 -41
c-24 0 -42 17 -42 41zM786 411c123 0 187 -87 187 -214c0 -57 -15 -123 -44 -197h-653c-145 0 -230 71 -230 188c0 46 11 98 32 156l56 -15c-18 -58 -27 -102 -27 -131c0 -94 59 -141 177 -141h348c-37 39 -56 88 -56 146c0 61 20 111 59 150s89 58 151 58zM701 57h186
c16 51 24 97 24 137c0 99 -46 159 -130 159c-87 0 -143 -62 -143 -151c0 -53 21 -101 63 -145z" />
    <glyph glyph-name="uni06A9" unicode="&#x6a9;" horiz-adv-x="848" 
d="M742 700l-262 -253c113 -37 192 -84 236 -140c44 -57 66 -128 66 -214v-93h-506c-145 0 -230 71 -230 188c0 46 11 98 32 156l56 -15c-18 -58 -27 -102 -27 -131c0 -94 59 -141 177 -141h440v46c0 76 -23 137 -68 184c-46 46 -125 86 -237 121v60l283 273z" />
    <glyph glyph-name="uni06AF" unicode="&#x6af;" horiz-adv-x="848" 
d="M626 818l40 -40l-253 -242l-41 41zM742 700l-262 -253c113 -37 192 -84 236 -140c44 -57 66 -128 66 -214v-93h-506c-145 0 -230 71 -230 188c0 46 11 98 32 156l56 -15c-18 -58 -27 -102 -27 -131c0 -94 59 -141 177 -141h440v46c0 76 -23 137 -68 184
c-46 46 -125 86 -237 121v60l283 273z" />
    <glyph glyph-name="uni06BA" unicode="&#x6ba;" horiz-adv-x="650" 
d="M305 -164c-165 0 -259 90 -259 226c0 53 14 112 41 177l53 -19c-22 -55 -33 -106 -33 -151c0 -116 73 -174 200 -174c135 0 202 65 202 195v238h60v-253c0 -155 -101 -239 -264 -239z" />
    <glyph glyph-name="uni06BE" unicode="&#x6be;" horiz-adv-x="722" 
d="M180 370l9 53c295 -23 477 -105 477 -312c0 -36 -5 -73 -14 -111h-171c-55 0 -103 8 -145 23c-39 -15 -86 -23 -140 -23c-60 0 -112 10 -156 29l18 54c41 -17 87 -26 138 -26c23 0 47 2 70 7c-43 33 -74 89 -74 152s32 119 84 146c-21 3 -53 5 -96 8zM247 218
c0 -63 29 -109 88 -138c57 21 99 71 99 139s-40 114 -93 114c-55 0 -94 -50 -94 -115zM469 57h135c4 19 6 39 6 60c0 94 -51 162 -152 203c21 -29 31 -62 31 -101c0 -65 -36 -124 -85 -156c23 -4 44 -6 65 -6z" />
    <glyph glyph-name="uni06C1" unicode="&#x6c1;" horiz-adv-x="505" 
d="M242 -5c-129 0 -202 81 -202 198c0 61 18 113 54 155c35 42 85 63 148 63s113 -21 149 -63c35 -43 53 -94 53 -155c0 -119 -77 -198 -202 -198zM244 54c88 0 139 48 139 141c0 95 -50 158 -141 158c-92 0 -141 -63 -141 -158s54 -141 143 -141z" />
    <glyph glyph-name="uni06C2" unicode="&#x6c2;" horiz-adv-x="505" 
d="M224 578h113v-40h-206v40h50c-14 22 -21 45 -21 70c0 57 42 93 103 93c19 0 40 -2 62 -7l-8 -39c-22 3 -37 5 -46 5c-39 0 -69 -19 -69 -58c0 -20 7 -41 22 -64zM94 348c35 42 85 63 148 63s113 -21 149 -63c35 -43 53 -94 53 -155c0 -119 -77 -198 -202 -198
c-129 0 -202 81 -202 198c0 61 18 113 54 155zM244 54c88 0 139 48 139 141c0 95 -50 158 -141 158c-92 0 -141 -63 -141 -158s54 -141 143 -141z" />
    <glyph glyph-name="uni06C3" unicode="&#x6c3;" horiz-adv-x="505" 
d="M174 530c-23 0 -41 17 -41 41s18 41 41 41c53 5 53 -87 0 -82zM307 530c-55 -5 -55 87 0 82c52 5 52 -87 0 -82zM242 -5c-129 0 -202 81 -202 198c0 61 18 113 54 155c35 42 85 63 148 63s113 -21 149 -63c35 -43 53 -94 53 -155c0 -119 -77 -198 -202 -198zM244 54
c88 0 139 48 139 141c0 95 -50 158 -141 158c-92 0 -141 -63 -141 -158s54 -141 143 -141z" />
    <glyph glyph-name="uni06CC" unicode="&#x6cc;" horiz-adv-x="754" 
d="M369 -164c-215 0 -323 69 -323 207c0 38 8 81 23 129l56 -15c-12 -45 -18 -80 -18 -107c0 -108 87 -155 262 -155c161 0 257 42 257 106c0 56 -89 88 -161 129c-49 28 -88 73 -88 129c0 88 73 153 193 153c30 0 66 -5 107 -15l-11 -57c-36 9 -69 14 -98 14
c-80 0 -129 -37 -129 -92c0 -66 89 -99 161 -135c48 -25 87 -67 87 -119s-29 -94 -86 -125c-58 -31 -135 -47 -232 -47z" />
    <glyph glyph-name="uni06D2" unicode="&#x6d2;" horiz-adv-x="734" 
d="M348 -9c-113 0 -193 11 -240 32s-71 54 -71 101c0 142 198 147 198 252v31h57v-33c0 -137 -198 -143 -198 -244c0 -60 77 -81 268 -81c104 0 226 12 367 36l4 -57c-150 -25 -278 -37 -385 -37z" />
    <glyph glyph-name="uni06D3" unicode="&#x6d3;" horiz-adv-x="734" 
d="M246 573h113v-40h-206v40h50c-14 22 -21 45 -21 70c0 57 42 93 103 93c19 0 40 -2 62 -7l-8 -39c-21 3 -37 5 -46 5c-39 0 -69 -19 -69 -58c0 -20 7 -41 22 -64zM729 85l4 -57c-150 -25 -278 -37 -385 -37c-113 0 -193 11 -240 32s-71 54 -71 101c0 142 198 147 198 252
v31h57v-33c0 -137 -198 -143 -198 -244c0 -60 77 -81 268 -81c104 0 226 12 367 36z" />
    <glyph glyph-name="uni06D4" unicode="&#x6d4;" horiz-adv-x="345" 
d="M30 44l23 47c25 -23 60 -34 107 -34h155v-57h-155c-55 0 -99 15 -130 44z" />
    <glyph glyph-name="uni06D5" unicode="&#x6d5;" horiz-adv-x="505" 
d="M242 -5c-129 0 -202 81 -202 198c0 61 18 113 54 155c35 42 85 63 148 63s113 -21 149 -63c35 -43 53 -94 53 -155c0 -119 -77 -198 -202 -198zM244 54c88 0 139 48 139 141c0 95 -50 158 -141 158c-92 0 -141 -63 -141 -158s54 -141 143 -141z" />
    <glyph glyph-name="uni06F0" unicode="&#x6f0;" horiz-adv-x="540" 
d="M333 294l-63 -63l-64 64l64 61z" />
    <glyph glyph-name="uni06F1" unicode="&#x6f1;" horiz-adv-x="540" 
d="M300 0h-60v653h60v-653z" />
    <glyph glyph-name="uni06F2" unicode="&#x6f2;" horiz-adv-x="540" 
d="M395 649l60 4c11 -159 -38 -232 -165 -232c-41 0 -85 10 -134 31v-452h-60v653h60v-144c49 -22 94 -33 135 -33c85 0 115 52 104 173z" />
    <glyph glyph-name="uni06F3" unicode="&#x6f3;" horiz-adv-x="540" 
d="M452 649l60 4c12 -145 -29 -217 -124 -217c-35 0 -74 9 -116 26c-21 -17 -46 -26 -77 -26c-30 0 -60 5 -89 16v-452h-60v653h60v-149c27 -9 52 -14 77 -14c63 0 87 48 76 159l60 4c5 -64 0 -114 -16 -149c28 -9 53 -14 74 -14c61 0 86 48 75 159z" />
    <glyph glyph-name="uni06F4" unicode="&#x6f4;" horiz-adv-x="540" 
d="M500 474l8 -54c-60 -12 -122 -18 -185 -18c-74 0 -142 11 -205 34v-436h-60v653h60v-161c40 -14 88 -24 143 -31c-10 28 -15 54 -15 78c0 81 44 121 131 121c29 0 58 -4 89 -12l-14 -55c-22 7 -45 11 -70 11c-55 0 -82 -26 -82 -78c0 -21 5 -43 15 -68h9
c62 0 121 5 176 16z" />
    <glyph glyph-name="uni06F5" unicode="&#x6f5;" horiz-adv-x="540" 
d="M193 -6c-88 0 -141 80 -141 259c0 129 32 241 77 304c44 63 96 97 144 97c56 0 106 -34 150 -103c43 -69 65 -168 65 -298c0 -167 -53 -259 -129 -259c-29 0 -58 13 -87 39c-26 -26 -52 -39 -79 -39zM201 51c23 0 57 25 70 33c8 -5 47 -36 75 -33c47 0 80 76 80 203
c0 105 -16 189 -47 251c-31 61 -67 92 -106 92s-75 -32 -108 -96c-34 -64 -51 -146 -51 -245c0 -136 38 -205 87 -205z" />
    <glyph glyph-name="uni06F6" unicode="&#x6f6;" horiz-adv-x="540" 
d="M368 360l64 74l47 -40l-352 -412l-48 39l243 284c-131 13 -209 75 -209 168c0 111 99 181 276 181h24v-56c-155 7 -238 -42 -238 -126c0 -67 70 -107 193 -112z" />
    <glyph glyph-name="uni06F7" unicode="&#x6f7;" horiz-adv-x="540" 
d="M270 86l189 573l64 -20l-219 -639h-67l-220 641l63 18z" />
    <glyph glyph-name="uni06F8" unicode="&#x6f8;" horiz-adv-x="540" 
d="M302 652l221 -641l-64 -18l-189 570l-190 -570l-63 19l219 640h66z" />
    <glyph glyph-name="uni06F9" unicode="&#x6f9;" horiz-adv-x="540" 
d="M282 653h150v-653h-60v282c-91 -8 -164 3 -219 32s-83 76 -83 143c0 121 81 196 212 196zM131 457c0 -49 23 -83 70 -102c46 -20 103 -26 171 -17v259h-77c-103 0 -164 -52 -164 -140z" />
    <glyph glyph-name="uni1E9E" unicode="&#x1e9e;" horiz-adv-x="668" 
d="M547 716v-59c-119 0 -195 -50 -195 -133c0 -33 11 -60 39 -86s44 -38 88 -66c92 -57 137 -116 137 -204c0 -55 -18 -100 -55 -134c-37 -35 -83 -52 -140 -52c-85 0 -150 31 -193 93l58 43c29 -49 84 -76 139 -76c75 0 122 50 125 125c1 67 -29 104 -116 157
c-97 60 -148 112 -148 199c0 65 33 113 98 146h-19c-70 0 -121 -12 -153 -36c-33 -25 -49 -71 -49 -139v-494h-66v507c0 161 79 219 254 219c52 0 117 -3 196 -10z" />
    <glyph glyph-name="uni2002" unicode="&#x2002;" horiz-adv-x="572" 
 />
    <glyph glyph-name="uni2003" unicode="&#x2003;" horiz-adv-x="1143" 
 />
    <glyph glyph-name="thinspace" unicode="&#x2009;" horiz-adv-x="114" 
 />
    <glyph glyph-name="uni200A" unicode="&#x200a;" horiz-adv-x="23" 
 />
    <glyph glyph-name="uni200C" unicode="&#x200c;" 
d="M-78 958l-60 -60l-18 20l59 59l-59 59l18 20l60 -61l59 60l18 -19l-58 -59l58 -59l-18 -19z" />
    <glyph glyph-name="uni200D" unicode="&#x200d;" 
d="M-87 912h-26v79h227v-79h-26v53h-175v-53z" />
    <glyph glyph-name="uni200E" unicode="&#x200e;" 
d="M109 977l-79 -79l-19 20l47 47h-144v26h144l-47 45l19 20z" />
    <glyph glyph-name="uni200F" unicode="&#x200f;" 
d="M-11 918l-19 -19l-79 78l79 79l19 -18l-47 -47h145v-26h-144z" />
    <glyph glyph-name="uni2011" unicode="&#x2011;" horiz-adv-x="333" 
d="M43 264h247v-54h-247v54z" />
    <glyph glyph-name="endash" unicode="&#x2013;" horiz-adv-x="500" 
d="M0 264h500v-54h-500v54z" />
    <glyph glyph-name="emdash" unicode="&#x2014;" horiz-adv-x="1000" 
d="M0 264h1000v-54h-1000v54z" />
    <glyph glyph-name="quoteleft" unicode="&#x2018;" horiz-adv-x="260" 
d="M62 480l76 228h60l-64 -228h-72z" />
    <glyph glyph-name="quoteright" unicode="&#x2019;" horiz-adv-x="260" 
d="M125 708h73l-77 -228h-59z" />
    <glyph glyph-name="quotesinglbase" unicode="&#x201a;" horiz-adv-x="260" 
d="M125 90h73l-77 -228h-59z" />
    <glyph glyph-name="quotedblleft" unicode="&#x201c;" horiz-adv-x="520" 
d="M105 480l77 228h59l-63 -228h-73zM279 480l77 228h59l-63 -228h-73z" />
    <glyph glyph-name="quotedblright" unicode="&#x201d;" horiz-adv-x="520" 
d="M168 708h73l-77 -228h-59zM342 708h73l-77 -228h-59z" />
    <glyph glyph-name="quotedblbase" unicode="&#x201e;" horiz-adv-x="520" 
d="M168 90h73l-77 -228h-59zM342 90h73l-77 -228h-59z" />
    <glyph glyph-name="dagger" unicode="&#x2020;" horiz-adv-x="520" 
d="M230 509v199h60v-199h192v-48h-192v-587h-60v587h-192v48h192z" />
    <glyph glyph-name="daggerdbl" unicode="&#x2021;" horiz-adv-x="520" 
d="M230 509v199h60v-199h192v-48h-192v-340h192v-48h-192v-199h-60v199h-192v48h192v340h-192v48h192z" />
    <glyph glyph-name="bullet" unicode="&#x2022;" horiz-adv-x="500" 
d="M126 479c35 35 76 52 124 52s90 -17 125 -52s52 -77 52 -125c0 -49 -17 -90 -52 -125s-77 -52 -125 -52c-49 0 -90 17 -125 52c-35 34 -52 76 -52 125c0 48 18 90 53 125z" />
    <glyph glyph-name="ellipsis" unicode="&#x2026;" horiz-adv-x="1000" 
d="M133 76c19 19 49 19 68 0s19 -49 0 -68s-49 -19 -68 0s-19 49 0 68zM466 76c19 19 49 19 68 0s19 -49 0 -68s-49 -19 -68 0s-19 49 0 68zM799 76c19 19 49 19 68 0s19 -49 0 -68s-49 -19 -68 0s-19 49 0 68z" />
    <glyph glyph-name="uni202A" unicode="&#x202a;" 
d="M109 977l-79 -79l-19 20l47 47h-57v26h57l-47 45l19 20zM-32 965h-65v26h65v-26z" />
    <glyph glyph-name="uni202B" unicode="&#x202b;" 
d="M-11 918l-19 -19l-79 78l79 79l19 -18l-47 -47h57v-26h-56zM97 965h-65v26h65v-26z" />
    <glyph glyph-name="uni202C" unicode="&#x202c;" 
d="M13 897h-27v116l-45 -46l-19 19l78 78l78 -78l-19 -19l-46 46v-116z" />
    <glyph glyph-name="uni202D" unicode="&#x202d;" 
d="M55 977l-79 -79l-18 20l47 47h-123v26h122l-46 45l18 20zM129 977l-79 -79l-18 20l61 59l-61 59l18 20z" />
    <glyph glyph-name="uni202E" unicode="&#x202e;" 
d="M-32 945l-18 -19l-79 79l79 79l18 -19l-60 -60zM43 945l-19 -19l-78 79l78 79l19 -19l-47 -48h123v-25h-123z" />
    <glyph glyph-name="perthousand" unicode="&#x2030;" horiz-adv-x="981" 
d="M66 -6l456 748l46 -28l-458 -748zM71 675c29 30 65 45 108 45s79 -15 109 -45c29 -30 44 -66 44 -108c0 -41 -15 -77 -44 -107c-30 -31 -66 -46 -109 -46s-80 15 -109 46c-29 30 -44 66 -44 107s15 77 45 108zM106 641c-69 -60 -18 -184 73 -179c60 0 105 48 105 105
s-48 105 -105 105c-28 0 -52 -10 -73 -31zM351 249c29 30 65 45 108 45s79 -15 109 -45c29 -30 44 -66 44 -108c0 -41 -15 -77 -44 -107c-30 -31 -66 -46 -109 -46s-80 15 -109 46c-29 30 -44 66 -44 107s15 77 45 108zM694 249c29 30 65 45 108 45s79 -15 109 -45
c29 -30 44 -66 44 -108c0 -41 -15 -77 -44 -107c-30 -31 -66 -46 -109 -46s-80 15 -109 46c-29 30 -44 66 -44 107s15 77 45 108zM386 215c-69 -60 -18 -184 73 -179c60 0 105 48 105 105s-48 105 -105 105c-28 0 -52 -10 -73 -31zM729 215c-69 -60 -18 -184 73 -179
c60 0 105 48 105 105s-48 105 -105 105c-28 0 -52 -10 -73 -31z" />
    <glyph glyph-name="guilsinglleft" unicode="&#x2039;" horiz-adv-x="315" 
d="M63 237l137 203l42 -29l-116 -174l118 -176l-44 -27z" />
    <glyph glyph-name="guilsinglright" unicode="&#x203a;" horiz-adv-x="315" 
d="M71 413l44 27l137 -203l-137 -203l-42 29l116 174z" />
    <glyph glyph-name="fraction" unicode="&#x2044;" horiz-adv-x="168" 
d="M-167 -6l456 748l46 -28l-458 -748z" />
    <glyph glyph-name="Euro" unicode="&#x20ac;" horiz-adv-x="470" 
d="M337 724c40 0 75 -7 104 -20l-16 -55c-25 12 -54 18 -86 18c-93 0 -156 -71 -179 -206h223l-13 -48h-218c-3 -17 -4 -37 -4 -62s1 -43 2 -54h200l-11 -48h-183c16 -129 83 -206 176 -206c35 0 68 9 97 27l12 -57c-29 -19 -67 -29 -116 -29c-68 0 -122 25 -161 74
c-40 49 -65 113 -76 191h-63l12 48h48c-2 9 -3 25 -3 48c0 27 1 49 4 68h-59l11 48h52c31 175 114 263 247 263z" />
    <glyph glyph-name="uni20B9" unicode="&#x20b9;" horiz-adv-x="520" 
d="M72 708h430v-48h-176c37 -27 57 -64 60 -111h116v-48h-116c-14 -108 -91 -162 -231 -162l234 -339h-80l-237 347v43h76c104 0 161 37 172 111h-248v48h248c-9 74 -65 111 -168 111h-80v48z" />
    <glyph glyph-name="uni20BA" unicode="&#x20ba;" horiz-adv-x="520" 
d="M175 708v-143l210 92v-57l-210 -92v-107l210 92v-57l-210 -92v-296c12 -1 23 -2 32 -2c167 0 231 118 231 326h65c0 -253 -95 -380 -284 -380c-53 0 -88 3 -104 8v314l-96 -40v57l96 40v107l-96 -40v57l96 40v173h60z" />
    <glyph glyph-name="uni2113" unicode="&#x2113;" horiz-adv-x="500" 
d="M287 715c64 0 104 -49 104 -122c0 -93 -57 -199 -171 -316v-155c0 -56 29 -90 81 -90c29 0 58 11 87 34l19 -24c-37 -33 -78 -50 -122 -50c-79 0 -121 46 -121 119v132l-63 -68l-21 28l84 82v263c0 100 50 167 123 167zM220 559v-241c84 99 126 189 126 270
c0 56 -24 91 -59 91c-40 0 -67 -48 -67 -120z" />
    <glyph glyph-name="trademark" unicode="&#x2122;" horiz-adv-x="990" 
d="M84 708h320v-48h-133v-364h-54v364h-133v48zM478 708h86l130 -328l129 328h83v-412h-54v361h-2l-142 -361h-32l-142 361h-2v-361h-54v412z" />
    <glyph glyph-name="uni2126" unicode="&#x2126;" horiz-adv-x="744" 
d="M367 721c89 0 164 -29 226 -87c61 -59 92 -131 92 -217c0 -67 -17 -125 -52 -176s-83 -84 -145 -101v-82h197v-58h-251v181c116 21 184 109 184 234c0 70 -24 128 -72 175s-108 70 -180 70c-71 0 -130 -23 -179 -70s-73 -106 -73 -175c0 -124 69 -215 184 -234v-181h-251
v58h197v82c-61 17 -109 52 -144 103s-53 108 -53 173c0 87 31 159 93 218c62 58 138 87 227 87z" />
    <glyph glyph-name="estimated" unicode="&#x212e;" horiz-adv-x="976" 
d="M900 341h-667c-4 0 -6 -2 -6 -6v-190c0 -14 3 -24 8 -30c57 -72 140 -108 251 -108c109 0 189 42 269 118h72c-42 -51 -88 -87 -138 -110c-51 -23 -117 -34 -200 -34c-127 0 -227 35 -302 105s-112 156 -112 257c0 97 41 192 110 263c68 71 178 117 302 117
c317 0 413 -206 413 -382zM749 368v194c0 9 -4 19 -12 28c-63 77 -163 107 -254 107c-96 0 -178 -35 -246 -105c-7 -8 -10 -18 -10 -29v-195c0 -4 2 -6 6 -6h510c4 0 6 2 6 6z" />
    <glyph glyph-name="partialdiff" unicode="&#x2202;" horiz-adv-x="496" 
d="M210 721c79 0 139 -33 182 -98c42 -65 63 -152 63 -261c0 -239 -80 -374 -225 -374c-58 0 -106 22 -143 65s-56 96 -56 159s18 114 53 154c35 39 82 59 141 59c65 0 121 -28 166 -84c1 11 1 28 1 53c0 74 -15 138 -45 192c-31 53 -75 80 -134 80c-35 0 -72 -15 -112 -46
l-36 43c9 9 26 27 74 45c23 9 47 13 71 13zM94 210c0 -47 13 -87 38 -120s58 -49 99 -49c88 0 144 85 155 237c-45 61 -97 91 -156 91c-81 0 -136 -66 -136 -159z" />
    <glyph glyph-name="uni2206" unicode="&#x2206;" horiz-adv-x="670" 
d="M296 712h74l287 -712h-642zM332 645l-226 -583h455z" />
    <glyph glyph-name="product" unicode="&#x220f;" horiz-adv-x="711" 
d="M71 786h570v-1000h-66v938h-438v-938h-66v1000z" />
    <glyph glyph-name="summation" unicode="&#x2211;" horiz-adv-x="604" 
d="M39 786h527v-62h-442l309 -435l-328 -442h473v-61h-553v55l329 448l-315 441v56z" />
    <glyph glyph-name="minus" unicode="&#x2212;" horiz-adv-x="666" 
d="M78 327h510v-48h-510v48z" />
    <glyph glyph-name="uni2215" unicode="&#x2215;" horiz-adv-x="168" 
d="M-167 -6l456 748l46 -28l-458 -748z" />
    <glyph glyph-name="uni2219" unicode="&#x2219;" horiz-adv-x="260" 
d="M96 352c19 19 49 19 68 0s19 -49 0 -68s-49 -19 -68 0s-19 49 0 68z" />
    <glyph glyph-name="radical" unicode="&#x221a;" horiz-adv-x="493" 
d="M439 786h63l-210 -1000h-66l-164 340l-46 -22l-24 50l100 48l158 -332z" />
    <glyph glyph-name="infinity" unicode="&#x221e;" horiz-adv-x="741" 
d="M700 252c0 -85 -59 -148 -140 -148c-59 0 -113 31 -189 107c-48 -42 -84 -70 -109 -85s-51 -22 -78 -22c-85 0 -143 58 -143 145c0 85 58 148 138 148c27 0 54 -8 82 -23s65 -45 110 -89c43 45 78 76 106 91c27 15 54 22 81 22c84 0 142 -62 142 -146zM409 248
c62 -57 113 -86 154 -86c49 0 80 35 80 87c0 56 -31 92 -83 92c-35 0 -85 -31 -151 -93zM182 162c41 0 92 29 151 87c-68 61 -120 91 -155 91c-47 0 -80 -38 -80 -90c0 -53 33 -88 84 -88z" />
    <glyph glyph-name="integral" unicode="&#x222b;" horiz-adv-x="543" 
d="M335 786c41 0 71 -19 71 -50c0 -23 -12 -34 -37 -34c-13 0 -23 7 -32 20s-15 20 -20 20c-24 0 -36 -39 -36 -116c0 -4 0 -15 1 -33s1 -31 1 -40v-519c0 -75 -6 -130 -19 -166c-19 -54 -53 -81 -102 -81c-36 0 -61 18 -61 47c0 19 14 32 33 32c11 0 22 -6 31 -19
s16 -19 19 -19c21 0 32 51 32 153c0 9 1 45 1 58v471c0 16 -1 60 -1 81c0 130 40 195 119 195z" />
    <glyph glyph-name="approxequal" unicode="&#x2248;" horiz-adv-x="666" 
d="M557 397h32c-11 -80 -53 -126 -117 -126c-27 0 -74 12 -140 37c-67 24 -112 36 -137 36c-41 0 -73 -31 -84 -80h-33c15 85 54 128 116 128c28 0 75 -12 141 -36c66 -25 112 -37 139 -37c41 0 69 26 83 78zM557 226h32c-11 -80 -53 -126 -117 -126c-27 0 -73 12 -139 37
c-67 24 -113 36 -138 36c-43 0 -73 -31 -84 -80h-33c13 85 52 128 116 128c29 0 76 -12 143 -36c66 -25 112 -37 137 -37c41 0 69 26 83 78z" />
    <glyph glyph-name="notequal" unicode="&#x2260;" horiz-adv-x="666" 
d="M367 364l77 145l41 -22l-65 -123h158v-48h-183l-76 -142h259v-48h-284l-75 -142l-42 21l64 121h-153v48h178l75 142h-253v48h279z" />
    <glyph glyph-name="lessequal" unicode="&#x2264;" horiz-adv-x="666" 
d="M88 357l490 184v-52l-431 -161l431 -160v-51l-490 184v56zM88 59h490v-47h-490v47z" />
    <glyph glyph-name="greaterequal" unicode="&#x2265;" horiz-adv-x="666" 
d="M88 489v52l490 -184v-56l-490 -184v51l432 160zM88 59h490v-47h-490v47z" />
    <glyph glyph-name="lozenge" unicode="&#x25ca;" horiz-adv-x="593" 
d="M264 747h63l171 -391l-171 -391h-63l-169 391zM296 681l-136 -325l136 -325l137 325z" />
    <glyph glyph-name="uni25CC" unicode="&#x25cc;" horiz-adv-x="460" 
d="M257 370c0 -19 -9 -28 -27 -28s-27 9 -27 28c0 18 9 27 27 27s27 -9 27 -27zM143 320c-17 0 -26 10 -26 29c0 17 9 26 26 26c19 0 29 -9 29 -26c0 -19 -10 -29 -29 -29zM316 320c-19 0 -29 10 -29 29c0 17 10 26 29 26c17 0 26 -9 26 -26c0 -19 -9 -29 -26 -29zM80 257
c-17 0 -26 9 -26 28c0 18 9 27 26 27c19 0 28 -9 28 -27c0 -19 -9 -28 -28 -28zM406 285c0 -19 -9 -28 -27 -28s-27 9 -27 28c0 18 9 27 27 27s27 -9 27 -27zM58 172c-17 0 -26 9 -26 27s9 27 26 27c19 0 28 -9 28 -27s-9 -27 -28 -27zM428 199c0 -18 -9 -27 -27 -27
s-27 9 -27 27s9 27 27 27s27 -9 27 -27zM80 86c-17 0 -26 9 -26 27s9 27 26 27c19 0 28 -9 28 -27s-9 -27 -28 -27zM406 113c0 -18 -9 -27 -27 -27s-27 9 -27 27s9 27 27 27s27 -9 27 -27zM143 23c-17 0 -26 9 -26 27s9 27 26 27c19 0 29 -9 29 -27s-10 -27 -29 -27zM316 23
c-19 0 -29 9 -29 27s10 27 29 27c17 0 26 -9 26 -27s-9 -27 -26 -27zM257 28c0 -18 -9 -27 -27 -27s-27 9 -27 27c0 19 9 28 27 28s27 -9 27 -28z" />
    <glyph glyph-name="uni274A" unicode="&#x274a;" horiz-adv-x="634" 
d="M318 208l-94 -200l-47 23l99 196l-211 -48l-11 49l212 43l-174 136l35 41l167 -141l-2 220h53l-4 -220l170 139l32 -41l-174 -135l211 -45l-11 -49l-210 52l96 -198l-46 -23z" />
    <glyph glyph-name="fi" unicode="&#xfb01;" horiz-adv-x="519" 
d="M252 768c28 0 51 -4 69 -12l-12 -52c-13 7 -31 10 -54 10c-54 0 -81 -40 -81 -119v-133h108v-54h-108v-408h-60v408h-96v54h96v155c0 93 58 151 138 151zM367 677c17 17 47 17 64 0s17 -47 0 -64s-47 -17 -64 0s-17 47 0 64zM369 0v462h60v-462h-60z" />
    <glyph glyph-name="fl" unicode="&#xfb02;" horiz-adv-x="519" 
d="M252 768c28 0 51 -4 69 -12l-12 -52c-13 7 -31 10 -54 10c-54 0 -81 -40 -81 -119v-133h108v-54h-108v-408h-60v408h-96v54h96v155c0 93 58 151 138 151zM369 0v756h60v-756h-60z" />
    <glyph glyph-name="uniFBB2" unicode="&#xfbb2;" 
d="M1 549c-55 0 -55 82 0 82c52 0 52 -82 0 -82z" />
    <glyph glyph-name="uniFBB3" unicode="&#xfbb3;" 
d="M1 -172c-55 0 -55 82 0 82c52 0 52 -82 0 -82z" />
    <glyph glyph-name="uniFBB4" unicode="&#xfbb4;" 
d="M-66 549c-23 0 -41 17 -41 41s18 41 41 41c53 5 53 -87 0 -82zM67 549c-55 -5 -55 87 0 82c52 5 52 -87 0 -82z" />
    <glyph glyph-name="uniFBB5" unicode="&#xfbb5;" 
d="M-66 -172c-23 0 -41 17 -41 41s18 41 41 41c53 5 53 -87 0 -82zM67 -172c-55 -5 -55 87 0 82c52 5 52 -87 0 -82z" />
    <glyph glyph-name="uniFBB6" unicode="&#xfbb6;" 
d="M3 651c-24 0 -41 18 -41 42c0 23 17 41 41 41c23 0 40 -18 40 -41c0 -24 -17 -42 -40 -42zM-66 552c-23 0 -41 17 -41 41c0 23 18 41 41 41c24 0 41 -18 41 -41c0 -24 -17 -41 -41 -41zM67 552c-24 0 -42 17 -42 41c0 23 18 41 42 41c23 0 40 -18 40 -41
c0 -24 -17 -41 -40 -41z" />
    <glyph glyph-name="uniFBB9" unicode="&#xfbb9;" 
d="M-37 -162c-25 -25 -70 -7 -70 31c0 23 18 40 41 40c24 0 41 -17 41 -40c0 -13 -4 -23 -12 -31zM67 -173c-24 0 -42 17 -42 42c0 23 18 40 42 40c23 0 40 -17 40 -40c0 -25 -17 -42 -40 -42zM32 -259c-27 -27 -71 -6 -71 29c-5 53 87 53 82 0c0 -11 -4 -21 -11 -29z" />
    <glyph glyph-name="uniFD3E" unicode="&#xfd3e;" horiz-adv-x="512" 
d="M464 -97c-13 0 -37 15 -70 45s-67 68 -100 114c-34 45 -56 86 -65 121l-68 -11c-13 -3 -20 11 -11 23l57 79c5 5 8 10 8 17c0 5 -4 8 -12 8c-5 0 -9 -2 -14 -7l-72 -64c-5 -5 -10 -8 -14 -8c-9 0 -14 6 -14 19v56c-39 19 -59 36 -59 49s20 29 59 48v55c0 13 5 20 14 20
c1 0 6 -3 14 -9l72 -64c7 -5 11 -7 14 -7c8 0 12 3 12 9c0 7 -3 12 -8 17l-57 79c-8 12 -2 24 11 23l68 -11c9 35 31 76 65 122c33 45 67 83 100 113s57 45 70 45c12 0 13 -6 2 -18c-92 -111 -144 -189 -152 -264l48 6c19 3 25 -7 14 -18l-63 -74c-7 -9 -11 -14 -11 -17
c0 -5 3 -7 10 -7c5 0 10 1 14 3l74 54c15 11 25 11 25 -2v-55c40 -15 60 -31 60 -48c0 -18 -20 -34 -60 -49v-56c0 -13 -10 -13 -25 -2l-74 55c-4 2 -9 3 -14 3c-7 0 -10 -3 -10 -8c0 -1 4 -7 11 -18l63 -72c11 -11 5 -21 -14 -18l-48 6c9 -83 60 -171 152 -264
c11 -9 9 -18 -2 -18zM182 491l47 -68v27h22l20 32v-32h18v-26l63 64l-67 -13c3 25 14 60 33 105v42c-33 -33 -63 -97 -75 -146zM112 313v-53l72 56h-44v17c-13 3 -23 7 -28 11c5 3 15 7 28 10v16h44l-72 57v-53c-38 -13 -57 -23 -57 -30s19 -18 57 -31zM334 314l70 -53v52
c32 7 57 20 57 31c0 8 -25 23 -57 30v52l-70 -53h40v-18c9 -1 20 -4 31 -11c-10 -7 -20 -11 -31 -12v-18h-40zM259 295c28 0 48 21 48 49c0 27 -20 48 -48 48c-25 0 -47 -24 -47 -48c0 -25 22 -49 47 -49zM318 64v43c-19 43 -30 78 -33 104l67 -13l-63 65v-28h-18v-31
l-20 31h-22v28l-47 -67l61 14c16 -62 41 -111 75 -146z" />
    <glyph glyph-name="uniFD3F" unicode="&#xfd3f;" horiz-adv-x="512" 
d="M51 -97c-10 0 -13 9 -2 18c92 93 143 181 152 264l-48 -6c-19 -3 -25 7 -14 18l63 72c7 11 11 17 11 18c0 5 -3 8 -10 8c-5 0 -10 -1 -14 -3l-74 -55c-15 -11 -25 -11 -25 2v56c-40 15 -60 31 -60 49c0 17 20 33 60 48v55c0 13 10 13 25 2l74 -54c4 -2 9 -3 14 -3
c7 0 10 2 10 7c0 3 -4 8 -11 17l-63 74c-11 11 -5 21 14 18l48 -6c-8 75 -60 153 -152 264c-11 12 -10 18 2 18c13 0 37 -15 70 -45s67 -68 101 -113c33 -46 55 -87 64 -122l68 11c13 1 19 -11 11 -23l-57 -79c-5 -5 -8 -10 -8 -17c0 -6 4 -9 12 -9c3 0 7 2 14 7l72 64
c8 6 13 9 14 9c9 0 14 -7 14 -20v-55c39 -19 59 -35 59 -48s-20 -30 -59 -49v-56c0 -13 -5 -19 -14 -19c-4 0 -9 3 -14 8l-72 64c-5 5 -9 7 -14 7c-8 0 -12 -3 -12 -8c0 -7 3 -12 8 -17l57 -79c9 -12 2 -26 -11 -23l-68 11c-9 -35 -31 -76 -64 -121
c-34 -46 -68 -84 -101 -114s-57 -45 -70 -45zM286 450v-27l47 68l-61 -15c-12 49 -42 113 -75 146v-42c19 -45 30 -80 33 -105l-67 13l63 -64v26h18v32l20 -32h22zM331 316l72 -56v53c38 13 57 24 57 31s-19 17 -57 30v53l-72 -57h44v-16c13 -3 23 -7 28 -10
c-5 -4 -15 -8 -28 -11v-17h-44zM111 313v-52l70 53h-40v18c-11 1 -21 5 -31 12c11 7 22 10 31 11v18h40l-70 53v-52c-32 -7 -57 -22 -57 -30c0 -11 25 -24 57 -31zM256 295c25 0 47 24 47 49c0 24 -23 48 -47 48c-28 0 -48 -21 -48 -48c0 -28 20 -49 48 -49zM197 107v-43
c34 35 59 84 75 146l61 -14l-47 67v-28h-22l-20 -31v31h-18v28l-63 -65l67 13c-3 -26 -14 -61 -33 -104z" />
    <glyph glyph-name="uniFEFF" unicode="&#xfeff;" 
 />
    <glyph glyph-name="uniFBE9.wide" horiz-adv-x="324" 
d="M324 57c13 0 20 -9 20 -28s-7 -29 -20 -29c-79 0 -133 25 -160 76c-28 -51 -81 -76 -160 -76h-4v57h6c85 0 122 41 122 140v204h60v-213v-4c0 -85 45 -127 136 -127z" />
    <glyph glyph-name="uniFBE8.wide" horiz-adv-x="279" 
d="M4 0h-4v57h6c85 0 122 41 122 140v204h60v-213c0 -125 -61 -188 -184 -188z" />
    <glyph glyph-name="uniFBAF.wide" horiz-adv-x="767" 
d="M344 -260c-212 0 -311 50 -311 163c0 99 77 154 212 154h522c13 0 20 -9 20 -28s-7 -29 -20 -29h-528c-99 0 -149 -32 -149 -95c0 -76 75 -106 268 -106c109 0 232 12 367 36l3 -58c-149 -25 -277 -37 -384 -37z" />
    <glyph glyph-name="uniFBB1.wide" horiz-adv-x="767" 
d="M217 203h87v-32h-160v32h39c-11 18 -16 36 -16 53c0 45 34 75 82 75c13 0 29 -2 46 -6l-6 -32c-11 3 -23 5 -35 5c-48 0 -70 -42 -37 -95zM245 57h522c13 0 20 -9 20 -28s-7 -29 -20 -29h-528c-99 0 -149 -32 -149 -95c0 -76 75 -106 268 -106c109 0 232 12 367 36l3 -58
c-149 -25 -277 -37 -384 -37c-212 0 -311 50 -311 163c0 99 77 154 212 154z" />
    <glyph glyph-name="uni0660.lf" horiz-adv-x="227" 
d="M177 294l-63 -63l-64 64l64 61z" />
    <glyph glyph-name="uni0661.lf" horiz-adv-x="280" 
d="M170 0h-60v653h60v-653z" />
    <glyph glyph-name="uni0662.lf" horiz-adv-x="515" 
d="M409 649l60 4c11 -159 -38 -232 -165 -232c-41 0 -85 10 -134 31v-452h-60v653h60v-144c49 -22 94 -33 135 -33c85 0 115 52 104 173z" />
    <glyph glyph-name="uni0663.lf" horiz-adv-x="623" 
d="M516 649l60 4c12 -145 -29 -217 -124 -217c-35 0 -74 9 -116 26c-21 -17 -46 -26 -77 -26c-30 0 -60 5 -89 16v-452h-60v653h60v-149c27 -9 52 -14 77 -14c63 0 87 48 76 159l60 4c5 -64 0 -114 -16 -149c28 -9 53 -14 74 -14c61 0 86 48 75 159z" />
    <glyph glyph-name="uni0664.lf" horiz-adv-x="501" 
d="M438 57l3 -55c-52 -5 -93 -8 -123 -8c-156 0 -243 50 -243 153c0 81 58 149 158 188c-71 23 -125 69 -125 138c0 116 108 182 276 182c7 0 15 0 23 -1v-56c-145 7 -238 -37 -238 -126c0 -75 81 -116 222 -101v-57c-167 -15 -255 -78 -255 -157c0 -71 63 -106 190 -106
c27 0 64 2 112 6z" />
    <glyph glyph-name="uni0665.lf" horiz-adv-x="585" 
d="M506 266c0 -183 -71 -274 -213 -274s-213 91 -213 274c0 127 21 223 64 289c42 66 92 99 149 99c58 0 108 -33 150 -99s63 -162 63 -289zM142 268c0 -145 50 -218 151 -218s151 73 151 218c0 101 -15 181 -45 240c-31 59 -66 88 -106 88s-75 -29 -105 -88
c-31 -59 -46 -139 -46 -240z" />
    <glyph glyph-name="uni0666.lf" horiz-adv-x="520" 
d="M410 0h-60v597h-315v56h375v-653z" />
    <glyph glyph-name="uni0667.lf" horiz-adv-x="596" 
d="M298 86l189 573l64 -20l-219 -639h-67l-220 641l63 18z" />
    <glyph glyph-name="uni0668.lf" horiz-adv-x="596" 
d="M330 652l221 -641l-64 -18l-189 570l-190 -570l-63 19l219 640h66z" />
    <glyph glyph-name="uni0669.lf" horiz-adv-x="537" 
d="M277 653h150v-653h-60v282c-91 -8 -164 3 -219 32s-83 76 -83 143c0 121 81 196 212 196zM126 457c0 -49 23 -83 70 -102c46 -20 103 -26 171 -17v259h-77c-103 0 -164 -52 -164 -140z" />
    <glyph glyph-name="uni06F0.lf" horiz-adv-x="227" 
d="M177 294l-63 -63l-64 64l64 61z" />
    <glyph glyph-name="uni06F1.lf" horiz-adv-x="280" 
d="M170 0h-60v653h60v-653z" />
    <glyph glyph-name="uni06F2.lf" horiz-adv-x="515" 
d="M409 649l60 4c11 -159 -38 -232 -165 -232c-41 0 -85 10 -134 31v-452h-60v653h60v-144c49 -22 94 -33 135 -33c85 0 115 52 104 173z" />
    <glyph glyph-name="uni06F3.lf" horiz-adv-x="623" 
d="M516 649l60 4c12 -145 -29 -217 -124 -217c-35 0 -74 9 -116 26c-21 -17 -46 -26 -77 -26c-30 0 -60 5 -89 16v-452h-60v653h60v-149c27 -9 52 -14 77 -14c63 0 87 48 76 159l60 4c5 -64 0 -114 -16 -149c28 -9 53 -14 74 -14c61 0 86 48 75 159z" />
    <glyph glyph-name="uni06F4.lf" horiz-adv-x="605" 
d="M552 474l8 -54c-60 -12 -122 -18 -185 -18c-74 0 -142 11 -205 34v-436h-60v653h60v-161c40 -14 88 -24 143 -31c-10 28 -15 54 -15 78c0 81 44 121 131 121c29 0 58 -4 89 -12l-14 -55c-22 7 -45 11 -70 11c-55 0 -82 -26 -82 -78c0 -21 5 -43 15 -68h9
c62 0 121 5 176 16z" />
    <glyph glyph-name="uni06F5.lf" horiz-adv-x="595" 
d="M221 -6c-88 0 -141 80 -141 259c0 129 32 241 77 304c44 63 96 97 144 97c56 0 106 -34 150 -103c43 -69 65 -168 65 -298c0 -167 -53 -259 -129 -259c-29 0 -58 13 -87 39c-26 -26 -52 -39 -79 -39zM229 51c23 0 57 25 70 33c8 -5 47 -36 75 -33c47 0 80 76 80 203
c0 105 -16 189 -47 251c-31 61 -67 92 -106 92s-75 -32 -108 -96c-34 -64 -51 -146 -51 -245c0 -136 38 -205 87 -205z" />
    <glyph glyph-name="uni06F6.lf" horiz-adv-x="501" 
d="M341 360l64 74l47 -40l-352 -412l-48 39l243 284c-131 13 -209 75 -209 168c0 111 99 181 276 181h24v-56c-155 7 -238 -42 -238 -126c0 -67 70 -107 193 -112z" />
    <glyph glyph-name="uni06F7.lf" horiz-adv-x="596" 
d="M298 86l189 573l64 -20l-219 -639h-67l-220 641l63 18z" />
    <glyph glyph-name="uni06F8.lf" horiz-adv-x="596" 
d="M330 652l221 -641l-64 -18l-189 570l-190 -570l-63 19l219 640h66z" />
    <glyph glyph-name="uni06F9.lf" horiz-adv-x="537" 
d="M277 653h150v-653h-60v282c-91 -8 -164 3 -219 32s-83 76 -83 143c0 121 81 196 212 196zM126 457c0 -49 23 -83 70 -102c46 -20 103 -26 171 -17v259h-77c-103 0 -164 -52 -164 -140z" />
    <glyph glyph-name="uni06F4.urdu" horiz-adv-x="540" 
d="M399 473h-49c-27 81 -63 122 -108 122c-41 0 -68 -36 -68 -100v-495h-60v495c0 107 48 163 123 163c57 0 105 -40 142 -120c23 32 57 69 100 110l40 -41c-47 -44 -87 -89 -120 -134z" />
    <glyph glyph-name="uni06F7.urdu" horiz-adv-x="540" 
d="M474 0h-369l-37 57l283 594l59 -26l-273 -568h337v-57z" />
    <glyph glyph-name="uni06F4.urdu.lf" horiz-adv-x="495" 
d="M375 473h-49c-27 81 -63 122 -108 122c-41 0 -68 -36 -68 -100v-495h-60v495c0 107 48 163 123 163c57 0 105 -40 142 -120c23 32 57 69 100 110l40 -41c-47 -44 -87 -89 -120 -134z" />
    <glyph glyph-name="uni06F7.urdu.lf" horiz-adv-x="476" 
d="M446 0h-369l-37 57l283 594l59 -26l-273 -568h337v-57z" />
    <glyph glyph-name="acute.case" horiz-adv-x="240" 
d="M166 896h80l-134 -144h-50z" />
    <glyph glyph-name="breve.case" horiz-adv-x="240" 
d="M-24 881h42c7 -49 44 -78 101 -78c65 0 91 23 103 78h42c-9 -80 -65 -126 -146 -126c-84 0 -138 49 -142 126z" />
    <glyph glyph-name="caron.case" horiz-adv-x="240" 
d="M83 752l-109 144h62l83 -114l86 114h54l-106 -144h-70z" />
    <glyph glyph-name="circumflex.case" horiz-adv-x="240" 
d="M85 896h70l108 -144h-65l-81 108l-81 -108h-59z" />
    <glyph glyph-name="dieresis.case" horiz-adv-x="240" 
d="M-9 874c30 30 82 8 82 -34c0 -28 -21 -48 -48 -48c-28 0 -48 20 -48 48c0 13 5 25 14 34zM181 874c30 30 82 8 82 -34c0 -27 -21 -48 -48 -48c-28 0 -48 20 -48 48c0 13 5 25 14 34z" />
    <glyph glyph-name="dotaccent.case" horiz-adv-x="240" 
d="M89 874c30 30 82 8 82 -34c0 -28 -20 -48 -48 -48c-27 0 -48 20 -48 48c0 13 5 25 14 34z" />
    <glyph glyph-name="grave.case" horiz-adv-x="240" 
d="M-6 896h80l104 -144h-50z" />
    <glyph glyph-name="hungarumlaut.case" horiz-adv-x="240" 
d="M93 896h80l-134 -144h-50zM239 896h80l-134 -144h-50z" />
    <glyph glyph-name="macron.case" horiz-adv-x="240" 
d="M-12 847h264v-48h-264v48z" />
    <glyph glyph-name="ring.case" horiz-adv-x="240" 
d="M121 932c49 0 92 -44 92 -96c0 -51 -43 -94 -92 -94c-51 0 -94 43 -94 95s43 95 94 95zM63 836c0 -32 25 -58 57 -58s57 26 57 59c0 35 -25 59 -57 59s-57 -27 -57 -60z" />
    <glyph glyph-name="tilde.case" horiz-adv-x="240" 
d="M54 871c17 0 42 -8 74 -24c31 -16 53 -24 64 -24c24 0 40 16 48 48h36c-7 -63 -40 -102 -84 -102c-18 0 -43 8 -75 24c-33 16 -55 24 -66 24c-25 0 -42 -16 -51 -48h-36c9 60 45 102 90 102z" />
    <glyph glyph-name="waslaar" 
d="M48 681c47 0 76 -33 76 -84c0 -19 -3 -37 -9 -53h-239v32h51v99h32v-46c23 35 53 52 89 52zM45 648c-36 0 -70 -29 -89 -72h134c2 8 3 15 3 22c0 32 -20 50 -48 50z" />
    <glyph glyph-name="gafsarkashabovear" 
d="M147 635l-253 -242l-41 41l254 241z" />
    <glyph glyph-name="uni0654.big" 
d="M-10 597h113v-40h-206v40h50c-14 22 -21 45 -21 70c0 57 42 93 103 93c19 0 40 -2 62 -7l-8 -39c-22 3 -37 5 -46 5c-39 0 -69 -19 -69 -58c0 -20 7 -41 22 -64z" />
    <glyph glyph-name="uni0654064F" 
d="M83 884c0 -79 -47 -126 -104 -126c-21 0 -39 5 -56 15l14 28c13 -7 27 -11 42 -11c31 0 53 17 66 51c-8 -1 -15 -2 -20 -2c-40 0 -69 20 -69 59c0 40 30 74 66 74s61 -36 61 -88zM31 870c5 0 12 1 21 2c1 3 1 7 1 12c0 32 -13 56 -34 56c-20 0 -34 -18 -34 -39
s15 -31 46 -31zM-8 659c-20 -17 -20 -48 1 -83h87v-32h-160v32h39c-11 18 -16 36 -16 53c0 45 34 75 82 75c13 0 29 -2 46 -6l-6 -32c-11 3 -23 5 -35 5c-15 0 -28 -4 -38 -12z" />
    <glyph glyph-name="uni0654064C" 
d="M11 758c-50 0 -82 72 -104 72c-12 0 -26 -11 -43 -34l-21 19c21 31 43 46 66 46c15 0 33 -12 53 -35c21 -24 38 -36 51 -36c29 0 49 17 62 51c-8 -1 -15 -2 -20 -2c-40 0 -69 20 -69 59c0 40 30 74 66 74s61 -36 61 -88c0 -73 -49 -126 -102 -126zM61 870c5 0 12 1 21 2
c1 3 1 7 1 12c0 37 -11 56 -33 56c-20 0 -35 -18 -35 -39s15 -31 46 -31zM-8 659c-20 -17 -20 -48 1 -83h87v-32h-160v32h39c-11 18 -16 36 -16 53c0 45 34 75 82 75c13 0 29 -2 46 -6l-6 -32c-11 3 -23 5 -35 5c-15 0 -28 -4 -38 -12z" />
    <glyph glyph-name="uni0654064E" 
d="M-106 785l224 34l3 -1l-5 -32l-224 -34l-3 1zM-8 659c-20 -17 -20 -48 1 -83h87v-32h-160v32h39c-11 18 -16 36 -16 53c0 45 34 75 82 75c13 0 29 -2 46 -6l-6 -32c-11 3 -23 5 -35 5c-15 0 -28 -4 -38 -12z" />
    <glyph glyph-name="uni0654064B" 
d="M121 909l-5 -32l-224 -34l-3 1l5 32l224 34zM-111 753l5 32l224 34l3 -1l-5 -32l-224 -34zM-8 659c-20 -17 -20 -48 1 -83h87v-32h-160v32h39c-11 18 -16 36 -16 53c0 45 34 75 82 75c13 0 29 -2 46 -6l-6 -32c-11 3 -23 5 -35 5c-15 0 -28 -4 -38 -12z" />
    <glyph glyph-name="uni06540652" 
d="M61 773c-24 -23 -74 -23 -98 0c-23 23 -23 71 1 103c25 32 71 32 96 0c24 -32 24 -80 1 -103zM36 854c-20 29 -58 7 -58 -31c0 -23 11 -35 34 -35c22 0 33 12 33 35c0 12 -3 22 -9 31zM-7 576h87v-32h-160v32h39c-11 18 -16 36 -16 53c0 45 34 75 82 75c13 0 29 -2 46 -6
l-6 -32c-11 3 -23 5 -35 5c-48 0 -70 -42 -37 -95z" />
    <glyph glyph-name="uni06550650" 
d="M-7 -218h87v-32h-160v32h38c-10 16 -15 33 -15 52c0 45 33 76 81 76c15 0 30 -2 47 -7l-6 -31c-11 3 -23 5 -35 5c-31 0 -53 -18 -53 -47c0 -17 5 -33 16 -48zM-107 -345l224 34l3 -1l-5 -32l-224 -34l-3 1z" />
    <glyph glyph-name="uni0655064D" 
d="M-7 -218h87v-32h-160v32h38c-10 16 -15 33 -15 52c0 45 33 76 81 76c15 0 30 -2 47 -7l-6 -31c-11 3 -23 5 -35 5c-31 0 -53 -18 -53 -47c0 -17 5 -33 16 -48zM120 -312l-5 -32l-224 -34l-3 1l5 32l224 34zM-112 -457l5 32l224 34l3 -1l-5 -32l-224 -34z" />
    <glyph glyph-name="uni06510670" 
d="M10 882v-165l-27 -10h-5v175h32zM75 675l24 10c30 -57 12 -124 -45 -124c-21 0 -37 6 -48 17c-11 -19 -28 -28 -53 -28c-41 0 -66 25 -66 64c0 15 3 31 10 47l24 -7c-3 -9 -5 -19 -5 -30c0 -26 12 -39 37 -39c22 0 33 13 33 39c0 7 -1 15 -3 23l25 6c4 -14 6 -27 6 -38
v-5c9 -11 22 -16 38 -16c21 0 32 12 32 35c0 15 -3 30 -9 46z" />
    <glyph glyph-name="uni0651064F" 
d="M73 827c0 -79 -47 -126 -104 -126c-21 0 -39 5 -56 15l14 28c13 -7 27 -11 42 -11c31 0 53 17 66 51c-8 -1 -15 -2 -20 -2c-40 0 -69 20 -69 59c0 40 30 74 66 74s61 -36 61 -88zM21 813c5 0 12 1 21 2c1 3 1 7 1 12c0 32 -13 56 -34 56c-20 0 -34 -18 -34 -39
s15 -31 46 -31zM75 675l24 10c30 -57 12 -124 -45 -124c-21 0 -37 6 -48 17c-11 -19 -28 -28 -53 -28c-41 0 -66 25 -66 64c0 15 3 31 10 47l24 -7c-3 -9 -5 -19 -5 -30c0 -26 12 -39 37 -39c22 0 33 13 33 39c0 7 -1 15 -3 23l25 6c4 -14 6 -27 6 -38v-5
c9 -11 22 -16 38 -16c21 0 32 12 32 35c0 15 -3 30 -9 46z" />
    <glyph glyph-name="uni0651064C" 
d="M1 701c-50 0 -82 72 -104 72c-12 0 -26 -11 -43 -34l-21 19c21 31 43 46 66 46c15 0 33 -12 53 -35c21 -24 38 -36 51 -36c29 0 49 17 62 51c-8 -1 -15 -2 -20 -2c-40 0 -69 20 -69 59c0 40 30 74 66 74s61 -36 61 -88c0 -73 -49 -126 -102 -126zM51 813c5 0 12 1 21 2
c1 3 1 7 1 12c0 37 -11 56 -33 56c-20 0 -35 -18 -35 -39s15 -31 46 -31zM75 675l24 10c30 -57 12 -124 -45 -124c-21 0 -37 6 -48 17c-11 -19 -28 -28 -53 -28c-41 0 -66 25 -66 64c0 15 3 31 10 47l24 -7c-3 -9 -5 -19 -5 -30c0 -26 12 -39 37 -39c22 0 33 13 33 39
c0 7 -1 15 -3 23l25 6c4 -14 6 -27 6 -38v-5c9 -11 22 -16 38 -16c21 0 32 12 32 35c0 15 -3 30 -9 46z" />
    <glyph glyph-name="uni0651064E" 
d="M108 762l3 -1l-5 -32l-224 -34l-3 1l5 32zM75 675l24 10c30 -57 12 -124 -45 -124c-21 0 -37 6 -48 17c-11 -19 -28 -28 -53 -28c-41 0 -66 25 -66 64c0 15 3 31 10 47l24 -7c-3 -9 -5 -19 -5 -30c0 -26 12 -39 37 -39c22 0 33 13 33 39c0 7 -1 15 -3 23l25 6
c4 -14 6 -27 6 -38v-5c9 -11 22 -16 38 -16c21 0 32 12 32 35c0 15 -3 30 -9 46z" />
    <glyph glyph-name="uni0651064B.1" 
d="M111 852l-5 -32l-224 -34l-3 1l5 32l224 34zM108 762l3 -1l-5 -32l-224 -34l-3 1l5 32zM75 675l24 10c30 -57 12 -124 -45 -124c-21 0 -37 6 -48 17c-11 -19 -28 -28 -53 -28c-41 0 -66 25 -66 64c0 15 3 31 10 47l24 -7c-3 -9 -5 -19 -5 -30c0 -26 12 -39 37 -39
c22 0 33 13 33 39c0 7 -1 15 -3 23l25 6c4 -14 6 -27 6 -38v-5c9 -11 22 -16 38 -16c21 0 32 12 32 35c0 15 -3 30 -9 46z" />
    <glyph glyph-name="uni06510650" 
d="M-42 641c-41 0 -66 25 -66 64c0 15 3 31 10 47l24 -7c-3 -9 -5 -19 -5 -30c0 -26 12 -39 37 -39c22 0 33 13 33 39c0 7 -1 15 -3 23l25 6c4 -14 6 -27 6 -38v-5c9 -11 22 -16 38 -16c21 0 32 12 32 35c0 15 -3 30 -9 46l24 10c30 -57 12 -124 -45 -124
c-21 0 -37 6 -48 17c-11 -19 -28 -28 -53 -28zM-116 545l5 32l224 34l3 -1l-5 -32l-224 -34z" />
    <glyph glyph-name="uni0651064D" 
d="M-42 732c-41 0 -66 25 -66 64c0 15 3 31 10 47l24 -7c-3 -9 -5 -19 -5 -30c0 -26 12 -39 37 -39c22 0 33 13 33 39c0 7 -1 15 -3 23l25 6c4 -14 6 -27 6 -38v-5c9 -11 22 -16 38 -16c21 0 32 12 32 35c0 15 -3 30 -9 46l24 10c30 -57 12 -124 -45 -124
c-21 0 -37 6 -48 17c-11 -19 -28 -28 -53 -28zM-116 636l5 32l224 34l3 -1l-5 -32l-224 -34zM-116 545l5 32l224 34l3 -1l-5 -32l-224 -34z" />
    </font>
</defs>
</svg>
